<svg xmlns="http://www.w3.org/2000/svg" viewBox="0 0 971.08 100.1"><defs><style>.cls-1{fill:#fff;}.cls-2{fill:#f97a0b;}</style></defs><g id="レイヤー_2" data-name="レイヤー 2"><g id="design"><path class="cls-1" d="M233.89,26.76c-.07,2.17-.14,4.27-.28,6.3h13.16a32.54,32.54,0,0,0,5.25-.49l6.09,2.94a28.62,28.62,0,0,0-.49,3.71c-.28,7.56-1.12,27.09-4.13,34.23-1.54,3.57-4.2,5.39-9,5.39-4,0-8.19-.28-11.55-.56l-1.12-9.38a57.94,57.94,0,0,0,9.8,1c2.24,0,3.22-.77,4-2.45,2-4.41,2.94-18.41,2.94-26H232.77c-2.59,18.48-9.24,29.47-21.77,38.36l-8.12-6.58a41.71,41.71,0,0,0,9.17-6.86c6.51-6.44,10-14.28,11.55-24.92h-9.24c-2.38,0-6.23,0-9.24.28V32.57c2.94.28,6.58.49,9.24.49h10c.07-2,.14-4,.14-6.09a51.8,51.8,0,0,0-.49-6.44h10.29C234.1,22.14,234,25.08,233.89,26.76Z"/><path class="cls-1" d="M307.13,25.92v5.39h12.18a17,17,0,0,0,5.81-.77l6.1,3.71a45,45,0,0,0-1.41,5.6,65.19,65.19,0,0,1-6.51,19.81c-5.6,10.36-16.1,17.78-28.56,21l-7.28-8.4a57,57,0,0,0,9.87-2.73,34.27,34.27,0,0,0,15.89-12c3.57-5.11,5.39-11.76,6.23-18H284.73V49.79c0,1.61.07,3.78.21,5.18h-9.66a53.09,53.09,0,0,0,.35-5.88V37a44.69,44.69,0,0,0-.35-6,58.07,58.07,0,0,0,7.14.35h15V25.92a34.59,34.59,0,0,0-.56-6.44h10.78A50.88,50.88,0,0,0,307.13,25.92Z"/><path class="cls-1" d="M371.87,60.92c12-7.07,21.08-17.78,25.49-27.23l5.46,9.87c-5.32,9.45-14.63,19.11-25.9,25.9a75.94,75.94,0,0,1-26,9.87l-5.88-9.24A72.15,72.15,0,0,0,371.87,60.92Zm0-22.61-7.14,7.28a145.55,145.55,0,0,0-17.5-15.12l6.58-7C358.71,26.76,367.81,34,371.87,38.31Z"/><path class="cls-1" d="M432.34,48.25c-6.23,1.26-11.76,2.38-14.7,3.08L416,42.16c3.29-.42,9.45-1.47,16.38-2.73v-10a60.54,60.54,0,0,0-.56-8h10.43a73.57,73.57,0,0,0-.63,8.05v8.26c10.22-2,20-3.92,23.17-4.69a19.74,19.74,0,0,0,5-1.61l6.72,5.18c-.63,1-1.68,2.59-2.31,3.85-3.08,5.81-9.45,15.4-14.49,20.37l-7.7-4.55A59.61,59.61,0,0,0,463.14,42c-2.17.49-11.62,2.31-21.56,4.34V64.91c0,4.34,1.26,5.88,9,5.88a114.36,114.36,0,0,0,22-2.38l-.28,9.52a164.54,164.54,0,0,1-21.7,1.54c-16,0-18.27-3.85-18.27-12.11Z"/><path class="cls-1" d="M504.87,28.3V52c0,1.75.07,4.48.21,6.09H494.93c.07-1.33.35-4.06.35-6.16V28.3a49.7,49.7,0,0,0-.28-5.39h10.08C504.94,24.52,504.87,26.06,504.87,28.3Zm32.41,1.05V43.21c0,15-2.94,21.56-8.12,27.3-4.62,5-11.9,8.47-17,10.08l-7.28-7.7c6.93-1.61,12.6-4.27,16.8-8.82,4.83-5.25,5.74-10.5,5.74-21.42V29.35a49.38,49.38,0,0,0-.42-7h10.57C537.42,24.31,537.28,26.55,537.28,29.35Z"/><path class="cls-1" d="M582.64,60.92c12-7.07,21.08-17.78,25.49-27.23l5.46,9.87C608.27,53,599,62.67,587.69,69.46a75.94,75.94,0,0,1-26,9.87l-5.88-9.24A72.15,72.15,0,0,0,582.64,60.92Zm0-22.61-7.14,7.28A145.55,145.55,0,0,0,558,30.47l6.58-7C569.48,26.76,578.58,34,582.64,38.31Z"/><path class="cls-1" d="M681.94,28.93l-5.18,2.17,6,3.64a28,28,0,0,0-2.31,5,71.12,71.12,0,0,1-12.26,23.31c-6.65,8.19-15,14.56-28.21,19.81l-8.26-7.42c14.28-4.27,22.05-10.36,28.21-17.36,4.76-5.39,8.82-13.86,9.94-19H650.15A78.65,78.65,0,0,1,632.44,56l-7.84-5.88A60.54,60.54,0,0,0,646.44,27.6a31.67,31.67,0,0,0,3.15-7.28l10.29,3.36a72.62,72.62,0,0,0-4.27,7.14c-.07.14-.14.21-.21.35h14a22.05,22.05,0,0,0,6.09-.84l.5.28a82.87,82.87,0,0,0-5.12-9l5.53-2.24A89.09,89.09,0,0,1,681.94,28.93Zm8.4-3.22-5.53,2.38a74.22,74.22,0,0,0-5.67-9.66l5.53-2.24A100,100,0,0,1,690.34,25.71Z"/><path class="cls-1" d="M752.82,65.61c5,5.6,12.81,8.82,23.88,10a32.39,32.39,0,0,0-4.9,7.28c-13.31-2.1-21.64-7.07-27.17-15.75-4.13,6.23-11.9,11.76-26.18,15.61A34,34,0,0,0,713.27,76c11.76-2.66,18.48-6.3,22.33-10.43H714.53V58.4h25.13a32.08,32.08,0,0,0,.7-4.41H722.44V47.27h18v-4.2H721.32V38.45h-6.23V23.54h25.55V17.45h8.54v6.09h25.63V38.45h-5.6v4.62H748.76v4.2h19V54H748.69a23.77,23.77,0,0,1-.56,4.41h27.66v7.21ZM740.43,36.35v-4h8.33v4h17.43V30.82H723.35v5.53Z"/><path class="cls-1" d="M785.2,10.24V90.68H704.76V10.24H785.2m3-3H701.76V93.68H788.2V7.24Z"/><path class="cls-1" d="M859.07,75.62c2.73,0,3.29-1.19,3.71-7.35a22.93,22.93,0,0,0,6.72,2.87c-.91,8.75-3,11.41-9.8,11.41H847.45c-8.26,0-10.5-2.24-10.5-10.22V58.89l-2.87,1.33-2.87-6.79c-.28,17.15-.77,23.87-2.38,26.11a6.27,6.27,0,0,1-4.48,2.87,36.59,36.59,0,0,1-7.21.35,19.74,19.74,0,0,0-2-7.42,39.23,39.23,0,0,0,5,.28,2,2,0,0,0,2-1.12c.91-1.4,1.33-7.28,1.61-23.73h-5.46c-1,12.6-3.23,23.94-9,31.92a24.71,24.71,0,0,0-5.95-5.81c6.93-9.59,7.56-25,7.77-41.16h-6.72V28H815.1V17.45h8V28H834v5.25a50.56,50.56,0,0,0,6.23-15.89l8.19,1.54c-.56,2.45-1.33,4.9-2.1,7.28h22v7.56H843.18a45.59,45.59,0,0,1-4,6.79h5.11v6.72l3.78-1.75v-10H855V42.3l5-2.31.28-.21,1.26-.91,5.18,1.82-.28,1.12c-.07,9.94-.07,17.08-.28,19.18-.14,2.52-1.12,4.06-3,4.83a16,16,0,0,1-5.81.77,19,19,0,0,0-1.47-6.09c.84.07,1.82.07,2.38.07s.91-.14,1-1c.14-.63.14-4.48.21-11.13L855,50.49V70h-6.93V53.71l-3.78,1.75V72.33c0,2.87.49,3.29,4,3.29ZM837,50.7V43.42l-.63.7a45.4,45.4,0,0,0-6.23-5.88,26.1,26.1,0,0,0,2.24-2.52H819c-.06,2.52-.13,5-.21,7.49h12.61v3.15l-.14,7Z"/><path class="cls-1" d="M876.64,10.24V90.68H796.2V10.24h80.44m3-3H793.2V93.68h86.44V7.24Z"/><path class="cls-1" d="M956.63,29.49V64.42h-8.75v-3.5H932.06V82.76h-8.82V60.92H907.49v3.85h-8.4V29.49h24.15V17.38h8.82V29.49ZM923.24,52.73v-15H907.49v15Zm24.64,0v-15H932.06v15Z"/><path class="cls-1" d="M968.08,10.24V90.68H887.64V10.24h80.44m3-3H884.64V93.68h86.44V7.24Z"/><circle class="cls-2" cx="50" cy="50.1" r="50"/><path class="cls-1" d="M28.05,35.93a48.1,48.1,0,0,1-4.13,3.64,77.09,77.09,0,0,0-6.79-5.46A43,43,0,0,0,31.62,17.38l8.12,2.38A37.68,37.68,0,0,1,37,24.66H79V32H72.44v9h9.1v7.42h-9.1v8.89h8.12V64.7H19.72V57.28h8.33V48.39H18.67V41h9.38ZM18,79.61c3.08-2.94,6.23-8.33,7.84-13.44l8.05,2a38.31,38.31,0,0,1-8,14.7ZM35.4,41h5V32h-5Zm0,16.31h5V48.39h-5ZM46,67.71A90.16,90.16,0,0,1,47.79,80.8L39.67,82a88.86,88.86,0,0,0-1.33-13.37ZM52.56,41V32H47.37v9Zm-5.19,7.42v8.89h5.19V48.39Zm12.68,19a78,78,0,0,1,4.06,13l-8.33,1.61a74.59,74.59,0,0,0-3.57-13.3ZM64.81,32H59.49v9h5.32Zm0,16.38H59.49v8.89h5.32Zm9.24,17.5c3.15,4.27,7.07,10.15,8.82,14l-8.54,2.87c-1.47-3.71-5.18-9.87-8.26-14.35Z"/><circle class="cls-2" cx="143.11" cy="50" r="50"/><path class="cls-1" d="M134.33,67.08a93.51,93.51,0,0,0-5-9.1V82.55h-7.7V57.84c-2.24,6.51-5,13-8,17.22a49.47,49.47,0,0,0-3.78-8.61c3.5-4.27,7.07-11.76,9.24-18.13h-8V40.55h10.57V17.66h7.7V40.55h10.36v7.77H129.29v.49c2,2,8.68,9.87,10.15,11.83ZM114.1,39.29A69.22,69.22,0,0,0,111,23.12l5.81-1.54a70.18,70.18,0,0,1,3.57,16Zm26.81-16.52c-1.82,5.6-3.85,12.25-5.6,16.31l-5.25-1.47a130.21,130.21,0,0,0,3.85-16.38Zm27.16,41v18.9h-7.84V65.19l-19.53,3.5-1.26-7.77,20.79-3.71V17.31h7.84v38.5l7.14-1.33,1.26,7.77ZM144.13,38.38c4.06,2.17,9.24,5.53,11.76,8l-4.2,6.65c-2.31-2.59-7.42-6.3-11.48-8.75Zm10.15-2.52c-2.17-2.73-7-6.51-10.85-9.1l4-5.6c3.92,2.31,8.89,5.88,11.13,8.47Z"/></g></g></svg>