<svg xmlns="http://www.w3.org/2000/svg" viewBox="0 0 50 50"><defs><style>.cls-1{fill:#dd5418;}.cls-2{fill:#fff;}</style></defs><g id="レイヤー_2" data-name="レイヤー 2"><g id="design"><circle class="cls-1" cx="25" cy="25" r="23.5"/><path class="cls-2" d="M25,3A22,22,0,1,1,3,25,22,22,0,0,1,25,3m0-3A25,25,0,1,0,50,25,25,25,0,0,0,25,0Z"/><path class="cls-2" d="M39.69,22.92C39.69,16.35,33.1,11,25,11S10.31,16.35,10.31,22.92c0,5.9,5.22,10.83,12.28,11.77.48.1,1.13.31,1.3.72a3,3,0,0,1,.05,1.33s-.18,1-.21,1.26-.3,1.45,1.27.79,8.46-5,11.54-8.53h0A10.61,10.61,0,0,0,39.69,22.92ZM19.82,26.43a.29.29,0,0,1-.29.29H15.41a.32.32,0,0,1-.2-.08h0a.28.28,0,0,1-.08-.2V20a.28.28,0,0,1,.28-.28h1a.28.28,0,0,1,.29.28v5.09h2.8a.29.29,0,0,1,.29.28Zm2.48,0a.29.29,0,0,1-.29.29H21a.29.29,0,0,1-.28-.29V20a.28.28,0,0,1,.28-.28h1a.28.28,0,0,1,.29.28Zm7.09,0a.28.28,0,0,1-.28.29H27.92a.27.27,0,0,1-.08-.07l-2.93-4v3.8a.29.29,0,0,1-.29.29h-1a.29.29,0,0,1-.29-.29V20a.28.28,0,0,1,.29-.28h1.25s0,0,0,0l2.93,4V20a.28.28,0,0,1,.29-.28h1a.27.27,0,0,1,.28.28Zm5.7-5.37a.29.29,0,0,1-.29.29H32v1.08h2.8a.29.29,0,0,1,.29.29v1a.28.28,0,0,1-.29.28H32v1.09h2.8a.29.29,0,0,1,.29.28v1a.29.29,0,0,1-.29.29H30.68a.32.32,0,0,1-.2-.08h0a.28.28,0,0,1-.08-.2V20a.27.27,0,0,1,.08-.19h0a.32.32,0,0,1,.2-.08H34.8a.28.28,0,0,1,.29.28Z"/></g></g></svg>