<svg xmlns="http://www.w3.org/2000/svg" width="39" height="39" viewBox="0 0 39 39"><g transform="translate(0.493 0.5)"><g transform="translate(0)"><circle cx="19" cy="19" r="19" transform="translate(0.007)" fill="#252525"/><path d="M19-.5a19.505,19.505,0,0,1,7.59,37.467A19.5,19.5,0,0,1,11.41,1.033,19.378,19.378,0,0,1,19-.5Zm0,38A18.505,18.505,0,0,0,26.2,1.954,18.5,18.5,0,0,0,11.8,36.046,18.384,18.384,0,0,0,19,37.5Z" transform="translate(0.007)" fill="#fff"/><path d="M21.3,18.267a12.728,12.728,0,0,1-9.571-4.687s-2.047,3.233,1.385,6.087a4.4,4.4,0,0,1-2.176-.4,4.877,4.877,0,0,0,3.629,4.489s-.456.327-1.91.061c0,0,.129,2.184,4.154,3.241,0,0-2.047,2.176-6.6,1.91,0,0,6.452,5.729,14.539-.107,5.219-3.766,5.524-7.882,5.592-11.64a14.95,14.95,0,0,0,2.374-2.282,13.786,13.786,0,0,1-2.769.761,7.525,7.525,0,0,0,2.115-2.511,27.481,27.481,0,0,1-2.99,1.042s-1.78-2.967-5.744-.921C20.641,14.706,21.3,18.267,21.3,18.267Z" transform="translate(-2.444 -3.012)" fill="#fff"/></g></g></svg>