<?xml version="1.0" encoding="UTF-8"?>
<svg id="_レイヤー_1" data-name="レイヤー 1" xmlns="http://www.w3.org/2000/svg" version="1.1" viewBox="0 0 36.8 36.8">
  <defs>
    <style>
      .cls-1 {
        fill: #252525;
      }

      .cls-1, .cls-2 {
        stroke-width: 0px;
      }

      .cls-2 {
        fill: #fff;
      }
    </style>
  </defs>
  <path class="cls-1" d="M18.4.5c9.9,0,17.9,8,17.9,17.9s-8,17.9-17.9,17.9S.5,28.3.5,18.4C.5,8.5,8.5.5,18.4.5h0Z"/>
  <path class="cls-2" d="M18.4,0c10.2,0,18.4,8.2,18.4,18.4,0,7.4-4.4,14-11.2,16.9-9.4,3.9-20.1-.6-24-9.9C-2.3,16.1,2,5.4,11.2,1.4,13.5.5,15.9,0,18.4,0ZM18.4,35.8c9.6,0,17.4-7.8,17.4-17.4,0-4.6-1.8-9-5.1-12.3-6.8-6.8-17.8-6.8-24.6,0-6.8,6.8-6.8,17.8,0,24.6,3.3,3.3,7.7,5.1,12.3,5.1Z"/>
  <path class="cls-2" d="M29.4,13.4c.4-1,.2-2.1-.4-3-.9-1.1-2.5-1.5-3.8-1-.9.4-1.5,1.3-1.6,2.3-.8-.4-1.7-.7-2.6-.9,0-.4,0-.9,0-1.3,0-.1-.1-.2-.2-.1,0,0,0,0-.1,0-.3.4-.7.7-1.1.8,0-.5-.2-1.1-.5-1.5,0,0-.1,0-.2,0,0,0-.1,0-.1.2-.1.7-.5,1.3-1,1.7-1.5,0-2.9.4-4.2,1.1,0-1-.7-1.9-1.6-2.3-1.4-.5-2.9-.1-3.8,1-.7.8-.8,2-.4,3,.4.8,1,1.5,1.9,1.8-1,1.6-1.5,3.4-1.4,5.3-.1,2.9,1.7,5.5,4.4,6.4,2,.7,4.1,1.1,6.1,1,2.1,0,4.1-.3,6.1-1,2.7-.9,4.5-3.5,4.4-6.4,0-1.8-.4-3.7-1.4-5.2.8-.3,1.5-1,1.9-1.8h0ZM8.8,12.8c0-.6.2-1.3.7-1.6.7-.5,1.7-.3,2.2.4.2.3.3.6.3.9-.4.2-.7.5-1.1.8-.3.3-.7.6-1,.9-.6-.2-1.1-.7-1.2-1.3h0ZM13.8,22.2c-.9,0-1.6-.7-1.6-1.5,0-.9.7-1.6,1.5-1.6.9,0,1.6.7,1.6,1.5,0,0,0,0,0,0,0,.8-.7,1.5-1.5,1.6ZM18.4,26.7c-1.7.1-3.2-1.2-3.4-2.9,0-1.5,1.2-2.7,2.7-2.8-.1,0-.2.2-.2.4,0,.4.4.6.9.6s.9-.3.9-.6c0-.2,0-.3-.2-.4,1.4.2,2.5,1.4,2.6,2.8-.2,1.7-1.6,3-3.4,2.9ZM28,12.8c-.1.6-.6,1.2-1.2,1.4-.1-.1-.2-.3-.4-.4-.5-.5-1-.9-1.6-1.3.2-1.2,1.3-2.1,2.5-1.3.5.4.8,1,.7,1.6h0Z"/>
  <circle class="cls-1" cx="22.8" cy="20.6" r="1.6"/>
  <path class="cls-2" d="M20.2,22.9c-.6,0-1.2.1-1.8.1-.6,0-1.3,0-1.9-.2,0,0-.1,0-.2,0,0,0,0,0,0,.1.2.9,1.1,1.6,2,1.7,1,0,1.9-.7,2-1.7,0,0,0-.1,0-.2s-.1,0-.2,0h0Z"/>
  <path class="cls-2" d="M13.8,19.4c-.7,0-1.3.5-1.3,1.2,0,.7.5,1.3,1.2,1.3.7,0,1.3-.5,1.3-1.2,0,0,0,0,0,0,0-.7-.5-1.3-1.2-1.3h0ZM13.8,21.5c-.5,0-.9-.4-.9-.9,0-.5.4-.9.9-.9.5,0,.9.4.9.9,0,0,0,0,0,0,0,.5-.4.9-.9.9Z"/>
  <path class="cls-2" d="M22.8,19.4c-.7,0-1.3.6-1.3,1.3,0,.7.6,1.3,1.3,1.3.7,0,1.3-.6,1.3-1.3,0-.3-.1-.7-.4-.9-.2-.2-.6-.4-.9-.4ZM22.8,21.5c-.5,0-.9-.4-.9-.9,0-.5.4-.9.9-.9.5,0,.9.4.9.9,0,.2-.1.5-.3.6-.2.2-.4.3-.6.2Z"/>
</svg>