<svg xmlns="http://www.w3.org/2000/svg" viewBox="0 0 50 50"><defs><style>.cls-1{fill:#fff;}.cls-2{fill:#e35513;}</style></defs><g id="レイヤー_2" data-name="レイヤー 2"><g id="design"><circle class="cls-1" cx="25" cy="25" r="25" transform="translate(-4.99 43.72) rotate(-76.97)"/><path class="cls-2" d="M39.45,18.48a3.84,3.84,0,0,0-.57-3.89,4.4,4.4,0,0,0-5.05-1.3,3.7,3.7,0,0,0-2.11,3.07,15.36,15.36,0,0,0-3.44-1.12,3.7,3.7,0,0,0-.05-1.72.26.26,0,0,0-.21-.17.25.25,0,0,0-.25.12,2.81,2.81,0,0,1-1.45,1.09,4.2,4.2,0,0,0-.67-2,.24.24,0,0,0-.26-.09.25.25,0,0,0-.19.2,3.34,3.34,0,0,1-1.37,2.23,15.85,15.85,0,0,0-5.55,1.38,3.72,3.72,0,0,0-2.11-3,4.4,4.4,0,0,0-5.05,1.3,3.84,3.84,0,0,0-.57,3.89A4.52,4.52,0,0,0,13,20.85a12.65,12.65,0,0,0-1.88,6.91c0,4,1.95,6.81,5.8,8.39A21.69,21.69,0,0,0,25,37.5,21.6,21.6,0,0,0,33,36.15c3.85-1.58,5.8-4.4,5.8-8.39A12.69,12.69,0,0,0,37,20.87,4.49,4.49,0,0,0,39.45,18.48Zm-27-.82a2.2,2.2,0,0,1,.92-2.13c1.58-1.09,3.05.13,3.3,1.66a12.76,12.76,0,0,0-1.4,1A12,12,0,0,0,14,19.42,2.31,2.31,0,0,1,12.45,17.66ZM19,30.05A2.07,2.07,0,1,1,21,28,2.07,2.07,0,0,1,19,30.05ZM25,36c-2.44,0-4.42-1.7-4.42-3.8a4,4,0,0,1,3.54-3.73.67.67,0,0,0-.32.54c0,.46.54.81,1.24.81s1.23-.35,1.23-.81a.67.67,0,0,0-.29-.52,4,4,0,0,1,3.44,3.71C29.37,34.26,27.39,36,25,36Zm5.84-5.91A2.07,2.07,0,1,1,32.85,28,2.07,2.07,0,0,1,30.79,30.05Zm6.76-12.39a2.33,2.33,0,0,1-1.63,1.78q-.22-.26-.48-.51a12.25,12.25,0,0,0-2.12-1.7c.23-1.55,1.71-2.8,3.31-1.7A2.2,2.2,0,0,1,37.55,17.66Z"/><path class="cls-2" d="M27.43,31a15.13,15.13,0,0,1-2.39.17,14.58,14.58,0,0,1-2.55-.2.19.19,0,0,0-.18.07.19.19,0,0,0,0,.19A3,3,0,0,0,25,33.47a2.8,2.8,0,0,0,2.69-2.26.22.22,0,0,0,0-.19A.22.22,0,0,0,27.43,31Z"/><path class="cls-2" d="M19,26.31A1.67,1.67,0,1,0,20.64,28,1.67,1.67,0,0,0,19,26.31Zm0,2.84A1.17,1.17,0,1,1,20.13,28,1.17,1.17,0,0,1,19,29.15Z"/><path class="cls-2" d="M30.79,26.31A1.67,1.67,0,1,0,32.45,28,1.67,1.67,0,0,0,30.79,26.31Zm0,2.84A1.17,1.17,0,1,1,32,28,1.17,1.17,0,0,1,30.79,29.15Z"/></g></g></svg>