<svg xmlns="http://www.w3.org/2000/svg" viewBox="0 0 50 50"><defs><style>.cls-1{fill:#fff;}.cls-2{fill:#e35513;}</style></defs><g id="レイヤー_2" data-name="レイヤー 2"><g id="design"><circle class="cls-1" cx="25" cy="25" r="25" transform="translate(-4.99 43.72) rotate(-76.97)"/><path class="cls-2" d="M24.78,20.05A16.73,16.73,0,0,1,12.2,13.89s-2.69,4.25,1.82,8a5.78,5.78,0,0,1-2.86-.52c-.17.43.35,4.42,4.77,5.9,0,0-.6.43-2.51.08,0,0,.17,2.87,5.46,4.26,0,0-2.69,2.86-8.67,2.51,0,0,8.48,7.53,19.11-.14,6.86-4.95,7.26-10.36,7.35-15.3a19.65,19.65,0,0,0,3.12-3,18.12,18.12,0,0,1-3.64,1,9.89,9.89,0,0,0,2.78-3.3A36.12,36.12,0,0,1,35,14.75s-2.34-3.9-7.55-1.21C23.92,15.37,24.78,20.05,24.78,20.05Z"/></g></g></svg>