<svg xmlns="http://www.w3.org/2000/svg" width="36.758" height="36.758" viewBox="0 0 36.758 36.758"><g transform="translate(0.5 0.5)"><g transform="translate(0 0)"><ellipse cx="17.879" cy="17.879" rx="17.879" ry="17.879" fill="#252525"/><path d="M17.879-.5a18.384,18.384,0,0,1,7.154,35.314A18.384,18.384,0,0,1,10.725.945,18.265,18.265,0,0,1,17.879-.5Zm0,35.758A17.379,17.379,0,0,0,30.168,5.59,17.379,17.379,0,1,0,5.59,30.168,17.265,17.265,0,0,0,17.879,35.258Z" fill="#fff"/><path d="M32.663,20.069c0-5-5.014-9.069-11.176-9.069S10.31,15.07,10.31,20.069c0,4.489,3.971,8.24,9.343,8.955.365.076.86.236.989.548a2.282,2.282,0,0,1,.038,1.012s-.137.761-.16.959-.228,1.1.966.6a36.378,36.378,0,0,0,8.78-6.49h0a8.072,8.072,0,0,0,2.4-5.584Zm-15.117,2.67a.221.221,0,0,1-.221.221H14.19a.243.243,0,0,1-.152-.061h0a.213.213,0,0,1-.061-.152v-4.9a.213.213,0,0,1,.213-.213h.761a.213.213,0,0,1,.221.213V21.72H17.3a.221.221,0,0,1,.221.213Zm1.887,0a.221.221,0,0,1-.221.221h-.768a.221.221,0,0,1-.213-.221V17.847a.213.213,0,0,1,.213-.213H19.2a.213.213,0,0,1,.221.213Zm5.394,0a.213.213,0,0,1-.213.221h-.905a.205.205,0,0,1-.061-.053l-2.229-3.043v2.891a.221.221,0,0,1-.221.221h-.761a.221.221,0,0,1-.221-.221V17.847a.213.213,0,0,1,.221-.213h.951l2.229,3.043v-2.83a.213.213,0,0,1,.221-.213H24.6a.205.205,0,0,1,.213.213Zm4.337-4.086a.221.221,0,0,1-.221.221h-2.13V19.7h2.13a.221.221,0,0,1,.221.221v.761a.213.213,0,0,1-.221.213h-2.13v.829h2.13a.221.221,0,0,1,.221.213v.761a.221.221,0,0,1-.221.221H25.808a.243.243,0,0,1-.152-.061h0a.213.213,0,0,1-.061-.152V17.847a.205.205,0,0,1,.061-.145h0a.243.243,0,0,1,.152-.061h3.135a.213.213,0,0,1,.221.213Z" transform="translate(-3.607 -3.772)" fill="#fff"/></g></g></svg>