<svg xmlns="http://www.w3.org/2000/svg" viewBox="0 0 201.62 40"><defs><style>.cls-1{fill:#e15513;}.cls-2{fill:#231815;}</style></defs><g id="レイヤー_2" data-name="レイヤー 2"><g id="design"><polygon class="cls-1" points="84.87 17.7 86.12 17.7 86.12 8.15 91.93 8.15 91.93 6.91 86.12 6.91 86.12 5.25 84.87 5.25 84.87 6.91 79.47 6.91 79.47 8.15 84.87 8.15 84.87 17.7"/><polygon class="cls-1" points="50.82 9.04 50.82 5.25 49.58 5.25 49.58 17.7 50.82 17.7 50.82 10.41 57.54 13.55 60.58 13.55 60.58 12.3 57.82 12.3 50.82 9.04"/><rect x="64.12" y="28.08" width="11.62" height="1.25"/><rect x="95.25" y="23.1" width="11.21" height="1.25"/><polygon points="94.84 28.91 101.89 28.91 101.89 31.25 100.05 33.89 95.25 33.89 95.25 35.14 100.69 35.14 103.14 31.65 103.14 28.91 107.29 28.91 107.29 27.66 94.84 27.66 94.84 28.91"/><rect class="cls-1" x="95.25" y="6.5" width="6.26" height="1.25"/><polygon class="cls-1" points="82.22 10.38 81 10.16 79.96 16.04 78.65 16.04 78.65 17.28 81 17.28 82.22 10.38"/><polygon points="191.14 26.92 191.14 25.17 193.22 25.17 193.22 23.93 191.14 23.93 191.14 21.43 189.9 21.43 189.9 23.93 187.82 23.93 187.82 25.17 189.9 25.17 189.9 25.95 187.53 31.63 188.68 32.11 189.9 29.19 189.9 35.97 191.14 35.97 191.14 28.77 192.64 30.4 193.56 29.56 191.14 26.92"/><polygon class="cls-1" points="90.41 10.16 89.18 10.38 90.4 17.28 92.76 17.28 92.76 16.04 91.45 16.04 90.41 10.16"/><polygon class="cls-1" points="63.81 16.72 64.83 17.43 67.85 13.12 67.85 8.57 74.08 8.57 74.08 16.45 70.97 16.45 70.97 17.7 75.32 17.7 75.32 7.33 67.85 7.33 67.85 5.25 66.61 5.25 66.61 7.33 63.7 7.33 63.7 8.57 66.61 8.57 66.61 12.73 63.81 16.72"/><polygon class="cls-1" points="106.87 13.07 106.87 5.25 105.62 5.25 105.62 12.67 102.97 16.46 94.84 16.46 94.84 17.71 103.62 17.71 106.87 13.07"/><rect x="126.79" y="23.93" width="6.26" height="1.25"/><polygon points="137.17 30.1 134.52 33.89 126.39 33.89 126.39 35.14 135.17 35.14 138.42 30.5 138.42 22.68 137.17 22.68 137.17 30.1"/><rect x="166.87" y="27.17" width="1.25" height="9.22" transform="translate(9.23 95.14) rotate(-32.56)"/><polygon points="112.59 29.74 111.44 29.74 111.44 30.99 112.93 30.99 116.73 28.79 116.73 35.57 117.98 35.57 117.98 28.07 120.84 26.42 122.23 26.42 122.23 25.17 120.51 25.17 112.59 29.74"/><polygon points="47.51 24.34 59.13 24.34 59.13 27.87 52.99 31.42 50.82 27.66 48.75 27.66 48.75 28.91 50.1 28.91 54.08 35.8 55.16 35.18 53.61 32.49 60.38 28.59 60.38 23.1 47.51 23.1 47.51 24.34"/><rect class="cls-1" x="75.74" y="4.42" width="1.25" height="1.25"/><rect class="cls-1" x="73.66" y="4.42" width="1.25" height="1.25"/><rect class="cls-1" x="58.3" y="5.66" width="1.25" height="1.25"/><rect class="cls-1" x="56.22" y="5.66" width="1.25" height="1.25"/><path class="cls-1" d="M90.27,6.49h2.49V4H90.27Zm.83-1.66h.83v.83H91.1Z"/><polygon points="82.63 22.68 81.44 22.31 79.62 28.08 78.65 28.08 78.65 29.33 80.54 29.33 81.58 26.01 89.02 26.01 89.02 30.8 86.86 33.89 80.72 33.89 80.72 35.13 87.51 35.13 90.27 31.2 90.27 26.01 91.92 26.01 91.92 24.76 81.97 24.76 82.63 22.68"/><polygon points="170.38 25.18 164.16 25.18 164.16 21.85 162.91 21.85 162.91 25.18 156.68 25.18 156.68 26.42 162.4 26.42 156.78 35.21 157.83 35.88 163.87 26.42 170.38 26.42 170.38 25.18"/><polygon points="201.52 22.69 198.19 22.69 198.19 21.43 196.95 21.43 196.95 22.69 193.62 22.69 193.62 23.93 201.52 23.93 201.52 22.69"/><polygon points="142.97 26.42 141.33 26.42 141.33 27.67 143.61 27.67 145.94 24.34 152.54 24.34 152.54 29.6 149.54 33.89 143.4 33.89 143.4 35.13 150.19 35.13 153.78 30 153.78 23.1 145.29 23.1 142.97 26.42"/><rect x="153.78" y="21.44" width="1.25" height="1.25"/><rect x="151.71" y="21.44" width="1.25" height="1.25"/><polygon points="184.91 22 183.71 21.68 183.1 23.93 180 23.93 179.39 21.68 178.19 22 178.71 23.93 176.02 23.93 175.42 21.68 174.21 22 174.73 23.93 172.47 23.93 172.47 26.84 173.71 26.84 173.71 25.17 185.32 25.17 185.32 26.84 186.57 26.84 186.57 23.93 184.39 23.93 184.91 22"/><rect x="192.5" y="25.9" width="4.58" height="1.25" transform="translate(94.76 195.76) rotate(-67.17)"/><rect x="199.53" y="24.24" width="1.25" height="4.58" transform="translate(5.39 79.73) rotate(-22.83)"/><polygon points="200.12 28.6 199.14 27.83 197.47 29.96 195.81 27.83 194.83 28.6 196.68 30.98 193.41 35.16 194.4 35.93 197.47 31.99 200.55 35.93 201.54 35.16 198.26 30.98 200.12 28.6"/><polygon points="180.34 30.05 183.68 28.12 183.68 26.84 174.95 26.84 174.95 28.08 181.26 28.08 179.1 29.33 179.1 30.57 172.47 30.57 172.47 31.82 179.1 31.82 179.1 34.72 176.21 34.72 176.21 35.97 180.34 35.97 180.34 31.82 186.57 31.82 186.57 30.57 180.34 30.57 180.34 30.05"/><path class="cls-2" d="M21.89,9.42V32.26A4.36,4.36,0,0,1,15.35,36l-9.8-5.66a4.36,4.36,0,0,1,0-7.55l8.2-4.73,0-3.91L3.87,19.9a7.73,7.73,0,0,0,0,13.39L13.67,39a7.73,7.73,0,0,0,11.59-6.69V11.37Z"/><path class="cls-1" d="M37.45,6.71l-9.8-5.66a7.74,7.74,0,0,0-11.6,6.68l-.18,20.8,3.36,1.94.2-22.73A4.35,4.35,0,0,1,26,4l9.8,5.66a4.36,4.36,0,0,1,0,7.55L27.5,22v3.89l10-5.74a7.73,7.73,0,0,0,0-13.39Z"/></g></g></svg>