<svg xmlns="http://www.w3.org/2000/svg" viewBox="0 0 750 158.24"><defs><style>.cls-1{fill:#d4b870;}.cls-2{fill:#fff;}</style></defs><g id="レイヤー_2" data-name="レイヤー 2"><g id="design"><polygon class="cls-1" points="750 130 375 158.24 0 130 0 0 375 28.24 750 0 750 130"/><path class="cls-2" d="M105.73,98.74h22.2v6.42H76.87V98.74H98.29V91.6H81.67V85.36H98.29v-6.9H84.73V73.72a76.77,76.77,0,0,1-6.66,4.14,26.36,26.36,0,0,0-4.5-5.76c10.26-5.16,19.92-14.4,24.36-21.72h7.38a63.41,63.41,0,0,0,25.68,21,34.76,34.76,0,0,0-4.74,6.42,76.06,76.06,0,0,1-6.48-4v4.68h-14v6.9h16.8V91.6h-16.8Zm11.7-26.58c-6.24-4.56-12-10-15.48-14.88A69.12,69.12,0,0,1,87,72.16Z"/><path class="cls-2" d="M167.92,58.6c-.07,1.86-.13,3.66-.25,5.4H179a27.89,27.89,0,0,0,4.5-.42l5.22,2.52a24.53,24.53,0,0,0-.42,3.18c-.24,6.48-1,23.22-3.54,29.34-1.32,3.06-3.6,4.62-7.74,4.62-3.42,0-7-.24-9.89-.48l-1-8a49.45,49.45,0,0,0,8.39.84,3.19,3.19,0,0,0,3.42-2.1c1.74-3.78,2.52-15.78,2.52-22.26H167C164.74,87,159,96.46,148.3,104.08l-7-5.64a35.75,35.75,0,0,0,7.86-5.88c5.58-5.52,8.58-12.24,9.9-21.36h-7.92c-2,0-5.34,0-7.92.24V63.58c2.52.24,5.64.42,7.92.42h8.57c.07-1.68.13-3.42.13-5.22a44.4,44.4,0,0,0-.42-5.52h8.81C168.09,54.64,168,57.16,167.92,58.6Z"/><path class="cls-2" d="M214.43,59.92V80.2c0,1.5.06,3.84.18,5.22h-8.7c.06-1.14.3-3.48.3-5.28V59.92A42.6,42.6,0,0,0,206,55.3h8.64C214.49,56.68,214.43,58,214.43,59.92Zm27.78.9V72.7c0,12.9-2.52,18.48-7,23.4-4,4.32-10.2,7.26-14.58,8.64l-6.24-6.6c5.94-1.38,10.8-3.66,14.4-7.56,4.14-4.5,4.92-9,4.92-18.36V60.82a42.33,42.33,0,0,0-.36-6h9.06C242.33,56.5,242.21,58.42,242.21,60.82Z"/><path class="cls-2" d="M274,54l8.46-1.38c.18,1.2.36,3.24.66,4.68.12.84.48,2.82,1,5.52,5.1-.84,9.66-1.56,11.82-2,1.92-.36,4.2-.84,5.64-1.26l1.44,7.86c-1.32.12-3.72.48-5.52.72-2.46.42-7,1.14-12,1.92.6,3,1.2,6.3,1.86,9.6,5.4-.9,10.32-1.74,13-2.28,2.34-.48,4.56-1,6.12-1.44L308,83.86c-1.62.12-4.08.54-6.36.9-2.88.48-7.74,1.26-13,2.1,1,4.92,1.8,8.94,2.16,10.8s1,4,1.56,5.88l-8.64,1.56c-.3-2.22-.48-4.32-.84-6.06s-1.08-5.88-2-10.92c-6.12,1-11.76,2-14.34,2.46s-4.62.9-6,1.26l-1.68-8c1.62-.06,4.32-.42,6.24-.66,2.76-.36,8.34-1.26,14.4-2.22-.6-3.24-1.26-6.6-1.8-9.66-5.28.84-9.9,1.62-11.76,1.92s-3.48.72-5.52,1.26l-1.62-8.28c1.92-.06,3.72-.18,5.58-.42,2.1-.24,6.72-.9,11.88-1.74-.48-2.52-.9-4.5-1.08-5.46C274.79,56.8,274.37,55.42,274,54Z"/><path class="cls-2" d="M356,75.28c-.48,3.54-2,13.86-2.94,19.56h3.84c1.56,0,4.32-.06,5.88-.24v7.74c-1.2-.06-4.14-.18-5.76-.18H325.41c-2.16,0-3.66.06-5.94.18v-7.8a57.64,57.64,0,0,0,5.94.3h19.44c.84-5.1,2.16-13.62,2.34-17H331c-1.92,0-4.26.18-6,.3V70.24c1.56.18,4.32.36,5.94.36h15.36a13.58,13.58,0,0,0,4.44-.66l5.82,2.82A16.73,16.73,0,0,0,356,75.28Z"/><path class="cls-2" d="M420.56,75.28c-1.8,5.82-4.38,11.64-8.88,16.62a44.93,44.93,0,0,1-21.42,13l-5.94-6.78c9-1.86,16.2-5.82,20.76-10.5a26,26,0,0,0,6.18-10.38h-29c-1.44,0-4.44.06-7,.3V69.7c2.52.18,5.1.36,7,.36H412a12.66,12.66,0,0,0,4.38-.6l5.34,3.3A22.23,22.23,0,0,0,420.56,75.28ZM387.08,55.66h23.1a56.57,56.57,0,0,0,6.48-.3V63.1c-1.62-.12-4.44-.18-6.6-.18h-23c-1.92,0-4.5.06-6.24.18V55.36A50.58,50.58,0,0,0,387.08,55.66Z"/><path class="cls-2" d="M456.19,62.8c-1.92,5.88-6.78,21.12-9.78,29.16,7.32-.72,15.84-1.68,21.9-2.4a72.52,72.52,0,0,0-6.3-11l7.5-3.06a184.53,184.53,0,0,1,13.14,25l-8.1,3.6c-.78-2-1.74-4.5-2.88-7.08-9.72,1.14-27.9,3.06-35.46,3.84-1.5.18-3.72.48-5.64.72l-1.38-8.76c2,0,4.62,0,6.6-.06.48,0,1.08-.06,1.62-.06,3.48-8.88,8.64-25.32,10.38-31.56a43.66,43.66,0,0,0,1.44-7l9.54,2C458,57.94,457.09,60.16,456.19,62.8Z"/><path class="cls-2" d="M502,86.68c-.6,5.64-1.86,11.64-3.6,15.48A35.27,35.27,0,0,0,493,99.58c1.74-3.54,2.7-8.88,3.18-13.92Zm45.24-28.2a47.06,47.06,0,0,1-9.66,15,44.45,44.45,0,0,0,13.32,7.08,29.65,29.65,0,0,0-4.5,5.82,46.64,46.64,0,0,1-13.62-8.46,54.41,54.41,0,0,1-13.5,8.16,18.16,18.16,0,0,0-2.1-3.24l-4.38,2c-.18-.84-.42-1.86-.72-2.94l-3.06.24v24.54h-6.18V82.54l-8.7.54-.6-6.18,4.32-.18c.9-1.14,1.86-2.46,2.82-3.84a58.88,58.88,0,0,0-7.08-8.16l3.42-4.86,1.38,1.2a76.06,76.06,0,0,0,4.38-10.44L509,52.9c-2.16,4.08-4.56,8.7-6.72,12.06.78.84,1.44,1.68,2,2.4a108.81,108.81,0,0,0,5.34-9.72l5.82,2.7c-3.3,5.22-7.44,11.28-11.22,16.14l5.76-.24c-.66-1.5-1.38-3-2.1-4.32l4.74-2A60,60,0,0,1,517,79.6a48.44,48.44,0,0,0,11.1-6.36,49.36,49.36,0,0,1-4.56-6,48.48,48.48,0,0,1-5.34,5.16,20,20,0,0,0-4.92-4.62,40.93,40.93,0,0,0,13-17.22l7,1.14c-.66,1.5-1.38,3.06-2.22,4.56h10.68l1.08-.24Zm-33.06,26.7A66.15,66.15,0,0,1,517.94,96l-5.28,1.92a71,71,0,0,0-3.48-11.16Zm8.88,7.38a118.54,118.54,0,0,1,22.56,9l-4.14,5.58c-5.22-3.3-14.76-7.32-22.56-9.54Zm6.36-10.14A61.54,61.54,0,0,1,541.88,89l-4.14,5a54.23,54.23,0,0,0-12.3-7Zm-1.92-20a41.8,41.8,0,0,0,5.22,6.78A37.18,37.18,0,0,0,538,62.38Z"/><path class="cls-2" d="M609,58.42c-5.28,6.48-13,14-20.28,18.54v21.3c0,4.14-1,6.06-4,7.14s-7.25,1.2-13,1.2A30.26,30.26,0,0,0,569,99.28c4.2.24,9.12.24,10.5.18s1.74-.3,1.74-1.32V71h4a68.39,68.39,0,0,0,10.38-9.18H560.8v-7h40.91l1.74-.48Z"/><path class="cls-2" d="M638.57,65.74A80.4,80.4,0,0,1,634,73v33.72h-6.66V81a53.12,53.12,0,0,1-4.68,4.44A43.34,43.34,0,0,0,619,78.82,51.18,51.18,0,0,0,632.33,63.4Zm-1-12.66a73.76,73.76,0,0,1-14.34,14.64,54.6,54.6,0,0,0-3.72-5.22,50.13,50.13,0,0,0,11.76-11.88Zm33.24,30.24a32.77,32.77,0,0,1-9.12,13,53.84,53.84,0,0,0,14.94,4.38,26.68,26.68,0,0,0-4.26,6.12,48.6,48.6,0,0,1-16.56-6.3,58.64,58.64,0,0,1-17,6.42,23.21,23.21,0,0,0-3.42-6.06,51.87,51.87,0,0,0,14.76-4.68,32.68,32.68,0,0,1-4.74-5.22,58,58,0,0,1-5.4,3.72,41.59,41.59,0,0,0-4.62-5.28,38.73,38.73,0,0,0,13.38-11.1l-12,.36-.6-6.3c2.7,0,5.82,0,9.24-.06.84-.72,1.74-1.5,2.58-2.28a68.25,68.25,0,0,0-10.56-8.52l4.26-4.62c1,.66,2.16,1.38,3.3,2.16a65.46,65.46,0,0,0,6.42-8.64l6.18,3.18c-2.58,3.06-5.52,6.3-8,8.82a45.11,45.11,0,0,1,3.42,3,107.65,107.65,0,0,0,9.66-10.62l6.3,3.48a191.75,191.75,0,0,1-14.7,13.92L665,72c-1-1.38-2-2.64-3-3.84l5.52-3.06c3.48,3.9,7.44,9.3,9.12,13.14l-6,3.36a34.64,34.64,0,0,0-2-4c-4,.18-8,.3-11.94.42-.72,1.2-1.5,2.4-2.34,3.54h10.86l1.14-.24Zm-21,3.66a27.4,27.4,0,0,0,5.94,5.82,26.72,26.72,0,0,0,5.76-5.88H649.85Z"/></g></g></svg>