<svg xmlns="http://www.w3.org/2000/svg" viewBox="0 0 1316 150"><defs><style>.cls-1{fill:#fff;}.cls-2{fill:#84ac78;}</style></defs><g id="レイヤー_2" data-name="レイヤー 2"><g id="design"><rect class="cls-1" x="5" y="5" width="406.19" height="140"/><path class="cls-2" d="M406.19,10V140H10V10H406.19m10-10H0V150H416.19V0Z"/><path class="cls-2" d="M263.57,87.5c-.36,1-.85,2.25-1.44,3.47h17.33a26.8,26.8,0,0,0,3.73-.18v4.36c-1.26-.09-2.83-.13-3.73-.13h-6.08c-.72,10-4.59,16.56-11.52,20.79l-4.41-3a19.64,19.64,0,0,0,3.74-2.21c3.64-2.92,7.06-7.47,7.74-15.61h-8.82a40,40,0,0,1-6.3,7.83l-4.14-2.43a29.31,29.31,0,0,0,6.79-7.79,21.56,21.56,0,0,0,2.48-5.76,16.06,16.06,0,0,0,.58-2.92l5,1.08C264.11,85.93,263.84,86.69,263.57,87.5Z"/><path class="cls-2" d="M323.06,109.69c0,2.7-.72,4-2.52,4.68s-5,.85-9.63.85a17.59,17.59,0,0,0-1.8-4.41c3.51.18,7.11.14,8.19.09s1.35-.36,1.35-1.3v-7.88H298.22c-1.17,5-3.42,10-7.69,13.68a15.77,15.77,0,0,0-3.2-3.06c7-6,7.7-14.85,7.7-21.91V76.3h28Zm-4.41-12V91H299.3a58.56,58.56,0,0,1-.4,6.66ZM299.3,80.35V87h19.35V80.35Z"/><path class="cls-2" d="M366.69,76.66V115h-4.41v-3H340.05v3h-4.23V76.66Zm-26.64,4.09v6.39h22.23V80.75Zm0,10.35v6.48h22.23V91.1ZM362.28,108v-6.44H340.05V108Z"/><circle class="cls-2" cx="95" cy="75" r="45"/><path class="cls-1" d="M85.78,53.27l1.64-9h18L94.52,105.74h-10l9.26-52.47Z"/><circle class="cls-2" cx="196.62" cy="75" r="45"/><path class="cls-1" d="M181.3,93.4q9.44-7,15-11.56a69.65,69.65,0,0,0,9.57-9.44,20.7,20.7,0,0,0,4.8-9.65,16.33,16.33,0,0,0,.26-2.77,7.84,7.84,0,0,0-2.08-5.81c-1.38-1.38-3.58-2.07-6.58-2.07a11.65,11.65,0,0,0-8.4,3.24,16.82,16.82,0,0,0-4.59,8.71h-9.52q2-9.88,8.57-15.11a24,24,0,0,1,15.41-5.24q8.24,0,12.69,4a13.69,13.69,0,0,1,4.46,10.74,20.84,20.84,0,0,1-.35,3.89,27.34,27.34,0,0,1-5.19,11.61,64.41,64.41,0,0,1-9.27,10.13q-5.1,4.5-13,10.48l-4.59,3.55h27.45l-1.47,8.22H172.38l1.3-7.18Z"/><path class="cls-2" d="M416.19,0H1241a75,75,0,0,1,75,75v0a75,75,0,0,1-75,75H416.19a0,0,0,0,1,0,0V0a0,0,0,0,1,0,0Z"/><path class="cls-1" d="M518.68,82.92a47,47,0,0,0,15.6,9.28A34.6,34.6,0,0,0,528,99.56a51.47,51.47,0,0,1-12.56-8.4v5.92H500.84v5.2H527v7.84H466v-7.84h25.12v-5.2H477v-5a52.93,52.93,0,0,1-12.73,8.16A37.33,37.33,0,0,0,458.19,93a48.13,48.13,0,0,0,16.16-10.08H459V75.16H474.2V51.32H463.15V43.64H474.2v-6h9.52v6h25v-6h9.76v6h11v7.68h-11V75.16h14.8v7.76Zm-5,6.64a49.64,49.64,0,0,1-5.76-6.64H485.32a49,49,0,0,1-5.68,6.64h11.52v-5h9.68v5ZM483.72,51.32v3.52h25V51.32Zm0,13.6h25V61.4h-25Zm0,10.24h25v-3.6h-25Z"/><path class="cls-1" d="M560.86,102.12V108H553.1V88.92a31.65,31.65,0,0,1-1.76,2.72,50,50,0,0,0-5-9c5.2-8,7.92-20,9.52-32.8h-7.28V41.24h27.52v8.64H564.62q-1.08,8.28-2.88,16.08h12.72v36.16Zm5.68-28h-5.68V94h5.68Zm36.64,29a41.33,41.33,0,0,0,4.56.24c2.4,0,12.32-.08,15.52-.08a28.72,28.72,0,0,0-2.56,7.92H607.18c-9.6,0-16.72-1.92-21.6-9.84a25.66,25.66,0,0,1-9.12,11,19.91,19.91,0,0,0-5.36-6.24c7.92-5.2,9.36-14,9.92-23.12h8.4c-.24,3-.48,5.84-1,8.64,1.44,4.08,3.44,6.8,5.92,8.56V80.84H576.22V73.16h38.72l1.36-.4,6.08,1.92a116.18,116.18,0,0,1-4.72,12.56l-7.12-2.4c.4-1.12.88-2.48,1.36-4h-8.72v6.72h13.2v7.52h-13.2ZM583.9,62.52a44.11,44.11,0,0,1-6.48,8.24,26.47,26.47,0,0,0-3.92-6.4c3.2-2.56,6.48-7.2,8.64-11.84h-5.6V45.4h7.36V37.64h7.68V45.4h5.76v7.12h-5.76v.88a72.87,72.87,0,0,1,7.12,5.52l-4.24,5.28a47.42,47.42,0,0,0-2.88-3.84v11.2H583.9Zm21.52.16a33.56,33.56,0,0,1-6.72,7.68,26.35,26.35,0,0,0-3.68-6c3.52-2.48,7-7,9.28-11.84h-5.68V45.4h6.8V37.64h7.76V45.4H622v7.12h-7.36c2.08,4.8,5.28,9.52,8.72,12.16A31.39,31.39,0,0,0,618.46,70a28.57,28.57,0,0,1-5.28-7.44v9h-7.76Z"/><path class="cls-1" d="M673.2,48.28c-.08,2.48-.16,4.88-.32,7.2h15a37.18,37.18,0,0,0,6-.56l7,3.36a32.71,32.71,0,0,0-.56,4.24c-.32,8.64-1.28,31-4.72,39.12-1.76,4.08-4.8,6.16-10.32,6.16-4.56,0-9.36-.32-13.2-.64L670.8,96.44A66.21,66.21,0,0,0,682,97.56c2.56,0,3.68-.88,4.56-2.8,2.32-5,3.36-21,3.36-29.68h-18C669,86.2,661.36,98.76,647,108.92l-9.28-7.52a47.67,47.67,0,0,0,10.48-7.84c7.44-7.36,11.44-16.32,13.2-28.48H650.88c-2.72,0-7.12,0-10.56.32V54.92c3.36.32,7.52.56,10.56.56h11.44c.08-2.24.16-4.56.16-7a59.21,59.21,0,0,0-.56-7.36h11.76C673.44,43,673.28,46.36,673.2,48.28Z"/><path class="cls-1" d="M734.73,50v27c0,2,.08,5.12.24,7h-11.6c.08-1.52.4-4.64.4-7V50a56.8,56.8,0,0,0-.32-6.16H735C734.81,45.72,734.73,47.48,734.73,50Zm37,1.2V67.08c0,17.2-3.36,24.64-9.28,31.2-5.28,5.76-13.6,9.68-19.44,11.52l-8.32-8.8c7.92-1.84,14.4-4.88,19.2-10.08,5.52-6,6.56-12,6.56-24.48V51.24a56.44,56.44,0,0,0-.48-8h12.08C771.93,45.48,771.77,48,771.77,51.24Z"/><path class="cls-1" d="M813.64,42.12l11.28-1.84c.24,1.6.48,4.32.88,6.24.16,1.12.64,3.76,1.28,7.36,6.8-1.12,12.88-2.08,15.76-2.64,2.56-.48,5.6-1.12,7.52-1.68L852.28,60c-1.76.16-5,.64-7.36,1-3.28.56-9.36,1.52-16,2.56.8,4,1.6,8.4,2.48,12.8,7.2-1.2,13.76-2.32,17.36-3,3.12-.64,6.08-1.28,8.16-1.92L859.08,82c-2.16.16-5.44.72-8.48,1.2-3.84.64-10.32,1.68-17.36,2.8,1.28,6.56,2.4,11.92,2.88,14.4s1.36,5.28,2.08,7.84l-11.52,2.08c-.4-3-.64-5.76-1.12-8.08s-1.44-7.84-2.72-14.56c-8.16,1.36-15.68,2.64-19.12,3.28s-6.16,1.2-8,1.68l-2.23-10.72c2.15-.08,5.75-.56,8.31-.88,3.69-.48,11.13-1.68,19.21-3-.8-4.32-1.68-8.8-2.4-12.88-7,1.12-13.2,2.16-15.68,2.56-2.57.56-4.65,1-7.36,1.68l-2.16-11c2.56-.08,5-.24,7.43-.56,2.81-.32,9-1.2,15.85-2.32-.64-3.36-1.2-6-1.44-7.28C814.76,45.88,814.2,44,813.64,42.12Z"/><path class="cls-1" d="M922.47,70.52c-.64,4.72-2.72,18.48-3.92,26.08h5.12c2.08,0,5.76-.08,7.84-.32V106.6c-1.6-.08-5.52-.24-7.68-.24H881.75c-2.88,0-4.88.08-7.92.24V96.2a76.85,76.85,0,0,0,7.92.4h25.92c1.12-6.8,2.88-18.16,3.12-22.64h-21.6c-2.56,0-5.68.24-8,.4V63.8c2.08.24,5.76.48,7.92.48h20.48c1.68,0,5-.32,5.92-.88l7.76,3.76A22.3,22.3,0,0,0,922.47,70.52Z"/><path class="cls-1" d="M1008.09,70.52c-2.4,7.76-5.84,15.52-11.84,22.16A59.91,59.91,0,0,1,967.69,110l-7.92-9c12-2.48,21.6-7.76,27.68-14a34.71,34.71,0,0,0,8.24-13.84H957.05c-1.92,0-5.92.08-9.28.4V63.08c3.36.24,6.8.48,9.28.48h39.6a16.88,16.88,0,0,0,5.84-.8l7.12,4.4A29.64,29.64,0,0,0,1008.09,70.52ZM963.45,44.36h30.8a75.43,75.43,0,0,0,8.64-.4V54.28c-2.16-.16-5.92-.24-8.8-.24H963.45c-2.56,0-6,.08-8.32.24V44A67.44,67.44,0,0,0,963.45,44.36Z"/><path class="cls-1" d="M1055.11,53.88c-2.56,7.84-9,28.16-13,38.88,9.76-1,21.12-2.24,29.2-3.2a96.7,96.7,0,0,0-8.4-14.64l10-4.08a246,246,0,0,1,17.52,33.28l-10.8,4.8c-1-2.72-2.32-6-3.84-9.44-13,1.52-37.2,4.08-47.28,5.12-2,.24-5,.64-7.52,1l-1.84-11.68c2.72,0,6.16,0,8.8-.08.64,0,1.44-.08,2.16-.08,4.64-11.84,11.52-33.76,13.84-42.08a58.22,58.22,0,0,0,1.92-9.28L1058.55,45C1057.51,47.4,1056.31,50.36,1055.11,53.88Z"/></g></g></svg>