<svg xmlns="http://www.w3.org/2000/svg" viewBox="0 0 1366 100"><defs><style>.cls-1{fill:#fff;}.cls-2{fill:#a8629b;}</style></defs><g id="レイヤー_2" data-name="レイヤー 2"><g id="design"><path class="cls-1" d="M1101.21,0H214.79a59.93,59.93,0,0,1,0,100h886.42a50,50,0,0,0,50-50h0A50,50,0,0,0,1101.21,0Z"/><path class="cls-2" d="M0,0H181.68a50,50,0,0,1,50,50v0a50,50,0,0,1-50,50H0a0,0,0,0,1,0,0V0A0,0,0,0,1,0,0Z"/><path class="cls-2" d="M346.15,55.73l-11.1-23.51h7.85l3.7,9.05c1,2.75,2,5.35,3.2,8.2h.2c1.15-2.85,2.25-5.45,3.3-8.2l3.7-9.05h7.7L353.55,55.73V69.28h-7.4Z"/><path class="cls-2" d="M365.84,55.28c0-9.31,6.45-14.71,13.45-14.71s13.45,5.4,13.45,14.71S386.29,70,379.29,70,365.84,64.58,365.84,55.28Zm19.4,0c0-5.26-2.15-8.71-5.95-8.71s-6,3.45-6,8.71,2.15,8.7,6,8.7S385.24,60.58,385.24,55.28Z"/><path class="cls-2" d="M400.42,58.78V41.27h7.35V57.83c0,4.3,1.2,5.85,3.9,5.85,2.3,0,3.8-1,5.7-3.5V41.27h7.35v28h-6l-.55-4H418c-2.4,2.85-5.1,4.7-8.9,4.7C403,70,400.42,65.78,400.42,58.78Z"/><path class="cls-2" d="M438.12,38.42h-10.4v-6.2H456v6.2h-10.5V69.28h-7.4Z"/><path class="cls-2" d="M458.65,58.78V41.27H466V57.83c0,4.3,1.2,5.85,3.9,5.85,2.3,0,3.8-1,5.7-3.5V41.27H483v28h-6l-.55-4h-.2c-2.4,2.85-5.1,4.7-8.9,4.7C461.25,70,458.65,65.78,458.65,58.78Z"/><path class="cls-2" d="M499.1,66.33h-.2l-.65,3H492.5V29.37h7.35V39.42l-.2,4.5a12,12,0,0,1,7.75-3.35c6.9,0,11.05,5.65,11.05,14.21,0,9.65-5.75,15.2-11.9,15.2A10.7,10.7,0,0,1,499.1,66.33Zm11.8-11.4c0-5.36-1.7-8.31-5.55-8.31-1.9,0-3.6,1-5.5,2.9V61.83a7.63,7.63,0,0,0,5,2.1C508.3,63.93,510.9,61,510.9,54.93Z"/><path class="cls-2" d="M524.93,55.28c0-9.06,6.4-14.71,13.05-14.71,7.7,0,11.7,5.65,11.7,13.36a13.82,13.82,0,0,1-.35,3.4H532.08c.6,4.6,3.6,7,7.75,7a11.54,11.54,0,0,0,6.3-1.95l2.5,4.5a17.63,17.63,0,0,1-9.75,3.1C531,70,524.93,64.53,524.93,55.28Zm18.45-2.85c0-3.76-1.7-6.16-5.3-6.16-3,0-5.55,2.1-6.1,6.16Z"/><path class="cls-2" d="M570.78,34.07H596c1.45,0,3.55,0,4.4-.1,0,1.15-.15,3.15-.15,4.6V64.48c0,1.75.1,4.4.2,5.9h-7.25c.05-.8.05-1.65.05-2.6h-22.8c-1.95,0-4.8.15-6.45.3V60.93c1.75.15,4,.3,6.25.3h23V40.52H570.83c-2.1,0-4.8.1-6.2.2V33.77C566.48,34,569.08,34.07,570.78,34.07Z"/><path class="cls-2" d="M629.9,58C638.45,53,645,45.32,648.1,38.57l3.9,7a53.11,53.11,0,0,1-18.5,18.51A54.15,54.15,0,0,1,615,71.18l-4.2-6.6A51.53,51.53,0,0,0,629.9,58Zm0-16.16-5.1,5.2a104,104,0,0,0-12.5-10.8l4.7-5A101,101,0,0,1,629.9,41.87Z"/><path class="cls-2" d="M678.92,72.43l-5.35-5.05c9.65-3.35,13.9-7.65,13.9-20v-1.9H675.62v6.8c0,2.21.15,4.26.2,5.26h-7a40.49,40.49,0,0,0,.3-5.26v-6.8h-4.25c-2.5,0-4.3.1-5.4.2v-6.8a32.48,32.48,0,0,0,5.4.45h4.25V34.42c0-1.45-.15-3-.3-4.5h7.1a30.56,30.56,0,0,0-.3,4.5v4.95h11.85V34.12a33,33,0,0,0-.3-4.65h7.15a31.5,31.5,0,0,0-.35,4.65v5.25h3.7a29.63,29.63,0,0,0,5.5-.35v6.65c-1.1-.1-2.85-.15-5.5-.15H694v1.65C694,59.58,691,67.13,678.92,72.43Z"/><path class="cls-2" d="M713.72,55.48c1.4-4.3,1.45-13.76,1.45-19.81a19,19,0,0,0-.45-4.6h7.35a32.93,32.93,0,0,0-.35,4.55c0,5.9-.15,16.45-1.5,21.51a29.32,29.32,0,0,1-8.9,14.35l-6.1-4A23.59,23.59,0,0,0,713.72,55.48Zm15,9V35.32a22.17,22.17,0,0,0-.4-4.3h7.45a25.39,25.39,0,0,0-.35,4.35V61.53A31.61,31.61,0,0,0,747.82,51l3.85,5.51c-4.15,5.4-11.35,10.8-16.95,13.65a10.68,10.68,0,0,0-2.15,1.5l-4.2-3.45A19,19,0,0,0,728.77,64.48Z"/><path class="cls-2" d="M778.42,34.77h10.15a15.88,15.88,0,0,0,4.35-.55l5.1,3.15a23.52,23.52,0,0,0-1.65,3.55A57.47,57.47,0,0,1,789,55.33c2.15,1.55,4.1,3,5.55,4.2l-4.75,5.65c-1.35-1.25-3.2-2.8-5.25-4.45a47,47,0,0,1-17.9,11.85l-5.8-5a42.48,42.48,0,0,0,18.35-10.85c-3.25-2.4-6.55-4.65-9.1-6.25l4.45-4.56c2.65,1.5,5.8,3.56,9,5.66A35.64,35.64,0,0,0,789,40.47h-14.3a60.18,60.18,0,0,1-13.2,13l-5.4-4.16A46.43,46.43,0,0,0,772,32.62a20.69,20.69,0,0,0,2.3-5.2l7.25,2.25A53.87,53.87,0,0,0,778.42,34.77Z"/><path class="cls-2" d="M826,58c8.55-5.05,15-12.71,18.2-19.46l3.9,7a53.11,53.11,0,0,1-18.5,18.51A54.15,54.15,0,0,1,811,71.18l-4.2-6.6A51.53,51.53,0,0,0,826,58Zm0-16.16-5.1,5.2a104,104,0,0,0-12.5-10.8l4.7-5A101,101,0,0,1,826,41.87Z"/><path class="cls-2" d="M861.49,35.72a34.71,34.71,0,0,0-.5-6h7.8a54.36,54.36,0,0,0-.45,6v7.4a161.74,161.74,0,0,1,20.9,7.76l-2.85,6.9a146,146,0,0,0-18-7.46V64.48c0,1.45.25,5,.45,7H861a54.92,54.92,0,0,0,.5-7Z"/><path class="cls-2" d="M904.31,34.07h25.2c1.45,0,3.55,0,4.4-.1,0,1.15-.15,3.15-.15,4.6V64.48c0,1.75.1,4.4.2,5.9h-7.25c0-.8,0-1.65,0-2.6H904c-2,0-4.8.15-6.45.3V60.93c1.75.15,4,.3,6.25.3h23V40.52H904.36c-2.1,0-4.8.1-6.2.2V33.77C900,34,902.61,34.07,904.31,34.07Z"/><path class="cls-2" d="M953.4,46.42h26.85c2.35,0,4.55-.2,5.85-.3V54c-1.2,0-3.75-.25-5.85-.25H953.4c-2.85,0-6.2.1-8,.25V46.12C947.15,46.27,950.8,46.42,953.4,46.42Z"/><path class="cls-2" d="M1024.85,38.47A73.88,73.88,0,0,1,1017,52.23a140.56,140.56,0,0,1,14,14.3l-5.7,5a114,114,0,0,0-12.6-14.15,65.86,65.86,0,0,1-18.8,14L988.7,66c8-3,15.8-9.1,20.5-14.35,3.3-3.76,6.35-8.71,7.45-12.26H999.7c-2.1,0-4.85.3-5.9.35v-7.1a55.86,55.86,0,0,0,5.9.35h17.65a17.92,17.92,0,0,0,5.15-.65l4.1,3A23.63,23.63,0,0,0,1024.85,38.47Z"/><path class="cls-1" d="M53.56,49.89H66.15c.79,0,2,0,2.34-.07,0,.59-.07,1.68-.07,2.49V65.13c0,.84,0,2.24.12,3.21H64.2c0-.42,0-.84,0-1.24H53.38c-.94,0-2.49.08-3.38.18V63c1,.08,2.1.15,3.26.15h11V53.77H53.56c-1.12,0-2.5,0-3.26.1V49.72C51.28,49.82,52.67,49.89,53.56,49.89Z"/><path class="cls-1" d="M77.21,55.92H90.32c1.12,0,2.33-.13,3-.17v4.71c-.64,0-2-.15-3-.15H77.21c-1.4,0-3.26.08-4.27.15V55.75C73.93,55.82,76,55.92,77.21,55.92Z"/><path class="cls-1" d="M112.6,52.54a39.14,39.14,0,0,1-3.73,6.51,67.08,67.08,0,0,1,6.72,6.89l-3.44,3a48.46,48.46,0,0,0-5.9-6.76,32.83,32.83,0,0,1-9.06,6.73l-3.11-3.23a27.53,27.53,0,0,0,10.1-6.94,18.17,18.17,0,0,0,3.46-5.58H100c-1.11,0-2.47.15-3.16.2V49.1a27.63,27.63,0,0,0,3.16.2h8.24a10.4,10.4,0,0,0,3-.37l2.44,1.8A13.84,13.84,0,0,0,112.6,52.54Z"/><circle class="cls-1" cx="151.68" cy="50" r="30"/><path class="cls-2" d="M145.53,33a16.2,16.2,0,0,1,10.1-3.1c3.52,0,6.23.81,8.11,2.41a7.79,7.79,0,0,1,2.83,6.25,11.31,11.31,0,0,1-.16,1.92,10.81,10.81,0,0,1-2.77,5.74,11.3,11.3,0,0,1-4.65,3v.21a7.79,7.79,0,0,1,3.74,2.64,7.35,7.35,0,0,1,1.33,4.51,11.62,11.62,0,0,1-.21,2.25A13,13,0,0,1,159,67a15.52,15.52,0,0,1-9.93,3.13q-5.72,0-9-2.51c-2.19-1.68-3.28-4.22-3.28-7.64,0-.46.07-1.3.21-2.51h8.87a9.48,9.48,0,0,0-.11,1.17,3.77,3.77,0,0,0,1.07,2.89,4.52,4.52,0,0,0,3.2,1A5,5,0,0,0,153.87,61,5.57,5.57,0,0,0,155.31,57a3.06,3.06,0,0,0-1.47-2.85,9.25,9.25,0,0,0-4.62-.89h-1.71l1.34-7.42h1.7q6,0,6.84-4.27a6.79,6.79,0,0,0,.11-1,3,3,0,0,0-.88-2.3,3.68,3.68,0,0,0-2.54-.8,4.41,4.41,0,0,0-3.26,1.23,6.58,6.58,0,0,0-1.71,3h-8.86A14.48,14.48,0,0,1,145.53,33Z"/><path class="cls-2" d="M1134.32,0a59.93,59.93,0,0,1,0,100H1366V0Z"/></g></g></svg>