<svg xmlns="http://www.w3.org/2000/svg" viewBox="0 0 1316 150"><defs><style>.cls-1{fill:#fff;}.cls-2{fill:#80a2d4;}</style></defs><g id="レイヤー_2" data-name="レイヤー 2"><g id="design"><rect class="cls-1" x="5" y="5" width="406.19" height="140"/><path class="cls-2" d="M406.19,10V140H10V10H406.19m10-10H0V150H416.19V0Z"/><path class="cls-2" d="M416.19,0H1241a75,75,0,0,1,75,75v0a75,75,0,0,1-75,75H416.19a0,0,0,0,1,0,0V0a0,0,0,0,1,0,0Z"/><path class="cls-1" d="M505.56,92.76c5.68,6.4,14.64,10.08,27.28,11.44a37,37,0,0,0-5.6,8.32c-15.2-2.4-24.72-8.08-31-18-4.72,7.12-13.6,13.44-29.92,17.84a38.82,38.82,0,0,0-5.92-7.68c13.44-3,21.12-7.2,25.52-11.92H461.8V84.52h28.72a36.67,36.67,0,0,0,.8-5H470.84V71.8H491.4V67H469.56V61.72h-7.12v-17h29.2v-7h9.76v7h29.28v17h-6.4V67H500.92v4.8h21.76v7.68H500.84a27.16,27.16,0,0,1-.64,5h31.6v8.24ZM491.4,59.32V54.76h9.52v4.56h19.92V53h-49v6.32Z"/><path class="cls-1" d="M579,101.56c-10.72,2.8-22.16,5.52-30.72,7.6l-1.84-8.8,3.52-.72v-27h7.52V98.12l3.2-.72V67H550.46V40.68H576.7V67H569v9.44h8.8v8.24H569v10.8c3-.64,6.08-1.36,9-2.08ZM558.46,59h9.76V48.68h-9.76ZM618.3,86.28A58.11,58.11,0,0,1,607,98c1.68,3.2,3.52,5,5.6,5,1.6,0,2.4-2.16,2.88-9.2a22.33,22.33,0,0,0,7,5.12c-1.6,10.64-4.16,13.36-10.72,13.36-5.28,0-9.36-3.36-12.56-9a98.67,98.67,0,0,1-18.72,8.32,30.51,30.51,0,0,0-5.6-7.92,84.1,84.1,0,0,0,20.88-8.48,84,84,0,0,1-3-11.76l-13.12,1.36-.88-8.16,12.72-1.28c-.24-1.52-.4-3-.56-4.56l-9.28,1-.88-7.92,9.44-1c-.08-1.36-.16-2.72-.24-4.16l-10.56,1-.88-8.16,11-1c-.16-4.24-.24-8.56-.24-12.88h9.68c-.08,4-.08,8,0,11.92l11-1a95,95,0,0,0-8.72-5.52l5.2-5.6a59.4,59.4,0,0,1,11,6.64L614,48.28l3.84-.4.8,8-19.2,1.92c.08,1.44.16,2.88.24,4.24l16.4-1.6.88,7.76-16.56,1.68c.16,1.6.32,3.12.56,4.56l19.6-1.92,1,8-19.28,2c.56,2.56,1,4.88,1.68,7a39.35,39.35,0,0,0,6.32-6.88Z"/><path class="cls-1" d="M672.72,48.36c-.08,2.48-.16,4.88-.32,7.2h15a37.18,37.18,0,0,0,6-.56l7,3.36a32.71,32.71,0,0,0-.56,4.24c-.32,8.64-1.28,31-4.72,39.12-1.76,4.08-4.8,6.16-10.32,6.16-4.56,0-9.36-.32-13.2-.64l-1.28-10.72a66.21,66.21,0,0,0,11.2,1.12c2.56,0,3.68-.88,4.56-2.8,2.32-5,3.36-21,3.36-29.68h-18c-3,21.12-10.56,33.68-24.88,43.84l-9.28-7.52a47.67,47.67,0,0,0,10.48-7.84c7.44-7.36,11.44-16.32,13.2-28.48H650.4c-2.72,0-7.12,0-10.56.32V55c3.36.32,7.52.56,10.56.56h11.44c.08-2.24.16-4.56.16-7a59.21,59.21,0,0,0-.56-7.36H673.2C673,43.08,672.8,46.44,672.72,48.36Z"/><path class="cls-1" d="M734.25,50.12v27c0,2,.08,5.12.24,7h-11.6c.08-1.52.4-4.64.4-7v-27A56.8,56.8,0,0,0,723,44h11.52C734.33,45.8,734.25,47.56,734.25,50.12Zm37,1.2V67.16c0,17.2-3.36,24.64-9.28,31.2-5.28,5.76-13.6,9.68-19.44,11.52l-8.32-8.8c7.92-1.84,14.4-4.88,19.2-10.08C759,85,760,79,760,66.52V51.32a56.44,56.44,0,0,0-.48-8h12.08C771.45,45.56,771.29,48.12,771.29,51.32Z"/><path class="cls-1" d="M813.15,42.2l11.28-1.84c.24,1.6.48,4.32.88,6.24.16,1.12.64,3.76,1.28,7.36,6.8-1.12,12.88-2.08,15.76-2.64,2.56-.48,5.6-1.12,7.52-1.68l1.92,10.48c-1.76.16-5,.64-7.36,1-3.28.56-9.36,1.52-16,2.56.8,4,1.6,8.4,2.48,12.8,7.2-1.2,13.76-2.32,17.36-3,3.12-.64,6.08-1.28,8.16-1.92L858.59,82c-2.16.16-5.44.72-8.48,1.2-3.84.64-10.32,1.68-17.36,2.8,1.28,6.56,2.4,11.92,2.88,14.4s1.36,5.28,2.08,7.84l-11.52,2.08c-.4-3-.64-5.76-1.12-8.08s-1.44-7.84-2.72-14.56c-8.16,1.36-15.68,2.64-19.12,3.28s-6.16,1.2-8,1.68L793,82c2.16-.08,5.76-.56,8.32-.88,3.68-.48,11.12-1.68,19.2-3-.8-4.32-1.68-8.8-2.4-12.88-7,1.12-13.2,2.16-15.68,2.56-2.56.56-4.64,1-7.36,1.68l-2.16-11c2.56-.08,5-.24,7.44-.56,2.8-.32,9-1.2,15.84-2.32-.64-3.36-1.2-6-1.44-7.28C814.27,46,813.71,44.12,813.15,42.2Z"/><path class="cls-1" d="M922,70.6c-.64,4.72-2.72,18.48-3.92,26.08h5.12c2.08,0,5.76-.08,7.84-.32v10.32c-1.6-.08-5.52-.24-7.68-.24H881.26c-2.88,0-4.88.08-7.92.24V96.28a76.85,76.85,0,0,0,7.92.4h25.92c1.12-6.8,2.88-18.16,3.12-22.64H888.7c-2.56,0-5.68.24-8,.4V63.88c2.08.24,5.76.48,7.92.48H909.1c1.68,0,5-.32,5.92-.88l7.76,3.76A22.3,22.3,0,0,0,922,70.6Z"/><path class="cls-1" d="M1007.61,70.6c-2.4,7.76-5.84,15.52-11.84,22.16A59.91,59.91,0,0,1,967.21,110l-7.92-9c12-2.48,21.6-7.76,27.68-14a34.71,34.71,0,0,0,8.24-13.84H956.57c-1.92,0-5.92.08-9.28.4V63.16c3.36.24,6.8.48,9.28.48h39.6a16.88,16.88,0,0,0,5.84-.8l7.12,4.4A29.64,29.64,0,0,0,1007.61,70.6ZM963,44.44h30.8a75.43,75.43,0,0,0,8.64-.4V54.36c-2.16-.16-5.92-.24-8.8-.24H963c-2.56,0-6,.08-8.32.24V44A67.44,67.44,0,0,0,963,44.44Z"/><path class="cls-1" d="M1054.62,54c-2.56,7.84-9,28.16-13,38.88,9.76-1,21.12-2.24,29.2-3.2a96.7,96.7,0,0,0-8.4-14.64l10-4.08a246,246,0,0,1,17.52,33.28l-10.8,4.8c-1-2.72-2.32-6-3.84-9.44-13,1.52-37.2,4.08-47.28,5.12-2,.24-5,.64-7.52,1L1018.62,94c2.72,0,6.16,0,8.8-.08.64,0,1.44-.08,2.16-.08C1034.22,82,1041.1,60,1043.42,51.72a58.22,58.22,0,0,0,1.92-9.28l12.72,2.64C1057,47.48,1055.82,50.44,1054.62,54Z"/><path class="cls-2" d="M263.57,87.5c-.36,1-.85,2.25-1.44,3.47h17.33a26.8,26.8,0,0,0,3.73-.18v4.36c-1.26-.09-2.83-.13-3.73-.13h-6.08c-.72,10-4.59,16.56-11.52,20.79l-4.41-3a19.64,19.64,0,0,0,3.74-2.21c3.64-2.92,7.06-7.47,7.74-15.61h-8.82a40,40,0,0,1-6.3,7.83l-4.14-2.43a29.31,29.31,0,0,0,6.79-7.79,21.56,21.56,0,0,0,2.48-5.76,16.06,16.06,0,0,0,.58-2.92l5,1.08C264.11,85.93,263.84,86.69,263.57,87.5Z"/><path class="cls-2" d="M323.06,109.69c0,2.7-.72,4-2.52,4.68s-5,.85-9.63.85a17.59,17.59,0,0,0-1.8-4.41c3.51.18,7.11.14,8.19.09s1.35-.36,1.35-1.3v-7.88H298.22c-1.17,5-3.42,10-7.69,13.68a15.77,15.77,0,0,0-3.2-3.06c7-6,7.7-14.85,7.7-21.91V76.3h28Zm-4.41-12V91H299.3a58.56,58.56,0,0,1-.4,6.66ZM299.3,80.35V87h19.35V80.35Z"/><path class="cls-2" d="M366.69,76.66V115h-4.41v-3H340.05v3h-4.23V76.66Zm-26.64,4.09v6.39h22.23V80.75Zm0,10.35v6.48h22.23V91.1ZM362.28,108v-6.44H340.05V108Z"/><circle class="cls-2" cx="95" cy="75" r="45"/><path class="cls-1" d="M86.25,47a26.24,26.24,0,0,1,15.33-4.5q8.06,0,12.38,3.72a12.18,12.18,0,0,1,4.33,9.7,17.72,17.72,0,0,1-.26,3,18,18,0,0,1-4.41,9.18,17.2,17.2,0,0,1-7.8,5.11v.34A11.69,11.69,0,0,1,112,78a13.31,13.31,0,0,1,2.17,7.83,21.47,21.47,0,0,1-.35,4,20.32,20.32,0,0,1-7.58,12.73q-6.18,4.93-15.8,4.93-8.49,0-13.59-4T71.71,91.89a19.5,19.5,0,0,1,.17-3H81.4a8.23,8.23,0,0,0-.08,1.3A8.57,8.57,0,0,0,84,96.73q2.69,2.52,7.71,2.52a13,13,0,0,0,8.75-2.91,12.22,12.22,0,0,0,4.15-7.49,14.42,14.42,0,0,0,.26-2.59c0-3.06-1.15-5.26-3.46-6.58s-5.83-2-10.57-2H88.59l1.47-8.14H92.4q7-.08,11.09-2.33a9.61,9.61,0,0,0,4.93-7.1,17.73,17.73,0,0,0,.18-2,6.45,6.45,0,0,0-2.26-5.19Q104.09,51,99.76,51a12.67,12.67,0,0,0-8,2.47,12.17,12.17,0,0,0-4.28,6.11H77.85A20.43,20.43,0,0,1,86.25,47Z"/><circle class="cls-2" cx="196.62" cy="75" r="45"/><path class="cls-1" d="M166.4,93l1.3-7.45,36.46-41.73h12L209,84.44h8.05L215.5,93h-8.05l-2.34,13.16h-9.7L197.75,93Zm38.71-39.14-25.8,30.57h20.43Z"/></g></g></svg>