<svg xmlns="http://www.w3.org/2000/svg" viewBox="0 0 1366 235.33"><defs><style>.cls-1{fill:#d0b470;}.cls-2{fill:#fff;}</style></defs><g id="レイヤー_2" data-name="レイヤー 2"><g id="design"><polygon class="cls-1" points="0 180 682 235.33 1366 180 1366 0 682 55.33 0 0 0 180"/><path class="cls-2" d="M319.66,156.61h29.6v8.56H281.18v-8.56h28.56v-9.52H287.58v-8.32h22.16v-9.2H291.66v-6.33a100,100,0,0,1-8.88,5.52,35.63,35.63,0,0,0-6-7.68c13.68-6.88,26.56-19.2,32.48-29h9.84c8.56,12.16,21.6,22.64,34.24,28a46.35,46.35,0,0,0-6.32,8.56,99,99,0,0,1-8.64-5.36v6.25H319.66v9.2h22.4v8.32h-22.4Zm15.6-35.45c-8.32-6.08-16-13.36-20.64-19.84a92.16,92.16,0,0,1-20,19.84Z"/><path class="cls-2" d="M402.23,103.08c-.08,2.48-.16,4.88-.32,7.2h15a37.18,37.18,0,0,0,6-.56l7,3.36a31.23,31.23,0,0,0-.57,4.24c-.31,8.65-1.27,31-4.72,39.13-1.75,4.08-4.79,6.16-10.32,6.16-4.56,0-9.36-.32-13.2-.64l-1.28-10.72a66.21,66.21,0,0,0,11.2,1.12c2.56,0,3.68-.88,4.56-2.8,2.33-5,3.37-21,3.37-29.69H401c-3,21.13-10.56,33.69-24.88,43.85l-9.28-7.52a47.67,47.67,0,0,0,10.48-7.84c7.44-7.36,11.44-16.32,13.2-28.49H379.91c-2.72,0-7.12,0-10.56.32V109.72c3.36.32,7.52.56,10.56.56h11.44c.08-2.24.16-4.56.16-7A59.21,59.21,0,0,0,391,96h11.76C402.47,97.8,402.31,101.16,402.23,103.08Z"/><path class="cls-2" d="M463.76,104.84v27c0,2,.08,5.13.24,7H452.4c.08-1.52.4-4.64.4-7v-27a56.8,56.8,0,0,0-.32-6.16H464C463.84,100.52,463.76,102.28,463.76,104.84Zm37,1.2v15.84c0,17.21-3.36,24.65-9.28,31.21-5.28,5.76-13.6,9.68-19.44,11.52l-8.32-8.8c7.92-1.84,14.4-4.88,19.2-10.08,5.52-6,6.56-12,6.56-24.49V106a56.44,56.44,0,0,0-.48-8h12.08C501,100.28,500.8,102.84,500.8,106Z"/><path class="cls-2" d="M542.67,96.92,554,95.08c.24,1.6.48,4.32.88,6.24.16,1.12.64,3.76,1.28,7.36,6.8-1.12,12.88-2.08,15.76-2.64,2.56-.48,5.6-1.12,7.52-1.68l1.92,10.48c-1.76.16-5,.64-7.36,1-3.28.56-9.36,1.52-16,2.56.8,4,1.6,8.4,2.48,12.81,7.2-1.2,13.76-2.33,17.36-3,3.12-.64,6.08-1.29,8.16-1.93l2.16,10.57c-2.16.16-5.44.72-8.48,1.2-3.84.64-10.32,1.68-17.36,2.8,1.28,6.56,2.4,11.92,2.88,14.4s1.36,5.28,2.08,7.84l-11.52,2.08c-.4-3-.64-5.76-1.12-8.08s-1.44-7.84-2.72-14.56c-8.16,1.36-15.68,2.64-19.12,3.28s-6.16,1.2-8,1.68l-2.24-10.72c2.16-.08,5.76-.56,8.32-.88,3.68-.48,11.12-1.68,19.2-3-.8-4.31-1.68-8.79-2.4-12.87-7,1.11-13.2,2.15-15.68,2.55-2.56.57-4.64,1-7.36,1.68l-2.16-11c2.56-.08,5-.24,7.44-.56,2.8-.32,9-1.2,15.84-2.32-.64-3.36-1.2-6-1.44-7.28C543.79,100.68,543.23,98.84,542.67,96.92Z"/><path class="cls-2" d="M651.5,125.32c-.64,4.73-2.72,18.49-3.92,26.09h5.12c2.08,0,5.76-.08,7.84-.32v10.32c-1.6-.08-5.52-.24-7.68-.24H610.78c-2.88,0-4.88.08-7.92.24V151a76.85,76.85,0,0,0,7.92.4H636.7c1.12-6.8,2.88-18.16,3.12-22.65h-21.6c-2.56,0-5.68.25-8,.41V118.6c2.08.24,5.76.48,7.92.48h20.48c1.68,0,5-.32,5.92-.88L652.3,122A22.49,22.49,0,0,0,651.5,125.32Z"/><path class="cls-2" d="M737.12,125.32c-2.4,7.77-5.84,15.53-11.84,22.17a59.91,59.91,0,0,1-28.56,17.28l-7.92-9c12-2.48,21.6-7.76,27.68-14a34.74,34.74,0,0,0,8.24-13.85H686.08c-1.92,0-5.92.09-9.28.4v-10.4c3.36.24,6.8.48,9.28.48h39.6a16.88,16.88,0,0,0,5.84-.8l7.12,4.41A30.36,30.36,0,0,0,737.12,125.32ZM692.48,99.16h30.8a75.43,75.43,0,0,0,8.64-.4v10.32c-2.16-.16-5.92-.24-8.8-.24H692.48c-2.56,0-6,.08-8.32.24V98.76A67.44,67.44,0,0,0,692.48,99.16Z"/><path class="cls-2" d="M784.14,108.68c-2.56,7.84-9,28.17-13,38.89,9.76-1,21.12-2.24,29.2-3.2a97.36,97.36,0,0,0-8.4-14.65l10-4.08a246.75,246.75,0,0,1,17.52,33.29l-10.8,4.8c-1-2.72-2.32-6-3.84-9.44-13,1.52-37.2,4.08-47.28,5.12-2,.24-5,.64-7.52,1l-1.84-11.68c2.72,0,6.16,0,8.8-.08.64,0,1.44-.08,2.16-.08,4.64-11.84,11.52-33.77,13.84-42.09a58.22,58.22,0,0,0,1.92-9.28l12.72,2.64C786.54,102.2,785.34,105.16,784.14,108.68Z"/><path class="cls-2" d="M845,140.53c-.8,7.52-2.48,15.52-4.8,20.64a47,47,0,0,0-7.28-3.44c2.32-4.72,3.6-11.84,4.24-18.56Zm60.33-37.61a62.75,62.75,0,0,1-12.89,20,59.29,59.29,0,0,0,17.77,9.43,39.89,39.89,0,0,0-6,7.77A61.75,61.75,0,0,1,886,128.84a72.53,72.53,0,0,1-18,10.89,24.6,24.6,0,0,0-2.8-4.33l-5.84,2.65c-.24-1.12-.56-2.48-1-3.92l-4.08.32v32.72h-8.24V135l-11.6.72-.8-8.24,5.76-.25c1.2-1.52,2.48-3.27,3.76-5.12a78.5,78.5,0,0,0-9.44-10.88l4.56-6.48,1.84,1.6A101.41,101.41,0,0,0,846,92.44l8.24,3c-2.88,5.44-6.08,11.6-9,16.08,1,1.12,1.92,2.24,2.72,3.2a145.08,145.08,0,0,0,7.12-13l7.76,3.6c-4.4,7-9.92,15-15,21.53l7.68-.32c-.88-2-1.84-4-2.8-5.77l6.32-2.64A80.12,80.12,0,0,1,865,131.09a64.53,64.53,0,0,0,14.81-8.49,64.89,64.89,0,0,1-6.09-8,65.65,65.65,0,0,1-7.12,6.89,26.48,26.48,0,0,0-6.56-6.17,54.58,54.58,0,0,0,17.36-23l9.28,1.52a65.24,65.24,0,0,1-3,6.08H898l1.44-.32Zm-44.09,35.61a88.2,88.2,0,0,1,5,14.4l-7,2.56a94.66,94.66,0,0,0-4.64-14.88Zm11.84,9.84a158.17,158.17,0,0,1,30.09,12l-5.53,7.44c-7-4.4-19.67-9.76-30.08-12.72Zm8.48-13.53a82.66,82.66,0,0,1,16.57,8.73l-5.53,6.64a71.88,71.88,0,0,0-16.4-9.36ZM879,108.12a55.17,55.17,0,0,0,7,9,50,50,0,0,0,7-9Z"/><path class="cls-2" d="M987.28,102.84c-7,8.64-17.36,18.65-27,24.73V156c0,5.52-1.36,8.08-5.28,9.52s-9.69,1.6-17.37,1.6a40.35,40.35,0,0,0-3.76-9.76c5.6.32,12.16.32,14,.24s2.31-.4,2.31-1.76V119.56h5.36a91.91,91.91,0,0,0,13.85-12.24H923V98h54.57l2.32-.64Z"/><path class="cls-2" d="M1026.29,112.6a107.2,107.2,0,0,1-6.08,9.68v45h-8.88V133a70.83,70.83,0,0,1-6.24,5.92,57.78,57.78,0,0,0-5-8.88A68.28,68.28,0,0,0,1018,109.48Zm-1.36-16.88a98.35,98.35,0,0,1-19.12,19.52,72.8,72.8,0,0,0-5-7c5.68-4,12.32-10.64,15.68-15.84Zm44.32,40.33a43.7,43.7,0,0,1-12.16,17.28,71.78,71.78,0,0,0,19.92,5.84,35.57,35.57,0,0,0-5.68,8.16,64.8,64.8,0,0,1-22.08-8.4,78.19,78.19,0,0,1-22.64,8.56,30.94,30.94,0,0,0-4.56-8.08,69.16,69.16,0,0,0,19.68-6.24,43.58,43.58,0,0,1-6.32-7,77.39,77.39,0,0,1-7.2,5,55.45,55.45,0,0,0-6.16-7,51.67,51.67,0,0,0,17.84-14.81l-16,.48-.8-8.4c3.6,0,7.76,0,12.32-.08,1.12-1,2.32-2,3.44-3a91,91,0,0,0-14.08-11.36l5.68-6.16c1.36.88,2.88,1.84,4.4,2.88a87.27,87.27,0,0,0,8.56-11.52l8.24,4.24c-3.44,4.08-7.36,8.4-10.72,11.76a60.15,60.15,0,0,1,4.56,4A143.54,143.54,0,0,0,1058.37,98l8.4,4.64a255.66,255.66,0,0,1-19.6,18.56l14.32-.23c-1.28-1.85-2.64-3.53-4-5.13l7.36-4.08c4.64,5.21,9.92,12.41,12.16,17.53l-8,4.48a45.38,45.38,0,0,0-2.64-5.28c-5.28.23-10.72.39-15.92.56-1,1.6-2,3.2-3.12,4.72h14.48l1.52-.33Zm-28,4.88a36.53,36.53,0,0,0,7.92,7.76,35.62,35.62,0,0,0,7.68-7.84h-15.52Z"/></g></g></svg>