<svg xmlns="http://www.w3.org/2000/svg" viewBox="0 0 1316 150"><defs><style>.cls-1{fill:#fff;}.cls-2{fill:#d498a2;}</style></defs><g id="レイヤー_2" data-name="レイヤー 2"><g id="design"><rect class="cls-1" x="5" y="5" width="406.19" height="140"/><path class="cls-2" d="M406.19,10V140H10V10H406.19m10-10H0V150H416.19V0Z"/><path class="cls-2" d="M416.19,0H1241a75,75,0,0,1,75,75v0a75,75,0,0,1-75,75H416.19a0,0,0,0,1,0,0V0a0,0,0,0,1,0,0Z"/><path class="cls-1" d="M532.82,93.84h-17.2v9.36c0,4.56-1,6.72-4.32,8s-8.08,1.28-14.48,1.28a32.35,32.35,0,0,0-3-8.32c4.24.16,9.28.16,10.64.16s1.76-.4,1.76-1.44v-9h-26c4,2.88,8.4,6.8,10.56,9.68l-7.6,5.6c-2.16-3.2-7.2-8-11.45-11.2l5.77-4.08H460.42v-8h45.84V81.6H468.09V54.4h23.53V50.8H462.25V43h29.37V37.76h9.28V43h30V50.8h-30v3.6h24.56V81.6h-9.84v4.24h17.2ZM476.9,65h14.72V60.88H476.9Zm0,10.16h14.72V71H476.9Zm24-14.24V65h15.28V60.88ZM516.18,71H500.9v4.08h15.28Z"/><path class="cls-1" d="M580.12,90.8l-31.28,8.56-2.24-9.84c3.2-.64,7.2-1.52,11.52-2.48V56.24H548V47.12h30.32v9.12H567.56V85l11.6-2.64ZM615.8,61c-2.48,12.16-6.24,22.08-11.92,30a45.41,45.41,0,0,0,19,13,41.16,41.16,0,0,0-6.56,8.56,50.18,50.18,0,0,1-19-13.76c-6.16,5.84-13.92,10.4-23.6,13.76a40.3,40.3,0,0,0-5-8.72c9.76-3,17.28-7.12,23-13a87.82,87.82,0,0,1-8-18.64,64.35,64.35,0,0,1-4.08,5.92,50.94,50.94,0,0,0-8.16-5.68c7.28-8,12.72-21.36,15.76-34.88l9.36,1.92c-1,4.16-2.24,8.4-3.6,12.4h28.64V61Zm-25.68,0A79.43,79.43,0,0,0,598,82.56c3.6-5.92,6.08-13,7.76-21.6Z"/><path class="cls-1" d="M672.74,48.4c-.08,2.48-.16,4.88-.32,7.2h15a37.18,37.18,0,0,0,6-.56l7,3.36a32.71,32.71,0,0,0-.56,4.24c-.32,8.64-1.28,31-4.72,39.12-1.76,4.08-4.8,6.16-10.32,6.16-4.56,0-9.36-.32-13.2-.64l-1.28-10.72a66.21,66.21,0,0,0,11.2,1.12c2.56,0,3.68-.88,4.56-2.8,2.32-5,3.36-21,3.36-29.68h-18c-3,21.12-10.56,33.68-24.88,43.84l-9.28-7.52a47.67,47.67,0,0,0,10.48-7.84c7.44-7.36,11.44-16.32,13.2-28.48H650.42c-2.72,0-7.12,0-10.56.32V55c3.36.32,7.52.56,10.56.56h11.44c.08-2.24.16-4.56.16-7a59.21,59.21,0,0,0-.56-7.36h11.76C673,43.12,672.82,46.48,672.74,48.4Z"/><path class="cls-1" d="M734.27,50.16v27c0,2,.08,5.12.24,7h-11.6c.08-1.52.4-4.64.4-7v-27A56.8,56.8,0,0,0,723,44h11.52C734.35,45.84,734.27,47.6,734.27,50.16Zm37,1.2V67.2c0,17.2-3.36,24.64-9.28,31.2-5.28,5.76-13.6,9.68-19.44,11.52l-8.32-8.8c7.92-1.84,14.4-4.88,19.2-10.08C759,85,760,79,760,66.56V51.36a56.44,56.44,0,0,0-.48-8h12.08C771.47,45.6,771.31,48.16,771.31,51.36Z"/><path class="cls-1" d="M813.18,42.24l11.28-1.84c.24,1.6.48,4.32.88,6.24.16,1.12.64,3.76,1.28,7.36,6.8-1.12,12.88-2.08,15.76-2.64,2.56-.48,5.6-1.12,7.52-1.68l1.92,10.48c-1.76.16-5,.64-7.36,1-3.28.56-9.36,1.52-16,2.56.8,4,1.6,8.4,2.48,12.8,7.2-1.2,13.76-2.32,17.36-3,3.12-.64,6.08-1.28,8.16-1.92l2.16,10.56c-2.16.16-5.44.72-8.48,1.2-3.84.64-10.32,1.68-17.36,2.8,1.28,6.56,2.4,11.92,2.88,14.4s1.36,5.28,2.08,7.84l-11.52,2.08c-.4-3-.64-5.76-1.12-8.08s-1.44-7.84-2.72-14.56c-8.16,1.36-15.68,2.64-19.12,3.28s-6.16,1.2-8,1.68L793,82c2.15-.08,5.75-.56,8.31-.88,3.69-.48,11.13-1.68,19.21-3-.8-4.32-1.68-8.8-2.4-12.88-7,1.12-13.2,2.16-15.68,2.56-2.56.56-4.65,1-7.36,1.68l-2.16-11c2.56-.08,5-.24,7.44-.56,2.8-.32,9-1.2,15.84-2.32-.64-3.36-1.2-6-1.44-7.28C814.3,46,813.74,44.16,813.18,42.24Z"/><path class="cls-1" d="M922,70.64c-.64,4.72-2.72,18.48-3.92,26.08h5.12c2.08,0,5.76-.08,7.84-.32v10.32c-1.6-.08-5.52-.24-7.68-.24H881.29c-2.88,0-4.88.08-7.92.24V96.32a76.85,76.85,0,0,0,7.92.4h25.92c1.12-6.8,2.88-18.16,3.12-22.64h-21.6c-2.56,0-5.68.24-8,.4V63.92c2.08.24,5.76.48,7.92.48h20.48c1.68,0,5-.32,5.92-.88l7.76,3.76A22.3,22.3,0,0,0,922,70.64Z"/><path class="cls-1" d="M1007.63,70.64c-2.4,7.76-5.84,15.52-11.84,22.16a59.91,59.91,0,0,1-28.56,17.28l-7.92-9c12-2.48,21.6-7.76,27.68-14a34.71,34.71,0,0,0,8.24-13.84H956.59c-1.92,0-5.92.08-9.28.4V63.2c3.36.24,6.8.48,9.28.48h39.6a16.88,16.88,0,0,0,5.84-.8l7.12,4.4A29.64,29.64,0,0,0,1007.63,70.64ZM963,44.48h30.8a75.43,75.43,0,0,0,8.64-.4V54.4c-2.16-.16-5.92-.24-8.8-.24H963c-2.56,0-6,.08-8.32.24V44.08A67.44,67.44,0,0,0,963,44.48Z"/><path class="cls-1" d="M1054.65,54c-2.56,7.84-9,28.16-13,38.88,9.76-1,21.12-2.24,29.2-3.2a96.7,96.7,0,0,0-8.4-14.64l10-4.08a246,246,0,0,1,17.52,33.28l-10.8,4.8c-1-2.72-2.32-6-3.84-9.44-13,1.52-37.2,4.08-47.28,5.12-2,.24-5,.64-7.52,1L1018.65,94c2.72,0,6.16,0,8.8-.08.64,0,1.44-.08,2.16-.08,4.64-11.84,11.52-33.76,13.84-42.08a58.22,58.22,0,0,0,1.92-9.28l12.72,2.64C1057.05,47.52,1055.85,50.48,1054.65,54Z"/><path class="cls-2" d="M263.57,87.5c-.36,1-.85,2.25-1.44,3.47h17.33a26.8,26.8,0,0,0,3.73-.18v4.36c-1.26-.09-2.83-.13-3.73-.13h-6.08c-.72,10-4.59,16.56-11.52,20.79l-4.41-3a19.64,19.64,0,0,0,3.74-2.21c3.64-2.92,7.06-7.47,7.74-15.61h-8.82a40,40,0,0,1-6.3,7.83l-4.14-2.43a29.31,29.31,0,0,0,6.79-7.79,21.56,21.56,0,0,0,2.48-5.76,16.06,16.06,0,0,0,.58-2.92l5,1.08C264.11,85.93,263.84,86.69,263.57,87.5Z"/><path class="cls-2" d="M323.06,109.69c0,2.7-.72,4-2.52,4.68s-5,.85-9.63.85a17.59,17.59,0,0,0-1.8-4.41c3.51.18,7.11.14,8.19.09s1.35-.36,1.35-1.3v-7.88H298.22c-1.17,5-3.42,10-7.69,13.68a15.77,15.77,0,0,0-3.2-3.06c7-6,7.7-14.85,7.7-21.91V76.3h28Zm-4.41-12V91H299.3a58.56,58.56,0,0,1-.4,6.66ZM299.3,80.35V87h19.35V80.35Z"/><path class="cls-2" d="M366.69,76.66V115h-4.41v-3H340.05v3h-4.23V76.66Zm-26.64,4.09v6.39h22.23V80.75Zm0,10.35v6.48h22.23V91.1ZM362.28,108v-6.44H340.05V108Z"/><circle class="cls-2" cx="95" cy="75" r="45"/><path class="cls-1" d="M117.34,52h-29l-3,17.23a17.73,17.73,0,0,1,6.1-4.07,20.1,20.1,0,0,1,7.92-1.64q8.92,0,13,4.58a17,17,0,0,1,4,11.61,29.5,29.5,0,0,1-.44,4.85,27.23,27.23,0,0,1-8.44,16q-6.71,6.1-17.28,6.11-9.44,0-14.28-4.68T71.19,89.59H80.8A8.73,8.73,0,0,0,83.92,96a11.77,11.77,0,0,0,7.79,2.38,13.34,13.34,0,0,0,9.87-3.72,18.1,18.1,0,0,0,4.85-9.87,18.19,18.19,0,0,0,.35-3.55,9,9,0,0,0-2.64-6.93c-1.76-1.62-4.35-2.42-7.75-2.42a13.32,13.32,0,0,0-7.49,2.12,15.7,15.7,0,0,0-5.24,5.76H74.31l6.41-36.46h38.1Z"/><circle class="cls-2" cx="196.62" cy="75" r="45"/><path class="cls-1" d="M208,52.88q-2.17-2-6.67-2a13.72,13.72,0,0,0-11.13,5.24q-4.29,5.25-6.62,17.36a19.2,19.2,0,0,1,7.66-5.88A23.86,23.86,0,0,1,201,65.52q7.46,0,11.78,4.15t4.33,11.61a25.68,25.68,0,0,1-.44,5,27.06,27.06,0,0,1-4.28,10.82,23,23,0,0,1-8.4,7.49,24.7,24.7,0,0,1-11.73,2.73q-10,0-14.29-5t-4.33-14.59A79.76,79.76,0,0,1,175,74.35q5.55-31.69,27.89-31.69a19.21,19.21,0,0,1,9.7,2.2,13,13,0,0,1,5.49,5.89,16.67,16.67,0,0,1,1.43,8.1h-9.09A8.51,8.51,0,0,0,208,52.88ZM187.86,77a13.8,13.8,0,0,0-5.28,9.14,18.22,18.22,0,0,0-.26,3.11,9.5,9.5,0,0,0,2.77,7.23c1.85,1.77,4.56,2.64,8.14,2.64a13.31,13.31,0,0,0,9.22-3.37,15.06,15.06,0,0,0,4.72-9,16.77,16.77,0,0,0,.35-3.46A9.38,9.38,0,0,0,205,76.34q-2.52-2.5-7.63-2.51A15.52,15.52,0,0,0,187.86,77Z"/></g></g></svg>