<svg xmlns="http://www.w3.org/2000/svg" viewBox="0 0 1366 100"><defs><style>.cls-1{fill:#fff;}.cls-2{fill:#eb9000;}</style></defs><g id="レイヤー_2" data-name="レイヤー 2"><g id="design"><path class="cls-1" d="M1101.21,0H214.79a59.93,59.93,0,0,1,0,100h886.42a50,50,0,0,0,50-50h0A50,50,0,0,0,1101.21,0Z"/><path class="cls-2" d="M0,0H181.68a50,50,0,0,1,50,50v0a50,50,0,0,1-50,50H0a0,0,0,0,1,0,0V0A0,0,0,0,1,0,0Z"/><path class="cls-2" d="M428.89,63.75v4.4h-5.4V29.75h14.65v34Zm0-28.7v8.8h3.9v-8.8Zm3.9,23.35V49.05h-3.9V58.4Zm25.15-2.9c2.15,5.9,5.85,10.7,11.25,13.1a27.21,27.21,0,0,0-3.8,4.8c-5.15-2.75-8.7-7.35-11.15-13.25-2.1,5.3-6.25,9.8-14.3,12.95a19.26,19.26,0,0,0-3.7-4.45c8.45-3.15,12.15-7.8,13.65-13.15h-10.6V50.15h2.5V34h9.15V27h5.45V34h9.95V50.15h2.4V55.5Zm-7.15-5.35c.1-1.35.15-2.7.15-4V39.3H447V50.15Zm5.6-10.85v6.9c0,1.3-.05,2.65-.1,3.95h4.55V39.3Z"/><path class="cls-2" d="M489,28.25a97.19,97.19,0,0,1-3.8,9.7V73.2H479.5v-25a39.89,39.89,0,0,1-3.1,4.1,41.36,41.36,0,0,0-2.85-6.4c4-4.65,7.7-11.95,9.9-19.3ZM521.2,53a63.67,63.67,0,0,1-6.9,5.3,20.45,20.45,0,0,0,7.55,8.35,18.89,18.89,0,0,0-3.8,4.65C511.4,66.75,507.8,58.5,505.7,48.4h-1a31.14,31.14,0,0,1-2.8,2.05C510,57.3,509.8,68,506,71.25a7.28,7.28,0,0,1-5.3,2c-1,0-2.25,0-3.5-.15a12.91,12.91,0,0,0-1.25-4.8,58.49,58.49,0,0,1-6.45,3.15,20.49,20.49,0,0,0-3.15-4.2,49.54,49.54,0,0,0,15.9-8.45c-.25-.6-.55-1.15-.85-1.75a62.85,62.85,0,0,1-11.5,6.2,18.91,18.91,0,0,0-2.7-3.7,46.08,46.08,0,0,0,11.9-5.55,13.58,13.58,0,0,0-1.2-1.2,50.61,50.61,0,0,1-7.75,3.55,38.57,38.57,0,0,0-3.3-3.85,49.89,49.89,0,0,0,10.3-4.15h-7.6V40.65A17.28,17.28,0,0,0,485.9,38a31.93,31.93,0,0,0,10-11.4l5.6,1c-.35.65-.75,1.35-1.15,2H508l1.05-.35,3.5,2.5a54.92,54.92,0,0,1-3.3,4.8H519.5V48.4h-8.75a46.79,46.79,0,0,0,1.6,5.5,54.61,54.61,0,0,0,4.85-4.5ZM494.9,44.4h6.45V40.6H494.9Zm2.45-10.5c-.7.9-1.4,1.8-2.15,2.65H503a22.73,22.73,0,0,0,1.95-2.65Zm5.9,29.8a69.9,69.9,0,0,1-7,4.5,29.6,29.6,0,0,0,3.35.2,2.84,2.84,0,0,0,2.45-1A5.41,5.41,0,0,0,503.25,63.7ZM513.8,40.6h-7.15v3.8h7.15Z"/><path class="cls-2" d="M549.54,35c0,.1-.1.15-.15.25h10.05a16,16,0,0,0,4.35-.6l5.1,3.15a20,20,0,0,0-1.65,3.6,52.17,52.17,0,0,1-8.7,16.7c-4.75,5.8-10.8,10.4-20.2,14.1l-5.9-5.3c10.25-3.05,15.8-7.4,20.15-12.35a35.54,35.54,0,0,0,7.1-13.65H545.64A57,57,0,0,1,533,53l-5.6-4.15A44,44,0,0,0,543,32.75a24.06,24.06,0,0,0,2.25-5.25l7.3,2.4C551.44,31.65,550.14,33.9,549.54,35Z"/><path class="cls-2" d="M587.47,34.35v16.9c0,1.25,0,3.2.15,4.35h-7.25c0-1,.25-2.9.25-4.4V34.35a35.5,35.5,0,0,0-.2-3.85h7.2C587.52,31.65,587.47,32.75,587.47,34.35Zm23.15.75V45c0,10.75-2.1,15.4-5.8,19.5-3.3,3.6-8.5,6-12.15,7.2l-5.2-5.5c4.95-1.15,9-3.05,12-6.3,3.45-3.75,4.1-7.5,4.1-15.3V35.1a35.27,35.27,0,0,0-.3-5h7.55C610.72,31.5,610.62,33.1,610.62,35.1Z"/><path class="cls-2" d="M628.61,34.3h27.2c1.5,0,3.25-.15,4.7-.3v6.85c-1.5-.1-3.25-.2-4.7-.2H645.26v20.4h13.25a30.55,30.55,0,0,0,4.7-.4V67.9a40.12,40.12,0,0,0-4.7-.25h-33a41.78,41.78,0,0,0-4.9.25V60.65a32.38,32.38,0,0,0,4.9.4h12.7V40.65h-9.65c-1.35,0-3.5.1-4.75.2V34C625.16,34.15,627.21,34.3,628.61,34.3Z"/><path class="cls-2" d="M689.25,40.5a64.1,64.1,0,0,0,14.1-12.15l5.4,5.15A91.71,91.71,0,0,1,695.3,44.35v20.2a34.37,34.37,0,0,0,.45,6.55h-7.9a56,56,0,0,0,.35-6.55v-16a100.19,100.19,0,0,1-17.65,7.2l-3.15-6.3A80.4,80.4,0,0,0,689.25,40.5Z"/><path class="cls-2" d="M732.81,34.4H743a15.88,15.88,0,0,0,4.35-.55l5.1,3.15a23.52,23.52,0,0,0-1.65,3.55,57.25,57.25,0,0,1-7.4,14.4c2.15,1.55,4.1,3,5.55,4.2l-4.75,5.65c-1.35-1.25-3.2-2.8-5.25-4.45A47.09,47.09,0,0,1,721,72.2l-5.8-5A42.48,42.48,0,0,0,733.56,56.3c-3.25-2.4-6.55-4.65-9.1-6.25l4.45-4.55c2.65,1.5,5.8,3.55,9,5.65a35.49,35.49,0,0,0,5.5-11H729.06a60.14,60.14,0,0,1-13.2,12.95l-5.4-4.15a46.43,46.43,0,0,0,15.9-16.65,20.69,20.69,0,0,0,2.3-5.2l7.26,2.25A56.51,56.51,0,0,0,732.81,34.4Z"/><path class="cls-2" d="M768.3,46.05h26.85c2.35,0,4.55-.2,5.85-.3V53.6c-1.2-.05-3.75-.25-5.85-.25H768.3c-2.85,0-6.2.1-8,.25V45.75C762.05,45.9,765.7,46.05,768.3,46.05Z"/><path class="cls-2" d="M815.87,33.7h25.21c1.45,0,3.55-.05,4.4-.1-.05,1.15-.15,3.15-.15,4.6V64.1c0,1.75.1,4.4.2,5.9h-7.25c.05-.8.05-1.65.05-2.6H815.52c-1.95,0-4.8.15-6.45.3V60.55c1.75.15,4,.3,6.25.3h23.06V40.15H815.92c-2.1,0-4.8.1-6.2.2v-7C811.57,33.6,814.17,33.7,815.87,33.7Z"/><path class="cls-2" d="M865,46.05h26.86c2.35,0,4.55-.2,5.85-.3V53.6c-1.2-.05-3.75-.25-5.85-.25H865c-2.85,0-6.2.1-8.05.25V45.75C858.71,45.9,862.36,46.05,865,46.05Z"/><path class="cls-2" d="M936.41,38.1a73.51,73.51,0,0,1-7.85,13.75,140.56,140.56,0,0,1,14,14.3l-5.7,4.95A114,114,0,0,0,924.21,57a65.86,65.86,0,0,1-18.8,14l-5.15-5.4c8-3,15.8-9.1,20.5-14.35,3.3-3.75,6.35-8.7,7.45-12.25h-17c-2.1,0-4.85.3-5.9.35v-7.1a55.86,55.86,0,0,0,5.9.35h17.65a17.92,17.92,0,0,0,5.15-.65l4.1,3.05A23.63,23.63,0,0,0,936.41,38.1Z"/><path class="cls-1" d="M53.56,49.89H66.15c.79,0,2,0,2.34-.07,0,.59-.07,1.68-.07,2.49V65.13c0,.84,0,2.24.12,3.21H64.2c0-.42,0-.84,0-1.24H53.38c-.94,0-2.49.08-3.38.18V63c1,.08,2.1.15,3.26.15h11V53.77H53.56c-1.12,0-2.5,0-3.26.1V49.72C51.28,49.82,52.67,49.89,53.56,49.89Z"/><path class="cls-1" d="M77.21,55.92H90.32c1.12,0,2.33-.13,3-.17v4.71c-.64,0-2-.15-3-.15H77.21c-1.4,0-3.26.08-4.27.15V55.75C73.93,55.82,76,55.92,77.21,55.92Z"/><path class="cls-1" d="M112.6,52.54a39.14,39.14,0,0,1-3.73,6.51,67.08,67.08,0,0,1,6.72,6.89l-3.44,3a48.46,48.46,0,0,0-5.9-6.76,32.83,32.83,0,0,1-9.06,6.73l-3.11-3.23a27.53,27.53,0,0,0,10.1-6.94,18.17,18.17,0,0,0,3.46-5.58H100c-1.11,0-2.47.15-3.16.2V49.1a27.63,27.63,0,0,0,3.16.2h8.24a10.4,10.4,0,0,0,3-.37l2.44,1.8A13.84,13.84,0,0,0,112.6,52.54Z"/><circle class="cls-1" cx="151.68" cy="50" r="30"/><path class="cls-2" d="M143.53,39.56l1.5-8.49h14.79l-6.68,37.86h-9.5l5.18-29.37Z"/><path class="cls-2" d="M1134.32,0a59.93,59.93,0,0,1,0,100H1366V0Z"/></g></g></svg>