<svg xmlns="http://www.w3.org/2000/svg" viewBox="0 0 1366 100"><defs><style>.cls-1{fill:#fff;}.cls-2{fill:#6db358;}</style></defs><g id="レイヤー_2" data-name="レイヤー 2"><g id="design"><path class="cls-1" d="M1101.21,0H214.79a59.93,59.93,0,0,1,0,100h886.42a50,50,0,0,0,50-50h0A50,50,0,0,0,1101.21,0Z"/><path class="cls-2" d="M0,0H181.68a50,50,0,0,1,50,50v0a50,50,0,0,1-50,50H0a0,0,0,0,1,0,0V0A0,0,0,0,1,0,0Z"/><path class="cls-2" d="M374,55.73l-11.1-23.51h7.85l3.7,9.05c1.05,2.75,2.05,5.35,3.2,8.2h.2c1.15-2.85,2.25-5.45,3.3-8.2l3.7-9.05h7.7L381.35,55.73V69.28H374Z"/><path class="cls-2" d="M393.63,55.28c0-9.31,6.45-14.71,13.45-14.71s13.46,5.4,13.46,14.71S414.09,70,407.08,70,393.63,64.58,393.63,55.28Zm19.41,0c0-5.25-2.15-8.71-6-8.71s-5.95,3.46-5.95,8.71,2.15,8.7,5.95,8.7S413,60.58,413,55.28Z"/><path class="cls-2" d="M428.21,58.78V41.27h7.35V57.83c0,4.3,1.2,5.85,3.9,5.85,2.31,0,3.81-1,5.71-3.5V41.27h7.35v28h-6l-.55-4h-.2c-2.4,2.85-5.1,4.7-8.91,4.7C430.81,70,428.21,65.78,428.21,58.78Z"/><path class="cls-2" d="M465.91,38.42h-10.4v-6.2h28.31v6.2H473.31V69.28h-7.4Z"/><path class="cls-2" d="M486.45,58.78V41.27h7.35V57.83c0,4.3,1.2,5.85,3.9,5.85,2.3,0,3.8-1,5.7-3.5V41.27h7.35v28h-6l-.55-4H504c-2.4,2.85-5.1,4.7-8.9,4.7C489.05,70,486.45,65.78,486.45,58.78Z"/><path class="cls-2" d="M526.9,66.33h-.2l-.65,3H520.3V29.37h7.35V39.42l-.2,4.5a12,12,0,0,1,7.75-3.35c6.9,0,11,5.65,11,14.21,0,9.65-5.75,15.2-11.9,15.2A10.7,10.7,0,0,1,526.9,66.33Zm11.8-11.4c0-5.36-1.7-8.31-5.55-8.31-1.9,0-3.6,1-5.5,2.91v12.3a7.63,7.63,0,0,0,5.05,2.1C536.1,63.93,538.7,61,538.7,54.93Z"/><path class="cls-2" d="M552.73,55.28c0-9.06,6.4-14.71,13-14.71,7.7,0,11.7,5.65,11.7,13.36a13.82,13.82,0,0,1-.35,3.4H559.88c.6,4.6,3.6,7,7.75,7a11.54,11.54,0,0,0,6.3-1.95l2.5,4.5a17.63,17.63,0,0,1-9.75,3.1C558.83,70,552.73,64.53,552.73,55.28Zm18.45-2.85c0-3.75-1.7-6.16-5.3-6.16-3,0-5.55,2.11-6.1,6.16Z"/><path class="cls-2" d="M610.18,35.37c0,.1-.1.15-.15.25h10.05a16,16,0,0,0,4.35-.6l5.1,3.15a20,20,0,0,0-1.65,3.6,52.2,52.2,0,0,1-8.7,16.71c-4.75,5.8-10.8,10.4-20.2,14.1l-5.9-5.3c10.25-3,15.8-7.4,20.15-12.35a35.58,35.58,0,0,0,7.1-13.66H606.28a57,57,0,0,1-12.6,12.11l-5.6-4.16a44,44,0,0,0,15.6-16.1,24.06,24.06,0,0,0,2.25-5.25l7.3,2.4C612.08,32,610.78,34.27,610.18,35.37Z"/><path class="cls-2" d="M648.11,34.72V51.63c0,1.25,0,3.2.15,4.35H641c0-.95.25-2.9.25-4.4V34.72a35.5,35.5,0,0,0-.2-3.85h7.2C648.16,32,648.11,33.12,648.11,34.72Zm23.15.75v9.9c0,10.76-2.1,15.41-5.8,19.51-3.3,3.6-8.5,6.05-12.15,7.2l-5.2-5.5c4.95-1.15,9-3,12-6.3,3.45-3.75,4.1-7.5,4.1-15.31v-9.5a35.27,35.27,0,0,0-.3-5h7.55C671.36,31.87,671.26,33.47,671.26,35.47Z"/><path class="cls-2" d="M689.25,34.67h27.2c1.5,0,3.25-.15,4.7-.3v6.85c-1.5-.1-3.25-.2-4.7-.2H705.9V61.43h13.25a30.55,30.55,0,0,0,4.7-.4v7.25a40.12,40.12,0,0,0-4.7-.25H686.2a41.78,41.78,0,0,0-4.9.25V61a32.38,32.38,0,0,0,4.9.4h12.7V41h-9.65c-1.35,0-3.5.1-4.75.2V34.37C685.8,34.52,687.85,34.67,689.25,34.67Z"/><path class="cls-2" d="M749.89,40.87A64.1,64.1,0,0,0,764,28.72l5.4,5.15a91.71,91.71,0,0,1-13.45,10.85V64.93a34.37,34.37,0,0,0,.45,6.55h-7.9a56,56,0,0,0,.35-6.55v-16a100.19,100.19,0,0,1-17.65,7.2L728,49.82A80.4,80.4,0,0,0,749.89,40.87Z"/><path class="cls-2" d="M793.45,34.77H803.6a16,16,0,0,0,4.36-.55l5.1,3.15a23.52,23.52,0,0,0-1.65,3.55A57.2,57.2,0,0,1,804,55.33c2.15,1.55,4.11,3,5.56,4.2l-4.76,5.65c-1.35-1.25-3.2-2.8-5.25-4.45a47,47,0,0,1-17.9,11.85l-5.8-5A42.48,42.48,0,0,0,794.2,56.68c-3.25-2.4-6.55-4.65-9.1-6.25l4.45-4.56c2.65,1.5,5.8,3.56,9,5.66A35.53,35.53,0,0,0,804,40.47H789.7a60.18,60.18,0,0,1-13.2,13l-5.4-4.15A46.52,46.52,0,0,0,787,32.62a20.69,20.69,0,0,0,2.3-5.2l7.25,2.25A53.87,53.87,0,0,0,793.45,34.77Z"/><path class="cls-2" d="M828.94,46.42h26.85c2.35,0,4.55-.2,5.85-.3V54c-1.2,0-3.75-.25-5.85-.25H828.94c-2.85,0-6.2.1-8.05.25V46.12C822.69,46.27,826.34,46.42,828.94,46.42Z"/><path class="cls-2" d="M876.51,34.07h25.21c1.45,0,3.55,0,4.4-.1,0,1.15-.15,3.15-.15,4.6V64.48c0,1.75.1,4.4.2,5.9h-7.25c0-.8,0-1.65,0-2.6h-22.8c-1.95,0-4.8.15-6.45.3V60.93c1.75.15,4,.3,6.25.3H899V40.52H876.56c-2.1,0-4.8.1-6.2.2V33.77C872.21,34,874.81,34.07,876.51,34.07Z"/><path class="cls-2" d="M925.6,46.42h26.86c2.35,0,4.55-.2,5.85-.3V54c-1.2,0-3.75-.25-5.85-.25H925.6c-2.85,0-6.2.1-8.05.25V46.12C919.35,46.27,923,46.42,925.6,46.42Z"/><path class="cls-2" d="M997.05,38.47a73.88,73.88,0,0,1-7.85,13.76,140.56,140.56,0,0,1,13.95,14.3l-5.7,5a114,114,0,0,0-12.6-14.15,65.86,65.86,0,0,1-18.8,14L960.9,66c8.05-3,15.8-9.1,20.5-14.35,3.3-3.76,6.35-8.71,7.45-12.26h-17c-2.1,0-4.85.3-5.9.35v-7.1a55.86,55.86,0,0,0,5.9.35h17.65a17.92,17.92,0,0,0,5.15-.65l4.1,3A23.63,23.63,0,0,0,997.05,38.47Z"/><path class="cls-1" d="M53.56,49.89H66.15c.79,0,2,0,2.34-.07,0,.59-.07,1.68-.07,2.49V65.13c0,.84,0,2.24.12,3.21H64.2c0-.42,0-.84,0-1.24H53.38c-.94,0-2.49.08-3.38.18V63c1,.08,2.1.15,3.26.15h11V53.77H53.56c-1.12,0-2.5,0-3.26.1V49.72C51.28,49.82,52.67,49.89,53.56,49.89Z"/><path class="cls-1" d="M77.21,55.92H90.32c1.12,0,2.33-.13,3-.17v4.71c-.64,0-2-.15-3-.15H77.21c-1.4,0-3.26.08-4.27.15V55.75C73.93,55.82,76,55.92,77.21,55.92Z"/><path class="cls-1" d="M112.6,52.54a39.14,39.14,0,0,1-3.73,6.51,67.08,67.08,0,0,1,6.72,6.89l-3.44,3a48.46,48.46,0,0,0-5.9-6.76,32.83,32.83,0,0,1-9.06,6.73l-3.11-3.23a27.53,27.53,0,0,0,10.1-6.94,18.17,18.17,0,0,0,3.46-5.58H100c-1.11,0-2.47.15-3.16.2V49.1a27.63,27.63,0,0,0,3.16.2h8.24a10.4,10.4,0,0,0,3-.37l2.44,1.8A13.84,13.84,0,0,0,112.6,52.54Z"/><circle class="cls-1" cx="151.68" cy="50" r="30"/><path class="cls-2" d="M139.37,61q5.82-4.17,9.29-6.89a46.69,46.69,0,0,0,6-5.58,11.3,11.3,0,0,0,3-5.48,6.36,6.36,0,0,0,.16-1.38,3.11,3.11,0,0,0-.83-2.35,3.41,3.41,0,0,0-2.48-.8c-2.74,0-4.49,1.94-5.23,5.82h-8.87q1.4-6.74,5.8-10.12a16.13,16.13,0,0,1,10.12-3.39c3.7,0,6.45.83,8.25,2.51a8.64,8.64,0,0,1,2.69,6.62,12.22,12.22,0,0,1-.21,2.35,19,19,0,0,1-5.64,10.14,78,78,0,0,1-11.56,9.4h14.42l-1.33,7.42H136.11l1.17-6.78Z"/><path class="cls-2" d="M1134.32,0a59.93,59.93,0,0,1,0,100H1366V0Z"/></g></g></svg>