<svg xmlns="http://www.w3.org/2000/svg" viewBox="0 0 1266 478.01"><defs><style>.cls-1{fill:none;stroke:#fff;stroke-miterlimit:10;stroke-width:1.42px;}.cls-2{fill:#e15513;}.cls-3{fill:#fff;}.cls-4,.cls-5{fill:#ff0;}.cls-5{opacity:0.2;}</style></defs><g id="レイヤー_2" data-name="レイヤー 2"><g id="design"><line class="cls-1" y1="146.49" x2="1266" y2="146.49"/><rect class="cls-2" x="762.47" y="185.33" width="140" height="35"/><path class="cls-3" d="M75.75,200c2-1.2,3.94-2.16,5.16-2.83a13.19,13.19,0,0,0,2-1.28l1.2,2.21c-.63.39-1.3.72-2.07,1.13a61.77,61.77,0,0,0-6.36,3.46c-2.11,1.39-3.45,2.88-3.45,4.63,0,1.9,1.8,3,5.37,3a37.87,37.87,0,0,0,7.76-.84l0,2.71a45.22,45.22,0,0,1-7.63.6c-4.63,0-8-1.34-8-5.18,0-2.55,1.63-4.51,4.08-6.27-1.11-2-2.33-4.7-3.43-7.27l2.37-1A55.52,55.52,0,0,0,75.75,200Zm10.59-3.91-1.56.69a29.84,29.84,0,0,0-1.92-3.36l1.56-.65A33.56,33.56,0,0,1,86.34,196.09ZM89.12,195l-1.56.7a21.52,21.52,0,0,0-2-3.32l1.56-.64A30.08,30.08,0,0,1,89.12,195Z"/><path class="cls-3" d="M102.72,200.48a22.24,22.24,0,0,0-6.43,1.2c-.72.22-1.52.53-2.14.77l-.74-2.74a22.42,22.42,0,0,0,2.37-.38A31.17,31.17,0,0,1,103,198.2c3.57,0,6.17,2,6.17,5.59,0,5.16-4.71,8.21-11.14,9.15l-1.37-2.33c5.88-.72,9.89-2.86,9.89-6.91C106.56,201.85,105.1,200.48,102.72,200.48Zm4.49-6.82-.39,2.33c-2.71-.17-7.7-.65-10.44-1.13l.36-2.3A67.66,67.66,0,0,0,107.21,193.66Z"/><path class="cls-3" d="M128,194.21c0,.29,0,.72,0,1.2h7.2l0,2.26c-1.41-.07-3.69-.12-7.17-.12,0,1.3,0,2.69,0,3.77a5.92,5.92,0,0,1,.84,3.19c0,3.19-1.7,7-7.39,8.62l-2-2c2.83-.62,5-1.68,6.19-3.53a3.77,3.77,0,0,1-1.68.36,4,4,0,0,1-4-4.17,4.33,4.33,0,0,1,4.46-4.32,4.5,4.5,0,0,1,1.35.17c0-.63,0-1.35,0-2.05-3.65.05-7.58.2-10.56.39l-.07-2.31c2.71,0,7.18-.16,10.61-.21,0-.53,0-.94,0-1.23-.07-.76-.14-1.51-.19-1.75h2.76A14.41,14.41,0,0,0,128,194.21Zm-3.7,11.65c1.25,0,2.18-1,1.87-3.24a2,2,0,0,0-1.87-1.16,2.17,2.17,0,0,0-2.18,2.26A2.11,2.11,0,0,0,124.27,205.86Z"/><path class="cls-3" d="M145.45,192.39l2.79.1c-.12.62-.31,1.89-.51,3.48l.08,0,.79,1c-.29.43-.75,1.13-1.13,1.73,0,.34-.05.67-.1,1,1.9-1.7,4.85-3.86,7.23-3.86s3.53,1.39,3.53,3.38c0,2.43-.87,6.29-.87,8.76,0,.72.36,1.3,1.11,1.3a5.2,5.2,0,0,0,3.4-1.87l.36,2.61a6.27,6.27,0,0,1-4.46,1.92c-1.68,0-2.81-1.15-2.81-3.29,0-2.64.89-6.4.89-8.66,0-1.32-.67-1.9-1.82-1.9-1.88,0-4.64,2.26-6.72,4.52-.05.86-.08,1.7-.08,2.44,0,2.09,0,3.8.12,6,0,.43.08,1.13.12,1.63h-2.59c.05-.5.07-1.2.07-1.58,0-2.26,0-3.63.1-6.29-1.13,1.66-2.54,3.72-3.55,5.11l-1.49-2.09c1.32-1.68,3.94-5.13,5.23-7.08l.15-2.09-4.56.6-.25-2.44a15.94,15.94,0,0,0,1.81,0c.74-.05,2-.19,3.14-.36.07-1,.12-1.82.12-2.09A12.81,12.81,0,0,0,145.45,192.39Z"/><path class="cls-3" d="M170.32,195.32a59.62,59.62,0,0,0-1.16,9.5,18.69,18.69,0,0,0,.17,2.57c.36-1,.86-2.16,1.25-3.07l1.2.94a57.2,57.2,0,0,0-1.73,5.49,6.47,6.47,0,0,0-.12,1.11c0,.24,0,.6,0,.91l-2.11.14a28.91,28.91,0,0,1-.94-7.63A73.33,73.33,0,0,1,168,195.22c.09-.6.16-1.34.19-2l2.64.24A15.86,15.86,0,0,0,170.32,195.32Zm12.12-.58c0,.6-.05,1.63-.08,2.74a37.33,37.33,0,0,0,4-.55v2.32c-1.25.2-2.59.37-4,.46,0,2.4.2,4.59.29,6.41a16,16,0,0,1,4.71,3.1l-1.3,2a23.44,23.44,0,0,0-3.31-2.64v.1c0,2.21-1.06,4.1-4.39,4.1s-5.17-1.34-5.17-3.65,1.9-3.84,5.12-3.84a9.94,9.94,0,0,1,1.94.17c-.07-1.68-.17-3.77-.21-5.64-.68,0-1.37,0-2,0-1.4,0-2.69-.07-4.11-.17v-2.26a37.07,37.07,0,0,0,4.11.22c.67,0,1.36,0,2,0,0-1.2,0-2.23,0-2.83a12.07,12.07,0,0,0-.12-1.54h2.71A10.77,10.77,0,0,0,182.44,194.74ZM178,210.56c1.78,0,2.33-.89,2.33-2.42v-.65a7.63,7.63,0,0,0-2.23-.34c-1.61,0-2.72.7-2.72,1.75S176.48,210.56,178,210.56Zm8-14.83-1.44.48a29.74,29.74,0,0,0-1.3-3.39l1.37-.41A26,26,0,0,1,186,195.73Zm2.47-.77-1.42.45a23.39,23.39,0,0,0-1.36-3.31l1.39-.45A35.59,35.59,0,0,1,188.46,195Z"/><path class="cls-3" d="M205.51,203.31a23.16,23.16,0,0,0,8.85,7.08,13.67,13.67,0,0,0-1.63,1.92,25.62,25.62,0,0,1-8.37-7.2v8.38H202v-8.28a26.2,26.2,0,0,1-8.35,7.08,15.31,15.31,0,0,0-1.63-1.9,23.24,23.24,0,0,0,8.81-7.08h-8.12V201.1H202v-3.65h-7.56v-2.2H202v-3.77h2.36v3.77h7.75v2.2h-7.75v3.65h9.43v2.21Z"/><path class="cls-3" d="M222.09,205.54a21.85,21.85,0,0,1-1.61,6.12,10,10,0,0,0-1.7-.84,18.13,18.13,0,0,0,1.41-5.61Zm2.69-1.87v9.87h-2v-9.75l-3.63.22-.19-2,1.68,0c.43-.57.91-1.22,1.37-1.89a23.16,23.16,0,0,0-3-3.37l1.08-1.46c.22.17.43.36.65.55a28.09,28.09,0,0,0,2-4.34l2,.77c-.84,1.6-1.85,3.45-2.72,4.77.44.46.84.91,1.16,1.32.86-1.41,1.68-2.88,2.28-4.1l1.84.84c-1.34,2.18-3.07,4.8-4.63,6.82,1,0,2-.08,3-.15-.31-.67-.65-1.34-1-1.94l1.51-.63a18.4,18.4,0,0,1,2.18,5l-1.63.72a8.88,8.88,0,0,0-.38-1.29Zm2.06,1.35a26.86,26.86,0,0,1,1.51,4.34l-1.7.58a25.89,25.89,0,0,0-1.42-4.4Zm13.42-11.81a14.88,14.88,0,0,1-4.08,6.26,16.62,16.62,0,0,0,5.28,2.09,8.14,8.14,0,0,0-1.34,1.85,17.86,17.86,0,0,1-5.67-2.59,21.11,21.11,0,0,1-5.62,2.68,8.33,8.33,0,0,0-1.24-1.87,18.87,18.87,0,0,0,5.13-2.23,14.91,14.91,0,0,1-3.14-4.39l1.32-.44h-2.69v-1.92h10.15l.44-.09Zm-4.63,17.64h5.54v2H227.61v-2h5.81v-3.46H229.1v-2h4.32v-3.16h2.21v3.16h4.49v2h-4.49Zm-4-16.28a11.63,11.63,0,0,0,2.76,3.58,12.87,12.87,0,0,0,2.86-3.58Z"/><path class="cls-3" d="M245.7,211.52c.84-1.2,1.13-3.24,1.23-5.28l1.27.26c-.1,2.14-.36,4.37-1.3,5.67Zm17.79-4.66a8.92,8.92,0,0,0,4.75,4.85,9.29,9.29,0,0,0-1.42,1.75,10.09,10.09,0,0,1-4.8-5.37,10.27,10.27,0,0,1-5.52,5.45,5.72,5.72,0,0,0-1.24-1.49,2,2,0,0,1-.34.67,1.73,1.73,0,0,1-1.32.7,13.88,13.88,0,0,1-2.11,0,4.53,4.53,0,0,0-.51-1.75c.75.07,1.4.07,1.71.07a.65.65,0,0,0,.62-.28,5.86,5.86,0,0,0,.53-2.55l-.82.31a13.58,13.58,0,0,0-1.17-3.12l1-.31a15.19,15.19,0,0,1,1.08,2.47c.07-.88.14-2,.19-3.33h-7V192.41h8.59v1.85h-2.88V196h2.37v1.46a15.68,15.68,0,0,0,5.48-6h2a16.48,16.48,0,0,0,5.76,5.61,12,12,0,0,0-1.12,1.93,17.75,17.75,0,0,1-1.76-1.28v1.4h-2.68v1.65h4.39v6.07Zm-13.83-.28a21.05,21.05,0,0,1,.34,4.34l-1.13.17a24.15,24.15,0,0,0-.26-4.39ZM249,194.26V196h2v-1.73Zm0,3.48v1.83h2v-1.83Zm0,5.45h2v-1.87h-2Zm2.16,7.18a19.21,19.21,0,0,0-.82-3.87l1-.19a16.69,16.69,0,0,1,.89,3.82Zm4.89-7.18s0,.58,0,.82c-.19,4.41-.38,6.74-.72,7.92a8.8,8.8,0,0,0,5-5.07h-3.69v-6.07h4.24v-1.65h-2.66v-1.37a14.11,14.11,0,0,1-2,1.46,9.06,9.06,0,0,0-1-1.7v.21h-2.37v1.83h2.37v1.75h-2.37v1.87Zm4.66,2a14.31,14.31,0,0,0,.14-2.25v-.46h-2.4v2.71Zm4.42-7.8a17.6,17.6,0,0,1-3.39-3.93,16.16,16.16,0,0,1-3.12,3.93Zm-2.28,5.09V203a18.41,18.41,0,0,1-.12,2.23h2.59v-2.71Z"/><path class="cls-3" d="M281.79,194.45c-.14.75-.36,1.9-.58,3,1-.1,1.85-.15,2.4-.15,2.33,0,4.08.94,4.08,4.3,0,2.83-.35,6.7-1.36,8.71-.77,1.66-2,2.09-3.7,2.09a13.75,13.75,0,0,1-2.86-.33l-.38-2.5a12.39,12.39,0,0,0,2.93.48,1.9,1.9,0,0,0,2-1.15,19.52,19.52,0,0,0,1.08-7c0-2.07-.94-2.43-2.45-2.43a22.09,22.09,0,0,0-2.21.15c-.89,3.52-2.59,9.07-5,12.91l-2.47-1c2.4-3.24,4.13-8.42,5-11.68l-2.64.31c-.6.07-1.7.21-2.37.33l-.24-2.59c.81.05,1.51,0,2.32,0s2.07-.12,3.44-.24a27.67,27.67,0,0,0,.55-5.16l2.81.29C282,193.3,281.89,193.93,281.79,194.45ZM294.7,204l-2.37,1.1a28.43,28.43,0,0,0-4.16-8.88l2.24-1A41,41,0,0,1,294.7,204Z"/><path class="cls-3" d="M303.29,203.41a11.53,11.53,0,0,1,7.49-2.67c3.91,0,6.36,2.38,6.36,5.24,0,4.32-3.65,7.44-13,6.64l-.72-2.47c7.41.94,11.16-1.05,11.16-4.22,0-1.78-1.66-3.05-4-3.05a9,9,0,0,0-7.08,3.05,4.67,4.67,0,0,0-.82,1.27l-2.21-.53a90.25,90.25,0,0,0,1.23-9.86l2.54.33C303.92,198.65,303.51,201.94,303.29,203.41Zm10.61-9-.55,2.33c-2.35-.31-7.63-1.42-9.48-1.9l.6-2.28A71.34,71.34,0,0,0,313.9,194.43Z"/><path class="cls-3" d="M323.81,195.41c1.76-.16,6-.57,10.44-1,2.57-.21,5-.36,6.63-.4v2.42a22.59,22.59,0,0,0-4.68.34,8,8,0,0,0-5.31,7.22c0,4.37,4.08,5.83,8.05,6l-.87,2.57c-4.7-.24-9.62-2.76-9.62-8a9.61,9.61,0,0,1,4.08-7.8c-2.43.24-8,.81-10.71,1.39l-.24-2.62C322.49,195.51,323.33,195.46,323.81,195.41Zm15.58,7-1.49.67a22.27,22.27,0,0,0-1.92-3.36l1.44-.62A31.78,31.78,0,0,1,339.39,202.45Zm2.74-1.08-1.47.69a22.07,22.07,0,0,0-2-3.31l1.44-.65A36.81,36.81,0,0,1,342.13,201.37Z"/><path class="cls-3" d="M356,194.48l-.29,2.18a32.38,32.38,0,0,0,4.66-.31l-.07,2.26a47.41,47.41,0,0,1-4.83.24h-.05c-.16,1.25-.33,2.61-.48,3.86h.34a37.61,37.61,0,0,0,4.92-.29l-.07,2.26c-1.47.14-2.93.24-4.49.24h-.91c-.07.84-.12,1.58-.12,2.09,0,2.18,1.27,3.45,3.84,3.45,3.5,0,5.62-1.56,5.62-3.81a6.6,6.6,0,0,0-2.55-4.8l2.67-.55a8.38,8.38,0,0,1,2.4,5.64c0,3.6-3.22,5.95-8.19,5.95-3.48,0-6.14-1.51-6.14-5.5,0-.62.07-1.53.16-2.61a27.17,27.17,0,0,1-4.8-.82l.12-2.3a20.71,20.71,0,0,0,4.92,1c.17-1.28.34-2.62.51-3.89a31.44,31.44,0,0,1-5-.84l.12-2.21a23,23,0,0,0,5.11.91c.12-.86.19-1.63.24-2.26a10,10,0,0,0,0-1.89l2.69.14C356.2,193.33,356.11,193.9,356,194.48Z"/><path class="cls-3" d="M373,207.78l2-1.73a44.22,44.22,0,0,1,5.3,5.3l-2,1.73A43,43,0,0,0,373,207.78Z"/><path class="cls-3" d="M420.62,193.61v1.95H399.91v-1.95H409v-2.16h2.28v2.16ZM419.8,211c0,1.13-.24,1.75-1.05,2.11a11.86,11.86,0,0,1-4,.36,8.22,8.22,0,0,0-.7-2.06h-6.41v1.15h-1.94v-6.33h9.07v5.18c1.06,0,2,0,2.26,0s.5-.1.5-.41V204.9H403.1v8.61h-2.19V203H419.8Zm-3.07-14.28v5H403.82v-5Zm-2.26,1.54H406v1.94h8.49Zm-1.65,9.55h-5.14v2h5.14Z"/><path class="cls-3" d="M446.73,209.41h-9.62v4.1h-2.28v-4.1h-9.46v-2.09h9.46v-1.9h-7.28v-9.77h2.12a17.93,17.93,0,0,0-2.14-3.12l1.94-.86a18.23,18.23,0,0,1,2.4,3.34l-1.34.64h4.8a17.89,17.89,0,0,0-1.85-3.48l2-.76a17.33,17.33,0,0,1,2,3.62l-1.53.62h4a22.44,22.44,0,0,0,2.43-4.17l2.45.77c-.75,1.17-1.59,2.4-2.36,3.4h2.26v9.77h-7.63v1.9h9.62Zm-11.9-11.88h-5.09v2.11h5.09Zm0,6v-2.13h-5.09v2.13Zm7.63-6h-5.35v2.11h5.35Zm0,3.89h-5.35v2.13h5.35Z"/><path class="cls-3" d="M457.7,192.17a36.1,36.1,0,0,1-2.23,4.92v16.4h-2.09V200.43a25.47,25.47,0,0,1-1.9,2.31,20.56,20.56,0,0,0-1.17-2.19,25.88,25.88,0,0,0,5.37-9Zm10.44,3.68v3.5h4.22v13.59H470.2v-1.35H459.71v1.47h-2.06V199.35h4v-3.5h-4.29v-2h15.14v2Zm-8.43,13.8h2.16v-8.31h-2.16Zm6.32-13.8h-2.26v3.5H466Zm-2.26,5.49v8.31H466v-8.31Zm6.43,0h-2.28v8.31h2.28Z"/><path class="cls-3" d="M491.12,207.87a22.6,22.6,0,0,0,8.52,3.48,10.3,10.3,0,0,0-1.41,1.87,21.78,21.78,0,0,1-8.84-4.58v4.85h-2.23v-4.73a21.23,21.23,0,0,1-8.64,4.44,9.63,9.63,0,0,0-1.37-1.8,21.48,21.48,0,0,0,8.38-3.53h-7.87V206h9.5v-1.84h2.23V206h9.7v1.85ZM481,201.46c.62-.67,1.32-1.53,2.06-2.44h-5v-1.81h6.44c.52-.72,1.05-1.41,1.51-2.06l2.09.6c-.34.48-.7,1-1.08,1.46h11.69V199h-4.42a7.7,7.7,0,0,1-2.28,2.92c2.16.58,4.13,1.2,5.59,1.76l-1.34,1.56a58.49,58.49,0,0,0-6.39-2.07c-2.32,1-5.64,1.61-10.46,1.95a6,6,0,0,0-.72-1.73,47,47,0,0,0,8.06-1c-1.1-.29-2.18-.53-3.21-.75l-.41.48Zm-.67-4.75H478.3v-3.53h8.91v-1.7h2.23v1.7h9v3.53h-2.14v-1.66h-16Zm5.25,2.31-1,1.22c1.54.29,3.22.65,4.9,1.06a5.75,5.75,0,0,0,2.33-2.28Z"/><path class="cls-3" d="M510.54,192.2a36.86,36.86,0,0,1-2.35,5.18v16.08h-2.12V200.74a22.93,22.93,0,0,1-1.87,2.33,14.18,14.18,0,0,0-1.22-2.25,27,27,0,0,0,5.47-9.25Zm14.57,13.15h-6.36v8.14h-2.23v-8.14h-6.65v-2.18h6.65v-4.76h-3.41a17,17,0,0,1-1.61,3.39,14.72,14.72,0,0,0-1.92-1.08,21.43,21.43,0,0,0,2.86-8l2.16.43c-.22,1-.48,2.06-.77,3.07h2.69v-4.46h2.23v4.46H524v2.18h-5.28v4.76h6.36Z"/><path class="cls-3" d="M539,195.1a54.85,54.85,0,0,0,7-.69v2.23a75.12,75.12,0,0,1-7.89.62,19.4,19.4,0,0,1-1.85,3.17,7.14,7.14,0,0,1,3.07-.72,3.17,3.17,0,0,1,3.22,2c1.49-.69,2.71-1.2,3.84-1.73.81-.36,1.51-.67,2.28-1.05l1,2.21c-.69.21-1.72.6-2.45.88-1.22.48-2.78,1.11-4.46,1.88,0,1.36.05,3.28.07,4.44h-2.28c0-.84.07-2.21.1-3.39-2.07,1.13-3.36,2.23-3.36,3.65,0,1.63,1.56,2,4,2A40.35,40.35,0,0,0,548,210l-.08,2.43a62.68,62.68,0,0,1-6.67.43c-3.58,0-6.36-.84-6.36-3.82s2.88-4.82,5.66-6.24a1.93,1.93,0,0,0-2-1.2,6.13,6.13,0,0,0-4,1.73,26.24,26.24,0,0,0-2.18,2.57l-2.07-1.54a24.1,24.1,0,0,0,5.43-7h-.7c-1,0-2.66,0-4-.14v-2.26a29.9,29.9,0,0,0,4.13.27c.46,0,.94,0,1.42,0a12.1,12.1,0,0,0,.55-2.85l2.5.19C539.5,193.18,539.31,194.07,539,195.1Z"/><path class="cls-3" d="M557.84,205.52a21.74,21.74,0,0,1-1.54,6.07,8.9,8.9,0,0,0-1.58-.77,18.34,18.34,0,0,0,1.34-5.61Zm4.08-6.43a20,20,0,0,1,2,5.09l-1.66.69a10.77,10.77,0,0,0-.36-1.44l-1.51.1v10h-1.92v-9.82c-1.22.07-2.4.17-3.41.22l-.21-1.95,1.8-.09c.38-.53.81-1.11,1.22-1.75a23.25,23.25,0,0,0-2.9-3.46l1.1-1.44c.24.21.46.43.7.67a29,29,0,0,0,1.92-4.39l1.92.69c-.84,1.66-1.85,3.6-2.67,4.92a15.43,15.43,0,0,1,1,1.28,46.29,46.29,0,0,0,2.25-4.13l1.8.81c-1.29,2.14-2.93,4.71-4.41,6.68l2.64-.15c-.24-.64-.56-1.32-.84-1.89Zm.43,6a18.11,18.11,0,0,1,1.2,4.32l-1.61.51a17.61,17.61,0,0,0-1.13-4.35Zm14.79,7.25H566.05v1.1H564V192.39h2.09v18h11.09Zm-6.58-8.5a17.46,17.46,0,0,1-3.41,5.07,11.2,11.2,0,0,0-1-2.07,16.75,16.75,0,0,0,3.74-5.61h-3.26v-2h3.91V192h2v7.27h4.15v2h-4.15v.55c1,.94,3.65,3.6,4.27,4.3l-1.34,1.72a43.86,43.86,0,0,0-2.93-3.79v5.91h-2Zm-2.35-5.11a19,19,0,0,0-1.52-4.66l1.61-.57A18.8,18.8,0,0,1,570,198.1Zm8.35-4.82c-.7,1.68-1.51,3.69-2.18,5l-1.54-.58a34.45,34.45,0,0,0,1.78-5Z"/><path class="cls-3" d="M584.8,205.52a22,22,0,0,1-1.56,6.1,11.75,11.75,0,0,0-1.63-.8,18.34,18.34,0,0,0,1.34-5.61Zm2.66-2v10h-2v-9.82c-1.3.07-2.5.17-3.56.22l-.21-1.95,1.68-.09c.41-.53.86-1.13,1.29-1.75a22.59,22.59,0,0,0-2.85-3.39l1.13-1.49c.21.19.43.41.64.63a28.53,28.53,0,0,0,2-4.37l2,.72c-.84,1.63-1.88,3.55-2.74,4.87a15.24,15.24,0,0,1,1.06,1.3,44.55,44.55,0,0,0,2.37-4.13l1.85.84c-1.34,2.13-3.07,4.68-4.63,6.67l2.83-.17a18.93,18.93,0,0,0-.91-1.8l1.58-.67a21.73,21.73,0,0,1,2,4.08v-2.73h12.89v4.48h-2v-2.71h-9v2.71h-1.9v-.74l-1.44.67a14.67,14.67,0,0,0-.43-1.46Zm2.16,1.61a19.68,19.68,0,0,1,1.25,4.24l-1.73.53a16.74,16.74,0,0,0-1.12-4.29Zm4.25-1.37h2v1.65a8.33,8.33,0,0,1-5,8.12,11.3,11.3,0,0,0-1.56-1.52c4.1-2,4.58-4.8,4.58-6.64Zm2.26-8.38H590.9v-1.85h5.23v-2.09h2.21v2.09h5.33v1.85h-5.33v1.85h4.58v1.85H591.74v-1.85h4.39Zm5.78,16c.43,0,.53-.38.58-2.92a5.88,5.88,0,0,0,1.8.81c-.17,3.17-.67,4-2.16,4H600.4c-1.8,0-2.16-.6-2.16-2.6v-7h2v7c0,.63,0,.72.45.72Z"/><path class="cls-3" d="M629.89,195.2s0,.77,0,1.05c-.34,10.83-.63,14.55-1.59,15.75a2.67,2.67,0,0,1-2.08,1.13,27.15,27.15,0,0,1-3.63,0,5.21,5.21,0,0,0-.72-2.16c1.54.12,2.93.14,3.53.14a1.08,1.08,0,0,0,1-.41c.77-.79,1.08-4.41,1.39-13.46h-5.66a24.23,24.23,0,0,1-2.19,4,13,13,0,0,0-1.75-1.25v11h-6.51v1.82h-2V195.32h2.69a27,27,0,0,0,.84-3.89l2.43.41c-.41,1.2-.87,2.47-1.25,3.48h3.84v4.54a23,23,0,0,0,3.58-8.43l2.16.5c-.29,1.11-.6,2.21-1,3.27Zm-18.22,2.06v4.56h4.47v-4.56Zm4.47,11.81v-5.3h-4.47v5.3Zm8-1.87a38.78,38.78,0,0,0-3.5-5.54l1.75-1A44,44,0,0,1,626,206Z"/><path class="cls-3" d="M639.52,195.25a57.22,57.22,0,0,0-1.17,9.05,22.45,22.45,0,0,0,.14,2.56c.41-1,.89-2.16,1.27-3l1.2,1c-.62,1.82-1.46,4.39-1.7,5.59a4.45,4.45,0,0,0-.12,1.1c0,.24,0,.6.05.89l-2.19.14a30.46,30.46,0,0,1-.89-7.75,68.32,68.32,0,0,1,1-9.58,17.84,17.84,0,0,0,.21-2l2.67.24A17.17,17.17,0,0,0,639.52,195.25Zm5.74,12c0,1.08.84,2,3.74,2a25.61,25.61,0,0,0,6-.65l0,2.57a32.78,32.78,0,0,1-6.07.48c-4.09,0-6-1.42-6-3.74a12.12,12.12,0,0,1,.41-3l2.16.2A8.1,8.1,0,0,0,645.26,207.27Zm9-12.12v2.45a61.32,61.32,0,0,1-10,0l0-2.45A44.11,44.11,0,0,0,654.28,195.15Z"/><path class="cls-3" d="M667.46,192.63a25,25,0,0,1-2.38,3.55,19.61,19.61,0,0,1,1.37,8.19c0,3.41-.24,6.77-1.23,8.13a2,2,0,0,1-1.36.82,9.42,9.42,0,0,1-2.64.14,4.8,4.8,0,0,0-.58-2.13,14.33,14.33,0,0,0,2.26,0,.89.89,0,0,0,.69-.38c.58-.7.75-3.63.75-6.65v-.22a18,18,0,0,1-3.15,3.53,7.42,7.42,0,0,0-1.44-1.65,16,16,0,0,0,4.39-5.16,14.87,14.87,0,0,0-.62-2.89,23.53,23.53,0,0,1-2.21,2.07,8.28,8.28,0,0,0-1.51-1.44,19.53,19.53,0,0,0,2.81-2.67,12.41,12.41,0,0,0-2.45-3.09l1.58-1.15a16.59,16.59,0,0,1,2.24,2.54,21.74,21.74,0,0,0,1.56-2.54Zm3.26.53v-1.73h2v1.73h3.5v-1.73h2v1.73h3.65v1.7h-3.65v1.2h-1.51c-.22.41-.43.79-.65,1.13h5v1.42h-5.09v1h4.39v1.13h-4.39v1.1h4.42V203h-4.42v1.13h5.76v1.42h-13v-5.26a12.85,12.85,0,0,1-1.24,1.3,8.39,8.39,0,0,0-1.35-1.39,12.83,12.83,0,0,0,3.55-4.93l.94.24v-.67h-3.36v-1.7Zm10.11,14.06a10.57,10.57,0,0,1-3.92,3.63,31.48,31.48,0,0,0,5.48.91,7.33,7.33,0,0,0-1.25,1.78,24.09,24.09,0,0,1-6.6-1.61,31,31,0,0,1-7,1.63,7.26,7.26,0,0,0-1-1.73,34.24,34.24,0,0,0,5.81-1,10.31,10.31,0,0,1-2.57-2.23l1.2-.43h-3V206.5h11.28l.36,0Zm-6.75-8.61h-3.34v1h3.34Zm0,2.16h-3.34v1.1h3.34Zm0,2.25h-3.34v1.13h3.34Zm-1.32-8.16v1.2h-1.3c-.16.39-.36.75-.55,1.13h3.17a14.62,14.62,0,0,0,.67-1.68l1.51.26v-.91Zm-1,13.3a9,9,0,0,0,2.86,1.87,10.37,10.37,0,0,0,3-1.87Z"/><path class="cls-3" d="M694,197.55a26.11,26.11,0,0,1-2,3v13h-2.16V203a23.34,23.34,0,0,1-2.52,2.33,15.87,15.87,0,0,0-1.13-2.26,22,22,0,0,0,5.86-6.31Zm-.34-5.16a24.06,24.06,0,0,1-6,5.78,12.26,12.26,0,0,0-1.15-1.84,17.73,17.73,0,0,0,5-4.78Zm14.74,14.74H705v4.05c0,1.11-.22,1.66-1,2a10.21,10.21,0,0,1-3.65.36,9,9,0,0,0-.72-2c1.2,0,2.35,0,2.69,0s.46-.1.46-.38v-4h-9.25v-1.92h9.25v-1.75H694.1v-1.85H708v1.85h-3v1.75h3.43Zm-11.47.14a21.38,21.38,0,0,1,2.95,3.24l-1.68,1.2a20.91,20.91,0,0,0-2.86-3.38Zm10-7H695.44v-8H707Zm-2.25-6.41h-7.15v1.61h7.15Zm0,3.14h-7.15v1.61h7.15Z"/><path class="cls-3" d="M726.07,194.21c0,.29,0,.72,0,1.2h7.2l0,2.26c-1.42-.07-3.7-.12-7.18-.12,0,1.3,0,2.69,0,3.77a5.92,5.92,0,0,1,.84,3.19c0,3.19-1.71,7-7.39,8.62l-2-2c2.83-.62,5-1.68,6.19-3.53a3.77,3.77,0,0,1-1.68.36,4,4,0,0,1-4-4.17,4.33,4.33,0,0,1,4.46-4.32,4.39,4.39,0,0,1,1.34.17c0-.63,0-1.35,0-2.05-3.65.05-7.59.2-10.56.39l-.07-2.31c2.71,0,7.17-.16,10.61-.21,0-.53,0-.94-.05-1.23-.07-.76-.15-1.51-.19-1.75h2.76A12.65,12.65,0,0,0,726.07,194.21Zm-3.69,11.65c1.24,0,2.18-1,1.87-3.24a2,2,0,0,0-1.87-1.16,2.17,2.17,0,0,0-2.19,2.26A2.11,2.11,0,0,0,722.38,205.86Z"/><path class="cls-3" d="M742.33,193.76c1.25,0,6.72-.15,8-.27a7.73,7.73,0,0,0,1.54-.21l1.32,1.73a17,17,0,0,0-1.52,1c-1.22.91-4.17,3.41-5.88,4.8a9.88,9.88,0,0,1,2.88-.41c4,0,7,2.47,7,5.83,0,3.82-3,6.56-8.45,6.56-3.31,0-5.52-1.47-5.52-3.65,0-1.78,1.58-3.39,4-3.39a4.73,4.73,0,0,1,5,4.2,3.89,3.89,0,0,0,2.55-3.76c0-2.26-2.21-3.89-5.21-3.89-3.84,0-6.1,1.8-8.93,4.82l-1.75-1.77c1.87-1.54,4.87-4.06,6.29-5.24s4.12-3.41,5.32-4.46c-1.27,0-5.42.24-6.67.31-.6,0-1.22.07-1.78.14l-.07-2.47A18,18,0,0,0,742.33,193.76Zm4.47,16.9a13.07,13.07,0,0,0,1.7-.1c-.19-1.75-1.25-3-2.83-3a1.59,1.59,0,0,0-1.75,1.37C743.92,210,745.09,210.66,746.8,210.66Z"/><path class="cls-3" d="M792,196.42s0,1.08,0,1.49c-.2,9.72-.36,13.32-1.13,14.45a2.91,2.91,0,0,1-2,1.39,14.59,14.59,0,0,1-3,.15,8.69,8.69,0,0,0-1-3.32,21,21,0,0,0,2.25.1.89.89,0,0,0,.82-.43c.45-.63.65-3.43.77-10.63h-1.47c-.33,6.48-1.41,11.3-5.35,14.49a10.24,10.24,0,0,0-1.54-1.89c-3.64.36-7.39.69-10.2.93l-.38-2.88c1.32-.07,2.93-.17,4.7-.29v-1h-4v-2.42h4v-.63h-3.93v-7.63h3.93v-.6h-4.51V195.2h4.51v-.58c-1.29.07-2.59.12-3.81.15a10,10,0,0,0-.75-2.45,74,74,0,0,0,10.4-1.15l1.46,2.56c-1.25.27-2.66.46-4.15.63v.84h4.34v2.47h-4.34v.6h4v7.63h-4v.63h4.17V209c1.52-2.4,2-5.47,2.16-9.33H782v-3.2h2v-4.87h3.33c0,1.7,0,3.34,0,4.87Zm-18.82,4.68h1.2v-.72h-1.2Zm1.2,2.69v-.72h-1.2v.72Zm3.15-3.41v.72h1.17v-.72Zm1.17,2.69h-1.17v.72h1.17Zm-1.17,6.7,3.81-.29c.12-.17.24-.34.36-.53h-4.17Z"/><path class="cls-3" d="M818.72,192.46v3.24h-9.26v1.51h4v11h-11.4v-11h3.84V195.7h-9v-3.24Zm-4.15,4.37H818V213.9h-3.38v-1.37H801v1.37h-3.39V196.83H801v12.41h13.56Zm-9.65,4.59h1.3V200h-1.3Zm0,4h1.3V204h-1.3Zm5.59-5.43h-1.32v1.4h1.32Zm0,4h-1.32v1.42h1.32Z"/><path class="cls-3" d="M835.24,213,833,209.5a17.67,17.67,0,0,0,2.35-.43c3-.74,5.09-2.88,5.09-6s-1.51-5.3-4.27-6a48,48,0,0,1-1.42,6.27c-1.41,4.8-3.57,8-6.41,8s-5.23-3.21-5.23-7.32c0-5.71,4.92-10.56,11.33-10.56,6.12,0,10,4.22,10,9.67C844.46,208.21,841.48,211.9,835.24,213Zm-6.77-6.14c1,0,1.68-1.47,2.54-4.25a35.62,35.62,0,0,0,1.23-5.4,7.16,7.16,0,0,0-5.33,6.48C826.91,205.74,827.63,206.82,828.47,206.82Z"/><path class="cls-3" d="M867.66,190.83a3,3,0,0,1,.07,5.95c-.12.36-.21.72-.29,1a25.18,25.18,0,0,1-3.62,8.69,19.63,19.63,0,0,1-9.77,6.74l-3.17-3.48a15.73,15.73,0,0,0,9.44-5.54A13.64,13.64,0,0,0,863,198H852.39c-1.17,0-2.49.07-3.12.12V194c.75.1,2.33.22,3.12.22H863a13.56,13.56,0,0,0,1.73-.12,1,1,0,0,1,0-.31A3,3,0,0,1,867.66,190.83Zm0,4.25a1.28,1.28,0,1,0-1.27-1.27A1.28,1.28,0,0,0,867.66,195.08Z"/><path class="cls-3" d="M878.55,194.31H892c.64,0,1.56,0,2.52,0-.05.79-.05,1.77-.05,2.59v11.71c0,1,.05,3.58.05,3.58h-4s0-.55.05-1.27h-10.7v1.27h-4s.07-2.31.07-3.63V196.88c0-.77,0-1.87-.05-2.62C876.78,194.29,877.86,194.31,878.55,194.31Zm1.2,12.87h10.76V198H879.75Z"/><path class="cls-3" d="M913.4,195.25a57.17,57.17,0,0,0-1.18,9.05,22.5,22.5,0,0,0,.15,2.56c.41-1,.89-2.16,1.27-3l1.2,1c-.62,1.82-1.46,4.39-1.7,5.59a4,4,0,0,0-.12,1.1c0,.24,0,.6,0,.89l-2.18.14a30.46,30.46,0,0,1-.89-7.75,70.12,70.12,0,0,1,1-9.58,15.73,15.73,0,0,0,.22-2l2.66.24C913.74,193.85,913.5,194.81,913.4,195.25Zm5.74,12c0,1.08.84,2,3.74,2a25.61,25.61,0,0,0,6-.65l0,2.57a32.9,32.9,0,0,1-6.08.48c-4.08,0-6-1.42-6-3.74a12.12,12.12,0,0,1,.41-3l2.16.2A8.1,8.1,0,0,0,919.14,207.27Zm9-12.12v2.45a61.32,61.32,0,0,1-10,0l0-2.45A44.11,44.11,0,0,0,928.16,195.15Z"/><path class="cls-3" d="M942.4,196a23.66,23.66,0,0,0,3.53-.82l.07,2.21a32.42,32.42,0,0,1-4.29.86,43.13,43.13,0,0,1-5.21,10.2l-2.31-1.17a36,36,0,0,0,5-8.76c-.6,0-1.17,0-1.75,0-.91,0-1.92,0-2.88-.08l-.17-2.23c.94.1,2.09.14,3.05.14.79,0,1.63,0,2.47-.09a19.76,19.76,0,0,0,.7-4.11l2.64.27C943.1,193.28,942.76,194.62,942.4,196Zm6.53,6.72c0,.79.1,2.18.17,3.55a15.69,15.69,0,0,1,5,3l-1.27,2a18.7,18.7,0,0,0-3.61-2.68v.67c0,2-1.22,3.69-4.39,3.69-2.78,0-5-1.2-5-3.69,0-2.26,2-3.84,5-3.84a13.26,13.26,0,0,1,2,.17c-.07-1.9-.19-4.16-.24-5.74h2.35C948.88,200.89,948.91,201.73,948.93,202.69Zm-4.44,8.11c1.83,0,2.42-1,2.42-2.3,0-.22,0-.51,0-.82a8.46,8.46,0,0,0-2.23-.31c-1.59,0-2.67.72-2.67,1.7S942.86,210.8,944.49,210.8Zm3.34-13.37,1.22-1.85a41.94,41.94,0,0,1,5.76,3.22l-1.37,2A30.53,30.53,0,0,0,947.83,197.43Z"/><path class="cls-3" d="M963.45,193.76c1.25,0,6.72-.15,8-.27a7.6,7.6,0,0,0,1.54-.21l1.32,1.73a16.86,16.86,0,0,0-1.51,1c-1.23.91-4.18,3.41-5.88,4.8a9.88,9.88,0,0,1,2.88-.41c4,0,7,2.47,7,5.83,0,3.82-3,6.56-8.45,6.56-3.31,0-5.52-1.47-5.52-3.65,0-1.78,1.59-3.39,4-3.39a4.75,4.75,0,0,1,5,4.2,3.89,3.89,0,0,0,2.54-3.76c0-2.26-2.21-3.89-5.21-3.89-3.84,0-6.09,1.8-8.93,4.82l-1.75-1.77c1.87-1.54,4.87-4.06,6.29-5.24s4.13-3.41,5.33-4.46c-1.27,0-5.43.24-6.67.31-.6,0-1.23.07-1.78.14l-.07-2.47A17.9,17.9,0,0,0,963.45,193.76Zm4.46,16.9a13.23,13.23,0,0,0,1.71-.1c-.2-1.75-1.25-3-2.84-3A1.6,1.6,0,0,0,965,209C965,210,966.21,210.66,967.91,210.66Z"/><path class="cls-3" d="M986.47,207c0,1.71,1.68,2.91,5.35,2.91a30.72,30.72,0,0,0,8.3-1l0,2.64a34.61,34.61,0,0,1-8.24.84c-5.16,0-7.94-1.71-7.94-4.85a14.37,14.37,0,0,1,.48-3.38l2.47.21A8.46,8.46,0,0,0,986.47,207Zm5.44-12.17c2.33,0,4.93-.16,6.7-.33V197c-1.65.12-4.44.29-6.67.29-2.45,0-4.54-.12-6.46-.26v-2.5A54.31,54.31,0,0,0,991.91,194.81Z"/><path class="cls-3" d="M1014.05,199.66c2.11-1.27,4.49-2.45,5.74-3.14a14.2,14.2,0,0,0,1.92-1.27l1.32,2.18c-.63.39-1.3.74-2.07,1.13-1.58.82-4.77,2.3-7.05,3.79-2.11,1.39-3.46,2.91-3.46,4.66s1.8,3,5.38,3a36,36,0,0,0,7.75-.86l0,2.74a46.69,46.69,0,0,1-7.64.57c-4.63,0-8-1.32-8-5.16,0-2.54,1.64-4.51,4.08-6.24-1.1-2-2.3-4.73-3.43-7.3l2.38-1A55.77,55.77,0,0,0,1014.05,199.66Z"/><path class="cls-3" d="M1038.4,194.57c-.15.75-.36,1.9-.58,3,1-.1,1.87-.15,2.42-.15,2.31,0,4.08.94,4.08,4.3,0,2.83-.36,6.7-1.36,8.71a3.59,3.59,0,0,1-3.7,2.12,13.47,13.47,0,0,1-2.86-.36l-.4-2.5a12.54,12.54,0,0,0,3,.48,1.94,1.94,0,0,0,2-1.13c.72-1.51,1-4.56,1-7,0-2.07-.93-2.43-2.45-2.43a21.42,21.42,0,0,0-2.18.15c-.89,3.52-2.59,9.07-5,12.91l-2.47-1c2.4-3.24,4.13-8.42,5-11.68l-2.62.31c-.6.07-1.73.21-2.37.33l-.25-2.59a22.64,22.64,0,0,0,2.33,0c.77,0,2.07-.12,3.41-.24a27,27,0,0,0,.58-5.16l2.81.29C1038.64,193.42,1038.52,194.05,1038.4,194.57Zm10.51.84-1.54.65a41.19,41.19,0,0,1,4,8.12L1049,205.3a28,28,0,0,0-4.18-8.78l2.23-1,.1.15a21.43,21.43,0,0,0-1.71-2.93l1.56-.65A36.78,36.78,0,0,1,1048.91,195.41Zm2.78-1-1.56.69a24,24,0,0,0-2-3.31l1.56-.65A36.24,36.24,0,0,1,1051.69,194.36Z"/><path class="cls-3" d="M1058.33,195.41c1.75-.16,6-.57,10.44-1,2.57-.21,5-.36,6.63-.4v2.42a22.49,22.49,0,0,0-4.68.34,8,8,0,0,0-5.31,7.22c0,4.37,4.08,5.83,8,6l-.86,2.57c-4.71-.24-9.63-2.76-9.63-8a9.64,9.64,0,0,1,4.08-7.8c-2.42.24-8,.81-10.7,1.39l-.24-2.62C1057,195.51,1057.85,195.46,1058.33,195.41Zm15.58,7-1.49.67a23.16,23.16,0,0,0-1.92-3.36l1.44-.62A33.63,33.63,0,0,1,1073.91,202.45Zm2.74-1.08-1.47.69a22.93,22.93,0,0,0-2-3.31l1.44-.65A36.81,36.81,0,0,1,1076.65,201.37Z"/><path class="cls-3" d="M1090.3,192.56l2.56-.29a22.21,22.21,0,0,0,.51,2.71,25.52,25.52,0,0,0,4.85-1.08l.31,2.19a33.2,33.2,0,0,1-4.61.93c.17.51.31,1,.48,1.42s.31.84.48,1.3a27.18,27.18,0,0,0,4.7-1L1100,201a39.48,39.48,0,0,1-4.15.8,23.11,23.11,0,0,0,1.48,2.61,6.22,6.22,0,0,0,1,1.13l-1.2,1.78a51.64,51.64,0,0,0-5.43-.75l.2-1.82,3.33.33a25.35,25.35,0,0,1-1.63-3,76.58,76.58,0,0,1-10.51,0l-.12-2.23a55.61,55.61,0,0,0,9.74.14c-.14-.36-.29-.72-.41-1-.21-.63-.38-1.18-.55-1.69a56.53,56.53,0,0,1-8.18-.19l-.15-2.18a49.13,49.13,0,0,0,7.73.31l-.07-.22C1090.82,194.17,1090.58,193.35,1090.3,192.56Zm-4.42,15.26c0,1.9,1.73,2.79,5.23,2.79a28.37,28.37,0,0,0,5.86-.53l-.12,2.42a37.11,37.11,0,0,1-5.71.44c-4.76,0-7.54-1.42-7.59-4.66a7.32,7.32,0,0,1,1-3.6l2.35.46A4.61,4.61,0,0,0,1085.88,207.82Z"/><path class="cls-3" d="M1110.6,193.76c1.25,0,6.72-.15,8-.27a7.46,7.46,0,0,0,1.53-.21l1.32,1.73a16.86,16.86,0,0,0-1.51,1c-1.22.91-4.18,3.41-5.88,4.8a9.88,9.88,0,0,1,2.88-.41c4,0,7,2.47,7,5.83,0,3.82-3,6.56-8.44,6.56-3.32,0-5.53-1.47-5.53-3.65,0-1.78,1.59-3.39,4-3.39a4.74,4.74,0,0,1,5,4.2,3.89,3.89,0,0,0,2.54-3.76c0-2.26-2.21-3.89-5.21-3.89-3.84,0-6.09,1.8-8.93,4.82l-1.75-1.77c1.87-1.54,4.88-4.06,6.29-5.24s4.13-3.41,5.33-4.46c-1.27,0-5.43.24-6.67.31-.6,0-1.23.07-1.78.14l-.07-2.47A17.9,17.9,0,0,0,1110.6,193.76Zm4.46,16.9a13.23,13.23,0,0,0,1.71-.1c-.19-1.75-1.25-3-2.83-3a1.6,1.6,0,0,0-1.76,1.37C1112.18,210,1113.36,210.66,1115.06,210.66Z"/><path class="cls-3" d="M1141.16,212.53l-1.41-2.26a15.23,15.23,0,0,0,2.13-.33c3.08-.7,5.81-3,5.81-6.82a6.39,6.39,0,0,0-5.81-6.7,46.61,46.61,0,0,1-1.44,6.75c-1.44,4.89-3.43,7.61-5.8,7.61s-4.57-2.64-4.57-6.65c0-5.38,4.71-10,10.73-10,5.76,0,9.41,4,9.41,9.05S1147,211.69,1141.16,212.53Zm-6.45-4.61c1.08,0,2.21-1.56,3.31-5.26a38.31,38.31,0,0,0,1.32-6.19,8,8,0,0,0-6.84,7.42C1132.5,206.65,1133.67,207.92,1134.71,207.92Z"/><path class="cls-3" d="M1164.23,194.45c-.15.75-.37,1.9-.58,3,1-.1,1.85-.15,2.4-.15,2.33,0,4.08.94,4.08,4.3,0,2.83-.36,6.7-1.37,8.71-.77,1.66-2,2.09-3.69,2.09a13.59,13.59,0,0,1-2.86-.33l-.39-2.5a12.47,12.47,0,0,0,2.93.48,1.88,1.88,0,0,0,2-1.15,19.52,19.52,0,0,0,1.08-7c0-2.07-.93-2.43-2.45-2.43-.5,0-1.29.05-2.2.15-.89,3.52-2.6,9.07-5,12.91l-2.48-1c2.4-3.24,4.13-8.42,5-11.68-1.11.12-2.09.24-2.64.31s-1.71.21-2.38.33l-.24-2.59c.82.05,1.51,0,2.33,0s2.06-.12,3.43-.24a26.08,26.08,0,0,0,.55-5.16l2.81.29C1164.44,193.3,1164.32,193.93,1164.23,194.45Zm12.91,9.51-2.38,1.1a28.64,28.64,0,0,0-4.15-8.88l2.23-1A41.47,41.47,0,0,1,1177.14,204Z"/><path class="cls-3" d="M1191.57,198.22c0-1.56-1.17-2.59-3.38-2.59a5.69,5.69,0,0,0-4.23,2l-1.58-1.46a7.92,7.92,0,0,1,6.12-2.86c3.41,0,5.76,1.68,5.76,4.63,0,3.58-5.52,4.18-5,7.68h-2.45C1186.15,201.75,1191.57,200.77,1191.57,198.22Zm-5.3,11.74a1.73,1.73,0,0,1,1.77-1.82,1.82,1.82,0,0,1,0,3.64A1.73,1.73,0,0,1,1186.27,210Z"/><path class="cls-4" d="M467.06,52.44c-.07,2.17-.14,4.27-.28,6.3h13.16a32.54,32.54,0,0,0,5.25-.49l6.09,2.94a29,29,0,0,0-.49,3.72c-.28,7.56-1.12,27.09-4.13,34.23-1.54,3.57-4.2,5.39-9,5.39-4,0-8.19-.28-11.55-.56L465,94.59a57.94,57.94,0,0,0,9.8,1c2.24,0,3.22-.77,4-2.45,2-4.41,2.94-18.41,2.94-26H465.94c-2.59,18.48-9.24,29.47-21.77,38.36l-8.12-6.58a41.71,41.71,0,0,0,9.17-6.86c6.51-6.44,10-14.28,11.55-24.92h-9.24c-2.38,0-6.23,0-9.24.28V58.25c2.94.28,6.58.49,9.24.49h10c.07-2,.14-4,.14-6.09a51.8,51.8,0,0,0-.49-6.44h10.29C467.27,47.82,467.13,50.76,467.06,52.44Z"/><path class="cls-4" d="M521,54V77.65c0,1.75.07,4.48.21,6.09H511c.07-1.33.35-4.06.35-6.16V54a49.7,49.7,0,0,0-.28-5.39h10.08C521,50.2,521,51.74,521,54ZM553.39,55V68.9c0,15-2.94,21.56-8.12,27.3-4.62,5-11.9,8.47-17,10.08L521,98.58c6.93-1.61,12.61-4.27,16.81-8.82,4.83-5.25,5.74-10.5,5.74-21.42V55a49.38,49.38,0,0,0-.42-7h10.57C553.53,50,553.39,52.23,553.39,55Z"/><path class="cls-4" d="M590.09,47.05,600,45.44c.21,1.4.42,3.78.77,5.46.14,1,.56,3.29,1.12,6.44,5.95-1,11.27-1.82,13.79-2.31,2.24-.42,4.9-1,6.58-1.47l1.68,9.18c-1.54.14-4.34.56-6.44.84-2.87.49-8.19,1.33-14,2.24.7,3.5,1.4,7.35,2.17,11.2,6.3-1,12-2,15.19-2.66,2.73-.56,5.32-1.12,7.14-1.68l1.89,9.24c-1.89.14-4.76.63-7.42,1-3.36.56-9,1.47-15.19,2.45,1.12,5.74,2.1,10.43,2.52,12.6s1.19,4.62,1.82,6.86L601.5,106.7c-.35-2.59-.56-5-1-7.07s-1.26-6.86-2.38-12.74c-7.14,1.19-13.72,2.31-16.74,2.87s-5.39,1-7,1.47l-2-9.38c1.89-.07,5-.49,7.28-.77,3.22-.42,9.74-1.47,16.81-2.59-.7-3.78-1.47-7.7-2.1-11.27-6.16,1-11.56,1.89-13.73,2.24s-4.06.84-6.44,1.47l-1.89-9.67c2.24-.07,4.34-.21,6.51-.49,2.45-.28,7.85-1.05,13.87-2-.56-2.94-1-5.25-1.26-6.37C591.07,50.34,590.58,48.73,590.09,47.05Z"/><path class="cls-4" d="M685.39,71.91C684.83,76,683,88.08,682,94.73h4.48c1.82,0,5-.07,6.86-.28v9c-1.4-.07-4.83-.21-6.72-.21H649.75c-2.52,0-4.27.07-6.93.21v-9.1a67.25,67.25,0,0,0,6.93.35h22.68c1-6,2.53-15.89,2.74-19.81H656.26c-2.24,0-5,.21-7,.35V66c1.82.21,5,.42,6.93.42h17.93c1.47,0,4.34-.28,5.18-.77L686.09,69A19.51,19.51,0,0,0,685.39,71.91Z"/><path class="cls-4" d="M760.39,71.91c-2.1,6.79-5.11,13.58-10.36,19.39a52.42,52.42,0,0,1-25,15.12l-6.93-7.91c10.5-2.17,18.9-6.79,24.22-12.25a30.37,30.37,0,0,0,7.21-12.11H715.73c-1.68,0-5.18.07-8.12.35V65.4c2.94.21,5.95.42,8.12.42h34.65a14.77,14.77,0,0,0,5.11-.7L761.72,69A25.93,25.93,0,0,0,760.39,71.91ZM721.33,49h26.95a66,66,0,0,0,7.56-.35v9c-1.89-.14-5.18-.21-7.7-.21H721.33c-2.24,0-5.25.07-7.28.21v-9A59,59,0,0,0,721.33,49Z"/><path class="cls-4" d="M801.61,57.34c-2.24,6.87-7.92,24.65-11.42,34,8.55-.84,18.49-2,25.56-2.8a84.61,84.61,0,0,0-7.35-12.81l8.75-3.57a215.29,215.29,0,0,1,15.33,29.12l-9.45,4.2c-.91-2.38-2-5.25-3.36-8.26-11.34,1.33-32.56,3.57-41.38,4.48-1.75.21-4.34.56-6.58.84L770.1,92.35c2.38,0,5.39,0,7.7-.07.56,0,1.26-.07,1.89-.07,4.06-10.36,10.08-29.54,12.11-36.83a50.94,50.94,0,0,0,1.68-8.12l11.14,2.31C803.71,51.67,802.66,54.26,801.61,57.34Z"/><polygon class="cls-3" points="499.22 26.97 501.67 26.97 501.67 8.18 513.1 8.18 513.1 5.73 501.67 5.73 501.67 2.45 499.22 2.45 499.22 5.73 488.58 5.73 488.58 8.18 499.22 8.18 499.22 26.97"/><polygon class="cls-3" points="432.17 9.92 432.17 2.45 429.72 2.45 429.72 26.97 432.17 26.97 432.17 12.63 445.41 18.8 451.38 18.8 451.38 16.35 445.95 16.35 432.17 9.92"/><rect class="cls-3" x="519.64" y="4.93" width="12.32" height="2.45"/><polygon class="cls-3" points="493.99 12.55 491.58 12.13 489.54 23.7 486.96 23.7 486.96 26.15 491.6 26.15 493.99 12.55"/><polygon class="cls-3" points="510.12 12.13 507.7 12.55 510.1 26.15 514.74 26.15 514.74 23.7 512.16 23.7 510.12 12.13"/><polygon class="cls-3" points="457.75 25.04 459.76 26.45 465.7 17.96 465.7 9 477.96 9 477.96 24.52 471.83 24.52 471.83 26.97 480.42 26.97 480.42 6.55 465.7 6.55 465.7 2.45 463.25 2.45 463.25 6.55 457.53 6.55 457.53 9 463.25 9 463.25 17.19 457.75 25.04"/><polygon class="cls-3" points="542.52 17.85 542.52 2.45 540.07 2.45 540.07 17.08 534.85 24.53 518.85 24.53 518.85 26.99 536.13 26.99 542.52 17.85"/><rect class="cls-3" x="481.23" y="0.82" width="2.45" height="2.45"/><rect class="cls-3" x="477.14" y="0.82" width="2.45" height="2.45"/><rect class="cls-3" x="446.9" y="3.28" width="2.45" height="2.45"/><rect class="cls-3" x="442.81" y="3.28" width="2.45" height="2.45"/><path class="cls-3" d="M509.85,4.9h4.9V0h-4.9Zm1.63-3.27h1.64V3.27h-1.64Z"/><rect class="cls-3" x="580.55" y="13.09" width="22.89" height="2.45"/><rect class="cls-3" x="641.85" y="3.28" width="22.07" height="2.45"/><polygon class="cls-3" points="641.03 14.72 654.93 14.72 654.93 19.34 651.29 24.53 641.85 24.53 641.85 26.98 652.57 26.98 657.38 20.11 657.38 14.72 665.55 14.72 665.55 12.27 641.03 12.27 641.03 14.72"/><polygon class="cls-3" points="830.65 10.8 830.65 7.36 834.75 7.36 834.75 4.91 830.65 4.91 830.65 0 828.2 0 828.2 4.91 824.11 4.91 824.11 7.36 828.2 7.36 828.2 8.9 823.54 20.07 825.8 21.02 828.2 15.27 828.2 28.61 830.65 28.61 830.65 14.44 833.6 17.66 835.4 16 830.65 10.8"/><rect class="cls-3" x="703.96" y="4.92" width="12.32" height="2.45"/><polygon class="cls-3" points="724.39 17.07 719.17 24.53 703.17 24.53 703.17 26.98 720.45 26.98 726.84 17.84 726.84 2.44 724.39 2.44 724.39 17.07"/><rect class="cls-3" x="782.85" y="11.29" width="2.45" height="18.16" transform="translate(112.3 425.21) rotate(-32.56)"/><polygon class="cls-3" points="676 16.36 673.72 16.36 673.72 18.81 676.65 18.81 684.15 14.48 684.15 27.82 686.6 27.82 686.6 13.06 692.23 9.81 694.98 9.81 694.98 7.36 691.58 7.36 676 16.36"/><polygon class="cls-3" points="547.86 5.73 570.74 5.73 570.74 12.67 558.64 19.66 554.37 12.26 550.3 12.26 550.3 14.71 552.96 14.71 560.79 28.29 562.91 27.06 559.87 21.78 573.19 14.09 573.19 3.28 547.86 3.28 547.86 5.73"/><polygon class="cls-3" points="617 2.45 614.65 1.72 611.08 13.09 609.16 13.09 609.16 15.54 612.88 15.54 614.94 9 629.59 9 629.59 18.45 625.33 24.52 613.24 24.52 613.24 26.98 626.61 26.98 632.04 19.22 632.04 9 635.3 9 635.3 6.55 615.71 6.55 617 2.45"/><polygon class="cls-3" points="789.78 7.37 777.52 7.37 777.52 0.82 775.07 0.82 775.07 7.37 762.81 7.37 762.81 9.82 774.05 9.82 763 27.13 765.07 28.45 776.96 9.82 789.78 9.82 789.78 7.37"/><polygon class="cls-3" points="851.08 2.47 844.53 2.47 844.53 0 842.08 0 842.08 2.47 835.53 2.47 835.53 4.92 851.08 4.92 851.08 2.47"/><polygon class="cls-3" points="735.8 9.82 732.57 9.82 732.57 12.27 737.07 12.27 741.65 5.73 754.65 5.73 754.65 16.09 748.74 24.52 736.65 24.52 736.65 26.98 750.02 26.98 757.1 16.86 757.1 3.28 740.38 3.28 735.8 9.82"/><rect class="cls-3" x="757.1" y="0.01" width="2.45" height="2.45"/><rect class="cls-3" x="753.01" y="0.01" width="2.45" height="2.45"/><polygon class="cls-3" points="818.38 1.12 816.01 0.49 814.83 4.91 808.71 4.91 807.52 0.49 805.15 1.12 806.17 4.91 800.88 4.91 799.69 0.49 797.32 1.12 798.34 4.91 793.88 4.91 793.88 10.64 796.33 10.64 796.33 7.36 819.2 7.36 819.2 10.64 821.65 10.64 821.65 4.91 817.37 4.91 818.38 1.12"/><rect class="cls-3" x="833.33" y="8.8" width="9.02" height="2.45" transform="translate(503.47 778.32) rotate(-67.17)"/><rect class="cls-3" x="847.18" y="5.51" width="2.45" height="9.02" transform="translate(62.57 329.94) rotate(-22.83)"/><polygon class="cls-3" points="848.33 14.11 846.4 12.6 843.12 16.79 839.84 12.6 837.91 14.11 841.56 18.79 835.13 27.03 837.06 28.54 843.12 20.78 849.18 28.54 851.12 27.03 844.68 18.79 848.33 14.11"/><polygon class="cls-3" points="809.39 16.96 815.95 13.17 815.95 10.63 798.77 10.63 798.77 13.09 811.19 13.09 806.94 15.54 806.94 17.99 793.88 17.99 793.88 20.44 806.94 20.44 806.94 26.16 801.24 26.16 801.24 28.61 809.39 28.61 809.39 20.44 821.65 20.44 821.65 17.99 809.39 17.99 809.39 16.96"/><rect class="cls-5" y="258.01" width="1266" height="220"/><rect class="cls-2" x="786.81" y="344" width="275" height="50"/><rect class="cls-2" x="179.61" y="397.68" width="620" height="50"/><path class="cls-3" d="M152.59,301.65a28.57,28.57,0,0,0-.36-4.48h4.92c-.12,1.32-.32,3-.32,4.48v6.24a128.87,128.87,0,0,1,16.91,6.4L172,318.61a111.13,111.13,0,0,0-15.15-6.2c0,5.52,0,11,0,12.36s.12,3.68.28,5.12h-4.88a42.39,42.39,0,0,0,.32-5.12Zm18.48,3.08-2.8,1.24a36.44,36.44,0,0,0-3.52-6.12l2.68-1.16A49.31,49.31,0,0,1,171.07,304.73Zm5.15-2.24-2.76,1.36a39.94,39.94,0,0,0-3.67-6l2.67-1.24A59.39,59.39,0,0,1,176.22,302.49Z"/><path class="cls-3" d="M201.77,300c0,1.36-.12,2.68-.2,3.92h8.64a18.19,18.19,0,0,0,2.76-.24l2.8,1.36c-.12.68-.24,1.52-.28,2-.12,4-.64,15.48-2.4,19.4-.84,1.84-2.2,2.72-4.64,2.72-2.16,0-4.48-.16-6.52-.28l-.47-4.2a45.5,45.5,0,0,0,5.79.48,2.11,2.11,0,0,0,2.28-1.36c1.36-2.8,1.88-11.84,1.88-16.16H201.17c-1.47,11.12-5.43,17.24-12.31,22.08l-3.68-3a21.35,21.35,0,0,0,4.6-3.36c3.88-3.64,6.32-8.48,7.32-15.72H191c-1.48,0-3.36,0-4.88.16v-4.2c1.52.16,3.32.28,4.88.28h6.44q.12-1.8.12-3.84a26.56,26.56,0,0,0-.28-3.48H202C201.89,297.53,201.82,299,201.77,300Zm13.92,1.76-2.64,1.12a48.11,48.11,0,0,0-3.2-5.52l2.6-1.08A58,58,0,0,1,215.69,301.73Zm4.6-1.72-2.6,1.12a37.47,37.47,0,0,0-3.28-5.48l2.56-1.08A49.6,49.6,0,0,1,220.29,300Z"/><path class="cls-3" d="M229.37,324.41l-3.44-2.36a41.52,41.52,0,0,0,7.56-10.4l3.56,1.72A59.77,59.77,0,0,1,229.37,324.41Zm16.44-24.52v3.68h10a26.61,26.61,0,0,0,3.56-.24v4.16c-1.16-.08-2.52-.08-3.52-.08H245.81v19c0,2.16-1.12,3.4-3.76,3.4a59.92,59.92,0,0,1-6-.28l-.36-4a27.31,27.31,0,0,0,4.56.44c1,0,1.48-.4,1.52-1.48V307.41H231.05c-1.24,0-2.52,0-3.6.12v-4.2a33.21,33.21,0,0,0,3.56.24h10.72v-3.72a17,17,0,0,0-.32-3.12h4.72A21.49,21.49,0,0,0,245.81,299.89Zm15,22.2-3.68,2.08a69.23,69.23,0,0,0-6.63-10.68l3.43-1.88A86,86,0,0,1,260.84,322.09Zm-4.08-28.44a4.48,4.48,0,1,1-4.47,4.48A4.51,4.51,0,0,1,256.76,293.65Zm0,6.88a2.4,2.4,0,1,0,0-4.8,2.4,2.4,0,0,0,0,4.8Z"/><path class="cls-3" d="M285.7,319.25a38.08,38.08,0,0,0,13.88-15.08l2.44,4.36A40.9,40.9,0,0,1,288,323a44.13,44.13,0,0,1-15.31,6L270,324.85A41.57,41.57,0,0,0,285.7,319.25Zm-1.36-12.8-3.16,3.24a87.48,87.48,0,0,0-10-8.48l2.91-3.12A83.94,83.94,0,0,1,284.34,306.45Z"/><path class="cls-3" d="M313.55,300.89c2.92-.28,10-1,17.4-1.6,4.28-.36,8.27-.6,11-.68v4a38.45,38.45,0,0,0-7.79.56c-5.32,1.6-8.84,7.32-8.84,12,0,7.28,6.8,9.72,13.39,10l-1.43,4.28c-7.84-.4-16-4.6-16-13.4a16,16,0,0,1,6.8-13c-4,.4-13.36,1.36-17.84,2.32l-.4-4.36C311.35,301.05,312.75,301,313.55,300.89Zm25.95,11.72L337,313.73a36.92,36.92,0,0,0-3.19-5.6l2.4-1A55.81,55.81,0,0,1,339.5,312.61Zm4.56-1.8L341.62,312a37.54,37.54,0,0,0-3.36-5.52l2.4-1.08A57.78,57.78,0,0,1,344.06,310.81Z"/><path class="cls-3" d="M358.9,300.29a105.75,105.75,0,0,0-2,15.84,26,26,0,0,0,.32,4.28c.56-1.64,1.44-3.64,2.08-5.12l2,1.56c-1.08,3-2.44,7.12-2.88,9.16a10.33,10.33,0,0,0-.2,1.84c0,.4.08,1,.12,1.48l-3.56.28a46.82,46.82,0,0,1-1.56-12.72c0-5.92,1.28-13.56,1.76-16.76.12-1,.28-2.28.32-3.32l4.36.4C359.46,297.93,359.06,299.57,358.9,300.29Zm20.19-1c0,1-.08,2.72-.12,4.56a61.87,61.87,0,0,0,6.64-.92v3.88c-2.08.32-4.32.6-6.64.76,0,4,.32,7.6.44,10.68a26.39,26.39,0,0,1,7.88,5.16l-2.16,3.36a38,38,0,0,0-5.56-4.44v.2c0,3.68-1.76,6.84-7.32,6.84-5.39,0-8.55-2.24-8.55-6.08,0-3.68,3.16-6.4,8.51-6.4a21.29,21.29,0,0,1,3.24.24c-.16-2.8-.32-6.24-.4-9.36-1.12,0-2.24.08-3.36.08-2.32,0-4.52-.12-6.83-.28l0-3.76a64.93,64.93,0,0,0,6.91.36c1.12,0,2.2,0,3.32-.08v-4.72a19.68,19.68,0,0,0-.24-2.56h4.52C379.21,297.65,379.13,298.53,379.09,299.33Zm-7.36,26.36c3,0,3.88-1.52,3.88-4v-1.08a12.89,12.89,0,0,0-3.72-.56c-2.68,0-4.55,1.16-4.55,2.88C367.34,324.77,369.17,325.69,371.73,325.69Z"/><path class="cls-3" d="M394.9,321.49l3.28-2.88a73.81,73.81,0,0,1,8.84,8.84l-3.4,2.88A73,73,0,0,0,394.9,321.49Z"/><path class="cls-3" d="M434.66,297.85c1.72,0,9.63-.36,12-.64a13.64,13.64,0,0,0,2.44-.44l2.52,2.92a25,25,0,0,0-2.56,1.8c-2.92,2.36-7.92,6.56-10.91,8.92,5.75-.6,12.71-1.12,18.07-1.12l0,3.76a64.5,64.5,0,0,0-10.24.12c-3.76.56-7.28,3.56-7.28,7.08,0,3.68,2.92,5,6.56,5.44a29.39,29.39,0,0,0,5.88.08l-.84,4.16c-9.95.4-15.55-2.64-15.55-9a9.29,9.29,0,0,1,3.88-7c-4,.32-9,.92-13.44,1.68l-.36-3.8c2.16-.2,4.92-.56,7-.8a151.39,151.39,0,0,0,12.35-10c-1.72.12-7.79.4-9.47.52-1,.08-2.28.24-3.32.32l-.2-4.08A31.79,31.79,0,0,0,434.66,297.85Z"/><path class="cls-3" d="M481.39,300.13c-1.84,2.8-5.15,8.76-7.15,12.48a8.79,8.79,0,0,1,5.31-1.92c2.84,0,4.68,1.8,4.84,5,.08,2.08,0,5.2.16,7a2.61,2.61,0,0,0,2.92,2.56c4,0,6.48-5,7.56-9.64l3.36,2.76c-2.08,6.64-5.6,11.16-11.56,11.16-4.36,0-6-2.68-6.16-5.28-.16-2.28-.12-5.44-.24-7.4a2.42,2.42,0,0,0-2.63-2.52c-3,0-5.68,3-7.2,6.24a73.39,73.39,0,0,0-3.28,9l-4.4-1.48c3-8.08,11.48-24.44,13.6-28.28a37.22,37.22,0,0,0,1.67-3.52l4.48,1.8C482.31,298.69,481.87,299.41,481.39,300.13Z"/><path class="cls-3" d="M520.24,301.81a38.25,38.25,0,0,0,5.88-1.36l.12,3.68a53.69,53.69,0,0,1-7.16,1.44,71.57,71.57,0,0,1-8.68,17l-3.83-2A60,60,0,0,0,515,306c-1,0-2,.08-2.91.08-1.53,0-3.2,0-4.8-.12l-.28-3.72c1.56.16,3.47.24,5.08.24,1.31,0,2.71,0,4.11-.16a32.64,32.64,0,0,0,1.16-6.84l4.4.44C521.4,297.33,520.84,299.57,520.24,301.81ZM531.12,313c0,1.32.16,3.64.28,5.92a26.07,26.07,0,0,1,8.28,5l-2.12,3.4a31.22,31.22,0,0,0-6-4.48V324c0,3.4-2,6.16-7.32,6.16-4.64,0-8.4-2-8.4-6.16,0-3.76,3.4-6.4,8.36-6.4a22.93,22.93,0,0,1,3.4.28c-.12-3.16-.32-6.92-.4-9.56h3.92C531,310,531.08,311.41,531.12,313Zm-7.4,13.52c3,0,4-1.68,4-3.84,0-.36,0-.84,0-1.36a13.93,13.93,0,0,0-3.72-.52c-2.64,0-4.44,1.2-4.44,2.84S521,326.53,523.72,326.53Zm5.56-22.28,2-3.08a70.81,70.81,0,0,1,9.6,5.36l-2.28,3.32A50.86,50.86,0,0,0,529.28,304.25Z"/><path class="cls-3" d="M558.05,321.05a50,50,0,0,1,5.48,5.2l-2.32,2.4a56.37,56.37,0,0,0-4.2-4.44,15.22,15.22,0,0,1-7,6.92,12.23,12.23,0,0,0-2.4-2.36c4.76-2.32,6.52-5.48,7.16-8.32H548v-3.12h2a15.91,15.91,0,0,0-2.6-1.8,20.52,20.52,0,0,0,4-7.92l3.2.68c-.24.84-.48,1.64-.76,2.44h9.8v3h-5.12v3.6h6v3.12h-6.32Zm-3.48-13.4c-4,0-4.92-.92-4.92-4.24v-8.8H553v4a47.1,47.1,0,0,0,8.12-2.84l2.4,2.44A63.89,63.89,0,0,1,553,301.45v1.92c0,1.08.32,1.24,2,1.24h5.24c1.24,0,1.48-.44,1.64-3.52a12.12,12.12,0,0,0,3,1.24c-.44,4.24-1.36,5.32-4.36,5.32Zm.52,9.68v-3.6h-2.64a18.5,18.5,0,0,1-2.28,3.6Zm20.72,9.84a13.62,13.62,0,0,0,3.63.4c.8,0,3.84,0,4.92,0a12.07,12.07,0,0,0-1,3.08H579.2c-4.51,0-8.27-1.12-10.83-6a17.12,17.12,0,0,1-3.4,6.64,19.9,19.9,0,0,0-2.84-2c3.4-3.32,4.2-8.76,4.4-15.52l3.28.12a62.67,62.67,0,0,1-.56,6.6,10.77,10.77,0,0,0,3.28,5.16V311.29h-7.64v-3.08h11.92a55.66,55.66,0,0,0-9.64-5.6l2.12-2.24c1.32.56,2.76,1.2,4.2,2a26.65,26.65,0,0,0,4.43-3.8H565.53v-2.92h15l.68-.2,2.24,1.44a30.1,30.1,0,0,1-7,7.12,28.33,28.33,0,0,1,3.24,2.16l-1.92,2.08h3.56l.56-.12,2.28.6a48.43,48.43,0,0,1-2.68,7.24l-2.72-.84a28.7,28.7,0,0,0,1.4-3.8h-4.35v6.2h6.87v3.08h-6.87Z"/><path class="cls-3" d="M596.61,310.25v20.8h-3.68V295.93h14.72v14.32Zm0-11.36v2.8h7.52v-2.8Zm7.52,8.44v-3h-7.52v3Zm.92,18.12v2.32h-3.44V313.45h15.08v12Zm0-8.88v5.8h8.16v-5.8Zm20.83,9.76c0,2.24-.52,3.4-2,4s-3.83.64-7.43.64a12.92,12.92,0,0,0-1.28-3.8c2.52.12,5.11.08,5.91.08s1-.28,1-1v-16H610.81V295.93h15.07Zm-11.51-27.48v2.84h7.71v-2.84Zm7.71,8.52v-3h-7.71v3Z"/><path class="cls-3" d="M649.55,300.37a92.22,92.22,0,0,0,11.76-1.16v3.72a123.59,123.59,0,0,1-13.16,1,32.1,32.1,0,0,1-3.08,5.28,11.75,11.75,0,0,1,5.12-1.2c2.52,0,4.6,1.16,5.36,3.4,2.48-1.16,4.52-2,6.39-2.88,1.36-.6,2.52-1.12,3.8-1.76l1.64,3.68c-1.16.36-2.88,1-4.08,1.48-2,.8-4.63,1.84-7.43,3.12,0,2.28.08,5.48.12,7.4h-3.8c.08-1.4.12-3.68.16-5.64-3.44,1.88-5.6,3.72-5.6,6.08,0,2.72,2.6,3.28,6.64,3.28a68,68,0,0,0,11.11-1l-.12,4a101.67,101.67,0,0,1-11.11.72c-6,0-10.6-1.4-10.6-6.36s4.8-8,9.44-10.4a3.22,3.22,0,0,0-3.28-2,10.2,10.2,0,0,0-6.64,2.88,43.5,43.5,0,0,0-3.64,4.28l-3.44-2.56a40.19,40.19,0,0,0,9-11.68H643c-1.68,0-4.44-.08-6.68-.24v-3.76a51.7,51.7,0,0,0,6.88.44c.76,0,1.56,0,2.36,0a19.92,19.92,0,0,0,.92-4.76l4.16.32C650.39,297.17,650.07,298.65,649.55,300.37Z"/><path class="cls-3" d="M702.48,299.41c-.8,4.68-2.64,8.36-7.56,10.56a10.16,10.16,0,0,0-1.76-2.32v19.56c0,1.6-.32,2.64-1.4,3.2s-2.72.56-5.32.56a11.82,11.82,0,0,0-1.16-3.12c1.92,0,3.6,0,4.08,0s.72-.2.72-.72v-6.52H681.2c-.36,3.72-1.2,7.56-3.07,10.44a14.65,14.65,0,0,0-2.64-1.64c2.68-4.2,3-10.08,3-14.56v-6.36l-.36.44a25.08,25.08,0,0,0-2.72-2.2c2.76-3,4.88-7.64,6-12.48l3.4.76c-.28,1-.56,1.92-.88,2.88h4.2l.52-.16,2.16,1.36a51.35,51.35,0,0,1-2.4,5.28h4.76v2.88c3.8-1.68,5.24-4.48,5.88-7.88h-5v-3.08h17.4s0,.88,0,1.28c-.28,6.48-.64,9.16-1.48,10.12a3,3,0,0,1-2.28,1.12,25.74,25.74,0,0,1-4,0,9,9,0,0,0-.84-3.08A28.52,28.52,0,0,0,706,306a1.08,1.08,0,0,0,1.08-.36c.44-.48.72-2.12.92-6.2Zm-19.68,1.4c-.52,1.24-1.08,2.48-1.67,3.6h4.07a33.66,33.66,0,0,0,1.48-3.6Zm-1.36,14.12c0,.92,0,1.88,0,2.88h3.08v-4h-3Zm0-3.92h3v-3.8h-3Zm5.64,0h3v-3.8h-3Zm3,6.8v-4h-3v4Zm22.48,6h-7.28v7h-3.52v-7h-7.92v-3.24h7.92v-4.32h-3.92a19.71,19.71,0,0,1-1.88,3.56,17,17,0,0,0-2.8-1.48,22.66,22.66,0,0,0,3.44-8.8l3.08.64q-.3,1.44-.72,2.88h2.8v-3.84h3.52v3.84h6.52v3.2h-6.52v4.32h7.28Z"/><path class="cls-3" d="M726.06,312.29a30.59,30.59,0,0,0-7.24-4.24l2-2.8a34.22,34.22,0,0,1,7.36,3.88Zm3.64,5.4c-1.92,4.2-4.36,9-6.52,12.8l-3.2-2.36a121.1,121.1,0,0,0,6.88-12.8Zm-1.6-16a30.8,30.8,0,0,0-7.08-4.44l2-2.68a29.32,29.32,0,0,1,7.2,4.12Zm17.08,14c1.88,5.64,5.48,10,10.84,12.12a13.82,13.82,0,0,0-2.6,3.24c-5.56-2.56-9.2-7.32-11.44-13.68-1.24,5.24-4.24,10.08-11.08,13.68a15.94,15.94,0,0,0-3-2.64c6.76-3.44,9.52-7.88,10.64-12.72h-8.72v-3.48h9.24c.12-1.44.16-2.88.16-4.32v-3.92H731.9v-3.48h7.32v-6.2h3.68v6.2h9.6v11.72h3.16v3.48ZM742.9,308c0,1.44,0,2.84-.12,4.28h6.08v-8.24h-6Z"/><path class="cls-3" d="M771.36,301.09c-.2,4.44-.48,13.68-.48,19.2,0,4.24,2.6,5.68,6.08,5.68,7,0,11.2-4,14.08-8.24l2.84,3.48a20.31,20.31,0,0,1-17,9c-6.08,0-10.16-2.6-10.16-9.24,0-5.68.4-16,.4-19.84a23.15,23.15,0,0,0-.44-4.64l5.12,0A36.48,36.48,0,0,0,771.36,301.09Z"/><path class="cls-3" d="M803.53,321.49l3.28-2.88a74.46,74.46,0,0,1,8.83,8.84l-3.4,2.88A73,73,0,0,0,803.53,321.49Z"/><path class="cls-3" d="M853.48,314.05a38.84,38.84,0,0,0,14.76,11.8,20.91,20.91,0,0,0-2.72,3.2,43,43,0,0,1-14-12v14h-3.92v-13.8A43.62,43.62,0,0,1,833.73,329a25.25,25.25,0,0,0-2.72-3.16,38.71,38.71,0,0,0,14.67-11.8H832.17v-3.68h15.47v-6.08H835.05v-3.68h12.59v-6.28h3.92v6.28h12.92v3.68H851.56v6.08h15.72v3.68Z"/><path class="cls-3" d="M880.93,317.77a37,37,0,0,1-2.68,10.2,15.63,15.63,0,0,0-2.84-1.4,30.23,30.23,0,0,0,2.36-9.36Zm4.47-3.12v16.44h-3.31V314.85c-2.2.12-4.24.24-6,.36l-.32-3.28,2.8-.08c.72-1,1.52-2,2.28-3.16a37.73,37.73,0,0,0-5-5.6l1.8-2.44c.36.28.72.6,1.08.92a45.15,45.15,0,0,0,3.27-7.24l3.28,1.28c-1.4,2.68-3.07,5.76-4.51,8a28.65,28.65,0,0,1,1.91,2.2c1.44-2.36,2.8-4.8,3.8-6.84l3.08,1.4c-2.24,3.64-5.12,8-7.72,11.36,1.6,0,3.28-.12,5-.24-.52-1.12-1.08-2.24-1.64-3.24l2.52-1a31,31,0,0,1,3.64,8.28l-2.72,1.2a15.62,15.62,0,0,0-.64-2.16Zm3.44,2.24a46.21,46.21,0,0,1,2.52,7.24l-2.84,1a42.78,42.78,0,0,0-2.36-7.32Zm22.36-19.68a24.86,24.86,0,0,1-6.8,10.44,27.93,27.93,0,0,0,8.8,3.48,13.76,13.76,0,0,0-2.24,3.08,29.6,29.6,0,0,1-9.44-4.32,35.49,35.49,0,0,1-9.36,4.48,13.69,13.69,0,0,0-2.08-3.12,31.56,31.56,0,0,0,8.56-3.72,24.72,24.72,0,0,1-5.24-7.32l2.2-.72h-4.48v-3.2H908l.72-.16Zm-7.72,29.4h9.24v3.28h-22.6v-3.28h9.68v-5.76h-7.2v-3.28h7.2v-5.28h3.68v5.28H911v3.28h-7.48Zm-6.64-27.12a19.41,19.41,0,0,0,4.6,6,21.43,21.43,0,0,0,4.76-6Z"/><path class="cls-3" d="M920.08,327.73c1.4-2,1.88-5.4,2-8.8l2.12.44c-.16,3.56-.6,7.28-2.16,9.44ZM949.71,320a14.93,14.93,0,0,0,7.92,8.08,14,14,0,0,0-2.36,2.92,16.83,16.83,0,0,1-8-9c-1.36,3.4-4,6.6-9.2,9.08a10.12,10.12,0,0,0-2.07-2.48,3.21,3.21,0,0,1-.56,1.12,2.89,2.89,0,0,1-2.2,1.16,23.8,23.8,0,0,1-3.52.08,7.45,7.45,0,0,0-.84-2.92c1.24.12,2.32.12,2.84.12a1.1,1.1,0,0,0,1-.48c.36-.44.64-1.64.88-4.24l-1.36.52a22.72,22.72,0,0,0-2-5.2l1.6-.52a24.77,24.77,0,0,1,1.8,4.12c.12-1.48.24-3.28.32-5.56H922.4V295.89h14.31V299h-4.79v2.88h4v2.44a26.14,26.14,0,0,0,9.11-10h3.28a27.47,27.47,0,0,0,9.6,9.36,19.23,19.23,0,0,0-1.88,3.2,26.83,26.83,0,0,1-2.92-2.12v2.32h-4.48v2.76h7.32V320Zm-23-.48a36.07,36.07,0,0,1,.56,7.24l-1.88.28a39.2,39.2,0,0,0-.44-7.32ZM925.52,299v2.88h3.36V299Zm0,5.8v3h3.36v-3Zm0,9.08h3.36v-3.12h-3.36Zm3.6,12a32.63,32.63,0,0,0-1.36-6.44l1.68-.32a27.79,27.79,0,0,1,1.48,6.36Zm8.15-12s0,1,0,1.36c-.31,7.36-.64,11.24-1.19,13.2,4.87-2.32,7.23-5.32,8.31-8.44h-6.16V309.85h7.08v-2.76h-4.44v-2.28a23.22,23.22,0,0,1-3.28,2.44,16,16,0,0,0-1.67-2.84v.36h-4v3h4v2.92h-4v3.12Zm7.76,3.32a24,24,0,0,0,.24-3.76v-.76h-4v4.52Zm7.36-13a29.49,29.49,0,0,1-5.64-6.56,27.32,27.32,0,0,1-5.2,6.56Zm-3.8,8.48v.8a29,29,0,0,1-.2,3.72h4.32v-4.52Z"/><path class="cls-3" d="M980,299.29c-.24,1.24-.6,3.16-1,5,1.64-.16,3.07-.24,4-.24,3.88,0,6.8,1.56,6.8,7.16,0,4.72-.6,11.16-2.28,14.52-1.28,2.76-3.36,3.48-6.15,3.48a22.49,22.49,0,0,1-4.76-.56l-.64-4.16a20.83,20.83,0,0,0,4.88.8,3.12,3.12,0,0,0,3.27-1.92c1.2-2.48,1.8-7.56,1.8-11.72,0-3.44-1.56-4-4.07-4-.84,0-2.16.08-3.68.24-1.48,5.88-4.32,15.12-8.28,21.52l-4.12-1.64c4-5.4,6.88-14,8.32-19.48-1.84.2-3.48.4-4.4.52s-2.84.36-4,.56l-.4-4.32c1.36.08,2.52,0,3.88,0s3.44-.2,5.72-.4a44.71,44.71,0,0,0,.92-8.6l4.68.48C980.36,297.37,980.16,298.41,980,299.29Zm21.51,15.84-4,1.84c-1.12-4.24-4.12-11.4-6.92-14.8l3.72-1.6C996.83,303.89,1000.23,311.37,1001.51,315.13Z"/><path class="cls-3" d="M1015.56,314.21a19.25,19.25,0,0,1,12.47-4.44c6.52,0,10.6,4,10.6,8.72,0,7.2-6.08,12.4-21.71,11.08l-1.2-4.12c12.35,1.56,18.59-1.76,18.59-7,0-3-2.76-5.08-6.6-5.08a15,15,0,0,0-11.79,5.08,8.14,8.14,0,0,0-1.36,2.12l-3.68-.88a150,150,0,0,0,2-16.44l4.24.56C1016.6,306.29,1015.92,311.77,1015.56,314.21Zm17.67-15-.92,3.88c-3.92-.52-12.71-2.36-15.79-3.16l1-3.8A117.09,117.09,0,0,0,1033.23,299.25Z"/><path class="cls-3" d="M1049.4,300.89c2.92-.28,10-1,17.4-1.6,4.28-.36,8.28-.6,11-.68v4a38.55,38.55,0,0,0-7.8.56c-5.32,1.6-8.84,7.32-8.84,12,0,7.28,6.8,9.72,13.4,10l-1.44,4.28c-7.84-.4-16-4.6-16-13.4a16,16,0,0,1,6.8-13c-4,.4-13.36,1.36-17.84,2.32l-.4-4.36C1047.2,301.05,1048.6,301,1049.4,300.89Zm26,11.72-2.48,1.12a37.83,37.83,0,0,0-3.2-5.6l2.4-1A55.84,55.84,0,0,1,1075.36,312.61Zm4.56-1.8-2.44,1.16a37.54,37.54,0,0,0-3.36-5.52l2.4-1.08A57.78,57.78,0,0,1,1079.92,310.81Z"/><path class="cls-3" d="M1102.81,299.33c-.12.88-.28,2.12-.48,3.64a53.44,53.44,0,0,0,7.76-.52l-.12,3.76a76.93,76.93,0,0,1-8,.4h-.08c-.28,2.08-.56,4.36-.8,6.44h.56a63.88,63.88,0,0,0,8.2-.48l-.12,3.76c-2.44.24-4.88.4-7.48.4h-1.52c-.12,1.4-.2,2.64-.2,3.48,0,3.64,2.12,5.76,6.4,5.76,5.84,0,9.35-2.6,9.35-6.36,0-2.72-1.43-5.52-4.23-8l4.43-.92c2.68,3.16,4,6,4,9.4,0,6-5.35,9.92-13.63,9.92-5.8,0-10.24-2.52-10.24-9.16,0-1,.12-2.56.28-4.36a43.74,43.74,0,0,1-8-1.36l.2-3.84a33.83,33.83,0,0,0,8.2,1.6c.28-2.12.56-4.36.84-6.48a50.79,50.79,0,0,1-8.32-1.4l.2-3.68a38.92,38.92,0,0,0,8.52,1.52c.2-1.44.32-2.72.4-3.76a16.94,16.94,0,0,0,0-3.16l4.48.24C1103.13,297.41,1103,298.37,1102.81,299.33Z"/><path class="cls-3" d="M227.83,356.09c-.2,4.44-.48,13.68-.48,19.2,0,4.24,2.6,5.68,6.08,5.68,7,0,11.2-4,14.08-8.24l2.84,3.48a20.31,20.31,0,0,1-17,9c-6.08,0-10.16-2.6-10.16-9.24,0-5.68.4-16,.4-19.84a23.15,23.15,0,0,0-.44-4.64l5.12,0A36.48,36.48,0,0,0,227.83,356.09Z"/><path class="cls-3" d="M262,365.49c2.76-.88,9.44-3.2,14.2-3.2,6,0,10.12,3.52,10.12,9.24,0,7.52-7,11.88-18.56,12.6l-1.68-3.88c8.88-.28,16.12-2.72,16.12-8.76,0-3.24-2.52-5.56-6.32-5.56-4.84,0-13.24,3.48-16.16,4.72L258,366.49C259.18,366.29,260.74,365.85,262,365.49Z"/><path class="cls-3" d="M309.4,354.29c-.24,1.24-.6,3.16-1,5,1.64-.16,3.08-.24,4-.24,3.88,0,6.8,1.56,6.8,7.16,0,4.72-.6,11.16-2.28,14.52-1.28,2.76-3.36,3.48-6.16,3.48a22.49,22.49,0,0,1-4.76-.56l-.64-4.16a20.83,20.83,0,0,0,4.88.8,3.13,3.13,0,0,0,3.28-1.92c1.2-2.48,1.8-7.56,1.8-11.72,0-3.44-1.56-4-4.08-4-.84,0-2.16.08-3.68.24-1.48,5.88-4.32,15.12-8.28,21.52l-4.12-1.64c4-5.4,6.88-14,8.32-19.48-1.84.2-3.48.4-4.4.52s-2.84.36-4,.56l-.4-4.32c1.36.08,2.52,0,3.88,0s3.44-.2,5.72-.4a44.71,44.71,0,0,0,.92-8.6l4.68.48C309.76,352.37,309.56,353.41,309.4,354.29Zm21.51,15.84L327,372c-1.11-4.24-4.11-11.4-6.91-14.8l3.72-1.6C326.23,358.89,329.63,366.37,330.91,370.13Z"/><path class="cls-3" d="M345.38,361c1.76-3.64,5.6-7.92,10.44-7.92,5.44,0,9.48,5.36,9.48,14,0,11.16-7,16.28-17.16,18.16l-2.4-3.64c8.76-1.36,15.32-4.6,15.32-14.52,0-6.24-2.12-10.32-5.92-10.32-4.88,0-9.32,7.2-9.68,12.48a18.52,18.52,0,0,0,.16,4.6l-3.92.28a50.28,50.28,0,0,1-.44-6.48,105.54,105.54,0,0,1,1.16-12.88,34.74,34.74,0,0,0,.32-3.8l4.36.2A77.42,77.42,0,0,0,345.38,361Z"/><path class="cls-3" d="M388.43,363c3.52-2.12,7.48-4.08,9.56-5.24a22.18,22.18,0,0,0,3.2-2.12l2.2,3.64c-1,.64-2.16,1.24-3.44,1.88-2.64,1.36-8,3.84-11.76,6.32-3.52,2.32-5.76,4.84-5.76,7.76,0,3.12,3,5,9,5a59.59,59.59,0,0,0,12.92-1.44l0,4.56a76.37,76.37,0,0,1-12.72,1c-7.72,0-13.4-2.2-13.4-8.6,0-4.24,2.72-7.52,6.8-10.4-1.84-3.36-3.84-7.88-5.72-12.16l4-1.64A93.46,93.46,0,0,0,388.43,363Z"/><path class="cls-3" d="M424.13,349.53h3.6V386h-3.6V375.69c-3.44,1-6.95,1.92-9.79,2.68l-.84-3.76c.84-.2,1.8-.4,2.84-.68v-20h3.48v19.16l4.31-1.08Zm25.24,3.28c-1.2,9.16-3.76,16.52-7.4,22.24a24.37,24.37,0,0,0,9,7.76,14.63,14.63,0,0,0-2.64,3.2,27.7,27.7,0,0,1-8.76-7.64,32,32,0,0,1-8.88,7.6,13.24,13.24,0,0,0-2.6-3.2,27.23,27.23,0,0,0,9.2-7.92,59.71,59.71,0,0,1-6.24-18.08l3.52-.64a52.82,52.82,0,0,0,5.08,15.16,47.89,47.89,0,0,0,5.48-15.4h-15.8v-3.68h16.88l.68-.12Z"/><path class="cls-3" d="M479.17,351.65c0,7.24.92,22.08,16.16,31.08a18.79,18.79,0,0,0-3,3.16c-9.08-5.48-13.36-13.64-15.32-21-3,9.64-8,16.64-15.35,21.08a28.45,28.45,0,0,0-3.44-3c8.59-4.44,13.43-12.32,15.75-23.16l2,.36a44.2,44.2,0,0,1-.52-4.76H466v-3.76Z"/><path class="cls-3" d="M513.46,355.37a92.22,92.22,0,0,0,11.76-1.16v3.72a123.59,123.59,0,0,1-13.16,1,32.1,32.1,0,0,1-3.08,5.28,11.75,11.75,0,0,1,5.12-1.2c2.52,0,4.6,1.16,5.36,3.4,2.48-1.16,4.52-2,6.4-2.88,1.35-.6,2.51-1.12,3.79-1.76l1.64,3.68c-1.16.36-2.88,1-4.08,1.48-2,.8-4.63,1.84-7.43,3.12,0,2.28.08,5.48.12,7.4h-3.8c.08-1.4.12-3.68.16-5.64-3.44,1.88-5.6,3.72-5.6,6.08,0,2.72,2.6,3.28,6.64,3.28a67.89,67.89,0,0,0,11.11-1l-.11,4a101.86,101.86,0,0,1-11.12.72c-6,0-10.6-1.4-10.6-6.36s4.8-8,9.44-10.4a3.22,3.22,0,0,0-3.28-2,10.2,10.2,0,0,0-6.64,2.88,43.5,43.5,0,0,0-3.64,4.28L499,370.77a40.19,40.19,0,0,0,9-11.68H506.9c-1.68,0-4.44-.08-6.68-.24v-3.76a51.7,51.7,0,0,0,6.88.44c.76,0,1.56,0,2.36,0a19.92,19.92,0,0,0,.92-4.76l4.16.32C514.3,352.17,514,353.65,513.46,355.37Z"/><path class="cls-3" d="M551.68,359.45a45.18,45.18,0,0,1-3.36,5V386h-3.6V368.53a41.22,41.22,0,0,1-4.2,3.88,27.45,27.45,0,0,0-1.88-3.76,36.74,36.74,0,0,0,9.76-10.52Zm-.56-8.6a40.19,40.19,0,0,1-10,9.64,20.75,20.75,0,0,0-1.92-3.08,29.41,29.41,0,0,0,8.32-8Zm24.56,24.56H570v6.76c0,1.84-.36,2.76-1.68,3.28s-3.24.6-6.08.6a15.36,15.36,0,0,0-1.2-3.36c2,.08,3.92.08,4.48,0s.76-.16.76-.64v-6.68h-15.4v-3.2h15.4v-2.92H551.8v-3.08h23.12v3.08h-5v2.92h5.72Zm-19.12.24a35,35,0,0,1,4.92,5.4l-2.8,2a35.32,35.32,0,0,0-4.76-5.64Zm16.76-11.72H554v-13.4h19.28Zm-3.76-10.68H557.64v2.68h11.92Zm0,5.24H557.64v2.68h11.92Z"/><path class="cls-3" d="M586.65,355.69c2.92-.28,10-1,17.39-1.56,4.28-.36,8.28-.6,11-.72v4a35.68,35.68,0,0,0-7.76.6c-5.32,1.6-8.88,7.28-8.88,12,0,7.28,6.8,9.72,13.44,10l-1.48,4.24c-7.84-.36-16-4.56-16-13.4a16.1,16.1,0,0,1,6.79-13c-4,.44-13.35,1.4-17.79,2.36l-.44-4.4C584.49,355.85,585.89,355.77,586.65,355.69Z"/><path class="cls-3" d="M654.2,354.65v31.28h-3.92v-2H630.05v2.16h-3.72V354.65h10.08a43.48,43.48,0,0,0,1.32-5.36l4.43.52c-.64,1.68-1.28,3.4-1.95,4.84Zm-24.15,3.56v5.12h20.23v-5.12Zm0,8.56v5.12h20.23v-5.12Zm20.23,13.72v-5.16H630.05v5.16Z"/><path class="cls-3" d="M699.71,380.69v3.72H664v-3.72h20A118.09,118.09,0,0,0,689,362l4.23.8a160,160,0,0,1-5.35,17.88Zm-1.2-20.28H665.28v-3.68h14.48v-7.4h3.88v7.4h14.87Zm-24.43,18.64a61.31,61.31,0,0,0-3.56-15.88l3.52-1a61.79,61.79,0,0,1,3.84,15.84Z"/><path class="cls-3" d="M715.28,356.09c-.2,4.44-.48,13.68-.48,19.2,0,4.24,2.6,5.68,6.08,5.68,7,0,11.2-4,14.08-8.24l2.84,3.48a20.31,20.31,0,0,1-17,9c-6.08,0-10.16-2.6-10.16-9.24,0-5.68.4-16,.4-19.84a23.15,23.15,0,0,0-.44-4.64l5.12,0A36.48,36.48,0,0,0,715.28,356.09Z"/><path class="cls-3" d="M759.35,354.65c-.12.68-.28,1.48-.48,2.36a70.51,70.51,0,0,0,7.23-1.4v4a71.49,71.49,0,0,1-8,1.36c-.4,1.72-.84,3.56-1.28,5.24a120.83,120.83,0,0,1-6.32,18.4l-4.36-1.48c2.36-4.08,5.28-12.32,6.8-17.92.32-1.24.64-2.56,1-3.88-1.16,0-2.24.08-3.24.08-1.84,0-3.32,0-4.76-.16l-.08-3.92a37.69,37.69,0,0,0,4.88.32c1.24,0,2.6,0,4-.16.2-1.2.4-2.24.48-3a16.36,16.36,0,0,0,.16-3.6l4.8.36C759.87,352.21,759.51,353.85,759.35,354.65Zm4.79,22.08c0,1.8,1.08,3.44,6.2,3.44a45.2,45.2,0,0,0,8-.8l-.12,4a61.76,61.76,0,0,1-7.92.56c-6.52,0-10-2.12-10-6.08a24.15,24.15,0,0,1,.67-5l3.72.36A14.68,14.68,0,0,0,764.14,376.73Zm6.6-13.72a67.8,67.8,0,0,1,7,.32l-.12,3.84a50.55,50.55,0,0,0-6.8-.52,67.32,67.32,0,0,0-7.56.44v-3.72C765.42,363.17,768.18,363,770.74,363Z"/><path class="cls-3" d="M836.7,358s0,1.56,0,2.12c-.36,16.36-.68,22.16-2,24a4.46,4.46,0,0,1-3.16,2,26.83,26.83,0,0,1-5,.16,11.14,11.14,0,0,0-1.4-4.56c1.76.16,3.28.2,4,.2a1.45,1.45,0,0,0,1.36-.68c.84-1.08,1.24-6,1.48-18.88h-3.6c-.52,10.72-2.36,19-9.08,24.28a15.58,15.58,0,0,0-2.8-3.16c-5.75.6-11.51,1.2-15.83,1.56l-.56-4c2.24-.16,5-.36,8.12-.56v-2.4h-7v-3.36h7v-1.56h-6.88V360.81h6.88v-1.56h-7.88v-3.44h7.88v-1.6c-2.32.16-4.6.28-6.76.32a14.82,14.82,0,0,0-1-3.36,123.6,123.6,0,0,0,17.23-2l2.08,3.56c-2.12.44-4.59.8-7.19,1.08v2h7.67V358h3.76c0-2.64,0-5.4,0-8.36h4.56c0,2.92,0,5.72-.08,8.36Zm-31.51,7.56h3.12v-1.76h-3.12Zm3.12,4.64v-1.8h-3.12v1.8Zm4.32,9.92c2.27-.16,4.63-.36,7-.56,3.12-4.32,4.08-10,4.36-17.2H820.3v-3.12h-7.67v1.56h7.07v12.36h-7.07v1.56h7.23v3.36h-7.23Zm3.11-14.56v-1.76h-3.11v1.76Zm-3.11,2.84v1.8h3.11v-1.8Z"/><path class="cls-3" d="M880.73,351.41v4.44H865.05v3.2h7.28v18.12h-19V359.05h7v-3.2H844.93v-4.44Zm-5.8,7.08h4.6v27.84h-4.6V384H850.77v2.36h-4.64V358.49h4.64v21h24.16Zm-17.76,7.8h3.48v-3.36h-3.48Zm0,7h3.48v-3.4h-3.48Zm11-10.36h-3.48v3.36h3.48Zm0,7h-3.48v3.4h3.48Z"/><path class="cls-3" d="M907.65,384.77l-3-4.76a30.77,30.77,0,0,0,3.72-.64c5.12-1.2,9.12-4.88,9.12-10.72,0-5.52-3-9.64-8.4-10.56a80.89,80.89,0,0,1-2.4,10.84c-2.4,8.08-5.84,13-10.2,13s-8.11-4.88-8.11-11.64c0-9.24,8-17.12,18.35-17.12,9.92,0,16.16,6.88,16.16,15.6C922.89,377.25,917.73,383.21,907.65,384.77Zm-11-9c1.68,0,3.24-2.52,4.88-7.92a60,60,0,0,0,2.12-9.68c-6.6,1.36-10.16,7.2-10.16,11.6C893.49,373.85,895.09,375.81,896.65,375.81Z"/><path class="cls-3" d="M961.21,348.77a4.78,4.78,0,0,1,0,9.56,2.28,2.28,0,0,1-.52,0c-.12.44-.2.84-.32,1.2-.92,3.92-2.64,10.12-6,14.56a32.13,32.13,0,0,1-16.08,11.08l-4.36-4.8c7.92-1.84,12.44-5.32,15.68-9.4a25.14,25.14,0,0,0,4.68-11.28H935.7c-1.84,0-3.76.08-4.76.16v-5.64a44.54,44.54,0,0,0,4.76.32h18.52a17.23,17.23,0,0,0,2.27-.16,4.43,4.43,0,0,1-.08-.76A4.81,4.81,0,0,1,961.21,348.77Zm0,7.08a2.3,2.3,0,1,0-2.32-2.28A2.31,2.31,0,0,0,961.21,355.85Z"/><path class="cls-3" d="M978.85,354.61h22c1,0,2.52,0,4-.08-.08,1.2-.08,2.68-.08,3.88V378c0,1.56.08,5.4.08,5.56h-5.52c0-.08,0-1,0-2.16H980.05c0,1.12,0,2,0,2.16h-5.52c0-.2.12-3.68.12-5.6V358.41c0-1.12,0-2.76-.08-3.88C976.25,354.57,977.77,354.61,978.85,354.61Zm1.2,21.68h19.32v-16.6H980.05Z"/><path class="cls-3" d="M1022.65,355.81c-.52,2.68-1.92,10.68-1.92,14.68a19.3,19.3,0,0,0,.16,2.6c.6-1.36,1.24-2.76,1.8-4.08l2.48,2c-1.12,3.32-2.44,7.68-2.88,9.8a12.07,12.07,0,0,0-.2,1.88c0,.44,0,1.08.08,1.64l-4.64.32a51.13,51.13,0,0,1-1.56-13.08c0-6,1.24-12.76,1.68-15.84.12-1.12.36-2.64.4-3.92l5.6.48C1023.33,353.09,1022.81,355.09,1022.65,355.81Zm9.87,19.56c0,1.76,1.52,2.84,5.6,2.84a47.28,47.28,0,0,0,10-1l.08,5.4a56.65,56.65,0,0,1-10.32.76c-6.88,0-10.19-2.44-10.19-6.56a24.36,24.36,0,0,1,.67-5.2l4.6.44A13.58,13.58,0,0,0,1032.52,375.37ZM1047,354.89v5.16a107.36,107.36,0,0,1-17.2,0v-5.12A82.25,82.25,0,0,0,1047,354.89Z"/><path class="cls-3" d="M203.77,411.17a49,49,0,0,0,5.4-1.28l.16,4.64a69.39,69.39,0,0,1-7,1.4,73.7,73.7,0,0,1-8.56,17.12l-4.83-2.48a63.36,63.36,0,0,0,8.15-14.12c-.72,0-1.4,0-2.08,0-1.63,0-3.28,0-5-.16l-.36-4.64A50.35,50.35,0,0,0,195,412c1.2,0,2.4,0,3.64-.16a33.64,33.64,0,0,0,1.08-6.68l5.52.56C204.89,407,204.37,409,203.77,411.17Zm10.8,12.08c0,1.16.16,3.08.24,5.08a26.16,26.16,0,0,1,8.28,5.12l-2.68,4.28a33.91,33.91,0,0,0-5.4-4.28v.4c0,3.72-2,6.6-7.72,6.6-5,0-8.88-2.2-8.88-6.6,0-3.92,3.28-6.92,8.84-6.92,1,0,1.84.08,2.76.16-.16-3-.36-6.52-.44-9h5C214.45,419.81,214.53,421.49,214.57,423.25Zm-8,12.6c2.76,0,3.6-1.52,3.6-3.72v-.8a14.37,14.37,0,0,0-3.24-.4c-2.32,0-3.8,1-3.8,2.44S204.37,435.85,206.57,435.85Zm5.28-21.28,2.56-4a68.9,68.9,0,0,1,9.88,5.44l-2.84,4.2A57.73,57.73,0,0,0,211.85,414.57Z"/><path class="cls-3" d="M238.46,407.61c2.12,0,10.68-.16,13-.36a17.48,17.48,0,0,0,3-.44l2.6,3.56c-.92.6-1.88,1.16-2.8,1.84-2.16,1.52-6.36,5-8.88,7a15.63,15.63,0,0,1,3.8-.44c6.8,0,12,4.24,12,10.08,0,6.32-4.8,11.32-14.48,11.32-5.56,0-9.76-2.56-9.76-6.56,0-3.24,2.92-6.24,7.16-6.24,5,0,8,3,8.52,6.84a5.8,5.8,0,0,0,3.32-5.44c0-3.6-3.6-6-8.32-6-6.12,0-10.12,3.24-14.4,8.12l-3.64-3.76c2.84-2.28,7.68-6.36,10-8.32s6.4-5.2,8.36-6.92c-2,0-7.56.28-9.68.4-1.08.08-2.36.2-3.28.32l-.16-5.2A27.76,27.76,0,0,0,238.46,407.61Zm7.2,28a20.88,20.88,0,0,0,2.32-.12c-.24-2.6-1.72-4.28-3.88-4.28-1.52,0-2.48.92-2.48,1.92C241.62,434.65,243.26,435.65,245.66,435.65Z"/><path class="cls-3" d="M277.57,429.81c0,2.56,2.44,4.4,8.2,4.4a54.92,54.92,0,0,0,14-1.6l0,5.64A61.64,61.64,0,0,1,286,439.61c-9.16,0-13.76-3.08-13.76-8.56a25.88,25.88,0,0,1,.8-5.76l5.24.48A14.74,14.74,0,0,0,277.57,429.81Zm8.2-20.52c4,0,8.52-.24,11.6-.56v5.32c-2.8.24-7.76.48-11.56.48-4.2,0-7.68-.16-10.92-.44v-5.28A104.93,104.93,0,0,0,285.77,409.29Z"/><path class="cls-3" d="M323.12,417.09c3.28-1.92,6.76-3.64,8.64-4.72a25,25,0,0,0,3.72-2.44l2.76,4.64c-1.2.72-2.48,1.4-4,2.16a118.4,118.4,0,0,0-11.16,5.92c-3.32,2.2-5.56,4.48-5.56,7.28s2.76,4.4,8.32,4.4A61.75,61.75,0,0,0,339,432.85l-.08,5.76a74.29,74.29,0,0,1-12.84,1c-8,0-14-2.2-14-9.08,0-4.4,2.8-7.72,6.64-10.56-1.84-3.4-3.76-7.68-5.56-11.92l5-2A95,95,0,0,0,323.12,417.09Z"/><path class="cls-3" d="M356.17,410.81c-.52,2.68-1.92,10.68-1.92,14.68a19.3,19.3,0,0,0,.16,2.6c.6-1.36,1.24-2.76,1.8-4.08l2.48,2c-1.12,3.32-2.44,7.68-2.88,9.8a12.07,12.07,0,0,0-.2,1.88c0,.44,0,1.08.08,1.64l-4.64.32a51.13,51.13,0,0,1-1.56-13.08c0-6,1.24-12.76,1.68-15.84.12-1.12.36-2.64.4-3.92l5.6.48C356.85,408.09,356.33,410.09,356.17,410.81ZM366,430.37c0,1.76,1.52,2.84,5.6,2.84a47.28,47.28,0,0,0,10-1l.08,5.4a56.65,56.65,0,0,1-10.32.76c-6.88,0-10.19-2.44-10.19-6.56a24.36,24.36,0,0,1,.67-5.2l4.6.44A13.58,13.58,0,0,0,366,430.37Zm14.48-20.48v5.16a107.36,107.36,0,0,1-17.2,0v-5.12A82.25,82.25,0,0,0,380.52,409.89Z"/><path class="cls-3" d="M422,419.69v3.6h4v4.4h-4v8.36c0,2.4-.4,3.68-2,4.44s-3.87.8-6.87.8a17.33,17.33,0,0,0-1.44-4.72c2,.08,4.16.08,4.8.08s.84-.16.84-.68v-8.28H409a31.37,31.37,0,0,1,4.8,6l-3.8,2.44a32,32,0,0,0-4.56-6.28l3.44-2.12H404v-2.12l-3.52,1.12v14.68h-4.36V428l-6,1.76L389,425.21c2-.44,4.44-1.08,7.12-1.8v-7.36h-2.68a32.36,32.36,0,0,1-1.48,5.08A25.47,25.47,0,0,0,388.6,419c1.28-3.2,1.92-8.16,2.28-12.88l4,.64q-.24,2.4-.6,4.8h1.88v-7.48h4.36v7.48h3.32v3.76h8.8v-3.4h-7.08v-4.32h7.08V404h4.72v3.56h7.35v4.32h-7.35v3.4h9.07v4.4Zm-4.67,0h-14.2v-3.64h-2.64v6.12l3.68-1,.32,2.16h12.84Z"/><path class="cls-3" d="M448.82,406.09a64.42,64.42,0,0,1-4.16,8.08v27.12H439.9v-20.4a45.32,45.32,0,0,1-4,4.24,34.9,34.9,0,0,0-2.76-5,41.34,41.34,0,0,0,10.92-15.56Zm15.88,30.36c1.92,0,2.24-1.36,2.56-7a13.73,13.73,0,0,0,4.4,2c-.56,6.88-1.8,9.4-6.52,9.4H458.3c-5,0-6.48-1.6-6.48-7.24v-28.6h4.8v13.68a68,68,0,0,0,10.08-7l3.52,4.16a96.9,96.9,0,0,1-13.6,7.72v10.08c0,2.36.28,2.76,2.2,2.76Z"/><path class="cls-3" d="M487.89,411.49c-.16,4.32-.48,13.28-.48,18.24,0,4,2.4,5.36,5.51,5.36,6.6,0,10.8-3.8,13.68-8.16l3.64,4.4a20.71,20.71,0,0,1-17.36,9.2c-6.55,0-10.79-2.88-10.79-9.72,0-5.36.4-15.88.4-19.32a25.51,25.51,0,0,0-.52-5.4l6.44.08C488.17,407.85,488,409.89,487.89,411.49Z"/><path class="cls-3" d="M532.45,409.73c-.08.44-.2,1-.32,1.52,2.23-.32,4.47-.76,6.67-1.28v5a73.44,73.44,0,0,1-7.79,1.32c-.36,1.72-.76,3.48-1.2,5.12a124.3,124.3,0,0,1-6.36,18.52l-5.56-1.88c2.4-4,5.44-12.4,6.92-18,.28-1.08.6-2.2.84-3.36-.92,0-1.8.08-2.64.08-1.92,0-3.44-.08-4.84-.16l-.12-5a39.58,39.58,0,0,0,5,.32q1.74,0,3.6-.12.24-1.32.36-2.28a20.51,20.51,0,0,0,.12-4l6.12.48C533,407.05,532.61,408.85,532.45,409.73Zm4.79,21.72c0,1.76,1.2,3.08,5.48,3.08a46.94,46.94,0,0,0,8.32-.84l-.2,5.12a64.21,64.21,0,0,1-8.16.56c-6.72,0-10.35-2.32-10.35-6.36a28,28,0,0,1,.72-5.36l4.75.48A13.7,13.7,0,0,0,537.24,431.45Zm6.08-13.8a70.34,70.34,0,0,1,7,.36l-.12,4.8a58.64,58.64,0,0,0-6.88-.48,68.73,68.73,0,0,0-7.72.4v-4.68C537.88,417.85,540.76,417.65,543.32,417.65Z"/><path class="cls-3" d="M577.76,409.37c0,1.24-.08,2.44-.16,3.6h7.51a18.59,18.59,0,0,0,3-.28l3.48,1.68a16.35,16.35,0,0,0-.28,2.12c-.16,4.32-.64,15.48-2.36,19.56-.88,2-2.4,3.08-5.15,3.08-2.28,0-4.68-.16-6.6-.32l-.64-5.36a33.11,33.11,0,0,0,5.6.56,2.13,2.13,0,0,0,2.28-1.4c1.15-2.52,1.67-10.52,1.67-14.84h-9c-1.48,10.56-5.28,16.84-12.44,21.92L560,435.93a23.84,23.84,0,0,0,5.24-3.92c3.72-3.68,5.72-8.16,6.6-14.24H566.6c-1.36,0-3.56,0-5.28.16v-5.24c1.68.16,3.76.28,5.28.28h5.72c0-1.12.08-2.28.08-3.48a29.6,29.6,0,0,0-.28-3.68H578C577.88,406.73,577.8,408.41,577.76,409.37Z"/><path class="cls-3" d="M609.18,410.25v13.52c0,1,0,2.56.12,3.48h-5.8c0-.76.2-2.32.2-3.52V410.25a28.4,28.4,0,0,0-.16-3.08h5.76C609.22,408.09,609.18,409,609.18,410.25Zm18.52.6v7.92c0,8.6-1.68,12.32-4.64,15.6a23.55,23.55,0,0,1-9.72,5.76l-4.16-4.4c4-.92,7.2-2.44,9.6-5,2.76-3,3.28-6,3.28-12.24v-7.6a28.22,28.22,0,0,0-.24-4h6C627.78,408,627.7,409.25,627.7,410.85Z"/><path class="cls-3" d="M649.25,406.29l5.64-.92c.12.8.24,2.16.44,3.12.08.56.32,1.88.64,3.68,3.4-.56,6.44-1,7.88-1.32,1.28-.24,2.8-.56,3.76-.84l1,5.24c-.88.08-2.48.32-3.68.48-1.64.28-4.68.76-8,1.28.4,2,.8,4.2,1.24,6.4,3.6-.6,6.88-1.16,8.68-1.52,1.56-.32,3-.64,4.08-1l1.08,5.28c-1.08.08-2.72.36-4.24.6-1.92.32-5.16.84-8.68,1.4.64,3.28,1.2,6,1.44,7.2s.68,2.64,1,3.92l-5.76,1c-.2-1.48-.32-2.88-.56-4s-.72-3.92-1.36-7.28c-4.08.68-7.84,1.32-9.56,1.64s-3.07.6-4,.84l-1.12-5.36c1.08,0,2.88-.28,4.16-.44,1.83-.24,5.55-.84,9.59-1.48-.4-2.16-.84-4.4-1.2-6.44-3.52.56-6.6,1.08-7.84,1.28s-2.31.48-3.67.84l-1.08-5.52c1.28,0,2.48-.12,3.72-.28s4.47-.6,7.91-1.16c-.32-1.68-.6-3-.72-3.64C649.81,408.17,649.53,407.25,649.25,406.29Z"/><path class="cls-3" d="M704.33,420.49c-.32,2.36-1.36,9.24-2,13h2.56c1,0,2.88,0,3.92-.16v5.16c-.8,0-2.76-.12-3.84-.12H684c-1.44,0-2.44,0-4,.12v-5.2a38.07,38.07,0,0,0,4,.2h13c.56-3.4,1.44-9.08,1.56-11.32h-10.8c-1.28,0-2.84.12-4,.2v-5.28c1,.12,2.88.24,4,.24h10.24a9.05,9.05,0,0,0,3-.44l3.88,1.88A11.15,11.15,0,0,0,704.33,420.49Z"/><path class="cls-3" d="M747.85,420.49a28.75,28.75,0,0,1-5.92,11.08,30,30,0,0,1-14.28,8.64l-4-4.52a27,27,0,0,0,13.84-7,17.35,17.35,0,0,0,4.12-6.92H722.33c-1,0-3,0-4.63.2v-5.2c1.68.12,3.39.24,4.63.24h19.8a8.44,8.44,0,0,0,2.92-.4l3.56,2.2A14.82,14.82,0,0,0,747.85,420.49Zm-22.32-13.08h15.4a37.71,37.71,0,0,0,4.32-.2v5.16c-1.08-.08-3-.12-4.4-.12H725.53c-1.28,0-3,0-4.16.12v-5.16A33.72,33.72,0,0,0,725.53,407.41Z"/><path class="cls-3" d="M772,412.17c-1.28,3.92-4.52,14.08-6.52,19.44,4.88-.48,10.56-1.12,14.6-1.6a48.35,48.35,0,0,0-4.2-7.32l5-2a124.08,124.08,0,0,1,8.75,16.64l-5.4,2.4c-.52-1.36-1.16-3-1.91-4.72-6.48.76-18.6,2-23.64,2.56l-3.76.48-.92-5.84c1.36,0,3.08,0,4.4,0,.32,0,.72,0,1.08,0,2.32-5.92,5.76-16.88,6.92-21a29.11,29.11,0,0,0,1-4.64l6.36,1.32C773.22,408.93,772.62,410.41,772,412.17Z"/><path class="cls-3" d="M826.34,410.37a91.88,91.88,0,0,0,11.75-1.16v3.72a123.19,123.19,0,0,1-13.15,1,32.1,32.1,0,0,1-3.08,5.28,11.75,11.75,0,0,1,5.12-1.2c2.52,0,4.6,1.16,5.36,3.4,2.48-1.16,4.52-2,6.39-2.88,1.36-.6,2.52-1.12,3.8-1.76l1.64,3.68c-1.16.36-2.88,1-4.08,1.48-2,.8-4.63,1.84-7.43,3.12,0,2.28.08,5.48.12,7.4H829c.08-1.4.12-3.68.16-5.64-3.44,1.88-5.6,3.72-5.6,6.08,0,2.72,2.6,3.28,6.64,3.28a68,68,0,0,0,11.11-1l-.12,4a101.67,101.67,0,0,1-11.11.72c-6,0-10.6-1.4-10.6-6.36s4.8-8,9.44-10.4a3.22,3.22,0,0,0-3.28-2,10.2,10.2,0,0,0-6.64,2.88,43.5,43.5,0,0,0-3.64,4.28l-3.44-2.56a40.19,40.19,0,0,0,9-11.68h-1.16c-1.68,0-4.44-.08-6.68-.24v-3.76a51.7,51.7,0,0,0,6.88.44c.76,0,1.56,0,2.36,0a19.92,19.92,0,0,0,.92-4.76l4.16.32C827.18,407.17,826.86,408.65,826.34,410.37Z"/><path class="cls-3" d="M859.86,426.21v10.36c0,1.84-.36,2.84-1.4,3.4s-2.68.72-5.2.72a11.87,11.87,0,0,0-1-3.44c1.6,0,3.08,0,3.52,0s.68-.16.68-.72v-9.28l-4.2,1.28-.84-3.6c1.4-.36,3.16-.84,5-1.36v-8h-4.64v-3.44h4.64v-7.72h3.4v7.72h4.24v3.44h-4.24v7l3.84-1.12.52,3.36Zm17.88,10.84a23,23,0,0,0,3.36.2c1.12,0,6.28,0,7.8,0a11.63,11.63,0,0,0-1,3.28H881c-5.56,0-9.72-1-12.32-6.28a17.36,17.36,0,0,1-4.52,6.84,17.27,17.27,0,0,0-2.76-2.24c3.44-2.76,5.16-7.24,5.8-12.88l3.36.4a41.43,41.43,0,0,1-.76,4.2c1,2.88,2.56,4.6,4.48,5.52V424.37h-9.6v-3h23.12v3h-10v4.16h8v3h-8Zm7.92-18.16H866.54V405.61h19.12Zm-3.56-10.52H869.94V411H882.1Zm0,5.12H869.94v2.64H882.1Z"/><path class="cls-3" d="M908,405.53a60.81,60.81,0,0,1-4,8.32V441h-3.64V419.57a43.68,43.68,0,0,1-3.32,4,27,27,0,0,0-2-3.8,44.09,44.09,0,0,0,9.48-15.4Zm8.88,26.2a35.21,35.21,0,0,1-7.76,9.2,24.71,24.71,0,0,0-3-2.36,25.86,25.86,0,0,0,7.2-8Zm15.55-6.68v3.64H906.69v-3.64h5.76v-9h-4.8v-3.56h4.8v-7.76h3.64v7.76H923v-7.84h3.64v7.84h5.44v3.56h-5.44v9Zm-16.35,0H923v-9h-6.88Zm9.12,5.64a48.83,48.83,0,0,1,6.88,8.36l-3.12,2a45.62,45.62,0,0,0-6.76-8.72Z"/><path class="cls-3" d="M948.48,411.09c-.2,4.44-.48,13.68-.48,19.2,0,4.24,2.6,5.68,6.08,5.68,7,0,11.2-4,14.08-8.24l2.84,3.48a20.31,20.31,0,0,1-17,9c-6.08,0-10.16-2.6-10.16-9.24,0-5.68.4-16,.4-19.84a23.15,23.15,0,0,0-.44-4.64l5.12,0A36.48,36.48,0,0,0,948.48,411.09Z"/><path class="cls-3" d="M998.1,408.61c0,.48,0,1.24-.08,2.12a87.89,87.89,0,0,0,10.52-1.12v3.68c-3,.36-6.68.72-10.56.88v5c4-.16,7.48-.52,11-1l0,3.72c-3.68.44-7,.72-10.84.88.08,1.84.2,3.76.28,5.56a32.12,32.12,0,0,1,11.48,6.12L1007.5,438a30.75,30.75,0,0,0-9-5.84c0,.84.08,1.52.08,2.08,0,3-2.2,5.8-7.44,5.8-6,0-9.24-2.24-9.24-6.24,0-3.84,3.56-6.44,9.52-6.44,1,0,2,.08,3,.16,0-1.56-.12-3.2-.16-4.68h-2.2c-2.56,0-7-.2-9.76-.52l0-3.76a78.2,78.2,0,0,0,9.88.72h2v-4.92h-1.64c-2.64,0-7.44-.4-10-.72l0-3.64a72.47,72.47,0,0,0,10,.88h1.72v-2.44a13.13,13.13,0,0,0-.2-2.52h4.28C998.22,406.61,998.14,407.49,998.1,408.61Zm-7.44,27.84c2.24,0,4-.68,4-3.24,0-.56,0-1.36,0-2.24a18.12,18.12,0,0,0-3.64-.36c-3.4,0-5.24,1.32-5.24,2.92S987.22,436.45,990.66,436.45Z"/><path class="cls-3" d="M1041,408.89c0,.48,0,1.2,0,2h12l-.08,3.76c-2.36-.12-6.16-.2-12-.2,0,2.16,0,4.48,0,6.28a9.85,9.85,0,0,1,1.4,5.32c0,5.32-2.84,11.6-12.32,14.36l-3.4-3.36c4.72-1,8.4-2.8,10.32-5.88a6.27,6.27,0,0,1-2.8.6,6.68,6.68,0,0,1-6.72-7,7.22,7.22,0,0,1,7.44-7.2,8,8,0,0,1,2.24.28c0-1,0-2.24,0-3.4-6.08.08-12.64.32-17.6.64l-.12-3.84c4.52-.08,12-.28,17.68-.36,0-.88,0-1.56-.08-2-.12-1.28-.24-2.52-.32-2.92h4.6A23.31,23.31,0,0,0,1041,408.89Zm-6.16,19.4c2.08,0,3.64-1.64,3.12-5.4a3.3,3.3,0,0,0-3.12-1.92,3.6,3.6,0,0,0-3.64,3.76A3.51,3.51,0,0,0,1034.82,428.29Z"/><path class="cls-3" d="M1073.66,434.33a6.26,6.26,0,0,1-12.52,0,6.26,6.26,0,1,1,12.52,0Zm-2.4,0a3.84,3.84,0,1,0-3.84,3.84A3.84,3.84,0,0,0,1071.26,434.33Z"/></g></g></svg>