<svg xmlns="http://www.w3.org/2000/svg" viewBox="0 0 650 345.47"><defs><style>.cls-1{fill:#ff0;}.cls-2{fill:#fff;}.cls-3{fill:none;stroke:#fff;stroke-miterlimit:10;stroke-width:1.42px;}.cls-4{fill:#e75513;}</style></defs><g id="レイヤー_2" data-name="レイヤー 2"><g id="bg"><path class="cls-1" d="M205.2,41.71c0,1.55-.1,3-.2,4.5h9.4a23.24,23.24,0,0,0,3.75-.35L222.5,48a20.44,20.44,0,0,0-.35,2.65c-.2,5.4-.8,19.35-3,24.45-1.1,2.55-3,3.85-6.45,3.85-2.85,0-5.85-.2-8.25-.4l-.8-6.7a41.38,41.38,0,0,0,7,.7,2.66,2.66,0,0,0,2.85-1.75c1.45-3.15,2.1-13.15,2.1-18.55H204.4c-1.85,13.2-6.6,21.05-15.55,27.4l-5.8-4.7A29.79,29.79,0,0,0,189.6,70c4.65-4.6,7.15-10.2,8.25-17.8h-6.6c-1.7,0-4.45,0-6.6.2V45.86c2.1.2,4.7.35,6.6.35h7.15c0-1.4.1-2.85.1-4.35a37,37,0,0,0-.35-4.6h7.35C205.35,38.41,205.25,40.51,205.2,41.71Z"/><path class="cls-1" d="M244.21,42.81v16.9c0,1.25,0,3.2.15,4.35h-7.25c0-1,.25-2.9.25-4.4V42.81a35.5,35.5,0,0,0-.2-3.85h7.2C244.26,40.11,244.21,41.21,244.21,42.81Zm23.15.75v9.9c0,10.75-2.1,15.4-5.8,19.5-3.3,3.6-8.5,6.05-12.15,7.2l-5.2-5.5c4.95-1.15,9-3,12-6.3,3.45-3.75,4.1-7.5,4.1-15.3v-9.5a35.27,35.27,0,0,0-.3-5h7.55C267.46,40,267.36,41.56,267.36,43.56Z"/><path class="cls-1" d="M294.06,37.86l7.05-1.15c.15,1,.3,2.7.55,3.9.1.7.4,2.35.8,4.6,4.25-.7,8.05-1.3,9.85-1.65,1.6-.3,3.5-.7,4.7-1.05l1.2,6.55c-1.1.1-3.1.4-4.6.6-2.05.35-5.85,1-10,1.6.5,2.5,1,5.25,1.55,8,4.5-.75,8.6-1.45,10.85-1.9,1.95-.4,3.8-.8,5.1-1.2l1.35,6.6c-1.35.1-3.4.45-5.3.75-2.4.4-6.45,1.05-10.85,1.75.8,4.1,1.5,7.45,1.8,9s.85,3.3,1.3,4.9l-7.2,1.3c-.25-1.85-.4-3.6-.7-5s-.9-4.9-1.7-9.1c-5.1.85-9.8,1.65-11.95,2s-3.85.75-5,1l-1.41-6.7c1.36-.05,3.61-.35,5.21-.55,2.3-.3,6.95-1,12-1.85-.5-2.7-1.05-5.5-1.5-8.05-4.4.7-8.25,1.35-9.8,1.6s-2.9.6-4.6,1L281.41,48c1.6,0,3.1-.15,4.65-.35,1.75-.2,5.6-.75,9.9-1.45-.4-2.1-.75-3.75-.9-4.55C294.76,40.21,294.41,39.06,294.06,37.86Z"/><path class="cls-1" d="M362.64,55.61c-.4,3-1.7,11.55-2.45,16.3h3.2c1.3,0,3.6,0,4.9-.2v6.45c-1,0-3.45-.15-4.8-.15h-26.3c-1.8,0-3.05,0-4.95.15v-6.5a48,48,0,0,0,4.95.25h16.2c.7-4.25,1.8-11.35,1.95-14.15h-13.5c-1.6,0-3.55.15-5,.25v-6.6c1.3.15,3.6.3,5,.3h12.8a11.32,11.32,0,0,0,3.7-.55l4.85,2.35A13.94,13.94,0,0,0,362.64,55.61Z"/><path class="cls-1" d="M416.76,55.61a35.93,35.93,0,0,1-7.4,13.85,37.44,37.44,0,0,1-17.85,10.8l-4.95-5.65c7.5-1.55,13.5-4.85,17.3-8.75A21.69,21.69,0,0,0,409,57.21H384.86c-1.2,0-3.7,0-5.8.25V51c2.1.15,4.25.3,5.8.3h24.75a10.55,10.55,0,0,0,3.65-.5l4.45,2.75A18.52,18.52,0,0,0,416.76,55.61Zm-27.9-16.35h19.25a47.14,47.14,0,0,0,5.4-.25v6.45c-1.35-.1-3.7-.15-5.5-.15H388.86c-1.6,0-3.75,0-5.2.15V39A42.15,42.15,0,0,0,388.86,39.26Z"/><path class="cls-1" d="M446.7,45.21c-1.6,4.9-5.65,17.6-8.15,24.3,6.1-.6,13.2-1.4,18.25-2a60.44,60.44,0,0,0-5.25-9.15l6.25-2.55a153.78,153.78,0,0,1,10.95,20.8l-6.75,3c-.65-1.7-1.45-3.75-2.4-5.9-8.1,1-23.25,2.55-29.55,3.2l-4.7.6-1.15-7.3c1.7,0,3.85,0,5.5,0,.4,0,.9,0,1.35,0,2.9-7.4,7.2-21.1,8.65-26.3a36.39,36.39,0,0,0,1.2-5.8l8,1.65C448.2,41.16,447.45,43,446.7,45.21Z"/><polygon class="cls-2" points="224.46 19.19 226.2 19.19 226.2 5.82 234.34 5.82 234.34 4.08 226.2 4.08 226.2 1.74 224.46 1.74 224.46 4.08 216.89 4.08 216.89 5.82 224.46 5.82 224.46 19.19"/><polygon class="cls-2" points="176.75 7.06 176.75 1.74 175 1.74 175 19.19 176.75 19.19 176.75 8.99 186.16 13.38 190.41 13.38 190.41 11.63 186.55 11.63 176.75 7.06"/><rect class="cls-2" x="238.99" y="3.51" width="8.77" height="1.74"/><polygon class="cls-2" points="220.74 8.93 219.02 8.63 217.57 16.87 215.74 16.87 215.74 18.61 219.03 18.61 220.74 8.93"/><polygon class="cls-2" points="232.21 8.63 230.5 8.93 232.2 18.61 235.5 18.61 235.5 16.87 233.67 16.87 232.21 8.63"/><polygon class="cls-2" points="194.95 17.82 196.38 18.82 200.6 12.78 200.6 6.41 209.33 6.41 209.33 17.45 204.97 17.45 204.97 19.19 211.08 19.19 211.08 4.66 200.6 4.66 200.6 1.74 198.86 1.74 198.86 4.66 194.79 4.66 194.79 6.41 198.86 6.41 198.86 12.23 194.95 17.82"/><polygon class="cls-2" points="255.27 12.7 255.27 1.74 253.53 1.74 253.53 12.15 249.81 17.46 238.43 17.46 238.43 19.2 250.72 19.2 255.27 12.7"/><rect class="cls-2" x="211.66" y="0.59" width="1.74" height="1.74"/><rect class="cls-2" x="208.75" y="0.59" width="1.74" height="1.74"/><rect class="cls-2" x="187.23" y="2.33" width="1.74" height="1.74"/><rect class="cls-2" x="184.31" y="2.33" width="1.74" height="1.74"/><path class="cls-2" d="M232,3.49h3.49V0H232Zm1.17-2.33h1.16V2.33h-1.16Z"/><rect class="cls-2" x="282.34" y="9.31" width="16.29" height="1.74"/><rect class="cls-2" x="325.96" y="2.33" width="15.7" height="1.74"/><polygon class="cls-2" points="325.38 10.47 335.27 10.47 335.27 13.76 332.68 17.45 325.96 17.45 325.96 19.2 333.59 19.2 337.01 14.31 337.01 10.47 342.83 10.47 342.83 8.73 325.38 8.73 325.38 10.47"/><polygon class="cls-2" points="460.32 7.69 460.32 5.24 463.24 5.24 463.24 3.49 460.32 3.49 460.32 0 458.58 0 458.58 3.49 455.67 3.49 455.67 5.24 458.58 5.24 458.58 6.33 455.26 14.28 456.87 14.96 458.58 10.86 458.58 20.36 460.32 20.36 460.32 10.28 462.41 12.56 463.7 11.39 460.32 7.69"/><rect class="cls-2" x="370.16" y="3.5" width="8.77" height="1.74"/><polygon class="cls-2" points="384.7 12.15 380.98 17.45 369.6 17.45 369.6 19.2 381.89 19.2 386.44 12.7 386.44 1.74 384.7 1.74 384.7 12.15"/><rect class="cls-2" x="426.3" y="8.03" width="1.74" height="12.92" transform="translate(59.35 232.2) rotate(-32.56)"/><polygon class="cls-2" points="350.26 11.64 348.64 11.64 348.64 13.38 350.73 13.38 356.06 10.3 356.06 19.8 357.81 19.8 357.81 9.3 361.82 6.98 363.77 6.98 363.77 5.24 361.35 5.24 350.26 11.64"/><polygon class="cls-2" points="259.07 4.08 275.36 4.08 275.36 9.02 266.75 13.99 263.71 8.72 260.81 8.72 260.81 10.47 262.7 10.47 268.28 20.13 269.79 19.26 267.62 15.5 277.1 10.02 277.1 2.33 259.07 2.33 259.07 4.08"/><polygon class="cls-2" points="308.27 1.74 306.61 1.22 304.07 9.31 302.7 9.31 302.7 11.06 305.35 11.06 306.81 6.41 317.23 6.41 317.23 13.13 314.2 17.45 305.6 17.45 305.6 19.2 315.11 19.2 318.98 13.68 318.98 6.41 321.3 6.41 321.3 4.66 307.36 4.66 308.27 1.74"/><polygon class="cls-2" points="431.23 5.24 422.51 5.24 422.51 0.59 420.76 0.59 420.76 5.24 412.04 5.24 412.04 6.99 420.04 6.99 412.18 19.3 413.65 20.24 422.11 6.99 431.23 6.99 431.23 5.24"/><polygon class="cls-2" points="474.86 1.76 470.2 1.76 470.2 0 468.45 0 468.45 1.76 463.79 1.76 463.79 3.5 474.86 3.5 474.86 1.76"/><polygon class="cls-2" points="392.82 6.99 390.52 6.99 390.52 8.73 393.73 8.73 396.99 4.08 406.23 4.08 406.23 11.45 402.03 17.45 393.43 17.45 393.43 19.2 402.94 19.2 407.98 12 407.98 2.33 396.08 2.33 392.82 6.99"/><rect class="cls-2" x="407.97" width="1.74" height="1.74"/><rect class="cls-2" x="405.06" width="1.74" height="1.74"/><polygon class="cls-2" points="451.59 0.8 449.9 0.35 449.06 3.49 444.7 3.49 443.86 0.35 442.17 0.8 442.9 3.49 439.13 3.49 438.29 0.35 436.6 0.8 437.32 3.49 434.15 3.49 434.15 7.57 435.9 7.57 435.9 5.24 452.17 5.24 452.17 7.57 453.91 7.57 453.91 3.49 450.87 3.49 451.59 0.8"/><rect class="cls-2" x="462.23" y="6.26" width="6.42" height="1.74" transform="translate(278.25 433.33) rotate(-67.17)"/><rect class="cls-2" x="472.08" y="3.92" width="1.74" height="6.42" transform="translate(34.28 184.05) rotate(-22.83)"/><polygon class="cls-2" points="472.9 10.04 471.53 8.96 469.19 11.95 466.86 8.96 465.48 10.04 468.09 13.37 463.5 19.23 464.88 20.31 469.19 14.79 473.51 20.31 474.88 19.23 470.3 13.37 472.9 10.04"/><polygon class="cls-2" points="445.19 12.07 449.86 9.37 449.86 7.57 437.63 7.57 437.63 9.31 446.47 9.31 443.44 11.06 443.44 12.8 434.15 12.8 434.15 14.55 443.44 14.55 443.44 18.61 439.39 18.61 439.39 20.36 445.19 20.36 445.19 14.55 453.91 14.55 453.91 12.8 445.19 12.8 445.19 12.07"/><line class="cls-3" y1="106.9" x2="650" y2="106.9"/><rect class="cls-4" x="38.06" y="245.44" width="200" height="50"/><path class="cls-2" d="M76,139.74a24.94,24.94,0,0,0-.31-3.92H80c-.1,1.15-.28,2.66-.28,3.92v5.46a112.31,112.31,0,0,1,14.81,5.6L93,154.58a97.9,97.9,0,0,0-13.27-5.43c0,4.83,0,9.67,0,10.82s.1,3.22.24,4.48H75.72A36,36,0,0,0,76,160Zm16.17,2.69-2.45,1.09a31.74,31.74,0,0,0-3.08-5.36l2.35-1A43.69,43.69,0,0,1,92.17,142.43Zm4.52-2-2.42,1.19a34.66,34.66,0,0,0-3.22-5.25l2.35-1.08A52.81,52.81,0,0,1,96.69,140.47Z"/><path class="cls-2" d="M119.13,138.27c0,1.19-.11,2.34-.18,3.43h7.56a16.66,16.66,0,0,0,2.42-.21l2.45,1.19c-.11.59-.21,1.33-.25,1.78-.1,3.54-.56,13.55-2.1,17-.73,1.61-1.92,2.38-4.06,2.38-1.89,0-3.92-.14-5.7-.24l-.42-3.68a39.09,39.09,0,0,0,5.07.42,1.85,1.85,0,0,0,2-1.19c1.19-2.45,1.64-10.36,1.64-14.14h-9c-1.29,9.73-4.76,15.09-10.78,19.32l-3.22-2.62a18.7,18.7,0,0,0,4-2.94c3.4-3.19,5.54-7.43,6.41-13.76h-5.32c-1.3,0-2.94,0-4.27.14v-3.68c1.33.14,2.9.25,4.27.25h5.64c.07-1,.1-2.17.1-3.36a23.29,23.29,0,0,0-.24-3.05h4.09C119.23,136.13,119.16,137.43,119.13,138.27Zm12.18,1.54-2.31,1a42.84,42.84,0,0,0-2.8-4.83l2.27-1A49.2,49.2,0,0,1,131.31,139.81Zm4-1.51-2.27,1a33.18,33.18,0,0,0-2.87-4.79l2.24-1A44.3,44.3,0,0,1,135.33,138.3Z"/><path class="cls-2" d="M143.34,159.66l-3-2.07a36.44,36.44,0,0,0,6.62-9.1l3.12,1.5A52.24,52.24,0,0,1,143.34,159.66Zm14.39-21.46v3.22h8.79a23.21,23.21,0,0,0,3.11-.21v3.64c-1-.07-2.2-.07-3.08-.07h-8.82v16.66c0,1.89-1,3-3.29,3a50.89,50.89,0,0,1-5.28-.25l-.32-3.46a23.85,23.85,0,0,0,4,.38c.91,0,1.3-.35,1.33-1.29v-15h-9.34c-1.09,0-2.21,0-3.16.1v-3.67a30.61,30.61,0,0,0,3.12.21h9.38v-3.26a14.91,14.91,0,0,0-.28-2.73H158A19.51,19.51,0,0,0,157.73,138.2Zm13.16,19.43-3.22,1.82a59.44,59.44,0,0,0-5.81-9.35l3-1.65A74,74,0,0,1,170.89,157.63Zm-3.57-24.89a3.92,3.92,0,1,1-3.92,3.92A3.95,3.95,0,0,1,167.32,132.74Zm0,6a2.1,2.1,0,1,0,0-4.2,2.1,2.1,0,0,0,0,4.2Z"/><path class="cls-2" d="M192.72,155.14a33.38,33.38,0,0,0,12.15-13.2l2.13,3.82a35.77,35.77,0,0,1-12.28,12.67,38.62,38.62,0,0,1-13.41,5.22L179,160A36.36,36.36,0,0,0,192.72,155.14Zm-1.19-11.2-2.76,2.83a76.56,76.56,0,0,0-8.76-7.42l2.56-2.73A74,74,0,0,1,191.53,143.94Z"/><path class="cls-2" d="M217.16,139.07c2.55-.24,8.78-.84,15.22-1.4,3.75-.31,7.25-.52,9.66-.59v3.53a34,34,0,0,0-6.82.49c-4.66,1.4-7.74,6.41-7.74,10.54,0,6.37,6,8.51,11.73,8.75L238,164.14c-6.86-.35-14-4-14-11.73a14.06,14.06,0,0,1,6-11.38c-3.53.35-11.69,1.19-15.61,2l-.35-3.81C215.23,139.21,216.46,139.14,217.16,139.07Zm22.71,10.26-2.17,1a32.59,32.59,0,0,0-2.8-4.9l2.1-.91A47.36,47.36,0,0,1,239.87,149.33Zm4-1.58-2.13,1a32.33,32.33,0,0,0-2.94-4.83l2.1-.95A50.54,50.54,0,0,1,243.86,147.75Z"/><path class="cls-2" d="M256.91,138.55a93,93,0,0,0-1.71,13.86,22.67,22.67,0,0,0,.28,3.74c.49-1.43,1.26-3.18,1.82-4.48l1.75,1.37a82.63,82.63,0,0,0-2.52,8,8.62,8.62,0,0,0-.18,1.61c0,.35.07.87.11,1.29l-3.12.25A41.25,41.25,0,0,1,252,153.07a107.31,107.31,0,0,1,1.54-14.66c.1-.88.24-2,.28-2.91l3.81.35C257.4,136.48,257.05,137.92,256.91,138.55Zm17.68-.84c0,.87-.07,2.38-.1,4a55.76,55.76,0,0,0,5.81-.81v3.4c-1.82.28-3.78.52-5.81.66,0,3.5.27,6.65.38,9.35a22.87,22.87,0,0,1,6.9,4.52l-1.89,2.94a34,34,0,0,0-4.87-3.89v.18c0,3.22-1.54,6-6.41,6s-7.49-2-7.49-5.32,2.77-5.6,7.46-5.6a18.47,18.47,0,0,1,2.83.21c-.14-2.45-.28-5.46-.35-8.19-1,0-2,.07-2.94.07-2,0-3.95-.11-6-.25l0-3.29a57.13,57.13,0,0,0,6.06.32c1,0,1.92,0,2.9-.07v-4.13a16.25,16.25,0,0,0-.21-2.24h4C274.7,136.24,274.62,137,274.59,137.71Zm-6.44,23.07c2.59,0,3.39-1.33,3.39-3.54v-1a11.37,11.37,0,0,0-3.25-.49c-2.35,0-4,1-4,2.53S265.91,160.78,268.15,160.78Z"/><path class="cls-2" d="M288.41,157.1l2.87-2.52a64.3,64.3,0,0,1,7.74,7.74l-3,2.52A63.57,63.57,0,0,0,288.41,157.1Z"/><path class="cls-2" d="M346.13,150.59a34.15,34.15,0,0,0,12.92,10.33,17.79,17.79,0,0,0-2.38,2.8,37.43,37.43,0,0,1-12.22-10.51v12.22H341V153.35a38.16,38.16,0,0,1-12.18,10.33,22.85,22.85,0,0,0-2.38-2.76,33.88,33.88,0,0,0,12.84-10.33H327.47v-3.22H341v-5.32H330v-3.22h11v-5.5h3.43v5.5h11.31v3.22H344.45v5.32h13.76v3.22Z"/><path class="cls-2" d="M370.2,153.84a32.34,32.34,0,0,1-2.35,8.93,13.62,13.62,0,0,0-2.48-1.22,26.52,26.52,0,0,0,2.06-8.2Zm3.92-2.73V165.5h-2.91V151.29c-1.92.1-3.71.21-5.28.31l-.28-2.87,2.45-.07c.63-.84,1.33-1.78,2-2.76a32.25,32.25,0,0,0-4.34-4.9l1.58-2.14c.31.25.63.53.94.81a40.15,40.15,0,0,0,2.87-6.34l2.87,1.12c-1.22,2.35-2.69,5-3.95,7,.63.66,1.22,1.33,1.68,1.92,1.26-2.06,2.45-4.2,3.32-6l2.7,1.22a119,119,0,0,1-6.76,9.94c1.4,0,2.87-.1,4.38-.21-.46-1-.95-2-1.44-2.83l2.21-.91a27,27,0,0,1,3.18,7.24L377,152.86a12.41,12.41,0,0,0-.56-1.89Zm3,2a40.78,40.78,0,0,1,2.2,6.34l-2.48.84a37.23,37.23,0,0,0-2.07-6.41Zm19.57-17.22a21.83,21.83,0,0,1-6,9.14,24.61,24.61,0,0,0,7.71,3,11.77,11.77,0,0,0-2,2.7,25.9,25.9,0,0,1-8.27-3.78,31.13,31.13,0,0,1-8.19,3.92,11.71,11.71,0,0,0-1.82-2.73,27.63,27.63,0,0,0,7.49-3.26,21.5,21.5,0,0,1-4.58-6.4l1.92-.63h-3.92v-2.8h14.81l.63-.14Zm-6.76,25.73H398v2.87H378.25v-2.87h8.47v-5h-6.3v-2.87h6.3v-4.62h3.22v4.62h6.55v2.87h-6.55Zm-5.81-23.73a17,17,0,0,0,4,5.21,18.75,18.75,0,0,0,4.17-5.21Z"/><path class="cls-2" d="M404.51,162.56c1.23-1.75,1.65-4.72,1.79-7.7l1.86.38c-.15,3.12-.53,6.38-1.9,8.27Zm25.94-6.79a13,13,0,0,0,6.93,7.07,12.24,12.24,0,0,0-2.06,2.56,14.7,14.7,0,0,1-7-7.84c-1.19,3-3.54,5.77-8.05,7.94a8.91,8.91,0,0,0-1.82-2.17,2.85,2.85,0,0,1-.49,1,2.53,2.53,0,0,1-1.93,1,22.28,22.28,0,0,1-3.08.07,6.56,6.56,0,0,0-.73-2.56,24.15,24.15,0,0,0,2.48.11,1,1,0,0,0,.91-.42c.32-.39.56-1.44.77-3.71l-1.19.45a19.77,19.77,0,0,0-1.71-4.55l1.4-.46a22.3,22.3,0,0,1,1.57,3.61c.11-1.3.21-2.87.28-4.87H406.54V134.7h12.54v2.69h-4.2v2.52h3.46v2.14a22.8,22.8,0,0,0,8-8.72h2.87a24,24,0,0,0,8.4,8.19,17,17,0,0,0-1.64,2.8,22.81,22.81,0,0,1-2.56-1.85v2h-3.92v2.41h6.41v8.86Zm-20.16-.42a32,32,0,0,1,.49,6.34l-1.65.24a33.52,33.52,0,0,0-.38-6.41Zm-1-18v2.52h2.94v-2.52Zm0,5.08v2.66h2.94v-2.66Zm0,7.94h2.94v-2.73h-2.94Zm3.15,10.47a29.88,29.88,0,0,0-1.19-5.64l1.46-.28a23.62,23.62,0,0,1,1.3,5.57Zm7.14-10.47s0,.84,0,1.19c-.28,6.45-.56,9.84-1,11.56,4.27-2,6.34-4.66,7.28-7.39h-5.39v-8.86h6.2V144.5h-3.89v-2a20.36,20.36,0,0,1-2.87,2.14,13.65,13.65,0,0,0-1.47-2.49v.32h-3.46v2.66h3.46v2.55h-3.46v2.73Zm6.79,2.91a21.71,21.71,0,0,0,.21-3.29v-.67h-3.5v4Zm6.44-11.38a25.72,25.72,0,0,1-4.94-5.74,23.68,23.68,0,0,1-4.55,5.74Zm-3.33,7.42v.7a25.43,25.43,0,0,1-.17,3.26h3.78v-4Z"/><path class="cls-2" d="M457,137.67c-.21,1.09-.52,2.77-.84,4.41,1.44-.14,2.7-.21,3.5-.21,3.4,0,5.95,1.37,5.95,6.27,0,4.13-.52,9.77-2,12.71-1.12,2.41-2.94,3-5.39,3a19.77,19.77,0,0,1-4.17-.49l-.56-3.64a18.27,18.27,0,0,0,4.27.7,2.74,2.74,0,0,0,2.87-1.68c1.05-2.17,1.58-6.62,1.58-10.26,0-3-1.37-3.53-3.57-3.53-.74,0-1.89.07-3.22.21-1.3,5.14-3.78,13.23-7.25,18.83l-3.6-1.43c3.5-4.73,6-12.29,7.28-17-1.61.17-3.05.35-3.85.45s-2.49.32-3.47.49l-.35-3.78c1.19.07,2.21,0,3.4,0s3-.17,5-.35a39.54,39.54,0,0,0,.81-7.52l4.09.42C457.33,136,457.15,136.9,457,137.67Zm18.83,13.86-3.46,1.61c-1-3.71-3.61-10-6.06-12.95l3.26-1.4C471.75,141.7,474.72,148.24,475.84,151.53Z"/><path class="cls-2" d="M488.21,150.73a16.84,16.84,0,0,1,10.92-3.89c5.7,0,9.27,3.47,9.27,7.63,0,6.31-5.32,10.86-19,9.7l-1-3.6c10.81,1.36,16.27-1.54,16.27-6.17,0-2.59-2.41-4.44-5.77-4.44a13.14,13.14,0,0,0-10.33,4.44,7.27,7.27,0,0,0-1.19,1.86l-3.22-.77a132.4,132.4,0,0,0,1.79-14.39l3.71.49C489.12,143.8,488.52,148.59,488.21,150.73Zm15.47-13.09-.81,3.39c-3.43-.45-11.13-2.06-13.82-2.76l.87-3.33A103.46,103.46,0,0,0,503.68,137.64Z"/><path class="cls-2" d="M517.92,139.07c2.56-.24,8.79-.84,15.23-1.4,3.74-.31,7.24-.52,9.66-.59v3.53a34.14,34.14,0,0,0-6.83.49c-4.65,1.4-7.73,6.41-7.73,10.54,0,6.37,6,8.51,11.72,8.75l-1.26,3.75c-6.86-.35-14-4-14-11.73a14,14,0,0,1,6-11.38c-3.54.35-11.69,1.19-15.61,2l-.35-3.81C516,139.21,517.22,139.14,517.92,139.07Zm22.72,10.26-2.17,1a32.59,32.59,0,0,0-2.8-4.9l2.1-.91A49.26,49.26,0,0,1,540.64,149.33Zm4-1.58-2.14,1a32.33,32.33,0,0,0-2.94-4.83l2.1-.95A50.57,50.57,0,0,1,544.63,147.75Z"/><path class="cls-2" d="M564.72,137.71c-.1.77-.24,1.85-.42,3.18a47,47,0,0,0,6.8-.45l-.11,3.29a67.27,67.27,0,0,1-7,.35h-.07c-.24,1.82-.49,3.81-.7,5.63h.49a55,55,0,0,0,7.18-.42l-.1,3.29c-2.14.21-4.28.35-6.55.35h-1.33c-.11,1.23-.18,2.31-.18,3,0,3.19,1.86,5,5.6,5,5.12,0,8.2-2.27,8.2-5.57,0-2.38-1.26-4.83-3.71-7l3.88-.8c2.35,2.76,3.5,5.21,3.5,8.22,0,5.26-4.69,8.69-11.93,8.69-5.08,0-9-2.21-9-8,0-.91.11-2.24.25-3.82a38.12,38.12,0,0,1-7-1.19l.17-3.36a29.45,29.45,0,0,0,7.18,1.4c.24-1.85.49-3.81.73-5.67a44.55,44.55,0,0,1-7.28-1.22l.18-3.22a34,34,0,0,0,7.45,1.33c.18-1.26.28-2.38.35-3.29a14.55,14.55,0,0,0,0-2.77l3.92.21C565,136,564.87,136.87,564.72,137.71Z"/><path class="cls-2" d="M85.92,199.25c-.17,3.88-.42,12-.42,16.8,0,3.71,2.28,5,5.32,5,6.13,0,9.8-3.46,12.32-7.21l2.49,3.05a17.8,17.8,0,0,1-14.88,7.84c-5.32,0-8.89-2.28-8.89-8.09,0-5,.35-14,.35-17.36a20.61,20.61,0,0,0-.38-4.06l4.48,0A33.07,33.07,0,0,0,85.92,199.25Z"/><path class="cls-2" d="M115.91,207.47c2.42-.77,8.26-2.8,12.43-2.8,5.21,0,8.85,3.08,8.85,8.09,0,6.58-6.09,10.4-16.24,11l-1.47-3.4c7.77-.24,14.11-2.38,14.11-7.67,0-2.83-2.21-4.86-5.53-4.86-4.24,0-11.59,3-14.15,4.13l-1.46-3.64C113.46,208.17,114.83,207.79,115.91,207.47Z"/><path class="cls-2" d="M157.49,197.67c-.21,1.09-.52,2.77-.84,4.41,1.44-.14,2.7-.21,3.5-.21,3.4,0,5.95,1.37,5.95,6.27,0,4.13-.52,9.77-2,12.71-1.12,2.41-2.94,3-5.39,3a19.77,19.77,0,0,1-4.17-.49l-.56-3.64a18.27,18.27,0,0,0,4.27.7,2.74,2.74,0,0,0,2.87-1.68c1.05-2.17,1.58-6.62,1.58-10.26,0-3-1.37-3.53-3.57-3.53-.74,0-1.89.07-3.22.21-1.3,5.14-3.78,13.23-7.25,18.83l-3.61-1.43c3.51-4.73,6-12.29,7.29-17-1.61.17-3,.35-3.85.45s-2.49.32-3.47.49l-.35-3.78c1.19.07,2.2,0,3.4,0s3-.17,5-.35a39.54,39.54,0,0,0,.81-7.52l4.09.42C157.81,196,157.63,196.9,157.49,197.67Zm18.83,13.86-3.46,1.61c-1-3.71-3.61-10-6.06-12.95l3.26-1.4C172.23,201.7,175.2,208.24,176.32,211.53Z"/><path class="cls-2" d="M189.06,203.52c1.54-3.19,4.9-6.93,9.13-6.93,4.76,0,8.3,4.69,8.3,12.21,0,9.77-6.09,14.25-15,15.9l-2.1-3.19c7.67-1.19,13.41-4,13.41-12.71,0-5.46-1.86-9-5.18-9-4.27,0-8.16,6.3-8.47,10.92a15.77,15.77,0,0,0,.14,4l-3.43.24a43,43,0,0,1-.39-5.67,91.46,91.46,0,0,1,1-11.27,33,33,0,0,0,.28-3.32l3.81.17A68.68,68.68,0,0,0,189.06,203.52Z"/><path class="cls-2" d="M226.84,205.27c3.08-1.86,6.54-3.57,8.36-4.59a18.87,18.87,0,0,0,2.8-1.85l1.93,3.18c-.91.56-1.89,1.09-3,1.65-2.31,1.19-7,3.36-10.29,5.53-3.08,2-5,4.23-5,6.79,0,2.73,2.62,4.34,7.84,4.34a51.82,51.82,0,0,0,11.3-1.26l0,4a66.91,66.91,0,0,1-11.13.84c-6.76,0-11.73-1.92-11.73-7.53,0-3.71,2.38-6.58,5.95-9.1-1.61-2.94-3.36-6.89-5-10.64l3.46-1.43A81.74,81.74,0,0,0,226.84,205.27Z"/><path class="cls-2" d="M258.15,193.51h3.15v31.92h-3.15v-9c-3,.84-6.09,1.68-8.57,2.35l-.74-3.3c.74-.17,1.58-.35,2.49-.59v-17.5h3v16.76l3.78-.94Zm22.09,2.87c-1.05,8-3.29,14.45-6.47,19.46a21.26,21.26,0,0,0,7.87,6.79,13.06,13.06,0,0,0-2.31,2.8,24.32,24.32,0,0,1-7.66-6.68,28.13,28.13,0,0,1-7.77,6.65,11.72,11.72,0,0,0-2.28-2.8,23.8,23.8,0,0,0,8.05-6.94,52.2,52.2,0,0,1-5.46-15.82l3.08-.56a46.25,46.25,0,0,0,4.45,13.27,41.86,41.86,0,0,0,4.79-13.48H262.7v-3.22h14.78l.59-.1Z"/><path class="cls-2" d="M306.37,195.36c0,6.34.81,19.32,14.14,27.2a16.46,16.46,0,0,0-2.62,2.77A29.73,29.73,0,0,1,304.48,207c-2.59,8.43-7,14.56-13.44,18.45a25.31,25.31,0,0,0-3-2.63c7.52-3.88,11.76-10.78,13.79-20.27l1.79.32a37.6,37.6,0,0,1-.46-4.17h-8.33v-3.29Z"/><path class="cls-2" d="M336.47,198.62a80.77,80.77,0,0,0,10.29-1v3.26a109.56,109.56,0,0,1-11.52.91,28.28,28.28,0,0,1-2.69,4.62,10.18,10.18,0,0,1,4.48-1,4.61,4.61,0,0,1,4.69,3c2.17-1,3.95-1.75,5.6-2.52,1.19-.52,2.2-1,3.32-1.54l1.44,3.22c-1,.32-2.52.88-3.57,1.3-1.79.7-4.06,1.61-6.51,2.73,0,2,.07,4.79.1,6.48h-3.32c.07-1.23.1-3.23.14-4.94-3,1.64-4.9,3.25-4.9,5.32,0,2.38,2.27,2.87,5.81,2.87a59.65,59.65,0,0,0,9.73-.91l-.11,3.54a90.4,90.4,0,0,1-9.73.63c-5.21,0-9.27-1.23-9.27-5.57s4.2-7,8.26-9.1a2.82,2.82,0,0,0-2.87-1.75,8.91,8.91,0,0,0-5.81,2.52,37.94,37.94,0,0,0-3.19,3.74l-3-2.24a34.93,34.93,0,0,0,7.91-10.22h-1c-1.47,0-3.89-.07-5.85-.21v-3.29a45.32,45.32,0,0,0,6,.39c.67,0,1.37,0,2.07,0a17.57,17.57,0,0,0,.8-4.16l3.64.28C337.2,195.82,336.92,197.11,336.47,198.62Z"/><path class="cls-2" d="M370,202.19a42,42,0,0,1-2.94,4.34v18.9H363.9v-15.3a35.61,35.61,0,0,1-3.68,3.4,24,24,0,0,0-1.64-3.29,32.37,32.37,0,0,0,8.54-9.21Zm-.49-7.53a35.27,35.27,0,0,1-8.75,8.44,18.62,18.62,0,0,0-1.68-2.7,25.72,25.72,0,0,0,7.28-7ZM391,216.15h-5v5.92c0,1.61-.31,2.42-1.47,2.87s-2.83.53-5.32.53a13.1,13.1,0,0,0-1.05-2.94c1.75.07,3.43.07,3.92,0s.67-.14.67-.56v-5.85H369.25v-2.8h13.48V210.8H370.09v-2.7h20.23v2.7H386v2.55h5Zm-16.73.21a30.79,30.79,0,0,1,4.3,4.73l-2.45,1.75a30.36,30.36,0,0,0-4.16-4.93Zm14.66-10.25H372.05V194.38h16.87Zm-3.29-9.35H375.2v2.35h10.43Zm0,4.59H375.2v2.34h10.43Z"/><path class="cls-2" d="M400.66,198.9c2.55-.25,8.78-.84,15.22-1.37,3.75-.31,7.25-.52,9.66-.63v3.54a31.24,31.24,0,0,0-6.79.52A11.61,11.61,0,0,0,411,211.5c0,6.37,5.95,8.51,11.76,8.75L421.45,224c-6.86-.31-14-4-14-11.73a14.09,14.09,0,0,1,5.95-11.37c-3.53.38-11.69,1.22-15.57,2.06l-.39-3.85C398.77,199,400,199,400.66,198.9Z"/><path class="cls-2" d="M438.65,209.43c-1.44-1-4.35-2.66-6.45-3.74l1.79-2.42c2,1,5,2.52,6.44,3.47Zm-5.74,13.41a106.38,106.38,0,0,0,6.58-11.06l2.34,2.17c-1.78,3.61-4.13,7.81-6.19,11.06ZM440.29,200c-1.43-1-4.34-2.69-6.41-3.85l1.82-2.31a72.44,72.44,0,0,1,6.52,3.54Zm14.56,6.62v5.18h7.21v13.48H459V224H447.4v1.47h-3V211.78h7.35V206.6H442v-3.12h9.73v-5c-2.45.39-5,.67-7.28.84a11.78,11.78,0,0,0-.94-2.73c6-.63,12.77-1.75,16.62-3.18l2.56,2.52a47.19,47.19,0,0,1-7.88,2v5.49h9.28v3.12Zm4.13,8.12H447.4V221H459Z"/><path class="cls-2" d="M502.4,224.45H487.66v1h-3V214c-.6.66-1.19,1.29-1.79,1.85a15.18,15.18,0,0,0-2.1-2.06l.32-.28h-2.56v5.67l4.27-1,.32,2.8-12.61,3.15-.56-3,1.68-.35V209h2.49v11.24l1.75-.39V206.07h-4.1V195h10v11.09h-3.22v4.66h3.68v1.64a24.15,24.15,0,0,0,4.16-6.82h-3.29V203.2h5.71v-2H483.7V199h5.12v-2h-5.57v-2.35h8.37v10.89h-3.5l1.54.42c-.35.77-.74,1.54-1.16,2.34h4.27c.42-.91.88-1.92,1.19-2.76h-1.15V203.2h5.81v-2h-5.29V199h5.29v-2h-5.78v-2.35h8.61v10.89H495.4l1.71.45c-.45.77-.91,1.58-1.33,2.31h6v2.63h-6.61V213h5.56v2.21h-5.56v2.17h5.56v2.21h-5.56v2.2h7.28Zm-27.9-21.07h4.44v-5.71H474.5Zm17.82,7.56h-4.66V213h4.66Zm0,4.27h-4.66v2.17h4.66Zm-4.66,6.58h4.66v-2.2h-4.66Z"/><path class="cls-2" d="M528.41,197.32c0,.42,0,1.05,0,1.75h10.5l-.07,3.29c-2.07-.1-5.39-.17-10.47-.17,0,1.89,0,3.92,0,5.49a8.67,8.67,0,0,1,1.22,4.66c0,4.66-2.48,10.15-10.78,12.57l-3-2.94c4.14-.91,7.36-2.45,9-5.15a5.48,5.48,0,0,1-2.45.53,5.86,5.86,0,0,1-5.89-6.1,6.33,6.33,0,0,1,6.52-6.3,6.84,6.84,0,0,1,2,.25c0-.91,0-2,0-3-5.32.07-11.06.28-15.4.56l-.11-3.36c4-.07,10.47-.24,15.48-.31,0-.77,0-1.37-.07-1.79-.11-1.12-.21-2.2-.28-2.55h4A21.22,21.22,0,0,0,528.41,197.32Zm-5.39,17c1.82,0,3.19-1.44,2.73-4.73a2.89,2.89,0,0,0-2.73-1.68,3.15,3.15,0,0,0-3.18,3.29A3.07,3.07,0,0,0,523,214.3Z"/><path class="cls-2" d="M551.93,196.66c1.82,0,9.81-.21,11.69-.39a10.35,10.35,0,0,0,2.25-.31l1.92,2.52c-.73.45-1.47.94-2.21,1.5-1.78,1.33-6.08,5-8.57,7a14.49,14.49,0,0,1,4.2-.59c5.85,0,10.19,3.6,10.19,8.5,0,5.57-4.45,9.56-12.33,9.56-4.83,0-8.05-2.13-8.05-5.32,0-2.59,2.31-4.94,5.78-4.94a6.92,6.92,0,0,1,7.28,6.13,5.68,5.68,0,0,0,3.71-5.5c0-3.29-3.22-5.67-7.6-5.67-5.6,0-8.89,2.63-13,7l-2.55-2.59c2.73-2.24,7.1-5.92,9.17-7.63s6-5,7.77-6.51c-1.86.07-7.91.35-9.73.45-.88,0-1.79.11-2.59.21l-.11-3.6A26.78,26.78,0,0,0,551.93,196.66Zm6.51,24.64a17.88,17.88,0,0,0,2.49-.14c-.28-2.55-1.82-4.34-4.13-4.34a2.33,2.33,0,0,0-2.56,2C554.24,220.36,556,221.3,558.44,221.3Z"/><path class="cls-2" d="M80.32,260.93s0,1.36,0,1.85c-.31,14.32-.59,19.4-1.71,21a4,4,0,0,1-2.77,1.75,23.93,23.93,0,0,1-4.34.14,9.69,9.69,0,0,0-1.22-4c1.54.14,2.87.17,3.53.17a1.27,1.27,0,0,0,1.19-.59c.74-.95,1.09-5.22,1.3-16.53H73.11c-.46,9.38-2.07,16.6-8,21.25a13.77,13.77,0,0,0-2.45-2.76c-5,.52-10.08,1-13.86,1.36l-.49-3.5,7.1-.49v-2.1H49.3v-2.94h6.16v-1.37h-6V263.38h6V262H48.57v-3h6.89v-1.4c-2,.14-4,.25-5.91.28a13.3,13.3,0,0,0-.91-2.94,108.42,108.42,0,0,0,15.08-1.71l1.82,3.11c-1.85.39-4,.7-6.3,1V259H66v1.93h3.3c0-2.31,0-4.73,0-7.32h4c0,2.56,0,5-.07,7.32Zm-27.59,6.61h2.73V266H52.73Zm2.73,4.06V270H52.73v1.57Zm3.78,8.69c2-.14,4.06-.32,6.09-.49,2.74-3.79,3.58-8.79,3.82-15.06H66V262H59.24v1.37h6.2v10.81h-6.2v1.37h6.34v2.94H59.24ZM62,267.54V266H59.24v1.54ZM59.24,270v1.57H62V270Z"/><path class="cls-2" d="M118.89,255.15V259H105.16v2.8h6.38V277.7H94.87V261.84H101V259H87.56v-3.89Zm-5.08,6.2h4v24.36h-4v-2H92.67v2.07H88.61v-24.4h4.06v18.41h21.14Zm-15.54,6.82h3v-2.94h-3Zm0,6.13h3v-3h-3Zm9.66-9.07h-3v2.94h3Zm0,6.09h-3v3h3Z"/><path class="cls-2" d="M142.5,284.35l-2.62-4.17a26.65,26.65,0,0,0,3.25-.56c4.48-1.05,8-4.27,8-9.38,0-4.83-2.62-8.44-7.35-9.24a70.12,70.12,0,0,1-2.1,9.48c-2.1,7.08-5.11,11.42-8.92,11.42s-7.11-4.27-7.11-10.19c0-8.09,7-15,16.07-15,8.68,0,14.14,6,14.14,13.65C155.84,277.77,151.32,283,142.5,284.35Zm-9.62-7.85c1.47,0,2.83-2.2,4.27-6.93A52.42,52.42,0,0,0,139,261.1a11,11,0,0,0-8.89,10.15C130.11,274.79,131.51,276.5,132.88,276.5Z"/><path class="cls-2" d="M189.45,252.84a4.19,4.19,0,0,1,0,8.37,1.68,1.68,0,0,1-.45,0c-.11.39-.18.74-.29,1.05-.8,3.43-2.3,8.86-5.25,12.74a28.06,28.06,0,0,1-14.07,9.7l-3.81-4.2c6.93-1.61,10.88-4.66,13.72-8.23a21.9,21.9,0,0,0,4.09-9.87H167.12c-1.61,0-3.29.07-4.17.14v-4.93a39.07,39.07,0,0,0,4.17.28h16.2a16.15,16.15,0,0,0,2-.14,4.45,4.45,0,0,1-.07-.67A4.21,4.21,0,0,1,189.45,252.84Zm0,6.2a2,2,0,1,0-2-2A2,2,0,0,0,189.45,259Z"/><path class="cls-2" d="M204.94,258h19.25c.88,0,2.21,0,3.47-.07-.07,1.05-.07,2.35-.07,3.4v17.15c0,1.37.07,4.73.07,4.87h-4.83c0-.07,0-.88,0-1.89H206c0,1,0,1.78,0,1.89h-4.83c0-.18.11-3.22.11-4.9V261.28c0-1,0-2.42-.07-3.4C202.66,257.92,204,258,204.94,258Zm1.05,19H222.9V262.4H206Z"/><path class="cls-2" d="M255.69,258.83A83.34,83.34,0,0,0,254,272a34.63,34.63,0,0,0,.21,3.75c.6-1.44,1.3-3.15,1.86-4.45l1.75,1.4c-.91,2.66-2.14,6.41-2.49,8.16a6.84,6.84,0,0,0-.17,1.61c0,.35,0,.88.07,1.3L252,284a44.53,44.53,0,0,1-1.29-11.31c0-5.22,1.12-11.17,1.5-14a26.51,26.51,0,0,0,.32-2.9l3.88.35A26.32,26.32,0,0,0,255.69,258.83Zm8.36,17.53c0,1.58,1.23,2.88,5.46,2.88a37.36,37.36,0,0,0,8.72-.95l.07,3.75a48.08,48.08,0,0,1-8.86.7c-5.95,0-8.68-2.07-8.68-5.46a17.7,17.7,0,0,1,.6-4.31l3.15.28A11.94,11.94,0,0,0,264.05,276.36Zm13.16-17.67v3.57a89.7,89.7,0,0,1-14.66,0l0-3.57A64.5,64.5,0,0,0,277.21,258.69Z"/><path class="cls-2" d="M297.81,259.88a34,34,0,0,0,5.15-1.19l.11,3.22a48,48,0,0,1-6.27,1.26,63,63,0,0,1-7.6,14.88l-3.36-1.72a52.34,52.34,0,0,0,7.35-12.78c-.87,0-1.71.07-2.55.07-1.33,0-2.8,0-4.2-.1l-.25-3.26c1.37.14,3.05.21,4.45.21,1.15,0,2.38,0,3.6-.14a28.27,28.27,0,0,0,1-6l3.85.38C298.83,256,298.34,257.92,297.81,259.88Zm9.53,9.8c0,1.15.14,3.18.24,5.18a22.89,22.89,0,0,1,7.25,4.41l-1.86,3a27,27,0,0,0-5.25-3.92v1c0,3-1.78,5.39-6.4,5.39-4.07,0-7.36-1.75-7.36-5.39,0-3.3,3-5.61,7.32-5.61a19.92,19.92,0,0,1,3,.25c-.1-2.77-.27-6.06-.34-8.37h3.43C307.27,267.05,307.3,268.28,307.34,269.68Zm-6.48,11.83c2.66,0,3.54-1.47,3.54-3.36,0-.31,0-.73,0-1.19a12.22,12.22,0,0,0-3.26-.46c-2.31,0-3.88,1.06-3.88,2.49S298.48,281.51,300.86,281.51Zm4.87-19.5,1.78-2.69a62,62,0,0,1,8.4,4.69l-2,2.9A45,45,0,0,0,305.73,262Z"/><path class="cls-2" d="M328.31,256.66c1.82,0,9.8-.21,11.69-.39a10.33,10.33,0,0,0,2.24-.31l1.92,2.52A26,26,0,0,0,342,260c-1.79,1.33-6.09,5-8.58,7a14.49,14.49,0,0,1,4.2-.59c5.85,0,10.19,3.6,10.19,8.5,0,5.57-4.45,9.56-12.32,9.56-4.83,0-8.05-2.13-8.05-5.32,0-2.59,2.31-4.94,5.77-4.94a6.91,6.91,0,0,1,7.28,6.13,5.68,5.68,0,0,0,3.71-5.5c0-3.29-3.22-5.67-7.59-5.67-5.6,0-8.89,2.63-13,7L321,273.6c2.73-2.24,7.11-5.92,9.17-7.63s6-5,7.77-6.51c-1.85.07-7.91.35-9.73.45-.87,0-1.78.11-2.59.21l-.1-3.6A26.65,26.65,0,0,0,328.31,256.66Zm6.51,24.64a17.82,17.82,0,0,0,2.48-.14c-.28-2.55-1.82-4.34-4.13-4.34a2.32,2.32,0,0,0-2.55,2C330.62,280.36,332.33,281.3,334.82,281.3Z"/><path class="cls-2" d="M361.68,275.94c0,2.49,2.45,4.24,7.81,4.24a44.75,44.75,0,0,0,12.11-1.4l0,3.85a49.82,49.82,0,0,1-12,1.23c-7.53,0-11.59-2.49-11.59-7.08a21.63,21.63,0,0,1,.7-4.93l3.61.31A12.52,12.52,0,0,0,361.68,275.94Zm7.95-17.74c3.39,0,7.17-.25,9.76-.49v3.64c-2.41.17-6.47.42-9.73.42-3.57,0-6.61-.18-9.41-.39v-3.64A79.11,79.11,0,0,0,369.63,258.2Z"/><path class="cls-2" d="M401.7,265.27c3.08-1.86,6.55-3.57,8.37-4.59a20,20,0,0,0,2.8-1.85l1.92,3.18c-.91.56-1.89,1.09-3,1.65-2.31,1.19-7,3.36-10.29,5.53-3.08,2-5,4.23-5,6.79,0,2.73,2.63,4.34,7.84,4.34a51.84,51.84,0,0,0,11.31-1.26l0,4a66.73,66.73,0,0,1-11.13.84c-6.75,0-11.72-1.92-11.72-7.53,0-3.71,2.38-6.58,6-9.1-1.61-2.94-3.36-6.89-5-10.64l3.47-1.43A81.81,81.81,0,0,0,401.7,265.27Z"/><path class="cls-2" d="M430.23,258.83A83.34,83.34,0,0,0,428.51,272a34.63,34.63,0,0,0,.21,3.75c.6-1.44,1.3-3.15,1.86-4.45l1.75,1.4c-.91,2.66-2.14,6.41-2.49,8.16a6.84,6.84,0,0,0-.17,1.61c0,.35,0,.88.07,1.3l-3.19.21a44.53,44.53,0,0,1-1.29-11.31c0-5.22,1.12-11.17,1.5-14a26.51,26.51,0,0,0,.32-2.9l3.88.35A26.32,26.32,0,0,0,430.23,258.83Zm8.36,17.53c0,1.58,1.23,2.88,5.46,2.88a37.36,37.36,0,0,0,8.72-.95l.07,3.75a48.08,48.08,0,0,1-8.86.7c-6,0-8.68-2.07-8.68-5.46a17.7,17.7,0,0,1,.6-4.31l3.15.28A11.94,11.94,0,0,0,438.59,276.36Zm13.16-17.67v3.57a89.7,89.7,0,0,1-14.66,0l0-3.57A64.5,64.5,0,0,0,451.75,258.69Z"/><path class="cls-2" d="M487.51,266.56v3.75h3.82v3h-3.82v8.33c0,1.75-.38,2.7-1.57,3.26a19.09,19.09,0,0,1-5.78.52,13.09,13.09,0,0,0-1-3.25c2,.07,3.85.07,4.41,0s.73-.14.73-.63v-8.26H472.11v-1.86l-3.36,1.05v12.92h-3v-12l-5.53,1.64-.84-3.11c1.75-.42,4-1,6.37-1.72v-7h-2.83a30.24,30.24,0,0,1-1.44,4.79,25.69,25.69,0,0,0-2.35-1.47c1.19-2.83,1.86-7.24,2.17-11.41l2.8.49c-.17,1.51-.34,3.05-.63,4.52h2.28v-6.83h3v6.83H472v3.08h-3.26v6.19l3.68-1.08.28,2h11.58v-3.75H471.45v-3h8.61v-3.81h-6.55V256.8h6.55v-3.5h3.22v3.5H490v2.94h-6.75v3.81h8.33v3Zm-11.37,7.32a24.87,24.87,0,0,1,4.3,5.39L477.85,281a25.21,25.21,0,0,0-4.16-5.57Z"/><path class="cls-2" d="M510.69,254.91a50.21,50.21,0,0,1-3.78,7.17V285.4h-3.25V266.67a39.74,39.74,0,0,1-4.06,4.41,22.28,22.28,0,0,0-2-3.4,38,38,0,0,0,9.88-13.82Zm14.63,27c1.82,0,2.07-1.22,2.35-6.23a9.62,9.62,0,0,0,3,1.4c-.42,5.81-1.36,7.88-5.18,7.88h-6.61c-4,0-5.11-1.19-5.11-5.43V254.17h3.25V266.7a55.57,55.57,0,0,0,9.73-6.75l2.35,2.83A84.67,84.67,0,0,1,517.06,270v9.56c0,2,.35,2.34,2.17,2.34Z"/><path class="cls-2" d="M544.45,259.25c-.18,3.88-.42,12-.42,16.8,0,3.71,2.27,5,5.32,5,6.12,0,9.8-3.46,12.32-7.21l2.48,3.05a17.78,17.78,0,0,1-14.87,7.84c-5.33,0-8.9-2.28-8.9-8.09,0-5,.36-14,.36-17.36a20.57,20.57,0,0,0-.39-4.06l4.48,0A31.16,31.16,0,0,0,544.45,259.25Z"/><path class="cls-2" d="M583.09,258c-.1.59-.24,1.29-.42,2.06a61.25,61.25,0,0,0,6.34-1.22v3.46a61.87,61.87,0,0,1-7,1.19c-.35,1.51-.73,3.12-1.12,4.59a105.73,105.73,0,0,1-5.53,16.1l-3.81-1.29c2.06-3.57,4.62-10.79,6-15.69.28-1.08.56-2.24.84-3.39-1,0-2,.07-2.84.07-1.61,0-2.9,0-4.16-.14l-.07-3.43a32.93,32.93,0,0,0,4.27.28c1.08,0,2.27,0,3.5-.14.17-1.05.35-2,.42-2.63a14.62,14.62,0,0,0,.14-3.15l4.2.32C583.55,255.85,583.23,257.29,583.09,258Zm4.2,19.32c0,1.58,1,3,5.43,3a39.55,39.55,0,0,0,7-.7l-.11,3.54a54.89,54.89,0,0,1-6.93.49c-5.7,0-8.78-1.86-8.78-5.32a20.89,20.89,0,0,1,.59-4.38l3.26.31A12.91,12.91,0,0,0,587.29,277.31Zm5.78-12a59.16,59.16,0,0,1,6.12.28l-.1,3.36a45.17,45.17,0,0,0-6-.45,60.2,60.2,0,0,0-6.62.38v-3.25C588.41,265.44,590.83,265.3,593.07,265.3Z"/><path class="cls-2" d="M122,317.88c0,1.19-.1,2.35-.17,3.43h7.56a15.23,15.23,0,0,0,2.41-.21l2.45,1.19c-.1.6-.21,1.37-.24,1.79-.11,3.53-.56,13.55-2.1,17-.74,1.61-1.93,2.38-4.06,2.38-1.89,0-3.92-.11-5.71-.25l-.42-3.67a41.09,41.09,0,0,0,5.08.42,1.85,1.85,0,0,0,2-1.19c1.19-2.45,1.65-10.37,1.65-14.15h-9c-1.29,9.73-4.75,15.09-10.78,19.33l-3.22-2.63a18.65,18.65,0,0,0,4-2.94c3.39-3.19,5.53-7.42,6.4-13.76h-5.32c-1.29,0-2.94,0-4.27.14V321.1c1.33.11,2.91.21,4.27.21h5.64c.07-1.05.1-2.17.1-3.36a22.31,22.31,0,0,0-.24-3h4.1C122.09,315.75,122,317,122,317.88Z"/><path class="cls-2" d="M149.14,318.76v11.72c0,.91.07,2.14.14,2.84h-4c0-.6.14-1.82.14-2.84V318.76a23.74,23.74,0,0,0-.14-2.59h4C149.21,316.9,149.14,317.78,149.14,318.76Zm16.24.35v6.23c0,8-1.26,11-3.85,13.93-2.27,2.66-5.81,4.27-8.36,5.11l-2.91-3a16.31,16.31,0,0,0,8.4-4.55c2.45-2.81,2.91-5.54,2.91-11.66v-6a28.16,28.16,0,0,0-.21-3.22h4.17C165.45,316.8,165.38,317.85,165.38,319.11Z"/><path class="cls-2" d="M185.05,315.33l3.92-.63c.1.66.21,1.75.38,2.52.07.42.32,1.75.67,3.57,3.18-.53,6.16-1,7.52-1.3,1.09-.21,2.17-.45,2.87-.66l.67,3.67c-.63.07-1.82.25-2.8.39l-7.63,1.19c.38,2,.8,4.23,1.22,6.4,3.4-.56,6.51-1.08,8.19-1.4,1.33-.28,2.49-.52,3.29-.77l.74,3.68c-.81.07-2.07.31-3.4.52-1.82.28-4.9.77-8.15,1.3.63,3.15,1.12,5.78,1.33,6.72s.56,2.24.91,3.29l-4,.74c-.17-1.26-.28-2.38-.49-3.43-.14-.88-.66-3.5-1.26-6.76-3.81.63-7.35,1.22-9,1.54a31.34,31.34,0,0,0-3.26.67l-.8-3.75c.87,0,2.34-.21,3.32-.35,1.72-.25,5.29-.81,9.07-1.4-.42-2.17-.84-4.41-1.23-6.44-3.22.52-6.12,1-7.35,1.22-1,.18-1.89.35-3,.63l-.73-3.85c1-.07,2-.14,3-.24,1.3-.14,4.2-.56,7.39-1-.35-1.75-.6-3-.7-3.5A19.7,19.7,0,0,0,185.05,315.33Z"/><path class="cls-2" d="M232.2,327.3c-.28,2.24-1.26,8.78-1.75,12h2.94c.8,0,2.24-.07,3-.14v3.57c-.66,0-2.13-.07-3-.07H214.59c-1.16,0-2,0-3.15.07v-3.6a29.79,29.79,0,0,0,3.15.17H226.7c.49-3,1.4-9,1.51-11h-10.4c-1.05,0-2.17.07-3.12.11v-3.64c.88.1,2.21.17,3.08.17h9.95a6.93,6.93,0,0,0,2.1-.28l2.66,1.3C232.37,326.42,232.27,327,232.2,327.3Z"/><path class="cls-2" d="M270.13,327.16A24.68,24.68,0,0,1,265,337a25.85,25.85,0,0,1-12.53,7.46l-2.73-3.15A23.52,23.52,0,0,0,262,335a16.43,16.43,0,0,0,3.89-7H248c-.84,0-2.38,0-3.71.14v-3.64c1.37.14,2.7.25,3.71.25H266a6.74,6.74,0,0,0,2.24-.32l2.49,1.54A6.18,6.18,0,0,0,270.13,327.16Zm-19.25-10.68h13.61c1.12,0,2.56-.07,3.43-.17v3.6c-.87-.07-2.27-.1-3.46-.1H250.88c-1.12,0-2.38,0-3.36.1v-3.6A33.46,33.46,0,0,0,250.88,316.48Z"/><path class="cls-2" d="M290.61,320c-1.05,3.32-4.23,13.23-6,17.85,4.76-.42,10.67-1.08,14.42-1.57a46.21,46.21,0,0,0-4-6.83l3.39-1.47a101.64,101.64,0,0,1,7.71,14.39l-3.71,1.68c-.46-1.23-1.09-2.77-1.83-4.38-5.56.67-16.76,1.89-21.31,2.31l-3.08.42-.63-4.06c1.08,0,2.45,0,3.5-.07.42,0,.91,0,1.43-.07,2-5,5.29-15.47,6.27-19a22,22,0,0,0,.77-3.64l4.37.91C291.56,317.43,291.14,318.48,290.61,320Z"/><path class="cls-2" d="M323.91,318.62a80.59,80.59,0,0,0,10.29-1v3.26a109.37,109.37,0,0,1-11.51.91,28.31,28.31,0,0,1-2.7,4.62,10.24,10.24,0,0,1,4.48-1.05,4.6,4.6,0,0,1,4.69,3c2.17-1,4-1.75,5.6-2.52,1.19-.52,2.21-1,3.33-1.54l1.43,3.22c-1,.32-2.52.88-3.57,1.3-1.78.7-4.06,1.61-6.51,2.73,0,2,.07,4.8.11,6.48h-3.33c.07-1.23.11-3.23.14-4.94-3,1.64-4.9,3.26-4.9,5.32,0,2.38,2.28,2.87,5.81,2.87a59.55,59.55,0,0,0,9.73-.91l-.1,3.54a90.4,90.4,0,0,1-9.73.63c-5.22,0-9.28-1.23-9.28-5.57s4.2-7,8.26-9.1a2.8,2.8,0,0,0-2.87-1.75,8.93,8.93,0,0,0-5.81,2.52,38,38,0,0,0-3.18,3.74l-3-2.24a35.28,35.28,0,0,0,7.91-10.22h-1c-1.47,0-3.88-.07-5.84-.21v-3.29a45.22,45.22,0,0,0,6,.39c.66,0,1.36,0,2.06,0a17.13,17.13,0,0,0,.81-4.16l3.64.28C324.65,315.82,324.37,317.11,323.91,318.62Z"/><path class="cls-2" d="M353.33,332.48v9.07c0,1.61-.32,2.48-1.23,3s-2.34.63-4.55.63a10.1,10.1,0,0,0-.88-3c1.41,0,2.7,0,3.09,0s.59-.14.59-.63v-8.13l-3.68,1.12-.73-3.15c1.22-.31,2.76-.73,4.41-1.19v-7h-4.06v-3h4.06V313.4h3v6.76H357v3h-3.71v6.16l3.36-1,.45,2.94ZM369,342a20.21,20.21,0,0,0,2.94.17c1,0,5.5,0,6.83,0a9.82,9.82,0,0,0-.91,2.87h-6c-4.87,0-8.51-.88-10.78-5.5a15.22,15.22,0,0,1-4,6,14.8,14.8,0,0,0-2.41-2c3-2.42,4.51-6.34,5.07-11.28l2.94.35a35,35,0,0,1-.66,3.68,7.91,7.91,0,0,0,3.92,4.83V330.87h-8.4v-2.66h20.23v2.66H369v3.64h7v2.59h-7Zm6.93-15.9H359.17V314.45H375.9Zm-3.11-9.2H362.15v2.27h10.64Zm0,4.48H362.15v2.31h10.64Z"/><path class="cls-2" d="M395.52,314.38a53.84,53.84,0,0,1-3.47,7.28v23.77h-3.18V326.67A39.68,39.68,0,0,1,386,330.2a23.77,23.77,0,0,0-1.78-3.32,38.59,38.59,0,0,0,8.29-13.48Zm7.77,22.93a30.82,30.82,0,0,1-6.79,8.05,23,23,0,0,0-2.59-2.06,22.7,22.7,0,0,0,6.3-7Zm13.62-5.85v3.19H394.36v-3.19h5v-7.87h-4.2v-3.12h4.2v-6.79h3.19v6.79h6v-6.86h3.19v6.86h4.76v3.12H411.8v7.87Zm-14.32,0h6v-7.87h-6Zm8,4.94a42.09,42.09,0,0,1,6,7.32l-2.73,1.75a39.72,39.72,0,0,0-5.91-7.63Z"/><path class="cls-2" d="M431,319.25c-.18,3.88-.42,12-.42,16.8,0,3.71,2.27,5,5.32,5,6.12,0,9.8-3.46,12.32-7.21l2.48,3.05a17.78,17.78,0,0,1-14.87,7.84c-5.32,0-8.9-2.28-8.9-8.09,0-5,.36-14,.36-17.36a20.57,20.57,0,0,0-.39-4.06l4.48,0A31.16,31.16,0,0,0,431,319.25Z"/><path class="cls-2" d="M474.53,317.08c0,.42,0,1.08-.08,1.85a75.65,75.65,0,0,0,9.21-1v3.22c-2.59.32-5.84.63-9.24.77v4.34c3.47-.14,6.55-.45,9.59-.87l0,3.25c-3.22.39-6.13.63-9.49.77.07,1.61.17,3.29.25,4.87a28,28,0,0,1,10,5.36l-2,3.11a26.88,26.88,0,0,0-7.84-5.11c0,.74.07,1.33.07,1.82,0,2.66-1.93,5.08-6.51,5.08-5.25,0-8.09-2-8.09-5.46s3.12-5.64,8.33-5.64c.91,0,1.75.07,2.59.14,0-1.37-.1-2.8-.14-4.1h-1.92c-2.24,0-6.13-.17-8.54-.45l0-3.29a69.38,69.38,0,0,0,8.65.63h1.78v-4.31h-1.43c-2.31,0-6.51-.35-8.79-.63l0-3.18a63.28,63.28,0,0,0,8.78.77h1.51V316.9a11.47,11.47,0,0,0-.18-2.2h3.75C474.63,315.33,474.56,316.1,474.53,317.08ZM468,341.44c2,0,3.47-.59,3.47-2.83,0-.49,0-1.19,0-2a16,16,0,0,0-3.19-.31c-3,0-4.59,1.16-4.59,2.56S465,341.44,468,341.44Z"/><path class="cls-2" d="M512.13,317.32c0,.42,0,1.05,0,1.75h10.5l-.07,3.29c-2.07-.1-5.39-.17-10.47-.17,0,1.89,0,3.92,0,5.49a8.67,8.67,0,0,1,1.22,4.66c0,4.66-2.48,10.15-10.78,12.57l-3-2.94c4.13-.91,7.35-2.45,9-5.15a5.48,5.48,0,0,1-2.45.53,5.85,5.85,0,0,1-5.88-6.1,6.32,6.32,0,0,1,6.51-6.3,6.84,6.84,0,0,1,2,.25c0-.91,0-2,0-3-5.32.07-11.06.28-15.4.56l-.1-3.36c3.95-.07,10.46-.24,15.47-.31,0-.77,0-1.37-.07-1.79-.11-1.12-.21-2.2-.28-2.55h4A21.22,21.22,0,0,0,512.13,317.32Zm-5.39,17c1.82,0,3.19-1.44,2.73-4.73a2.89,2.89,0,0,0-2.73-1.68,3.15,3.15,0,0,0-3.18,3.29A3.07,3.07,0,0,0,506.74,334.3Z"/><path class="cls-2" d="M540.73,339.59a5.48,5.48,0,0,1-11,0,5.48,5.48,0,1,1,11,0Zm-2.1,0a3.36,3.36,0,1,0-3.36,3.36A3.36,3.36,0,0,0,538.63,339.59Z"/></g></g></svg>