<svg xmlns="http://www.w3.org/2000/svg" viewBox="0 0 665.31 73.39"><defs><style>.cls-1{fill:#fff;}.cls-2{fill:#e75513;}</style></defs><g id="レイヤー_2" data-name="レイヤー 2"><g id="bg"><path class="cls-1" d="M22.19,17.57h-10v5.75H9.77V17.57H0V15.35H9.77V13.7h1.6a11.38,11.38,0,0,0-1.55-1.28A11.43,11.43,0,0,0,15.25,5.8l2.35.45a14.48,14.48,0,0,1-1.13,2.6,44.65,44.65,0,0,1,5.12,3.87L20,14.45a43.74,43.74,0,0,0-4.7-3.78,14.42,14.42,0,0,1-3.12,3h0v1.65h10ZM8.87,12.67a27.56,27.56,0,0,0-2.8-2.32,15.93,15.93,0,0,1-4,4.27A14.67,14.67,0,0,0,.2,13.07,13,13,0,0,0,5.65,5.75L8,6.27a20.67,20.67,0,0,1-1,2.33A30.18,30.18,0,0,1,10.27,11Zm12.6-7H.65V3.45H9.77V.4h2.4V3.45h9.3Z"/><path class="cls-1" d="M41.51,17.55A22.91,22.91,0,0,0,50,20.94,10.52,10.52,0,0,0,48.43,23a22.39,22.39,0,0,1-8.94-4.7v5H37.21V18.5A24.87,24.87,0,0,1,28.34,23a10.23,10.23,0,0,0-1.53-2,24.14,24.14,0,0,0,8.43-3.47H27.51v-2h9.7V14.07H29.84V12.32h7.37v-1.5h-8.6V9h5.13A12.52,12.52,0,0,0,32.69,6.7l.6-.1H27.61V4.65h3.7a18.43,18.43,0,0,0-1.82-3.38l2-.67a17.12,17.12,0,0,1,2,3.57l-1.27.48H35V.38h2.17V4.65h2.48V.38h2.2V4.65h2.7l-.95-.3A22.37,22.37,0,0,0,45.34.65l2.39.6a39.43,39.43,0,0,1-2.07,3.4h3.6V6.6H44.44C44,7.45,43.46,8.27,43,9h5.29v1.85H39.49v1.5h7.67v1.75H39.49V15.6h9.84v2Zm-6.42-11a10.1,10.1,0,0,1,1.07,2.22L35.44,9h5.27a20.85,20.85,0,0,0,1.1-2.37Z"/><path class="cls-1" d="M77.18,20.32v2.25H55V20.32h9.89V14.57H57.76V12.35h7.12v-5H59.34a21.54,21.54,0,0,1-2.48,3.87,15.27,15.27,0,0,0-2.12-1.4,21.55,21.55,0,0,0,4.52-9l2.4.55c-.37,1.28-.82,2.55-1.3,3.75h4.52V.42h2.4V5.07H76V7.35h-8.7v5h7.78v2.22H67.28v5.75Z"/><path class="cls-1" d="M91.39,3.62c-.15.78-.38,2-.6,3.15,1-.1,1.95-.15,2.52-.15,2.4,0,4.25,1,4.25,4.48,0,3-.37,7-1.42,9.07a3.75,3.75,0,0,1-3.85,2.2,13.87,13.87,0,0,1-3-.38l-.42-2.59a13.68,13.68,0,0,0,3.07.5A2,2,0,0,0,94,18.72c.75-1.57,1.1-4.75,1.1-7.35,0-2.15-1-2.52-2.55-2.52-.52,0-1.35.05-2.27.15-.93,3.67-2.7,9.45-5.18,13.44l-2.57-1c2.5-3.37,4.3-8.77,5.17-12.17-1.12.12-2.15.25-2.72.32s-1.8.23-2.47.35l-.25-2.7c.82,0,1.57,0,2.42,0S86.84,7.1,88.24,7a28.47,28.47,0,0,0,.6-5.37l2.92.3C91.64,2.42,91.51,3.07,91.39,3.62Zm10.94.88-1.59.67a44.29,44.29,0,0,1,4.12,8.45l-2.47,1.18A28.8,28.8,0,0,0,98,5.65l2.32-1a1.3,1.3,0,0,1,.1.15,22.72,22.72,0,0,0-1.77-3l1.62-.67A33.07,33.07,0,0,1,102.33,4.5Zm2.9-1.1-1.62.72A26,26,0,0,0,101.54.67L103.16,0A36.86,36.86,0,0,1,105.23,3.4Z"/><path class="cls-2" d="M132,2.27V4.8H110.14V2.27h9.25V.17h3v2.1Zm-.79,18.13c0,1.37-.28,2.17-1.25,2.62a10,10,0,0,1-4,.47,8.53,8.53,0,0,0-.58-2h-6.45v1.13h-2.6V15.9h9.55v4.84c.85,0,1.63,0,1.9,0s.48-.09.48-.4V14.77H114v8.77h-2.9V12.3h20Zm-3.3-14.65v5.5H114.24V5.75Zm-3,2h-7.8V9.25h7.8Zm-1.67,10.15h-4.33V19.5h4.33Z"/><path class="cls-2" d="M159.27,19.45h-9.82v4.07h-3V19.45h-9.65V16.7h9.65V15.07H139V4.55h2.1A26,26,0,0,0,139,1.47L141.52.3a21.09,21.09,0,0,1,2.53,3.5l-1.55.75h4.42a16.33,16.33,0,0,0-1.87-3.45l2.67-1a18.63,18.63,0,0,1,2.2,3.72l-1.8.73H152A23,23,0,0,0,154.3.2l3.32,1c-.75,1.2-1.57,2.4-2.32,3.4h2V15.07h-7.82V16.7h9.82ZM146.4,7h-4.58V8.65h4.58Zm0,5.65v-1.7h-4.58v1.7ZM154.2,7h-4.75V8.65h4.75Zm0,4h-4.75v1.7h4.75Z"/><path class="cls-2" d="M170.89,1.1A42.47,42.47,0,0,1,168.64,6v17.5h-2.8v-13a19.51,19.51,0,0,1-1.52,1.85,24.19,24.19,0,0,0-1.52-3A26.1,26.1,0,0,0,168.22.25Zm11,4.2V8.42h4.22V22.84h-2.85V21.57h-9.9V23h-2.75V8.42h4V5.3h-4.28V2.65h15.87V5.3ZM173.34,19h1.55V11h-1.55Zm4-8v8h1.68V11Zm1.68-5.7h-1.65V8.42h1.65Zm4.17,5.7h-1.67v8h1.67Z"/><path class="cls-2" d="M206.44,17.92a24.84,24.84,0,0,0,8.35,2.82,13.5,13.5,0,0,0-1.9,2.53,22.89,22.89,0,0,1-8.72-4.2v4.45h-2.95v-4.3a22.17,22.17,0,0,1-8.52,4.07,11.39,11.39,0,0,0-1.83-2.4,23.9,23.9,0,0,0,8.25-3H191.5V15.47h9.72V13.92a55.2,55.2,0,0,1-7.67,1,7.47,7.47,0,0,0-1-2.3,49.6,49.6,0,0,0,7.83-.88c-.8-.17-1.6-.37-2.35-.52l-.33.37-2.82-.77c.6-.65,1.25-1.45,1.95-2.3h-4.93V6.17h6.7c.48-.65.95-1.27,1.35-1.85h-5.12V5.7H192.1V1.87h9.17V.22h3V1.87h9.25V5.7h-2.87V4.32H200.57l2.27.68L202,6.17h11.67V8.5h-4.4a7.44,7.44,0,0,1-1.93,2.7c2,.57,3.88,1.15,5.28,1.67L210.84,15a54.93,54.93,0,0,0-6.2-2.1,16.07,16.07,0,0,1-2.79.9h2.32v1.7h10v2.45Zm-6.89-8.55c1.45.28,3,.63,4.64,1a5.32,5.32,0,0,0,1.88-1.9h-5.85Z"/><path class="cls-2" d="M226.55,1.2a43,43,0,0,1-2.45,5.32v17h-2.83V11c-.5.62-1,1.25-1.5,1.8a19.8,19.8,0,0,0-1.59-3.1A26.38,26.38,0,0,0,223.72.3Zm15.14,14H235.3v8.39h-3V15.15h-6.75v-2.9h6.75V8h-3.05a17.59,17.59,0,0,1-1.55,3.22,18.44,18.44,0,0,0-2.58-1.42,22.88,22.88,0,0,0,2.95-8.18l2.88.6c-.2,1-.45,1.93-.73,2.88h2.08V.52h3V5.05h5.22V8H235.3v4.3h6.39Z"/><path class="cls-2" d="M256.54,3.82a63.34,63.34,0,0,0,7.07-.72l0,2.9a73.38,73.38,0,0,1-8.15.62A16.51,16.51,0,0,1,254,9.17a8.46,8.46,0,0,1,2.82-.5,3.38,3.38,0,0,1,3.32,1.93c1.3-.6,2.35-1,3.38-1.48s1.85-.82,2.77-1.3l1.25,2.9c-.8.23-2.12.73-3,1-1.13.45-2.55,1-4.08,1.7,0,1.4.08,3.25.1,4.4h-3c.07-.75.09-2,.12-3.05-1.87,1.08-2.87,2.05-2.87,3.3s1.17,1.75,3.62,1.75a40.46,40.46,0,0,0,7.1-.7l-.1,3.22a61.34,61.34,0,0,1-7.07.43c-3.93,0-6.83-.95-6.83-4.17s3-5.2,5.85-6.68a1.94,1.94,0,0,0-1.75-.85,6.07,6.07,0,0,0-3.9,1.73,28.8,28.8,0,0,0-2.32,2.75l-2.68-2a24.63,24.63,0,0,0,5.53-6.9H252c-1,0-2.85,0-4.22-.15V3.62a32.42,32.42,0,0,0,4.4.3h1.2a14.2,14.2,0,0,0,.5-2.87l3.3.27A23.86,23.86,0,0,1,256.54,3.82Z"/><path class="cls-2" d="M276.17,15.2a21,21,0,0,1-1.48,6.42,13.21,13.21,0,0,0-2.07-1,18.6,18.6,0,0,0,1.28-5.8Zm20.24,7.22H285.19v1h-2.77V13.72l-1.88.83a12.7,12.7,0,0,0-.32-1.43l-1.28.1V23.54h-2.5V13.42l-3.29.25-.3-2.57c.59,0,1.24-.08,2-.1.32-.45.67-.95,1-1.45a21.67,21.67,0,0,0-2.9-3.63L274.34,4c.2.17.4.37.6.57a30.44,30.44,0,0,0,1.8-4.35l2.53.88c-.9,1.72-1.93,3.7-2.8,5.1.3.35.57.7.8,1,.82-1.4,1.57-2.85,2.15-4.07l2.35,1.07c-.93,1.53-2,3.2-3.1,4.78l1.95-.8a26.52,26.52,0,0,1,1.8,4.55V1.15h2.77V15.6a16,16,0,0,0,3.5-5h-3V8h3.73V.7H292V8h3.92V10.6H292V11c1.07.93,3.65,3.53,4.25,4.18l-1.75,2.3A39.44,39.44,0,0,0,292,14v5.37h-2.57V14.12a16.12,16.12,0,0,1-3.05,4.33,14.42,14.42,0,0,0-1.18-2.65v3.92h11.22Zm-17-11.7A17.1,17.1,0,0,0,278.67,9c-.45.65-.88,1.27-1.33,1.85Zm1.6,4a18.1,18.1,0,0,1,1.27,4.5l-2.07.68a19.58,19.58,0,0,0-1.15-4.6Zm6-7.07a22,22,0,0,0-1.42-4.83l2.1-.72a19.83,19.83,0,0,1,1.57,4.75Zm9.07-5c-.7,1.75-1.47,3.75-2.1,5L292,7a32.34,32.34,0,0,0,1.53-5.13Z"/><path class="cls-2" d="M304.43,15.22A23.07,23.07,0,0,1,303,21.67a11.77,11.77,0,0,0-2.17-1.05,18.6,18.6,0,0,0,1.28-5.8Zm2.9-2V23.54h-2.55V13.4l-3.47.27L301,11.1l1.79-.1c.38-.45.75-.95,1.13-1.48A23.51,23.51,0,0,0,301.08,6l1.45-2c.17.18.37.35.57.53A30.73,30.73,0,0,0,304.9.22l2.58.9a55.6,55.6,0,0,1-2.83,5.1,12.39,12.39,0,0,1,.8,1,38.91,38.91,0,0,0,2.25-4.05l2.43,1.12c-1.38,2.1-3.08,4.58-4.65,6.58l2.17-.13c-.25-.55-.52-1.1-.8-1.6l2.1-.87a25.56,25.56,0,0,1,1.73,3.67V9.57H324.4v4.95h-2.6V11.87h-8.65v2.65h-2.47v-.75l-1.73.8c-.07-.42-.22-.92-.37-1.47Zm2.3,1.52a18.31,18.31,0,0,1,1.27,4.4l-2.2.73a19.48,19.48,0,0,0-1.15-4.5Zm4.05-1.6h2.67v2A8.7,8.7,0,0,1,311,23.57a14.15,14.15,0,0,0-2-2c4.1-1.94,4.68-4.69,4.68-6.52Zm2.25-8.55h-5.18V2.15h5.18V.2h2.95v2h5.27V4.57h-5.27V6h4.54v2.4H311.65V6h4.28Zm6.12,16.22c.35,0,.47-.39.53-3.09A6.72,6.72,0,0,0,325,18.8c-.25,3.57-.93,4.49-2.62,4.49h-1.6c-2.13,0-2.58-.8-2.58-3.27v-6.9h2.68V20c0,.67.05.77.37.77Z"/><path class="cls-2" d="M351.9,4.05s0,1,0,1.35c-.33,11.17-.6,15.14-1.62,16.47a3.33,3.33,0,0,1-2.4,1.37,27.33,27.33,0,0,1-3.93.05,7,7,0,0,0-1-2.89c1.6.14,3.07.14,3.72.14a1.34,1.34,0,0,0,1.1-.42c.73-.8,1.05-4.55,1.33-13.37h-5.35a22,22,0,0,1-2.2,3.95,17.48,17.48,0,0,0-1.93-1.4V21H333v1.82h-2.7V4.22h2.82a26.27,26.27,0,0,0,.73-4l3.25.45c-.43,1.25-.88,2.5-1.3,3.57h3.87V8.27a25.93,25.93,0,0,0,3.38-8l2.85.65c-.28,1.08-.6,2.13-1,3.18Zm-15,2.77h-4v4h4Zm0,11.53v-4.9h-4v4.9Zm8.3-1.35a54.74,54.74,0,0,0-3.47-5.78l2.32-1.32a60.82,60.82,0,0,1,3.68,5.55Z"/><path class="cls-2" d="M362.23,4.45a66.89,66.89,0,0,0-1.2,9.17,13,13,0,0,0,.1,1.63c.38-.85.78-1.73,1.13-2.55l1.55,1.22c-.7,2.08-1.53,4.8-1.8,6.12a7.15,7.15,0,0,0-.13,1.18c0,.27,0,.67.05,1l-2.9.2a31.92,31.92,0,0,1-1-8.17,69.06,69.06,0,0,1,1.05-9.9c.07-.7.22-1.65.25-2.45l3.5.3C362.66,2.75,362.33,4,362.23,4.45Zm6.18,12.22c0,1.1.95,1.78,3.5,1.78a29.54,29.54,0,0,0,6.27-.65l.05,3.37a35.48,35.48,0,0,1-6.45.47c-4.3,0-6.37-1.52-6.37-4.09a15.48,15.48,0,0,1,.42-3.25l2.88.27A8.55,8.55,0,0,0,368.41,16.67Zm9-12.8V7.1a67.69,67.69,0,0,1-10.75,0V3.9A51.4,51.4,0,0,0,377.46,3.87Z"/><path class="cls-2" d="M392.57,10.15a11.71,11.71,0,0,1-.95.92c-.33-.42-1-1.22-1.53-1.72a32.12,32.12,0,0,1,.25,4.42c0,3.53-.22,7-1.35,8.57a2.4,2.4,0,0,1-1.5,1,10.25,10.25,0,0,1-2.92.2,5.76,5.76,0,0,0-.73-2.85,14.54,14.54,0,0,0,2.28,0,1.06,1.06,0,0,0,.75-.42c.47-.6.67-3.05.7-5.85a22.17,22.17,0,0,1-2.78,3,10.55,10.55,0,0,0-1.92-2.25,16.09,16.09,0,0,0,4.52-5,16.72,16.72,0,0,0-.47-2.48,22.4,22.4,0,0,1-2,1.83,11.44,11.44,0,0,0-2-1.93A18.93,18.93,0,0,0,385.74,5a13.54,13.54,0,0,0-2.5-3.08L385.29.3a16.94,16.94,0,0,1,2.18,2.37,21.68,21.68,0,0,0,1.3-2.25l2.6,1.3-.08.15h3.1V.15h2.67V1.87h3.15V.15h2.7V1.87h3.38v2.2h-3.38v1h-1.47l-.65,1.12h4.7V8h-4.88V8.8h4.2v1.37h-4.2v.9h4.2v1.38h-4.2v.9h5.53V15.1H392.57ZM391.22,2A28.65,28.65,0,0,1,389,5.35,15.2,15.2,0,0,1,390,9.1a12.47,12.47,0,0,0,3.43-4.75l.92.25V4.07h-3.17Zm14.27,14.8a10.65,10.65,0,0,1-3.68,3.69,34.09,34.09,0,0,0,5.08.73,8.91,8.91,0,0,0-1.63,2.35,25.35,25.35,0,0,1-6.6-1.58,33.91,33.91,0,0,1-7.17,1.6,9.23,9.23,0,0,0-1.22-2.27,36.25,36.25,0,0,0,5.54-.83,11.1,11.1,0,0,1-2.17-1.92l1.55-.55h-3.47v-2.1h11.72l.45-.07ZM398,8h-2.87V8.8H398Zm0,2.2h-2.87v.9H398Zm0,2.28h-2.87v.9H398Zm-.95-8.38v1h-1.3a11.21,11.21,0,0,1-.52,1.12h2.85a9.3,9.3,0,0,0,.52-1.65l1.6.28V4.07Zm-.72,14a8.37,8.37,0,0,0,2.47,1.52A10.64,10.64,0,0,0,401.39,18Z"/><path class="cls-2" d="M419.18,6.8A25.88,25.88,0,0,1,417,10V23.52h-2.87V13.15a22.76,22.76,0,0,1-2.25,2,21.27,21.27,0,0,0-1.42-3.07,22.51,22.51,0,0,0,6.12-6.43Zm-.43-5.43a26.71,26.71,0,0,1-6.54,6.28,18.54,18.54,0,0,0-1.48-2.53,17.77,17.77,0,0,0,5.2-4.9ZM434,17.05h-3.42v3.54c0,1.38-.25,2.08-1.23,2.5a9.75,9.75,0,0,1-3.87.43,10.46,10.46,0,0,0-.93-2.65c1.05.05,2.23.05,2.55.05s.45-.13.45-.4V17.05h-5.25a25.48,25.48,0,0,1,2.85,3.12l-2.22,1.57A21.09,21.09,0,0,0,420,18.27l1.85-1.22h-3.5V14.52h9.15V13.1H419V10.67h14.47V13.1h-2.89v1.42h3.39ZM432.6,9.57H420.23V.92H432.6ZM429.6,3h-6.5V4.25h6.5Zm0,3.2h-6.5V7.5h6.5Z"/><path class="cls-2" d="M440.89,4.1c2.1-.18,6.23-.55,10.8-.93,2.57-.22,5.3-.37,7.07-.45l0,3.2a27,27,0,0,0-4.83.35,7.6,7.6,0,0,0-5.29,7c0,4.13,3.84,5.6,8.09,5.83l-1.17,3.42c-5.25-.35-10.2-3.15-10.2-8.57a10.05,10.05,0,0,1,3.72-7.73c-2.34.25-7.44.8-10.34,1.43l-.33-3.43C439.44,4.2,440.42,4.15,440.89,4.1Zm16.32,7.67-1.9.85a18.94,18.94,0,0,0-1.95-3.47l1.85-.78A29.94,29.94,0,0,1,457.21,11.77Zm2.9-1.22-1.87.9a22.45,22.45,0,0,0-2.05-3.38L458,7.22A35.32,35.32,0,0,1,460.11,10.55Z"/><path class="cls-2" d="M476.28,8.87c-.13-.3-.23-.6-.33-.87-.2-.58-.35-1-.5-1.48A57.63,57.63,0,0,1,467,6.3l-.17-2.88a52.64,52.64,0,0,0,7.82.38c-.25-.8-.5-1.6-.8-2.48L477.23,1c.12.9.27,1.77.45,2.62A28.31,28.31,0,0,0,482.6,2.5l.4,2.87a36.24,36.24,0,0,1-4.6.93c.13.4.25.8.38,1.17s.27.73.42,1.13a33.18,33.18,0,0,0,4.78-1l.5,3a33.56,33.56,0,0,1-4,.77,21.88,21.88,0,0,0,1.3,2.23,7.34,7.34,0,0,0,1.12,1.27l-1.52,2.3c-1.4-.27-4.1-.6-5.93-.8L475.7,14l3.15.3c-.52-.88-1-1.75-1.4-2.6a91.87,91.87,0,0,1-10.87,0l-.17-2.95A63.37,63.37,0,0,0,476.28,8.87Zm-6.17,8.38c0,1.85,1.75,2.6,5,2.6a32.1,32.1,0,0,0,6.28-.56l-.18,3.18a38.36,38.36,0,0,1-6.07.47c-5,0-8.1-1.47-8.15-5a8.27,8.27,0,0,1,1.08-4l3.1.6A4.71,4.71,0,0,0,470.11,17.25Z"/><path class="cls-2" d="M495.69,2.45c1.32,0,6.67-.1,8.1-.23a11.2,11.2,0,0,0,1.9-.27l1.62,2.22c-.57.38-1.17.73-1.75,1.15-1.35.95-4,3.15-5.55,4.4a9.82,9.82,0,0,1,2.38-.27c4.25,0,7.47,2.65,7.47,6.3,0,3.94-3,7.07-9.05,7.07-3.47,0-6.1-1.6-6.1-4.1a4.2,4.2,0,0,1,4.48-3.9,5,5,0,0,1,5.32,4.28,3.63,3.63,0,0,0,2.08-3.4c0-2.25-2.25-3.78-5.2-3.78-3.83,0-6.33,2-9,5.08l-2.27-2.35c1.77-1.43,4.79-4,6.27-5.2s4-3.25,5.22-4.33c-1.27,0-4.72.18-6.05.25-.67,0-1.47.13-2.05.2l-.1-3.25A17.43,17.43,0,0,0,495.69,2.45ZM500.19,20c.52,0,1,0,1.45-.07-.15-1.63-1.08-2.68-2.43-2.68-.95,0-1.55.58-1.55,1.2C497.66,19.35,498.69,20,500.19,20Z"/><path class="cls-2" d="M527.92,22.54l-1.87-3a19,19,0,0,0,2.32-.4c3.2-.75,5.7-3.05,5.7-6.7,0-3.45-1.87-6-5.25-6.6a49.69,49.69,0,0,1-1.5,6.78c-1.5,5-3.65,8.14-6.37,8.14s-5.07-3-5.07-7.27c0-5.77,5-10.7,11.47-10.7,6.2,0,10.09,4.3,10.09,9.75C537.44,17.85,534.22,21.57,527.92,22.54ZM521.05,17c1.05,0,2-1.58,3.05-4.95a37.64,37.64,0,0,0,1.32-6,7.88,7.88,0,0,0-6.35,7.25C519.07,15.72,520.07,17,521.05,17Z"/><path class="cls-2" d="M547.48,4.3a65.88,65.88,0,0,0-1.2,9.67,11.15,11.15,0,0,0,.1,1.63c.32-.88.75-1.73,1.12-2.58L549,14.27c-.7,2.05-1.5,4.6-1.8,5.95a6.53,6.53,0,0,0-.13,1.17c0,.25,0,.68,0,1l-2.82.22a29.08,29.08,0,0,1-1-8,80.28,80.28,0,0,1,1-10.43,22.53,22.53,0,0,0,.25-2.45l3.45.3A15.56,15.56,0,0,0,547.48,4.3Zm12.62-.88c0,.55-.05,1.48-.08,2.58a35.3,35.3,0,0,0,3.88-.58V8.55c-1.2.17-2.5.32-3.88.42.05,2.43.18,4.43.28,6.13a16.42,16.42,0,0,1,4.85,3.22l-1.73,2.62a27.2,27.2,0,0,0-3-2.52c-.15,2.4-1.5,4.1-4.87,4.1s-5.6-1.45-5.6-4.07,2.15-4.28,5.55-4.28a11.84,11.84,0,0,1,1.62.1c-.05-1.55-.15-3.37-.17-5.15-.6,0-1.2,0-1.78,0-1.47,0-2.89-.05-4.37-.15V6a41.76,41.76,0,0,0,4.37.23c.58,0,1.18,0,1.75,0,0-1.22,0-2.25,0-2.77a10.61,10.61,0,0,0-.18-1.65h3.58A13.14,13.14,0,0,0,560.1,3.42Zm-5,16.15c1.52,0,2.05-.8,2.05-2.27v-.45a7.54,7.54,0,0,0-2-.28c-1.43,0-2.37.6-2.37,1.55S553.82,19.57,555.15,19.57Z"/><path class="cls-2" d="M578.86,4.67a29.45,29.45,0,0,0,3.37-.8l.1,2.9a43.39,43.39,0,0,1-4.37.88,46.36,46.36,0,0,1-5.35,10.7l-3-1.55A39.23,39.23,0,0,0,574.68,8c-.45,0-.87,0-1.3,0-1,0-2,0-3.12-.1L570,5a32.68,32.68,0,0,0,3.32.17,21.79,21.79,0,0,0,2.27-.1A20.94,20.94,0,0,0,576.31.9l3.45.35C579.56,2.05,579.23,3.32,578.86,4.67Zm6.75,7.55c0,.73.1,1.93.15,3.18a16.26,16.26,0,0,1,5.17,3.2l-1.67,2.67a21,21,0,0,0-3.38-2.67v.25c0,2.32-1.27,4.12-4.82,4.12-3.1,0-5.55-1.38-5.55-4.12,0-2.45,2-4.33,5.52-4.33.6,0,1.15.05,1.73.1-.1-1.85-.23-4.07-.28-5.6h3.13A31,31,0,0,0,585.61,12.22Zm-5,7.87c1.72,0,2.25-.94,2.25-2.32v-.5a9,9,0,0,0-2-.25c-1.45,0-2.37.65-2.37,1.53S579.23,20.09,580.61,20.09Zm3.3-13.29,1.6-2.48a44.28,44.28,0,0,1,6.17,3.4l-1.77,2.63A35.74,35.74,0,0,0,583.91,6.8Z"/><path class="cls-2" d="M614.18,4.32c0,1,0,1.88-.07,2.73.7-.08,1.32-.1,1.9-.15s1.67-.1,2.39-.18V9.8c-.42,0-1.74,0-2.39,0s-1.23,0-2,.1a44.26,44.26,0,0,1-.38,5c-.25,1.33-.87,1.65-2.17,1.65a31.53,31.53,0,0,1-3.75-.37l.07-2.73a18.64,18.64,0,0,0,2.3.28c.5,0,.73-.08.78-.55a29.52,29.52,0,0,0,.2-3c-2.23.2-4.68.42-6.8.65,0,2.27,0,4.57,0,5.65.05,2.47.27,3,4,3a47.15,47.15,0,0,0,7.48-.65l-.13,3.4a70.62,70.62,0,0,1-7.12.42c-6.5,0-7.25-1.37-7.38-5.69,0-1.08,0-3.48,0-5.8l-1.68.17c-.8.1-2.34.3-3,.43l-.32-3.2c.7,0,1.87-.05,3.14-.15l1.9-.18V5.7a18.25,18.25,0,0,0-.2-2.78h3.53a15.7,15.7,0,0,0-.15,2.6c0,.58,0,1.43,0,2.4,2.1-.2,4.55-.45,6.83-.62V4.47a19,19,0,0,0-.18-2.3h3.35C614.28,2.55,614.21,3.67,614.18,4.32Zm3.4,1.35-1.72.58a26.82,26.82,0,0,0-1.28-3.45l1.7-.55A28.33,28.33,0,0,1,617.58,5.67Zm2.62-.87-1.7.55a30.12,30.12,0,0,0-1.34-3.43l1.69-.52A27.92,27.92,0,0,1,620.2,4.8Z"/><path class="cls-2" d="M633.79,3.7c-.17.75-.35,1.67-.52,2.57.82,0,1.57-.1,2.1-.1,2.65,0,4.52,1.18,4.52,4.78,0,3-.35,7-1.42,9.17-.83,1.75-2.23,2.3-4.1,2.3a16.56,16.56,0,0,1-3-.35l-.55-3.3a14.25,14.25,0,0,0,3.07.52,1.84,1.84,0,0,0,1.88-1.07,20,20,0,0,0,1-6.92c0-2-.85-2.28-2.43-2.28-.4,0-1,.05-1.72.1-1,3.8-2.8,9.73-5.1,13.4l-3.25-1.3c2.42-3.27,4.15-8.32,5.05-11.75l-2.15.25c-.7.13-2,.3-2.77.43l-.31-3.4a26.62,26.62,0,0,0,2.68,0c.77,0,2-.1,3.22-.2a28.19,28.19,0,0,0,.53-5.3l3.72.37C634.09,2.27,633.92,3.07,633.79,3.7Zm13.45,9.57-3.18,1.48c-.64-2.78-2.42-7.3-4.19-9.5l3-1.28A43.32,43.32,0,0,1,647.24,13.27Z"/><path class="cls-2" d="M661.78,7.7c0-1.5-1.2-2.35-3.15-2.35a5.3,5.3,0,0,0-4,2l-2-1.9a8.33,8.33,0,0,1,6.45-3c3.63,0,6.28,1.68,6.28,5,0,3.68-5.45,4.1-5.08,7.58H657C656.48,11,661.78,10.12,661.78,7.7Zm-5.35,11.7a2.2,2.2,0,1,1,4.4,0,2.2,2.2,0,0,1-4.4,0Z"/><path class="cls-1" d="M131.9,52.6c1.07,0,6-.23,7.5-.4a8.72,8.72,0,0,0,1.52-.28l1.58,1.83a14.52,14.52,0,0,0-1.6,1.12c-1.83,1.48-5,4.1-6.83,5.58,3.6-.38,8-.7,11.3-.7l0,2.35a39.68,39.68,0,0,0-6.39.07c-2.35.35-4.55,2.23-4.55,4.43s1.82,3.09,4.1,3.4a18.22,18.22,0,0,0,3.67,0l-.52,2.6C135.47,72.89,132,71,132,67a5.8,5.8,0,0,1,2.43-4.38c-2.5.2-5.6.58-8.4,1.05l-.23-2.37c1.35-.13,3.08-.35,4.35-.5a93.88,93.88,0,0,0,7.73-6.28c-1.08.08-4.88.25-5.93.33-.65,0-1.42.15-2.07.2l-.13-2.55A21.3,21.3,0,0,0,131.9,52.6Z"/><path class="cls-1" d="M163.15,72.32,161.68,70a14.61,14.61,0,0,0,2.22-.35c3.2-.72,6-3.07,6-7.1a6.64,6.64,0,0,0-6-7,49,49,0,0,1-1.5,7c-1.5,5.1-3.57,7.92-6,7.92s-4.75-2.74-4.75-6.92c0-5.6,4.9-10.4,11.17-10.4,6,0,9.8,4.2,9.8,9.43S169.23,71.44,163.15,72.32Zm-6.72-4.8c1.13,0,2.3-1.62,3.45-5.47a39.39,39.39,0,0,0,1.37-6.45,8.35,8.35,0,0,0-7.12,7.72C154.13,66.2,155.36,67.52,156.43,67.52Z"/><path class="cls-1" d="M185.44,65.2c-.33-.6-1-1.65-1.63-2.6V73.32h-2.22V63.1a26.52,26.52,0,0,1-3,6,11.68,11.68,0,0,0-1.12-2.17,27.56,27.56,0,0,0,3.65-7.35h-3.3V57.37h3.75V54c-1.08.22-2.18.4-3.2.52a7.47,7.47,0,0,0-.68-1.77,35.64,35.64,0,0,0,7.5-1.9l1.63,1.72a24.67,24.67,0,0,1-3,.95v3.9h2.88v2.18h-2.88v.72c.7.65,2.55,2.7,3,3.25ZM196,71c.82,0,.95-.65,1-3.7a6,6,0,0,0,2,1c-.25,3.7-.82,4.87-2.89,4.87h-3.1c-2.25,0-2.88-.72-2.9-3.22a26.9,26.9,0,0,1-3.63,2.77A6.8,6.8,0,0,0,184.91,71a26.32,26.32,0,0,0,5.28-4.32V55.57h2.25V64a33.21,33.21,0,0,0,5.07-12.23l2.15.48a46,46,0,0,1-2.1,6.87l1.07-.3a23.93,23.93,0,0,1,2.35,7.3l-2.12.6a24.34,24.34,0,0,0-1.78-6.47,29.57,29.57,0,0,1-4.64,7.42v2.2c0,1,.15,1.2,1,1.2Zm-10.3-4.47c1.12-1.85,1.65-4.8,1.82-7.48l1.88.35c-.25,2.78-.7,6-1.9,8Zm8.7-10.73a20.78,20.78,0,0,0-4.88-3.8L191,50.55a20.15,20.15,0,0,1,4.95,3.6Z"/><path class="cls-1" d="M214.64,56.37h-9.55V54.52h9.55Zm8.18,7.3c1,3.45,2.87,6.27,5.62,7.77a8.53,8.53,0,0,0-1.68,2c-2.69-1.65-4.49-4.49-5.64-8.07a11.46,11.46,0,0,1-5.9,8.07,8.72,8.72,0,0,0-1.48-1.85V72h-5.52v1h-2v-8.4h7.52v6.87a10.18,10.18,0,0,0,5.33-7.82h-4.53V61.5h4.73c0-.5,0-1,0-1.55V56.6h-3.85V54.45h3.85V50.38h2.28v4.07h5v7h1.65v2.17Zm-9-4h-7.5v-1.8h7.5Zm-7.5,1.53h7.5v1.82h-7.5Zm7.42-8.2h-7.32V51.22h7.32Zm-2,13.45h-3.5v3.59h3.5ZM221.57,60c0,.52,0,1,0,1.55h2.83V56.6h-2.8Z"/><path class="cls-1" d="M237.32,54.12a65.58,65.58,0,0,0-1.23,9.9,16.36,16.36,0,0,0,.2,2.68c.35-1,.9-2.28,1.3-3.2l1.25,1c-.67,1.9-1.52,4.45-1.8,5.72a6.92,6.92,0,0,0-.12,1.15c0,.25.05.63.07.93l-2.22.17a28.92,28.92,0,0,1-1-7.94A76.8,76.8,0,0,1,234.89,54c.08-.62.18-1.42.2-2.07l2.73.25C237.67,52.65,237.42,53.67,237.32,54.12Zm12.62-.6c0,.63-.05,1.7-.08,2.85A37.16,37.16,0,0,0,254,55.8v2.42c-1.3.2-2.7.38-4.15.48,0,2.5.2,4.75.28,6.67a16.54,16.54,0,0,1,4.92,3.23l-1.35,2.09a24.45,24.45,0,0,0-3.47-2.77v.13c0,2.29-1.1,4.27-4.58,4.27s-5.34-1.4-5.34-3.8,2-4,5.32-4a13.24,13.24,0,0,1,2,.15c-.1-1.75-.2-3.9-.25-5.85-.7,0-1.4,0-2.1,0-1.45,0-2.82-.07-4.27-.17l0-2.35a40.56,40.56,0,0,0,4.32.22c.7,0,1.37,0,2.07,0v-3a11.63,11.63,0,0,0-.15-1.6h2.83A13.55,13.55,0,0,0,249.94,53.52ZM245.34,70c1.85,0,2.42-1,2.42-2.53V66.8a7.86,7.86,0,0,0-2.32-.35c-1.68,0-2.85.72-2.85,1.8S243.74,70,245.34,70Z"/><path class="cls-1" d="M270.59,53.65c0,.85-.08,1.67-.13,2.45h5.4a12.12,12.12,0,0,0,1.73-.15l1.75.85c-.08.42-.15,1-.18,1.27-.07,2.53-.4,9.68-1.5,12.12a2.78,2.78,0,0,1-2.9,1.7c-1.35,0-2.8-.07-4.07-.17l-.3-2.62a29.5,29.5,0,0,0,3.62.3,1.34,1.34,0,0,0,1.43-.85c.85-1.75,1.17-7.4,1.17-10.1h-6.4c-.92,7-3.39,10.77-7.69,13.79l-2.3-1.87a13,13,0,0,0,2.87-2.1c2.43-2.27,4-5.3,4.58-9.82h-3.8c-.93,0-2.1,0-3.05.1V56c.95.07,2.07.15,3.05.15h4c.05-.75.07-1.55.07-2.4a15.82,15.82,0,0,0-.17-2.15h2.92C270.66,52.12,270.61,53.05,270.59,53.65Z"/><path class="cls-1" d="M290.13,54.27v8.38c0,.65.05,1.52.1,2h-2.87c0-.42.1-1.3.1-2V54.27a17.44,17.44,0,0,0-.1-1.85h2.87C290.18,53,290.13,53.57,290.13,54.27Zm11.6.25V59c0,5.73-.9,7.85-2.75,10a13.67,13.67,0,0,1-6,3.65l-2.07-2.17a11.75,11.75,0,0,0,6-3.25c1.75-2,2.07-4,2.07-8.33v-4.3a18.33,18.33,0,0,0-.15-2.3h3C301.78,52.87,301.73,53.62,301.73,54.52Z"/><path class="cls-1" d="M315.9,51.82l2.8-.45c.08.48.15,1.25.28,1.8,0,.3.22,1.25.47,2.55,2.28-.37,4.4-.72,5.38-.92.77-.15,1.55-.33,2.05-.48l.47,2.63c-.45,0-1.3.17-2,.27l-5.45.85c.28,1.43.58,3,.88,4.58,2.42-.4,4.65-.78,5.85-1,.94-.2,1.77-.38,2.34-.55l.53,2.62c-.58.05-1.48.23-2.43.38l-5.82.92c.45,2.25.8,4.13.95,4.8s.4,1.6.65,2.35l-2.87.52c-.13-.9-.2-1.7-.35-2.44s-.48-2.5-.9-4.83c-2.73.45-5.25.88-6.43,1.1-1,.18-1.77.33-2.32.48l-.58-2.68c.63,0,1.68-.15,2.38-.25,1.22-.17,3.77-.57,6.47-1-.3-1.55-.6-3.15-.87-4.6l-5.25.88c-.75.12-1.35.25-2.15.45l-.53-2.75c.7,0,1.4-.1,2.18-.18s3-.4,5.27-.75c-.25-1.25-.42-2.15-.5-2.5A14.48,14.48,0,0,0,315.9,51.82Z"/><path class="cls-1" d="M349.72,60.37c-.2,1.6-.9,6.28-1.25,8.6h2.1c.57,0,1.6,0,2.17-.1v2.55c-.48,0-1.52,0-2.12,0H337.14c-.82,0-1.4,0-2.25,0V68.85a21.69,21.69,0,0,0,2.25.12h8.65c.35-2.12,1-6.42,1.08-7.82h-7.43c-.75,0-1.55.05-2.22.07v-2.6a20.14,20.14,0,0,0,2.2.13h7.1a5.24,5.24,0,0,0,1.5-.2l1.9.92C349.84,59.75,349.77,60.12,349.72,60.37Z"/><path class="cls-1" d="M377,60.27a17.67,17.67,0,0,1-3.68,7,18.44,18.44,0,0,1-8.95,5.32l-1.94-2.25a16.78,16.78,0,0,0,8.74-4.49,11.77,11.77,0,0,0,2.78-5H361.19c-.6,0-1.7,0-2.65.1v-2.6c1,.1,1.92.17,2.65.17H374a5.08,5.08,0,0,0,1.6-.22l1.78,1.1A4.36,4.36,0,0,0,377,60.27Zm-13.75-7.62h9.72a22.39,22.39,0,0,0,2.45-.13V55.1c-.62-.05-1.62-.08-2.47-.08h-9.7c-.8,0-1.7,0-2.4.08V52.52A21.58,21.58,0,0,0,363.21,52.65Z"/><path class="cls-1" d="M391.73,55.17c-.75,2.38-3,9.45-4.27,12.75,3.4-.3,7.62-.77,10.3-1.12a34.21,34.21,0,0,0-2.85-4.88l2.42-1.05a74.31,74.31,0,0,1,5.5,10.27l-2.65,1.2c-.33-.87-.77-2-1.3-3.12-4,.47-12,1.35-15.22,1.65-.63.07-1.45.2-2.2.3l-.45-2.9c.77,0,1.75,0,2.5,0,.3,0,.65,0,1,0,1.4-3.57,3.78-11.05,4.48-13.57a15.89,15.89,0,0,0,.55-2.6l3.12.65C392.41,53.32,392.11,54.07,391.73,55.17Z"/><path class="cls-1" d="M412.07,54.32a59.33,59.33,0,0,0-1.23,9.43,24.58,24.58,0,0,0,.15,2.67c.43-1,.93-2.25,1.33-3.17l1.25,1c-.65,1.9-1.53,4.57-1.78,5.82a4.84,4.84,0,0,0-.12,1.15c0,.25,0,.62.05.92l-2.28.15a31.73,31.73,0,0,1-.92-8.07,73.06,73.06,0,0,1,1.07-10,19.45,19.45,0,0,0,.23-2.08l2.77.25A19.17,19.17,0,0,0,412.07,54.32Zm6,12.53c0,1.12.87,2.05,3.9,2.05a26.54,26.54,0,0,0,6.22-.68l0,2.67a34.24,34.24,0,0,1-6.32.5c-4.25,0-6.2-1.47-6.2-3.89a12.28,12.28,0,0,1,.43-3.08l2.24.2A8.92,8.92,0,0,0,418,66.85Zm9.4-12.63v2.55a63.23,63.23,0,0,1-10.48,0l0-2.55A46.07,46.07,0,0,0,427.44,54.22Z"/><path class="cls-1" d="M443.68,52.65c-.1.47-.2,1.05-.3,1.65A45.63,45.63,0,0,0,452,53.22l0,2.33a76.23,76.23,0,0,1-8.95.92c-.08.85-.15,1.78-.23,2.7a16.23,16.23,0,0,1,4-.55,5.78,5.78,0,0,1,.73,0,14,14,0,0,0,.3-1.63l2.45.6c-.15.33-.35,1-.53,1.4,3,.9,4.92,3.18,4.92,6,0,3.58-2.22,6.82-8.17,7.75l-1.35-2.08c4.65-.52,7.1-2.89,7.1-5.77a4.13,4.13,0,0,0-3.17-4,19.76,19.76,0,0,1-5.43,7.88c.18.69.4,1.34.6,2l-2.27.67c-.13-.37-.25-.77-.38-1.22a8.64,8.64,0,0,1-4.07,1.2,3,3,0,0,1-3.15-3.35c0-3.22,2.75-6.55,6.22-8.17.05-1.15.15-2.33.25-3.4h-1.22c-1.18,0-3.13-.13-4.2-.18l-.08-2.32a35.47,35.47,0,0,0,4.35.32h1.38c0-.62.12-1.17.17-1.67s.08-1,.08-1.33l2.57.08C443.86,51.82,443.76,52.27,443.68,52.65Zm-5.55,16.42a5.81,5.81,0,0,0,3-1.1,32,32,0,0,1-.55-5.65c-2.23,1.35-3.8,3.55-3.8,5.35C436.81,68.6,437.23,69.07,438.13,69.07Zm5.05-2.75a16.34,16.34,0,0,0,3.78-5.7h-.18a11.64,11.64,0,0,0-4,.7v.6A27.06,27.06,0,0,0,443.18,66.32Z"/><path class="cls-1" d="M464.65,57.67c1.1-2.27,3.5-5,6.52-5,3.4,0,5.93,3.35,5.93,8.73,0,7-4.35,10.17-10.72,11.34l-1.5-2.27c5.47-.85,9.57-2.87,9.57-9.07,0-3.9-1.33-6.45-3.7-6.45-3.05,0-5.82,4.5-6.05,7.8a12,12,0,0,0,.1,2.87l-2.45.18a32.52,32.52,0,0,1-.27-4,66.88,66.88,0,0,1,.72-8,19.56,19.56,0,0,0,.2-2.38l2.73.13A47.47,47.47,0,0,0,464.65,57.67Z"/><path class="cls-1" d="M495.45,53.07c0,.3,0,.78-.05,1.33a56.17,56.17,0,0,0,6.58-.7V56c-1.85.22-4.18.45-6.6.55v3.1c2.47-.1,4.67-.33,6.85-.63l0,2.33c-2.3.27-4.37.45-6.77.55.05,1.15.12,2.35.17,3.47a20,20,0,0,1,7.18,3.83l-1.45,2.22a19.46,19.46,0,0,0-5.6-3.65c0,.53,0,1,0,1.3,0,1.9-1.38,3.62-4.65,3.62-3.75,0-5.77-1.4-5.77-3.89s2.22-4,5.94-4c.65,0,1.25,0,1.85.1,0-1-.07-2-.1-2.92h-1.37c-1.6,0-4.37-.13-6.1-.33l0-2.35a48,48,0,0,0,6.17.45H493V56.65h-1c-1.65,0-4.65-.25-6.27-.45l0-2.28a45.29,45.29,0,0,0,6.27.55H493V53a8.22,8.22,0,0,0-.13-1.58h2.68C495.53,51.82,495.48,52.37,495.45,53.07Zm-4.65,17.4c1.4,0,2.48-.43,2.48-2,0-.35,0-.85,0-1.4a11.28,11.28,0,0,0-2.27-.23c-2.12,0-3.27.83-3.27,1.83S488.66,70.47,490.8,70.47Z"/><path class="cls-1" d="M522.43,53.25c0,.3,0,.75,0,1.25h7.49l0,2.35c-1.47-.08-3.85-.13-7.47-.13,0,1.35,0,2.8,0,3.93a6.19,6.19,0,0,1,.87,3.32c0,3.33-1.77,7.25-7.7,9l-2.12-2.1c2.95-.65,5.25-1.74,6.45-3.67a3.92,3.92,0,0,1-1.75.38A4.17,4.17,0,0,1,514,63.2a4.51,4.51,0,0,1,4.65-4.5,5.22,5.22,0,0,1,1.4.17c0-.65,0-1.4,0-2.12-3.8,0-7.9.2-11,.4l-.07-2.4c2.82,0,7.47-.18,11.05-.23,0-.55,0-1-.05-1.27-.08-.8-.15-1.58-.2-1.83h2.87A15.75,15.75,0,0,0,522.43,53.25Zm-3.85,12.12c1.3,0,2.28-1,1.95-3.37a2,2,0,0,0-1.95-1.2,2.25,2.25,0,0,0-2.27,2.35A2.19,2.19,0,0,0,518.58,65.37Z"/><path class="cls-1" d="M542.86,69.15a3.92,3.92,0,0,1-7.83,0,3.92,3.92,0,1,1,7.83,0Zm-1.5,0a2.4,2.4,0,1,0-2.4,2.39A2.4,2.4,0,0,0,541.36,69.15Z"/></g></g></svg>