<svg xmlns="http://www.w3.org/2000/svg" viewBox="0 0 98.15 16.26"><defs><style>.cls-1,.cls-2{fill:#4d4d4d;}.cls-2,.cls-3{stroke:#4d4d4d;stroke-miterlimit:10;}.cls-3{fill:none;}</style></defs><g id="レイヤー_2" data-name="レイヤー 2"><g id="design"><path class="cls-1" d="M.33,2.38A9.5,9.5,0,0,0,.2.81H1.93c0,.46-.1,1.08-.1,1.57V4.57A46.92,46.92,0,0,1,7.75,6.81L7.12,8.33A37.07,37.07,0,0,0,1.83,6.15v4.33a16.35,16.35,0,0,0,.11,1.79H.22a14.71,14.71,0,0,0,.11-1.79Z"/><path class="cls-1" d="M13.61,7.49,12.28,8A29,29,0,0,0,11,4.79l1.32-.48C12.64,5,13.34,6.72,13.61,7.49Zm6.82-2.18a11.28,11.28,0,0,1-2,4.23,10.89,10.89,0,0,1-4.61,3.39l-1.17-1.19a9.49,9.49,0,0,0,4.6-3A9.59,9.59,0,0,0,19.15,4l1.54.49A8,8,0,0,0,20.43,5.31ZM16.7,6.63l-1.32.47A22.92,22.92,0,0,0,14.26,4l1.32-.43C15.83,4.17,16.52,6,16.7,6.63Z"/><path class="cls-1" d="M33.81,0a1.63,1.63,0,0,1,1.63,1.61,1.61,1.61,0,0,1-1.63,1.61,1.55,1.55,0,0,1-.37,0,2.14,2.14,0,0,0-.06.27,14.38,14.38,0,0,1-2.1,5.14,11,11,0,0,1-5.56,3.79l-1.21-1.31A9.43,9.43,0,0,0,30,7.73a10.06,10.06,0,0,0,1.75-4.3H24.85c-.59,0-1.15,0-1.51.06V1.92c.39,0,1.05.1,1.51.1h6.79a4.58,4.58,0,0,0,.61,0,1.65,1.65,0,0,1,0-.38A1.62,1.62,0,0,1,33.81,0Zm0,2.48a.89.89,0,0,0,.89-.87.9.9,0,0,0-.89-.88.88.88,0,0,0-.86.88A.87.87,0,0,0,33.81,2.48Z"/><path class="cls-1" d="M39.52,2.21a33.55,33.55,0,0,0-.68,5.28A12.9,12.9,0,0,0,38.92,9l.74-1.78.7.56c-.36,1.07-.85,2.57-1,3.27a2.5,2.5,0,0,0-.07.64,5,5,0,0,0,0,.52l-1.28.08a17.76,17.76,0,0,1-.52-4.52,41.08,41.08,0,0,1,.6-5.59A8.57,8.57,0,0,0,38.26,1l1.56.14A10.52,10.52,0,0,0,39.52,2.21Zm3.35,7c0,.63.49,1.15,2.18,1.15A14.76,14.76,0,0,0,48.54,10l0,1.5a19,19,0,0,1-3.54.28c-2.38,0-3.48-.83-3.48-2.18a7.05,7.05,0,0,1,.24-1.73L43.05,8A5.15,5.15,0,0,0,42.87,9.23Zm5.27-7.07V3.59a37.11,37.11,0,0,1-5.87,0l0-1.43A26.35,26.35,0,0,0,48.14,2.16Z"/><path class="cls-1" d="M59.11,8.8c.78,1.66,2.32,2.57,4.84,2.9a4.35,4.35,0,0,0-.78,1.17c-2.5-.43-4-1.43-5-3.2-.63,1.55-1.91,2.6-4.57,3.23a3.43,3.43,0,0,0-.7-1.06c2.64-.58,3.71-1.53,4.19-3H53.59A8.88,8.88,0,0,1,52,12.68,4.79,4.79,0,0,0,50.88,12c1.5-1.87,1.67-4.54,1.67-6.41V2.8H62.66V6.21H58.85c0,.51-.08,1-.14,1.47h4.72V8.8Zm4.27-6.87H51.63V.76H63.38Zm-6,5.75c.07-.45.11-.94.14-1.47H53.84c0,.46,0,1-.09,1.47ZM53.85,3.81V5.18h7.54V3.81Z"/><path class="cls-1" d="M69.06,1.34c.73,0,3.93-.08,4.68-.15a3.84,3.84,0,0,0,.9-.13l.77,1a9.91,9.91,0,0,0-.88.61c-.72.53-2.44,2-3.44,2.8a5.8,5.8,0,0,1,1.69-.24c2.33,0,4.07,1.44,4.07,3.4,0,2.23-1.78,3.83-4.93,3.83-1.93,0-3.22-.86-3.22-2.13a2.13,2.13,0,0,1,2.31-2,2.76,2.76,0,0,1,2.91,2.45,2.27,2.27,0,0,0,1.49-2.2c0-1.31-1.29-2.26-3-2.26-2.24,0-3.56,1.05-5.21,2.81l-1-1c1.09-.89,2.84-2.36,3.67-3s2.41-2,3.11-2.6c-.75,0-3.17.14-3.9.18-.35,0-.71,0-1,.08l0-1.44A10.73,10.73,0,0,0,69.06,1.34Zm2.61,9.87a7.63,7.63,0,0,0,1-.06A1.72,1.72,0,0,0,71,9.41a.93.93,0,0,0-1,.8C70,10.83,70.67,11.21,71.67,11.21Z"/><polygon class="cls-2" points="86.03 10.76 86.03 15.76 96.03 15.76 86.03 10.76"/><line class="cls-3" y1="15.76" x2="86.03" y2="15.76"/></g></g></svg>