<svg xmlns="http://www.w3.org/2000/svg" viewBox="0 0 98.15 16.26"><defs><style>.cls-1,.cls-2{fill:#4d4d4d;}.cls-2,.cls-3{stroke:#4d4d4d;stroke-miterlimit:10;}.cls-3{fill:none;}</style></defs><g id="レイヤー_2" data-name="レイヤー 2"><g id="design"><path class="cls-1" d="M20.5,5.59V7H7.75V5.59Z"/><path class="cls-1" d="M33.3,11.7c.49,0,.57-.16.63-1.22a4.32,4.32,0,0,0,1.1.4c-.12,1.49-.49,1.84-1.61,1.84h-2.2c-1.47,0-1.83-.3-1.83-1.39v-.87H27.55c-.45,1.42-1.58,2.1-4.73,2.43a3.12,3.12,0,0,0-.56-1c2.65-.19,3.58-.57,4-1.43H24.33V5.83H33v4.63h-2.3v.86c0,.33.1.38.7.38ZM28.81,5.38H22.93V.49h5.69v.77h-2.2v.57h1.93V4H26.42v.64h2.39ZM24.12,1.26v.57h1.25V1.26Zm3.1,1.32h-3.1v.63h3.1Zm-3.1,2h1.25V4H24.12Zm1.44,2.54h6.12V6.54H25.56Zm0,1.29h6.12V7.83H25.56Zm0,1.3h6.12v-.6H25.56Zm5-7.31a8.16,8.16,0,0,1-1,1.55,8.7,8.7,0,0,0-1-.67A8.35,8.35,0,0,0,30.2,0l1.16.27c-.11.37-.24.75-.39,1.12h4v1ZM30,4.94v-1h4.6v1Z"/><path class="cls-1" d="M39.52,2.21a33.5,33.5,0,0,0-.69,5.28A13,13,0,0,0,38.92,9l.74-1.78.7.56c-.36,1.07-.85,2.57-1,3.27a2.5,2.5,0,0,0-.07.64,5,5,0,0,0,0,.52l-1.28.08a17.76,17.76,0,0,1-.52-4.52,41.08,41.08,0,0,1,.6-5.59A8.57,8.57,0,0,0,38.26,1l1.56.14A10.52,10.52,0,0,0,39.52,2.21Zm3.35,7c0,.63.49,1.15,2.18,1.15A14.76,14.76,0,0,0,48.54,10l0,1.5a19,19,0,0,1-3.54.28c-2.38,0-3.48-.83-3.48-2.18a7.05,7.05,0,0,1,.24-1.73L43.05,8A5.15,5.15,0,0,0,42.87,9.23Zm5.27-7.07V3.59a37.11,37.11,0,0,1-5.87,0l0-1.43A26.35,26.35,0,0,0,48.14,2.16Z"/><path class="cls-1" d="M59.1,8.8c.79,1.66,2.33,2.57,4.85,2.9a4.35,4.35,0,0,0-.78,1.17c-2.5-.43-4-1.43-5-3.2-.63,1.55-1.91,2.6-4.57,3.23a3.43,3.43,0,0,0-.7-1.06c2.64-.58,3.71-1.53,4.19-3H53.59A8.88,8.88,0,0,1,52,12.68,4.79,4.79,0,0,0,50.88,12c1.5-1.87,1.67-4.54,1.67-6.41V2.8H62.66V6.21H58.85c0,.51-.08,1-.14,1.47h4.72V8.8Zm4.28-6.87H51.62V.76H63.38Zm-6,5.75c.07-.45.11-.94.14-1.47H53.84c0,.46,0,1-.09,1.47ZM53.85,3.81V5.18h7.54V3.81Z"/><path class="cls-1" d="M69.06,1.34c.73,0,3.93-.08,4.68-.15a3.84,3.84,0,0,0,.9-.13l.77,1a9.91,9.91,0,0,0-.88.61c-.72.53-2.44,2-3.44,2.8a5.75,5.75,0,0,1,1.69-.24c2.33,0,4.07,1.44,4.07,3.4,0,2.23-1.78,3.83-4.93,3.83-1.93,0-3.22-.86-3.22-2.13a2.13,2.13,0,0,1,2.31-2,2.76,2.76,0,0,1,2.91,2.45,2.27,2.27,0,0,0,1.49-2.2c0-1.31-1.29-2.26-3-2.26-2.24,0-3.56,1.05-5.21,2.81l-1-1c1.09-.89,2.84-2.36,3.67-3s2.4-2,3.1-2.6c-.74,0-3.16.14-3.89.18-.35,0-.71,0-1,.08l0-1.44A10.73,10.73,0,0,0,69.06,1.34Zm2.61,9.87a7.63,7.63,0,0,0,1-.06A1.72,1.72,0,0,0,71,9.41a.93.93,0,0,0-1,.8C70,10.83,70.67,11.21,71.67,11.21Z"/><polygon class="cls-2" points="86.03 10.76 86.03 15.76 96.03 15.76 86.03 10.76"/><line class="cls-3" y1="15.76" x2="86.03" y2="15.76"/></g></g></svg>