<svg xmlns="http://www.w3.org/2000/svg" viewBox="0 0 1266 312.65"><defs><style>.cls-1{fill:#fff}.cls-2{fill:#ff0}.cls-4{fill:#4d4d4d}.cls-5{fill:#e95513}</style></defs><g id="レイヤー_2" data-name="レイヤー 2"><g id="design"><path class="cls-1" d="M405.91 26.97h2.46V8.18h11.43V5.73h-11.43V2.45h-2.46v3.28h-10.63v2.45h10.63v18.79zM338.87 9.92V2.45h-2.45v24.52h2.45V12.63l13.23 6.17h5.97v-2.45h-5.42l-13.78-6.43zM426.33 4.93h12.32v2.45h-12.32z"/><path class="cls-1" d="M400.69 12.55l-2.41-.42-2.05 11.57h-2.57v2.45h4.63l2.4-13.6zM416.81 12.13l-2.41.42 2.4 13.6h4.63V23.7h-2.57l-2.05-11.57zM364.44 25.04l2.01 1.41 5.95-8.49V9h12.26v15.52h-6.13v2.45h8.58V6.55H372.4v-4.1h-2.46v4.1h-5.71V9h5.71v8.19l-5.5 7.85zM449.22 17.85V2.45h-2.45v14.63l-5.22 7.45h-16v2.46h17.27l6.4-9.14zM387.93.82h2.45v2.45h-2.45zM383.84.82h2.45v2.45h-2.45zM353.6 3.28h2.45v2.45h-2.45zM349.5 3.28h2.45v2.45h-2.45zM416.55 4.9h4.9V0h-4.9zm1.63-3.27h1.63v1.64h-1.63zM487.25 13.09h22.89v2.45h-22.89zM548.54 3.28h22.07v2.45h-22.07zM547.73 14.72h13.89v4.62l-3.63 5.19h-9.45v2.45h10.72l4.82-6.87v-5.39h8.17v-2.45h-24.52v2.45zM737.35 10.8V7.36h4.1V4.91h-4.1V0h-2.45v4.91h-4.09v2.45h4.09V8.9l-4.66 11.17 2.26.95 2.4-5.75v13.34h2.45V14.44l2.94 3.22L742.1 16l-4.75-5.2zM610.65 4.92h12.32v2.45h-12.32zM631.09 17.07l-5.22 7.46h-16v2.45h17.27l6.4-9.14V2.44h-2.45v14.63z"/><path class="cls-1" transform="rotate(-32.9 687.644 22.95)" d="M689.55 11.29H692v18.16h-2.45z"/><path class="cls-1" d="M582.7 16.36h-2.28v2.45h2.93l7.5-4.33v13.34h2.45V13.06l5.63-3.25h2.74V7.36h-3.4l-15.57 9zM454.55 5.73h22.89v6.94l-12.1 6.99-4.27-7.4H457v2.45h2.65l7.84 13.58 2.12-1.23-3.05-5.28 13.33-7.69V3.28h-25.34v2.45zM523.69 2.45l-2.34-.73-3.57 11.37h-1.92v2.45h3.72L521.63 9h14.65v9.45l-4.25 6.07h-12.09v2.46h13.36l5.43-7.76V9H542V6.55h-19.6l1.29-4.1zM696.48 7.37h-12.26V.82h-2.46v6.55H669.5v2.45h11.25L669.7 27.13l2.06 1.32 11.9-18.63h12.82V7.37zM757.77 2.47h-6.54V0h-2.45v2.47h-6.55v2.45h15.54V2.47zM642.49 9.82h-3.22v2.45h4.5l4.58-6.54h12.99v10.36l-5.9 8.43h-12.09v2.46h13.36l7.09-10.12V3.28h-16.73l-4.58 6.54zM663.79.01h2.45v2.45h-2.45zM659.7.01h2.45v2.45h-2.45zM725.08 1.12l-2.37-.63-1.19 4.42h-6.12L714.22.49l-2.37.63 1.01 3.79h-5.29L706.39.49l-2.37.63 1.01 3.79h-4.45v5.73h2.45V7.36h22.86v3.28h2.46V4.91h-4.29l1.02-3.79z"/><path class="cls-1" transform="rotate(-67.17 744.506 10.046)" d="M740.03 8.8h9.02v2.45h-9.02z"/><path class="cls-1" transform="rotate(-22.83 755.041 10.025)" d="M753.87 5.51h2.45v9.02h-2.45z"/><path class="cls-1" d="M755.03 14.11l-1.93-1.51-3.28 4.19-3.28-4.19-1.94 1.51 3.66 4.68-6.44 8.24 1.93 1.51 6.07-7.76 6.06 7.76 1.93-1.51-6.44-8.24 3.66-4.68zM716.09 16.96l6.56-3.79v-2.54h-17.18v2.46h12.42l-4.26 2.45v2.45h-13.05v2.45h13.05v5.72h-5.69v2.45h8.15v-8.17h12.25v-2.45h-12.25v-1.03zM781 .7a31.9 31.9 0 0013 10.89 19.45 19.45 0 00-2.4 3.21 40.16 40.16 0 01-12.25-10.59 37.17 37.17 0 01-12 10.62A15 15 0 00765.1 12 33.08 33.08 0 00777.37.7zm.51 24.09h10.74V28h-25.5v-3.21H770V14.38h3.51v10.41h4.26V9.22h3.75v6.42h8v3.15h-8zM825.89 2.62V6h-11.76v2.4h5.46v13.54h-14.28V8.35h5.25V6H799V2.62zm-4.35 5.31H825v20.88h-3.45v-1.74h-18.13v1.77h-3.48V7.93h3.48v15.78h18.12zm-13.32 5.85h2.61v-2.52h-2.61zm0 5.25h2.61v-2.55h-2.61zm8.28-7.77h-2.61v2.52h2.61zm0 5.22h-2.61V19h2.61zM849.29 14.83a3.84 3.84 0 11-3.84-3.83 3.87 3.87 0 013.84 3.83zM874.82 10.27h6.57v3.21h-6.57v2.19h5.85v7.65c0 1.38-.21 2.22-1.08 2.73a6.54 6.54 0 01-3.48.54 11.22 11.22 0 00-.87-3 13.54 13.54 0 001.86 0c.27 0 .36-.06.36-.36v-4.38h-2.64v10h-3.39v-10H869v7.59h-3.18V15.67h5.64v-2.19h-6.81v-3.21h2.25a27.73 27.73 0 00-2.7-1.14 23.42 23.42 0 002.76-7.77l3.27.69a28 28 0 01-.69 2.73h1.92V1h3.39v3.78h5.37V8h-5.37zm-3.39 0V8h-3c-.33.84-.69 1.59-1 2.25zm14.64 9.9h-3.33V3.28h3.33zm5.46-18.84v23.28c0 1.92-.39 2.88-1.47 3.48s-2.85.69-5.16.69a15.67 15.67 0 00-1-3.6c1.53.06 3.09.06 3.6.06s.66-.15.66-.66V1.33zM907.62 2a46.73 46.73 0 01-2.88 6.24v20.57h-3.6v-15c-.63.75-1.26 1.5-1.86 2.16a24.38 24.38 0 00-2-3.81A31.21 31.21 0 00904.14.94zm9.51 7.08v3.15h7.77v3.24h-7.77v3.39h8.16v3.3h-8.16v6.66h-3.66V9.1h-1.14a33.31 33.31 0 01-3.93 5.82 24.26 24.26 0 00-2.73-2.49A29.78 29.78 0 00912 1.12l3.45.87A35.46 35.46 0 01914 5.71h11.64V9.1z"/><path class="cls-2" d="M409.82 49c-2 6.09-4.34 13.79-6.51 19.25a20.84 20.84 0 015.39 14.28c.07 4.62-1 7.56-3.22 9.1a9 9 0 01-4.13 1.61 35.31 35.31 0 01-4.83.14 18.2 18.2 0 00-1.89-7.38h3.29a3.49 3.49 0 002-.63c.84-.63 1.26-2 1.26-3.92 0-3.29-1-7.63-5.18-12.32 1.47-4.48 3.08-10.78 4.34-15.68h-6.16v55h-7.77V46.07H403l1.19-.35zm37.8 34.79a123.2 123.2 0 01-9.45 8.21 26.5 26.5 0 0011 9.17 29.57 29.57 0 00-5.39 7.07c-10.29-5.46-15.75-15.89-18.9-29.54h-5v18.05c3.29-.56 6.72-1.19 10.08-1.82l.63 7.28c-8.05 1.89-16.66 3.64-23.24 5.11l-2.73-8c2.1-.28 4.55-.7 7.28-1.12v-52h32.48v32.49h-12.23a48.92 48.92 0 002.66 7.42 62.07 62.07 0 006.3-6.93zm-27.79-30.44v5.53h16.24v-5.53zm0 18.2h16.24v-5.88h-16.24zM497.81 99a72.33 72.33 0 008 .42c3.78 0 15.33 0 20-.21a31.13 31.13 0 00-2.94 8.47h-17.5c-12.88 0-22.47-2.1-28.91-12a35.08 35.08 0 01-9.31 13.23 51 51 0 00-6.86-5.67c7.56-5.6 11-15.26 12.25-27.23l8.68.84c-.42 3.15-.91 6.09-1.54 8.89 2.1 5.6 5.39 9 9.52 11V72h-14.91v-7.94h38.5V72h-15v8.75h19.25v7.84h-19.23zm-26-31.36h-8.19V50.13h25.41v-7h8.82v7h25.65v17.5h-8.61V58h-43.05zM550.87 53.07h35.29c2 0 5-.07 6.16-.14-.07 1.61-.21 4.41-.21 6.44v36.26c0 2.45.14 6.16.28 8.26h-10.15c.07-1.12.07-2.31.07-3.64h-31.93c-2.73 0-6.72.21-9 .42v-10c2.45.21 5.6.42 8.75.42h32.28v-29h-31.47c-2.94 0-6.72.14-8.68.28v-9.72c2.59.28 6.23.42 8.61.42zM636.52 86.6c12-7.07 21.07-17.78 25.48-27.23l5.46 9.87c-5.32 9.45-14.63 19.11-25.9 25.9a75.81 75.81 0 01-26 9.87l-5.88-9.24a72.15 72.15 0 0026.84-9.17zm0-22.61l-7.14 7.28a145.55 145.55 0 00-17.5-15.12l6.58-7c4.9 3.29 14 10.57 18.06 14.85zM688.53 67h45.85a52.94 52.94 0 006.37-.42v9.1c-1.75-.14-4.41-.21-6.37-.21h-16.87a44.41 44.41 0 01-4.48 18c-2.45 4.83-7.84 10.29-14.07 13.44l-8.19-6a29.08 29.08 0 0012.67-10c2.87-4.34 4.06-9.59 4.34-15.47h-19.25c-2.1 0-4.76.14-6.72.28v-9.14c2.1.21 4.55.42 6.72.42zm8.89-17.85h28.14a54.84 54.84 0 007.56-.49v9c-2.38-.14-5.11-.28-7.56-.28h-28.07c-2.45 0-5.39.14-7.56.28v-9a53.84 53.84 0 007.49.49zM777.89 86.6c12-7.07 21.07-17.78 25.48-27.23l5.46 9.87c-5.32 9.45-14.63 19.11-25.9 25.9A75.78 75.78 0 01757 105l-5.88-9.24a72.2 72.2 0 0026.77-9.16zm0-22.61l-7.14 7.28a146.45 146.45 0 00-17.51-15.12l6.58-7c4.91 3.29 14.01 10.57 18.07 14.85zM836.66 71.76l-9 3.29a174.59 174.59 0 00-8-19.81l9-3.08c1.98 4.41 6.39 14.84 8 19.6zm41.51-13c-2 7.63-5.95 18.76-11.76 26.39a63.39 63.39 0 01-27.51 20.51l-7.84-7.84c9.59-2.73 20.51-9 27.65-18.06 5.25-6.65 9.59-18.69 10.78-29.4l10.5 3a40.78 40.78 0 00-1.82 5.45zm-22.82 7.77l-8.82 3.08a179.09 179.09 0 00-7.28-19l8.75-2.79a169.19 169.19 0 017.35 18.76z"/><path opacity=".8" fill="#fff" d="M0 147.65h1266v165H0z"/><path class="cls-4" d="M69.83 231.25a23.6 23.6 0 008.55 6.6 13.3 13.3 0 00-2.07 2.47 25.55 25.55 0 01-7.8-6.6v7.63h-3.05v-7.49a26.21 26.21 0 01-7.8 6.43 15.65 15.65 0 00-2.08-2.47 23.41 23.41 0 008.56-6.57h-7.77v-2.84h9.09v-3.07h-7.29v-2.83h7.29v-3.58h3.05v3.58H76v2.83h-7.49v3.07h9.24v2.84zM86.1 233.36a22.12 22.12 0 01-1.44 6.19 13.7 13.7 0 00-2.18-1 17.57 17.57 0 001.27-5.55zm18.46-12.6a15.24 15.24 0 01-3.92 6.21 17.24 17.24 0 004.92 1.83 11.66 11.66 0 00-1.75 2.3 17.54 17.54 0 01-5.35-2.4 21.37 21.37 0 01-5.46 2.52 11.1 11.1 0 00-1.51-2.3 14.31 14.31 0 011 2.83l-2 .91a9.51 9.51 0 00-.31-1.22l-1.22.09v9.82h-2.52v-9.65l-3.48.22-.25-2.47 1.73-.08c.36-.45.75-1 1.13-1.53a24.24 24.24 0 00-2.83-3.27l1.37-1.94.55.48a30.53 30.53 0 001.75-4.18l2.47.92c-.86 1.63-1.82 3.48-2.68 4.82.31.34.57.67.81 1a41.15 41.15 0 002.14-3.89l2.33 1.08c-1.32 2.09-3 4.51-4.49 6.46l2.3-.1c-.26-.6-.55-1.2-.84-1.73l1.9-.79a22.75 22.75 0 011.1 2.21 18.67 18.67 0 004.78-2A15.47 15.47 0 0193.4 223l1.53-.51H92.2V220h9.93l.51-.12zm-13.56 12a26.17 26.17 0 011.49 4.32l-2.11.77a29.22 29.22 0 00-1.38-4.47zm9 5.4h5.26v2.49H91.64v-2.49h5.5v-2.81h-4.08v-2.52h4.08V230H100v2.86h4.27v2.52H100zm-4-15.7a10.61 10.61 0 002.3 2.86 11.88 11.88 0 002.35-2.86zM109.51 239.19a11.26 11.26 0 001.2-5.28l1.58.31c-.12 2.19-.36 4.42-1.34 5.76zm18.49-4.56a9.11 9.11 0 004.49 4.42 11.12 11.12 0 00-1.8 2.25 10.44 10.44 0 01-4.49-5 10.57 10.57 0 01-5.32 5.12 9.15 9.15 0 00-1.4-1.69 1.88 1.88 0 01-.31.68 1.94 1.94 0 01-1.44.84 9.6 9.6 0 01-2.11.07 5.38 5.38 0 00-.58-2.21 14.64 14.64 0 001.47.1.73.73 0 00.65-.32 5.83 5.83 0 00.4-2.08l-.76.28a14.67 14.67 0 00-1.08-3.09l1.12-.39a13.39 13.39 0 01.82 2c0-.72.1-1.61.14-2.64h-6.9V219.8h8.83v2.3h-2.57v1.32h2.09v1.27a15.18 15.18 0 005.23-5.76h2.45a15.43 15.43 0 005.64 5.4 17.64 17.64 0 00-1.41 2.45 10.55 10.55 0 01-1.56-1.1V227h-2.4v1.29h4.29v6.34zm-14.23-.34a23.42 23.42 0 01.24 4.4l-1.3.16a28.37 28.37 0 00-.16-4.44zm-.48-12.19v1.32h1.63v-1.32zm0 3.48V227h1.63v-1.44zm0 5.09h1.63v-1.49h-1.63zm2.09 3.38a20 20 0 01.79 3.87l-1.25.26a18.47 18.47 0 00-.74-3.89zm4.85-3.38v.94a58.42 58.42 0 01-.57 7.53 8.44 8.44 0 004.41-4.51h-3.4v-6.34h4.08V227h-2.45v-1.3a13.18 13.18 0 01-1.85 1.37 12.89 12.89 0 00-1.13-2v.55h-2.09V227h2.09v2.16h-2.09v1.49zm4.34 1.9a13 13 0 00.15-2.14v-.07h-1.76v2.21zm4.08-7.76a17.17 17.17 0 01-2.81-3.4 17.61 17.61 0 01-2.64 3.4zm-1.41 5.55v.09c0 .7 0 1.4-.1 2.12h2v-2.21zM145.76 222.63c0 .26-.12.58-.19.89 1.34-.19 2.71-.46 4-.77v3a42.63 42.63 0 01-4.68.79c-.22 1-.46 2.11-.72 3.1a77.07 77.07 0 01-3.82 11.11l-3.33-1.13a52.52 52.52 0 004.15-10.8c.17-.65.33-1.34.5-2h-1.58c-1.18 0-2.07 0-2.91-.09l-.07-3a24.34 24.34 0 003 .19c.69 0 1.41 0 2.16-.07.09-.53.17-1 .21-1.37a11.63 11.63 0 00.07-2.45l3.68.29c-.13.68-.37 1.78-.47 2.31zm2.9 13c0 1.05.72 1.85 3.29 1.85a28.15 28.15 0 005-.48l-.12 3a33.13 33.13 0 01-4.89.36c-4 0-6.22-1.39-6.22-3.81a16.55 16.55 0 01.41-3.22l2.88.27a8.46 8.46 0 00-.35 2.04zm3.65-8.26a40.65 40.65 0 014.23.22l-.08 2.88a33.62 33.62 0 00-4.12-.31 36.47 36.47 0 00-4.64.26v-2.81c1.35-.13 3.05-.23 4.61-.23zm3.55-3l-1.92.84a26.67 26.67 0 00-1.87-3.33l1.9-.79a32.45 32.45 0 011.89 3.24zm2.88-1.1l-1.89.82a25.75 25.75 0 00-1.95-3.32l1.9-.76a24.69 24.69 0 011.94 3.22zM167.52 222.51c-.6 2.66-1.44 7.7-.79 10.68.31-.74.74-1.9 1.15-2.78l1.49 1a58.11 58.11 0 00-1.63 5.85 5.22 5.22 0 00-.15 1.18v1l-2.66.27a26 26 0 01-1.37-7.78 67.13 67.13 0 01.77-9.58 17.29 17.29 0 00.17-2.08l3.55.36a18 18 0 00-.53 1.88zm12.39-.72v3.07a31 31 0 003.6-.43v3.12c-1 .12-2.2.22-3.55.29v1c0 5.66-.43 9.14-5.23 12.19l-2.76-2.19a9 9 0 002.78-1.92c1.85-1.92 2.24-4.05 2.24-8.11V228h-2.69c-1 0-2.52-.08-3.7-.12v-3a25 25 0 003.62.26h2.72c0-1.34 0-2.59-.1-3.24a12.51 12.51 0 00-.26-1.65H180c0 .44-.07 1.01-.09 1.54zM195.61 227.12c1.75-1 3.46-1.9 4.58-2.55a17.08 17.08 0 002.24-1.44l1.51 2.84c-.77.43-1.54.84-2.4 1.27a57.58 57.58 0 00-5.95 3.21c-2 1.32-3.34 2.69-3.34 4.37s1.68 2.64 5 2.64a40.53 40.53 0 007.82-.86L205 240a44.27 44.27 0 01-7.7.62c-4.78 0-8.4-1.34-8.4-5.49 0-2.64 1.68-4.61 4-6.31-1.1-2-2.25-4.64-3.34-7.16l3-1.22a53.46 53.46 0 003.05 6.68zm10.51-3.72l-1.94.81a29.68 29.68 0 00-1.87-3.33l1.89-.77a33.46 33.46 0 011.92 3.29zm2.88-1.11l-1.92.82a27.16 27.16 0 00-1.92-3.31l1.9-.79a37.84 37.84 0 011.94 3.28zM234.9 224.31v1.27c-.22 9.82-.41 13.3-1.18 14.4a2.68 2.68 0 01-1.89 1.2 16 16 0 01-3 .1 6.73 6.73 0 00-.84-2.74c1 .1 2 .12 2.42.12a.87.87 0 00.82-.41c.5-.64.74-3.57.89-11.32H230c-.32 6.43-1.42 11.37-5.45 14.57a9.44 9.44 0 00-1.68-1.9c-3.46.36-6.91.72-9.51.93l-.33-2.4 4.87-.33v-1.44h-4.22v-2h4.22v-.93h-4.13V226h4.13v-.94h-4.73V223h4.73v-1c-1.39.1-2.76.17-4.06.19a8.79 8.79 0 00-.62-2 74.9 74.9 0 0010.3-1.19l1.25 2.14c-1.27.26-2.76.48-4.32.64V223h4.61v1.32h2.26v-5h2.74c0 1.76 0 3.44-.05 5zm-18.9 4.54h1.87v-1.06H216zm1.87 2.78v-1.08H216v1.08zm2.59 6c1.37-.09 2.79-.21 4.18-.33 1.87-2.6 2.45-6 2.61-10.32h-2.18v-1.88h-4.61v.9h4.25v7.42h-4.25v.93h4.35v2h-4.35zm1.87-8.73v-1.06h-1.87v1.06zm-1.87 1.7v1.08h1.87v-1.08zM261.44 220.35V223H252v1.92h4.37v10.88H245v-10.87h4.2V223H240v-2.66zM258 224.6h2.76v16.7H258v-1.39h-14.53v1.42h-2.79V224.6h2.79v12.62H258zm-10.65 4.68h2.08v-2h-2.08zm0 4.2h2.08v-2h-2.08zm6.62-6.22h-2.09v2h2.09zm0 4.18h-2.09v2h2.09zM269.21 233.31a20.49 20.49 0 01-1.41 6.17 12.62 12.62 0 00-2-1A17.62 17.62 0 00267 233zm2.67-1.9v9.92h-2.4v-9.72l-3.17.24-.29-2.48c.58 0 1.2-.07 1.9-.09.31-.43.65-.91 1-1.39a20.09 20.09 0 00-2.79-3.48l1.37-1.85c.19.17.39.36.58.55a30.43 30.43 0 001.73-4.18l2.42.84c-.86 1.66-1.85 3.56-2.69 4.9.29.34.55.67.77 1a47.2 47.2 0 002.06-3.91l2.26 1c-.89 1.47-1.92 3.08-3 4.59l1.88-.77a21.46 21.46 0 011.92 5.23l-2 .87a11.28 11.28 0 00-.31-1.37zm.45-2.4a13 13 0 00-.72-1.65c-.43.62-.84 1.22-1.27 1.77zm15.82 9.89c0 .94-.09 1.56-.67 2a3.21 3.21 0 01-2 .46 9.78 9.78 0 00-.67-2.16v2h-1.76V237h-1v4.1h-1.75V237h-1v4.3h-2V236a15 15 0 01-2.07 5.19 9.25 9.25 0 00-2.09-1.52 9.57 9.57 0 001.15-2.28l-1.27.41a18.33 18.33 0 00-1.1-4.41l1.87-.56a16.47 16.47 0 011 3 28.51 28.51 0 00.73-7.18v-5h12.09v6.1h-9.62v1h10.13zm.07-18.65v2.43h-13.53v-2.43zM278.07 226v1.58h6.87V226zm2.23 9v-2h-1v2zm2.76 0v-2h-1v2zm1.76-2v2h1v-2zm0 6.07h.84c.17 0 .16 0 .16-.24V237h-1zM307.86 235.85a28.36 28.36 0 007.68 2.91 11.69 11.69 0 00-1.78 2.28 26.59 26.59 0 01-8.23-3.94v4.2h-2.81v-4.1a26.79 26.79 0 01-8.28 4 15.09 15.09 0 00-1.82-2.35 29 29 0 007.94-3h-7.15v-2.28h9.31v-.93h-6.6v-6.48c-.43.41-.89.79-1.37 1.17a9.13 9.13 0 00-2-1.92 19.39 19.39 0 005.69-6.52l2.95.55c-.39.69-.82 1.37-1.3 2.06h3.41a21.17 21.17 0 001.06-2.59l3.21.38c-.41.77-.86 1.54-1.29 2.21h7.17v2.21h-7.53v1h6.36v1.88h-6.36v1h6.38v1.88h-6.38v1h8.23v2.16h-8.81v.93H315v2.28zm-4.49-12.14h-4.54v1h4.54zm0 2.86h-4.54v1h4.54zm-4.54 3.91h4.54v-1h-4.54zM324.5 223a62.44 62.44 0 00-1.16 8.81 12 12 0 00.1 1.56c.36-.82.74-1.66 1.08-2.45l1.49 1.18c-.67 2-1.47 4.6-1.73 5.88a7.4 7.4 0 00-.12 1.12v1l-2.79.19a30.73 30.73 0 01-.93-7.85 66 66 0 011-9.5c.07-.67.21-1.59.24-2.35l3.36.28a19.52 19.52 0 00-.54 2.13zm5.93 11.74c0 1.05.91 1.7 3.36 1.7a28.49 28.49 0 006-.62l.05 3.24a34.82 34.82 0 01-6.19.45c-4.13 0-6.13-1.46-6.13-3.93a14.88 14.88 0 01.41-3.12l2.76.26a8.21 8.21 0 00-.26 2.01zm8.68-12.29v3.09a63.5 63.5 0 01-10.32 0v-3.07a49.36 49.36 0 0010.32-.03zM360.15 235.88c2.47 1.13 5.21 2.54 6.84 3.48l-2.79 2a58.78 58.78 0 00-6.67-3.77l1.9-1.68H352l2.3 1.63a36.66 36.66 0 01-7 3.82 26.32 26.32 0 00-2.25-2 29.38 29.38 0 006.41-3.43H345v-2.62h2l-.39-13.15 1.9.34a18.39 18.39 0 002.21-1.49l.86 1h8.71v13.27h2.28c.05-.69.08-1.46.12-2.25h-1.82v-2.26h1.92c0-.67.05-1.34.05-2h-2v-2.28h2v-2.09h-2.11V220h4.63c-.05 4.22-.22 9.48-.46 13.22h2.1v2.62zm-10.68-2.62h2.18V221.6c-.84.38-1.68.72-2.47 1l.05 1.8h1.84v2.28h-1.8l.08 2h1.72V231h-1.68zm4.17-11.13v11.13h4.66v-11.13zm4.08 3h-3.55v-1.75h3.55zm-3.48 1.08h3.36v5.42h-3.36zm1.15 3.79h1v-2.14h-1zM374.6 235.33v1.92H372V221h7.2v14.33zm0-11.6v8.81h2v-8.81zm14 7.18a17.71 17.71 0 005.26 6.62 13.91 13.91 0 00-2.12 2.38 20 20 0 01-3.86-5.18v6.55H385v-6.72a16.31 16.31 0 01-5 5.3 13.28 13.28 0 00-1.94-2.25 15 15 0 006.19-6.7h-4.39v-2.71H385v-3h-4.4v-2.71h4.4v-3.39h2.88v3.41h4.92v2.71h-4.92v3h5.69v2.71zM407.4 222.44c-.14.72-.34 1.61-.5 2.47.81 0 1.51-.1 2-.1 2.55 0 4.35 1.13 4.35 4.59 0 2.83-.34 6.72-1.37 8.81-.79 1.68-2.11 2.2-3.94 2.2a15.66 15.66 0 01-2.88-.33l-.5-3.17a14 14 0 002.93.5 1.77 1.77 0 001.8-1 19.25 19.25 0 001-6.65c0-1.92-.84-2.18-2.33-2.18-.38 0-1 0-1.68.1-.91 3.64-2.69 9.33-4.89 12.86l-3.12-1.25c2.32-3.14 4-8 4.87-11.28l-2.07.24c-.69.12-1.94.29-2.68.41l-.29-3.26a24.48 24.48 0 002.57 0c.74 0 1.87-.1 3.09-.22a24.71 24.71 0 00.51-5.06l3.57.36c-.15.59-.32 1.36-.44 1.96zm10.18.38l-1.18.51a43.49 43.49 0 013.91 8.37l-3.05 1.39a26.89 26.89 0 00-4-9l2.16-.93a26.25 26.25 0 00-1.63-2.83l1.9-.8c.57.89 1.43 2.4 1.89 3.29zm2.85-1.1l-1.89.81a28.41 28.41 0 00-2-3.31l1.92-.77a32.11 32.11 0 011.97 3.27zM434.12 221.19c-.08.41-.17.84-.24 1.32a41.64 41.64 0 008.16-1.06v2.79a66.41 66.41 0 01-8.52.84c-.07.72-.14 1.46-.17 2.18a16.61 16.61 0 013.58-.43h.43a13.8 13.8 0 00.22-1.44l2.93.7c-.1.26-.29.76-.44 1.22a6.21 6.21 0 014.64 5.88c0 3.41-2 6.7-7.9 7.58l-1.58-2.52c4.63-.5 6.5-2.85 6.5-5.2a3.56 3.56 0 00-2.5-3.36 18.3 18.3 0 01-5 7.29c.17.6.36 1.2.56 1.78l-2.77.84c-.09-.31-.21-.65-.31-1a8.5 8.5 0 01-3.72 1c-1.75 0-3.24-1-3.24-3.48 0-3.09 2.55-6.31 5.91-7.89 0-1 .12-2 .21-3h-.77c-1.24 0-3.12-.09-4.24-.14l-.08-2.78a34.91 34.91 0 004.42.33h1c.05-.45.1-.89.14-1.29a12 12 0 00.05-1.44l3.12.07c-.2.42-.3.85-.39 1.21zm-5.45 15.46a5.1 5.1 0 002.4-.8 32.69 32.69 0 01-.51-4.8c-1.8 1.23-3 3-3 4.42 0 .77.34 1.18 1.11 1.18zm4.89-2.79a14.78 14.78 0 003-4.58 11.7 11.7 0 00-3.31.53v.07a25.52 25.52 0 00.31 3.98zM455.64 221.07c1.27 0 6.4-.1 7.77-.22a9.71 9.71 0 001.83-.26l1.56 2.14c-.56.36-1.13.69-1.68 1.1-1.3.91-3.82 3-5.33 4.22a9.44 9.44 0 012.28-.26c4.08 0 7.17 2.54 7.17 6.05 0 3.79-2.88 6.79-8.68 6.79-3.34 0-5.86-1.54-5.86-3.94A4 4 0 01459 233a4.8 4.8 0 015.11 4.1 3.47 3.47 0 002-3.26c0-2.16-2.16-3.62-5-3.62-3.68 0-6.07 1.94-8.64 4.87l-2.19-2.26c1.71-1.37 4.61-3.81 6-5s3.84-3.12 5-4.15c-1.22 0-4.53.17-5.8.24-.65.05-1.42.12-2 .19l-.1-3.12a16 16 0 002.26.08zm4.36 16.82a12.07 12.07 0 001.39-.07c-.15-1.56-1-2.57-2.33-2.57-.91 0-1.49.56-1.49 1.16-.04.88.95 1.48 2.43 1.48z"/><path class="cls-1" d="M16 216.15h28v28H16z"/><path class="cls-4" d="M43 217.15v26H17v-26h26m2-2H15v30h30v-30z"/><path class="cls-5" d="M38 220.15l-12.4 13.63-3.6-2.72h-2l5.6 9.09 14.4-20h-2z"/><path class="cls-4" d="M61.79 175.49a16.69 16.69 0 00-.24-2.9h3.75a25.2 25.2 0 00-.22 2.9V179a83.1 83.1 0 0110 3.74l-1.34 3.34a65.46 65.46 0 00-8.69-3.58v6.79c0 .68.12 2.36.24 3.34h-3.74a25 25 0 00.24-3.34zM73.55 177l-2.08.93a20.84 20.84 0 00-2.12-3.72l2-.84c.65 1.02 1.65 2.56 2.2 3.63zm3.22-1.4l-2 1a21.86 21.86 0 00-2.23-3.6l2-.94a31 31 0 012.23 3.55zM92.25 174.39c0 .74 0 1.44-.09 2.14h4.51a9 9 0 001.8-.17l2.09 1a10.44 10.44 0 00-.17 1.27c-.1 2.59-.38 9.31-1.42 11.76a3 3 0 01-3.09 1.85c-1.37 0-2.81-.12-4-.22l-.39-3.19a22.78 22.78 0 003.36.31 1.25 1.25 0 001.37-.84c.7-1.51 1-6.31 1-8.9h-5.4c-.89 6.36-3.17 10.1-7.46 13.15l-2.79-2.26a15 15 0 003.2-2.29 14.18 14.18 0 004-8.56h-3.21c-.82 0-2.14 0-3.17.12v-3.17a29.35 29.35 0 003.17.17H89c0-.68.05-1.37.05-2.09a17.09 17.09 0 00-.17-2.21h3.52c-.07.55-.12 1.55-.15 2.13zm8.21.91l-1.92.84a31.34 31.34 0 00-1.87-3.33l1.9-.8a36.91 36.91 0 011.89 3.29zm2.88-1.1l-1.92.84a22.79 22.79 0 00-1.92-3.31l1.9-.8c.6.92 1.51 2.43 1.94 3.27zM109.08 189.32l-2.6-1.78a25 25 0 004.52-6.19l2.71 1.27a37.49 37.49 0 01-4.63 6.7zm10-14.93v1.92h5.6a18.62 18.62 0 002.37-.17v3.15c-.77 0-1.7-.08-2.35-.08h-5.62v11.16c0 1.4-.79 2.26-2.49 2.26a33.16 33.16 0 01-3.91-.22l-.29-3a16.89 16.89 0 002.66.29c.63 0 .87-.24.89-.87v-9.62h-6.09c-.72 0-1.66 0-2.33.1v-3.19a19.44 19.44 0 002.33.19H116v-1.92a13.26 13.26 0 00-.21-2.09h3.55a19 19 0 00-.21 2.09zm9 13.2l-2.83 1.54a44.76 44.76 0 00-3.89-6.44l2.62-1.41a55.93 55.93 0 014.15 6.31zm-2.68-17.14a2.79 2.79 0 11-2.79 2.79 2.77 2.77 0 012.84-2.79zm0 4.08a1.3 1.3 0 000-2.59 1.3 1.3 0 100 2.59zM142.49 185.84a22.6 22.6 0 008.74-9.34l1.87 3.39a25.54 25.54 0 01-8.88 8.88 26.19 26.19 0 01-8.91 3.38l-2-3.17a24.84 24.84 0 009.18-3.14zm0-7.75l-2.49 2.49a50.19 50.19 0 00-6-5.18l2.26-2.4a48 48 0 016.23 5.09zM162.5 175a62.44 62.44 0 00-1.16 8.81 12 12 0 00.1 1.56c.36-.82.74-1.66 1.08-2.45l1.49 1.18c-.67 2-1.47 4.6-1.73 5.88a7.4 7.4 0 00-.12 1.12c0 .27 0 .65.05 1l-2.79.19a30.73 30.73 0 01-.93-7.85 66 66 0 011-9.5c.07-.67.21-1.59.24-2.35l3.36.28a19.52 19.52 0 00-.59 2.13zm5.93 11.74c0 1.05.91 1.7 3.36 1.7a28.49 28.49 0 006-.62l.05 3.24a34.82 34.82 0 01-6.19.45c-4.13 0-6.13-1.46-6.13-3.93a14.88 14.88 0 01.41-3.12l2.76.26a8.21 8.21 0 00-.26 2.01zm8.68-12.29v3.09a63.5 63.5 0 01-10.32 0v-3.07a49.36 49.36 0 0010.32-.03zM185.65 177.37c1.85-.58 6.75-2.31 10.25-2.31 4.35 0 7.76 2.5 7.76 6.94 0 5.45-5.19 8.93-13.64 9.36l-1.39-3.19c6.5-.17 11.59-2 11.59-6.22 0-2.26-1.56-4-4.44-4-3.53 0-9.21 2.4-11.71 3.48l-1.37-3.36c.89-.13 2.09-.46 2.95-.7zM212.64 177c0 1.56 0 3.36.14 5.08.34 3.46 1.06 5.84 2.57 5.84 1.13 0 2.09-2.81 2.55-4.73l2.4 2.93c-1.59 4.17-3.1 5.64-5 5.64-2.64 0-4.92-2.38-5.59-8.81-.24-2.21-.27-5-.27-6.48a15 15 0 00-.19-2.45l3.7.05a19.06 19.06 0 00-.31 2.93zm16.66 10.05l-3.15 1.23c-.38-3.87-1.65-9.7-4.27-12.68l3.05-1c2.28 2.79 4.07 8.79 4.37 12.46zM235.51 174.61l10.34-.92c2.48-.19 5.12-.36 6.8-.4v3.07a26.5 26.5 0 00-4.63.31 7.3 7.3 0 00-5.07 6.74c0 3.94 3.7 5.38 7.76 5.6l-1.13 3.28c-5-.33-9.77-3-9.77-8.23a9.65 9.65 0 013.55-7.41c-2.25.24-7.15.76-9.94 1.36l-.31-3.28c.98-.03 1.89-.08 2.4-.12zM267.17 174.15c-.07.41-.17 1.06-.27 1.85a34.63 34.63 0 004.4-.34l-.1 2.86a44.3 44.3 0 01-4.68.24c-.14 1.05-.29 2.18-.41 3.26h.17a39.8 39.8 0 004.82-.29l-.07 2.86c-1.34.12-2.73.22-4.25.22h-1c0 .72-.09 1.32-.09 1.75 0 2 1.22 3.05 3.57 3.05 3.36 0 5.19-1.54 5.19-3.51a6.54 6.54 0 00-2.47-4.65l3.38-.72a8.9 8.9 0 012.33 5.76c0 3.62-3.27 6.21-8.52 6.21-3.77 0-6.43-1.63-6.43-5.64 0-.57.07-1.44.16-2.42a27 27 0 01-4.6-.79l.16-2.91a22.07 22.07 0 004.73 1c.15-1.08.29-2.21.41-3.29a27.28 27.28 0 01-4.78-.86L259 175a22.15 22.15 0 005 .91c.07-.74.14-1.39.19-1.94a12.78 12.78 0 000-2.14l3.39.19a19.47 19.47 0 00-.41 2.13zM286.13 180.44c1.63-.51 5.71-1.87 8.62-1.87 3.79 0 6.34 2.25 6.34 5.88 0 4.34-3.82 7.29-11.45 7.77l-1.28-2.95c5.5-.14 9.53-1.61 9.53-4.87 0-1.8-1.34-3.05-3.43-3.05-2.78 0-7.58 2-9.62 2.86l-1.25-3.12c.72-.15 1.82-.44 2.54-.65zM314.88 178.76c2-1.15 4.05-2.19 5.18-2.83a14.86 14.86 0 002.23-1.47l1.66 2.79c-.72.43-1.49.84-2.38 1.29a73.1 73.1 0 00-6.69 3.55c-2 1.32-3.34 2.69-3.34 4.37s1.66 2.64 5 2.64a37 37 0 007.85-.89l-.05 3.46a44.52 44.52 0 01-7.7.6c-4.78 0-8.4-1.32-8.4-5.45 0-2.64 1.68-4.63 4-6.33-1.1-2-2.25-4.61-3.34-7.16l3-1.22a56.57 56.57 0 002.98 6.65zM339.3 177.13h-9.38v-2.26h9.38zm-.89 14.92h-5v.95H331v-8.18h7.44zm-7.36-13.84h7.39v2.18h-7.39zm0 3.28h7.39v2.14h-7.39zm7.34-7.68h-7.25v-2.16h7.25zm-5 13.25v2.76h2.54v-2.76zm19 .77h-5.23v5.5h-2.81v-5.5H339v-2.59h5.35v-2.43h-4.1v-2.52h4.1V178h-4.58v-2.59h2.18a17.18 17.18 0 00-1.46-3.55l2.3-.86a15 15 0 011.73 4l-1.15.45H348l-1.08-.36a27.38 27.38 0 001.66-4.2l2.78.79c-.67 1.37-1.39 2.76-2 3.77H352V178h-4.85v2.28h4.35v2.52h-4.35v2.43h5.23zM362.56 175.4c-.1 2.59-.29 8-.29 10.94 0 2.43 1.44 3.22 3.31 3.22 4 0 6.49-2.28 8.21-4.9l2.21 2.64a12.43 12.43 0 01-10.42 5.52c-3.94 0-6.48-1.73-6.48-5.83 0-3.22.24-9.53.24-11.59a15.7 15.7 0 00-.31-3.24l3.86.05c-.16 1-.28 2.23-.33 3.19zM392.17 175.59c-1.56 1.25-4.73 3.7-6.33 5.06-1.28 1.11-1.25 1.37 0 2.5 1.8 1.51 6.36 5.11 8.81 7.49l-2.81 2.57c-.67-.75-1.36-1.52-2.08-2.24-1.47-1.51-5-4.51-7.18-6.38-2.4-2-2.21-3.31.19-5.33 1.9-1.53 5.19-4.2 6.79-5.76a15.43 15.43 0 001.85-2l2.81 2.47c-.7.54-1.5 1.16-2.05 1.62zM409 183.08c-.05.33-.1.67-.17 1 1.25 1.23 3.84 4.23 4.51 5l-1.92 2.4c-.79-1.25-2.16-3-3.33-4.51a12.93 12.93 0 01-4.54 6.29 10.74 10.74 0 00-2-2.17 11.23 11.23 0 004.61-8h-4.25v-2.69h4.44v-3.82h-1a16.66 16.66 0 01-1.63 3.22 16.14 16.14 0 00-2.31-1.66 17.73 17.73 0 002.69-7.22l2.74.55c-.17.84-.36 1.66-.6 2.47h6.33v2.64h-3.38v3.82h3.94v2.69zM422.87 173v19.3H420v-1.4h-3.48v1.73h-2.76V173zM420 188.21v-12.55h-3.48v12.55zM433.28 177c1.15-1.87 3.24-3.89 6-3.89 3.34 0 5.93 3.26 5.93 8.54 0 6.8-4.16 10-10.52 11.19l-1.87-2.84c5.33-.81 9.1-2.56 9.1-8.37 0-3.7-1.25-5.76-3.27-5.76-2.83 0-5.3 4.25-5.42 7.41a12 12 0 00.12 2.55l-3 .19a26.24 26.24 0 01-.32-4 62.42 62.42 0 01.68-7.68 21.15 21.15 0 00.19-2.52l3.29.15a37.38 37.38 0 00-.91 5.03zM460.5 174.34c-.05.27-.12.58-.19.91 1.34-.19 2.69-.45 4-.76v3a45.61 45.61 0 01-4.68.79c-.22 1-.46 2.09-.72 3.07a75.47 75.47 0 01-3.82 11.11l-3.34-1.13a52.07 52.07 0 004.16-10.8c.16-.64.36-1.32.5-2h-1.58c-1.16 0-2.07 0-2.91-.1l-.07-3a24.42 24.42 0 003 .19c.7 0 1.42 0 2.16-.07.1-.53.17-1 .22-1.37a12.1 12.1 0 00.07-2.42l3.67.29c-.16.68-.37 1.76-.47 2.29zm2.88 13c0 1.06.72 1.85 3.29 1.85a28.32 28.32 0 005-.5l-.12 3.07a38.09 38.09 0 01-4.9.34c-4 0-6.21-1.4-6.21-3.82a17 17 0 01.43-3.22l2.86.29a7.9 7.9 0 00-.35 2.02zm3.65-8.28c1.37 0 2.81.08 4.22.22l-.07 2.88a36 36 0 00-4.13-.29 40.73 40.73 0 00-4.63.24v-2.81c1.34-.09 3.07-.21 4.58-.21zM480.59 177c0 1.56 0 3.36.14 5.08.34 3.46 1.06 5.84 2.57 5.84 1.13 0 2.09-2.81 2.55-4.73l2.4 2.93c-1.59 4.17-3.1 5.64-5 5.64-2.64 0-4.92-2.38-5.59-8.81-.24-2.21-.27-5-.27-6.48a14 14 0 00-.19-2.45l3.7.05a19.06 19.06 0 00-.31 2.93zm16.66 10.05l-3.15 1.23c-.38-3.87-1.65-9.7-4.27-12.68l3.05-1c2.28 2.79 4.12 8.79 4.37 12.46zM506 189.34a2.12 2.12 0 112.11 2.11 2 2 0 01-2.11-2.11zm.24-12.48l-.12-3.57h4l-.12 3.57-.65 8.21h-2.45z"/><path class="cls-1" d="M16 168.15h28v28H16z"/><path class="cls-4" d="M43 169.15v26H17v-26h26m2-2H15v30h30v-30z"/><path class="cls-5" d="M38 172.15l-12.4 13.63-3.6-2.72h-2l5.6 9.09 14.4-20h-2z"/><path class="cls-4" d="M77.71 272.31v1.27c-.21 9.82-.41 13.3-1.17 14.4a2.72 2.72 0 01-1.9 1.2 15.89 15.89 0 01-3 .1 6.58 6.58 0 00-.84-2.74c1.06.1 2 .12 2.43.12a.84.84 0 00.81-.41c.51-.64.75-3.57.89-11.32h-2.17c-.31 6.43-1.41 11.37-5.45 14.56a9.36 9.36 0 00-1.68-1.89c-3.45.36-6.91.72-9.5.93l-.34-2.4 4.87-.33v-1.44h-4.22v-2h4.22v-.93h-4.12V274h4.12v-.94h-4.72V271h4.72v-1c-1.39.1-2.76.17-4 .19a8.82 8.82 0 00-.63-2 74.88 74.88 0 0010.3-1.19l1.25 2.14c-1.27.26-2.76.48-4.32.64V271h4.61v1.32h2.25v-5h2.73v5zm-18.92 4.54h1.87v-1.06h-1.87zm1.87 2.78v-1.08h-1.87v1.08zm2.6 5.95c1.36-.09 2.78-.21 4.17-.33 1.88-2.6 2.45-6 2.62-10.32h-2.18v-1.88h-4.61v.95h4.24v7.42h-4.24v.93h4.34v2h-4.34zm1.87-8.73v-1.06h-1.87v1.06zm-1.87 1.7v1.08h1.87v-1.08zM104.25 268.35V271h-9.41v1.92h4.37v10.88H87.78v-10.87H92V271h-9.23v-2.66zm-3.48 4.25h2.76v16.7h-2.76v-1.39h-14.5v1.42h-2.78V272.6h2.78v12.62h14.5zm-10.66 4.68h2.09v-2h-2.09zm0 4.2h2.09v-2h-2.09zm6.62-6.22h-2.08v2h2.08zm0 4.18h-2.08v2h2.08zM129.45 273.13a40.39 40.39 0 01-8.19 9.38c1.37 1.37 2.78 2.93 3.72 4.06l-2.81 2.23a62.81 62.81 0 00-4.58-5.19 51.22 51.22 0 00-5.28-4.6l2.54-2c1 .72 2.55 2 4.06 3.33a26.45 26.45 0 006.09-6.91h-12.69c-1 0-2.26.12-2.76.17v-3.4a24.3 24.3 0 002.76.21h13.32a7.68 7.68 0 002.23-.26l2.4 2a7.76 7.76 0 00-.81.98zM138 276.27h12.89c1.13 0 2.18-.1 2.81-.14v3.76c-.58 0-1.8-.12-2.81-.12H138c-1.37 0-3 .05-3.86.12v-3.76c.86.07 2.64.14 3.86.14zM168.24 270.39c-.19.5-.4 1.13-.67 1.75h10.35a15 15 0 002.49-.17v3.29c-.88-.09-1.94-.09-2.49-.09h-3.36c-.44 6.36-2.93 10.65-7.28 13.39l-3.28-2.19a8.29 8.29 0 002.28-1.32c2.52-1.92 4.52-4.87 4.9-9.88h-5.06a19.84 19.84 0 01-3.89 5l-3-1.83a18.39 18.39 0 004.15-4.94 15.26 15.26 0 001.39-3.27 9.38 9.38 0 00.51-2.47l3.72.75c-.25.64-.56 1.48-.76 1.98zM188.25 275.12H204a17.53 17.53 0 002.19-.15v3.12c-.6 0-1.51-.07-2.19-.07h-5.78a15.08 15.08 0 01-1.54 6.17 11.46 11.46 0 01-4.82 4.61l-2.81-2a10 10 0 004.35-3.43 10.31 10.31 0 001.48-5.31h-6.6c-.72 0-1.63.05-2.3.1V275a21.84 21.84 0 002.27.12zm3.05-6.12h9.7a18.67 18.67 0 002.59-.17v3.1c-.81-.05-1.75-.1-2.59-.1h-9.62c-.84 0-1.85.05-2.6.1v-3.1a18.59 18.59 0 002.52.17zM219.51 277a25.14 25.14 0 006-5.14l2.38 2.33a31.52 31.52 0 01-5.38 4.37v8.23a13.64 13.64 0 00.17 2.59h-3.58c.05-.48.12-1.75.12-2.59v-6.34a49.66 49.66 0 01-6.89 2.81l-1.42-2.83a31.81 31.81 0 008.6-3.43zM242.65 281.84a22.6 22.6 0 008.74-9.34l1.87 3.39a25.54 25.54 0 01-8.88 8.88 26.13 26.13 0 01-8.9 3.38l-2-3.17a24.84 24.84 0 009.17-3.14zm0-7.75l-2.45 2.49a48.67 48.67 0 00-6-5.18l2.26-2.4a48 48 0 016.19 5.09zM277.1 270.87l-1.78.74 2 1.25a9.9 9.9 0 00-.79 1.73 24.21 24.21 0 01-4.2 8 22.43 22.43 0 01-9.67 6.8l-2.83-2.55a19.18 19.18 0 009.67-5.95 17.09 17.09 0 003.41-6.53h-6.71a26.71 26.71 0 01-6.07 5.81l-2.69-2a20.73 20.73 0 007.49-7.73 11 11 0 001.08-2.49l3.53 1.15a23.06 23.06 0 00-1.46 2.45l-.08.12h4.8a7.47 7.47 0 002.09-.29l.17.1a27.52 27.52 0 00-1.75-3.1l1.89-.77a30.63 30.63 0 011.9 3.26zm2.88-1.1l-1.9.81a24.91 24.91 0 00-1.94-3.31l1.9-.77a34.94 34.94 0 011.96 3.27zM293.91 288.37l-1.8-2.86a20 20 0 002.23-.38c3.08-.72 5.48-2.93 5.48-6.44 0-3.31-1.8-5.78-5-6.33a49.87 49.87 0 01-1.44 6.5c-1.44 4.85-3.51 7.83-6.12 7.83s-4.88-2.93-4.88-7c0-5.54 4.8-10.27 11-10.27 5.95 0 9.7 4.13 9.7 9.36-.02 5.07-3.08 8.65-9.17 9.59zm-6.6-5.38c1 0 1.95-1.51 2.93-4.75a36 36 0 001.27-5.81 7.56 7.56 0 00-6.1 7c0 2.38.96 3.57 1.9 3.57zM324.11 272.36a33.29 33.29 0 01-4.52 8.81 24.09 24.09 0 01-9.09 7l-2.74-2.81a20.65 20.65 0 009.12-6.24 24.37 24.37 0 004.54-10.37l3.74 1a26 26 0 00-1.05 2.61zM342.61 269.84v1.85h4.18a5.6 5.6 0 002-.27l2.09 1.27a17.37 17.37 0 00-.48 1.92 22.34 22.34 0 01-2.23 6.8 15.28 15.28 0 01-9.79 7.2l-2.5-2.88a20.53 20.53 0 003.38-.94 11.69 11.69 0 005.45-4.1 14.27 14.27 0 002.14-6.17h-11.92V278c0 .55 0 1.3.08 1.78h-3.32a16.49 16.49 0 00.12-2v-4.15a14.57 14.57 0 00-.12-2.06 21.27 21.27 0 002.45.12h5.14v-1.85a12.58 12.58 0 00-.19-2.21h3.69a17.54 17.54 0 00-.17 2.21zM360 270.2l3.5.72c-.19.69-.48 1.87-.58 2.4a54 54 0 01-2 7.22 34.33 34.33 0 01-3.52 6.87L354 286a29.92 29.92 0 003.73-6.67 34.46 34.46 0 002.27-9.13zm6.09.72l3.19-1c1 1.87 2.64 5.56 3.56 7.87s2.11 6 2.78 8.37l-3.55 1.16a75.35 75.35 0 00-2.5-8.48 68.4 68.4 0 00-3.49-7.92zM391 269.84v1.85h4.18a5.68 5.68 0 002-.27l2.09 1.27a13.81 13.81 0 00-.48 1.92 22.36 22.36 0 01-2.24 6.8 15.28 15.28 0 01-9.79 7.2l-2.5-2.88a20.64 20.64 0 003.39-.94 11.78 11.78 0 005.45-4.1 14.26 14.26 0 002.13-6.17h-11.9V278c0 .55 0 1.3.07 1.78h-3.31a18.75 18.75 0 00.12-2v-4.15a16.23 16.23 0 00-.12-2.06 21 21 0 002.45.12h5.13v-1.85a11.68 11.68 0 00-.19-2.21h3.7a17.54 17.54 0 00-.18 2.21zM413.71 270.39a61.09 61.09 0 006.8-.7v2.79a72.46 72.46 0 01-7.82.6 17.08 17.08 0 01-1.37 2.45 8.06 8.06 0 012.71-.48 3.23 3.23 0 013.19 1.84c1.25-.57 2.26-1 3.24-1.41s1.78-.79 2.67-1.25l1.2 2.78c-.77.22-2 .7-2.86 1-1.08.43-2.45 1-3.91 1.63 0 1.35.07 3.12.1 4.23h-2.88c.07-.72.09-1.87.12-2.93-1.8 1-2.76 2-2.76 3.17s1.12 1.68 3.48 1.68a40 40 0 006.81-.67l-.09 3.09a59.25 59.25 0 01-6.8.41c-3.76 0-6.55-.91-6.55-4s2.88-5 5.62-6.41a1.84 1.84 0 00-1.68-.81 5.9 5.9 0 00-3.75 1.65 29 29 0 00-2.23 2.64l-2.57-1.92a23.47 23.47 0 005.31-6.62h-.31c-1 0-2.74 0-4.06-.14v-2.81a31.5 31.5 0 004.22.29h1.16a13.8 13.8 0 00.48-2.76l3.16.26a21.19 21.19 0 01-.63 2.4zM450.82 271.61v1.11c-.17 7.49-.39 10.32-1 11.21a2.23 2.23 0 01-.52.57 9.73 9.73 0 002.13.72c-.38 3-1.2 3.72-4.2 3.72h-6.29c-3.89 0-4.85-.69-4.85-3.38v-5.26h-1.12c-.32 3.63-1.18 7.11-4.66 9.15a8.26 8.26 0 00-1.7-2.21c3-1.51 3.62-4.2 3.91-6.94h-2.38v-6a7.13 7.13 0 00-1.56-1.39 14.88 14.88 0 004.3-6l2.54.41c-.17.38-.33.79-.53 1.18h2.45l.39-.1 1.68 1a23.1 23.1 0 01-1.71 3.29h3.3v-1h2.4c0-1.36.05-2.83.05-4.39h2.67c0 1.54 0 3-.08 4.39zm-17.16-1a16.1 16.1 0 01-1.47 2h2.74a20.74 20.74 0 001.13-2zm.69 7.41v-3.12h-1.77v3.1zm4.25-3.12h-1.85v3.1h1.85zm8.4 11.64c1.37 0 1.71-.26 1.88-1.82a2.44 2.44 0 01-.72.24 11.7 11.7 0 01-2.55.09 7 7 0 00-.72-2.66 13.49 13.49 0 001.8.1.75.75 0 00.72-.36c.36-.48.55-2.5.72-7.85h-2.21c-.31 5.18-1.32 9-4.53 11.47a7 7 0 00-1.78-2.06c2.64-2 3.46-5.12 3.7-9.41h-2.07v6h-2.61v5.21c0 .89.31 1 2.35 1zM456 268.21h7.18V276h-4.54c-.07.72-.12 1.44-.19 2.13h4.73s0 .72-.05 1.08c-.24 5.81-.5 8.24-1.2 9.1a2.65 2.65 0 01-1.82 1 19.55 19.55 0 01-2.91.07 7.28 7.28 0 00-.86-2.81c1 .1 2 .1 2.5.1a.88.88 0 00.84-.29c.38-.38.62-2 .81-5.76h-2.28l-.14 1.15-2.5-.38c.34-2.09.63-5.33.77-7.92h4.15v-2.66H456zm19.69 21.24a10.32 10.32 0 00-.61-1.56c-4.1.36-8.37.67-11.47.88l-.31-2.77c1.58 0 3.57-.16 5.73-.31v-3.09h-4.82v-6.89H469v-1.87c-1.85.14-3.57.24-5 .33l-.38-2.66 2.11-.1a29.28 29.28 0 002.14-4.53l3.07.69c-.67 1.25-1.47 2.55-2.21 3.7l4.54-.24c-.36-.51-.77-1-1.16-1.49l2.4-1.06a21.61 21.61 0 013.53 5.14l-2.57 1.18a8.68 8.68 0 00-.67-1.4c-1 .08-2 .17-3 .24v2.07h5v6.89h-5v2.9l2-.14c-.34-.56-.7-1.08-1.06-1.59l2.3-1a20.25 20.25 0 013.22 5.52zm-6.69-9.17v-2.21h-2.25v2.21zm2.74-2.21v2.21h2.33v-2.21zM488.06 271.4c-.09 2.59-.28 8-.28 10.94 0 2.43 1.44 3.22 3.31 3.22 4 0 6.48-2.28 8.21-4.9l2.18 2.64a12.41 12.41 0 01-10.42 5.52c-3.93 0-6.48-1.73-6.48-5.83 0-3.22.24-9.53.24-11.59a15 15 0 00-.31-3.24h3.87c-.15 1.05-.27 2.28-.32 3.24zM505.56 270.61l10.35-.92c2.47-.19 5.11-.36 6.79-.4v3.07a26.68 26.68 0 00-4.64.31 7.3 7.3 0 00-5.06 6.74c0 3.94 3.7 5.38 7.75 5.6l-1.13 3.28c-5-.33-9.77-3-9.77-8.23a9.65 9.65 0 013.56-7.41c-2.26.24-7.16.76-9.94 1.36l-.31-3.28c.99-.03 1.92-.08 2.4-.12zM533.06 269.19c1.37 0 3.91-.12 5-.22a5 5 0 001.63-.33l1.92 1.49a6.13 6.13 0 00-.81 1 49.79 49.79 0 00-2.4 5.16 21.82 21.82 0 015.21 1.54c0-.29 0-.55.07-.82a16.19 16.19 0 000-2.61l3.14.36a37.81 37.81 0 01-.45 4.44c1 .57 1.87 1.13 2.56 1.61l-1.39 3.33a25.79 25.79 0 00-2.06-1.68 12 12 0 01-6.1 6.51l-2.54-2.09a10.32 10.32 0 006.09-6 16.76 16.76 0 00-5.68-1.94 48 48 0 01-2.72 5.76 4.18 4.18 0 01-3.74 2.11 3.6 3.6 0 01-3.7-3.89c0-3.72 3.39-6.55 8.21-6.76.67-1.59 1.37-3.22 1.92-4.35-1 .05-3 .12-4.13.19-.48 0-1.32.1-1.94.2l-.12-3.1c.69.04 1.5.09 2.03.09zM531 283.64c.48 0 .82-.24 1.25-.84a27.29 27.29 0 001.94-3.91c-2.69.4-4.2 2-4.2 3.55-.05.79.41 1.2 1.01 1.2zM561.7 270.34c-.05.27-.12.58-.2.91 1.35-.19 2.69-.45 4-.76v3a45.15 45.15 0 01-4.68.79c-.21 1-.45 2.09-.72 3.07a74.31 74.31 0 01-3.81 11.11l-3.29-1.13a52.08 52.08 0 004.15-10.8c.17-.64.36-1.32.51-2-.56 0-1.08.05-1.59.05-1.15 0-2.06-.05-2.9-.1l-.07-3a24.42 24.42 0 003 .19c.7 0 1.42 0 2.16-.07.1-.53.17-1 .22-1.37a12.9 12.9 0 00.07-2.42l3.67.29c-.22.63-.43 1.71-.52 2.24zm2.88 13c0 1.06.72 1.85 3.28 1.85a28.43 28.43 0 005-.5l-.12 3.07a38.23 38.23 0 01-4.9.34c-4 0-6.22-1.4-6.22-3.82a16.25 16.25 0 01.44-3.22l2.85.29a8.32 8.32 0 00-.33 2.02zm3.64-8.28c1.37 0 2.81.08 4.23.22l-.07 2.88a36.15 36.15 0 00-4.13-.29 40.73 40.73 0 00-4.63.24v-2.81c1.38-.09 3.07-.21 4.6-.21zM581.79 273c0 1.56 0 3.36.14 5.08.34 3.46 1.06 5.84 2.57 5.84 1.13 0 2.09-2.81 2.54-4.73l2.4 2.93c-1.58 4.17-3.09 5.64-5 5.64-2.64 0-4.92-2.38-5.6-8.81-.24-2.21-.26-5-.26-6.48a15 15 0 00-.19-2.45l3.69.05a20.29 20.29 0 00-.29 2.93zm16.65 10.05l-3.14 1.23c-.39-3.87-1.66-9.7-4.27-12.68l3.05-1c2.28 2.79 4.1 8.79 4.36 12.46zM610.75 285.17a3.88 3.88 0 11-3.88-3.88 3.88 3.88 0 013.88 3.88zm-1.72 0a2.15 2.15 0 10-2.16 2.16 2.15 2.15 0 002.13-2.16z"/><path class="cls-1" d="M16 264.15h28v28H16z"/><path class="cls-4" d="M43 265.15v26H17v-26h26m2-2H15v30h30v-30z"/><path class="cls-5" d="M38 268.15l-12.4 13.63-3.6-2.72h-2l5.6 9.09 14.4-20h-2z"/><path class="cls-4" d="M690.12 176.31v1.27c-.22 9.82-.41 13.3-1.18 14.4a2.68 2.68 0 01-1.89 1.2 15.93 15.93 0 01-3 .1 6.73 6.73 0 00-.84-2.74c1.06.1 2 .12 2.43.12a.84.84 0 00.81-.41c.51-.64.75-3.57.89-11.32h-2.16c-.31 6.43-1.42 11.37-5.45 14.57a9.14 9.14 0 00-1.68-1.9c-3.45.36-6.91.72-9.5.93l-.34-2.4 4.87-.33v-1.44h-4.22v-2h4.22v-.93H669V178h4.13v-.94h-4.73V175h4.73v-1c-1.39.1-2.76.17-4.05.19a8.82 8.82 0 00-.63-2 74.88 74.88 0 0010.3-1.19l1.25 2.14c-1.28.26-2.76.48-4.32.64V175h4.6v1.32h2.26v-5h2.74v5zm-18.91 4.54h1.87v-1.06h-1.87zm1.87 2.78v-1.08h-1.87v1.08zm2.6 6c1.36-.09 2.78-.21 4.17-.33 1.87-2.6 2.45-6 2.62-10.32h-2.19v-1.88h-4.6v.9h4.24v7.42h-4.24v.93H680v2h-4.34zm1.87-8.73v-1.06h-1.87v1.06zm-1.87 1.7v1.08h1.87v-1.08zM716.67 172.35V175h-9.41v1.92h4.37v10.88H700.2v-10.87h4.2V175h-9.22v-2.66zm-3.48 4.25H716v16.7h-2.76v-1.39h-14.5v1.42h-2.84V176.6h2.79v12.62h14.5zm-10.66 4.68h2.09v-2h-2.09zm0 4.2h2.09v-2h-2.09zm6.62-6.22h-2.08v2h2.08zm0 4.18h-2.08v2h2.08zM724.44 185.31a20.18 20.18 0 01-1.42 6.17 12.21 12.21 0 00-2-1 17.35 17.35 0 001.22-5.57zm2.66-1.9v9.92h-2.4v-9.72l-3.17.24-.28-2.48c.57 0 1.2-.07 1.89-.09.31-.43.65-.91 1-1.39a20 20 0 00-2.78-3.48l1.37-1.85c.19.17.38.36.57.55a29.22 29.22 0 001.73-4.18l2.42.84c-.86 1.66-1.84 3.56-2.68 4.9.28.34.55.67.76 1 .8-1.34 1.52-2.73 2.07-3.91l2.25 1c-.88 1.47-1.92 3.08-3 4.59l1.87-.77a21.46 21.46 0 011.92 5.23l-2 .87a13.55 13.55 0 00-.31-1.37zm.46-2.4a16.71 16.71 0 00-.72-1.65c-.43.62-.84 1.22-1.27 1.77zm15.82 9.89c0 .94-.1 1.56-.68 2a3.17 3.17 0 01-2 .46 8.82 8.82 0 00-.67-2.16v2h-1.75V189h-1v4.1h-1.72V189h-1v4.3h-2V188a15 15 0 01-2.07 5.19 9.42 9.42 0 00-2.08-1.52 10 10 0 001.15-2.28l-1.27.41a18.87 18.87 0 00-1.11-4.41l1.87-.56a17.31 17.31 0 011 3 28.48 28.48 0 00.72-7.18v-5h12.1v6.1h-9.63v1h10.13zm.07-18.65v2.43h-13.54v-2.43zM733.29 178v1.58h6.87V178zm2.24 9v-2h-1v2zm2.76 0v-2h-1v2zm1.75-2v2h1v-2zm0 6.07h.84c.17 0 .17 0 .17-.24V189h-1zM763.08 187.85a28.36 28.36 0 007.68 2.91A11.27 11.27 0 00769 193a26.64 26.64 0 01-8.24-3.94v4.2H758v-4.1a27 27 0 01-8.29 4 15.09 15.09 0 00-1.82-2.35 29 29 0 007.95-3h-7.16v-2.28H758v-.93h-6.61v-6.48c-.43.41-.88.79-1.36 1.17a9.4 9.4 0 00-2-1.92 19.39 19.39 0 005.69-6.52l3 .55a21.27 21.27 0 01-1.3 2.06h3.41a21.17 21.17 0 001.06-2.59l3.22.38c-.41.77-.87 1.54-1.3 2.21h7.18v2.21h-7.54v1h6.36v1.88h-6.36v1h6.38v1.88h-6.38v1h8.23v2.16h-8.81v.93h9.44v2.28zm-4.49-12.14h-4.53v1h4.53zm0 2.86h-4.53v1h4.53zm-4.53 3.91h4.53v-1h-4.53zM784 174.63c0 .26-.12.58-.19.89 1.35-.19 2.71-.46 4-.77v3a42.63 42.63 0 01-4.68.79c-.21 1-.45 2.11-.72 3.1a77.06 77.06 0 01-3.81 11.11l-3.34-1.13a52 52 0 004.15-10.8c.17-.65.34-1.34.51-2h-1.59c-1.17 0-2.06 0-2.9-.09l-.07-3a24.07 24.07 0 003 .19c.7 0 1.42 0 2.16-.07.1-.53.17-1 .22-1.37a13.16 13.16 0 00.07-2.45l3.67.29c-.14.68-.38 1.78-.48 2.31zm2.91 13c0 1.05.72 1.85 3.29 1.85a28.24 28.24 0 005-.48l-.12 3a33.38 33.38 0 01-4.9.36c-4 0-6.21-1.39-6.21-3.81a16.57 16.57 0 01.4-3.22l2.88.27a8.4 8.4 0 00-.34 2.04zm3.65-8.26a40.32 40.32 0 014.22.22l-.07 2.88a33.79 33.79 0 00-4.13-.31 36.2 36.2 0 00-4.63.26v-2.81c1.34-.13 3.05-.23 4.61-.23zm3.55-3l-1.92.84a28 28 0 00-1.87-3.33l1.89-.79a32.58 32.58 0 011.9 3.24zm2.88-1.1l-1.9.82a25.68 25.68 0 00-1.94-3.32l1.9-.76a27.08 27.08 0 011.95 3.22zM805.77 174.51c-.6 2.66-1.44 7.7-.79 10.68.31-.74.74-1.9 1.15-2.78l1.49 1a58.5 58.5 0 00-1.64 5.85 5.8 5.8 0 00-.14 1.18v1l-2.67.27a26 26 0 01-1.37-7.78 67.13 67.13 0 01.77-9.58 15.46 15.46 0 00.17-2.08l3.55.36c-.16.51-.4 1.37-.52 1.88zm12.38-.72v3.07a30.46 30.46 0 003.6-.43v3.12c-1 .12-2.21.22-3.55.29v1c0 5.66-.44 9.14-5.24 12.19l-2.76-2.19a9 9 0 002.79-1.92c1.85-1.92 2.23-4.05 2.23-8.11V180h-2.69c-.89 0-2.52-.08-3.69-.12v-3a24.87 24.87 0 003.62.26h2.71c0-1.34 0-2.59-.09-3.24a10.9 10.9 0 00-.27-1.65h3.48c-.09.44-.11 1.01-.14 1.54zM832 175.54c-.12 2.59-.31 8-.31 11 0 2.42 1.46 3.21 3.33 3.21 4 0 6.46-2.3 8.21-4.92l2.19 2.67a12.51 12.51 0 01-10.42 5.44c-3.94 0-6.46-1.73-6.46-5.81 0-3.21.21-9.52.21-11.59a17 17 0 00-.28-3.24h3.86a35.6 35.6 0 00-.33 3.24zm8.76 2.59l-2.14.94a24.08 24.08 0 00-2.2-3.91l2.08-.89a38.16 38.16 0 012.26 3.86zm3.29-1.41l-2.09 1a25.57 25.57 0 00-2.3-3.82l2.06-1a33.24 33.24 0 012.33 3.82zM855.68 178.66c.27.48.58 1.13.92 1.83 2.52-1 5-2 6.84-2 3.48 0 5.06 2.16 5.06 4.27 0 3-1.63 4.8-5.23 4.8a9.71 9.71 0 01-3-.6l.07-2.76a7.43 7.43 0 002.71.65c1.66 0 2.48-.84 2.48-2.09 0-.79-.72-1.61-2.21-1.61a17 17 0 00-5.6 1.68c.22.51.44 1 .6 1.39.92 2.12 2.33 6.27 3 8.4l-3 .73a65.48 65.48 0 00-2.62-7.95c-.19-.43-.38-.89-.6-1.34-1.58.76-3 1.48-3.6 1.77l-1.36-2.9a17.16 17.16 0 002.13-.65l1.71-.7c-.32-.6-.6-1.15-.84-1.56a12.84 12.84 0 00-1.14-1.62l3-1.15c.2.43.52 1.05.68 1.41zm1.59-1.75l2.11-1.56a19.09 19.09 0 012.64 2.3l-2.14 1.56a22.13 22.13 0 00-2.61-2.3zM882.79 175.21a30.44 30.44 0 003.24-.77l.09 2.78a40.75 40.75 0 01-4.2.84 44.23 44.23 0 01-5.13 10.27l-2.91-1.48a37.88 37.88 0 004.9-8.48h-1.25c-1 0-2 0-3-.1l-.22-2.78a30.58 30.58 0 003.2.17c.72 0 1.44 0 2.18-.1a20 20 0 00.65-4l3.31.34c-.19.79-.5 2.01-.86 3.31zm6.48 7.24c0 .7.09 1.85.14 3.05a15.93 15.93 0 015 3.07l-1.61 2.57a20.69 20.69 0 00-3.24-2.57v.24c0 2.24-1.22 4-4.63 4-3 0-5.33-1.32-5.33-4 0-2.35 2-4.15 5.3-4.15.58 0 1.11.05 1.66.1-.1-1.78-.22-3.91-.26-5.38h3a28.58 28.58 0 00-.03 3.07zm-4.8 7.56c1.65 0 2.16-.91 2.16-2.23v-.48a9 9 0 00-2-.24c-1.39 0-2.28.63-2.28 1.47s.8 1.47 2.12 1.47zm3.16-12.76l1.54-2.38a42 42 0 015.93 3.26l-1.71 2.52a34.2 34.2 0 00-5.76-3.4zM911.7 175.59c-1.56 1.25-4.73 3.7-6.34 5.06-1.27 1.11-1.25 1.37 0 2.5 1.8 1.51 6.36 5.11 8.81 7.49l-2.81 2.57c-.67-.75-1.37-1.52-2.09-2.24-1.46-1.51-5-4.51-7.17-6.38-2.4-2-2.21-3.31.19-5.33 1.89-1.53 5.18-4.2 6.79-5.76a16.16 16.16 0 001.85-2l2.81 2.47c-.74.54-1.49 1.16-2.04 1.62zM923.53 187.59l2.5-2.16a43.19 43.19 0 015.23 5.26l-2.57 2.2a46.31 46.31 0 00-5.16-5.3zM959.82 174.15c-.07.41-.17 1.06-.27 1.85a34.63 34.63 0 004.4-.34l-.1 2.86a44.3 44.3 0 01-4.68.24c-.14 1.05-.29 2.18-.41 3.26h.17a39.8 39.8 0 004.82-.29l-.07 2.86c-1.34.12-2.73.22-4.25.22h-1c0 .72-.09 1.32-.09 1.75 0 2 1.22 3.05 3.58 3.05 3.35 0 5.18-1.54 5.18-3.51a6.54 6.54 0 00-2.47-4.65l3.38-.72a8.9 8.9 0 012.33 5.76c0 3.62-3.26 6.21-8.52 6.21-3.77 0-6.43-1.63-6.43-5.64 0-.57.07-1.44.16-2.42a27 27 0 01-4.6-.79l.16-2.91a22.07 22.07 0 004.73 1c.15-1.08.29-2.21.41-3.29a27.28 27.28 0 01-4.78-.86l.17-2.76a22.15 22.15 0 005 .91c.07-.74.14-1.39.19-1.94a12.78 12.78 0 000-2.14l3.39.19a19.47 19.47 0 00-.4 2.1zM978.78 180.44c1.64-.51 5.72-1.87 8.62-1.87 3.79 0 6.34 2.25 6.34 5.88 0 4.34-3.82 7.29-11.45 7.77l-1.29-2.95c5.49-.14 9.52-1.61 9.52-4.87 0-1.8-1.34-3.05-3.43-3.05-2.78 0-7.58 2-9.62 2.86l-1.25-3.12c.78-.15 1.84-.44 2.56-.65zM1007.53 178.76c2-1.15 4.05-2.19 5.18-2.83a14.86 14.86 0 002.23-1.47l1.66 2.79c-.72.43-1.49.84-2.38 1.29a73.1 73.1 0 00-6.69 3.55c-2 1.32-3.34 2.69-3.34 4.37s1.66 2.64 5 2.64a37 37 0 007.85-.89v3.46a44.52 44.52 0 01-7.7.6c-4.78 0-8.4-1.32-8.4-5.45 0-2.64 1.68-4.63 4-6.33-1.1-2-2.25-4.61-3.33-7.16l3-1.22a56.57 56.57 0 002.92 6.65zM1026.77 182.14a17.56 17.56 0 00-4.27-2.33l1.44-2.23a16.84 16.84 0 014.36 2.09zm2.49 3.31c-1.12 2.55-2.42 5.36-3.69 7.68l-2.52-1.68a67.8 67.8 0 004-7.7zm-1.63-9.52a18 18 0 00-4.15-2.69l1.66-2.09a19 19 0 014.24 2.47zm12.24 9.76a15.07 15.07 0 005.24 4.47 11.47 11.47 0 00-2 2.33 16.82 16.82 0 01-4.85-5.09v5.83h-2.81v-5.54a15.76 15.76 0 01-5.52 4.89 14.61 14.61 0 00-1.82-2.18 13.79 13.79 0 005.86-4.71h-4.52v-2.54h6v-2.4h2.81v2.4h6.34v2.54zm-7.92-9h-2.47v-4.78h15.1V176H1042v-1.77h-1.8v3.5c0 .58.08.67.53.67h1.27c.4 0 .5-.24.57-1.82a7 7 0 002.26.93c-.27 2.52-.91 3.17-2.55 3.17h-2c-2.21 0-2.69-.69-2.69-2.9v-3.55h-1.3c-.21 3.91-1.15 6.14-6 7.32a6.61 6.61 0 00-1.34-2.12c4-.81 4.51-2.28 4.68-5.2H1032zM1062 175.59c-1.56 1.25-4.73 3.7-6.34 5.06-1.27 1.11-1.25 1.37 0 2.5 1.8 1.51 6.36 5.11 8.81 7.49l-2.81 2.57c-.67-.75-1.37-1.52-2.09-2.24-1.46-1.51-5-4.51-7.18-6.38-2.4-2-2.2-3.31.2-5.33 1.89-1.53 5.18-4.2 6.79-5.76a17 17 0 001.85-2l2.81 2.47c-.71.54-1.5 1.16-2.04 1.62zM1078.76 183.08c0 .33-.09.67-.17 1 1.25 1.23 3.84 4.23 4.52 5l-1.92 2.4c-.8-1.25-2.16-3-3.34-4.51a12.87 12.87 0 01-4.54 6.29 10.74 10.74 0 00-2-2.17 11.19 11.19 0 004.61-8h-4.25v-2.69h4.44v-3.82h-1a16.66 16.66 0 01-1.63 3.22 16 16 0 00-2.3-1.66 17.88 17.88 0 002.69-7.22l2.73.55c-.17.84-.36 1.66-.6 2.47h6.34v2.64H1079v3.82h3.94v2.69zm13.92-10.08v19.3h-2.9v-1.4h-3.48v1.73h-2.76V173zm-2.9 15.24v-12.58h-3.48v12.55zM1103.09 177c1.15-1.87 3.24-3.89 6-3.89 3.34 0 5.93 3.26 5.93 8.54 0 6.8-4.15 10-10.51 11.19l-1.83-2.79c5.33-.81 9.1-2.56 9.1-8.37 0-3.7-1.25-5.76-3.26-5.76-2.83 0-5.31 4.25-5.43 7.41a13.56 13.56 0 00.12 2.55l-3 .19a27.81 27.81 0 01-.31-4 62.34 62.34 0 01.67-7.68 21.15 21.15 0 00.19-2.52l3.29.15a37.38 37.38 0 00-.96 4.98zM1130.31 174.34c0 .27-.12.58-.19.91 1.35-.19 2.69-.45 4-.76v3a45.15 45.15 0 01-4.68.79c-.22 1-.46 2.09-.72 3.07a73.21 73.21 0 01-3.82 11.11l-3.33-1.13a52.08 52.08 0 004.15-10.8c.17-.64.36-1.32.5-2h-1.58c-1.15 0-2.06 0-2.9-.1l-.08-3a24.57 24.57 0 003 .19c.69 0 1.41 0 2.16-.07.09-.53.17-1 .21-1.37a12.21 12.21 0 00.08-2.42l3.67.29c-.15.68-.37 1.76-.47 2.29zm2.89 13c0 1.06.71 1.85 3.28 1.85a28.43 28.43 0 005-.5l-.12 3.07a38.23 38.23 0 01-4.9.34c-4 0-6.22-1.4-6.22-3.82a17 17 0 01.43-3.22l2.86.29a8.32 8.32 0 00-.33 2.02zm3.64-8.28c1.37 0 2.81.08 4.23.22l-.07 2.88a36.15 36.15 0 00-4.13-.29 41 41 0 00-4.64.24v-2.81c1.35-.09 3.08-.21 4.61-.21zM1150.4 177c0 1.56 0 3.36.15 5.08.33 3.46 1 5.84 2.57 5.84 1.13 0 2.09-2.81 2.54-4.73l2.4 2.93c-1.58 4.17-3.1 5.64-5 5.64-2.64 0-4.92-2.38-5.59-8.81-.24-2.21-.26-5-.26-6.48a15 15 0 00-.21-2.47l3.69.05a19.06 19.06 0 00-.29 2.95zm16.66 10.05l-3.14 1.23c-.39-3.87-1.66-9.7-4.27-12.68l3-1c2.35 2.79 4.15 8.79 4.41 12.46zM1175.86 189.34a2.11 2.11 0 112.11 2.11 2 2 0 01-2.11-2.11zm.24-12.48l-.12-3.57h4l-.12 3.57-.65 8.21h-2.44z"/><path class="cls-1" d="M628.42 168.15h28v28h-28z"/><path class="cls-4" d="M655.42 169.15v26h-26v-26h26m2-2h-30v30h30v-30z"/><path class="cls-5" d="M650.42 172.15l-12.4 13.63-3.6-2.72h-2l5.6 9.09 14.4-20h-2z"/><path class="cls-4" d="M680.62 266.77a27.74 27.74 0 0010.25 8.8 13.36 13.36 0 00-1.87 2.5 33.14 33.14 0 01-4.54-3.22v2h-10.18v-1.92a33.53 33.53 0 01-4.44 3.19 11.06 11.06 0 00-1.8-2.28 28.56 28.56 0 009.72-9.07zm4.66 12.23l2.28.67c-1.18 2.95-2.91 6.67-4.4 9.72l-3-.84c1.06-2.07 2.28-4.63 3.22-6.72H671v-2.69h13.75zm-1.59-4.8a29 29 0 01-4.37-4.66 27.14 27.14 0 01-4.22 4.66zM706.72 288.37l-1.8-2.86a20 20 0 002.23-.38c3.08-.72 5.48-2.93 5.48-6.44 0-3.31-1.8-5.78-5-6.33a49.87 49.87 0 01-1.44 6.5c-1.44 4.85-3.51 7.83-6.12 7.83s-4.88-2.93-4.88-7c0-5.54 4.8-10.27 11-10.27 6 0 9.7 4.13 9.7 9.36-.02 5.07-3.12 8.65-9.17 9.59zm-6.6-5.38c1 0 2-1.51 2.93-4.75a36 36 0 001.27-5.81 7.55 7.55 0 00-6.09 7c0 2.38.95 3.57 1.89 3.57zM729.34 267.85a39.46 39.46 0 01-2.48 5v16.45H724V277a23.8 23.8 0 01-1.92 2.14 18.39 18.39 0 00-1.65-2.93 25.18 25.18 0 006.09-9.24zm7.82 9.09v8.74h5.67v2.73h-14.36v-2.73h5.76v-8.74h-6.36v-2.78h6.36v-6.77h2.93v6.77h6.07v2.78zM768.55 282.65h-2.5v4.18h-2.9v-1h-4.32v.74c0 1.42-.34 2-1.28 2.4a12.57 12.57 0 01-4.24.41 9.09 9.09 0 00-.94-2.26c1.15.05 2.57.05 3 .05s.6-.17.6-.6v-.74h-7.29v-2.07h7.29v-1.13h-9.5v-2.18h9.5v-1h-7.1v-1.92h7.1v-1.06h-6.5v-4.75h6.5v-1H747v-2.26h8.95v-1.56h2.91v1.56H768v2.26h-9.17v1h6.81v4.75h-6.81v1.06h7.22v3h2.5zm-12.63-8v-1.15h-3.77v1.15zm2.91-1.15v1.15h3.88v-1.15zm0 7h4.32v-1h-4.32zm4.32 2.18h-4.32v1.13h4.32zM777.83 271a64.06 64.06 0 00-1.15 8.81 12 12 0 00.09 1.56c.37-.82.75-1.66 1.08-2.45l1.49 1.18c-.67 2-1.46 4.6-1.72 5.88a6.3 6.3 0 00-.12 1.12v1l-2.78.19a30.65 30.65 0 01-.94-7.85 67.44 67.44 0 011-9.5c.07-.67.22-1.59.24-2.35l3.36.28c-.14.49-.45 1.69-.55 2.13zm5.93 11.74c0 1 .91 1.7 3.36 1.7a28.42 28.42 0 006-.62l.05 3.24a34.82 34.82 0 01-6.19.45c-4.13 0-6.12-1.46-6.12-3.93a14.24 14.24 0 01.41-3.12l2.76.26a8.26 8.26 0 00-.27 2.01zm8.69-12.29v3.09a63.5 63.5 0 01-10.32 0v-3.07a49.36 49.36 0 0010.32-.03zM816.13 272.45a35.16 35.16 0 01-3.77 6.6 67.77 67.77 0 016.69 6.87l-2.73 2.37a54.85 54.85 0 00-6.05-6.79 31.64 31.64 0 01-9 6.75l-2.48-2.6a26.79 26.79 0 009.84-6.88 18.58 18.58 0 003.58-5.88h-8.14c-1 0-2.32.14-2.83.16v-3.4c.65.09 2.11.16 2.83.16h8.48a8.54 8.54 0 002.47-.31l2 1.47a9.61 9.61 0 00-.89 1.48zM827.3 271.13a16.46 16.46 0 00-.24-2.88h3.75a25.19 25.19 0 00-.22 2.88v3.56a77.53 77.53 0 0110 3.72l-1.37 3.31a69.13 69.13 0 00-8.67-3.58v6.79c0 .7.12 2.38.22 3.36h-3.75a25.31 25.31 0 00.24-3.36zM848.23 284.72v-13A15.84 15.84 0 00848 269h3.76a18.11 18.11 0 00-.24 2.74v12.48a27.5 27.5 0 0012.34-7.94l1.71 2.71c-3.29 3.93-8.26 6.79-13.93 8.64a6.28 6.28 0 00-1.41.65l-2.28-2a3.11 3.11 0 00.28-1.56zM885.31 272.45a35.16 35.16 0 01-3.77 6.6 68 68 0 016.7 6.87l-2.74 2.37a54.85 54.85 0 00-6-6.79 31.5 31.5 0 01-9 6.75l-2.47-2.6a27 27 0 009.84-6.88 18.72 18.72 0 003.57-5.88h-8.13c-1 0-2.33.14-2.84.16v-3.4c.65.09 2.12.16 2.84.16h8.47a8.54 8.54 0 002.47-.31l2 1.47a10.52 10.52 0 00-.94 1.48zM901.44 270.39a60.66 60.66 0 006.79-.7v2.79a72.46 72.46 0 01-7.82.6 17.08 17.08 0 01-1.37 2.45 8.11 8.11 0 012.71-.48 3.26 3.26 0 013.2 1.84c1.24-.57 2.25-1 3.24-1.41s1.77-.79 2.66-1.25L912 277c-.77.22-2 .7-2.86 1-1.08.43-2.44 1-3.91 1.63 0 1.35.07 3.12.1 4.23h-2.88c.07-.72.09-1.87.12-2.93-1.8 1-2.76 2-2.76 3.17s1.13 1.68 3.48 1.68a40 40 0 006.81-.67l-.09 3.09a59.21 59.21 0 01-6.79.41c-3.77 0-6.56-.91-6.56-4s2.88-5 5.62-6.41a1.84 1.84 0 00-1.68-.81 5.87 5.87 0 00-3.74 1.65 29 29 0 00-2.24 2.64l-2.56-1.92a23.41 23.41 0 005.3-6.62h-.31c-1 0-2.74 0-4.06-.14v-2.8a31.65 31.65 0 004.23.29h1.15a13.8 13.8 0 00.48-2.76l3.15.27a23.61 23.61 0 01-.56 2.39zM921 272.79c0 2.95-.46 7.13-2.74 9.84a9.42 9.42 0 00-2.06-1.73c2-2.37 2.18-5.73 2.18-8.16v-3.6h10.2c-.07-.74-.12-1.49-.14-2.23h2.66c0 .74.08 1.51.15 2.23h2.57a18.72 18.72 0 00-2-.89l1.42-1.56a11.32 11.32 0 013.33 1.59l-.72.86h2.21v2.26h-6.53a24.58 24.58 0 001 3.77 14.73 14.73 0 001.46-3.17l2.64.62a19.56 19.56 0 01-2.78 5.26c.65 1 1.32 1.51 2 1.51s.72-.82.84-2.88a6.89 6.89 0 002.16 1.25c-.41 3.41-1.25 4.2-3.14 4.2a4.71 4.71 0 01-3.63-2.07 16.12 16.12 0 01-2.25 1.85 11.24 11.24 0 00-1.42-1.51v.43h-1.54a13.66 13.66 0 013.41 2.62l-2 1.68a14.47 14.47 0 00-3.48-2.96l1.63-1.37h-4.75v-5.18h6.79v3.93a13.68 13.68 0 002.26-1.84 24.14 24.14 0 01-1.8-6.17H921zm-4.59 14.45a8.79 8.79 0 002.93-4.59l2.55.92a9.83 9.83 0 01-3.12 5.25zm12.2-12.91h-7.06v-1.83h7.06zm1.39 12.14c.91 0 1.08-.24 1.2-2.14a7.34 7.34 0 002.5 1c-.31 3-1.11 3.67-3.43 3.67h-3.84c-3.1 0-3.82-.76-3.82-3.24v-3.09h2.83v3.07c0 .65.19.72 1.3.72zm-3.84-9.17H924v1.51h2.18zm8.91 5a16.21 16.21 0 013.84 5l-2.6 1.29a16.15 16.15 0 00-3.64-5.09zM948.74 271.54c-.12 2.59-.31 7.95-.31 10.95 0 2.42 1.46 3.21 3.33 3.21 4 0 6.46-2.3 8.21-4.92l2.18 2.67a12.49 12.49 0 01-10.44 5.49c-3.93 0-6.45-1.73-6.45-5.81 0-3.21.21-9.52.21-11.59a16.2 16.2 0 00-.29-3.24l3.87.05c-.14 1.01-.26 2.23-.31 3.19zm8.76 2.59l-2.14.94a23.37 23.37 0 00-2.21-3.91l2.09-.89a40.14 40.14 0 012.26 3.86zm3.29-1.41l-2.09 1a24.78 24.78 0 00-2.31-3.82l2.07-1a34.74 34.74 0 012.33 3.82zM972.39 269.07c1.27 0 6.41-.1 7.78-.22a9.7 9.7 0 001.82-.26l1.56 2.14c-.55.36-1.13.69-1.68 1.1-1.29.91-3.81 3-5.33 4.22a9.56 9.56 0 012.28-.26c4.08 0 7.18 2.54 7.18 6 0 3.79-2.88 6.79-8.69 6.79-3.33 0-5.85-1.54-5.85-3.94a4 4 0 014.29-3.74 4.79 4.79 0 015.11 4.1 3.48 3.48 0 002-3.26c0-2.16-2.16-3.62-5-3.62-3.67 0-6.07 1.94-8.64 4.87l-2.22-2.21c1.7-1.37 4.61-3.81 6-5s3.84-3.12 5-4.15c-1.22 0-4.54.17-5.81.24-.65.05-1.41.12-2 .19l-.09-3.12a15.93 15.93 0 002.29.13zm4.32 16.82a12 12 0 001.39-.07c-.14-1.56-1-2.57-2.32-2.57-.92 0-1.49.56-1.49 1.16 0 .88.98 1.48 2.42 1.48zM992.21 285.27a2.2 2.2 0 112.2 2.3 2.2 2.2 0 01-2.2-2.3zm9.09 0a2.2 2.2 0 112.19 2.3 2.2 2.2 0 01-2.19-2.3zm9.1 0a2.2 2.2 0 112.18 2.3 2.2 2.2 0 01-2.18-2.3z"/><path class="cls-1" d="M628.42 264.15h28v28h-28z"/><path class="cls-4" d="M655.42 265.15v26h-26v-26h26m2-2h-30v30h30v-30z"/><path class="cls-5" d="M650.42 268.15l-12.4 13.63-3.6-2.72h-2l5.6 9.09 14.4-20h-2z"/><path class="cls-4" d="M690.12 224.31v1.27c-.22 9.82-.41 13.3-1.18 14.4a2.68 2.68 0 01-1.89 1.2 15.93 15.93 0 01-3 .1 6.73 6.73 0 00-.84-2.74c1.06.1 2 .12 2.43.12a.84.84 0 00.81-.41c.51-.64.75-3.57.89-11.32h-2.16c-.31 6.43-1.42 11.37-5.45 14.57a9.14 9.14 0 00-1.68-1.9c-3.45.36-6.91.72-9.5.93l-.34-2.4 4.87-.33v-1.44h-4.22v-2h4.22v-.93H669V226h4.13v-.94h-4.73V223h4.73v-1c-1.39.1-2.76.17-4.05.19a8.82 8.82 0 00-.63-2 74.88 74.88 0 0010.3-1.19l1.25 2.14c-1.28.26-2.76.48-4.32.64V223h4.6v1.32h2.26v-5h2.74v5zm-18.91 4.54h1.87v-1.06h-1.87zm1.87 2.78v-1.08h-1.87v1.08zm2.6 6c1.36-.09 2.78-.21 4.17-.33 1.87-2.6 2.45-6 2.62-10.32h-2.19v-1.88h-4.6v.9h4.24v7.42h-4.24v.93H680v2h-4.34zm1.87-8.73v-1.06h-1.87v1.06zm-1.87 1.7v1.08h1.87v-1.08zM716.67 220.35V223h-9.41v1.92h4.37v10.88H700.2v-10.87h4.2V223h-9.22v-2.66zm-3.48 4.25H716v16.7h-2.76v-1.39h-14.5v1.42h-2.84V224.6h2.79v12.62h14.5zm-10.66 4.68h2.09v-2h-2.09zm0 4.2h2.09v-2h-2.09zm6.62-6.22h-2.08v2h2.08zm0 4.18h-2.08v2h2.08zM724.44 233.31a20.18 20.18 0 01-1.42 6.17 12.21 12.21 0 00-2-1 17.35 17.35 0 001.22-5.57zm2.66-1.9v9.92h-2.4v-9.72l-3.17.24-.28-2.48c.57 0 1.2-.07 1.89-.09.31-.43.65-.91 1-1.39a20 20 0 00-2.78-3.48l1.37-1.85c.19.17.38.36.57.55a29.22 29.22 0 001.73-4.18l2.42.84c-.86 1.66-1.84 3.56-2.68 4.9.28.34.55.67.76 1 .8-1.34 1.52-2.73 2.07-3.91l2.25 1c-.88 1.47-1.92 3.08-3 4.59l1.87-.77a21.46 21.46 0 011.92 5.23l-2 .87a13.55 13.55 0 00-.31-1.37zm.46-2.4a16.71 16.71 0 00-.72-1.65c-.43.62-.84 1.22-1.27 1.77zm15.82 9.89c0 .94-.1 1.56-.68 2a3.17 3.17 0 01-2 .46 8.82 8.82 0 00-.67-2.16v2h-1.75V237h-1v4.1h-1.72V237h-1v4.3h-2V236a15 15 0 01-2.07 5.19 9.42 9.42 0 00-2.08-1.52 10 10 0 001.15-2.28l-1.27.41a18.87 18.87 0 00-1.11-4.41l1.87-.56a17.31 17.31 0 011 3 28.48 28.48 0 00.72-7.18v-5h12.1v6.1h-9.63v1h10.13zm.07-18.65v2.43h-13.54v-2.43zM733.29 226v1.58h6.87V226zm2.24 9v-2h-1v2zm2.76 0v-2h-1v2zm1.75-2v2h1v-2zm0 6.07h.84c.17 0 .17 0 .17-.24V237h-1zM763.08 235.85a28.36 28.36 0 007.68 2.91A11.27 11.27 0 00769 241a26.64 26.64 0 01-8.24-3.94v4.2H758v-4.1a27 27 0 01-8.29 4 15.09 15.09 0 00-1.82-2.35 29 29 0 007.95-3h-7.16v-2.28H758v-.93h-6.61v-6.48c-.43.41-.88.79-1.36 1.17a9.4 9.4 0 00-2-1.92 19.39 19.39 0 005.69-6.52l3 .55a21.27 21.27 0 01-1.3 2.06h3.41a21.17 21.17 0 001.06-2.59l3.22.38c-.41.77-.87 1.54-1.3 2.21h7.18v2.21h-7.54v1h6.36v1.88h-6.36v1h6.38v1.88h-6.38v1h8.23v2.16h-8.81v.93h9.44v2.28zm-4.49-12.14h-4.53v1h4.53zm0 2.86h-4.53v1h4.53zm-4.53 3.91h4.53v-1h-4.53zM784.29 222.39a60.66 60.66 0 006.79-.7v2.79a72.46 72.46 0 01-7.82.6 17.08 17.08 0 01-1.37 2.45 8.06 8.06 0 012.71-.48 3.25 3.25 0 013.19 1.84c1.25-.57 2.26-1 3.24-1.41s1.78-.79 2.67-1.25l1.2 2.78c-.77.22-2 .7-2.86 1-1.08.43-2.45 1-3.91 1.63 0 1.35.07 3.12.09 4.23h-2.88c.08-.72.1-1.87.12-2.93-1.8 1-2.76 2-2.76 3.17s1.13 1.68 3.48 1.68a40.08 40.08 0 006.82-.67l-.1 3.09a58.92 58.92 0 01-6.79.41c-3.77 0-6.55-.91-6.55-4s2.88-5 5.62-6.41a1.84 1.84 0 00-1.68-.81 5.88 5.88 0 00-3.75 1.65 29 29 0 00-2.23 2.64l-2.57-1.92a23.47 23.47 0 005.31-6.62h-.32c-1 0-2.73-.05-4-.14v-2.81a31.5 31.5 0 004.22.29h1.15a12.51 12.51 0 00.48-2.76l3.17.26a23.61 23.61 0 01-.67 2.4zM802.46 227.67l2.16-.91c-.34-.72-.7-1.42-1.06-2a17.74 17.74 0 00-1.42-2.11l3.13-1.2c.21.43.69 1.41 1 1.87.36.69.74 1.46 1.12 2.28 1.47-.65 2.93-1.25 4.32-1.71a41 41 0 00-3.31-3.07l2.21-1.53a36.11 36.11 0 013.48 3.07l-1.9 1.39a12.28 12.28 0 013.46-.58c3.72 0 5.95 2.26 5.95 5 0 3.36-2.3 5.5-6 5.5a12 12 0 01-3.7-.67l.07-3a9 9 0 003.34.82c1.8 0 3.12-1 3.12-2.71 0-1.23-1.08-2.21-2.88-2.21s-4.49 1-7.06 2.16c.24.5.46 1 .67 1.49 1.13 2.61 3 7.75 3.77 10.44l-3.29.86a74.3 74.3 0 00-3.21-10c-.22-.51-.43-1-.65-1.49-1.73.86-3.24 1.68-4.27 2.14l-1.42-3.05a19.79 19.79 0 002.37-.78zM830.18 228.44c1.63-.51 5.71-1.87 8.62-1.87 3.79 0 6.34 2.25 6.34 5.88 0 4.34-3.82 7.29-11.45 7.77l-1.28-2.95c5.5-.14 9.53-1.61 9.53-4.87 0-1.8-1.34-3.05-3.43-3.05-2.78 0-7.58 2-9.62 2.86l-1.25-3.12c.72-.15 1.82-.44 2.54-.65zM851.62 222.61l10.35-.92c2.47-.19 5.11-.36 6.79-.4v3.07a26.56 26.56 0 00-4.63.31 7.3 7.3 0 00-5.06 6.74c0 3.94 3.69 5.38 7.75 5.6l-1.13 3.28c-5-.33-9.77-3-9.77-8.23a9.68 9.68 0 013.55-7.41c-2.25.24-7.15.76-9.93 1.36l-.31-3.28c.98-.03 1.91-.08 2.39-.12zM878.51 221.07c1.28 0 6.41-.1 7.78-.22a9.55 9.55 0 001.82-.26l1.56 2.14c-.55.36-1.12.69-1.68 1.1-1.29.91-3.81 3-5.32 4.22a9.44 9.44 0 012.28-.26c4.08 0 7.17 2.54 7.17 6.05 0 3.79-2.88 6.79-8.69 6.79-3.33 0-5.85-1.54-5.85-3.94a4 4 0 014.29-3.74 4.81 4.81 0 015.12 4.1 3.47 3.47 0 002-3.26c0-2.16-2.16-3.62-5-3.62-3.68 0-6.08 1.94-8.64 4.87l-2.19-2.26c1.71-1.37 4.61-3.81 6-5s3.84-3.12 5-4.15c-1.22 0-4.53.17-5.81.24-.64.05-1.41.12-2 .19l-.1-3.12a15.93 15.93 0 002.26.13zm4.32 16.82a12.25 12.25 0 001.4-.07c-.15-1.56-1-2.57-2.33-2.57-.91 0-1.49.56-1.49 1.16 0 .88.98 1.48 2.42 1.48zM902.18 222.51c-.6 2.66-1.44 7.7-.79 10.68.31-.74.74-1.9 1.15-2.78l1.49 1a55.56 55.56 0 00-1.63 5.85 5.22 5.22 0 00-.15 1.18v1l-2.66.27a26 26 0 01-1.37-7.78 67.13 67.13 0 01.77-9.58 15.38 15.38 0 00.16-2.08l3.56.36a18 18 0 00-.53 1.88zm12.38-.72v3.07a30.46 30.46 0 003.6-.43v3.12c-1 .12-2.21.22-3.55.29v1c0 5.66-.43 9.14-5.23 12.19l-2.76-2.19a9 9 0 002.78-1.92c1.85-1.92 2.23-4.05 2.23-8.11V228h-2.69c-.89 0-2.52-.08-3.69-.12v-3a24.87 24.87 0 003.62.26h2.71c0-1.34 0-2.59-.09-3.24a10.9 10.9 0 00-.27-1.65h3.48c-.09.44-.11 1.01-.14 1.54zM930.27 227.12c1.75-1 3.45-1.9 4.58-2.55a16.28 16.28 0 002.23-1.44l1.52 2.87c-.77.43-1.54.84-2.4 1.27a57.59 57.59 0 00-6 3.21c-2 1.32-3.33 2.69-3.33 4.37s1.68 2.64 5 2.64a40.55 40.55 0 007.83-.86v3.43a44.27 44.27 0 01-7.7.62c-4.78 0-8.41-1.34-8.41-5.49 0-2.64 1.68-4.61 4-6.31-1.1-2-2.26-4.64-3.34-7.16l3-1.22a52 52 0 003.02 6.62zm10.51-3.72l-1.94.81a28.27 28.27 0 00-1.88-3.33l1.9-.77a35.58 35.58 0 011.92 3.29zm2.88-1.11l-1.92.82a27.16 27.16 0 00-1.92-3.31l1.9-.79a37.84 37.84 0 011.94 3.28zM955.74 236.69h-4.87v2.12h-2.64v-18.44h7.51zm-4.87-13.77v4.22h2.21v-4.22zm2.21 11.23v-4.51h-2.21v4.51zm14.3-5.62v2.07h2.31v2.47h-2.31v5.23c0 1.37-.26 2.09-1.2 2.52a10.54 10.54 0 01-4 .48 9.64 9.64 0 00-.92-2.69h2.86c.36 0 .5-.09.5-.43v-5.16h-8.42v-2.42h8.42v-2.07h-8.47V226h5.43v-2.11H957v-2.5h4.61v-2.52h2.8v2.52h4.8v2.5h-4.8V226h5.48v2.49zm-7.94 4.83a16.51 16.51 0 012.9 3.93l-2.44 1.42a17.14 17.14 0 00-2.74-4zM977.48 233.36a22.47 22.47 0 01-1.44 6.19 13.81 13.81 0 00-2.19-1 17.3 17.3 0 001.27-5.57zm4.25-6.7a20.59 20.59 0 012.11 5.09l-2 .91a11.53 11.53 0 00-.31-1.22l-1.22.09v9.82h-2.48v-9.65l-3.48.22-.24-2.47 1.73-.08c.36-.45.74-1 1.13-1.53a24.24 24.24 0 00-2.83-3.27l1.36-1.94.56.48a30.53 30.53 0 001.75-4.18l2.47.92c-.86 1.63-1.82 3.48-2.69 4.82.32.34.58.67.82 1a43.55 43.55 0 002.14-3.89l2.32 1.08c-1.32 2.09-3 4.51-4.48 6.46l2.3-.1c-.26-.6-.55-1.2-.84-1.73zm.62 6.1a27.13 27.13 0 011.49 4.32l-2.11.77a28.25 28.25 0 00-1.4-4.47zm8.38-13.51a23.49 23.49 0 006.36 6.84 17.52 17.52 0 00-1.76 2.66 22.09 22.09 0 01-1.75-1.56v2h-7.89V227a19 19 0 01-2.09 1.87 13.18 13.18 0 00-1.6-2.47 23.07 23.07 0 006-7.15zm-6.32 12h10.66v9.94h-2.74V240h-5.28v1.27h-2.64zm8.57-4.7a34.5 34.5 0 01-3.53-4.44 27.72 27.72 0 01-3.33 4.44zm-5.93 7.22v3.74h5.28v-3.74zM1008.77 231.53c-.77.24-1.54.48-2.31.7v6.07c0 1.32-.21 2-.93 2.5a6.26 6.26 0 01-3.34.53 10.23 10.23 0 00-.72-2.64h2c.3 0 .41-.1.41-.41V233c-.79.24-1.58.45-2.28.65l-.62-2.74c.81-.17 1.82-.43 2.9-.7v-4.15h-2.52v-2.61h2.52v-4.52h2.59v4.52h2.19v.55a11 11 0 003.69-5.11l2.64.41c-.19.46-.38.91-.6 1.34h3l.41-.09 1.8 1.13a30.83 30.83 0 01-1.63 2.88h4.61v7.89h-2.42v-2h-1.66c-1.75 0-2.14-.52-2.14-2.25v-1.44h-.93c-.22 2-.82 3.41-2.74 4.29a6.89 6.89 0 00-.77-1.08v2.5h-2.37v-6.65a11.09 11.09 0 00-.84-.84v1.08h-2.19v3.46l1.95-.55zm9.21 4c1.06 1.8 2.84 2.9 5.69 3.31a8.37 8.37 0 00-1.58 2.38c-3.12-.68-5-2.07-6.2-4.3-1.08 2.09-3.14 3.53-7.12 4.42a7.72 7.72 0 00-1.4-2.21c3.72-.72 5.45-1.85 6.29-3.6h-5.21v-2.38h5.88c.1-.6.15-1.25.2-1.94h2.59c0 .67-.1 1.32-.19 1.94h6.36v2.38zm-4.85-12.77a14.83 14.83 0 01-1.39 1.73h3.39a18.74 18.74 0 00.91-1.73zm-1.27 6.53a3.05 3.05 0 001.49-2.57h-1.49zm8.24-2.57h-1.73v1.44c0 .41 0 .45.38.45h.94c.26 0 .36 0 .41-.16zM1049.73 237.44h-5.06v3.84h-3v-3.84h-5.4c-.68 1.53-2.36 2.93-6.1 3.89a10.61 10.61 0 00-1.82-2.09 9.37 9.37 0 004.48-1.8h-4.8v-2.26h5.72v-1.46h-2.93v-9.22h2.4a11.12 11.12 0 00-1-1.77h-.51a16.37 16.37 0 01-2.08 2.35 15.17 15.17 0 00-2.31-1.59 12.54 12.54 0 003.7-4.77l2.66.72c-.17.33-.33.69-.53 1h5.31v1.9a10.6 10.6 0 002.28-3.65l2.71.65c-.14.36-.31.74-.48 1.1h6.6v2.26h-3.53a7.87 7.87 0 01.77 1.05l-1.61.72h2.14v9.22h-2.76v1.46h5.06zm-16-11.23v.84h10.65v-.84zm0 3.31h10.65v-.89h-10.65zm0 2.49h10.65v-.88h-10.65zm1.49-9.28a7.29 7.29 0 01.62 1.2l-1.58.57h5.2a22.09 22.09 0 00-2.08-1.08 7.4 7.4 0 00.81-.69zm6.48 12.45v-1.46h-5v1.46zm0-12.45a14.37 14.37 0 01-1.51 1.77h4.1a13.49 13.49 0 00-1.32-1.77zM1068.32 222a7 7 0 010 .74h7v2.83c-1.44-.07-3.67-.12-6.94-.12v3.6a6.16 6.16 0 01.86 3.29c0 3.12-1.82 7.1-7.68 8.73l-2.57-2.54c2.43-.5 4.54-1.3 5.86-2.74a4.7 4.7 0 01-1.08.12 4.23 4.23 0 01-4.13-4.41 4.53 4.53 0 014.8-4.49 5.94 5.94 0 011 .07v-1.61c-3.63.05-7.37.2-10.32.36l-.07-2.9c2.73 0 7.1-.1 10.36-.14v-.75a20.18 20.18 0 00-.24-2.09h3.48c-.21.33-.31 1.62-.33 2.05zm-4 11.23c1 0 1.9-.77 1.56-2.88a1.78 1.78 0 00-1.56-.84 1.86 1.86 0 000 3.72zM1084.39 221.07c1.27 0 6.4-.1 7.77-.22a9.71 9.71 0 001.83-.26l1.56 2.14c-.56.36-1.13.69-1.68 1.1-1.3.91-3.82 3-5.33 4.22a9.44 9.44 0 012.28-.26c4.08 0 7.17 2.54 7.17 6.05 0 3.79-2.88 6.79-8.68 6.79-3.34 0-5.86-1.54-5.86-3.94a4 4 0 014.3-3.74 4.8 4.8 0 015.11 4.1 3.47 3.47 0 002-3.26c0-2.16-2.16-3.62-5-3.62-3.67 0-6.07 1.94-8.64 4.87l-2.19-2.26c1.71-1.37 4.61-3.81 6-5s3.84-3.12 5-4.15c-1.22 0-4.53.17-5.8.24-.65.05-1.42.12-2 .19l-.1-3.12a16 16 0 002.26.13zm4.32 16.82a12.07 12.07 0 001.39-.07c-.15-1.56-1-2.57-2.33-2.57-.91 0-1.49.56-1.49 1.16 0 .88.99 1.48 2.43 1.48zM1111.79 226.76c2-1.15 4.06-2.19 5.18-2.83a15 15 0 002.24-1.47l1.65 2.79c-.72.43-1.49.84-2.37 1.29a73.11 73.11 0 00-6.7 3.55c-2 1.32-3.34 2.69-3.34 4.37s1.66 2.64 5 2.64a36.81 36.81 0 007.84-.89v3.46a44.65 44.65 0 01-7.71.6c-4.78 0-8.4-1.32-8.4-5.45 0-2.64 1.68-4.63 4-6.33-1.1-2-2.25-4.61-3.33-7.16l3-1.22a56.57 56.57 0 002.94 6.65zM1133.74 219.85a37.87 37.87 0 01-2.3 4.94v16.49h-2.71V229a21.33 21.33 0 01-1.64 1.92 17.89 17.89 0 00-1.51-3 25.47 25.47 0 005.45-9zm10 9.69c.53 4.66 1.51 8.21 2.43 8.21.38 0 .57-1 .62-3.24A7.45 7.45 0 001149 236c-.38 3.69-1.25 4.51-3.12 4.51-2.76 0-4.29-4.87-5-11h-4.12v4.68c1.39-.19 2.88-.43 4.32-.65l.14 2.55c-2.83.48-5.88 1-8.23 1.32l-.55-2.64 1.53-.19V221l1.85.6a51.66 51.66 0 009.58-2l2.11 2.18a35.71 35.71 0 01-4.2 1.06c0 1.39 0 2.78.14 4.12h5v2.57zm-10.39 8.79h9.6v2.52h-9.6zm7.34-11.36c-.09-1.17-.14-2.4-.19-3.6-1.25.2-2.49.36-3.69.51V227zM1166.46 222a7 7 0 010 .74h7v2.83c-1.44-.07-3.67-.12-6.94-.12v3.6a6.07 6.07 0 01.86 3.29c0 3.12-1.82 7.1-7.68 8.73l-2.57-2.54c2.43-.5 4.54-1.3 5.86-2.74a4.7 4.7 0 01-1.08.12 4.23 4.23 0 01-4.13-4.41 4.53 4.53 0 014.8-4.49 5.94 5.94 0 011 .07v-1.61c-3.63.05-7.37.2-10.32.36l-.07-2.9c2.73 0 7.1-.1 10.36-.14v-.75a20.18 20.18 0 00-.24-2.09h3.48c-.21.33-.31 1.62-.33 2.05zm-4 11.23c1 0 1.9-.77 1.56-2.88a1.78 1.78 0 00-1.56-.84 1.86 1.86 0 000 3.72zM1188.29 227.33l-.28-.81c-.2-.55-.34-1-.48-1.44a55.82 55.82 0 01-8.09-.22l-.17-2.73a53.27 53.27 0 007.49.33c-.22-.77-.48-1.56-.77-2.37l3.22-.36c.12.86.26 1.72.45 2.54a21.8 21.8 0 003.7-.79l.38 2.76a31.9 31.9 0 01-3.38.62c.12.39.24.77.36 1.13s.26.72.41 1.1a27.67 27.67 0 004.58-1l.48 2.83a33.15 33.15 0 01-3.84.75 23.09 23.09 0 001.22 2.13 8 8 0 001.08 1.25l-1.44 2.18c-1.34-.26-4-.57-5.68-.74l.24-2.3 3 .28c-.51-.84-.94-1.68-1.35-2.49a88.56 88.56 0 01-10.42 0l-.16-2.83a60.38 60.38 0 009.45.18zm-5.9 8c0 1.78 1.68 2.5 4.85 2.5a29.88 29.88 0 006-.53l-.17 3.07a39.16 39.16 0 01-5.83.44c-4.8 0-7.78-1.42-7.85-4.83a8.15 8.15 0 011.06-3.86l3 .55a4.47 4.47 0 00-1.06 2.7zm14.28-12.48l-1.8.8a21.79 21.79 0 00-1.87-3.32l1.77-.74a30.84 30.84 0 011.9 3.3zm2.76-1.17l-1.8.86a20.08 20.08 0 00-2-3.24l1.75-.79a32 32 0 012.05 3.21zM1208.2 221.07c1.27 0 6.4-.1 7.77-.22a9.71 9.71 0 001.83-.26l1.56 2.14c-.55.36-1.13.69-1.68 1.1-1.3.91-3.82 3-5.33 4.22a9.44 9.44 0 012.28-.26c4.08 0 7.18 2.54 7.18 6.05 0 3.79-2.88 6.79-8.69 6.79-3.34 0-5.86-1.54-5.86-3.94a4 4 0 014.3-3.74 4.8 4.8 0 015.11 4.1 3.47 3.47 0 002-3.26c0-2.16-2.16-3.62-5-3.62-3.67 0-6.07 1.94-8.64 4.87l-2.19-2.26c1.71-1.37 4.61-3.81 6-5s3.84-3.12 5-4.15c-1.23 0-4.54.17-5.81.24-.65.05-1.42.12-2 .19L1206 221a16 16 0 002.2.07zm4.32 16.82a12.07 12.07 0 001.39-.07c-.14-1.56-1-2.57-2.33-2.57-.91 0-1.49.56-1.49 1.16 0 .88.99 1.48 2.43 1.48zM1228 237.27a2.2 2.2 0 112.21 2.3 2.21 2.21 0 01-2.21-2.3zm9.1 0a2.2 2.2 0 112.18 2.3 2.2 2.2 0 01-2.17-2.3zm9.09 0a2.2 2.2 0 112.19 2.3 2.2 2.2 0 01-2.18-2.3z"/><path class="cls-1" d="M628.42 216.15h28v28h-28z"/><path class="cls-4" d="M655.42 217.15v26h-26v-26h26m2-2h-30v30h30v-30z"/><path class="cls-5" d="M650.42 220.15l-12.4 13.63-3.6-2.72h-2l5.6 9.09 14.4-20h-2z"/></g></g></svg>