<svg xmlns="http://www.w3.org/2000/svg" viewBox="0 0 655.49 278.16"><defs><style>.cls-1{fill:#e15513}.cls-2{fill:#fff}</style></defs><g id="レイヤー_2" data-name="レイヤー 2"><g id="design"><path class="cls-1" d="M155.05 0h140v33.79h-140z"/><path class="cls-2" d="M.63 9.52a17.82 17.82 0 00-.23-2.8h3.08c-.08.82-.2 1.9-.2 2.8v3.89a82.08 82.08 0 0110.57 4l-1.1 2.7a69.77 69.77 0 00-9.47-3.87v7.72c0 .82.08 2.3.18 3.2h-3A27.48 27.48 0 00.63 24zm11.55 1.92l-1.75.77a22.93 22.93 0 00-2.2-3.82l1.67-.72a30.16 30.16 0 012.28 3.77zM15.4 10l-1.72.85a26.38 26.38 0 00-2.3-3.75l1.67-.77A36.14 36.14 0 0115.4 10zM31.54 8.47c0 .85-.08 1.67-.13 2.45h5.4a10.74 10.74 0 001.73-.16l1.75.85c-.08.43-.15 1-.18 1.28-.07 2.52-.4 9.67-1.5 12.12a2.78 2.78 0 01-2.9 1.7c-1.35 0-2.8-.1-4.07-.17l-.3-2.63a27.65 27.65 0 003.62.3 1.33 1.33 0 001.43-.85c.85-1.75 1.17-7.4 1.17-10.1h-6.4c-.92 7-3.4 10.78-7.69 13.8l-2.3-1.87a13.36 13.36 0 002.83-2.1c2.42-2.28 3.95-5.3 4.57-9.83h-3.8c-.92 0-2.09 0-3 .1v-2.62c.95.1 2.07.18 3 .18h4c.05-.75.07-1.55.07-2.4a16.65 16.65 0 00-.17-2.18h2.92c.02.6-.03 1.53-.05 2.13zm8.7 1.09l-1.65.71a30.82 30.82 0 00-2-3.45l1.62-.68a35.77 35.77 0 012.03 3.42zm2.87-1.07l-1.62.7a23.81 23.81 0 00-2.05-3.42L41 5.09a31.9 31.9 0 012.11 3.4zM49 23.74l-2.2-1.48a25.84 25.84 0 004.72-6.5l2.22 1.08a37 37 0 01-4.74 6.9zM59.22 8.42v2.29h6.27a15.19 15.19 0 002.23-.15v2.6c-.73-.05-1.58-.05-2.2-.05h-6.3V25c0 1.35-.7 2.13-2.35 2.13a36.12 36.12 0 01-3.78-.13l-.22-2.47a16.93 16.93 0 002.85.27c.65 0 .92-.25 1-.92V13.11H50c-.78 0-1.58 0-2.25.08v-2.63a19.53 19.53 0 002.22.15h6.7V8.39a10.65 10.65 0 00-.2-1.95h3a12.78 12.78 0 00-.25 1.98zm9.4 13.87l-2.3 1.3a44.13 44.13 0 00-4.15-6.68l2.15-1.17a54.31 54.31 0 014.3 6.55zM66.07 4.52a2.8 2.8 0 11-2.8 2.8 2.81 2.81 0 012.8-2.8zm0 4.3a1.5 1.5 0 000-3 1.5 1.5 0 000 3zM84.33 20.51A23.82 23.82 0 0093 11.09l1.52 2.72a25.54 25.54 0 01-8.77 9 27.54 27.54 0 01-9.57 3.73L74.5 24a25.8 25.8 0 009.83-3.49zm-.85-8l-2 2a53.73 53.73 0 00-6.25-5.3l1.83-1.95a52.9 52.9 0 016.42 5.25zM101.89 9c1.82-.17 6.27-.6 10.87-1 2.67-.22 5.17-.37 6.9-.42v2.52a24.51 24.51 0 00-4.88.35 8.29 8.29 0 00-5.52 7.55c0 4.55 4.25 6.08 8.37 6.25l-.9 2.68c-4.9-.25-10-2.88-10-8.38a10 10 0 014.27-8.11c-2.53.25-8.35.85-11.15 1.45l-.25-2.72c.91-.03 1.79-.08 2.29-.17zm16.22 7.32l-1.55.7a24.16 24.16 0 00-2-3.5l1.5-.65a36.53 36.53 0 012.05 3.49zm2.89-1.08l-1.53.72a24 24 0 00-2.1-3.45l1.5-.67a36.12 36.12 0 012.13 3.4zM130.38 8.67a66.64 66.64 0 00-1.22 9.89 16.36 16.36 0 00.2 2.68c.35-1 .9-2.28 1.3-3.2l1.25 1a58.13 58.13 0 00-1.8 5.73 6 6 0 00-.13 1.15c0 .25.05.62.08.92l-2.23.18a29.52 29.52 0 01-1-7.95A76.44 76.44 0 01128 8.57c.07-.63.17-1.43.2-2.08l2.72.25c-.19.45-.44 1.48-.54 1.93zm12.62-.6c0 .62-.05 1.7-.07 2.85a40.31 40.31 0 004.15-.58v2.42c-1.3.2-2.7.38-4.15.48 0 2.5.2 4.75.27 6.67a16.46 16.46 0 014.93 3.23l-1.35 2.1a24.47 24.47 0 00-3.48-2.78v.13c0 2.3-1.1 4.27-4.57 4.27s-5.35-1.4-5.35-3.8 2-4 5.33-4a13.24 13.24 0 012 .15c-.1-1.75-.2-3.9-.25-5.85-.7 0-1.4.05-2.1.05-1.45 0-2.82-.07-4.27-.17v-2.35a40.88 40.88 0 004.33.22h2.07V8.12a11.35 11.35 0 00-.15-1.6h2.82c-.08.48-.16 1.05-.16 1.55zm-4.59 16.47c1.84 0 2.42-.95 2.42-2.53v-.67a7.86 7.86 0 00-2.32-.35c-1.68 0-2.85.72-2.85 1.8s1.15 1.75 2.75 1.75zM183.48 10.36v1.33c-.22 10.22-.42 13.85-1.22 15a2.83 2.83 0 01-2 1.25 17.22 17.22 0 01-3.1.1 6.91 6.91 0 00-.87-2.85c1.1.1 2.05.12 2.52.12a.9.9 0 00.85-.42c.53-.68.78-3.73.93-11.8h-2.25c-.33 6.7-1.48 11.85-5.67 15.17a9.87 9.87 0 00-1.75-2c-3.6.37-7.2.75-9.9 1l-.35-2.5 5.07-.35v-1.5h-4.4v-2.1h4.4v-1h-4.3v-7.7h4.3v-1h-4.92V9h4.92V8c-1.45.1-2.87.18-4.22.2a9.6 9.6 0 00-.65-2.1 77.43 77.43 0 0010.77-1.22l1.3 2.22c-1.32.28-2.87.5-4.5.68V9h4.8v1.37h2.35V5.15h2.85v5.22zm-19.7 4.73h1.95V14h-1.95zm1.95 2.9v-1.13h-1.95V18zm2.7 6.2c1.43-.1 2.9-.23 4.35-.35 1.95-2.7 2.55-6.28 2.73-10.75h-2.28v-1.95h-4.8v1h4.43v7.73h-4.43v1H173v2.1h-4.53zm1.95-9.1V14h-1.95v1.1zm-1.95 1.77V18h1.95v-1.14zM211.11 6.24V9h-9.79v2h4.54v11.34H194V11h4.37V9h-9.6V6.24zm-3.62 4.43h2.87v17.39h-2.87v-1.45h-15.1v1.48h-2.9V10.67h2.9v13.14h15.1zm-11.1 4.87h2.18v-2.1h-2.18zm0 4.37h2.18v-2.12h-2.18zm6.9-6.47h-2.17v2.1h2.17zm0 4.35h-2.17v2.12h2.17zM228.08 27.09l-1.88-3a19.5 19.5 0 002.33-.4c3.2-.75 5.7-3.05 5.7-6.7 0-3.45-1.88-6-5.25-6.59a51.46 51.46 0 01-1.5 6.77c-1.5 5-3.65 8.15-6.38 8.15s-5.1-3.03-5.1-7.26c0-5.77 5-10.69 11.47-10.69 6.2 0 10.1 4.29 10.1 9.74.03 5.28-3.19 9-9.49 9.98zm-6.87-5.6c1 0 2-1.58 3-4.95a37.64 37.64 0 001.33-6 7.88 7.88 0 00-6.35 7.25c.04 2.47 1.04 3.7 2.02 3.7zM261.72 4.59a3 3 0 010 6 1.72 1.72 0 01-.32 0c-.08.27-.13.52-.2.75-.58 2.45-1.65 6.32-3.75 9.1a20.07 20.07 0 01-10 6.92l-2.72-3a16.4 16.4 0 009.8-5.87 15.67 15.67 0 002.92-7h-11.67c-1.15 0-2.35 0-3 .1V8a27.93 27.93 0 003 .2h11.57a11.58 11.58 0 001.42-.1 3.37 3.37 0 010-.48 3 3 0 012.95-3.03zm0 4.43a1.44 1.44 0 10-1.45-1.43A1.44 1.44 0 00261.72 9zM272.88 8.24h13.75c.63 0 1.58 0 2.48-.05-.05.75-.05 1.68-.05 2.42v12.25c0 1 .05 3.38.05 3.48h-3.45v-1.35h-12.03v1.35h-3.45c0-.13.08-2.3.08-3.5V10.61c0-.69 0-1.72-.05-2.42 1.05.03 2 .05 2.67.05zm.75 13.55h12.08V11.41h-12.08zM309.13 8.87a60.43 60.43 0 00-1.22 9.42 24.58 24.58 0 00.15 2.67c.42-1 .92-2.25 1.32-3.17l1.25 1c-.65 1.9-1.52 4.57-1.77 5.82a5.55 5.55 0 00-.13 1.15c0 .25 0 .63.06.93l-2.28.15a31.82 31.82 0 01-.92-8.08 73.06 73.06 0 011.07-10 19.26 19.26 0 00.23-2.07l2.77.25a16.84 16.84 0 00-.53 1.93zm6 12.52c0 1.12.87 2.05 3.9 2.05a26.54 26.54 0 006.22-.68v2.68a34.24 34.24 0 01-6.32.5c-4.25 0-6.2-1.48-6.2-3.9a12.7 12.7 0 01.42-3.08l2.25.2a8.92 8.92 0 00-.29 2.23zm9.4-12.62v2.54a63.23 63.23 0 01-10.48 0V8.77a46.07 46.07 0 0010.46 0zM339.34 9.62a24.58 24.58 0 003.66-.85l.08 2.29a32.71 32.71 0 01-4.48.9 44.66 44.66 0 01-5.42 10.63l-2.4-1.23a37.77 37.77 0 005.22-9.12h-1.83c-.95 0-2 0-3-.08L331 9.89c1 .1 2.17.15 3.17.15.83 0 1.7 0 2.58-.1a20.73 20.73 0 00.72-4.27l2.75.27c-.16.88-.51 2.28-.88 3.68zm6.79 7c0 .83.1 2.28.18 3.7a16.39 16.39 0 015.17 3.15l-1.32 2.13a19.46 19.46 0 00-3.75-2.8v.7c0 2.12-1.27 3.85-4.57 3.85-2.9 0-5.25-1.25-5.25-3.85 0-2.35 2.12-4 5.22-4a14.47 14.47 0 012.13.17c-.08-2-.2-4.32-.25-6h2.44c-.05 1.07-.02 1.94 0 2.94zm-4.62 8.45c1.9 0 2.53-1 2.53-2.4v-.85a8.67 8.67 0 00-2.32-.32c-1.65 0-2.78.75-2.78 1.77s.87 1.79 2.57 1.79zM345 11.14l1.27-1.92a44.26 44.26 0 016 3.34l-1.43 2.08a31.6 31.6 0 00-5.84-3.5zM361.25 7.32c1.3 0 7-.15 8.35-.28a7.11 7.11 0 001.59-.22l1.38 1.8A18.33 18.33 0 00371 9.69c-1.27 1-4.34 3.55-6.12 5a10.36 10.36 0 013-.43c4.17 0 7.27 2.58 7.27 6.08 0 4-3.17 6.82-8.79 6.82-3.45 0-5.75-1.52-5.75-3.8 0-1.85 1.65-3.52 4.12-3.52a4.93 4.93 0 015.2 4.37 4.07 4.07 0 002.65-3.92c0-2.35-2.3-4.05-5.42-4.05-4 0-6.35 1.87-9.3 5L356 19.41c2-1.6 5.08-4.22 6.55-5.45s4.3-3.54 5.55-4.64c-1.32 0-5.65.24-6.95.32-.62 0-1.27.07-1.85.15l-.07-2.57a19.41 19.41 0 002.02.1zm4.65 17.59a12.5 12.5 0 001.77-.1c-.2-1.82-1.3-3.1-2.95-3.1a1.66 1.66 0 00-1.82 1.43c0 1.1 1.22 1.77 3 1.77zM389.28 8.27c-.07.42-.17.92-.3 1.47a43.7 43.7 0 004.53-.87v2.47a46.26 46.26 0 01-5 .85c-.25 1.07-.52 2.22-.8 3.27A75.15 75.15 0 01383.73 27L381 26a57.5 57.5 0 004.25-11.2c.2-.78.4-1.6.6-2.43-.73 0-1.4.05-2 .05-1.14 0-2.07 0-3-.1l-.05-2.44a25.55 25.55 0 003.05.2c.77 0 1.62 0 2.5-.1.12-.75.25-1.4.3-1.88a10.53 10.53 0 00.1-2.25l3 .23c-.14.66-.37 1.69-.47 2.19zm3 13.79c0 1.13.68 2.15 3.88 2.15a28.25 28.25 0 005-.5l-.08 2.53a39.46 39.46 0 01-4.95.35c-4.07 0-6.27-1.33-6.27-3.8a15.1 15.1 0 01.42-3.13l2.33.23a9.17 9.17 0 00-.33 2.17zm4.13-8.57a42.21 42.21 0 014.37.2l-.07 2.4a30.82 30.82 0 00-4.25-.33 41 41 0 00-4.73.28v-2.33c1.35-.12 3.08-.22 4.68-.22zM421.33 8.67c-.1.45-.2.89-.33 1.35a8 8 0 016.68 8.22c0 5.12-3.68 8.15-8.95 8.92l-1.5-2.25c5.35-.47 7.92-3.25 7.92-6.77a5.79 5.79 0 00-4.72-6 31.39 31.39 0 01-3.53 8.27 13.05 13.05 0 001.45 1.65l-2 1.6c-.38-.42-.73-.82-1.05-1.25-1.6 1.88-3.08 2.93-4.93 2.93s-3.69-1.65-3.69-4.73a10.69 10.69 0 013.77-7.8c-.25-.72-.48-1.47-.7-2.17a15.92 15.92 0 00-.92-2.42l2.59-.8c.15.72.35 1.55.53 2.27.15.55.32 1.15.52 1.77a13.35 13.35 0 016.13-1.67c.12-.52.22-1 .3-1.52a10.31 10.31 0 00.17-2.13l2.73.25c-.15.7-.35 1.73-.47 2.28zm-10.68 14.19c1.1 0 2.25-1 3.28-2.37-.08-.15-.18-.3-.28-.45a29 29 0 01-2.35-4.9 8.23 8.23 0 00-2.3 5.35c0 1.45.63 2.37 1.65 2.37zm4.73-4.52a31.21 31.21 0 002.62-6.28 10.88 10.88 0 00-4.8 1.58 27.76 27.76 0 001.95 4.36zM437.51 8.87a59.25 59.25 0 00-1.22 9.42 22.29 22.29 0 00.15 2.67c.42-1 .92-2.25 1.32-3.17l1.25 1c-.65 1.9-1.53 4.57-1.78 5.82a4.89 4.89 0 00-.12 1.15c0 .25 0 .63.05.93l-2.27.15a31.74 31.74 0 01-.93-8.08 71.26 71.26 0 011.08-10 17 17 0 00.22-2.07L438 7a19.17 19.17 0 00-.49 1.87zm6 12.52c0 1.12.88 2.05 3.9 2.05a26.62 26.62 0 006.23-.68l.05 2.68a34.36 34.36 0 01-6.33.5c-4.25 0-6.2-1.48-6.2-3.9a12.77 12.77 0 01.43-3.08l2.25.2a8.53 8.53 0 00-.36 2.23zm9.4-12.62v2.54a63.11 63.11 0 01-10.47 0V8.77a46.07 46.07 0 0010.44 0zM459.76 21.91l2.05-1.8a45.76 45.76 0 015.52 5.53l-2.12 1.8a45.32 45.32 0 00-5.45-5.53zM498.91 8.19c0 .85-.08 1.68-.13 2.45h5.4a12.12 12.12 0 001.73-.15l1.75.85c-.08.42-.15 1-.18 1.27-.07 2.53-.4 9.68-1.5 12.13a2.78 2.78 0 01-2.9 1.7c-1.35 0-2.8-.08-4.07-.18l-.3-2.62a29.5 29.5 0 003.62.3 1.34 1.34 0 001.43-.85c.85-1.75 1.17-7.4 1.17-10.1h-6.4c-.92 7-3.4 10.77-7.69 13.8l-2.3-1.88a13 13 0 002.87-2.1c2.42-2.27 3.95-5.3 4.57-9.82h-3.79c-.93 0-2.1 0-3.05.1v-2.6c.95.07 2.07.15 3.05.15h4c.05-.75.07-1.55.07-2.4a16 16 0 00-.17-2.15H499c0 .58-.07 1.5-.09 2.1zM518.45 8.82v8.37c0 .65 0 1.52.1 2h-2.87c0-.42.1-1.3.1-2V8.82a17.3 17.3 0 00-.1-1.85h2.87c-.05.52-.1 1.15-.1 1.85zm11.6.25v4.44c0 5.73-.9 7.85-2.75 10a13.67 13.67 0 01-6 3.65l-2.07-2.17a11.68 11.68 0 006-3.25c1.75-2 2.07-4 2.07-8.33V9.07a18.33 18.33 0 00-.15-2.3h3c-.05.65-.1 1.4-.1 2.3zM544.22 6.37l2.8-.45c.08.47.15 1.25.28 1.8.05.3.22 1.25.47 2.55 2.28-.38 4.4-.73 5.37-.93.78-.15 1.55-.32 2.05-.47l.48 2.62c-.45 0-1.3.17-2 .27l-5.45.85c.28 1.43.58 3 .88 4.58 2.42-.4 4.64-.78 5.84-1 .95-.2 1.78-.38 2.35-.55l.53 2.62c-.58 0-1.48.23-2.43.38l-5.82.92c.45 2.25.8 4.13.95 4.8s.4 1.6.65 2.35l-2.87.53c-.13-.9-.2-1.7-.35-2.45s-.48-2.5-.9-4.83c-2.73.45-5.25.88-6.43 1.1-1 .18-1.77.33-2.32.48l-.58-2.68c.63 0 1.68-.15 2.38-.25 1.22-.17 3.77-.57 6.47-1-.3-1.55-.6-3.15-.87-4.6l-5.25.88c-.75.12-1.35.25-2.15.45l-.53-2.75c.7-.05 1.4-.1 2.18-.18s3-.4 5.27-.74c-.25-1.25-.42-2.15-.5-2.5a14 14 0 00-.5-1.8zM578 14.91c-.2 1.6-.9 6.28-1.25 8.6h2.1c.58 0 1.6-.05 2.18-.1V26c-.48 0-1.53-.05-2.13-.05h-13.44c-.82 0-1.4 0-2.25.05v-2.61a21.69 21.69 0 002.25.12h8.65c.35-2.12 1-6.42 1.08-7.82h-7.43c-.75 0-1.55.05-2.22.07v-2.6a20.14 20.14 0 002.2.13h7.09a5.18 5.18 0 001.5-.2l1.9.92c-.07.28-.15.65-.23.9zM605.28 14.81a17.67 17.67 0 01-3.68 7 18.46 18.46 0 01-9 5.33l-1.94-2.25a16.86 16.86 0 008.74-4.5 11.77 11.77 0 002.78-5h-12.67c-.6 0-1.7 0-2.65.1v-2.6c1 .1 1.92.17 2.65.17h12.79a5.08 5.08 0 001.6-.22l1.78 1.1a4.36 4.36 0 00-.4.87zm-13.75-7.62h9.72c.8 0 1.83-.05 2.45-.12v2.57c-.62-.05-1.62-.08-2.47-.08h-9.7c-.8 0-1.7 0-2.4.08V7.07c.65.07 1.58.12 2.4.12zM620.05 9.71c-.75 2.38-3 9.45-4.27 12.75 3.4-.3 7.62-.77 10.29-1.12a34.26 34.26 0 00-2.84-4.88l2.42-1.05a73.84 73.84 0 015.5 10.28l-2.65 1.2c-.33-.88-.78-2-1.3-3.13-4 .48-12 1.35-15.22 1.65l-2.2.3-.45-2.9h2.5c.3 0 .65 0 1-.05 1.4-3.57 3.78-11 4.48-13.57a15.68 15.68 0 00.55-2.6l3.12.65c-.25.63-.55 1.38-.93 2.47zM639.46 9.44c.43.8.88 1.7 1.35 2.65 3-1.33 6.23-2.6 8.83-2.6 3.62 0 5.85 2.15 5.85 4.95 0 3.15-2.1 5.35-6 5.35a11.71 11.71 0 01-3.8-.7l.07-2.5a8.71 8.71 0 003.5.85c2.38 0 3.6-1.3 3.6-3.1 0-1.4-1.15-2.6-3.35-2.6s-5 1.12-7.8 2.4c.3.62.58 1.25.85 1.85 1.28 3 3 7.87 3.85 10.67l-2.72.7a72.76 72.76 0 00-3.38-10.3l-.82-1.87c-1.87.92-3.55 1.8-4.65 2.3L633.69 15a15.77 15.77 0 002.25-.75c.83-.32 1.7-.7 2.65-1.12-.45-.93-.87-1.78-1.27-2.48A22.37 22.37 0 00636 8.67l2.55-1c.19.4.66 1.33.91 1.77zm2.9-2.7l1.83-1.3c.85.68 2.72 2.28 3.62 3.2L646 10a38.89 38.89 0 00-3.64-3.26zM34.8 63.59h16.35a19.84 19.84 0 002.09-.13V66h-8.52a15.59 15.59 0 01-1.55 6.68 12 12 0 01-5 4.65l-2.3-1.68a10.7 10.7 0 004.62-3.72A11.63 11.63 0 0042 66h-7.2c-.75 0-1.6 0-2.28.08v-2.62a20.59 20.59 0 002.28.13zm3.1-6.3H48a21.43 21.43 0 002.5-.17v2.57c-.8 0-1.73-.07-2.5-.07H37.92c-.82 0-1.75 0-2.45.07v-2.57a19.17 19.17 0 002.43.17zM62.15 58.57H78.02v17.66h-2.73c0-.13 0-.7.06-1.4H62.4v1.4h-2.7c0-.23.07-2.23.07-3.23V60.69c0-.65 0-1.52-.05-2.17 1 .05 1.8.05 2.43.05zm.22 13.72h13V61.06h-13zM90.12 68.29l-2.38.87a50.88 50.88 0 00-2.27-5.7l2.35-.85c.57 1.15 1.82 4.3 2.3 5.68zm12.17-3.9a20.19 20.19 0 01-3.5 7.55 19.4 19.4 0 01-8.23 6l-2.07-2.13a17.11 17.11 0 008.2-5.27A17.39 17.39 0 00100 62l2.75.87c-.21.67-.36 1.13-.46 1.52zm-6.65 2.35l-2.35.85a46.28 46.28 0 00-2-5.5l2.35-.78c.45 1.05 1.67 4.33 2 5.43zM127.29 54.92a2.88 2.88 0 110 5.75 3 3 0 01-.67-.08c0 .15-.08.33-.1.47-.58 2.55-1.73 6.5-3.75 9.18a19.42 19.42 0 01-9.93 6.76l-2.15-2.35a16.79 16.79 0 009.78-6 18.11 18.11 0 003.12-7.65h-12.3c-1.05 0-2.05.05-2.7.1v-2.8c.7.08 1.88.18 2.7.18h12.13a8.41 8.41 0 001.07-.05 3.14 3.14 0 01-.07-.68 2.87 2.87 0 012.87-2.83zm0 4.42a1.58 1.58 0 001.57-1.55 1.59 1.59 0 00-1.57-1.57 1.58 1.58 0 00-1.55 1.57 1.56 1.56 0 001.55 1.55zM155.45 60.06a24.82 24.82 0 01-6.12 6.9l-2.08-1.67a15.34 15.34 0 005.1-5.17h-13.7c-1 0-1.87.07-3 .15v-2.78a21.63 21.63 0 003 .23h14a12.87 12.87 0 002.07-.18l1.55 1.46c-.22.29-.62.77-.82 1.06zM139.23 77l-2.3-1.88a9.71 9.71 0 002.4-1.22c3.57-2.3 4.15-5.45 4.15-9.6a11.51 11.51 0 00-.15-2h2.85c0 6.56-.38 11.36-6.95 14.7zM163.55 71.79h14.7a20.92 20.92 0 002.49-.15v3c-.82-.07-1.79-.12-2.49-.12h-14.7c-.93 0-2 0-2.85.12v-3c.92.07 1.92.15 2.85.15zm1.95-12.32h10.55a24.07 24.07 0 002.6-.13v2.85c-.7 0-1.75-.08-2.6-.08h-10.53c-.9 0-1.87 0-2.67.08v-2.85c.82.08 1.82.13 2.65.13zM204.14 59.67a35.92 35.92 0 01-3.6 7.09 61.31 61.31 0 016.1 5.65l-2 2.2a55.78 55.78 0 00-5.75-5.61 31.07 31.07 0 01-9.57 7.93l-2.2-2a27 27 0 009.72-7.65 70.78 70.78 0 00-6.84-4.94l1.65-2c2.09 1.32 4.87 3.25 6.87 4.77a27.66 27.66 0 003.12-6.44 16.66 16.66 0 00.55-2.05l2.9 1a19.52 19.52 0 00-.95 2.05zM215 64.91h13.6c1.2 0 2.17-.1 2.8-.15v3.1c-.55 0-1.7-.12-2.8-.12H215c-1.37 0-2.87.05-3.72.12v-3.1c.84.05 2.39.15 3.72.15zM244.54 65.54l-1.45 2.22a61.76 61.76 0 00-5.57-3.5l1.42-2.15c1.58.83 4.43 2.6 5.6 3.43zm2.52 5.87a25.68 25.68 0 009.58-9.27l1.52 2.65a29 29 0 01-18.07 12l-1.47-2.58a27.27 27.27 0 008.44-2.8zM248.29 60l-1.48 2.14c-1.27-.92-3.94-2.69-5.49-3.57l1.42-2.15c1.55.9 4.37 2.75 5.55 3.58zM268.42 62.11h11.28V76c0 .4 0 1.1.05 1.5h-2.5v-1h-9.79c-.75 0-1.68 0-2.1.08v-2.47a20 20 0 002.1.1h9.79v-3.95H266.22v-2.32c.58 0 1.58.07 2.45.07h8.57v-3.65h-8.82c-.77 0-2.27 0-2.8.08V62c.58.09 2.03.11 2.8.11zM297.61 70.51a23.74 23.74 0 008.67-9.42l1.53 2.72a25.58 25.58 0 01-8.78 9 27.46 27.46 0 01-9.57 3.73L287.79 74a25.81 25.81 0 009.82-3.49zm-.85-8l-2 2a53.73 53.73 0 00-6.25-5.3l1.82-2a52.9 52.9 0 016.43 5.3zM321.45 59.62a24.43 24.43 0 003.68-.85l.07 2.29a32.85 32.85 0 01-4.47.9 44.66 44.66 0 01-5.42 10.63l-2.4-1.23a37.77 37.77 0 005.25-9.12h-1.83c-.95 0-2 0-3-.08l-.17-2.32c1 .1 2.17.15 3.17.15.83 0 1.7 0 2.58-.1a20.73 20.73 0 00.72-4.27l2.75.27c-.2.93-.55 2.33-.93 3.73zm6.8 7c0 .83.1 2.28.18 3.7a16.39 16.39 0 015.17 3.15l-1.32 2.13a19.46 19.46 0 00-3.75-2.8v.7c0 2.12-1.28 3.85-4.58 3.85-2.9 0-5.24-1.25-5.24-3.85 0-2.35 2.12-4 5.22-4a14.23 14.23 0 012.12.17c-.07-2-.2-4.32-.25-6h2.45c-.05 1.07-.02 1.94 0 2.94zm-4.62 8.45c1.9 0 2.52-1 2.52-2.4v-.85a8.74 8.74 0 00-2.33-.32c-1.65 0-2.77.75-2.77 1.77s.88 1.79 2.58 1.79zm3.47-13.92l1.28-1.92a44.26 44.26 0 016 3.34L333 64.64a31.35 31.35 0 00-5.9-3.5zM346.88 63.81c2.05-1.25 4.1-2.25 5.37-3a13.48 13.48 0 002-1.32l1.25 2.3c-.65.4-1.35.75-2.15 1.17a66.12 66.12 0 00-6.63 3.6c-2.19 1.45-3.59 3-3.59 4.83s1.87 3.12 5.59 3.12a39.46 39.46 0 008.08-.87v2.82a47.48 47.48 0 01-7.95.63c-4.82 0-8.37-1.4-8.37-5.4 0-2.65 1.7-4.7 4.25-6.53-1.15-2.1-2.42-4.9-3.57-7.57l2.47-1a57.35 57.35 0 003.25 7.22zm11-4.07l-1.62.72a31.32 31.32 0 00-2-3.49l1.62-.68a33.47 33.47 0 012.02 3.45zm2.9-1.1l-1.62.73a23.6 23.6 0 00-2.05-3.45l1.62-.68a33.74 33.74 0 012.07 3.4zM375 76.86l-1.48-2.35a15 15 0 002.23-.35c3.2-.72 6.05-3.07 6.05-7.1a6.64 6.64 0 00-6.05-7 50.43 50.43 0 01-1.5 7c-1.5 5.1-3.57 7.93-6 7.93s-4.75-2.75-4.75-6.93c0-5.6 4.9-10.39 11.17-10.39 6 0 9.8 4.19 9.8 9.42S381 76 375 76.86zm-6.72-4.8c1.12 0 2.3-1.62 3.44-5.47a39.39 39.39 0 001.38-6.45 8.34 8.34 0 00-7.12 7.72c-.04 2.88 1.18 4.2 2.26 4.2zM393.72 58.67h12.42c.67 0 1.55 0 2-.05 0 .55-.05 1.44-.05 2.09v12.93c0 .87.05 2.1.1 2.65h-2.85v-1.35h-11.82c-1 0-2.28 0-3 .1v-2.83c.72.05 1.82.13 2.9.13h12V61.19h-11.7c-1 0-2.25.05-2.9.1v-2.77c.87.07 2.07.15 2.9.15zM425.12 70.51a23.74 23.74 0 008.67-9.42l1.52 2.72a25.54 25.54 0 01-8.77 9 27.54 27.54 0 01-9.54 3.78L415.29 74a25.8 25.8 0 009.83-3.49zm-.85-8l-2 2a53.73 53.73 0 00-6.25-5.3l1.83-2a52.9 52.9 0 016.42 5.3zM443.4 63.59h16.35a19.84 19.84 0 002.09-.13V66c-.57-.05-1.44-.08-2.09-.08h-6.43a15.59 15.59 0 01-1.55 6.68 12 12 0 01-5 4.65l-2.3-1.68a10.7 10.7 0 004.62-3.72 11.63 11.63 0 001.5-5.93h-7.19c-.75 0-1.6 0-2.28.08v-2.54a20.59 20.59 0 002.28.13zm3.1-6.3h10.1a21.43 21.43 0 002.5-.17v2.57c-.8 0-1.73-.07-2.5-.07h-10.08c-.82 0-1.75 0-2.45.07v-2.57a19.17 19.17 0 002.43.17zM476.27 70.51a23.78 23.78 0 008.73-9.42l1.52 2.72a25.54 25.54 0 01-8.77 9 27.62 27.62 0 01-9.57 3.73L466.45 74a25.68 25.68 0 009.82-3.49zm-.85-8l-2 2a53.73 53.73 0 00-6.25-5.3l1.83-2a52.79 52.79 0 016.42 5.3zM496.65 65.26l-2.53.93a71.66 71.66 0 00-2.82-6.95l2.5-.9c.7 1.47 2.25 5.25 2.85 6.92zm14.82-5a28 28 0 01-4.17 9.4 22.16 22.16 0 01-9.83 7.25l-2.17-2.2a20 20 0 009.82-6.55 22.58 22.58 0 003.95-10.37l2.92.82a12.9 12.9 0 00-.52 1.63zm-8.17 3.2l-2.48.87a60.77 60.77 0 00-2.5-6.67l2.43-.82a69.73 69.73 0 012.55 6.6zM526.58 58.72a57.72 57.72 0 007.35-.73v2.32a73.6 73.6 0 01-8.23.65 19.84 19.84 0 01-1.92 3.3 7.38 7.38 0 013.2-.75 3.3 3.3 0 013.35 2.13c1.55-.73 2.82-1.25 4-1.8.85-.38 1.57-.7 2.37-1.1l1 2.3c-.72.22-1.79.62-2.54.92-1.28.5-2.9 1.15-4.65 2 0 1.43.05 3.43.07 4.63h-2.37c0-.88.07-2.3.1-3.53-2.15 1.18-3.5 2.33-3.5 3.8 0 1.7 1.62 2 4.15 2a42.62 42.62 0 006.95-.65l-.08 2.53a64.94 64.94 0 01-7 .45c-3.72 0-6.62-.88-6.62-4s3-5 5.9-6.5a2 2 0 00-2-1.25 6.36 6.36 0 00-4.15 1.8 27.29 27.29 0 00-2.28 2.68l-2.15-1.6A25 25 0 00523.2 61h-.72c-1.05 0-2.78 0-4.18-.15v-2.31a32.4 32.4 0 004.3.28h1.48a12.59 12.59 0 00.57-3l2.6.2c-.15.7-.35 1.62-.67 2.7zM551.28 56.47a23 23 0 01-2.6 3.7 18.63 18.63 0 011.47 8.29c0 3.53-.27 6.88-1.32 8.3a2.41 2.41 0 01-1.5.9 12.51 12.51 0 01-3 .15 4.63 4.63 0 00-.65-2.22 16.44 16.44 0 002.67 0 1 1 0 00.8-.43c.58-.77.8-3.62.8-6.75a23.61 23.61 0 01-3.55 3.78 8 8 0 00-1.57-1.78 16.48 16.48 0 004.92-5.41 14.88 14.88 0 00-.67-3 26.71 26.71 0 01-2.58 2.27 10.09 10.09 0 00-1.6-1.52 21.3 21.3 0 003.18-2.82 13.74 13.74 0 00-2.83-3.25l1.63-1.25a13.76 13.76 0 012.6 2.75 17.12 17.12 0 001.77-2.7zm12.49 21.34a20.34 20.34 0 00-.65-2c-4.37.52-9 1-12.24 1.42l-.4-2.45c1.75-.15 4-.37 6.54-.62v-5h-5.29v-9.45H557V55h2.33v4.69h5.35v9.48h-5.35v4.75l2.95-.28c-.43-1.1-.85-2.15-1.3-3.1l2.15-.65a64.35 64.35 0 013 7.15zM557 67.19v-5.45h-3v5.45zm2.33-5.45v5.45h2.95v-5.45zM589.86 58.27v19.54h-2.45v-1.25h-12.65v1.35h-2.32V58.27h6.3a26.67 26.67 0 00.82-3.35l2.78.32c-.4 1-.8 2.13-1.23 3zm-15.1 2.22v3.2h12.65v-3.2zm0 5.35V69h12.65v-3.2zm12.65 8.57v-3.22h-12.65v3.22zM601 58.87a59.2 59.2 0 00-1.23 9.42A24.58 24.58 0 00600 71c.43-1 .93-2.25 1.33-3.17l1.25 1c-.65 1.9-1.53 4.57-1.78 5.82a4.89 4.89 0 00-.12 1.15c0 .25 0 .63.05.93l-2.28.15a31.82 31.82 0 01-.92-8.08 73.06 73.06 0 011.07-10 19.26 19.26 0 00.23-2.07l2.77.25a19.17 19.17 0 00-.6 1.89zm6 12.52c0 1.12.87 2 3.9 2a26.54 26.54 0 006.22-.68v2.68a34.24 34.24 0 01-6.32.5c-4.25 0-6.2-1.48-6.2-3.9a12.7 12.7 0 01.42-3.08l2.25.2a8.92 8.92 0 00-.27 2.28zm9.4-12.62v2.54a63.23 63.23 0 01-10.48 0v-2.54a46.07 46.07 0 0010.49 0zM29.17 105.74a40.07 40.07 0 01-2.48 5.26v16.88h-2.35v-13.2a23.09 23.09 0 01-2.05 2.45 13.32 13.32 0 00-1.3-2.4 27.73 27.73 0 006-9.65zm7.54 5.52v3.18h6.8v2.12h-6.8v3.33h7.15v2.17h-7.15v5.8h-2.37v-16.6h-1.4a26.08 26.08 0 01-3.4 5 13.38 13.38 0 00-1.8-1.58 26.52 26.52 0 005.4-9.49l2.23.6c-.4 1.07-.83 2.17-1.3 3.22h10v2.22zM69.46 113.46a28.23 28.23 0 01-4.35 8.45c.85 2.13 1.83 3.43 2.88 3.43.65 0 1-1.28 1.1-4.5a6.13 6.13 0 002 1.3c-.38 4.4-1.23 5.57-3.28 5.57-1.82 0-3.27-1.4-4.4-3.75a23 23 0 01-4.72 3.83 12.07 12.07 0 00-1.7-1.9 19.8 19.8 0 005.45-4.38 46.91 46.91 0 01-1.78-10.3h-8v3h6.28v.9c-.13 5.42-.25 7.57-.78 8.27a2.17 2.17 0 01-1.6.8 17.8 17.8 0 01-3 .05 5.58 5.58 0 00-.62-2.17c1 .1 2 .12 2.4.12a.86.86 0 00.77-.3c.28-.35.43-1.77.5-5.55h-4c0 3.55-.45 8.55-2.64 11.78a9.89 9.89 0 00-2-1.6c2-3 2.17-7.3 2.17-10.53v-7.07h10.37a74.7 74.7 0 01-.12-4h2.45c0 1.35 0 2.67.07 4h4.83a26.83 26.83 0 00-3.93-2.62l1.4-1.43a26.8 26.8 0 014.33 2.78l-1.2 1.27h2.55v2.27H63a49.14 49.14 0 001.22 7.9 25.12 25.12 0 002.85-6.22zM75.82 121.91l2.05-1.8a46.5 46.5 0 015.52 5.53l-2.13 1.8a45.25 45.25 0 00-5.44-5.53zM111.09 105.59a41.73 41.73 0 01-2.48 5V128h-2.19v-14a25 25 0 01-2.43 2.85 15 15 0 00-1.27-2.35 27 27 0 006.19-9.59zm8 13.25a10.17 10.17 0 01-1.52 4.57 24.74 24.74 0 008.87 2.4 10.13 10.13 0 00-1.37 2.1 24.14 24.14 0 01-8.85-2.85 13.22 13.22 0 01-5.4 2.88 10 10 0 00-1.43-2 11.5 11.5 0 004.93-2.25 13.66 13.66 0 01-3.35-3.9l1.9-.6a10.2 10.2 0 002.8 3 8.28 8.28 0 001.12-3.4H111v-7h6v-2.14h-6.57v-2.13H117v-2.47h2.3v2.47h6.9v2.13h-6.9v2.14h6.18v7zm-2.15-1.93v-3.17h-3.82v3.17zm2.3-3.17v3.17h4v-3.17zM152.34 125c0 1.35-.33 2.05-1.23 2.4a13.38 13.38 0 01-4.67.4 10.16 10.16 0 00-.77-2.25c1.59.08 3.24 0 3.72 0s.62-.15.62-.62v-4.48h-6v7.15h-2.33v-7.15h-5.75a14.41 14.41 0 01-3.12 7.58 7.76 7.76 0 00-1.83-1.53c2.73-3 3-7.45 3-11v-8.9h18.42zm-10.7-6.7v-3.7h-5.42v1c0 .85 0 1.78-.1 2.7zm-5.42-9.39v3.52h5.42v-3.52zm13.79 0h-6v3.52h6zm0 9.39v-3.7h-6v3.7zM163.83 109.17c-.13 2.77-.3 8.54-.3 12 0 2.65 1.62 3.55 3.8 3.55 4.37 0 7-2.47 8.8-5.15l1.77 2.18a12.7 12.7 0 01-10.62 5.6c-3.8 0-6.35-1.63-6.35-5.78 0-3.55.25-10 .25-12.39a14.05 14.05 0 00-.28-2.9h3.2a22 22 0 00-.27 2.89zM182.23 108.92c1.83-.18 6.28-.6 10.87-1 2.68-.22 5.18-.37 6.9-.45V110a22.32 22.32 0 00-4.85.37 8.28 8.28 0 00-5.54 7.52c0 4.55 4.24 6.08 8.39 6.25l-.92 2.65c-4.9-.22-10-2.85-10-8.37a10.07 10.07 0 014.25-8.13c-2.53.28-8.35.88-11.13 1.48l-.27-2.75c.95-.02 1.83-.02 2.3-.1zM209.52 111a55.81 55.81 0 00.17 5.62c.38 3.93 1.4 6.58 3.08 6.58 1.25 0 2.35-2.73 2.92-5l2 2.32c-1.58 4.28-3.13 5.75-4.95 5.75-2.53 0-4.85-2.4-5.53-9-.25-2.2-.27-5.2-.27-6.7a12.79 12.79 0 00-.2-2.35l3.05.05a19.65 19.65 0 00-.27 2.73zM227 121.59l-2.58 1c-.42-4.3-1.85-9.85-4.37-12.85l2.47-.82c2.34 2.89 4.19 8.62 4.48 12.67zM243.82 107.62v1.32a53.74 53.74 0 006.57-.7v2.3c-1.85.22-4.17.45-6.6.55v3.1c2.48-.1 4.68-.33 6.85-.63v2.33c-2.3.27-4.38.45-6.78.55.05 1.15.13 2.35.18 3.47a20 20 0 017.17 3.83l-1.52 2.26a19.19 19.19 0 00-5.6-3.65v1.3c0 1.9-1.37 3.63-4.65 3.63-3.75 0-5.77-1.4-5.77-3.9s2.22-4 5.95-4c.65 0 1.25 0 1.85.1 0-1-.08-2-.1-2.92H240c-1.6 0-4.37-.13-6.1-.33v-2.35a48 48 0 006.17.45h1.28v-3.07h-1c-1.65 0-4.65-.25-6.27-.45v-2.27a45.43 45.43 0 006.28.55h1.07v-1.53a8.18 8.18 0 00-.12-1.57h2.67c-.09.38-.14.93-.16 1.63zM239.17 125c1.4 0 2.47-.42 2.47-2v-1.4a11.37 11.37 0 00-2.28-.23c-2.12 0-3.27.83-3.27 1.83s.91 1.8 3.08 1.8zM270.79 107.79v1.25h7.5v2.35c-1.48-.08-3.85-.13-7.48-.13v3.93a6.19 6.19 0 01.87 3.32c0 3.33-1.77 7.25-7.69 9l-2.13-2.1c2.95-.65 5.25-1.75 6.45-3.68a3.92 3.92 0 01-1.75.38 4.18 4.18 0 01-4.2-4.35 4.51 4.51 0 014.65-4.5 5.17 5.17 0 011.4.17v-2.12c-3.8 0-7.9.2-11 .4l-.08-2.4c2.83-.05 7.48-.17 11.05-.22 0-.55 0-1-.05-1.28-.07-.8-.15-1.57-.2-1.82H271a15.4 15.4 0 00-.21 1.8zM267 119.91c1.3 0 2.27-1 1.95-3.37a2.06 2.06 0 00-1.95-1.2 2.26 2.26 0 00-2.28 2.35 2.2 2.2 0 002.28 2.22zM291.22 123.69a3.91 3.91 0 01-7.82 0 3.91 3.91 0 117.82 0zm-1.5 0a2.4 2.4 0 10-2.4 2.4 2.39 2.39 0 002.4-2.4zM316.67 121.09c0 1.77 1.75 3 5.58 3a31.79 31.79 0 008.64-1v2.75a35.49 35.49 0 01-8.57.88c-5.38 0-8.28-1.78-8.28-5a15.68 15.68 0 01.5-3.53l2.58.23a8.9 8.9 0 00-.45 2.67zm5.68-12.67c2.42 0 5.12-.18 7-.35v2.6c-1.73.12-4.63.29-6.95.29-2.55 0-4.72-.12-6.72-.27v-2.6a56.15 56.15 0 006.67.33zM348.63 126.86l-1.48-2.35a15 15 0 002.23-.35c3.2-.72 6.05-3.07 6.05-7.1a6.64 6.64 0 00-6.05-7 50.43 50.43 0 01-1.5 7c-1.5 5.1-3.58 7.93-6.05 7.93s-4.75-2.75-4.75-6.93c0-5.6 4.9-10.39 11.17-10.39 6 0 9.8 4.19 9.8 9.42s-3.35 8.91-9.42 9.77zm-6.73-4.8c1.13 0 2.3-1.62 3.45-5.47a39.39 39.39 0 001.38-6.45 8.35 8.35 0 00-7.13 7.72c0 2.88 1.23 4.2 2.3 4.2zM365.33 117.34c1.17-1.18 3.25-3.83 4.87-5.78 1.4-1.64 2.73-1.92 4.53-.2 1.57 1.48 3.62 3.63 5.1 5.2 1.7 1.8 4.22 4.53 6.15 6.6l-2.18 2.3c-1.75-2.1-3.9-4.67-5.45-6.47s-3.72-4.13-4.72-5.1-1.4-.8-2.18.17c-1.1 1.35-3.05 4-4.15 5.35l-1.49 2.1-2.38-2.42a25.2 25.2 0 001.9-1.75zm16.5-9.7a3.13 3.13 0 110 6.25 3.13 3.13 0 010-6.25zm0 4.87a1.72 1.72 0 001.72-1.72 1.73 1.73 0 00-3.45 0 1.73 1.73 0 001.73 1.72zM393.86 114.91h13.59c1.2 0 2.18-.1 2.8-.15v3.1c-.55 0-1.7-.12-2.8-.12h-13.59c-1.38 0-2.88.05-3.73.12v-3.1c.87.05 2.38.15 3.73.15zM423.24 115.69l-1.45 2.22a62.79 62.79 0 00-5.55-3.5l1.4-2.15c1.57.85 4.42 2.6 5.6 3.43zm2.52 5.87a25.46 25.46 0 009.58-9.27l1.52 2.65a28.75 28.75 0 01-18.07 12l-1.47-2.58a27.27 27.27 0 008.44-2.8zm1.24-11.39l-1.5 2.14c-1.27-.92-3.95-2.67-5.47-3.54l1.42-2.18c1.55.88 4.36 2.73 5.55 3.58zm7.5.75l-1.75.74a22.09 22.09 0 00-2.25-3.92l1.7-.72a34 34 0 012.31 3.9zm3.43-1.3l-1.75.77a25.15 25.15 0 00-2.35-3.85l1.72-.72a37 37 0 012.39 3.8zM445.63 109c1.82-.17 6.27-.6 10.87-1 2.67-.22 5.17-.37 6.9-.42v2.52a24.51 24.51 0 00-4.88.35A8.29 8.29 0 00453 118c0 4.55 4.25 6.08 8.37 6.25l-.9 2.68c-4.89-.25-10-2.88-10-8.38a10 10 0 014.25-8.12c-2.52.25-8.35.85-11.15 1.45l-.25-2.72c.93-.02 1.81-.07 2.31-.16zm16.22 7.32l-1.55.7a24.16 24.16 0 00-2-3.5l1.5-.65a36.53 36.53 0 012.05 3.49zm2.85-1.12l-1.53.72a24 24 0 00-2.1-3.45l1.5-.67a36.12 36.12 0 012.13 3.44zM474.12 108.67a66.64 66.64 0 00-1.22 9.89 16.36 16.36 0 00.2 2.68c.35-1 .9-2.28 1.3-3.2l1.25 1a58.13 58.13 0 00-1.8 5.73 6 6 0 00-.13 1.15c0 .25 0 .62.08.92l-2.22.18a29.06 29.06 0 01-1-7.95 76.44 76.44 0 011.1-10.47c.08-.63.18-1.43.2-2.08l2.72.25c-.13.42-.38 1.45-.48 1.9zm12.63-.6c0 .62-.05 1.7-.08 2.85a39.55 39.55 0 004.15-.58v2.42c-1.3.2-2.7.38-4.15.48 0 2.5.2 4.75.28 6.67a16.54 16.54 0 014.92 3.23l-1.35 2.1a23.86 23.86 0 00-3.47-2.78v.13c0 2.3-1.1 4.27-4.58 4.27s-5.35-1.4-5.35-3.8 2-4 5.33-4a13.24 13.24 0 012 .15c-.1-1.75-.2-3.9-.25-5.85h-2.1c-1.45 0-2.82-.07-4.27-.17v-2.35a40.88 40.88 0 004.33.22h2.07v-2.94a11.35 11.35 0 00-.15-1.6h2.83a13.55 13.55 0 00-.16 1.55zm-4.6 16.47c1.85 0 2.42-1 2.42-2.53v-.67a7.86 7.86 0 00-2.32-.35c-1.68 0-2.85.72-2.85 1.8s1.15 1.75 2.75 1.75zM518.81 110.64v1.07c-.28 10.33-.5 13.88-1.3 15a2.23 2.23 0 01-1.78 1.08 17 17 0 01-3.07 0 6.21 6.21 0 00-.65-2.2c1.15.1 2.17.1 2.62.1a.93.93 0 00.9-.4c.55-.7.8-3.87 1-12.47h-3c-.32 6.65-1.45 11.95-5.74 15.25a7.86 7.86 0 00-1.68-1.73 4.58 4.58 0 00.45-.35c-3.6.43-7.2.8-9.87 1.05l-.3-2c1.45-.1 3.25-.25 5.22-.43v-1.9h-4.55V121h4.55v-1.27h-4.47v-7.53h4.47v-1.29h-5.15v-1.73h5.15v-1.4c-1.52.13-3.05.2-4.45.25a6.54 6.54 0 00-.55-1.67 77 77 0 0010.73-1.23l1.1 1.75a45.15 45.15 0 01-4.7.7v1.6h5.05v1.45h2.62v-5.35h2.23c0 1.85 0 3.65-.05 5.35zm-19.74 4.62h2.57v-1.52h-2.57zm2.57 2.95v-1.52h-2.57v1.52zm2.13 6.2c1.55-.15 3.15-.3 4.72-.47 2.05-2.83 2.68-6.6 2.87-11.15h-2.64v-1.87h-5v1.29h4.65v7.53h-4.65V121h4.7v1.7h-4.7zm2.67-9.15v-1.52h-2.67v1.52zm-2.67 1.43v1.52h2.67v-1.52zM546.31 106.52v2.15h-9.95v2.44h4.82v11.18h-11.87v-11.18H534v-2.44h-9.77v-2.15zm-3 4.27h2.27v17h-2.27v-1.45h-16v1.5H525v-17.05h2.27v13.37h16zm-12 5h2.92V113h-2.92zm0 4.6h2.92v-2.75h-2.92zm7.9-7.32h-2.95v2.72h2.95zm0 4.57h-2.95v2.75h2.95zM554.33 119.56a22.73 22.73 0 01-1.6 6.33 9 9 0 00-1.65-.8 18.89 18.89 0 001.4-5.85zm2.65-2.07v10.37h-2v-10.22c-1.27.07-2.5.17-3.55.22l-.22-2 1.87-.1c.4-.55.85-1.15 1.28-1.83a25.17 25.17 0 00-3-3.6l1.15-1.49c.25.22.48.45.73.7a30.5 30.5 0 002-4.58l2 .73c-.87 1.72-1.92 3.75-2.77 5.12a14.45 14.45 0 011.07 1.32 47.67 47.67 0 002.35-4.29l1.88.85c-1.35 2.22-3.05 4.89-4.6 6.94l2.75-.15a20.92 20.92 0 00-.88-2l1.58-.63a21.14 21.14 0 012.07 5.3l-1.72.73a11.79 11.79 0 00-.38-1.5zm16.9 8.32c0 .8-.13 1.38-.63 1.7a4.06 4.06 0 01-2.07.35 6.78 6.78 0 00-.6-1.85h1.15c.15 0 .22-.08.22-.28v-2.55h-1.6v4.45h-1.52v-4.45h-1.53v4.45h-1.47v-4.45h-1.5v4.68h-1.68v-6.48a15.85 15.85 0 01-2.4 6.2 8.37 8.37 0 00-1.7-1.25 10.88 10.88 0 001.35-2.6l-1.3.4a18.52 18.52 0 00-1.17-4.52l1.6-.5a20.56 20.56 0 011.15 3.82 27 27 0 00.92-7.85v-5.32h12.23v6h-10.15v1.43h10.75zm.07-19.42v2h-13.8v-2zm-10.77 5.27v2.25h7.92v-2.25zm2.65 9.83V119h-1.5v2.5zm3 0V119h-1.53v2.5zm3.12 0V119h-1.6v2.5zM593.6 122a28 28 0 008.62 3.62 9.9 9.9 0 00-1.42 1.9 28.85 28.85 0 01-9.1-4.57v4.92h-2.3V123a28.19 28.19 0 01-9.07 4.65 13.61 13.61 0 00-1.5-1.9 27.93 27.93 0 008.77-3.75h-8.1v-1.88h9.9v-1.32h-6.95v-7.05a24.16 24.16 0 01-2 1.8 8 8 0 00-1.65-1.58 20.7 20.7 0 005.88-7.07l2.42.48c-.45.77-.92 1.6-1.47 2.4h4.25a22 22 0 001.22-2.83l2.57.33c-.45.87-.92 1.75-1.39 2.5h7.84v1.85h-8V111h6.87v1.57h-6.79V114h6.92v1.55h-6.92V117h8.8v1.8h-9.3v1.32h10V122zm-3.6-12.38h-5.35V111H590zm0 2.94h-5.35V114H590zm-5.37 4.44H590v-1.45h-5.35zM611.19 108.87a60.43 60.43 0 00-1.22 9.42 24.58 24.58 0 00.15 2.67c.42-1 .92-2.25 1.32-3.17l1.25 1c-.65 1.9-1.52 4.57-1.77 5.82a4.94 4.94 0 00-.13 1.15c0 .25 0 .63.05.93l-2.27.15a31.74 31.74 0 01-.93-8.08 71.26 71.26 0 011.08-10 17 17 0 00.22-2.07l2.78.25a16.84 16.84 0 00-.53 1.93zm6 12.52c0 1.12.87 2 3.89 2a26.62 26.62 0 006.23-.68l.05 2.68a34.36 34.36 0 01-6.33.5c-4.24 0-6.19-1.48-6.19-3.9a12.7 12.7 0 01.42-3.08l2.25.2a8.92 8.92 0 00-.34 2.28zm9.39-12.62v2.54a63.11 63.11 0 01-10.47 0v-2.54a46 46 0 0010.45 0zM22.57 170v2.15H0V170h2.15l-.38-13.82 1.65.35A26.33 26.33 0 006 155l1 1.1h8.7V170h2.8c.05-.85.1-1.8.15-2.8h-2.33v-1.9h2.4c.05-.88.08-1.75.1-2.65h-2.47v-1.9h2.52v-2.72h-2.65v-1.9h4.72c0 4.34-.22 10.07-.44 13.87zM9.2 173.76a37.69 37.69 0 01-7.2 4.13 17 17 0 00-1.82-1.63 28.7 28.7 0 006.92-3.95zm-5-3.72h2.72v-12.95c-1 .5-2.1.95-3.1 1.33l.05 2.37h2.38v1.9H3.92l.1 2.65h2.2v1.9H4.07zm4.45-12.1V170H14v-12.1zm4.67 2.95h-4v-1.52h4zm-3.85 1.42h3.63V168H9.42zm1.08 4.23H12v-2.8h-1.5zm4.45 5.77a72.74 72.74 0 017.55 4l-2.2 1.6a55.67 55.67 0 00-7.07-4zM30 171.76v2h-2.1v-16.59h6.93v14.59zm0-12.34v10.09h2.7v-10.09zM44.42 167a19.32 19.32 0 005.78 7.5 9.6 9.6 0 00-1.75 1.9 22.54 22.54 0 01-4.78-6.47v7.92h-2.35v-8a18.69 18.69 0 01-5.84 6.52 9 9 0 00-1.58-1.8 17.28 17.28 0 006.7-7.6h-5v-2.22h5.72v-3.7H36.5v-2.22h4.82v-3.75h2.35v3.75H49v2.22h-5.3v3.7h6.2V167zM63.92 158.17c-.15.77-.38 2-.6 3.14 1-.1 1.94-.15 2.52-.15 2.4 0 4.25 1 4.25 4.48 0 3-.38 7-1.43 9.07a3.72 3.72 0 01-3.85 2.2 13.87 13.87 0 01-3-.37l-.42-2.6a13.13 13.13 0 003.07.5 2 2 0 002.05-1.18c.75-1.57 1.1-4.75 1.1-7.35 0-2.15-1-2.52-2.55-2.52-.53 0-1.35.05-2.27.15-.93 3.67-2.7 9.45-5.18 13.45l-2.57-1c2.5-3.37 4.3-8.77 5.17-12.17-1.12.12-2.15.25-2.72.32s-1.8.23-2.48.35l-.25-2.7c.83.05 1.58 0 2.43 0s2.15-.12 3.55-.25a28.29 28.29 0 00.6-5.37l2.92.3c-.09.53-.26 1.15-.34 1.7zm10.94.87l-1.6.67a43.77 43.77 0 014.13 8.45l-2.48 1.18a28.8 28.8 0 00-4.35-9.15l2.33-1a1.3 1.3 0 00.1.15 22.59 22.59 0 00-1.78-3l1.63-.68a38.38 38.38 0 012.02 3.34zm2.9-1.1l-1.62.73a24.49 24.49 0 00-2.08-3.45l1.63-.68a38.24 38.24 0 012.07 3.4zM91.63 157.19c-.11.48-.2 1.05-.3 1.65a45.66 45.66 0 008.64-1.07v2.32a76.23 76.23 0 01-9 .92c-.07.85-.15 1.78-.22 2.7a16.09 16.09 0 014-.55 5.78 5.78 0 01.73 0 14 14 0 00.3-1.63l2.45.6c-.15.33-.35 1-.53 1.4 3 .9 4.93 3.18 4.93 6 0 3.58-2.23 6.83-8.18 7.75l-1.35-2.07c4.65-.53 7.1-2.9 7.1-5.78a4.13 4.13 0 00-3.17-4 19.76 19.76 0 01-5.43 7.88c.18.7.41 1.35.6 2L90 176c-.12-.38-.25-.78-.37-1.23a8.57 8.57 0 01-4.08 1.2 3 3 0 01-3.15-3.35c0-3.22 2.75-6.55 6.23-8.17.05-1.15.15-2.33.25-3.4h-1.23c-1.17 0-3.12-.13-4.2-.17l-.07-2.33a35 35 0 004.35.33h1.37c.05-.63.13-1.18.18-1.68a13 13 0 00.07-1.32l2.57.07a11 11 0 00-.29 1.24zm-5.55 16.42a5.78 5.78 0 003-1.1 33 33 0 01-.55-5.65c-2.22 1.35-3.8 3.55-3.8 5.35.02.93.45 1.4 1.35 1.4zm5-2.75a16.46 16.46 0 003.77-5.7h-.18a11.64 11.64 0 00-4 .7v.6a26 26 0 00.46 4.4zM114.07 157.32c1.3 0 7-.15 8.35-.28a7.35 7.35 0 001.6-.22l1.37 1.8a18.21 18.21 0 00-1.57 1.07c-1.28.95-4.35 3.55-6.13 5a10.36 10.36 0 013-.43c4.18 0 7.28 2.58 7.28 6.08 0 4-3.18 6.82-8.8 6.82-3.45 0-5.75-1.52-5.75-3.8 0-1.85 1.65-3.52 4.12-3.52a4.93 4.93 0 015.2 4.37 4.05 4.05 0 002.65-3.92c0-2.35-2.3-4-5.42-4-4 0-6.35 1.87-9.3 5l-1.82-1.85c2-1.6 5.07-4.22 6.55-5.45s4.29-3.54 5.54-4.64c-1.32.05-5.64.24-6.94.32-.63 0-1.28.07-1.85.15l-.08-2.57a19.55 19.55 0 002 .07zm4.65 17.59a12.5 12.5 0 001.77-.1c-.2-1.82-1.3-3.1-2.95-3.1a1.67 1.67 0 00-1.82 1.43c0 1.1 1.28 1.77 3 1.77zM141.84 163.81c2-1.25 4.09-2.25 5.37-2.95a13.35 13.35 0 002-1.32l1.25 2.3c-.65.4-1.35.75-2.15 1.17a65 65 0 00-6.62 3.6c-2.2 1.45-3.6 3-3.6 4.83s1.88 3.12 5.6 3.12a39.28 39.28 0 008.07-.87v2.82a47.57 47.57 0 01-7.95.63c-4.82 0-8.37-1.4-8.37-5.4 0-2.65 1.7-4.7 4.25-6.53-1.15-2.1-2.43-4.9-3.58-7.57l2.48-1a56 56 0 003.25 7.17zm11-4.07l-1.63.72a29.82 29.82 0 00-2-3.49l1.63-.68a37.57 37.57 0 012.02 3.45zm2.9-1.1l-1.63.73a22.74 22.74 0 00-2-3.45l1.63-.68a33.74 33.74 0 012.02 3.4zM170.2 158.57c-1.15 1.74-3.22 5.47-4.47 7.79a5.51 5.51 0 013.32-1.2c1.78 0 2.93 1.13 3 3.15 0 1.3 0 3.25.1 4.4a1.62 1.62 0 001.82 1.6c2.53 0 4.05-3.15 4.73-6l2.09 1.72c-1.3 4.15-3.49 7-7.22 7-2.72 0-3.77-1.68-3.85-3.3-.1-1.43-.07-3.4-.15-4.63a1.51 1.51 0 00-1.65-1.57c-1.87 0-3.55 1.9-4.5 3.9a45.81 45.81 0 00-2 5.62l-2.75-.92c1.85-5.05 7.18-15.28 8.5-17.67a23.12 23.12 0 001-2.2l2.8 1.12c-.19.29-.47.74-.77 1.19zM194.63 159.62a24.58 24.58 0 003.67-.85l.07 2.29a32.85 32.85 0 01-4.47.9 44.66 44.66 0 01-5.42 10.63l-2.4-1.23a37.77 37.77 0 005.25-9.12h-1.83c-.95 0-2 0-3-.08l-.17-2.32c1 .1 2.17.15 3.17.15.83 0 1.7 0 2.58-.1a20.73 20.73 0 00.72-4.27l2.75.27c-.2.93-.55 2.33-.92 3.73zm6.79 7c0 .83.1 2.28.18 3.7a16.39 16.39 0 015.17 3.15l-1.32 2.13a19.46 19.46 0 00-3.75-2.8v.7c0 2.12-1.28 3.85-4.58 3.85-2.89 0-5.24-1.25-5.24-3.85 0-2.35 2.12-4 5.22-4a14.23 14.23 0 012.12.17c-.07-2-.2-4.32-.25-6h2.45c-.05 1.07-.02 1.94 0 2.94zm-4.62 8.45c1.9 0 2.52-1.05 2.52-2.4v-.85a8.74 8.74 0 00-2.33-.32c-1.64 0-2.77.75-2.77 1.77s.88 1.79 2.58 1.79zm3.47-13.92l1.28-1.92a44.26 44.26 0 016 3.34l-1.43 2.08a31.35 31.35 0 00-5.85-3.51zM221.4 158.07c-.08.55-.18 1.32-.3 2.27a34.86 34.86 0 004.84-.32l-.07 2.34a48 48 0 01-5 .25c-.18 1.3-.35 2.73-.5 4h.35a40.83 40.83 0 005.12-.3l-.08 2.35c-1.52.15-3 .25-4.67.25h-1c-.07.87-.12 1.65-.12 2.17 0 2.28 1.32 3.6 4 3.6 3.65 0 5.85-1.62 5.85-4a6.86 6.86 0 00-2.65-5l2.78-.58a8.76 8.76 0 012.5 5.88c0 3.75-3.35 6.2-8.53 6.2-3.62 0-6.39-1.58-6.39-5.73 0-.65.07-1.6.17-2.72a27.48 27.48 0 01-5-.85l.13-2.4a21.3 21.3 0 005.12 1c.18-1.33.35-2.73.53-4a31.64 31.64 0 01-5.2-.88l.12-2.29a25 25 0 005.33 1c.12-.9.2-1.7.25-2.35a11 11 0 000-2l2.8.15c-.18.76-.28 1.36-.38 1.96zM250.15 176.86l-1.48-2.35a15 15 0 002.23-.35c3.2-.72 6-3.07 6-7.1a6.64 6.64 0 00-6-7 50.43 50.43 0 01-1.5 7c-1.5 5.1-3.57 7.93-6.05 7.93s-4.75-2.75-4.75-6.93c0-5.6 4.9-10.39 11.17-10.39 6 0 9.8 4.19 9.8 9.42s-3.35 8.91-9.42 9.77zm-6.72-4.8c1.12 0 2.3-1.62 3.45-5.47a40.46 40.46 0 001.37-6.45 8.34 8.34 0 00-7.12 7.72c0 2.88 1.22 4.2 2.3 4.2zM274.16 158c-.15.78-.37 2-.6 3.15 1-.1 1.93-.15 2.5-.15 2.43 0 4.25 1 4.25 4.47 0 3-.37 7-1.42 9.08-.8 1.72-2.1 2.17-3.85 2.17a14.15 14.15 0 01-3-.35l-.4-2.6a13.06 13.06 0 003 .5 2 2 0 002.05-1.2c.75-1.55 1.13-4.72 1.13-7.32 0-2.15-1-2.53-2.55-2.53-.53 0-1.35.05-2.3.15-.93 3.68-2.7 9.45-5.18 13.45l-2.57-1c2.5-3.38 4.3-8.78 5.2-12.18-1.15.13-2.18.25-2.75.33s-1.78.22-2.47.35l-.25-2.7c.84.05 1.57 0 2.42 0s2.15-.13 3.57-.25a28.36 28.36 0 00.58-5.37l2.92.3c-.05.54-.18 1.19-.28 1.7zm13.45 9.9l-2.47 1.15c-.7-2.65-2.58-7.13-4.33-9.25l2.33-1a43.4 43.4 0 014.47 9.14zM310.09 175.46c1 0 1.12-.4 1.22-3.42a6.73 6.73 0 002.17 1c-.27 3.75-.92 4.67-3.17 4.67h-3.7c-2.62 0-3.27-.7-3.27-3v-4.52h-3.6c-.58 4-2.13 6.52-8 7.85a6.91 6.91 0 00-1.32-2.05c5.12-1 6.35-2.83 6.82-5.8H294v-14.42h15.9v14.32h-4.23v4.52c0 .75.18.85 1.18.85zm-13.8-15.52h11.3v-2.1h-11.3zm0 4h11.3v-2.12h-11.3zm0 4.08h11.3v-2.15h-11.3zM319.27 158.92c1.82-.18 6.27-.6 10.87-1 2.67-.22 5.17-.37 6.9-.45V160a22.28 22.28 0 00-4.85.37 8.28 8.28 0 00-5.55 7.52c0 4.55 4.25 6.08 8.4 6.25l-.93 2.65c-4.9-.22-10-2.85-10-8.37a10.07 10.07 0 014.25-8.13c-2.53.28-8.35.88-11.12 1.48l-.28-2.75c.96-.02 1.83-.02 2.31-.1zM347.62 157.42c1.35 0 4.38-.15 5.48-.23a5.79 5.79 0 001.45-.3l1.57 1.25a4.94 4.94 0 00-.75.93c-.67 1.1-1.7 3.44-2.7 5.69a21.91 21.91 0 016.25 1.85 12.49 12.49 0 00.15-1.42 17 17 0 000-2.48l2.6.28a44.79 44.79 0 01-.5 4.75c1.12.65 2.07 1.27 2.84 1.82l-1.15 2.7c-.72-.62-1.52-1.25-2.39-1.87a12 12 0 01-6.48 7.15l-2.1-1.73a10.77 10.77 0 006.48-6.72 17.47 17.47 0 00-6.63-2.18 49.33 49.33 0 01-3 6.33 3.88 3.88 0 01-3.47 1.92 3.42 3.42 0 01-3.5-3.7c0-3.77 3.45-6.65 8.4-6.82.82-1.83 1.67-3.78 2.35-5.15-1 0-3.68.15-4.8.2a18.18 18.18 0 00-1.95.2l-.1-2.57c.63.07 1.43.1 1.95.1zm-2.27 15.19a1.68 1.68 0 001.4-.85 29.35 29.35 0 002.42-4.87c-3.27.35-5.15 2.35-5.15 4.22a1.34 1.34 0 001.33 1.5zM376.75 158.27c-.07.42-.17.92-.3 1.47a43.7 43.7 0 004.53-.87v2.47a46.26 46.26 0 01-5 .85c-.25 1.07-.52 2.22-.8 3.27A75.15 75.15 0 01371.2 177l-2.72-.92a58.15 58.15 0 004.25-11.2c.2-.78.4-1.6.6-2.43-.73 0-1.4.05-2 .05-1.15 0-2.07 0-3-.1l-.05-2.44a25.42 25.42 0 003.05.2c.77 0 1.62 0 2.5-.1.12-.75.25-1.4.3-1.88a10.53 10.53 0 00.1-2.25l3 .23c-.15.58-.38 1.61-.48 2.11zm3 13.79c0 1.13.68 2.15 3.88 2.15a28.25 28.25 0 005-.5l-.08 2.53a39.46 39.46 0 01-4.95.35c-4.07 0-6.27-1.33-6.27-3.8a15.1 15.1 0 01.42-3.13l2.33.23a9.17 9.17 0 00-.33 2.17zm4.13-8.57a42.21 42.21 0 014.37.2l-.07 2.4a30.82 30.82 0 00-4.25-.33 41 41 0 00-4.73.28v-2.33c1.35-.12 3.08-.22 4.68-.22zM397.46 161a56 56 0 00.18 5.62c.37 3.93 1.4 6.58 3.07 6.58 1.25 0 2.35-2.73 2.93-5l2 2.32c-1.57 4.28-3.12 5.75-4.95 5.75-2.52 0-4.85-2.4-5.52-9-.25-2.2-.28-5.2-.28-6.7a12.79 12.79 0 00-.2-2.35h3a21.35 21.35 0 00-.23 2.78zM415 171.59l-2.57 1c-.42-4.3-1.85-9.85-4.37-12.85l2.47-.82c2.28 2.89 4.13 8.62 4.47 12.67zM428.44 163.46c2.2-1.32 4.67-2.54 6-3.27a14.15 14.15 0 002-1.32l1.38 2.27c-.65.4-1.35.77-2.15 1.17-1.65.85-5 2.4-7.35 3.95-2.2 1.45-3.6 3-3.6 4.85s1.87 3.1 5.6 3.1a36.92 36.92 0 008.07-.9v2.85a47.6 47.6 0 01-7.94.6c-4.83 0-8.38-1.37-8.38-5.37 0-2.65 1.7-4.7 4.25-6.5-1.15-2.1-2.4-4.93-3.57-7.6l2.47-1a58.19 58.19 0 003.22 7.17zM447.93 161a55.81 55.81 0 00.17 5.62c.38 3.93 1.4 6.58 3.08 6.58 1.25 0 2.35-2.73 2.92-5l2 2.32c-1.58 4.28-3.13 5.75-4.95 5.75-2.53 0-4.85-2.4-5.53-9-.25-2.2-.27-5.2-.27-6.7a12.79 12.79 0 00-.2-2.35h3.05a19.65 19.65 0 00-.27 2.78zm17.52 10.6l-2.57 1c-.43-4.3-1.85-9.85-4.38-12.85l2.48-.82c2.3 2.88 4.15 8.61 4.47 12.66zM473.94 165c1.73-.55 5.9-2 8.87-2 3.73 0 6.33 2.2 6.33 5.77 0 4.7-4.35 7.43-11.6 7.88l-1.05-2.43c5.55-.17 10.07-1.7 10.07-5.47 0-2-1.57-3.48-3.95-3.48-3 0-8.27 2.18-10.09 2.95l-1-2.6c.67-.08 1.65-.36 2.42-.62zM503.36 158.27c-.08.42-.18.92-.3 1.47a44 44 0 004.52-.87v2.47a45.67 45.67 0 01-5 .85c-.25 1.07-.53 2.22-.8 3.27a75.15 75.15 0 01-3.95 11.5l-2.73-.92a57.5 57.5 0 004.25-11.2c.2-.78.4-1.6.6-2.43-.72 0-1.4.05-2 .05-1.15 0-2.08 0-3-.1l-.06-2.44a25.55 25.55 0 003.05.2c.78 0 1.63 0 2.5-.1.13-.75.25-1.4.3-1.88a9.92 9.92 0 00.1-2.25l3 .23c-.16.62-.38 1.65-.48 2.15zm3 13.79c0 1.13.67 2.15 3.87 2.15a28.25 28.25 0 005-.5l-.08 2.53a39.29 39.29 0 01-4.94.35c-4.08 0-6.28-1.33-6.28-3.8a14.47 14.47 0 01.43-3.13l2.32.23a9.11 9.11 0 00-.32 2.17zm4.12-8.57a42.21 42.21 0 014.37.2l-.07 2.4a30.7 30.7 0 00-4.25-.33 40.83 40.83 0 00-4.72.28v-2.33c1.35-.12 3.07-.22 4.67-.22zM531 161.31c-.08 1.23-.18 2.48-.33 3.7h9.75s0 .73-.07 1.08c-.45 6.95-1 9.72-1.95 10.75a3.13 3.13 0 01-2.35.95 40.52 40.52 0 01-4.23 0 4.76 4.76 0 00-.8-2.27c1.73.15 3.48.17 4.18.17a1.67 1.67 0 001.2-.32c.67-.58 1.15-2.93 1.5-8.13h-7.6c-.9 4.33-2.93 8.33-8 10.8a6.9 6.9 0 00-1.67-1.92c6.79-3.13 7.47-9.23 7.74-14.78H521v-2.22h9.83v-4.25h2.37v4.25h10.05v2.22zM552.38 158.87a59.2 59.2 0 00-1.23 9.42 24.58 24.58 0 00.15 2.67c.43-1 .93-2.25 1.33-3.17l1.25 1c-.65 1.9-1.53 4.57-1.78 5.82a4.89 4.89 0 00-.12 1.15v.93l-2.28.15a31.82 31.82 0 01-.92-8.08 73.06 73.06 0 011.07-10 19.26 19.26 0 00.23-2.07l2.77.25a19.17 19.17 0 00-.47 1.93zm6 12.52c0 1.12.88 2.05 3.9 2.05a26.54 26.54 0 006.22-.68v2.68a34.24 34.24 0 01-6.32.5c-4.25 0-6.2-1.48-6.2-3.9a12.77 12.77 0 01.43-3.08l2.24.2a8.92 8.92 0 00-.3 2.23zm9.4-12.62v2.54a63.11 63.11 0 01-10.47 0v-2.54a46.07 46.07 0 0010.44 0z"/><path class="cls-1" d="M577.43 161.36a15.58 15.58 0 01-1.47 1.3 28.76 28.76 0 00-2.43-1.95 15.3 15.3 0 005.18-6l2.89.85a12.07 12.07 0 01-1 1.75h15V160h-2.35v3.2h3.25v2.65h-3.25V169h2.9v2.65h-21.69V169h3v-3.18h-3.35v-2.65h3.35zm-3.6 15.6a12.22 12.22 0 002.8-4.8l2.88.7a13.75 13.75 0 01-2.85 5.25zm6.23-13.8h1.79V160h-1.79zm0 5.83h1.79v-3.18h-1.79zm3.79 3.72a33.57 33.57 0 01.63 4.68l-2.9.42a31 31 0 00-.48-4.77zm2.33-9.55V160h-1.85v3.2zm-1.85 2.65V169h1.85v-3.18zm4.52 6.8a27.68 27.68 0 011.45 4.65l-3 .58a26.58 26.58 0 00-1.28-4.75zm1.7-12.65h-1.9v3.2h1.9zm0 5.85h-1.9V169h1.9zm3.3 6.25a33.6 33.6 0 013.15 5l-3 1a31.63 31.63 0 00-3-5.13zM609.85 172.49a35.68 35.68 0 00-1.8-3.25V178h-2.75v-8.82a25.56 25.56 0 01-2.88 6.15 17.88 17.88 0 00-1.35-3.08 23 23 0 003.3-6.47h-2.85V163h3.78v-8.17h2.75V163h3.7v2.78h-3.7v.22c.72.73 3.1 3.53 3.62 4.23zm-7.23-9.93a24.92 24.92 0 00-1.12-5.77l2.07-.55a25.44 25.44 0 011.28 5.72zm9.58-5.89c-.65 2-1.38 4.37-2 5.82l-1.88-.53a47 47 0 001.38-5.84zm9.69 14.64v6.75h-2.79v-6.25l-7 1.25-.45-2.77 7.45-1.29v-14.28h2.79v13.74l2.55-.47.45 2.77zm-8.54-9.07a20.67 20.67 0 014.2 2.87l-1.5 2.38a21.3 21.3 0 00-4.1-3.13zm3.62-.9a20.07 20.07 0 00-3.87-3.25l1.42-2a18.84 18.84 0 014 3zM630.74 158.64c2.1-.17 6.22-.55 10.8-.92 2.57-.23 5.29-.38 7.07-.45v3.19a26.84 26.84 0 00-4.82.35 7.61 7.61 0 00-5.3 7c0 4.13 3.85 5.6 8.1 5.83l-1.17 3.42c-5.25-.35-10.2-3.15-10.2-8.57a10 10 0 013.72-7.73c-2.35.25-7.45.8-10.35 1.43l-.32-3.42c1.02-.03 1.99-.08 2.47-.13zm16.32 7.67l-1.9.85a18.94 18.94 0 00-1.95-3.47l1.85-.78a31.51 31.51 0 012 3.4zm2.9-1.22l-1.88.9a22.43 22.43 0 00-2-3.38l1.82-.85c.58.88 1.53 2.35 2.1 3.33zM97.34 206.59a25.13 25.13 0 01-2.5 3.68 18.91 18.91 0 011.42 8.17c0 3.45-.27 6.8-1.42 8.32a2.71 2.71 0 01-1.57 1 11.8 11.8 0 01-3.2.2 6.18 6.18 0 00-.8-2.85 15.86 15.86 0 002.65 0 1 1 0 00.77-.45c.5-.63.7-2.78.75-5.43a22.47 22.47 0 01-3 3.1 10.11 10.11 0 00-2-2.17 17 17 0 004.83-5.16 15.62 15.62 0 00-.53-2.43 23.38 23.38 0 01-2.27 2 11.91 11.91 0 00-2-2 21.65 21.65 0 003.1-2.79 13.62 13.62 0 00-2.78-3.1l2.05-1.58a15 15 0 012.48 2.5 26.8 26.8 0 001.47-2.4zm11.85 21.47c-.13-.55-.33-1.2-.53-1.87-4.27.5-8.7 1-11.92 1.35l-.48-3.15c1.73-.15 3.95-.33 6.35-.55v-4.5h-5.1v-10h5.1v-4.55h3v4.55h5.2v10h-5.2v4.2l2-.2c-.35-1-.75-1.9-1.08-2.78l2.75-.77a58.08 58.08 0 012.85 7.3zm-6.58-11.27v-4.88h-2.17v4.88zm3-4.88v4.88h2.08v-4.88zM136.27 208v20h-3.18v-1.23h-11.87v1.25h-3V208h6.39a28.64 28.64 0 00.68-3.28l3.6.4c-.38 1-.78 2-1.18 2.88zm-15.05 2.84v2.58h11.87v-2.58zm0 5.33v2.57h11.87v-2.57zm11.87 7.92v-2.6h-11.87v2.6zM147.14 208.32h14.8c0 .57-.08 1.57-.08 2.29v12.95c0 .88 0 2.2.1 3h-3.62v-1.3H147c-1 0-2.4.08-3.23.15v-3.57c.88.07 2 .15 3.13.15h11.52v-10.45h-11.25c-1 0-2.4.05-3.1.1v-3.47c.93.1 2.22.15 3.07.15zM178.24 220.29a23.52 23.52 0 009.09-9.73l1.95 3.53a26.68 26.68 0 01-9.24 9.25 27.2 27.2 0 01-9.28 3.52l-2.1-3.3a25.83 25.83 0 009.58-3.27zm0-8.08l-2.55 2.6a51.87 51.87 0 00-6.25-5.39l2.35-2.5a50.42 50.42 0 016.45 5.29zM197.22 213.29h16.37a18.92 18.92 0 002.28-.15v3.25c-.63 0-1.58-.08-2.28-.08h-6a15.86 15.86 0 01-1.6 6.43 12.07 12.07 0 01-5 4.8l-2.99-2.13a10.35 10.35 0 004.52-3.57 10.71 10.71 0 001.55-5.53h-6.87c-.75 0-1.7.05-2.4.1v-3.27c.77.07 1.65.15 2.42.15zm3.17-6.37h10.05a18.84 18.84 0 002.7-.18V210c-.85 0-1.82-.09-2.7-.09h-10c-.88 0-1.92 0-2.7.09v-3.22a18.43 18.43 0 002.65.14zM229.71 220.29a23.48 23.48 0 009.1-9.73l1.95 3.53a26.62 26.62 0 01-9.25 9.25 27.14 27.14 0 01-9.27 3.52l-2.1-3.3a25.71 25.71 0 009.57-3.27zm0-8.08l-2.55 2.6a51.75 51.75 0 00-6.24-5.39l2.34-2.5a50.42 50.42 0 016.45 5.29zM251.17 215l-3.23 1.17a63.59 63.59 0 00-2.87-7.07l3.2-1.1c.73 1.56 2.32 5.29 2.9 7zm14.83-4.64a28.57 28.57 0 01-4.2 9.43 22.61 22.61 0 01-9.82 7.32l-2.8-2.8a20 20 0 009.87-6.45c1.87-2.37 3.42-6.67 3.85-10.49l3.75 1.07a14 14 0 00-.65 1.92zm-8.15 2.78l-3.15 1.1a62.82 62.82 0 00-2.6-6.77l3.13-1a60.44 60.44 0 012.61 6.67zM281.39 208.37a62.82 62.82 0 007.07-.73v2.9a73.2 73.2 0 01-8.15.62 16.51 16.51 0 01-1.42 2.55 8.46 8.46 0 012.82-.5 3.38 3.38 0 013.33 1.93c1.29-.6 2.34-1 3.37-1.48s1.85-.82 2.77-1.3l1.25 2.9c-.8.23-2.12.73-3 1.05-1.13.45-2.55 1-4.07 1.7 0 1.4.07 3.25.1 4.4h-3c.07-.75.1-1.95.12-3-1.87 1.08-2.87 2-2.87 3.3s1.17 1.75 3.62 1.75a40.37 40.37 0 007.1-.7l-.1 3.23a63.74 63.74 0 01-7.07.42c-3.93 0-6.83-1-6.83-4.17s3-5.2 5.85-6.68a1.93 1.93 0 00-1.75-.85 6.07 6.07 0 00-3.9 1.73 28.8 28.8 0 00-2.32 2.75l-2.68-2a24.63 24.63 0 005.53-6.9h-.33c-1 0-2.85-.05-4.22-.15v-2.92a32.42 32.42 0 004.4.3h1.2a14.29 14.29 0 00.5-2.88l3.3.28a24.49 24.49 0 01-.62 2.45zM316.64 204.59a3 3 0 010 6 1.83 1.83 0 01-.33 0c-.07.27-.12.52-.2.75-.57 2.45-1.65 6.32-3.75 9.1a20.07 20.07 0 01-10.05 6.92l-2.72-3a16.4 16.4 0 009.8-5.87 15.67 15.67 0 002.92-7.05h-11.62c-1.15 0-2.35.05-3 .1V208a27.74 27.74 0 003 .2h11.57a11.86 11.86 0 001.43-.1 2.36 2.36 0 01-.05-.48 3 3 0 013-3.03zm0 4.43a1.44 1.44 0 10-1.45-1.43 1.44 1.44 0 001.45 1.41zM326.28 223.29v-13.55a16 16 0 00-.27-2.85h3.92a18.39 18.39 0 00-.25 2.85v13a28.73 28.73 0 0012.85-8.28l1.77 2.83c-3.42 4.1-8.6 7.07-14.5 9a6.28 6.28 0 00-1.47.67l-2.33-2.05a3.24 3.24 0 00.28-1.62zM354.94 216.24c-2.22.45-4.19.85-5.24 1.1l-.63-3.28c1.2-.15 3.4-.52 5.87-1v-3.55a21.84 21.84 0 00-.19-2.87h3.72a19.87 19.87 0 00-.23 2.87v2.92c3.63-.67 7.13-1.4 8.25-1.65a7.08 7.08 0 001.78-.6l2.4 1.88a13.77 13.77 0 00-.8 1.35 35.28 35.28 0 01-5.18 7.27l-2.75-1.62a21.68 21.68 0 004-5.05l-7.68 1.52v6.63c0 1.55.45 2.1 3.18 2.1a42.84 42.84 0 007.9-.83l-.1 3.38a59 59 0 01-7.78.55c-5.67 0-6.5-1.38-6.5-4.33zm14.63-7.35l-2 .88a31.48 31.48 0 00-2-3.48l2-.82c.65.92 1.52 2.53 2 3.42zm3-1.15l-2 .85a30.57 30.57 0 00-2-3.42l2-.83c.62.95 1.55 2.53 2 3.4zM386.67 220.29a23.62 23.62 0 009.1-9.73l2 3.53a26.71 26.71 0 01-9.25 9.25 27.22 27.22 0 01-9.27 3.52l-2.1-3.3a25.84 25.84 0 009.52-3.27zm0-8.08l-2.55 2.6a51.87 51.87 0 00-6.25-5.39l2.35-2.5a50.42 50.42 0 016.45 5.29zM406 209.14a18 18 0 00-.25-3h3.9a27.32 27.32 0 00-.23 3v3.7a81.69 81.69 0 0110.45 3.87l-1.43 3.45a71.06 71.06 0 00-9-3.72v7.07c0 .73.13 2.48.23 3.5h-3.9a27.46 27.46 0 00.25-3.5z"/><path class="cls-2" d="M430.9 209.17c-.12 2.77-.3 8.54-.3 12 0 2.65 1.63 3.55 3.8 3.55 4.37 0 7-2.47 8.8-5.15l1.77 2.18a12.7 12.7 0 01-10.62 5.6c-3.8 0-6.35-1.63-6.35-5.78 0-3.55.25-10 .25-12.39a14.83 14.83 0 00-.27-2.9h3.2a24 24 0 00-.28 2.89zM449.31 208.92c1.82-.18 6.27-.6 10.87-1 2.67-.22 5.17-.37 6.9-.45V210a22.28 22.28 0 00-4.85.37 8.28 8.28 0 00-5.55 7.52c0 4.55 4.25 6.08 8.4 6.25l-.93 2.65c-4.9-.22-10-2.85-10-8.37a10.07 10.07 0 014.25-8.13c-2.53.28-8.35.88-11.12 1.48L447 209c1 0 1.83 0 2.31-.08zM476.59 211a56 56 0 00.18 5.62c.37 3.93 1.4 6.58 3.07 6.58 1.25 0 2.35-2.73 2.92-5l2 2.32c-1.58 4.28-3.13 5.75-4.95 5.75-2.52 0-4.85-2.4-5.52-9-.25-2.2-.28-5.2-.28-6.7a12.79 12.79 0 00-.2-2.35h3a21.35 21.35 0 00-.22 2.78zm17.52 10.6l-2.57 1c-.43-4.3-1.85-9.85-4.38-12.85l2.48-.82c2.3 2.88 4.15 8.61 4.47 12.66zM510.89 207.62c0 .3 0 .77-.05 1.32a53.74 53.74 0 006.57-.7v2.3c-1.85.22-4.17.45-6.59.55v3.1c2.47-.1 4.67-.33 6.84-.63v2.33c-2.3.27-4.37.45-6.77.55.05 1.15.12 2.35.17 3.47a20 20 0 017.17 3.83l-1.47 2.26a19.27 19.27 0 00-5.59-3.65c0 .53.05.95.05 1.3 0 1.9-1.38 3.63-4.65 3.63-3.75 0-5.78-1.4-5.78-3.9s2.23-4 5.95-4c.65 0 1.25.05 1.85.1 0-1-.07-2-.1-2.92h-1.37c-1.6 0-4.38-.13-6.1-.33v-2.35a48 48 0 006.18.45h1.27v-3.07h-1c-1.65 0-4.65-.25-6.28-.45v-2.27a45.16 45.16 0 006.27.55h1.08v-1.53a8.18 8.18 0 00-.13-1.57H511c0 .38-.08.93-.11 1.63zM506.24 225c1.4 0 2.48-.42 2.48-2v-1.4a11.28 11.28 0 00-2.27-.23c-2.13 0-3.28.83-3.28 1.83s.92 1.8 3.07 1.8zM537.87 207.79v1.25h7.5l-.05 2.35c-1.47-.08-3.85-.13-7.47-.13v3.93a6.11 6.11 0 01.88 3.32c0 3.33-1.78 7.25-7.7 9l-2.13-2.1c3-.65 5.25-1.75 6.45-3.68a3.92 3.92 0 01-1.75.38 4.18 4.18 0 01-4.2-4.35 4.51 4.51 0 014.65-4.5 5.17 5.17 0 011.4.17v-2.12c-3.8.05-7.9.2-11 .4l-.07-2.4c2.82 0 7.47-.17 11-.22v-1.28c-.07-.8-.15-1.57-.2-1.82H538a13.54 13.54 0 00-.13 1.8zM534 219.91c1.3 0 2.27-1 2-3.37a2.06 2.06 0 00-2-1.2 2.26 2.26 0 00-2.28 2.35 2.2 2.2 0 002.28 2.22zM558.29 223.69a3.88 3.88 0 01-3.89 3.9 3.92 3.92 0 113.89-3.9zm-1.5 0a2.4 2.4 0 10-2.39 2.4 2.39 2.39 0 002.39-2.4zM70.52 270v2.15H48V270h2.1l-.37-13.82 1.65.35a26.06 26.06 0 002.54-1.53l1 1.1h8.7V270h2.83c0-.85.1-1.8.15-2.8h-2.33v-1.9h2.4c0-.88.08-1.75.1-2.65H64.3v-1.9h2.52v-2.72h-2.65v-1.9h4.73c-.05 4.34-.23 10.07-.45 13.87zm-13.37 3.72a37.39 37.39 0 01-7.25 4.13 17 17 0 00-1.82-1.63 28.31 28.31 0 006.92-3.91zm-5-3.72h2.77v-13c-1 .5-2.1 1-3.09 1.33v2.37h2.37v1.9h-2.32l.1 2.65h2.19v1.9H52zm4.45-12.1V270h5.3v-12.1zm4.67 2.95h-4v-1.52h4zm-3.85 1.42h3.68V268h-3.73zm1.08 4.23h1.47v-2.8h-1.52zm4.47 5.77a72.74 72.74 0 017.55 4l-2.2 1.6a55.67 55.67 0 00-7.07-4.05zM78 271.76v1.95h-2.15v-16.54h6.93v14.59zm0-12.34v10.09h2.67v-10.09zM92.38 267a19.21 19.21 0 005.77 7.5 9.6 9.6 0 00-1.75 1.9 22.34 22.34 0 01-4.77-6.47v7.92h-2.35v-8a18.71 18.71 0 01-5.85 6.52 9 9 0 00-1.58-1.8 17.28 17.28 0 006.7-7.6h-5v-2.22h5.73v-3.7h-4.83v-2.22h4.83v-3.75h2.35v3.75h5.29v2.22h-5.29v3.7h6.19V267zM111.87 258.17c-.15.77-.38 2-.6 3.14 1-.1 2-.15 2.52-.15 2.4 0 4.25 1 4.25 4.48 0 2.95-.37 7-1.42 9.07a3.74 3.74 0 01-3.85 2.2 13.88 13.88 0 01-3-.37l-.42-2.6a13.13 13.13 0 003.07.5 2 2 0 002-1.18c.75-1.57 1.1-4.75 1.1-7.35 0-2.15-1-2.52-2.55-2.52-.52 0-1.35.05-2.27.15-.93 3.67-2.7 9.45-5.18 13.45L103 276c2.5-3.37 4.3-8.77 5.17-12.17-1.12.12-2.15.25-2.72.32s-1.8.23-2.48.35l-.25-2.7c.83.05 1.58 0 2.43 0s2.15-.12 3.55-.25a28.29 28.29 0 00.6-5.37l2.92.3c-.1.52-.22 1.14-.35 1.69zm10.94.87l-1.6.67a43.77 43.77 0 014.13 8.45l-2.48 1.18a28.8 28.8 0 00-4.35-9.15l2.33-1a1.3 1.3 0 00.1.15 22.59 22.59 0 00-1.78-3.05l1.63-.68a38.38 38.38 0 012.02 3.39zm2.9-1.1l-1.62.73a24.49 24.49 0 00-2.08-3.45l1.63-.68a38.24 38.24 0 012.07 3.4zM139.58 257.19c-.1.48-.2 1.05-.3 1.65a45.66 45.66 0 008.64-1.07v2.32a76 76 0 01-8.92.91c-.07.85-.15 1.78-.22 2.7a16.17 16.17 0 014-.55 5.54 5.54 0 01.72 0 12.21 12.21 0 00.3-1.63l2.45.6c-.15.33-.35.95-.53 1.4 3 .9 4.93 3.18 4.93 6 0 3.58-2.23 6.83-8.17 7.75l-1.35-2.07c4.64-.53 7.09-2.9 7.09-5.78a4.13 4.13 0 00-3.17-3.95 19.75 19.75 0 01-5.42 7.88c.17.7.4 1.35.6 2L138 276c-.12-.38-.25-.78-.37-1.23a8.57 8.57 0 01-4.08 1.2 3 3 0 01-3.15-3.35c0-3.22 2.75-6.55 6.23-8.17 0-1.15.15-2.33.25-3.4h-1.28c-1.17 0-3.12-.13-4.2-.17l-.07-2.33a35 35 0 004.35.33h1.37c0-.63.13-1.18.18-1.68a13 13 0 00.07-1.32l2.58.07a9.15 9.15 0 00-.3 1.24zM134 273.61a5.78 5.78 0 003-1.1 33 33 0 01-.55-5.65c-2.22 1.35-3.8 3.55-3.8 5.35.05.93.48 1.4 1.35 1.4zm5.05-2.75a16.19 16.19 0 003.77-5.7h-.17a11.66 11.66 0 00-4 .7v.6a26 26 0 00.43 4.4zM162 257.32c1.3 0 7-.15 8.35-.28a7.35 7.35 0 001.6-.22l1.37 1.8a18.21 18.21 0 00-1.57 1.07c-1.27.95-4.35 3.55-6.12 5a10.36 10.36 0 013-.43c4.17 0 7.27 2.58 7.27 6.08 0 4-3.18 6.82-8.8 6.82-3.45 0-5.75-1.52-5.75-3.8 0-1.85 1.65-3.52 4.13-3.52a4.92 4.92 0 015.19 4.37 4.05 4.05 0 002.65-3.92c0-2.35-2.3-4.05-5.42-4.05-4 0-6.35 1.87-9.3 5l-1.82-1.85c1.95-1.6 5.07-4.22 6.55-5.45s4.3-3.54 5.55-4.64c-1.33.05-5.65.24-7 .32-.63 0-1.28.07-1.85.15l-.08-2.57a19.55 19.55 0 002.05.12zm4.65 17.59a12.56 12.56 0 001.78-.1c-.2-1.82-1.3-3.1-2.95-3.1a1.67 1.67 0 00-1.83 1.43c.02 1.1 1.25 1.77 3.02 1.77zM190.91 261.31c-.08 1.23-.18 2.48-.33 3.7h9.75s0 .73-.08 1.08c-.45 7-1 9.72-1.95 10.75a3.11 3.11 0 01-2.34 1 40.52 40.52 0 01-4.23 0 4.76 4.76 0 00-.8-2.27c1.73.15 3.48.17 4.18.17a1.67 1.67 0 001.2-.32c.67-.58 1.14-2.93 1.49-8.13h-7.59c-.9 4.33-2.93 8.33-8 10.8a6.78 6.78 0 00-1.68-1.92c6.8-3.13 7.48-9.23 7.75-14.78h-7.4v-2.22h9.83v-4.25h2.37v4.25h10.05v2.22zM212.2 258.67a66.64 66.64 0 00-1.22 9.89 16.36 16.36 0 00.2 2.68c.35-1 .9-2.28 1.3-3.2l1.25 1a58.13 58.13 0 00-1.8 5.73 6 6 0 00-.13 1.15c0 .25 0 .62.08.92l-2.23.18a29.52 29.52 0 01-1-7.95 76.44 76.44 0 011.1-10.47c.07-.63.17-1.43.2-2.08l2.72.25c-.12.42-.37 1.45-.47 1.9zm12.62-.6c0 .62 0 1.7-.07 2.85a40.31 40.31 0 004.15-.58v2.42c-1.3.2-2.7.38-4.15.48 0 2.5.2 4.75.27 6.67a16.46 16.46 0 014.93 3.23l-1.35 2.1a24.47 24.47 0 00-3.48-2.78v.13c0 2.3-1.1 4.27-4.57 4.27s-5.35-1.4-5.35-3.8 2-4 5.33-4a13.24 13.24 0 012 .15c-.1-1.75-.2-3.9-.25-5.85-.7 0-1.4.05-2.1.05-1.45 0-2.82-.07-4.27-.17v-2.35a40.88 40.88 0 004.33.22c.7 0 1.37 0 2.07-.05v-2.94a11.35 11.35 0 00-.15-1.6H225c-.1.48-.15 1.05-.18 1.55zm-4.59 16.47c1.85 0 2.42-1 2.42-2.53v-.67a7.86 7.86 0 00-2.32-.35c-1.68 0-2.85.72-2.85 1.8s1.15 1.75 2.75 1.75zM246.78 275.16c.78.08 1.65.1 2.55.1h7.57a8.23 8.23 0 00-.8 2.2h-6.89c-4.78 0-8-.7-10-3.88a12.31 12.31 0 01-3.7 4.38 13 13 0 00-1.73-1.65c2.55-1.63 4.1-4.38 4.73-7.85l2.32.32a18.69 18.69 0 01-.62 2.35 6.06 6.06 0 004.25 3.65v-7h-10v-2.05h21.89v2.05h-9.57v2.38h7.95v2h-7.95zm7-10.9h-16.85v-8.39h16.82zm-2.35-6.67h-12.25v1.68h12.22zm0 3.3h-12.25v1.65h12.22zM272.59 270.59l-2.6.47a11.93 11.93 0 01-6.39 7.1 10.06 10.06 0 00-1.65-1.75 10.08 10.08 0 005.32-4.87l-5.67 1-.48-2.3c1.8-.25 4.3-.6 7-1a13.12 13.12 0 00.28-2.6v-.35h-6v-2.15h6v-3.44h-6.3v-2.18h6.27v-3.42h2.32v11.54a15.08 15.08 0 01-.17 2.23l2-.3zm11.48 1.4h-7.4v5.87h-2.33v-22.79h2.33v3.42h6.95v2.18h-6.95v3.44h6.4v2.15h-6.4v3.55h7.4zM288.82 271.91l2.05-1.8a45 45 0 015.52 5.53l-2.12 1.8a45.32 45.32 0 00-5.45-5.53zM338.92 270h-10v4.9c0 1.52-.42 2.17-1.47 2.52a17.24 17.24 0 01-5.3.4 10.48 10.48 0 00-1-2.3c2 .08 4 .08 4.57.05s.75-.17.75-.7V270h-10.05v-2.28h10.05v-3.55h-8.35v-2.22h8.35v-3.4c-2.68.23-5.4.4-7.92.5a7.28 7.28 0 00-.55-2c5.89-.28 12.94-.93 16.84-2l1.73 1.9a52.55 52.55 0 01-7.68 1.4v3.67h8.6v2.22h-8.6v3.55h10zM348.32 258.87a60.43 60.43 0 00-1.22 9.42 24.58 24.58 0 00.15 2.67c.42-1 .92-2.25 1.32-3.17l1.25 1c-.65 1.9-1.52 4.57-1.77 5.82a4.94 4.94 0 00-.13 1.15c0 .25 0 .63.05.93l-2.27.15a31.74 31.74 0 01-.93-8.08 71.26 71.26 0 011.08-10 17 17 0 00.22-2.07l2.78.25a16.84 16.84 0 00-.53 1.93zm6 12.52c0 1.12.87 2.05 3.89 2.05a26.62 26.62 0 006.23-.68l.05 2.68a34.32 34.32 0 01-6.32.5c-4.25 0-6.2-1.48-6.2-3.9a12.7 12.7 0 01.42-3.08l2.25.2a8.92 8.92 0 00-.34 2.23zm9.39-12.62v2.54a63.11 63.11 0 01-10.47 0v-2.54a46 46 0 0010.45 0zM378.18 263.46c2.2-1.32 4.67-2.54 6-3.27a15.41 15.41 0 002-1.32l1.37 2.27c-.65.4-1.35.77-2.15 1.17-1.64.85-5 2.4-7.34 3.95-2.2 1.45-3.6 3-3.6 4.85s1.87 3.1 5.6 3.1a36.92 36.92 0 008.07-.9v2.85a47.6 47.6 0 01-7.94.6c-4.83 0-8.38-1.37-8.38-5.37 0-2.65 1.7-4.7 4.25-6.5-1.15-2.1-2.4-4.93-3.57-7.6l2.47-1a58.19 58.19 0 003.22 7.17zM396 265c1.72-.55 5.9-2 8.87-2 3.72 0 6.32 2.2 6.32 5.77 0 4.7-4.34 7.43-11.59 7.88l-1.05-2.43c5.55-.17 10.07-1.7 10.07-5.47 0-2-1.58-3.48-3.95-3.48-3 0-8.27 2.18-10.1 2.95l-1-2.6c.64-.08 1.61-.36 2.43-.62zM417.9 258.92c1.83-.18 6.27-.6 10.87-1 2.68-.22 5.18-.37 6.9-.45V260a22.32 22.32 0 00-4.85.37 8.29 8.29 0 00-5.55 7.52c0 4.55 4.25 6.08 8.4 6.25l-.92 2.65c-4.9-.22-10-2.85-10-8.37a10.1 10.1 0 014.25-8.13c-2.52.28-8.34.88-11.12 1.48l-.27-2.75c.94-.02 1.82-.02 2.29-.1zM446.26 257.42c1.35 0 4.37-.15 5.47-.23a5.6 5.6 0 001.45-.3l1.58 1.25a4.94 4.94 0 00-.75.93c-.68 1.1-1.7 3.44-2.7 5.69a21.84 21.84 0 016.24 1.85 12.49 12.49 0 00.15-1.42 17 17 0 000-2.48l2.6.28a42.31 42.31 0 01-.5 4.75c1.12.65 2.07 1.27 2.85 1.82l-1.15 2.7a35.85 35.85 0 00-2.4-1.87 12.06 12.06 0 01-6.47 7.15l-2.1-1.73a10.77 10.77 0 006.47-6.72 17.48 17.48 0 00-6.62-2.18 52.18 52.18 0 01-3 6.33 3.89 3.89 0 01-3.48 1.92 3.42 3.42 0 01-3.5-3.7c0-3.77 3.45-6.65 8.4-6.82.83-1.83 1.68-3.78 2.35-5.15-1 0-3.67.15-4.8.2a18.71 18.71 0 00-1.95.2l-.1-2.57c.63.07 1.43.1 1.96.1zM444 272.61a1.65 1.65 0 001.4-.85 29.3 29.3 0 002.43-4.87c-3.28.35-5.15 2.35-5.15 4.22a1.34 1.34 0 001.32 1.5zM468.66 258.92c1.82-.18 6.27-.6 10.87-1 2.68-.22 5.18-.37 6.9-.45V260a22.32 22.32 0 00-4.85.37 8.29 8.29 0 00-5.55 7.52c0 4.55 4.25 6.08 8.4 6.25l-.92 2.65c-4.9-.22-10-2.85-10-8.37a10.1 10.1 0 014.25-8.13c-2.52.28-8.34.88-11.12 1.48l-.27-2.75c.94-.02 1.82-.02 2.29-.1zM502.79 259.22c-1.67 1.39-5.12 4.12-6.9 5.62-1.42 1.22-1.42 1.55.05 2.82 2.13 1.75 6.68 5.38 9.28 8l-2.28 2.07c-.6-.67-1.25-1.37-1.9-2-1.67-1.7-5.4-4.9-7.72-6.85s-2.17-3.23.2-5.2c1.92-1.6 5.55-4.5 7.25-6.17a14.25 14.25 0 001.62-1.88l2.33 2.08c-.63.43-1.43 1.11-1.93 1.51zM521.41 258.59c-.1.43-.2.93-.3 1.47a43.68 43.68 0 004.53-.84v2.44a43.57 43.57 0 01-5 .85c-.23 1.08-.5 2.23-.78 3.28a78.17 78.17 0 01-3.95 11.5l-2.75-.93a54.47 54.47 0 004.25-11.2c.2-.77.43-1.6.6-2.42-.7 0-1.37.05-2 .05-1.17 0-2.07 0-3-.1v-2.45a23.18 23.18 0 003 .2c.77 0 1.62 0 2.47-.1.15-.75.28-1.37.33-1.85a10.79 10.79 0 00.1-2.27l3 .22c-.17.63-.4 1.65-.5 2.15zm3 13.8c0 1.12.68 2.15 3.88 2.15a28.42 28.42 0 005-.5l-.07 2.52a38 38 0 01-5 .35c-4.07 0-6.27-1.32-6.27-3.8a16.35 16.35 0 01.4-3.12l2.35.22a9.24 9.24 0 00-.29 2.18zm4.13-8.58a42.47 42.47 0 014.37.2l-.08 2.4a32.56 32.56 0 00-4.25-.3 43.36 43.36 0 00-4.72.25V264c1.35-.09 3.08-.19 4.68-.19zm3.69-3.2l-1.65.73a27.33 27.33 0 00-2-3.47l1.63-.68c.62.9 1.52 2.48 2.02 3.42zm2.9-1.07l-1.62.73a32.13 32.13 0 00-2-3.48l1.6-.67a36.69 36.69 0 012.02 3.42zM549.78 256.07l2.7-.33a26 26 0 001.08 4.13 30.88 30.88 0 005.39-1.2l.3 2.49a42.75 42.75 0 01-4.87 1 27.91 27.91 0 002.57 4.65 12.75 12.75 0 001.2 1.47l-1.25 1.8a59.9 59.9 0 00-6.29-.75l.17-2.07c1.33.1 3.1.25 4 .35a34.2 34.2 0 01-2.72-5.2 65.23 65.23 0 01-10.6-.08v-2.52a52.41 52.41 0 009.77.33c-.25-.78-.47-1.43-.65-1.93s-.52-1.39-.8-2.14zm-5.25 15.37c0 2.25 2 3.22 5.63 3.25a31.89 31.89 0 006.54-.6l-.12 2.5a34.92 34.92 0 01-6.57.55c-4.9 0-8-1.85-8-5.33a9.71 9.71 0 011.25-4.37l2.47.55a6.37 6.37 0 00-1.2 3.45zM568.86 261a56 56 0 00.18 5.62c.37 3.93 1.4 6.58 3.07 6.58 1.25 0 2.35-2.73 2.92-5l2 2.32c-1.58 4.28-3.13 5.75-5 5.75-2.52 0-4.85-2.4-5.52-9-.25-2.2-.28-5.2-.28-6.7a12.79 12.79 0 00-.2-2.35l3.05.05a21.35 21.35 0 00-.22 2.73zm17.52 10.6l-2.57 1c-.43-4.3-1.85-9.85-4.38-12.85l2.48-.82c2.3 2.88 4.15 8.61 4.47 12.66zM599.38 273.69a3.88 3.88 0 01-3.89 3.9 3.92 3.92 0 113.89-3.9zm-1.5 0a2.4 2.4 0 10-2.39 2.4 2.39 2.39 0 002.39-2.4z"/></g></g></svg>