<svg xmlns="http://www.w3.org/2000/svg" viewBox="0 0 650 447.97"><defs><style>.cls-1{fill:#ff0}.cls-5{fill:#fff}.cls-4{fill:#4d4d4d}.cls-6{fill:#e95513}</style></defs><g id="レイヤー_2" data-name="レイヤー 2"><g id="design"><path class="cls-1" d="M164.39 39.36c-1.4 4.35-3.1 9.85-4.65 13.76a14.89 14.89 0 013.85 10.2c0 3.3-.7 5.4-2.3 6.5a6.42 6.42 0 01-2.95 1.18 25.22 25.22 0 01-3.45.1 13 13 0 00-1.35-5.3h2.35a2.49 2.49 0 001.45-.45c.6-.45.9-1.4.9-2.8a13.14 13.14 0 00-3.7-8.8c1.05-3.21 2.2-7.71 3.1-11.21h-4.4v39.28h-5.55V37.26h11.8l.85-.25zm27 24.86a88 88 0 01-6.75 5.85 18.93 18.93 0 007.85 6.55 21.12 21.12 0 00-3.85 5c-7.35-3.9-11.25-11.35-13.5-21.1h-3.6v12.9c2.35-.4 4.8-.85 7.2-1.3l.45 5.2c-5.75 1.35-11.9 2.6-16.6 3.65l-2-5.75c1.5-.2 3.25-.5 5.2-.8V37.31H189v23.26h-8.7a34.94 34.94 0 001.9 5.3 44.34 44.34 0 004.5-5zm-19.85-21.76v3.95h11.6v-3.95zm0 13h11.6v-4.2h-11.6zM227.53 75.07a51.66 51.66 0 005.7.3c2.7 0 11 0 14.3-.15a22.24 22.24 0 00-2.1 6h-12.5c-9.2 0-16.05-1.5-20.65-8.6a25.06 25.06 0 01-6.65 9.45 35.9 35.9 0 00-4.91-4.05c5.41-4 7.86-10.9 8.76-19.45l6.2.6c-.3 2.25-.65 4.35-1.1 6.35a13.46 13.46 0 006.8 7.85v-17.6h-10.65v-5.66h27.5v5.66h-10.7V62h13.75v5.6h-13.75zM209 52.67h-5.85V40.16h18.15v-5h6.3v5h18.3v12.51h-6.15v-6.86H209zM265.82 42.26H291c1.45 0 3.55 0 4.4-.1-.05 1.15-.15 3.15-.15 4.6v25.91c0 1.75.1 4.4.2 5.9h-7.25v-2.6h-22.8c-2 0-4.8.15-6.45.3v-7.15c1.75.15 4 .3 6.25.3h23.05V48.71h-22.38c-2.1 0-4.8.1-6.2.2V42c1.85.16 4.45.26 6.15.26zM327.44 66.22c8.55-5 15.05-12.7 18.2-19.46l3.9 7.06A53.17 53.17 0 01331 72.32a54.15 54.15 0 01-18.55 7.05l-4.2-6.6a51.53 51.53 0 0019.19-6.55zm0-16.16l-5.1 5.21a104 104 0 00-12.5-10.81l4.7-5a101 101 0 0112.9 10.6zM364.94 52.21h32.75a39.85 39.85 0 004.55-.29v6.5c-1.25-.1-3.15-.15-4.55-.15h-12.05a31.72 31.72 0 01-3.2 12.85 24 24 0 01-10.05 9.6l-5.85-4.25a20.77 20.77 0 009-7.15c2.05-3.1 2.9-6.85 3.1-11h-13.7c-1.5 0-3.4.1-4.8.2v-6.6c1.5.14 3.25.29 4.8.29zm6.35-12.75h20.1a39.17 39.17 0 005.4-.35v6.45c-1.7-.1-3.65-.2-5.4-.2h-20.05c-1.75 0-3.85.1-5.4.2v-6.45a38.46 38.46 0 005.35.35zM429.28 66.22c8.55-5 15.05-12.7 18.2-19.46l3.9 7.06a53.17 53.17 0 01-18.5 18.5 54.15 54.15 0 01-18.55 7.05l-4.2-6.6a51.53 51.53 0 0019.15-6.55zm0-16.16l-5.1 5.21a104 104 0 00-12.5-10.81l4.7-5a101 101 0 0112.9 10.6zM471.66 55.62L465.21 58a124.88 124.88 0 00-5.75-14.16l6.4-2.2c1.5 3.12 4.65 10.57 5.8 13.98zm29.65-9.26c-1.4 5.45-4.25 13.41-8.4 18.86a45.28 45.28 0 01-19.65 14.65l-5.6-5.6a40.11 40.11 0 0019.75-12.9c3.75-4.75 6.85-13.36 7.7-21l7.5 2.15a29.13 29.13 0 00-1.3 3.84zM485 51.92l-6.3 2.2a127.25 127.25 0 00-5.2-13.56l6.25-2.05A120.27 120.27 0 01485 51.92z"/><path fill="none" stroke="#fff" stroke-miterlimit="10" stroke-width="1.42" d="M0 111.56h650"/><path opacity=".8" fill="#fff" d="M0 142.97h650v305H0z"/><path class="cls-4" d="M72.47 224.72a23.49 23.49 0 008.54 6.6 13.25 13.25 0 00-2.01 2.47 25.32 25.32 0 01-7.8-6.6v7.63h-3.1v-7.49a26.34 26.34 0 01-7.8 6.43 15.72 15.72 0 00-2.09-2.47 23.44 23.44 0 008.57-6.57H59v-2.84h9.1v-3.07h-7.3V216h7.3v-3.6h3.05v3.6h7.51v2.83h-7.51v3.07h9.24v2.84zM88.73 226.83a22.12 22.12 0 01-1.44 6.17 13.7 13.7 0 00-2.18-1 17.57 17.57 0 001.27-5.57zm18.46-12.6a15.22 15.22 0 01-3.91 6.21 17.13 17.13 0 004.92 1.83 11.28 11.28 0 00-1.75 2.3 17.49 17.49 0 01-5.36-2.4 21.37 21.37 0 01-5.47 2.52 11.1 11.1 0 00-1.51-2.3 14.31 14.31 0 011 2.83l-2 .91a11.78 11.78 0 00-.32-1.22l-1.22.09v9.82h-2.5v-9.65l-3.48.22-.24-2.47 1.73-.08c.36-.45.74-1 1.12-1.53a22.37 22.37 0 00-2.83-3.31l1.37-1.94.55.48A29.82 29.82 0 0089 212.4l2.48.91c-.87 1.64-1.83 3.48-2.69 4.83.31.33.57.67.81 1a42.43 42.43 0 002.14-3.89l2.33 1.08c-1.32 2.09-3 4.51-4.49 6.46l2.3-.1c-.26-.6-.55-1.2-.84-1.73l1.9-.79a22.75 22.75 0 011.1 2.21 18.67 18.67 0 004.78-2 15.59 15.59 0 01-2.82-3.95l1.53-.5h-2.7v-2.45h9.94l.5-.12zm-13.59 12a26.17 26.17 0 011.49 4.32l-2.11.77a29.22 29.22 0 00-1.39-4.47zm9 5.4h5.26v2.49H94.28v-2.49h5.49v-2.81h-4.08v-2.52h4.08v-2.86h2.81v2.86h4.27v2.52h-4.27zm-3.91-15.7a10.81 10.81 0 002.3 2.86 12.16 12.16 0 002.36-2.86zM112.14 232.66c.82-1.22 1.1-3.24 1.2-5.28l1.58.31c-.12 2.19-.36 4.42-1.34 5.76zm18.46-4.56a9.07 9.07 0 004.49 4.42 10.83 10.83 0 00-1.81 2.25 10.37 10.37 0 01-4.48-5 10.58 10.58 0 01-5.33 5.11 9.8 9.8 0 00-1.39-1.68 2.05 2.05 0 01-.32.68 1.92 1.92 0 01-1.44.84 9.57 9.57 0 01-2.11.07 5.53 5.53 0 00-.57-2.21 14.3 14.3 0 001.46.1.72.72 0 00.65-.32 5.51 5.51 0 00.41-2.08l-.77.28a14.67 14.67 0 00-1.08-3.09l1.13-.39a13.35 13.35 0 01.81 2c0-.72.1-1.61.15-2.64h-6.87v-13.17h8.83v2.3h-2.56v1.32h2.08v1.27a15.36 15.36 0 005.24-5.76h2.44a15.46 15.46 0 005.65 5.4 16.24 16.24 0 00-1.42 2.45 10.55 10.55 0 01-1.56-1.1v1.32h-2.4v1.29h4.3v6.34zm-14.24-.34a22.6 22.6 0 01.24 4.4l-1.29.16a28.44 28.44 0 00-.17-4.44zm-.48-12.19v1.32h1.64v-1.32zm0 3.48v1.44h1.64v-1.44zm0 5.09h1.64v-1.49h-1.64zm2.09 3.38a19.29 19.29 0 01.79 3.87l-1.24.26a17.91 17.91 0 00-.75-3.89zm4.85-3.38v.94a59.7 59.7 0 01-.58 7.53 8.5 8.5 0 004.42-4.51h-3.41v-6.34h4.08v-1.29h-2.45v-1.3a15 15 0 01-1.85 1.37 12.46 12.46 0 00-1.13-2v.55h-2.1v1.44h2.08v2.16h-2.08v1.49zm4.34 1.9a13 13 0 00.15-2.14v-.07h-1.75V226zm4.08-7.76a16.86 16.86 0 01-2.8-3.41 18.06 18.06 0 01-2.64 3.41zm-1.41 5.55v.09c0 .7 0 1.4-.1 2.12h2v-2.21zM148.39 216.1c0 .26-.12.57-.19.89 1.34-.2 2.71-.46 4-.77v3a45.15 45.15 0 01-4.68.79c-.21 1-.45 2.11-.72 3.1a78.3 78.3 0 01-3.8 11.11l-3.34-1.13a52.52 52.52 0 004.15-10.8c.17-.65.34-1.34.51-2h-1.59c-1.17 0-2.06 0-2.9-.09l-.07-3a24.07 24.07 0 003 .19c.7 0 1.42 0 2.16-.07.1-.53.17-1 .22-1.37a13.16 13.16 0 00.07-2.45l3.67.29c-.15.7-.39 1.78-.49 2.31zm2.91 13c0 1 .72 1.85 3.28 1.85a28.35 28.35 0 005-.48l-.12 3a33.38 33.38 0 01-4.9.36c-4 0-6.22-1.39-6.22-3.81a16.55 16.55 0 01.41-3.22l2.88.27a8.4 8.4 0 00-.33 2.04zm3.64-8.26a40.65 40.65 0 014.23.22l-.07 2.94a33.79 33.79 0 00-4.13-.31 36.2 36.2 0 00-4.63.26v-2.81c1.34-.14 3.04-.29 4.6-.29zm3.56-3l-1.92.84a26.75 26.75 0 00-1.88-3.33l1.9-.8a34.74 34.74 0 011.9 3.25zm2.88-1.1l-1.9.81a25.57 25.57 0 00-1.94-3.31l1.89-.77a26.77 26.77 0 011.95 3.23zM170.15 216c-.6 2.66-1.44 7.7-.79 10.68.31-.74.75-1.9 1.15-2.78l1.49 1c-.69 2.06-1.34 4.48-1.63 5.85a5.17 5.17 0 00-.14 1.18v1l-2.66.27a26 26 0 01-1.37-7.78 67.13 67.13 0 01.77-9.58 17.44 17.44 0 00.17-2.09l3.55.36a18.17 18.17 0 00-.54 1.89zm12.39-.72v3.07a33 33 0 003.6-.43v3.12c-1 .12-2.21.21-3.56.29v1c0 5.66-.43 9.14-5.23 12.19l-2.76-2.19a9.21 9.21 0 002.79-1.92c1.84-1.92 2.23-4.05 2.23-8.11v-.86h-2.69c-.89 0-2.52-.08-3.7-.13v-3a26.62 26.62 0 003.63.26h2.71c0-1.34 0-2.59-.1-3.24a9.88 9.88 0 00-.26-1.65h3.48c-.09.47-.12 1.05-.14 1.58zM198.24 220.59c1.75-1 3.46-1.9 4.59-2.55a17.61 17.61 0 002.23-1.44l1.51 2.83c-.77.44-1.54.84-2.4 1.28a58.63 58.63 0 00-5.95 3.21c-2 1.32-3.34 2.69-3.34 4.37s1.68 2.64 5 2.64a40.36 40.36 0 007.82-.86v3.43a44.4 44.4 0 01-7.71.62c-4.78 0-8.4-1.34-8.4-5.49 0-2.64 1.68-4.61 4-6.31-1.1-2-2.25-4.64-3.33-7.16l3-1.22a54.14 54.14 0 002.98 6.65zm10.52-3.72l-1.95.81a28.18 28.18 0 00-1.87-3.33l1.9-.77a35.58 35.58 0 011.92 3.29zm2.88-1.11l-1.92.82a30 30 0 00-1.92-3.31l1.89-.8c.63.92 1.51 2.45 1.95 3.29zM237.53 217.78v1.27c-.22 9.82-.41 13.3-1.18 14.4a2.68 2.68 0 01-1.89 1.2 15.93 15.93 0 01-3 .1 6.73 6.73 0 00-.84-2.74c1.06.1 2 .12 2.43.12a.84.84 0 00.81-.41c.51-.64.75-3.57.89-11.33h-2.16c-.31 6.44-1.42 11.38-5.45 14.57a9.67 9.67 0 00-1.68-1.89c-3.46.36-6.91.72-9.5.93l-.34-2.4 4.87-.33v-1.44h-4.22v-2h4.22v-.93h-4.13v-7.42h4.13v-.94h-4.73v-2.06h4.73v-1c-1.39.09-2.76.17-4.05.19a8.9 8.9 0 00-.63-2 75.17 75.17 0 0010.35-1.17l1.25 2.13c-1.28.27-2.77.48-4.33.65v1.18h4.61v1.32H230v-5h2.74c0 1.75 0 3.43-.05 5zm-18.91 4.54h1.87v-1.06h-1.87zm1.87 2.78V224h-1.87v1.08zm2.59 6c1.37-.09 2.79-.21 4.18-.33 1.87-2.6 2.45-6 2.62-10.33h-2.19v-1.87h-4.61v.94h4.25v7.42h-4.25v.93h4.35v2h-4.35zm1.88-8.73v-1.06h-1.88v1.06zm-1.88 1.7v1.08H225V224zM264.08 213.82v2.66h-9.41v1.92H259v10.88h-11.39V218.4h4.2v-1.92h-9.22v-2.66zm-3.48 4.25h2.76v16.7h-2.76v-1.39h-14.5v1.42h-2.79v-16.73h2.79v12.62h14.5zm-10.66 4.68H252v-2h-2.09zm0 4.2H252v-2h-2.09zm6.62-6.22h-2.09v2h2.09zm0 4.18h-2.09v2h2.09zM271.85 226.78a20.18 20.18 0 01-1.42 6.17 12.21 12.21 0 00-2-1 17.35 17.35 0 001.22-5.57zm2.66-1.9v9.92h-2.4v-9.72l-3.17.24-.28-2.48c.57 0 1.2-.07 1.89-.09.31-.43.65-.91 1-1.4a20.79 20.79 0 00-2.78-3.48l1.33-1.87c.19.16.38.36.57.55a29.22 29.22 0 001.73-4.18l2.42.84c-.86 1.66-1.84 3.55-2.68 4.9a11.9 11.9 0 01.76 1c.8-1.34 1.52-2.73 2.07-3.91l2.25 1c-.88 1.47-1.92 3.07-3 4.59l1.87-.77a21.46 21.46 0 011.92 5.23l-2 .87a13.55 13.55 0 00-.31-1.37zm.46-2.4a16.71 16.71 0 00-.72-1.65c-.43.62-.84 1.22-1.27 1.77zm15.81 9.89c0 .94-.09 1.56-.67 2a3.26 3.26 0 01-2 .46 9.28 9.28 0 00-.67-2.16v2h-1.74v-4.1h-1v4.1h-1.72v-4.1h-1v4.3h-2v-5.31a15 15 0 01-2.07 5.19 9.42 9.42 0 00-2.08-1.52 10 10 0 001.15-2.28l-1.27.41a18.87 18.87 0 00-1.11-4.41l1.87-.56a17.31 17.31 0 011 3 28.48 28.48 0 00.72-7.18v-5h12.1v6.1h-9.63v1h10.12zm.08-18.65v2.43h-13.54v-2.43zm-10.16 5.74V221h6.87v-1.58zm2.24 9v-2h-1v2zm2.76 0v-2h-1v2zm1.75-2v2h1v-2zm0 6.07h.84c.17 0 .17 0 .17-.24v-1.79h-1zM310.49 229.32a28.36 28.36 0 007.68 2.91 11.69 11.69 0 00-1.78 2.28 26.7 26.7 0 01-8.23-3.94v4.2h-2.81v-4.1a26.79 26.79 0 01-8.28 4 15.09 15.09 0 00-1.82-2.35 28.84 28.84 0 007.94-3H296V227h9.31v-.93h-6.6v-6.48c-.43.4-.88.79-1.36 1.17a9.16 9.16 0 00-2-1.92 19.32 19.32 0 005.69-6.53l2.95.56c-.38.69-.82 1.36-1.3 2.06h3.41a21.17 21.17 0 001.06-2.59l3.21.38c-.4.77-.86 1.54-1.29 2.21h7.18v2.21h-7.54v1h6.36V220h-6.36v1h6.38v1.88h-6.38v1H317v2.16h-8.81v.96h9.44v2.28zM306 217.18h-4.53v1H306zm0 2.85h-4.53v1H306zm-4.53 3.97H306v-1h-4.53zM327.13 216.46a64.06 64.06 0 00-1.15 8.81 12 12 0 00.09 1.56c.36-.82.75-1.66 1.08-2.45l1.49 1.18c-.67 2-1.46 4.6-1.73 5.88a7.4 7.4 0 00-.12 1.12v1l-2.78.19a30.65 30.65 0 01-.94-7.85 67.26 67.26 0 011-9.5c.07-.68.22-1.59.24-2.36l3.36.29c-.13.5-.44 1.67-.54 2.13zm5.93 11.74c0 1.05.91 1.7 3.36 1.7a28.49 28.49 0 006-.62l.05 3.24a34.82 34.82 0 01-6.19.45c-4.13 0-6.12-1.46-6.12-3.93a14.24 14.24 0 01.41-3.12l2.76.26a7.8 7.8 0 00-.27 2.02zm8.69-12.29V219a63.5 63.5 0 01-10.32 0v-3.07a49.36 49.36 0 0010.32-.02zM362.78 229.35c2.47 1.13 5.21 2.54 6.84 3.48l-2.78 2a59.92 59.92 0 00-6.68-3.77l1.9-1.68h-7.42L357 231a37 37 0 01-7 3.82 26.49 26.49 0 00-2.26-2 29.38 29.38 0 006.41-3.43h-6.46v-2.62h2l-.39-13.15 1.9.33a17.63 17.63 0 002.21-1.48l.86 1H363v13.27h2.28c0-.69.07-1.46.12-2.25h-1.83v-2.26h1.92c0-.67.05-1.35.05-2h-2v-2.33h2v-2.09h-2.04v-2.3h4.63c-.05 4.22-.21 9.48-.45 13.22h1.92v2.62zm-10.68-2.62h2.18v-11.66c-.84.38-1.68.72-2.47 1l.05 1.8h1.85v2.28h-1.8l.07 2h1.73v2.26H352zm4.18-11.14v11.14h4.65v-11.14zm4.08 3h-3.56v-1.76h3.56zm-3.48 1.08h3.36v5.42h-3.36zm1.15 3.79h1v-2.14h-1zM377.23 228.8v1.92h-2.62v-16.25h7.2v14.33zm0-11.6v8.8h2v-8.8zm14 7.18a17.71 17.71 0 005.26 6.62 13.45 13.45 0 00-2.11 2.38 19.84 19.84 0 01-3.87-5.18v6.55h-2.88V228a16.39 16.39 0 01-5 5.3 13.81 13.81 0 00-1.95-2.25 15 15 0 006.19-6.7h-4.39v-2.71h5.16v-3h-4.39V216h4.39v-3.41h2.88V216h4.92v2.71h-4.94v3h5.69v2.71zM410 215.91c-.14.72-.33 1.6-.5 2.47.81 0 1.51-.1 2-.1 2.55 0 4.35 1.13 4.35 4.59 0 2.83-.34 6.72-1.37 8.81-.79 1.68-2.11 2.2-3.94 2.2a15.66 15.66 0 01-2.88-.33l-.5-3.17a14 14 0 002.93.5 1.77 1.77 0 001.8-1 19 19 0 001-6.65c0-1.92-.84-2.18-2.33-2.18-.38 0-1 0-1.68.09-.91 3.65-2.68 9.34-4.89 12.87l-3.12-1.25c2.33-3.14 4-8 4.87-11.28l-2.06.24c-.7.12-1.95.29-2.69.41l-.29-3.27a20 20 0 002.57 0c.74 0 1.87-.09 3.09-.21a24.06 24.06 0 00.51-5.07l3.57.36c-.12.6-.29 1.37-.44 1.97zm10.18.38l-1.18.5a44.52 44.52 0 013.92 8.38l-3.05 1.39a27.21 27.21 0 00-4-9l2.16-.93a24.86 24.86 0 00-1.64-2.84l1.9-.79c.6.89 1.46 2.4 1.92 3.29zm2.86-1.1l-1.9.81a27 27 0 00-1.94-3.31l1.92-.77a32.9 32.9 0 011.95 3.27zM436.75 214.66c-.07.41-.17.84-.24 1.32a41.64 41.64 0 008.16-1.06v2.79a66.23 66.23 0 01-8.52.84c-.07.72-.14 1.46-.16 2.18a16.59 16.59 0 013.57-.43h.44a11.56 11.56 0 00.22-1.44l2.93.69c-.1.27-.29.77-.43 1.23a6.21 6.21 0 014.63 5.88c0 3.41-2 6.7-7.9 7.58l-1.58-2.52c4.63-.5 6.5-2.85 6.5-5.2a3.56 3.56 0 00-2.49-3.36 18.5 18.5 0 01-5 7.29c.16.6.36 1.2.55 1.78l-2.76.84c-.1-.31-.22-.65-.31-1a8.54 8.54 0 01-3.73 1c-1.75 0-3.24-1-3.24-3.48 0-3.09 2.55-6.31 5.91-7.89.05-1 .12-2 .22-3h-.77c-1.25 0-3.12-.09-4.25-.14l-.07-2.79a32.75 32.75 0 004.41.34h1c.05-.46.1-.89.15-1.3s.07-1 .05-1.44l3.12.08c-.22.42-.31.85-.41 1.21zm-5.45 15.46a5.06 5.06 0 002.4-.8 32.72 32.72 0 01-.5-4.8c-1.8 1.23-3 3-3 4.42 0 .77.33 1.18 1.1 1.18zm4.9-2.79a14.59 14.59 0 003-4.58 11.76 11.76 0 00-3.31.53v.07a25.46 25.46 0 00.31 3.98zM458.27 214.54c1.27 0 6.41-.1 7.77-.22a10.67 10.67 0 001.83-.26l1.56 2.13c-.55.36-1.13.7-1.68 1.11-1.3.91-3.82 3-5.33 4.22a9.44 9.44 0 012.28-.26c4.08 0 7.18 2.54 7.18 6.05 0 3.79-2.88 6.79-8.69 6.79-3.34 0-5.86-1.54-5.86-3.94a4 4 0 014.3-3.74 4.8 4.8 0 015.11 4.1 3.47 3.47 0 002-3.26c0-2.16-2.16-3.62-5-3.62-3.67 0-6.07 1.94-8.64 4.87l-2.18-2.26c1.7-1.37 4.6-3.82 6-5s3.84-3.12 5-4.15c-1.23 0-4.54.16-5.81.24-.65 0-1.42.12-2 .19l-.1-3.12a18 18 0 002.26.13zm4.32 16.82a12.07 12.07 0 001.39-.07c-.14-1.56-1-2.57-2.33-2.57-.91 0-1.49.56-1.49 1.16 0 .88.99 1.48 2.43 1.48z"/><path class="cls-5" d="M18.63 209.61h28v28h-28z"/><path class="cls-4" d="M45.63 210.61v26h-26v-26h26m2-2h-30v30h30v-30z"/><path class="cls-6" d="M40.63 213.62l-12.4 13.63-3.6-2.72h-2l5.6 9.09 14.4-20h-2z"/><path class="cls-4" d="M64.43 169a17.73 17.73 0 00-.24-2.9h3.74a25 25 0 00-.22 2.9v3.51a83.3 83.3 0 0110 3.74l-1.35 3.34a64.38 64.38 0 00-8.65-3.59v6.79c0 .68.12 2.36.24 3.34h-3.76a26.79 26.79 0 00.24-3.34zm11.76 1.51l-2.09.94a21.45 21.45 0 00-2.1-3.76l2-.84c.67 1.01 1.63 2.54 2.19 3.62zm3.21-1.39l-2 1a22.14 22.14 0 00-2.24-3.6l2-.94a32.3 32.3 0 012.24 3.5zM94.89 167.86c0 .74 0 1.44-.1 2.13h4.51a8.93 8.93 0 001.8-.16l2.09 1a10.84 10.84 0 00-.17 1.28c-.09 2.59-.38 9.31-1.41 11.76a3 3 0 01-3.1 1.85c-1.37 0-2.81-.12-4-.22l-.38-3.19a22.55 22.55 0 003.36.31 1.24 1.24 0 001.36-.84c.7-1.51 1-6.31 1-8.9H94.5C93.61 179.24 91.33 183 87 186l-2.79-2.26a14.77 14.77 0 003.15-2.33 14.18 14.18 0 004-8.56h-3.17c-.82 0-2.14 0-3.17.11v-3.16a29.25 29.25 0 003.17.16h3.43v-2.08a17 17 0 00-.17-2.21H95c0 .6-.09 1.61-.11 2.19zm8.21.91l-1.92.84a34.6 34.6 0 00-1.88-3.34l1.9-.79c.6.89 1.44 2.4 1.9 3.29zm2.88-1.1l-1.92.84a23.44 23.44 0 00-1.92-3.32l1.89-.79a37.93 37.93 0 011.97 3.27zM111.71 182.79l-2.59-1.79a24.66 24.66 0 004.51-6.19l2.71 1.27a37.49 37.49 0 01-4.63 6.71zm10.06-14.93v1.92h5.59a18.78 18.78 0 002.38-.17v3.15c-.77 0-1.71-.08-2.36-.08h-5.61v11.16c0 1.4-.8 2.26-2.5 2.26a33.16 33.16 0 01-3.91-.22l-.29-3a16.89 16.89 0 002.66.29c.63 0 .87-.24.89-.87v-9.62h-6.1c-.72 0-1.66 0-2.33.1v-3.19a19.44 19.44 0 002.33.19h6.1v-1.92a12 12 0 00-.22-2.09h3.6a19.27 19.27 0 00-.23 2.09zm9 13.2l-2.83 1.54a46.64 46.64 0 00-3.89-6.44l2.61-1.41a54.65 54.65 0 014.11 6.31zm-2.69-17.14a2.79 2.79 0 11-2.78 2.79 2.77 2.77 0 012.78-2.79zm0 4.08a1.3 1.3 0 100-2.59 1.3 1.3 0 100 2.59zM145.12 179.31a22.6 22.6 0 008.74-9.34l1.87 3.38a25.39 25.39 0 01-8.88 8.89 26.13 26.13 0 01-8.9 3.38l-2-3.17a24.77 24.77 0 009.17-3.14zm0-7.76l-2.44 2.5a49.55 49.55 0 00-6-5.18l2.26-2.4a47.92 47.92 0 016.18 5.08zM165.13 168.46a64.06 64.06 0 00-1.15 8.81 12 12 0 00.09 1.56c.36-.82.75-1.66 1.08-2.45l1.49 1.18c-.67 2-1.46 4.6-1.73 5.88a7.4 7.4 0 00-.12 1.12c0 .27 0 .65.05 1l-2.78.19a30.65 30.65 0 01-.94-7.85 67.26 67.26 0 011-9.5c.07-.68.22-1.59.24-2.36l3.36.29c-.18.5-.49 1.67-.59 2.13zm5.93 11.74c0 1.05.91 1.7 3.36 1.7a28.49 28.49 0 006-.62l.05 3.24a34.82 34.82 0 01-6.19.45c-4.13 0-6.12-1.46-6.12-3.93a14.24 14.24 0 01.41-3.12l2.76.26a7.8 7.8 0 00-.27 2.02zm8.69-12.29V171a63.5 63.5 0 01-10.32 0v-3.07a49.36 49.36 0 0010.32-.02zM188.29 170.83c1.85-.57 6.74-2.3 10.25-2.3 4.34 0 7.75 2.5 7.75 6.94 0 5.45-5.19 8.93-13.63 9.36l-1.4-3.19c6.51-.17 11.6-2 11.6-6.22 0-2.26-1.56-4-4.44-4-3.53 0-9.22 2.41-11.72 3.49l-1.37-3.37a30.38 30.38 0 002.96-.71zM215.27 170.47c0 1.56 0 3.37.15 5.09.33 3.46 1.05 5.84 2.56 5.84 1.13 0 2.09-2.81 2.55-4.73l2.4 2.93c-1.59 4.17-3.1 5.64-5 5.64-2.64 0-4.92-2.38-5.59-8.81-.24-2.21-.26-5-.26-6.48a14 14 0 00-.2-2.45l3.7.05a19.06 19.06 0 00-.31 2.92zm16.66 10.06l-3.14 1.23c-.39-3.87-1.66-9.7-4.28-12.68l3.05-1c2.28 2.78 4.11 8.78 4.37 12.45zM238.14 168.07c2-.16 6-.52 10.35-.91 2.47-.19 5.11-.36 6.79-.41v3.08a26.56 26.56 0 00-4.63.31 7.3 7.3 0 00-5.06 6.74c0 3.94 3.69 5.38 7.75 5.6l-1.13 3.28c-5-.33-9.77-3-9.77-8.23a9.72 9.72 0 013.55-7.42c-2.25.24-7.15.77-9.93 1.37l-.31-3.29c.98-.02 1.91-.07 2.39-.12zM269.8 167.62c-.07.41-.17 1-.26 1.85a34.6 34.6 0 004.39-.34l-.1 2.86a44.3 44.3 0 01-4.68.24c-.14 1.05-.28 2.18-.41 3.26h.17a40 40 0 004.83-.29l-.07 2.86c-1.35.12-2.74.22-4.25.22h-1c0 .72-.1 1.32-.1 1.75 0 2 1.22 3.05 3.58 3.05 3.36 0 5.18-1.54 5.18-3.51a6.54 6.54 0 00-2.47-4.65l3.38-.72a8.9 8.9 0 012.33 5.76c0 3.62-3.26 6.21-8.52 6.21-3.77 0-6.43-1.63-6.43-5.64 0-.57.07-1.44.17-2.42a26.91 26.91 0 01-4.61-.79l.17-2.91a22 22 0 004.72 1c.15-1.08.29-2.21.41-3.29a28.12 28.12 0 01-4.77-.86l.16-2.76a23 23 0 004.95.91c.07-.74.14-1.39.19-1.94a12.78 12.78 0 000-2.14l3.39.19a21.61 21.61 0 00-.35 2.1zM288.76 173.91c1.64-.51 5.72-1.88 8.62-1.88 3.79 0 6.34 2.26 6.34 5.89 0 4.34-3.82 7.29-11.45 7.77l-1.27-2.95c5.49-.14 9.53-1.61 9.53-4.87 0-1.8-1.35-3.05-3.44-3.05-2.78 0-7.58 2-9.62 2.86l-1.25-3.12c.72-.15 1.78-.44 2.54-.65zM317.51 172.23c2-1.16 4.05-2.19 5.18-2.84a14.13 14.13 0 002.23-1.46l1.66 2.78c-.72.44-1.49.84-2.38 1.3a74.43 74.43 0 00-6.69 3.55c-2 1.32-3.34 2.69-3.34 4.37s1.66 2.64 5 2.64a36.83 36.83 0 007.85-.89v3.46a44.73 44.73 0 01-7.71.6c-4.78 0-8.4-1.32-8.4-5.45 0-2.64 1.68-4.63 4-6.33-1.1-2.05-2.25-4.61-3.33-7.16l3-1.22a57.32 57.32 0 002.93 6.65zM341.93 170.59h-9.38v-2.25h9.38zm-.88 14.93h-5v.94h-2.42v-8.18h7.44zm-7.37-13.85h7.39v2.19h-7.39zm0 3.29h7.39v2.14h-7.39zm7.34-7.68h-7.25v-2.16H341zm-5 13.25v2.76h2.54v-2.76zm19 .77h-5.24v5.5H347v-5.5h-5.36v-2.59H347v-2.43h-4.11v-2.52H347v-2.28h-4.59v-2.59h2.19a17.23 17.23 0 00-1.47-3.55l2.31-.87a15.6 15.6 0 011.72 4l-1.15.46h4.68l-1.08-.36a27.38 27.38 0 001.66-4.2l2.78.79c-.67 1.37-1.39 2.76-2 3.77h2.59v2.59h-4.85v2.28h4.35v2.52h-4.35v2.43H355zM365.19 168.87c-.09 2.59-.28 8-.28 10.94 0 2.43 1.44 3.22 3.31 3.22 4 0 6.48-2.28 8.21-4.9l2.18 2.64a12.41 12.41 0 01-10.42 5.52c-3.93 0-6.48-1.73-6.48-5.83 0-3.22.24-9.53.24-11.59a15 15 0 00-.31-3.24h3.87c-.15 1.05-.27 2.28-.32 3.24zM394.81 169.06c-1.57 1.25-4.73 3.7-6.34 5.06-1.27 1.11-1.25 1.37 0 2.5 1.8 1.51 6.36 5.11 8.81 7.49l-2.81 2.57c-.67-.75-1.37-1.52-2.09-2.24-1.47-1.51-5-4.51-7.18-6.38-2.4-2-2.21-3.31.19-5.33 1.9-1.54 5.19-4.2 6.8-5.76a16.71 16.71 0 001.84-2l2.81 2.47c-.69.56-1.48 1.16-2.03 1.62zM411.58 176.55c-.05.33-.1.67-.17 1 1.25 1.23 3.84 4.23 4.52 5L414 185c-.79-1.25-2.16-3-3.33-4.51a12.8 12.8 0 01-4.54 6.28 11 11 0 00-2-2.16 11.19 11.19 0 004.61-8h-4.25v-2.69h4.44V170h-1a16.66 16.66 0 01-1.63 3.22 16.62 16.62 0 00-2.3-1.66 18 18 0 002.68-7.22l2.74.55c-.17.84-.36 1.66-.6 2.47h6.34V170h-3.39v3.82h3.94v2.69zm13.92-10.11v19.3h-2.9v-1.37h-3.48v1.73h-2.76v-19.66zm-2.9 15.24v-12.55h-3.48v12.55zM435.91 170.43c1.15-1.88 3.24-3.89 5.95-3.89 3.34 0 5.93 3.26 5.93 8.54 0 6.8-4.15 10-10.51 11.19l-1.83-2.79c5.33-.81 9.1-2.56 9.1-8.37 0-3.7-1.25-5.76-3.26-5.76-2.84 0-5.31 4.25-5.43 7.41a12.76 12.76 0 00.12 2.55l-3 .19a26.44 26.44 0 01-.31-4 62.34 62.34 0 01.67-7.68 21.15 21.15 0 00.19-2.52l3.29.14a37.85 37.85 0 00-.91 4.99zM463.13 167.81c-.05.26-.12.58-.19.91 1.34-.19 2.69-.45 4-.77v3a45.1 45.1 0 01-4.68.8c-.22 1-.46 2.09-.72 3.07a74.32 74.32 0 01-3.82 11.11l-3.33-1.13a52.08 52.08 0 004.15-10.8c.17-.65.36-1.32.5-2h-1.58c-1.15 0-2.07 0-2.91-.09l-.07-3a24.57 24.57 0 003 .19c.69 0 1.41 0 2.16-.07.09-.53.16-1 .21-1.37a11.39 11.39 0 00.07-2.42l3.68.28c-.15.68-.37 1.76-.47 2.29zm2.88 13c0 1.06.72 1.85 3.29 1.85a28.22 28.22 0 005-.5l-.12 3.07a37.92 37.92 0 01-4.89.34c-4 0-6.22-1.4-6.22-3.82a17 17 0 01.43-3.22l2.86.29a8.38 8.38 0 00-.36 2.02zm3.65-8.28c1.37 0 2.81.08 4.23.22l-.08 2.88a36 36 0 00-4.12-.29 40.91 40.91 0 00-4.64.24v-2.78c1.35-.12 3.08-.24 4.61-.24zM483.22 170.47c0 1.56 0 3.37.15 5.09.33 3.46 1.05 5.84 2.56 5.84 1.13 0 2.09-2.81 2.55-4.73l2.4 2.93c-1.58 4.17-3.1 5.64-5 5.64-2.64 0-4.92-2.38-5.59-8.81-.24-2.21-.26-5-.26-6.48a14 14 0 00-.2-2.45l3.7.05a19.06 19.06 0 00-.31 2.92zm16.66 10.06l-3.14 1.23c-.39-3.87-1.66-9.7-4.28-12.68l3.05-1c2.28 2.78 4.11 8.78 4.37 12.45zM508.68 182.81a2.11 2.11 0 112.11 2.11 2 2 0 01-2.11-2.11zm.24-12.48l-.12-3.58h4l-.12 3.58-.65 8.21h-2.45z"/><path class="cls-5" d="M18.63 161.61h28v28h-28z"/><path class="cls-4" d="M45.63 162.61v26h-26v-26h26m2-2h-30v30h30v-30z"/><path class="cls-6" d="M40.63 165.62l-12.4 13.63-3.6-2.72h-2l5.6 9.09 14.4-20h-2z"/><path class="cls-4" d="M80.34 265.78v1.27c-.21 9.82-.4 13.3-1.17 14.4a2.7 2.7 0 01-1.9 1.2 15.82 15.82 0 01-3 .1 6.73 6.73 0 00-.84-2.74c1 .1 2 .12 2.42.12a.87.87 0 00.82-.41c.5-.64.74-3.57.88-11.33h-2.16C75.08 274.83 74 279.77 70 283a9.67 9.67 0 00-1.68-1.89c-3.46.36-6.92.72-9.51.93l-.34-2.4 4.88-.33v-1.44h-4.28v-2h4.23v-.93h-4.13v-7.42h4.13v-.94h-4.73v-2.06h4.73v-1c-1.39.09-2.76.17-4.06.19a9.4 9.4 0 00-.62-2A75 75 0 0069 260.5l1.25 2.13c-1.27.27-2.76.48-4.32.65v1.18h4.57v1.32h2.25v-5h2.73v5zm-18.91 4.53h1.87v-1.05h-1.87zm1.87 2.79V272h-1.87v1.08zm2.59 5.95c1.37-.09 2.78-.21 4.18-.33 1.87-2.6 2.44-6 2.61-10.33H70.5v-1.87h-4.61v.94h4.25v7.42h-4.25v.93h4.34v2h-4.34zm1.87-8.74v-1.05h-1.87v1.05zM65.89 272v1.08h1.87V272zM106.88 261.82v2.66h-9.41v1.92h4.37v10.88H90.41V266.4h4.21v-1.92H85.4v-2.66zm-3.48 4.25h2.76v16.7h-2.76v-1.39H88.9v1.42h-2.78v-16.73h2.78v12.62h14.5zm-10.66 4.68h2.09v-2h-2.09zm0 4.2h2.09v-2h-2.09zm6.63-6.22h-2.09v2h2.09zm0 4.18h-2.09v2h2.09zM132.08 266.59a40 40 0 01-8.19 9.39c1.37 1.37 2.79 2.93 3.72 4.06l-2.8 2.23a63.08 63.08 0 00-4.59-5.19 51.22 51.22 0 00-5.28-4.6l2.54-2c1 .72 2.55 2 4.06 3.33a26.7 26.7 0 006.1-6.91h-12.7c-1 0-2.26.12-2.76.17v-3.36a24.3 24.3 0 002.76.21h13.32a7.68 7.68 0 002.23-.26l2.4 2a8.48 8.48 0 00-.81.93zM140.66 269.74h12.89c1.13 0 2.19-.1 2.81-.15v3.77c-.58 0-1.8-.12-2.81-.12h-12.89c-1.36 0-3 .05-3.86.12v-3.77c.86.08 2.62.15 3.86.15zM170.88 263.86c-.19.5-.41 1.13-.67 1.75h10.34a15.2 15.2 0 002.5-.17v3.29c-.89-.09-2-.09-2.5-.09h-3.36c-.43 6.36-2.93 10.65-7.27 13.39l-3.24-2.19a8.6 8.6 0 002.28-1.32c2.52-1.92 4.51-4.87 4.89-9.88h-5.06a19.84 19.84 0 01-3.89 5l-3-1.83a18.39 18.39 0 004.15-4.94 15.56 15.56 0 001.4-3.27 9.86 9.86 0 00.5-2.47l3.72.74c-.29.64-.6 1.48-.79 1.99zM190.89 268.59h15.72a17.37 17.37 0 002.18-.15v3.12c-.6 0-1.51-.07-2.18-.07h-5.79a15.25 15.25 0 01-1.53 6.17 11.49 11.49 0 01-4.83 4.61l-2.81-2a10 10 0 004.35-3.47 10.41 10.41 0 001.49-5.31h-6.6c-.72 0-1.64.05-2.31.1v-3.15c.72.07 1.56.15 2.31.15zm3-6.12h9.65a18.92 18.92 0 002.6-.17v3.09c-.82 0-1.76-.09-2.6-.09H194c-.84 0-1.85.05-2.59.09v-3.09a18.35 18.35 0 002.52.17zM222.14 270.44a25.21 25.21 0 006-5.14l2.37 2.33a31.8 31.8 0 01-5.37 4.37v8.23a13.75 13.75 0 00.16 2.59h-3.55c.05-.48.12-1.75.12-2.59v-6.34a49.66 49.66 0 01-6.87 2.81l-1.41-2.83a31.73 31.73 0 008.55-3.43zM245.28 275.31A22.6 22.6 0 00254 266l1.87 3.38a25.39 25.39 0 01-8.88 8.89 26.13 26.13 0 01-8.9 3.38l-2-3.17a24.71 24.71 0 009.19-3.17zm0-7.76l-2.44 2.5a50.19 50.19 0 00-6-5.18l2.25-2.4a47.92 47.92 0 016.19 5.08zM279.73 264.34l-1.77.74 2 1.25a9.91 9.91 0 00-.8 1.73 24 24 0 01-4.2 8 22.34 22.34 0 01-9.67 6.79l-2.83-2.54a19.13 19.13 0 009.67-5.95 17 17 0 003.41-6.53h-6.74a27 27 0 01-6.08 5.81l-2.68-2a20.6 20.6 0 007.48-7.73 10.56 10.56 0 001.08-2.49l3.53 1.15a24.9 24.9 0 00-1.46 2.45.47.47 0 00-.07.12h4.8a7.4 7.4 0 002.08-.29l.17.09a27.38 27.38 0 00-1.75-3.09l1.9-.77a29.58 29.58 0 011.93 3.26zm2.88-1.11l-1.89.82a26.12 26.12 0 00-2-3.31l1.9-.77a34.83 34.83 0 011.99 3.26zM296.54 281.84l-1.8-2.86a20.21 20.21 0 002.24-.38c3.07-.72 5.47-2.93 5.47-6.44 0-3.31-1.8-5.78-5-6.33a50.23 50.23 0 01-1.44 6.5c-1.44 4.85-3.51 7.83-6.12 7.83s-4.87-2.93-4.87-7c0-5.54 4.8-10.27 11-10.27 5.95 0 9.7 4.13 9.7 9.36-.03 5.07-3.13 8.65-9.18 9.59zm-6.6-5.38c1 0 1.95-1.51 2.93-4.75a36 36 0 001.27-5.81 7.54 7.54 0 00-6.09 7c0 2.38.95 3.56 1.89 3.56zM326.74 265.83a33.56 33.56 0 01-4.51 8.81 24 24 0 01-9.1 7l-2.74-2.81a20.65 20.65 0 009.12-6.24 24.37 24.37 0 004.54-10.37l3.75 1a26.14 26.14 0 00-1.06 2.61zM345.25 263.31v1.84h4.17a6 6 0 002-.26l2.08 1.27a17.37 17.37 0 00-.48 1.92 22.07 22.07 0 01-2.23 6.8 15.28 15.28 0 01-9.79 7.2l-2.5-2.88a20.92 20.92 0 003.39-.94 11.78 11.78 0 005.45-4.1 14.39 14.39 0 002.13-6.17h-11.9v3.5c0 .55 0 1.3.07 1.78h-3.31a18.75 18.75 0 00.12-2v-4.17a16.49 16.49 0 00-.12-2.07 19 19 0 002.44.12h5.14v-1.84a11.62 11.62 0 00-.19-2.21h3.7a17.41 17.41 0 00-.17 2.21zM362.62 263.67l3.5.72c-.19.69-.48 1.87-.57 2.4a55.5 55.5 0 01-2 7.22 34.35 34.35 0 01-3.53 6.87l-3.36-1.42a29.87 29.87 0 003.72-6.67 34.56 34.56 0 002.24-9.12zm6.09.72l3.2-1c1 1.88 2.64 5.57 3.55 7.88s2.11 6 2.78 8.37l-3.55 1.16a75.35 75.35 0 00-2.5-8.48 67.64 67.64 0 00-3.48-7.93zM393.67 263.31v1.84h4.18a6 6 0 002-.26l2.09 1.27a17.37 17.37 0 00-.48 1.92 22.61 22.61 0 01-2.23 6.8 15.27 15.27 0 01-9.8 7.2l-2.49-2.88a20.53 20.53 0 003.38-.94 11.73 11.73 0 005.45-4.1 14.4 14.4 0 002.13-6.16H386v3.5c0 .55 0 1.3.07 1.78h-3.31a18.75 18.75 0 00.12-2v-4.18a14.8 14.8 0 00-.12-2.07 19.24 19.24 0 002.45.12h5.14v-1.84a11.76 11.76 0 00-.2-2.21h3.7a17.41 17.41 0 00-.18 2.21zM416.35 263.86a60.66 60.66 0 006.79-.7v2.79a75.3 75.3 0 01-7.83.6 17 17 0 01-1.37 2.44 8.38 8.38 0 012.72-.48 3.26 3.26 0 013.19 1.85c1.25-.57 2.25-1 3.24-1.41s1.77-.8 2.66-1.25l1.2 2.78c-.77.22-2 .7-2.85 1-1.08.43-2.45 1-3.92 1.63 0 1.35.08 3.12.1 4.23h-2.88c.07-.72.09-1.87.12-2.93-1.8 1-2.76 2-2.76 3.17s1.13 1.68 3.48 1.68a40.18 40.18 0 006.82-.67l-.1 3.09a59.07 59.07 0 01-6.79.41c-3.77 0-6.56-.91-6.56-4s2.88-5 5.62-6.41a1.84 1.84 0 00-1.68-.81 5.87 5.87 0 00-3.74 1.65 29 29 0 00-2.24 2.64l-2.57-1.92a23.41 23.41 0 005.3-6.62h-.3c-1 0-2.74-.05-4.06-.15v-2.8a31.63 31.63 0 004.23.28h1.15a13.68 13.68 0 00.48-2.76l3.17.27a23.61 23.61 0 01-.62 2.4zM453.45 265.08v1.11c-.17 7.49-.39 10.32-1 11.21a2.45 2.45 0 01-.53.57 9.73 9.73 0 002.13.72c-.38 3-1.2 3.72-4.2 3.72h-6.28c-3.89 0-4.85-.69-4.85-3.38v-5.26h-1.13c-.31 3.63-1.18 7.11-4.66 9.15a8.06 8.06 0 00-1.7-2.21c3-1.51 3.62-4.2 3.91-6.94h-2.38v-6a7.45 7.45 0 00-1.56-1.4 14.86 14.86 0 004.3-6l2.54.41c-.16.38-.33.79-.52 1.17h2.44l.39-.09 1.68 1a23 23 0 01-1.7 3.29h3.36v-1H446v-4.39h2.67c0 1.54 0 3-.07 4.39zm-17.16-1a16.39 16.39 0 01-1.46 2h2.73a19.77 19.77 0 001.13-2zm.7 7.42v-3.12h-1.78v3.12zm4.25-3.12h-1.85v3.12h1.85zm8.4 11.64c1.36 0 1.7-.26 1.87-1.82a2.44 2.44 0 01-.72.24 11.7 11.7 0 01-2.55.09 6.81 6.81 0 00-.72-2.66 13.49 13.49 0 001.8.1.74.74 0 00.72-.36c.36-.48.56-2.5.72-7.85h-2.2c-.32 5.18-1.32 9-4.54 11.47a6.87 6.87 0 00-1.78-2.06c2.64-2 3.46-5.12 3.7-9.41h-2.06v6h-2.62V279c0 .89.31 1 2.35 1zM458.66 261.67h7.17v7.76h-4.53c-.08.72-.12 1.44-.2 2.13h4.73s0 .72-.05 1.08c-.24 5.81-.5 8.24-1.2 9.1a2.63 2.63 0 01-1.82 1 19.45 19.45 0 01-2.9.07A7.48 7.48 0 00459 280c1 .1 2 .1 2.5.1a.88.88 0 00.84-.29c.38-.38.62-2 .81-5.76h-2.28l-.14 1.15-2.5-.38c.34-2.09.63-5.33.77-7.92h4.15v-2.67h-4.48zm19.68 21.25a10.18 10.18 0 00-.6-1.56c-4.11.36-8.38.67-11.48.88l-.33-2.76c1.58 0 3.58-.16 5.74-.31v-3.09h-4.83v-6.89h4.83v-1.88c-1.85.15-3.58.24-5.05.34l-.38-2.66 2.11-.1a29.37 29.37 0 002.14-4.54l3.07.7c-.67 1.25-1.46 2.54-2.21 3.7l4.54-.24c-.36-.51-.77-1-1.15-1.49l2.4-1.06a21.9 21.9 0 013.53 5.14l-2.57 1.17a11.39 11.39 0 00-.67-1.39l-3 .24v2.07h5v6.89h-5V279l2-.14c-.34-.56-.7-1.08-1.06-1.59l2.31-1a20.46 20.46 0 013.21 5.52zm-6.67-9.17v-2.21h-2.26v2.21zm2.73-2.21v2.21h2.33v-2.21zM490.7 264.87c-.1 2.59-.29 8-.29 10.94 0 2.43 1.44 3.22 3.31 3.22 4 0 6.48-2.28 8.21-4.9l2.18 2.64a12.39 12.39 0 01-10.41 5.52c-3.94 0-6.48-1.73-6.48-5.83 0-3.22.24-9.53.24-11.59a15 15 0 00-.32-3.24h3.87c-.15 1.05-.27 2.28-.31 3.24zM508.2 264.07c2-.16 5.95-.52 10.34-.91 2.47-.19 5.11-.36 6.79-.41v3.08a26.5 26.5 0 00-4.63.31 7.3 7.3 0 00-5.07 6.74c0 3.94 3.7 5.38 7.75 5.6l-1.12 3.28c-5-.33-9.77-3-9.77-8.23a9.67 9.67 0 013.55-7.42c-2.26.24-7.15.77-9.94 1.37l-.31-3.29c.99-.02 1.93-.07 2.41-.12zM535.69 262.66c1.37 0 3.92-.12 5-.22a5.34 5.34 0 001.64-.33l1.92 1.48a5.78 5.78 0 00-.82 1 50.93 50.93 0 00-2.4 5.16 21.82 21.82 0 015.21 1.54c0-.29.05-.55.07-.82a16.19 16.19 0 000-2.61l3.14.36a38 38 0 01-.45 4.44c1 .57 1.87 1.13 2.57 1.61l-1.39 3.33c-.63-.57-1.33-1.13-2.07-1.68a12 12 0 01-6.1 6.51l-2.54-2.09a10.37 10.37 0 006.1-6 16.89 16.89 0 00-5.69-1.94 48.11 48.11 0 01-2.71 5.76 4.19 4.19 0 01-3.75 2.11 3.59 3.59 0 01-3.69-3.89c0-3.72 3.38-6.55 8.2-6.77.68-1.58 1.37-3.21 1.92-4.34-1 .05-3 .12-4.12.19-.48 0-1.32.1-1.95.19l-.12-3.09c.69.05 1.51.1 2.03.1zm-2.11 14.45c.48 0 .82-.24 1.25-.84a27.29 27.29 0 001.94-3.91c-2.68.4-4.2 2-4.2 3.55 0 .79.43 1.2 1.01 1.2zM564.33 263.81c-.05.26-.12.58-.19.91 1.34-.19 2.69-.45 4-.77v3a45.76 45.76 0 01-4.69.8c-.21 1-.45 2.08-.72 3.07a74.31 74.31 0 01-3.81 11.11l-3.34-1.13a51.52 51.52 0 004.15-10.8c.17-.65.36-1.32.51-2h-1.59c-1.15 0-2.06 0-2.9-.09l-.07-3a24.42 24.42 0 003 .19c.7 0 1.42 0 2.16-.07.1-.53.17-1 .22-1.37a12.9 12.9 0 00.07-2.42l3.67.28c-.16.68-.38 1.76-.47 2.29zm2.88 13c0 1.06.72 1.85 3.29 1.85a28.32 28.32 0 005-.5l-.12 3.07a38.09 38.09 0 01-4.9.34c-4 0-6.21-1.4-6.21-3.82a17 17 0 01.43-3.22l2.86.29a7.9 7.9 0 00-.35 2.02zm3.65-8.28c1.37 0 2.81.08 4.22.22l-.07 2.88a36 36 0 00-4.13-.29 40.73 40.73 0 00-4.63.24v-2.78c1.34-.12 3.07-.24 4.61-.24zM584.42 266.47c0 1.56 0 3.36.14 5.09.34 3.46 1.06 5.84 2.57 5.84 1.13 0 2.09-2.81 2.55-4.73l2.4 2.93c-1.59 4.17-3.1 5.64-5 5.64-2.64 0-4.92-2.38-5.59-8.81-.24-2.21-.27-5-.27-6.48a14.93 14.93 0 00-.19-2.45l3.7.05a19.06 19.06 0 00-.31 2.92zm16.66 10.06l-3.15 1.23c-.38-3.87-1.65-9.7-4.27-12.68l3.05-1c2.29 2.78 4.1 8.78 4.37 12.45zM613.39 278.64a3.88 3.88 0 11-3.89-3.88 3.89 3.89 0 013.89 3.88zm-1.73 0a2.15 2.15 0 10-2.16 2.16 2.15 2.15 0 002.16-2.16z"/><path class="cls-5" d="M18.63 257.61h28v28h-28z"/><path class="cls-4" d="M45.63 258.61v26h-26v-26h26m2-2h-30v30h30v-30z"/><path class="cls-6" d="M40.63 261.62l-12.4 13.63-3.6-2.73h-2l5.6 9.1 14.4-20h-2z"/><path class="cls-4" d="M80.34 313.5v1.27c-.21 9.82-.4 13.3-1.17 14.4a2.7 2.7 0 01-1.9 1.2 16.72 16.72 0 01-3 .1 6.68 6.68 0 00-.84-2.74c1 .1 2 .12 2.42.12a.89.89 0 00.82-.41c.5-.65.74-3.57.88-11.33h-2.16c-.31 6.44-1.41 11.38-5.44 14.57a9.4 9.4 0 00-1.68-1.89c-3.46.36-6.92.72-9.51.93l-.34-2.4 4.88-.32v-1.44h-4.23v-2h4.23v-.94h-4.13v-7.41h4.13v-.94h-4.73v-2.06h4.73v-1c-1.39.09-2.76.16-4.06.19a9.23 9.23 0 00-.62-2A75 75 0 0069 308.22l1.25 2.13c-1.27.27-2.76.48-4.32.65v1.18h4.57v1.32h2.25v-5h2.73v5zM61.43 318h1.87v-1h-1.87zm1.87 2.79v-1.08h-1.87v1.08zm2.59 5.95c1.37-.1 2.78-.22 4.18-.34 1.87-2.59 2.44-6 2.61-10.32H70.5v-1.87h-4.61v.94h4.25v7.41h-4.25v.94h4.34v2h-4.34zm1.87-8.74v-1h-1.87v1zm-1.87 1.71v1.08h1.87v-1.08zM106.88 309.54v2.66h-9.41v1.92h4.37V325H90.41v-10.88h4.21v-1.92H85.4v-2.66zm-3.48 4.24h2.76v16.71h-2.76v-1.39H88.9v1.41h-2.78v-16.73h2.78v12.63h14.5zm-10.66 4.68h2.09v-2h-2.09zm0 4.21h2.09v-2h-2.09zm6.63-6.22h-2.09v2h2.09zm0 4.18h-2.09v2h2.09zM114.65 322.5a20.49 20.49 0 01-1.41 6.17 12.32 12.32 0 00-2-1 17.4 17.4 0 001.23-5.57zm2.67-1.9v9.91h-2.4v-9.72l-3.17.24-.29-2.47c.58 0 1.2-.07 1.9-.1.31-.43.64-.91 1-1.39a20.47 20.47 0 00-2.79-3.48l1.37-1.85c.19.17.38.36.58.56a29.6 29.6 0 001.72-4.18l2.43.84c-.87 1.66-1.85 3.55-2.69 4.9a12.12 12.12 0 01.77 1c.79-1.34 1.51-2.74 2.06-3.91l2.26 1c-.89 1.46-1.92 3.07-3 4.58l1.87-.76a21.05 21.05 0 011.92 5.23l-2 .86c-.07-.4-.17-.86-.31-1.36zm.45-2.4a13.18 13.18 0 00-.72-1.66c-.43.63-.84 1.23-1.27 1.78zm15.82 9.89c0 .94-.1 1.56-.67 2a3.28 3.28 0 01-2 .45 9.62 9.62 0 00-.68-2.16v2h-1.74v-4.1h-1v4.1h-1.73v-4.1h-1v4.29h-2v-5.3a14.89 14.89 0 01-2.06 5.18 9.52 9.52 0 00-2.09-1.51 10.17 10.17 0 001.15-2.28l-1.27.41a19.53 19.53 0 00-1.1-4.42l1.87-.55a16.47 16.47 0 011 3 28.48 28.48 0 00.72-7.18v-5h12.1V319h-9.63v1h10.13zm.07-18.65v2.42h-13.54v-2.42zm-10.15 5.74v1.58h6.86v-1.58zm2.23 9v-2h-1v2zm2.76 0v-2h-1v2zm1.75-2v2h1v-2zm0 6.07h.84c.16 0 .17 0 .17-.24v-1.82h-1zM153.3 325a28.36 28.36 0 007.7 3 11.05 11.05 0 00-1.78 2.28 26.48 26.48 0 01-8.23-3.94v4.2h-2.81v-4.1a27.13 27.13 0 01-8.28 4 15.23 15.23 0 00-1.83-2.36A28.89 28.89 0 00146 325h-7.15v-2.28h9.31v-.93h-6.6v-6.49c-.43.41-.89.8-1.37 1.18a9 9 0 00-2-1.92 19.21 19.21 0 005.69-6.53l3 .55c-.39.7-.82 1.37-1.3 2.07h3.41a22.38 22.38 0 001-2.59l3.22.38c-.41.77-.86 1.54-1.3 2.21h7.18v2.21h-7.54v1h6.36v1.87h-6.36v1h6.39v1.87h-6.39v1h8.24v2.16H151v.93h9.43V325zm-4.49-12.14h-4.54v1h4.54zm0 2.85h-4.54v1h4.54zm-4.54 3.92h4.54v-1h-4.54zM174.22 311.82c-.05.26-.12.57-.19.88 1.34-.19 2.71-.45 4-.76v3a45.15 45.15 0 01-4.68.79c-.22 1-.46 2.11-.72 3.09a76.79 76.79 0 01-3.82 11.12l-3.33-1.13a52.52 52.52 0 004.15-10.8c.17-.65.33-1.35.5-2-.55 0-1.08.05-1.58.05-1.18 0-2.07-.05-2.91-.1l-.07-3a22.69 22.69 0 003 .2c.69 0 1.41 0 2.16-.08.09-.52.16-1 .21-1.36a11.64 11.64 0 00.07-2.45l3.68.29c-.14.65-.38 1.73-.47 2.26zm2.9 13c0 1.05.72 1.84 3.29 1.84a27.24 27.24 0 005-.48l-.12 3.05a34.55 34.55 0 01-4.89.36c-4 0-6.22-1.39-6.22-3.81a16.55 16.55 0 01.41-3.22l2.88.26a8.62 8.62 0 00-.35 2.01zm3.65-8.26c1.37 0 2.81.07 4.23.21l-.08 2.89a33.51 33.51 0 00-4.12-.32 36.31 36.31 0 00-4.64.27v-2.81a44.18 44.18 0 014.61-.23zm3.55-3.05l-1.92.84a27.53 27.53 0 00-1.87-3.34l1.9-.79a32.57 32.57 0 011.89 3.3zm2.88-1.1l-1.89.81a25 25 0 00-1.95-3.31l1.9-.77a25.44 25.44 0 011.94 3.28zM196 311.7c-.6 2.66-1.44 7.7-.79 10.68.31-.75.74-1.9 1.15-2.79l1.49 1a58.94 58.94 0 00-1.63 5.86 5.22 5.22 0 00-.15 1.18v1l-2.66.26a26 26 0 01-1.37-7.77 67 67 0 01.77-9.58 17.44 17.44 0 00.17-2.09l3.55.36a18.17 18.17 0 00-.53 1.89zm12.39-.72v3.07a33.34 33.34 0 003.6-.43v3.12c-1 .12-2.21.21-3.55.28v1c0 5.67-.43 9.15-5.23 12.2L200.4 328a9.22 9.22 0 002.78-1.92c1.85-1.92 2.23-4.05 2.23-8.11v-.87c-.91 0-1.8.05-2.68.05-1 0-2.52-.07-3.7-.12V314a25 25 0 003.62.27c.87 0 1.8 0 2.72-.05 0-1.34-.05-2.59-.1-3.24a13 13 0 00-.26-1.66h3.48a15.07 15.07 0 00-.12 1.68zM222.21 312.73c-.12 2.59-.31 7.94-.31 10.94 0 2.43 1.47 3.22 3.34 3.22 4 0 6.45-2.3 8.21-4.92l2.18 2.66a12.49 12.49 0 01-10.44 5.5c-3.94 0-6.46-1.73-6.46-5.81 0-3.22.22-9.53.22-11.59a16.89 16.89 0 00-.29-3.24l3.87.05c-.15 1-.27 2.23-.32 3.19zm8.76 2.59l-2.13.94a24.64 24.64 0 00-2.21-3.92l2.09-.88a37 37 0 012.28 3.86zm3.29-1.42l-2.09 1a24.34 24.34 0 00-2.3-3.81l2.06-1a33.11 33.11 0 012.33 3.81zM245.9 315.85c.26.48.57 1.13.91 1.82 2.52-1 5-2 6.84-2 3.48 0 5.07 2.16 5.07 4.28 0 2.95-1.64 4.8-5.24 4.8a9.78 9.78 0 01-3-.6l.08-2.76a7.38 7.38 0 002.71.65c1.65 0 2.47-.84 2.47-2.09 0-.8-.72-1.61-2.21-1.61a17 17 0 00-5.59 1.68c.22.5.43 1 .6 1.39.91 2.11 2.33 6.27 3 8.4l-3 .72a64.15 64.15 0 00-2.61-7.94c-.19-.43-.39-.89-.6-1.35-1.59.77-3 1.49-3.6 1.78l-1.37-2.9a18 18 0 002.14-.65l1.7-.7c-.31-.6-.6-1.15-.84-1.56a12 12 0 00-1.13-1.66l3-1.15c.19.46.5 1.09.67 1.45zm1.58-1.75l2.12-1.56a18.36 18.36 0 012.64 2.3l-2.14 1.56a21.45 21.45 0 00-2.62-2.3zM273 312.39a27.69 27.69 0 003.24-.77l.1 2.79a41.88 41.88 0 01-4.2.84 44.65 44.65 0 01-5.14 10.27l-2.9-1.52a37.77 37.77 0 004.89-8.47h-1.25c-1 0-2 0-3-.09l-.21-2.79a30.25 30.25 0 003.19.17c.72 0 1.44 0 2.18-.09a20 20 0 00.65-4l3.31.33c-.19.81-.5 2.04-.86 3.33zm6.48 7.25c0 .7.1 1.85.14 3.05a15.7 15.7 0 015 3.07l-1.62 2.57a20.12 20.12 0 00-3.24-2.57v.24c0 2.23-1.22 4-4.63 4-3 0-5.33-1.32-5.33-4 0-2.35 2-4.15 5.31-4.15.57 0 1.1 0 1.65.1-.09-1.78-.21-3.92-.26-5.38h3c-.09 1.01-.04 2.01-.02 3.07zm-4.8 7.56c1.66 0 2.16-.91 2.16-2.23v-.48a8.81 8.81 0 00-1.94-.24c-1.4 0-2.28.62-2.28 1.46s.74 1.49 2.06 1.49zm3.17-12.77l1.53-2.37a40.47 40.47 0 015.93 3.26l-1.7 2.52a35.35 35.35 0 00-5.76-3.41zM301.91 312.78c-1.56 1.24-4.73 3.69-6.33 5.06-1.28 1.1-1.25 1.37 0 2.5 1.8 1.51 6.37 5.11 8.81 7.49l-2.81 2.56c-.67-.74-1.36-1.51-2.08-2.23-1.47-1.51-5-4.51-7.18-6.38-2.4-2-2.21-3.32.19-5.33 1.9-1.54 5.19-4.2 6.79-5.76a16.79 16.79 0 001.85-2l2.81 2.47c-.7.54-1.49 1.16-2.05 1.62zM313.74 324.78l2.5-2.16a43.86 43.86 0 015.23 5.25l-2.57 2.21a46.31 46.31 0 00-5.16-5.3zM350 311.34c-.07.4-.16 1.05-.26 1.84a32.91 32.91 0 004.39-.33l-.09 2.85a42 42 0 01-4.69.24c-.14 1.06-.28 2.19-.4 3.27h.16a42.11 42.11 0 004.83-.29l-.07 2.86c-1.35.12-2.74.21-4.25.21h-1c-.05.72-.1 1.32-.1 1.76 0 2 1.23 3 3.58 3 3.36 0 5.18-1.53 5.18-3.5a6.54 6.54 0 00-2.47-4.66l3.39-.72a9 9 0 012.32 5.76c0 3.63-3.26 6.22-8.52 6.22-3.77 0-6.43-1.63-6.43-5.64 0-.58.07-1.44.17-2.42a27 27 0 01-4.61-.8l.17-2.9a22.07 22.07 0 004.73 1c.14-1.08.28-2.21.4-3.29a29.14 29.14 0 01-4.77-.86l.17-2.76a23.37 23.37 0 004.94.91c.07-.75.14-1.39.19-1.95a14.25 14.25 0 000-2.13l3.38.19a21.08 21.08 0 00-.34 2.14zM369 317.62c1.63-.5 5.71-1.87 8.61-1.87 3.8 0 6.34 2.26 6.34 5.88 0 4.35-3.82 7.3-11.45 7.78l-1.27-3c5.5-.15 9.53-1.61 9.53-4.87 0-1.81-1.35-3-3.43-3-2.79 0-7.59 2-9.63 2.85l-1.25-3.12c.72-.14 1.83-.43 2.55-.65zM397.74 315.94c2-1.15 4.06-2.18 5.18-2.83a15 15 0 002.24-1.46l1.65 2.78c-.72.43-1.49.84-2.37 1.3a68.45 68.45 0 00-6.7 3.55c-2 1.32-3.34 2.69-3.34 4.37s1.66 2.64 5 2.64a36.81 36.81 0 007.84-.89v3.46a44.65 44.65 0 01-7.71.6c-4.77 0-8.4-1.32-8.4-5.45 0-2.64 1.68-4.63 4-6.34-1.11-2-2.26-4.61-3.34-7.15l3-1.22a56.37 56.37 0 002.95 6.64zM417 319.33a17.37 17.37 0 00-4.27-2.33l1.44-2.23a16.75 16.75 0 014.37 2.09zm2.5 3.31c-1.13 2.55-2.43 5.35-3.7 7.68l-2.52-1.68a68.66 68.66 0 004-7.7zm-1.63-9.53a18.46 18.46 0 00-4.16-2.69l1.66-2.08a18.71 18.71 0 014.25 2.47zm12.24 9.77a15.13 15.13 0 005.23 4.47 11.73 11.73 0 00-2 2.32 16.64 16.64 0 01-4.84-5.08v5.83h-2.81v-5.55a15.77 15.77 0 01-5.52 4.9 13.64 13.64 0 00-1.83-2.18 13.73 13.73 0 005.86-4.71h-4.51v-2.54h6v-2.4h2.81v2.4h6.33v2.54zm-7.92-9h-2.49v-4.78h15.09v4.13h-2.54v-1.78h-1.8v3.51c0 .57.07.67.53.67h1.22c.41 0 .5-.24.58-1.83a7 7 0 002.25.94c-.26 2.52-.91 3.17-2.54 3.17h-2c-2.21 0-2.69-.7-2.69-2.91v-3.55h-1.29c-.22 3.91-1.16 6.15-6 7.32a6.33 6.33 0 00-1.35-2.11c4-.82 4.52-2.28 4.69-5.21h-1.73zM452.2 312.78c-1.56 1.24-4.73 3.69-6.34 5.06-1.27 1.1-1.24 1.37.05 2.5 1.8 1.51 6.36 5.11 8.81 7.49l-2.81 2.56c-.67-.74-1.37-1.51-2.08-2.23-1.47-1.51-5-4.51-7.18-6.38-2.4-2-2.21-3.32.19-5.33 1.9-1.54 5.18-4.2 6.79-5.76a16.79 16.79 0 001.85-2l2.81 2.47c-.74.54-1.54 1.16-2.09 1.62zM469 320.26c-.05.34-.1.68-.17 1 1.25 1.22 3.84 4.22 4.51 5l-1.92 2.4c-.79-1.25-2.16-3.05-3.34-4.52a12.76 12.76 0 01-4.53 6.29 11 11 0 00-2-2.16 11.23 11.23 0 004.61-8h-4.25v-2.68h4.44v-3.82h-1a17 17 0 01-1.65 3.23 16.14 16.14 0 00-2.31-1.66 17.85 17.85 0 002.69-7.22l2.74.55c-.17.84-.36 1.65-.6 2.47h6.33v2.64h-3.38v3.82h3.94v2.68zm13.92-10.1v19.3H480v-1.37h-3.48v1.73h-2.76v-19.66zM480 325.4v-12.55h-3.48v12.55zM493.31 314.14c1.15-1.87 3.24-3.88 5.95-3.88 3.33 0 5.93 3.26 5.93 8.54 0 6.79-4.16 10-10.52 11.19l-1.82-2.79c5.33-.81 9.1-2.57 9.1-8.38 0-3.69-1.25-5.76-3.27-5.76-2.83 0-5.3 4.25-5.42 7.42a12 12 0 00.12 2.55l-3 .19a27.81 27.81 0 01-.31-4 64.36 64.36 0 01.67-7.68A19.43 19.43 0 00491 309l3.28.14a39.74 39.74 0 00-.97 5zM520.53 311.53c0 .26-.12.57-.19.91 1.34-.19 2.69-.46 4-.77v3a42.82 42.82 0 01-4.69.79c-.21 1-.45 2.09-.72 3.08a74.7 74.7 0 01-3.81 11.11l-3.34-1.13a51.52 51.52 0 004.15-10.8c.17-.65.36-1.32.51-2-.55 0-1.08.05-1.59.05-1.15 0-2.06-.05-2.9-.09l-.07-3a24.42 24.42 0 003 .19c.7 0 1.42 0 2.16-.07.1-.53.17-1 .22-1.37a13 13 0 00.07-2.43l3.67.29c-.16.63-.38 1.71-.47 2.24zm2.88 13c0 1.06.72 1.85 3.29 1.85a28.32 28.32 0 005-.5l-.12 3.07a38.29 38.29 0 01-4.9.33c-4 0-6.21-1.39-6.21-3.81a16.92 16.92 0 01.43-3.22l2.86.29a7.83 7.83 0 00-.35 2.02zm3.65-8.28a40.32 40.32 0 014.22.22l-.07 2.88a33.86 33.86 0 00-4.13-.29 40.73 40.73 0 00-4.63.24v-2.81c1.34-.09 3.07-.21 4.61-.21zM540.62 314.19c0 1.56 0 3.36.14 5.09.34 3.46 1.06 5.83 2.57 5.83 1.13 0 2.09-2.8 2.55-4.72l2.4 2.92c-1.59 4.18-3.1 5.64-5 5.64-2.64 0-4.92-2.37-5.59-8.8-.24-2.21-.27-5-.27-6.49a14.9 14.9 0 00-.19-2.44h3.7a19.3 19.3 0 00-.31 2.97zm16.66 10.06l-3.15 1.22c-.38-3.86-1.65-9.69-4.27-12.67l3-1c2.33 2.78 4.14 8.78 4.42 12.45zM566.07 326.53a2.12 2.12 0 112.11 2.11 2 2 0 01-2.11-2.11zm.24-12.48l-.12-3.58h4l-.12 3.58-.65 8.21H567z"/><path class="cls-5" d="M18.63 305.33h28v28h-28z"/><path class="cls-4" d="M45.63 306.33v26h-26v-26h26m2-2h-30v30h30v-30z"/><path class="cls-6" d="M40.63 309.33l-12.4 13.64-3.6-2.73h-2l5.6 9.09 14.4-20h-2z"/><path class="cls-4" d="M70.83 404a27.85 27.85 0 0010.25 8.81 13.47 13.47 0 00-1.87 2.5 35.37 35.37 0 01-4.54-3.31v2H64.5v-1.92a32.71 32.71 0 01-4.44 3.2 11.18 11.18 0 00-1.8-2.29A28.56 28.56 0 0068 404zm4.66 12.24l2.28.68c-1.18 2.95-2.9 6.67-4.39 9.72l-3-.84c1.06-2.07 2.28-4.64 3.22-6.72H61.23v-2.69H75zm-1.58-4.8a28.08 28.08 0 01-4.37-4.65 27.2 27.2 0 01-4.23 4.65zM96.94 425.55l-1.8-2.85a18.06 18.06 0 002.23-.39c3.07-.72 5.47-2.92 5.47-6.43 0-3.31-1.8-5.78-5-6.34a48.75 48.75 0 01-1.44 6.51c-1.44 4.85-3.5 7.82-6.12 7.82s-4.87-2.92-4.87-7c0-5.55 4.8-10.27 11-10.27 6 0 9.7 4.12 9.7 9.36-.03 5.04-3.11 8.66-9.17 9.59zm-6.6-5.37c1 0 1.94-1.51 2.92-4.75a36 36 0 001.28-5.81 7.55 7.55 0 00-6.1 7c0 2.38.96 3.56 1.9 3.56zM119.55 405a38.82 38.82 0 01-2.47 5v16.44h-2.83v-12.26a25.41 25.41 0 01-1.92 2.13 18.56 18.56 0 00-1.66-2.93 25.16 25.16 0 006.1-9.24zm7.83 9.1v8.74H133v2.73h-14.31v-2.73h5.76v-8.74h-6.36v-2.79h6.36v-6.76h2.93v6.76h6.07v2.79zM158.76 419.84h-2.5V424h-2.9v-1H149v.75c0 1.41-.34 2-1.27 2.4a12.63 12.63 0 01-4.25.41 8.58 8.58 0 00-.94-2.26c1.16.05 2.57.05 3 .05s.6-.17.6-.6V423h-7.3v-2h7.3v-1.13h-9.51v-2.18h9.51v-1H139v-1.99h7.11v-1.05h-6.51v-4.75h6.51v-1h-9v-2.25h9v-1.55H149v1.56h9.17v2.25H149v1h6.82v4.75H149v1.05h7.22v3h2.5zm-12.62-8v-1.14h-3.77v1.15zm2.9-1.15v1.15h3.89v-1.14zm0 7h4.32v-1H149zm4.32 2.18H149V421h4.32zM168.05 408.18a62 62 0 00-1.16 8.81 12 12 0 00.1 1.56c.36-.82.74-1.66 1.08-2.45l1.49 1.17c-.67 2-1.47 4.61-1.73 5.88a7.52 7.52 0 00-.12 1.13v1l-2.79.19a30.79 30.79 0 01-.93-7.85 67.86 67.86 0 011-9.51c.08-.67.22-1.58.24-2.35l3.37.29a18.35 18.35 0 00-.55 2.13zm5.95 11.73c0 1.06.92 1.71 3.36 1.71a27.88 27.88 0 006-.63v3.24a33.78 33.78 0 01-6.2.46c-4.12 0-6.12-1.46-6.12-3.94a15 15 0 01.41-3.12l2.76.27a8.25 8.25 0 00-.21 2.01zm8.69-12.29v3.1a64.65 64.65 0 01-10.32 0v-3.07a48.67 48.67 0 0010.29-.03zM206.34 409.64a35.48 35.48 0 01-3.77 6.6 68 68 0 016.7 6.87l-2.74 2.37a54.14 54.14 0 00-6.05-6.79 31.46 31.46 0 01-9 6.74l-2.48-2.59a27 27 0 009.84-6.89 18.43 18.43 0 003.57-5.88h-8.13c-1 0-2.33.15-2.83.17v-3.41a25.62 25.62 0 002.83.17h8.47a8.54 8.54 0 002.47-.31l2 1.46a12.59 12.59 0 00-.88 1.49zM217.52 408.32a16.46 16.46 0 00-.24-2.88H221a27.8 27.8 0 00-.21 2.88v3.55a79.42 79.42 0 0110 3.72l-1.37 3.32a69 69 0 00-8.66-3.58v6.79c0 .7.12 2.38.21 3.36h-3.74a27.11 27.11 0 00.24-3.36zM238.44 421.91v-13a15.75 15.75 0 00-.26-2.74H242a16.9 16.9 0 00-.24 2.74v12.48a27.55 27.55 0 0012.34-7.95l1.7 2.72c-3.29 3.93-8.26 6.79-13.92 8.64a6 6 0 00-1.42.64l-2.28-2a3.11 3.11 0 00.26-1.53zM275.52 409.64a34.92 34.92 0 01-3.77 6.6 66.9 66.9 0 016.7 6.87l-2.73 2.37a54.94 54.94 0 00-6.05-6.79 31.64 31.64 0 01-9 6.74l-2.47-2.59A27 27 0 00268 416a18.66 18.66 0 003.58-5.88h-8.14c-1 0-2.33.15-2.83.17v-3.41a25.77 25.77 0 002.83.17h8.47a8.67 8.67 0 002.48-.31l2 1.46a12.59 12.59 0 00-.87 1.44zM291.65 407.58a60.66 60.66 0 006.79-.7v2.78a70 70 0 01-7.83.6 15.68 15.68 0 01-1.36 2.45 8.06 8.06 0 012.71-.48 3.26 3.26 0 013.19 1.85c1.25-.58 2.26-1 3.24-1.42s1.78-.79 2.66-1.24l1.21 2.78c-.77.22-2 .7-2.86 1-1.08.43-2.45 1-3.91 1.63 0 1.35.07 3.12.09 4.23h-2.88c.07-.72.1-1.88.12-2.93-1.8 1-2.76 2-2.76 3.17s1.13 1.68 3.48 1.68a39.11 39.11 0 006.82-.68l-.1 3.1a58.92 58.92 0 01-6.79.41c-3.77 0-6.55-.91-6.55-4s2.88-5 5.61-6.41a1.84 1.84 0 00-1.68-.82 5.83 5.83 0 00-3.74 1.66 27.51 27.51 0 00-2.23 2.64l-2.59-1.88a23.55 23.55 0 005.3-6.62h-.31c-1 0-2.73 0-4-.15v-2.81a29.93 29.93 0 004.22.29h1.15a13 13 0 00.48-2.76l3.17.27a23.61 23.61 0 01-.65 2.36zM311.24 410c0 2.95-.45 7.13-2.73 9.84a9.43 9.43 0 00-2.07-1.73c2-2.38 2.19-5.74 2.19-8.16v-3.6h10.2c-.07-.75-.12-1.49-.15-2.23h2.67c0 .74.07 1.51.14 2.23h2.57a16.72 16.72 0 00-1.94-.89l1.41-1.56a11.5 11.5 0 013.34 1.58l-.72.87h2.21v2.25h-6.53a25.82 25.82 0 001 3.77 14.54 14.54 0 001.47-3.17l2.64.63a20 20 0 01-2.79 5.25c.65 1 1.32 1.52 2 1.52s.73-.82.84-2.88a6.86 6.86 0 002.16 1.24c-.4 3.41-1.24 4.21-3.14 4.21a4.7 4.7 0 01-3.62-2.07 16.2 16.2 0 01-2.26 1.85 11.24 11.24 0 00-1.42-1.51v.43h-1.53a13.85 13.85 0 013.41 2.62l-2 1.68a14.5 14.5 0 00-3.58-2.93l1.63-1.37h-4.75v-5.19h6.79v3.94a13.74 13.74 0 002.26-1.85 24.55 24.55 0 01-1.8-6.17h-7.9zm-4.58 14.45a8.79 8.79 0 002.93-4.59l2.54.91A9.82 9.82 0 01309 426zm12.19-12.92h-7.05v-1.82h7.05zm1.35 12.15c.91 0 1.08-.24 1.2-2.14a7.49 7.49 0 002.49 1c-.31 3-1.1 3.67-3.43 3.67h-3.84c-3.1 0-3.82-.77-3.82-3.24v-3.09h2.84v3.07c0 .65.19.72 1.29.72zm-3.84-9.17h-2.19V416h2.19zm8.9 5a16 16 0 013.84 5l-2.59 1.3a16.24 16.24 0 00-3.65-5.09zM339 408.73c-.12 2.59-.31 7.94-.31 10.94 0 2.43 1.46 3.22 3.34 3.22 4 0 6.45-2.3 8.2-4.92l2.19 2.66a12.49 12.49 0 01-10.44 5.5c-3.94 0-6.46-1.73-6.46-5.81 0-3.21.22-9.53.22-11.59a16.89 16.89 0 00-.29-3.24l3.86.05c-.19 1-.31 2.23-.31 3.19zm8.76 2.59l-2.13.94a24.64 24.64 0 00-2.21-3.92l2.09-.88a38.87 38.87 0 012.2 3.86zm3.24-1.42l-2.09 1a25.13 25.13 0 00-2.3-3.81l2.06-1a33.11 33.11 0 012.33 3.81zM362.61 406.26c1.27 0 6.4-.1 7.77-.22a11.86 11.86 0 001.83-.26l1.56 2.13c-.55.36-1.13.7-1.68 1.11-1.3.91-3.82 3-5.33 4.22A9.44 9.44 0 01369 413c4.08 0 7.18 2.54 7.18 6 0 3.79-2.89 6.79-8.69 6.79-3.34 0-5.86-1.54-5.86-3.94a4 4 0 014.3-3.74 4.8 4.8 0 015.11 4.1 3.47 3.47 0 002-3.26c0-2.16-2.16-3.63-5-3.63-3.67 0-6.07 1.95-8.64 4.88l-2.15-2.2c1.71-1.37 4.61-3.82 6-5s3.84-3.12 5-4.16c-1.22 0-4.53.17-5.8.24-.65.05-1.42.12-2 .2l-.1-3.12a17.75 17.75 0 002.26.1zm4.32 16.82a12.07 12.07 0 001.39-.07c-.15-1.56-1-2.57-2.33-2.57-.91 0-1.49.55-1.49 1.15 0 .89.99 1.49 2.43 1.49zM382.42 422.46a2.2 2.2 0 112.21 2.3 2.22 2.22 0 01-2.21-2.3zm9.1 0a2.2 2.2 0 112.18 2.3 2.2 2.2 0 01-2.18-2.3zm9.09 0a2.2 2.2 0 112.19 2.3 2.21 2.21 0 01-2.19-2.3z"/><path class="cls-5" d="M18.63 401.33h28v28h-28z"/><path class="cls-4" d="M45.63 402.33v26h-26v-26h26m2-2h-30v30h30v-30z"/><path class="cls-6" d="M40.63 405.33l-12.4 13.64-3.6-2.73h-2l5.6 9.09 14.4-20h-2z"/><path class="cls-4" d="M80.34 361.5v1.27c-.21 9.82-.4 13.3-1.17 14.4a2.7 2.7 0 01-1.9 1.2 16.72 16.72 0 01-3 .1 6.68 6.68 0 00-.84-2.74c1 .1 2 .12 2.42.12a.89.89 0 00.82-.41c.5-.65.74-3.57.88-11.33h-2.16c-.31 6.44-1.41 11.38-5.44 14.57a9.4 9.4 0 00-1.68-1.89c-3.46.36-6.92.72-9.51.93l-.34-2.4 4.88-.32v-1.44h-4.23v-2h4.23v-.94h-4.13v-7.41h4.13v-.94h-4.73v-2.06h4.73v-1c-1.39.09-2.76.16-4.06.19a9.23 9.23 0 00-.62-2A75 75 0 0069 356.22l1.25 2.13c-1.27.27-2.76.48-4.32.65v1.18h4.57v1.32h2.25v-5h2.73v5zM61.43 366h1.87v-1h-1.87zm1.87 2.79v-1.08h-1.87v1.08zm2.59 5.95c1.37-.1 2.78-.22 4.18-.34 1.87-2.59 2.44-6 2.61-10.32H70.5v-1.87h-4.61v.94h4.25v7.41h-4.25v.94h4.34v2h-4.34zm1.87-8.74v-1h-1.87v1zm-1.87 1.71v1.08h1.87v-1.08zM106.88 357.54v2.66h-9.41v1.92h4.37V373H90.41v-10.88h4.21v-1.92H85.4v-2.66zm-3.48 4.24h2.76v16.71h-2.76v-1.39H88.9v1.41h-2.78v-16.73h2.78v12.63h14.5zm-10.66 4.68h2.09v-2h-2.09zm0 4.21h2.09v-2h-2.09zm6.63-6.22h-2.09v2h2.09zm0 4.18h-2.09v2h2.09zM114.65 370.5a20.49 20.49 0 01-1.41 6.17 12.32 12.32 0 00-2-1 17.4 17.4 0 001.23-5.57zm2.67-1.9v9.91h-2.4v-9.72l-3.17.24-.29-2.47c.58 0 1.2-.07 1.9-.1.31-.43.64-.91 1-1.39a20.47 20.47 0 00-2.79-3.48l1.37-1.85c.19.17.38.36.58.56a29.6 29.6 0 001.72-4.18l2.43.84c-.87 1.66-1.85 3.55-2.69 4.9a12.12 12.12 0 01.77 1c.79-1.34 1.51-2.74 2.06-3.91l2.26 1c-.89 1.46-1.92 3.07-3 4.58l1.87-.76a21.05 21.05 0 011.92 5.23l-2 .86c-.07-.4-.17-.86-.31-1.36zm.45-2.4a13.18 13.18 0 00-.72-1.66c-.43.63-.84 1.23-1.27 1.78zm15.82 9.89c0 .94-.1 1.56-.67 2a3.28 3.28 0 01-2 .45 9.62 9.62 0 00-.68-2.16v2h-1.74v-4.1h-1v4.1h-1.73v-4.1h-1v4.29h-2v-5.3a14.89 14.89 0 01-2.06 5.18 9.52 9.52 0 00-2.09-1.51 10.17 10.17 0 001.15-2.28l-1.27.41a19.53 19.53 0 00-1.1-4.42l1.87-.55a16.47 16.47 0 011 3 28.48 28.48 0 00.72-7.18v-5h12.1V367h-9.63v1h10.13zm.07-18.65v2.42h-13.54v-2.42zm-10.15 5.74v1.58h6.86v-1.58zm2.23 9v-2h-1v2zm2.76 0v-2h-1v2zm1.75-2v2h1v-2zm0 6.07h.84c.16 0 .17 0 .17-.24v-1.82h-1zM153.3 373a28.36 28.36 0 007.7 3 11.05 11.05 0 00-1.78 2.28 26.48 26.48 0 01-8.23-3.94v4.2h-2.81v-4.1a27.13 27.13 0 01-8.28 4 15.23 15.23 0 00-1.83-2.36A28.89 28.89 0 00146 373h-7.15v-2.28h9.31v-.93h-6.6v-6.49c-.43.41-.89.8-1.37 1.18a9 9 0 00-2-1.92 19.21 19.21 0 005.69-6.53l3 .55c-.39.7-.82 1.37-1.3 2.07h3.41a22.38 22.38 0 001-2.59l3.22.38c-.41.77-.86 1.54-1.3 2.21h7.18v2.21h-7.54v1h6.36v1.87h-6.36v1h6.39v1.87h-6.39v1h8.24v2.16H151v.93h9.43V373zm-4.49-12.14h-4.54v1h4.54zm0 2.85h-4.54v1h4.54zm-4.54 3.92h4.54v-1h-4.54zM174.51 359.58a60.66 60.66 0 006.79-.7v2.78a70 70 0 01-7.82.6 16.56 16.56 0 01-1.37 2.45 8.11 8.11 0 012.71-.48 3.27 3.27 0 013.2 1.85c1.24-.58 2.25-1 3.24-1.42s1.77-.79 2.66-1.24l1.2 2.78c-.77.22-2 .7-2.86 1-1.08.43-2.44 1-3.91 1.63 0 1.35.07 3.12.1 4.23h-2.88c.07-.72.09-1.88.12-2.93-1.8 1-2.76 2-2.76 3.17s1.07 1.7 3.45 1.7a39.21 39.21 0 006.82-.68l-.1 3.1a59.21 59.21 0 01-6.79.41c-3.77 0-6.56-.91-6.56-4s2.88-5 5.62-6.41a1.85 1.85 0 00-1.68-.82 5.83 5.83 0 00-3.74 1.66 29 29 0 00-2.24 2.64l-2.56-1.9a23.55 23.55 0 005.3-6.62h-.31c-1 0-2.74 0-4.06-.15v-2.81a30.07 30.07 0 004.23.29h1.15a13.68 13.68 0 00.48-2.76l3.17.27a23.61 23.61 0 01-.6 2.36zM192.67 364.86c.7-.29 1.44-.6 2.16-.92-.33-.72-.69-1.41-1.05-2a21.69 21.69 0 00-1.42-2.11l3.12-1.2c.22.43.7 1.42 1 1.87.36.7.74 1.47 1.13 2.28 1.46-.64 2.93-1.24 4.32-1.7a39.1 39.1 0 00-3.31-3.07l2.2-1.54a36.44 36.44 0 013.48 3.07l-1.89 1.4a12.22 12.22 0 013.45-.58c3.72 0 6 2.26 6 5 0 3.36-2.31 5.5-6 5.5a12 12 0 01-3.7-.67l.08-3a9 9 0 003.33.82c1.8 0 3.12-1 3.12-2.72 0-1.22-1.08-2.2-2.88-2.2s-4.49 1-7.05 2.16c.24.5.45 1 .67 1.48 1.13 2.62 3 7.76 3.77 10.45l-3.29.86a74.35 74.35 0 00-3.22-10c-.21-.51-.43-1-.65-1.49-1.72.86-3.24 1.68-4.27 2.13l-1.41-3.05a21.9 21.9 0 002.31-.77zM220.4 365.62c1.63-.5 5.71-1.87 8.61-1.87 3.8 0 6.34 2.26 6.34 5.88 0 4.35-3.82 7.3-11.45 7.78l-1.27-3c5.49-.15 9.53-1.61 9.53-4.87 0-1.8-1.35-3-3.44-3-2.78 0-7.58 2-9.62 2.85l-1.25-3.12c.72-.14 1.83-.43 2.55-.65zM241.84 359.79l10.34-.91c2.47-.19 5.11-.36 6.79-.41v3.07a27.7 27.7 0 00-4.64.32 7.28 7.28 0 00-5.06 6.74c0 3.94 3.7 5.38 7.75 5.59l-1.13 3.29c-5-.33-9.76-3.05-9.76-8.23a9.67 9.67 0 013.55-7.42c-2.26.24-7.15.77-9.94 1.37l-.31-3.29c.99-.02 1.93-.07 2.41-.12zM268.73 358.26c1.27 0 6.41-.1 7.77-.22a11.86 11.86 0 001.83-.26l1.56 2.13c-.55.36-1.13.7-1.68 1.11-1.3.91-3.82 3-5.33 4.22a9.44 9.44 0 012.28-.26c4.08 0 7.18 2.54 7.18 6 0 3.79-2.88 6.79-8.69 6.79-3.34 0-5.86-1.54-5.86-3.94a4 4 0 014.3-3.74 4.8 4.8 0 015.11 4.1 3.47 3.47 0 002-3.26c0-2.16-2.16-3.63-5-3.63-3.67 0-6.07 1.95-8.64 4.88l-2.18-2.18c1.7-1.37 4.6-3.82 6-5s3.84-3.12 5-4.16c-1.23 0-4.54.17-5.81.24-.65.05-1.42.12-2 .2l-.1-3.12a18 18 0 002.26.1zm4.32 16.82a12.07 12.07 0 001.39-.07c-.14-1.56-1-2.57-2.33-2.57-.91 0-1.49.55-1.49 1.15 0 .89.99 1.49 2.43 1.49zM292.39 359.7c-.6 2.66-1.44 7.7-.79 10.68.31-.75.75-1.9 1.15-2.79l1.49 1c-.69 2.07-1.34 4.49-1.63 5.86a5.17 5.17 0 00-.14 1.18v1l-2.66.26a26 26 0 01-1.37-7.77 67 67 0 01.77-9.58 17.44 17.44 0 00.17-2.09l3.55.36a18.17 18.17 0 00-.54 1.89zm12.39-.72v3.07a33 33 0 003.6-.43v3.12c-1 .12-2.21.21-3.56.28v1c0 5.67-.43 9.15-5.23 12.2l-2.78-2.22a9.22 9.22 0 002.78-1.92c1.85-1.92 2.24-4.05 2.24-8.11v-.87c-.92 0-1.8.05-2.69.05s-2.52-.07-3.7-.12V362a25 25 0 003.63.27c.86 0 1.8 0 2.71-.05 0-1.34 0-2.59-.1-3.24a13 13 0 00-.26-1.66h3.48c-.07.55-.1 1.13-.12 1.68zM320.48 364.3c1.75-1 3.46-1.89 4.59-2.54a18.79 18.79 0 002.23-1.44l1.51 2.83c-.77.43-1.54.84-2.4 1.27a59 59 0 00-6 3.22c-2 1.32-3.34 2.69-3.34 4.37s1.68 2.64 5 2.64a40.36 40.36 0 007.82-.86v3.43a44.27 44.27 0 01-7.7.62c-4.78 0-8.4-1.34-8.4-5.49 0-2.64 1.68-4.61 4-6.32-1.1-2-2.25-4.63-3.33-7.15l3-1.22a53.28 53.28 0 003.02 6.64zm10.52-3.72l-1.94.82a29.12 29.12 0 00-1.87-3.34l1.89-.76a34.52 34.52 0 011.92 3.28zm2.88-1.1l-1.92.82A28.06 28.06 0 00330 357l1.9-.79a37.94 37.94 0 011.97 3.27zM346 373.88h-4.88V376h-2.64v-18.44H346zm-4.88-13.78v4.23h2.21v-4.23zm2.21 11.24v-4.52h-2.21v4.52zm14.31-5.62v2.07h2.3v2.47h-2.3v5.23c0 1.37-.27 2.09-1.2 2.52a10.6 10.6 0 01-4 .48 9.94 9.94 0 00-.91-2.69c1.15.05 2.49.05 2.85.05s.51-.1.51-.43v-5.16h-8.43v-2.47h8.43v-2.07h-8.47v-2.5h5.42v-2.11h-4.61v-2.49h4.61v-2.52h2.81v2.52h4.8v2.49h-4.8v2.11h5.47v2.5zm-8 4.83a16.57 16.57 0 012.91 3.93l-2.45 1.42a16.65 16.65 0 00-2.74-4zM367.69 370.55a22.12 22.12 0 01-1.44 6.19 13.7 13.7 0 00-2.18-1 17.64 17.64 0 001.27-5.57zm4.25-6.7a20.21 20.21 0 012.11 5.09l-2 .91a11.78 11.78 0 00-.32-1.22l-1.22.09v9.82H368v-9.65l-3.48.22-.24-2.48 1.73-.07c.36-.46.74-1 1.12-1.54a22.84 22.84 0 00-2.83-3.26l1.37-1.94.55.48a29.82 29.82 0 001.75-4.18l2.48.91c-.87 1.63-1.83 3.48-2.69 4.83.31.33.57.67.81 1a43.79 43.79 0 002.14-3.89l2.33 1.08c-1.32 2.09-3 4.51-4.49 6.45l2.3-.09c-.26-.6-.55-1.2-.84-1.73zm.62 6.1a25.86 25.86 0 011.49 4.32l-2.11.76a29.12 29.12 0 00-1.39-4.46zm8.38-13.52a23.5 23.5 0 006.36 6.84 17.58 17.58 0 00-1.75 2.67 20.65 20.65 0 01-1.75-1.56v2h-7.9v-2.13a19.06 19.06 0 01-2.09 1.87 13.58 13.58 0 00-1.63-2.5 23.13 23.13 0 006.05-7.15zm-6.31 12h10.65v9.93h-2.73v-1.17h-5.28v1.27h-2.64zm8.57-4.71a32.4 32.4 0 01-3.53-4.44 27.54 27.54 0 01-3.34 4.44zm-5.93 7.28v3.74h5.28V371zM399 368.72c-.77.24-1.54.48-2.3.7v6.07c0 1.32-.22 2-.94 2.5a6.23 6.23 0 01-3.34.52 10.45 10.45 0 00-.72-2.64c.87.05 1.71.05 2 0s.4-.1.4-.41v-5.3c-.79.24-1.58.45-2.28.64l-.62-2.73c.82-.17 1.82-.43 2.9-.7v-4.15h-2.52v-2.62h2.52v-4.51h2.6v4.51h2.18v.53a11.11 11.11 0 003.7-5.11l2.64.41c-.19.45-.39.91-.6 1.34h2.95l.41-.1 1.8 1.13a28.47 28.47 0 01-1.63 2.88h4.6v7.9h-2.42v-2h-1.66c-1.75 0-2.13-.53-2.13-2.26v-1.44h-.94c-.21 2-.82 3.41-2.73 4.3a6.89 6.89 0 00-.77-1.08v2.5h-2.4V363a8.33 8.33 0 00-.84-.84v1.08h-2.18v3.45l1.94-.55zm9.22 4c1.05 1.8 2.83 2.91 5.69 3.32a8.29 8.29 0 00-1.59 2.37c-3.12-.67-5-2.06-6.19-4.29-1.08 2.08-3.15 3.52-7.13 4.41a8.2 8.2 0 00-1.39-2.21c3.72-.72 5.45-1.84 6.29-3.6h-5.21v-2.37h5.88c.09-.6.14-1.25.19-1.95h2.59c0 .68-.09 1.32-.19 1.95h6.36v2.37zM403.35 360a16.2 16.2 0 01-1.39 1.73h3.38a16.59 16.59 0 00.91-1.73zm-1.27 6.53a3.05 3.05 0 001.48-2.57h-1.48zm8.23-2.57h-1.73v1.44c0 .41.05.46.39.46h.93c.27 0 .36 0 .41-.17zM440 374.63h-5.07v3.84h-2.95v-3.84h-5.4c-.67 1.53-2.35 2.92-6.1 3.88a10 10 0 00-1.82-2.08 9.42 9.42 0 004.49-1.8h-4.8v-2.26H424v-1.46h-2.93v-9.22h2.4a10.12 10.12 0 00-1-1.78H422a15.33 15.33 0 01-2.09 2.35 15.25 15.25 0 00-2.3-1.58 12.55 12.55 0 003.69-4.78l2.67.72c-.17.34-.34.7-.53 1h5.3v1.89a10.46 10.46 0 002.26-3.61l2.71.65c-.14.36-.31.75-.48 1.11h6.61v2.25h-3.53a8.59 8.59 0 01.77 1.06l-1.61.72h2.13v9.22h-2.76v1.46H440zm-16-11.24v.84h10.66v-.84zm0 3.31h10.66v-.88H424zm0 2.5h10.66v-.89H424zm1.49-9.29a7.71 7.71 0 01.62 1.2l-1.58.58h5.21a21.08 21.08 0 00-2.09-1.08 7.6 7.6 0 00.82-.7zm6.48 12.46v-1.46h-5v1.46zm0-12.46a14.42 14.42 0 01-1.52 1.78h4.11a16.56 16.56 0 00-1.32-1.78zM458.53 359.14v.75c2.42 0 5.71-.05 7 0v2.84c-1.44-.08-3.68-.12-6.94-.12v3.6a6.07 6.07 0 01.87 3.29c0 3.12-1.83 7.1-7.68 8.73l-2.57-2.54c2.42-.51 4.53-1.3 5.85-2.74a5.17 5.17 0 01-1.08.12 4.23 4.23 0 01-4.12-4.41 4.52 4.52 0 014.8-4.49 6.11 6.11 0 011 .07v-1.61c-3.62 0-7.37.19-10.32.36l-.07-2.9c2.74 0 7.1-.1 10.37-.15 0-.31 0-.55-.05-.74a17.35 17.35 0 00-.24-2.09h3.48c-.18.35-.27 1.65-.3 2.03zm-4 11.24c1 0 1.9-.77 1.56-2.88a1.74 1.74 0 00-1.56-.84 1.86 1.86 0 000 3.72zM474.6 358.26c1.27 0 6.41-.1 7.78-.22a11.87 11.87 0 001.82-.26l1.56 2.13c-.55.36-1.13.7-1.68 1.11-1.3.91-3.82 3-5.33 4.22A9.44 9.44 0 01481 365c4.08 0 7.18 2.54 7.18 6 0 3.79-2.88 6.79-8.69 6.79-3.34 0-5.86-1.54-5.86-3.94a4 4 0 014.3-3.74 4.79 4.79 0 015.11 4.1 3.47 3.47 0 002-3.26c0-2.16-2.16-3.63-5-3.63-3.67 0-6.07 1.95-8.64 4.88l-2.15-2.2c1.7-1.37 4.61-3.82 6-5s3.84-3.12 5-4.16c-1.23 0-4.54.17-5.81.24-.65.05-1.42.12-2 .2l-.09-3.12a17.7 17.7 0 002.25.1zm4.32 16.82a12.07 12.07 0 001.39-.07c-.14-1.56-1-2.57-2.33-2.57-.91 0-1.48.55-1.48 1.15 0 .89.98 1.49 2.42 1.49zM502 363.94c2-1.15 4.06-2.18 5.19-2.83a14.87 14.87 0 002.23-1.46l1.66 2.78c-.72.43-1.49.84-2.38 1.3a69.61 69.61 0 00-6.7 3.55c-2 1.32-3.33 2.69-3.33 4.37s1.65 2.64 5 2.64a37 37 0 007.85-.89l-.05 3.46a44.52 44.52 0 01-7.7.6c-4.78 0-8.41-1.32-8.41-5.45 0-2.64 1.68-4.63 4-6.34-1.1-2-2.26-4.61-3.34-7.15l3-1.22a56.37 56.37 0 002.98 6.64zM524 357a38.78 38.78 0 01-2.31 5v16.49h-2.71V366.2a21.28 21.28 0 01-1.63 1.92 18.7 18.7 0 00-1.51-2.95 25.45 25.45 0 005.44-9zm10 9.7c.52 4.66 1.51 8.21 2.42 8.21.38 0 .58-1 .63-3.24a7.45 7.45 0 002.23 1.49c-.39 3.69-1.25 4.51-3.12 4.51-2.76 0-4.3-4.87-5-11H527v4.68c1.39-.19 2.88-.43 4.32-.65l.14 2.55c-2.83.48-5.88 1-8.23 1.32l-.55-2.64c.48-.05 1-.12 1.54-.2v-13.52l1.84.6a52.06 52.06 0 009.58-2l2.11 2.19a37.86 37.86 0 01-4.2 1c0 1.39.05 2.79.15 4.13h5v2.57zm-10.4 8.78h9.6V378h-9.6zm7.35-11.35c-.1-1.18-.15-2.4-.19-3.6-1.25.19-2.5.36-3.7.5v3.1zM556.67 359.14v.75c2.42 0 5.71-.05 7 0v2.84c-1.44-.08-3.68-.12-6.94-.12v3.6a6.07 6.07 0 01.87 3.29c0 3.12-1.83 7.1-7.68 8.73l-2.57-2.54c2.42-.51 4.53-1.3 5.85-2.74a5.17 5.17 0 01-1.08.12 4.23 4.23 0 01-4.12-4.41 4.52 4.52 0 014.8-4.49 6 6 0 011 .07v-1.61c-3.62 0-7.37.19-10.32.36l-.07-2.9c2.74 0 7.1-.1 10.37-.15v-.74a17.35 17.35 0 00-.24-2.09h3.48c-.23.35-.32 1.65-.35 2.03zm-4 11.24c1 0 1.9-.77 1.56-2.88a1.74 1.74 0 00-1.56-.84 1.86 1.86 0 000 3.72zM578.51 364.52c-.1-.26-.19-.55-.29-.82-.19-.55-.34-1-.48-1.44a55.72 55.72 0 01-8.09-.21l-.17-2.74a53.53 53.53 0 007.49.34c-.21-.77-.48-1.56-.77-2.38l3.22-.36a25.56 25.56 0 00.46 2.55 22.31 22.31 0 003.69-.8l.39 2.76a29.92 29.92 0 01-3.39.63c.12.38.24.77.36 1.13l.41 1.1a28.25 28.25 0 004.58-1l.48 2.83a31.28 31.28 0 01-3.84.74 22 22 0 001.23 2.14 7.51 7.51 0 001.08 1.25l-1.44 2.18c-1.35-.26-4-.57-5.69-.74l.24-2.31 3 .29c-.5-.84-.94-1.68-1.34-2.5a86.31 86.31 0 01-10.42 0l-.17-2.83a61.78 61.78 0 009.46.19zm-5.91 8c0 1.78 1.68 2.5 4.85 2.5a30 30 0 006-.53l-.17 3.07a39.31 39.31 0 01-5.83.43c-4.8 0-7.78-1.41-7.85-4.82a8 8 0 011-3.86l3 .55a4.47 4.47 0 00-1 2.7zm14.28-12.48l-1.8.79a21.31 21.31 0 00-1.87-3.31l1.78-.74a30.77 30.77 0 011.89 3.3zm2.76-1.18l-1.8.87a18.58 18.58 0 00-2-3.24l1.75-.79a33.7 33.7 0 012.05 3.2zM598.41 358.26c1.27 0 6.41-.1 7.78-.22a11.87 11.87 0 001.82-.26l1.56 2.13c-.55.36-1.13.7-1.68 1.11-1.29.91-3.81 3-5.33 4.22a9.56 9.56 0 012.28-.26c4.08 0 7.18 2.54 7.18 6 0 3.79-2.88 6.79-8.69 6.79-3.34 0-5.86-1.54-5.86-3.94a4 4 0 014.3-3.74 4.79 4.79 0 015.11 4.1 3.48 3.48 0 002-3.26c0-2.16-2.16-3.63-5-3.63-3.67 0-6.07 1.95-8.64 4.88l-2.18-2.18c1.7-1.37 4.61-3.82 6-5s3.84-3.12 5-4.16c-1.22 0-4.54.17-5.81.24-.65.05-1.42.12-2 .2l-.09-3.12a17.7 17.7 0 002.25.1zm4.32 16.82a12 12 0 001.39-.07c-.14-1.56-1-2.57-2.32-2.57-.92 0-1.49.55-1.49 1.15 0 .89.98 1.49 2.42 1.49zM618.22 374.46a2.2 2.2 0 112.21 2.3 2.22 2.22 0 01-2.21-2.3zm9.1 0a2.2 2.2 0 112.19 2.3 2.21 2.21 0 01-2.19-2.3zm9.1 0a2.2 2.2 0 012.18-2.31 2.31 2.31 0 010 4.61 2.2 2.2 0 01-2.18-2.3z"/><path class="cls-5" d="M18.63 353.33h28v28h-28z"/><path class="cls-4" d="M45.63 354.33v26h-26v-26h26m2-2h-30v30h30v-30z"/><path class="cls-6" d="M40.63 357.33l-12.4 13.64-3.6-2.73h-2l5.6 9.09 14.4-20h-2z"/><path class="cls-5" d="M165.22 19.29h1.75V5.91h8.14V4.17h-8.14V1.84h-1.75v2.33h-7.56v1.74h7.56v13.38zM117.51 7.15V1.84h-1.74v17.45h1.74V9.08l9.42 4.39h4.25v-1.74h-3.86l-9.81-4.58zM179.76 3.6h8.77v1.74h-8.77z"/><path class="cls-5" d="M161.51 9.03l-1.72-.31-1.45 8.24h-1.84v1.75h3.3l1.71-9.68zM172.98 8.72l-1.72.31 1.71 9.68h3.3v-1.75h-1.83l-1.46-8.24zM135.71 17.91l1.43 1 4.23-6.04V6.5h8.73v11.04h-4.36v1.75h6.1V4.75h-10.47V1.84h-1.74v2.91h-4.07V6.5h4.07v5.82l-3.92 5.59zM196.04 12.8V1.84h-1.74v10.41l-3.72 5.3H179.2v1.75h12.29l4.55-6.5zM152.43.68h1.74v1.74h-1.74zM149.51.68h1.74v1.74h-1.74zM127.99 2.42h1.74v1.74h-1.74zM125.08 2.42h1.74v1.74h-1.74zM172.79 3.58h3.49V.09h-3.49zM174 1.26h1.17v1.16H174zM223.1 9.41h16.29v1.74H223.1zM266.73 2.43h15.7v1.74h-15.7zM266.15 10.57h9.89v3.28l-2.59 3.7h-6.72v1.74h7.63l3.42-4.89v-3.83h5.82V8.82h-17.45v1.75zM401.09 7.78V5.33H404V3.58h-2.91V.09h-1.74v3.49h-2.92v1.75h2.92v1.1l-3.32 7.95 1.61.67 1.71-4.09v9.5h1.74V10.37l2.09 2.29 1.29-1.18-3.38-3.7zM310.93 3.6h8.77v1.74h-8.77zM325.47 12.24l-3.72 5.31h-11.38v1.74h12.29l4.55-6.5V1.83h-1.74v10.41z"/><path class="cls-5" transform="rotate(-32.56 367.977 14.578)" d="M367.07 8.13h1.74v12.92h-1.74z"/><path class="cls-5" d="M291.03 11.73h-1.62v1.75h2.09l5.33-3.08v9.49h1.75V9.39l4-2.31h1.96V5.33h-2.42l-11.09 6.4zM199.84 4.17h16.28v4.94l-8.61 4.97-3.04-5.26h-2.89v1.74h1.89l5.57 9.66 1.52-.87-2.18-3.76 9.49-5.47V2.43h-18.03v1.74zM249.04 1.84l-1.66-.53-2.55 8.1h-1.36v1.74h2.65l1.46-4.65H258v6.72l-3.03 4.33h-8.6v1.74h9.51l3.87-5.52V6.5h2.32V4.75h-13.95l.92-2.91zM372 5.33h-8.72V.68h-1.75v4.65h-8.72v1.75h8l-7.87 12.32 1.48.94 8.46-13.26H372V5.33zM415.63 1.85h-4.66V.09h-1.75v1.76h-4.66v1.74h11.07V1.85zM333.58 7.08h-2.29v1.75h3.2l3.26-4.66H347v7.37l-4.2 6.01h-8.61v1.74h9.51l5.05-7.2V2.43h-11.9l-3.27 4.65zM348.74.1h1.74v1.74h-1.74zM345.83.1h1.74v1.74h-1.74zM392.36.89l-1.69-.45-.84 3.15h-4.36l-.84-3.15-1.69.45.72 2.7h-3.76l-.85-3.15-1.68.45.72 2.7h-3.17v4.08h1.74V5.33h16.28v2.34h1.74V3.59h-3.05l.73-2.7z"/><path class="cls-5" transform="rotate(-67.17 406.18 7.24)" d="M402.99 6.35h6.42v1.74h-6.42z"/><path class="cls-5" transform="rotate(-22.83 413.695 7.24)" d="M412.85 4.02h1.74v6.42h-1.74z"/><path class="cls-5" d="M413.67 10.13l-1.37-1.07-2.34 2.98-2.33-2.98-1.38 1.07 2.6 3.33-4.58 5.87 1.38 1.07 4.31-5.52 4.32 5.52 1.37-1.07-4.58-5.87 2.6-3.33zM385.96 12.16l4.67-2.7v-1.8H378.4V9.4h8.84l-3.03 1.75v1.75h-9.29v1.74h9.29v4.07h-4.05v1.74h5.8v-5.81h8.72V12.9h-8.72v-.74zM431.67 0a28.74 28.74 0 0010 8.92 10.64 10.64 0 00-1.13 1.47 31.56 31.56 0 01-9.66-8.71 29.9 29.9 0 01-9.47 8.85 5.74 5.74 0 00-1.08-1.33A27.26 27.26 0 00430 0zm.33 18.81h8.74v1.59h-19.42v-1.59h2.88v-8.46h1.7v8.46h4.35V6.21H432v5.36h6.6v1.54H432zM463.9 1.56v1.59h-9.34V5.7h4.69V16h-11V5.7h4.6V3.15h-9.15V1.56zm-2.3 3.89h1.65V21h-1.65v-1.39h-15.52V21h-1.66V5.45h1.66V18h15.52zm-11.89 4.69H453v-3h-3.27zm0 4.39H453v-3h-3.27zm8.05-7.38h-3.29v3h3.29zm0 4.37h-3.29v3h3.29zM479.24 10.55a2.44 2.44 0 11-2.44-2.43 2.42 2.42 0 012.44 2.43zM496.63 7.34h5.54V8.9h-5.54v2.3h4.74v6.28c0 .78-.12 1.21-.69 1.49a7.18 7.18 0 01-2.67.28 5.33 5.33 0 00-.51-1.5h2c.25 0 .32-.07.32-.3v-4.69h-3.17V21H495v-8.24h-3v6.42h-1.56v-8H495V8.9h-5.59V7.34H495V4.92h-3a17.54 17.54 0 01-1.15 2.37 9.36 9.36 0 00-1.52-.64A18.08 18.08 0 00491.64.6l1.61.32c-.21.8-.44 1.66-.69 2.44H495V.14h1.63v3.22h4.64v1.56h-4.64zm8.81 7.45h-1.61V2.14h1.61zM509.55.3v18.39c0 1.13-.25 1.64-.94 1.94a11.32 11.32 0 01-3.68.34 9.82 9.82 0 00-.55-1.79h3c.36 0 .49-.11.49-.5V.3zM519.46.67a35.56 35.56 0 01-2.34 4.92V21h-1.7V8.23a24.35 24.35 0 01-2.28 2.77 8.44 8.44 0 00-1-1.7 25.66 25.66 0 005.69-9.16zm6.72 4.85v3.29h6.55v1.58h-6.55v3.48h6.87v1.61h-6.87V21h-1.73V5.52h-1.58a25.29 25.29 0 01-3.27 4.78 11 11 0 00-1.33-1.15 24.41 24.41 0 005.06-8.81l1.67.44c-.37 1.06-.8 2.09-1.26 3.11h9.56v1.63z"/></g></g></svg>