<svg xmlns="http://www.w3.org/2000/svg" width="169.481" height="33.636" viewBox="0 0 169.481 33.636"><g transform="translate(-72.03 8.1)"><g transform="translate(72.03 -8.1)"><path d="M83.795,15.221h1V7.572h4.653V6.579H84.8V5.25h-1V6.579H79.47v.993h4.325Z" transform="translate(-12.463 -1.061)" fill="#fff"/><path d="M50.573,8.285V5.25H49.58v9.971h.993V9.382L55.955,11.9h2.435v-1h-2.21Z" transform="translate(-7.793 -1.061)" fill="#fff"/><rect width="9.306" height="1.001" transform="translate(54.052 23.624)" fill="#fff"/><rect width="8.978" height="1.001" transform="translate(80.287 19.432)" fill="#fff"/><path d="M94.84,28.661h5.646v1.874l-1.474,2.114H95.168v1h4.357l1.962-2.795V28.661h3.324v-1H94.84Z" transform="translate(-14.873 -3.933)" fill="#fff"/><rect width="5.013" height="1.001" transform="translate(80.185 5.19)" fill="#fff"/><path d="M81.509,10.336l-.977-.176L79.7,14.869H78.65v.993h1.882Z" transform="translate(-12.484 -1.548)" fill="#fff"/><path d="M190.421,25.827v-1.4h1.666v-.993h-1.666v-2h-.993v2h-1.666v.993h1.666v.625l-1.9,4.549.921.384.977-2.338v5.43h.993V27.308l1.2,1.305.737-.673Z" transform="translate(-29.336 -2.692)" fill="#fff"/><path d="M90.165,10.16l-.985.176.977,5.526h1.89v-.993H91Z" transform="translate(-14.155 -1.548)" fill="#fff"/><path d="M63.788,14.436,64.6,15l2.419-3.452V7.909h4.989V14.22H69.522v1h3.484v-8.3H67.024V5.25H66.03V6.916H63.7v.993h2.33V11.24Z" transform="translate(-10.002 -1.061)" fill="#fff"/><path d="M104.474,11.513V5.25h-1v5.942l-2.122,3.035H94.84v1h7.031Z" transform="translate(-14.882 -1.061)" fill="#fff"/><rect width="5.013" height="1.001" transform="translate(106.738 20.13)" fill="#fff"/><path d="M135.023,28.622,132.9,31.658H126.39v1h7.031l2.6-3.716V22.68h-1Z" transform="translate(-19.831 -2.941)" fill="#fff"/><rect width="1.001" height="7.384" transform="translate(139.747 24.186) rotate(-32.56)" fill="#fff"/><path d="M112.361,28.83h-.921v1h1.193l3.043-1.762V33.5h1V27.492l2.29-1.321h1.113v-1H118.7Z" transform="translate(-17.517 -3.437)" fill="#fff"/><path d="M47.51,24.093h9.306V26.92L51.9,29.763l-1.738-3.011H48.5v1h1.081l3.187,5.518.865-.5L52.4,30.62,57.817,27.5V23.1H47.51Z" transform="translate(-7.448 -3.025)" fill="#fff"/><rect width="1.001" height="1.001" transform="translate(63.682 3.525)" fill="#fff"/><rect width="1.001" height="1.001" transform="translate(61.933 3.525)" fill="#fff"/><rect width="1.001" height="1.001" transform="translate(49.018 4.518)" fill="#fff"/><rect width="1.001" height="1.001" transform="translate(47.269 4.518)" fill="#fff"/><path d="M90.27,5.994h1.994V4H90.27Zm.665-1.329H91.6v.665h-.665Z" transform="translate(-14.348 -0.812)" fill="#fff"/><path d="M81.837,22.606l-.953-.3-1.458,4.621H78.65v1h1.514L81,25.273h5.958v3.836l-1.73,2.475H80.308v.993h5.438l2.21-3.147V25.273h1.321v-1H81.309Z" transform="translate(-12.32 -2.868)" fill="#fff"/><path d="M167.652,24.517H162.67V21.85h-1v2.667H156.68v.993h4.581l-4.5,7.039.841.537,4.837-7.576h5.214Z" transform="translate(-24.524 -2.776)" fill="#fff"/><path d="M199.947,22.439H197.28V21.43h-.993v1.009H193.62v.993h6.327Z" transform="translate(-30.549 -3.375)" fill="#fff"/><path d="M142.643,25.759H141.33v1h1.826l1.866-2.667h5.286v4.212l-2.4,3.436h-4.917v.993h5.438l2.875-4.108V23.1h-6.8Z" transform="translate(-22.162 -3.025)" fill="#fff"/><rect width="1.001" height="1.001" transform="translate(129.302 18.034)" fill="#fff"/><rect width="1.001" height="1.001" transform="translate(127.561 18.034)" fill="#fff"/><path d="M182.433,21.936l-.961-.256-.489,1.8H178.5l-.489-1.8-.961.256.416,1.546h-2.154l-.48-1.8-.969.256.416,1.546h-1.81v2.33h.993V24.475h9.3v1.337h1v-2.33h-1.746Z" transform="translate(-26.337 -3.344)" fill="#fff"/><rect width="3.668" height="1.001" transform="matrix(0.388, -0.922, 0.922, 0.388, 162.832, 23.809)" fill="#fff"/><rect width="1.001" height="3.668" transform="matrix(0.922, -0.388, 0.388, 0.922, 167.135, 20.816)" fill="#fff"/><path d="M198.784,28.447,198,27.83l-1.337,1.706-1.329-1.706-.785.617,1.482,1.906L193.41,33.7l.793.617,2.459-3.155,2.467,3.155.793-.617-2.627-3.348Z" transform="translate(-30.507 -3.967)" fill="#fff"/><path d="M178.773,29.411l2.675-1.546V26.84h-6.991v.993h5.053l-1.73,1v.993h-5.31v1h5.31v2.322h-2.314v1h3.307V30.828h4.989v-1h-4.989Z" transform="translate(-26.337 -3.77)" fill="#fff"/><path d="M17.531,9.42V27.711a3.492,3.492,0,0,1-5.238,3L4.445,26.174a3.492,3.492,0,0,1,0-6.046l6.567-3.788V13.208L3.1,17.813a6.191,6.191,0,0,0,0,10.723l7.848,4.573a6.191,6.191,0,0,0,9.282-5.358V10.982Z" transform="translate(-0.004 -0.301)" fill="#fff"/><path d="M33.152,5.377,25.3.845a6.2,6.2,0,0,0-9.29,5.35L15.87,22.852l2.691,1.554.16-18.2a3.484,3.484,0,0,1,5.262-3L31.831,7.74a3.492,3.492,0,0,1,0,6.046l-6.647,3.836v3.115l8.008-4.6a6.191,6.191,0,0,0,0-10.723Z" transform="translate(-3.164 -0.019)" fill="#fff"/></g></g></svg>