<svg xmlns="http://www.w3.org/2000/svg" viewBox="0 0 387.75 65.53"><defs><style>.cls-1{fill:#ff0;}</style></defs><g id="レイヤー_2" data-name="レイヤー 2"><g id="design"><path class="cls-1" d="M31.85,11.27c-.07,1.61-.07,3.29-.07,5.11,5.6-.07,13.79-.35,19.61-1l.28,8.33c-5.89.49-14.15.84-19.82,1,.14,4.2.42,9.8.77,15a54.89,54.89,0,0,1,21.29,12l-5.39,8.33A54.8,54.8,0,0,0,33,48.94c.07.91.07,1.75.07,2.45C33.11,57.62,30,63.5,18.2,63.5,8.19,63.5,0,60.21,0,50.69c0-7.29,6.23-13.1,19.11-13.1a39.78,39.78,0,0,1,4.13.21c-.21-5.46-.49-11.41-.49-15.12,0-4.27,0-8.4-.07-11.41a50.65,50.65,0,0,0-.77-8.19H32.48A67.37,67.37,0,0,0,31.85,11.27ZM17.5,55c4.48,0,6.09-2,6.09-6.65,0-.63,0-1.48-.07-2.46a38.08,38.08,0,0,0-5.74-.49c-5.46,0-8.75,1.9-8.75,4.91C9,53.7,12.6,55,17.5,55Z"/><path class="cls-1" d="M98.58,13.58C94,17.22,84.79,24.36,80.1,28.35c-3.71,3.22-3.64,4,.14,7.28,5.25,4.41,18.55,14.92,25.7,21.85L97.74,65c-2-2.17-4-4.41-6.09-6.51-4.27-4.41-14.56-13.17-20.93-18.63-7-5.95-6.44-9.66.56-15.54C76.81,19.81,86.4,12,91.09,7.49a48.65,48.65,0,0,0,5.39-5.95l8.2,7.21C102.51,10.43,100.19,12.25,98.58,13.58Z"/><path class="cls-1" d="M149.4,6.58c-.21,1.19-.49,2.45-.7,3.85a123,123,0,0,0,23.81-3.08l.07,8.12a192.82,192.82,0,0,1-24.86,2.45c-.21,2.1-.42,4.27-.49,6.37A47.75,47.75,0,0,1,157.66,23h1.26a38.46,38.46,0,0,0,.63-4.2l8.55,2c-.28.77-.84,2.24-1.26,3.57,8.12,2.66,13.51,9,13.51,17.15,0,10-5.81,19.54-23,22.13l-4.62-7.35c13.52-1.47,19-8.33,19-15.2,0-4.2-2.45-7.91-7.28-9.8-3.79,9.52-9.39,16.88-14.71,21.29.49,1.75,1,3.5,1.61,5.18l-8,2.45c-.28-.91-.63-1.89-.91-2.87a25,25,0,0,1-10.85,2.8c-5.11,0-9.45-3.08-9.45-10.15,0-9,7.42-18.42,17.22-23q.21-4.51.63-8.82h-2.24c-3.64,0-9.1-.28-12.39-.42L125,9.66a98.91,98.91,0,0,0,12.88,1h2.8q.21-2,.42-3.78c.07-1.33.21-3,.14-4.2l9.1.21C150,4.27,149.68,5.53,149.4,6.58ZM133.51,51.67a14.92,14.92,0,0,0,7-2.31,97.84,97.84,0,0,1-1.47-14c-5.25,3.57-8.75,8.89-8.75,12.89C130.29,50.48,131.27,51.67,133.51,51.67Zm14.28-8.13a43.11,43.11,0,0,0,8.82-13.37A34.9,34.9,0,0,0,147,31.71v.21A73.63,73.63,0,0,0,147.79,43.54Z"/><path class="cls-1" d="M207.44,6.23c3.71,0,18.69-.28,22.68-.63a30.58,30.58,0,0,0,5.32-.77L240,11.06c-1.61,1-3.29,2-4.9,3.22C231.31,16.94,224,23.1,219.55,26.6a27.35,27.35,0,0,1,6.65-.77c11.9,0,20.93,7.42,20.93,17.64,0,11.07-8.4,19.82-25.34,19.82-9.73,0-17.08-4.48-17.08-11.48,0-5.67,5.11-10.93,12.53-10.93,8.68,0,13.93,5.32,14.91,12A10.16,10.16,0,0,0,238,43.33c0-6.3-6.3-10.57-14.56-10.57-10.71,0-17.71,5.67-25.2,14.22l-6.37-6.59c5-4,13.44-11.13,17.57-14.56,3.92-3.22,11.2-9.1,14.63-12.11-3.57.07-13.23.49-16.94.7-1.89.14-4.13.35-5.74.56l-.28-9.1A48.58,48.58,0,0,0,207.44,6.23ZM220,55.31a36.54,36.54,0,0,0,4.06-.21c-.42-4.55-3-7.5-6.79-7.5-2.66,0-4.34,1.62-4.34,3.37C213,53.56,215.84,55.31,220,55.31Z"/><path class="cls-1" d="M298.51,53.56c7.14,2.52,15.19,5.88,19.95,8.19l-9.66,3.71a138,138,0,0,0-18.2-8.26l6.3-3.64H276.46l6.37,2.8C277,60.14,268.06,63.57,261,65.53a84.43,84.43,0,0,0-6.16-6.09c6.79-1.26,14.42-3.5,19.25-5.88H263.72V25H287a19.9,19.9,0,0,0-4.83-5.11,17.24,17.24,0,0,0,4.06-3.5h-6.3v7.28h-7.42V16.38h-6.16A23.39,23.39,0,0,1,259.59,28a24,24,0,0,0-5.46-5.18c5.11-4.62,5.95-10.36,5.95-15V1.47L265.4,2.8A85.5,85.5,0,0,0,280,0l5.11,4.9a89.66,89.66,0,0,1-17.78,3v.35c0,.63,0,1.4-.07,2.1h19.25V16a12.67,12.67,0,0,0,2.45-8.12V1.54l5.6,1.33A108,108,0,0,0,310.2,0l5,5c-5.39,1.54-12.6,2.45-19.11,3v.35c0,.63,0,1.33-.07,2H318v6h-8.82v7.35h-7.42V16.38h-7.07A18.6,18.6,0,0,1,287.8,25h22.82V53.56ZM271.77,33h30.38V30H271.77Zm0,7.77h30.38v-3H271.77Zm0,7.78h30.38V45.43H271.77Z"/><path class="cls-1" d="M337.06,28.63V65.32H328.8V2.59h26.75v26Zm0-19.67v3.78h10.72V9Zm10.72,13.37v-4H337.06v4Zm4.27,33.12v3.92h-7.77V33.46h27.09v22Zm0-15.13v8.27H363.6V40.32Zm35.7,15.06c0,4.62-.91,7-3.85,8.33s-7.28,1.61-13.72,1.61a29.81,29.81,0,0,0-2.8-8.54c4.06.28,8.82.21,10.15.14s1.82-.42,1.82-1.68V28.7h-19V2.59h27.37ZM368.29,8.89v3.85h11.06V8.89ZM379.35,22.4V18.34H368.29V22.4Z"/></g></g></svg>