<svg xmlns="http://www.w3.org/2000/svg" viewBox="0 0 291.95 106.79"><defs><style>.cls-1{fill:#4d4d4d;}.cls-2{fill:#ea5504;}</style></defs><g id="レイヤー_2" data-name="レイヤー 2"><g id="design"><path class="cls-1" d="M69.4,2.26a21.68,21.68,0,0,0,5-1.2l1.64,2.2-1.54.38a32.29,32.29,0,0,1-3.36.66V7.48h5c.44,0,1.38-.08,1.82-.12V9.94c-.54,0-1.22-.08-1.76-.08H71.1A10.08,10.08,0,0,1,66,18.1l-2.54-1.74a7.92,7.92,0,0,0,5-6.5H63c-.62,0-1.36,0-1.88.08V7.36a17.41,17.41,0,0,0,1.84.12h5.64V4.64c-1.92.16-4,.22-5.36.26l-.62-2.32A47.2,47.2,0,0,0,69.4,2.26Z"/><path class="cls-1" d="M86.8,5.76c.14.48.32,1.16.54,1.94,2.54-.48,5.34-1,6.12-1.2a3.81,3.81,0,0,0,1-.32l1.6,1.14a31.48,31.48,0,0,1-4.26,6.26l-2.2-1.1a17.75,17.75,0,0,0,3-3.6c-.48.08-2.48.5-4.64.94.76,2.76,1.62,5.84,1.92,6.88.12.34.38,1.24.54,1.64L87.68,19a11.46,11.46,0,0,0-.36-1.76c-.3-1.08-1.12-4.2-1.84-6.92-1.68.36-3.14.66-3.74.8l-.62-2.4c.64-.06,1.18-.12,1.84-.24.28,0,1-.16,1.92-.34-.2-.78-.38-1.42-.52-1.86a7,7,0,0,0-.56-1.42l2.68-.64C86.56,4.7,86.68,5.24,86.8,5.76Z"/><path class="cls-1" d="M105.15,12.44a18.83,18.83,0,0,0,7.28-7.78L114,7.48a21.27,21.27,0,0,1-7.4,7.4,21.66,21.66,0,0,1-7.42,2.82l-1.68-2.64A20.61,20.61,0,0,0,105.15,12.44Zm0-6.46-2,2.08a41.58,41.58,0,0,0-5-4.32l1.88-2A40.39,40.39,0,0,1,105.15,6Z"/><path class="cls-1" d="M125.27,2.44v1h2.4a6,6,0,0,0,1.66-.2L131,4.9c-.52.5-1.12,1.18-1.56,1.66a30.18,30.18,0,0,1-4.2,3.92c0,1.6,0,3.78,0,5,0,.8.08,1.94.14,2.56h-2.88a23,23,0,0,0,.16-2.56V12.1a35.12,35.12,0,0,1-6.14,2.46L115,12.2a24.84,24.84,0,0,0,8.16-3.34,13.22,13.22,0,0,0,3.36-3h-7.24c-.72,0-2,0-2.6.08V3.34a18.82,18.82,0,0,0,2.56.14h3.46v-1A12.92,12.92,0,0,0,122.53.6h2.86A16.39,16.39,0,0,0,125.27,2.44Zm1.22,9.14,1.66-1.92a45.08,45.08,0,0,1,4.8,2.9l-1.68,2.2A31.46,31.46,0,0,0,126.49,11.58Z"/><path class="cls-1" d="M136.89,11.42c.56-1.72.58-5.5.58-7.92a7.59,7.59,0,0,0-.18-1.84h2.94a13.17,13.17,0,0,0-.14,1.82,44.13,44.13,0,0,1-.6,8.6,11.73,11.73,0,0,1-3.56,5.74l-2.44-1.62A9.43,9.43,0,0,0,136.89,11.42Zm6,3.6V3.36a8.87,8.87,0,0,0-.16-1.72h3a10.16,10.16,0,0,0-.14,1.74V13.84a12.67,12.67,0,0,0,4.94-4.22l1.54,2.2a22,22,0,0,1-6.78,5.46,4.27,4.27,0,0,0-.86.6l-1.68-1.38A7.61,7.61,0,0,0,142.91,15Z"/><path class="cls-1" d="M170.91,3.74a31.2,31.2,0,0,1-2.58,2,14.14,14.14,0,0,0,3.14,1.74,8.5,8.5,0,0,0-1.58,2,14.22,14.22,0,0,1-4.28-3V7.3h-7.36V6.62a17.58,17.58,0,0,1-4.52,3.16A8.45,8.45,0,0,0,152.31,8,13.94,13.94,0,0,0,155.69,6a13.93,13.93,0,0,0-2.14-1.68l1.3-1.3a12.07,12.07,0,0,1,2.26,1.62,12.59,12.59,0,0,0,1.5-2h-4.1V.72h5.24l.4-.1,1.54.8a13.46,13.46,0,0,1-2.26,3.9h5.14A19.31,19.31,0,0,1,161.83.7l2-.64a13,13,0,0,0,1.06,2,16.74,16.74,0,0,0,2-1.9l1.8,1.28c-.86.72-1.86,1.48-2.74,2.08.3.36.62.7.94,1a17.53,17.53,0,0,0,2.24-2.06Zm-4.22,10.4c-.42.82-.82,1.6-1.16,2.18h5v2h-17.2v-2h4.84a9.57,9.57,0,0,0-.92-2.08l1-.26h-2.18V8.44h11.58V14h-1.8Zm-8.26-2h6.82V10.32h-6.82Zm1.2,1.88a8.14,8.14,0,0,1,1,2.12l-.76.22h3.94l-.54-.12a19,19,0,0,0,1-2.22Z"/><path class="cls-1" d="M180.29,15.22c1-.58,2.32-1.42,3.62-2.28l.72,1.8c-1.18.9-2.46,1.82-3.6,2.6l-.66-1.14.06.58c-2.48.52-5.12,1.08-7.14,1.46l-.44-2.16c.84-.12,1.84-.28,2.94-.46V10.4h-2.72v-2h2.72V6.94H174V6l-.38.36a6.51,6.51,0,0,0-1.42-1.54A12.78,12.78,0,0,0,175.69,0h2A19.87,19.87,0,0,1,181,3.46L179.73,5h.18v2h-2.06V8.4h2.48v2h-2.48v4.84l2.4-.42Zm-5.5-4.06a22.84,22.84,0,0,1,.7,3.44l-1.6.44a18.2,18.2,0,0,0-.62-3.5ZM179.27,5A18.59,18.59,0,0,0,177,2.22,18.9,18.9,0,0,1,175.05,5Zm-1.2,9.28a24.52,24.52,0,0,0,.7-3.24l1.72.42c-.36,1.12-.68,2.4-1,3.22ZM188,12a9.22,9.22,0,0,0,3.66,3.72,8.83,8.83,0,0,0-1.52,2,10.07,10.07,0,0,1-3.28-3.86v2.62c0,1-.14,1.56-.76,1.88a5.26,5.26,0,0,1-2.52.38,8.12,8.12,0,0,0-.56-2.06c.56,0,1.16,0,1.36,0s.28-.06.28-.26V8.54h-4.12v-2h7v-1h-5.56V3.7h5.56V2.62h-6v-2h8.2V6.52h1.48v2h-4.32V9.2a13,13,0,0,0,.82,2.14,16.7,16.7,0,0,0,1.8-2.4l1.86,1.14c-.8.92-1.7,1.86-2.4,2.52Zm-5.8-2.74a9.77,9.77,0,0,1,2.06,2.52l-1.66,1.1a11.44,11.44,0,0,0-2-2.62Z"/><path class="cls-1" d="M203.83,8.14c-.78.56-1.54,1.08-2.36,1.6h7.28v8.88h-2.5V18.1h-6.88v.6H197V12.16c-1,.44-2,.88-3.06,1.26a12.94,12.94,0,0,0-1.44-2,35.44,35.44,0,0,0,7.42-3.32h-6.8V6h6.42V4.22h-4.7V2.16h4.7V0h2.36V2.16h4.34v1A24.36,24.36,0,0,0,208.29.6l2,1A29.25,29.25,0,0,1,206.39,6H211v2.1Zm2.42,3.54h-6.88V13h6.88Zm0,4.44V14.76h-6.88v1.36ZM201.89,6H203a27.31,27.31,0,0,0,2.16-1.82h-3.26Z"/><path class="cls-1" d="M230.55,5.8a22.5,22.5,0,0,1-2.18,7.46,9.39,9.39,0,0,0,3.54,3.32,9.18,9.18,0,0,0-1.64,2.06,10.86,10.86,0,0,1-3.36-3.18,13,13,0,0,1-4.22,3.28,9,9,0,0,0-.76-1.36l-.9.92A19,19,0,0,0,219,16.8,12.26,12.26,0,0,1,214,18.7a5.25,5.25,0,0,0-.94-2,10.63,10.63,0,0,0,3.81-1.08c-.37-.2-.74-.38-1.12-.54l-.23.38-2.08-.64c.44-.7.94-1.6,1.44-2.56H213V10.38h2.9c.25-.5.49-1,.68-1.42l.45.1V7.14a14.73,14.73,0,0,1-3,2.32,7.2,7.2,0,0,0-1.2-1.72,10.76,10.76,0,0,0,3.53-2.5h-3.13V3.36h1.52a10.65,10.65,0,0,0-1-2.32l1.72-.72a8.57,8.57,0,0,1,1.21,2.48l-1.29.56H217V0h2.18V3.36h1.58l-1.32-.58A19.32,19.32,0,0,0,220.81.24l2,.8c-.62.86-1.24,1.7-1.72,2.32H223V5.24h-3.28c1,.54,2.38,1.38,2.82,1.68l-1.26,1.64c-.44-.42-1.28-1.12-2.06-1.74V9.24h-1.28l.86.18-.48,1h4.76A13.87,13.87,0,0,0,221.45,9c1.7-2,2.66-5.44,3.14-9l2.4.32c-.16,1.12-.38,2.22-.64,3.28h5.32V5.8Zm-13.8,7.56c.6.24,1.18.48,1.76.76a6.08,6.08,0,0,0,.76-1.82h-1.94Zm4.76-1.06a8.08,8.08,0,0,1-1.06,2.84,18.63,18.63,0,0,1,1.66,1.06,9.82,9.82,0,0,0,3.52-3,21.17,21.17,0,0,1-1.36-3.94,12.69,12.69,0,0,1-.92,1.44l-.28-.3V12.3Zm4.28-6.5A25.24,25.24,0,0,0,227,10.5a21.4,21.4,0,0,0,1.08-4.7Z"/><path class="cls-2" d="M4.53,94.39a27.74,27.74,0,0,1-1.8,7.74A17.63,17.63,0,0,0,0,100.84a21.81,21.81,0,0,0,1.59-7Zm23.34-13s0,1.2,0,1.65c-.39,13.14-.81,17.88-2.07,19.47a3.72,3.72,0,0,1-2.88,1.65,28.64,28.64,0,0,1-4.68.09,8.53,8.53,0,0,0-1.2-3.6c1.89.18,3.6.18,4.41.18a1.48,1.48,0,0,0,1.26-.51c.9-.93,1.35-5.31,1.68-15.54H16.08a24.72,24.72,0,0,1-2.55,3.87,22.92,22.92,0,0,0-2.82-2,23.89,23.89,0,0,1,2.34,5.61l-2.7,1.26a16.33,16.33,0,0,0-.42-1.62l-1.71.12v12.33H5.07V92.29l-4.44.3-.3-3.12,2.22-.09c.45-.57.93-1.2,1.38-1.86a28.26,28.26,0,0,0-3.6-4.11L2,81l.72.63a39.66,39.66,0,0,0,2.19-5.22l3.15,1.11C7,79.54,5.76,81.85,4.68,83.53c.39.42.75.87,1.05,1.26a46.91,46.91,0,0,0,2.76-4.92l3,1.26a96.58,96.58,0,0,1-5.73,8.13l3-.12c-.33-.72-.69-1.44-1.05-2.07L10.29,86l.21.36a23.89,23.89,0,0,0,4.95-10l3.66.78a34.41,34.41,0,0,1-1.47,4.29Zm-17,12.3a34.21,34.21,0,0,1,1.95,5.64l-2.82,1a30.53,30.53,0,0,0-1.77-5.79Zm7,3.06a28.34,28.34,0,0,0-3.66-6.93l2.85-1.44A28.22,28.22,0,0,1,21,95.11Z"/><path class="cls-2" d="M44.55,91.22q9.81-7,15.66-11.61A77.22,77.22,0,0,0,70.33,70.2q4.28-4.82,5-9.22a11.21,11.21,0,0,0,.27-2.34,5.3,5.3,0,0,0-1.39-4A5.83,5.83,0,0,0,70,53.33q-6.93,0-8.82,9.81H46.26Q48.6,51.8,56,46.08a27.23,27.23,0,0,1,17.06-5.71q9.36,0,13.9,4.23a14.53,14.53,0,0,1,4.55,11.16,20.23,20.23,0,0,1-.36,4q-1.62,9.18-9.5,17.1A133.61,133.61,0,0,1,62.19,92.66h24.3l-2.25,12.51H39.06l2-11.43Z"/><path class="cls-2" d="M128.5,53.1q-1.48-1.66-4.81-1.66a9.4,9.4,0,0,0-8.15,4.41q-3,4.41-4.9,14.13a18,18,0,0,1,6.66-5,20.82,20.82,0,0,1,8.55-1.8q7.56,0,11.88,4.14t4.32,11.7a29.64,29.64,0,0,1-5.13,16.83,24.34,24.34,0,0,1-9,7.74,27.49,27.49,0,0,1-12.55,2.79q-10.71,0-15.35-5.31t-4.63-15.3a79.38,79.38,0,0,1,1.35-13q3.06-17.1,10.21-25.43T126.57,39q9.18,0,13.59,4.72a16.93,16.93,0,0,1,4.41,12,22.78,22.78,0,0,1-.09,2.34H130.17A8,8,0,0,0,128.5,53.1Zm-16,25.16q-3.2,2.88-3.19,8.19a6.58,6.58,0,0,0,2,5.13,8.28,8.28,0,0,0,5.76,1.8,9.86,9.86,0,0,0,6.7-2.39,10.75,10.75,0,0,0,3.47-6.52,19.1,19.1,0,0,0,.18-2.16,6.79,6.79,0,0,0-1.89-5.09A7.54,7.54,0,0,0,120,75.38,10.87,10.87,0,0,0,112.48,78.26Z"/><path class="cls-2" d="M148.36,104.85a6.35,6.35,0,0,1-2.12-4.9,9.22,9.22,0,0,1,3.11-7A10.87,10.87,0,0,1,157,90.05,7.84,7.84,0,0,1,162.62,92a6.54,6.54,0,0,1,2.07,5,9.11,9.11,0,0,1-3.1,6.93,10.67,10.67,0,0,1-7.52,2.88A8.11,8.11,0,0,1,148.36,104.85Z"/><path class="cls-2" d="M175.36,56.57l2.52-14.31h24.93l-11.25,63.81h-16l8.73-49.5Z"/><path class="cls-2" d="M224,72.28c0,2.12-.18,4.19-.31,6.3H244s-.05,2-.14,2.79c-.63,13.55-1.39,19-3.19,21.15a7.34,7.34,0,0,1-5.31,2.57,54.44,54.44,0,0,1-7.88.13,14.69,14.69,0,0,0-2.34-6.43c3,.27,6,.27,7.38.27a2.88,2.88,0,0,0,2.16-.63c1.08-1,1.76-5.18,2.21-13.55h-14c-1.39,8.1-4.63,15.57-12.78,20.7a19.33,19.33,0,0,0-4.72-5.4c11.11-6.39,11.34-17.37,11.65-27.9h-9.58V65.9h39.91v6.38Z"/><path class="cls-2" d="M272.87,63.87c0,.86-.09,1.85-.13,3,.36,6.48,2.52,25,19.21,32.89a19.38,19.38,0,0,0-5,5.58c-9.58-4.86-14.62-13.23-17.32-21.1a39.83,39.83,0,0,1-15.93,21.15,21.89,21.89,0,0,0-5.58-5.27C266,89.7,265,69.76,265.31,63.87Z"/></g></g></svg>