<svg xmlns="http://www.w3.org/2000/svg" viewBox="0 0 275.84 107.33"><defs><style>.cls-1{fill:#4d4d4d;}.cls-2{fill:#ea5504;}</style></defs><g id="レイヤー_2" data-name="レイヤー 2"><g id="レイヤー_1-2" data-name="レイヤー 1"><path class="cls-1" d="M97.29,4.5s0,.78,0,1.06c-.18,8.18-.34,11.08-1,12a2.23,2.23,0,0,1-1.58,1,13.42,13.42,0,0,1-2.48.08,5.57,5.57,0,0,0-.7-2.28c.88.08,1.64.1,2,.1a.73.73,0,0,0,.68-.34c.42-.54.62-3,.74-9.44h-1.8C92.91,12,92,16.16,88.63,18.82a7.79,7.79,0,0,0-1.4-1.58c-2.88.3-5.76.6-7.92.78L79,16l4.06-.28v-1.2H79.57V12.86h3.52v-.78H79.65V5.9h3.44V5.12H79.15V3.4h3.94V2.6c-1.16.08-2.3.14-3.38.16a7.41,7.41,0,0,0-.52-1.68,62,62,0,0,0,8.62-1l1,1.78c-1.06.22-2.3.4-3.6.54v1h3.84V4.5H91c0-1.32,0-2.7,0-4.18h2.28c0,1.46,0,2.86,0,4.18ZM81.53,8.28h1.56V7.4H81.53Zm1.56,2.32V9.7H81.53v.9Zm2.16,5c1.14-.08,2.32-.18,3.48-.28,1.56-2.16,2-5,2.18-8.6H89.09V5.12H85.25V5.9h3.54v6.18H85.25v.78h3.62v1.68H85.25Zm1.56-7.28V7.4H85.25v.88ZM85.25,9.7v.9h1.56V9.7Z"/><path class="cls-1" d="M117.43,1.2V3.42h-7.84V5h3.64v9.06h-9.52V5h3.5V3.42H99.53V1.2Zm-2.9,3.54h2.3V18.66h-2.3V17.5H102.45v1.18h-2.32V4.74h2.32V15.26h12.08Zm-8.88,3.9h1.74V7h-1.74Zm0,3.5h1.74v-1.7h-1.74ZM111.17,7h-1.74V8.64h1.74Zm0,3.48h-1.74v1.7h1.74Z"/><path class="cls-1" d="M126.2,13.06a27.58,27.58,0,0,0-1.72-2.18v7.8h-2.34V11.9a16.23,16.23,0,0,1-2.22,1.8,10.28,10.28,0,0,0-1.08-2.26,14.92,14.92,0,0,0,5.24-5.6h-4.5V3.7h2.56V0h2.34V3.7h.82l.4-.1,1.32.86a20.12,20.12,0,0,1-2.08,4.08c.88.76,2.32,2.14,2.7,2.54Zm9.46,3.44c.34,0,.42-.26.47-2.22a5.67,5.67,0,0,0,1.9.84c-.21,2.7-.74,3.38-2.11,3.38h-1.4c-1.74,0-2.12-.64-2.12-2.58V12.28h-1c-.32,2.86-1.2,5.08-4.5,6.4a6,6,0,0,0-1.34-1.84c2.7-.94,3.32-2.52,3.58-4.56h-1.3V1h8.82v11.3h-2.1v3.6c0,.56,0,.62.34.62ZM130,4.18h4.38V2.86H130Zm0,3.12h4.38V6H130Zm0,3.1h4.38V9.06H130Z"/><path class="cls-1" d="M146.59,16.76a9.43,9.43,0,0,0,1.34-3.82l1.88.58a10.19,10.19,0,0,1-1.52,4.4l-1.7-1V18.7h-2.08V15.64c-1.68.22-3.34.38-4.74.54L139.51,14l1.3-.1V3.1H140V1h7.5V3.1h-.86ZM142.83,3.1V5.2h1.68V3.1Zm0,6.16h1.68V7.14h-1.68Zm1.68,4.26V11.2h-1.68v2.48Zm12.22,4.4a10.9,10.9,0,0,0-.68-2c-.22,2.12-.78,2.66-2.08,2.66h-1.7c-1.84,0-2.22-.62-2.22-2.48V12.86H152a13.64,13.64,0,0,0-1.34-.94l1-.86h-4V5.26h4V3.88h-4.08v-2h4.08V.2h2.28V1.88h4.16v2h-4.16V5.26h4v5.8h-5.28A10,10,0,0,1,155,13l-1.5,1.38A9.89,9.89,0,0,0,152.15,13v3.06c0,.48.06.56.46.56h1.1c.36,0,.46-.2.5-1.7a5.53,5.53,0,0,0,1.74.76,13.35,13.35,0,0,0-1.2-2.1l1.82-.86A13.4,13.4,0,0,1,158.71,17ZM150.65,7h-1.08V9.28h1.08Zm2.66,0h-1.14V9.28h1.14Zm1.5,2.24H156V7h-1.16Z"/><path class="cls-1" d="M178,.66v18h-2.6V17.6h-12v1.06h-2.48V.66Zm-2.6,14.72V3.1h-12V15.38Zm-1.94-9.92v7.6h-8.16V5.46ZM171,7.54H167.5V11H171Z"/><path class="cls-1" d="M198,5.8a22.5,22.5,0,0,1-2.18,7.46,9.39,9.39,0,0,0,3.54,3.32,9.18,9.18,0,0,0-1.64,2.06,10.86,10.86,0,0,1-3.36-3.18,13,13,0,0,1-4.23,3.28,9,9,0,0,0-.76-1.36l-.9.92a19,19,0,0,0-2.08-1.5,12.27,12.27,0,0,1-4.92,1.9,5.25,5.25,0,0,0-.94-2,10.51,10.51,0,0,0,3.8-1.08,11.53,11.53,0,0,0-1.12-.54l-.22.38-2.08-.64c.44-.7.94-1.6,1.44-2.56h-1.9V10.38h2.9c.24-.5.48-1,.68-1.42l.44.1V7.14a14.41,14.41,0,0,1-3,2.32,7.2,7.2,0,0,0-1.2-1.72,10.62,10.62,0,0,0,3.52-2.5h-3.12V3.36h1.52a10.65,10.65,0,0,0-1-2.32l1.72-.72a8.52,8.52,0,0,1,1.2,2.48l-1.28.56h1.68V0h2.18V3.36h1.58l-1.32-.58A19.32,19.32,0,0,0,188.27.24l2,.8c-.63.86-1.24,1.7-1.73,2.32h1.91V5.24h-3.29c1,.54,2.38,1.38,2.82,1.68l-1.26,1.64c-.44-.42-1.28-1.12-2.06-1.74V9.24h-1.28l.86.18-.48,1h4.77A14.79,14.79,0,0,0,188.91,9c1.71-2,2.67-5.44,3.14-9l2.41.32c-.17,1.12-.38,2.22-.64,3.28h5.32V5.8Zm-13.81,7.56c.6.24,1.18.48,1.76.76a6.08,6.08,0,0,0,.76-1.82h-1.94ZM189,12.3a8.08,8.08,0,0,1-1.06,2.84,18.63,18.63,0,0,1,1.66,1.06,9.94,9.94,0,0,0,3.53-3,21.93,21.93,0,0,1-1.37-3.94,11.44,11.44,0,0,1-.92,1.44l-.27-.3V12.3Zm4.29-6.5a25.24,25.24,0,0,0,1.22,4.7,21.4,21.4,0,0,0,1.08-4.7Z"/><path class="cls-2" d="M4.53,94.39a27.74,27.74,0,0,1-1.8,7.74A17.63,17.63,0,0,0,0,100.84a21.81,21.81,0,0,0,1.59-7Zm23.34-13s0,1.2,0,1.65c-.39,13.14-.81,17.88-2.07,19.47a3.72,3.72,0,0,1-2.88,1.65,28.64,28.64,0,0,1-4.68.09,8.53,8.53,0,0,0-1.2-3.6c1.89.18,3.6.18,4.41.18a1.48,1.48,0,0,0,1.26-.51c.9-.93,1.35-5.31,1.68-15.54H16.08a24.72,24.72,0,0,1-2.55,3.87,22.92,22.92,0,0,0-2.82-2,23.89,23.89,0,0,1,2.34,5.61l-2.7,1.26a16.33,16.33,0,0,0-.42-1.62l-1.71.12v12.33H5.07V92.29l-4.44.3-.3-3.12,2.22-.09c.45-.57.93-1.2,1.38-1.86a28.26,28.26,0,0,0-3.6-4.11L2,81l.72.62a40.12,40.12,0,0,0,2.19-5.21l3.15,1.1C7,79.54,5.76,81.85,4.68,83.53c.39.42.75.87,1.05,1.26a46.82,46.82,0,0,0,2.76-4.91l3,1.25a96.58,96.58,0,0,1-5.73,8.13l3-.12c-.33-.72-.69-1.44-1.05-2.07L10.29,86l.21.36a23.89,23.89,0,0,0,4.95-10l3.66.79a34.83,34.83,0,0,1-1.47,4.28Zm-17,12.3a34.21,34.21,0,0,1,1.95,5.64l-2.82,1a30.53,30.53,0,0,0-1.77-5.79Zm7,3.06a28.34,28.34,0,0,0-3.66-6.93l2.85-1.44A28.22,28.22,0,0,1,21,95.11Z"/><path class="cls-2" d="M46.53,56.57l2.52-14.31H74L62.73,106.07h-16l8.73-49.5Z"/><path class="cls-2" d="M72,94.37,74.13,82l35.55-40.68H127l-7,39.78h7.38L125,94.37H117.6l-2.07,11.7H100.05l2.16-11.7Zm37.71-36.18L90.51,81.05h15.12Z"/><path class="cls-2" d="M139.39,59.45a20.81,20.81,0,0,1,.27-3.24,19.33,19.33,0,0,1,4.1-8.82,23.27,23.27,0,0,1,8.86-6.66,31.22,31.22,0,0,1,13-2.52,26.64,26.64,0,0,1,11,2,14.75,14.75,0,0,1,6.61,5.45,13.87,13.87,0,0,1,2.16,7.56,17.08,17.08,0,0,1-.27,3,17.89,17.89,0,0,1-3.73,8.46,21,21,0,0,1-7.16,5.67,13.85,13.85,0,0,1,5.54,5.08,14.16,14.16,0,0,1,1.93,7.43,19.24,19.24,0,0,1-.36,3.78,23.22,23.22,0,0,1-5.17,11.16,25.66,25.66,0,0,1-10,7.11,33.83,33.83,0,0,1-12.83,2.43q-9.27,0-15.07-4.41a14.51,14.51,0,0,1-5.81-12.24,21.64,21.64,0,0,1,.36-4.05,21.16,21.16,0,0,1,4.32-9.81,22.81,22.81,0,0,1,8.46-6.48A11.78,11.78,0,0,1,139.39,59.45ZM151.5,79.34a10,10,0,0,0-3.74,6.48,14.67,14.67,0,0,0-.18,1.89,6.63,6.63,0,0,0,2.07,5.08,8.38,8.38,0,0,0,5.94,1.94,10.75,10.75,0,0,0,8-3.11,10.52,10.52,0,0,0,3.06-7.69,6.38,6.38,0,0,0-2.12-5.09,8.52,8.52,0,0,0-5.8-1.84A11.43,11.43,0,0,0,151.5,79.34Zm5.94-26.46a9.24,9.24,0,0,0-3.11,5.76,14.8,14.8,0,0,0-.18,1.71,5.56,5.56,0,0,0,1.76,4.36,6.8,6.8,0,0,0,4.72,1.58,9.1,9.1,0,0,0,6.57-2.61,9.2,9.2,0,0,0,2.7-6.93,5.53,5.53,0,0,0-1.75-4.41,7.09,7.09,0,0,0-4.82-1.53A8.86,8.86,0,0,0,157.44,52.88Z"/><path class="cls-2" d="M208.69,72.29c-.05,2.11-.18,4.18-.32,6.29h20.34s0,2-.13,2.8c-.63,13.54-1.4,19-3.2,21.14a7.3,7.3,0,0,1-5.31,2.57,54.33,54.33,0,0,1-7.87.13,14.82,14.82,0,0,0-2.34-6.43c3,.27,6,.27,7.38.27a2.9,2.9,0,0,0,2.16-.63c1.08-1,1.75-5.18,2.2-13.55h-14c-1.4,8.1-4.64,15.57-12.78,20.7a19.33,19.33,0,0,0-4.72-5.4c11.11-6.39,11.33-17.37,11.65-27.89h-9.59V65.9h39.92v6.39Z"/><path class="cls-2" d="M275.84,64.32v41.4h-7.16v-2.43H243.44v2.43h-6.8V64.32Zm-7.16,32.89V71H243.44V97.21Zm-3.15-21.87V93h-19V75.34ZM259,81h-6.25V87.4H259Z"/></g></g></svg>