<svg xmlns="http://www.w3.org/2000/svg" viewBox="0 0 217.41 106.43"><defs><style>.cls-1{fill:#4d4d4d;}.cls-2{fill:#ea5504;}</style></defs><g id="レイヤー_2" data-name="レイヤー 2"><g id="レイヤー_1-2" data-name="レイヤー 1"><path class="cls-1" d="M68.08,4.5s0,.78,0,1.06c-.18,8.18-.34,11.08-1,12a2.23,2.23,0,0,1-1.58,1,13.42,13.42,0,0,1-2.48.08,5.57,5.57,0,0,0-.7-2.28c.88.08,1.64.1,2,.1a.73.73,0,0,0,.68-.34c.42-.54.62-3,.74-9.44H64c-.26,5.36-1.18,9.48-4.54,12.14A8.18,8.18,0,0,0,58,17.24c-2.88.3-5.76.6-7.92.78l-.28-2,4.06-.28v-1.2H50.35V12.86h3.52v-.78H50.43V5.9h3.44V5.12H49.93V3.4h3.94V2.6c-1.16.08-2.3.14-3.38.16A7.41,7.41,0,0,0,50,1.08a62,62,0,0,0,8.62-1l1,1.78c-1.06.22-2.31.4-3.61.54v1h3.85V4.5h1.87c0-1.32,0-2.7,0-4.18h2.28c0,1.46,0,2.86,0,4.18ZM52.31,8.28h1.56V7.4H52.31Zm1.56,2.32V9.7H52.31v.9Zm2.16,5c1.14-.08,2.32-.18,3.48-.28,1.57-2.16,2.05-5,2.19-8.6H59.88V5.12H56V5.9h3.55v6.18H56v.78h3.63v1.68H56Zm1.56-7.28V7.4H56v.88ZM56,9.7v.9h1.56V9.7Z"/><path class="cls-1" d="M88.22,1.2V3.42H80.38V5H84v9.06H74.5V5H78V3.42H70.32V1.2Zm-2.9,3.54h2.3V18.66h-2.3V17.5H73.24v1.18H70.92V4.74h2.32V15.26H85.32Zm-8.88,3.9h1.74V7H76.44Zm0,3.5h1.74v-1.7H76.44ZM82,7H80.22V8.64H82Zm0,3.48H80.22v1.7H82Z"/><path class="cls-1" d="M97,13.06a27.58,27.58,0,0,0-1.72-2.18v7.8H92.93V11.9a16.23,16.23,0,0,1-2.22,1.8,10.28,10.28,0,0,0-1.08-2.26,14.92,14.92,0,0,0,5.24-5.6h-4.5V3.7h2.56V0h2.34V3.7h.82l.4-.1,1.32.86a20.12,20.12,0,0,1-2.08,4.08c.88.76,2.32,2.14,2.7,2.54Zm9.46,3.44c.34,0,.42-.26.46-2.22a5.85,5.85,0,0,0,1.9.84c-.2,2.7-.74,3.38-2.1,3.38h-1.4c-1.74,0-2.12-.64-2.12-2.58V12.28h-1c-.32,2.86-1.2,5.08-4.5,6.4a6,6,0,0,0-1.34-1.84c2.7-.94,3.32-2.52,3.58-4.56h-1.3V1h8.82v11.3h-2.1v3.6c0,.56,0,.62.34.62ZM100.79,4.18h4.38V2.86h-4.38Zm0,3.12h4.38V6h-4.38Zm0,3.1h4.38V9.06h-4.38Z"/><path class="cls-1" d="M117.38,16.76a9.43,9.43,0,0,0,1.34-3.82l1.88.58a10.19,10.19,0,0,1-1.52,4.4l-1.7-1V18.7H115.3V15.64c-1.68.22-3.34.38-4.74.54L110.29,14l1.3-.1V3.1h-.85V1h7.5V3.1h-.86ZM113.62,3.1V5.2h1.68V3.1Zm0,6.16h1.68V7.14h-1.68Zm1.68,4.26V11.2h-1.68v2.48Zm12.22,4.4a10.9,10.9,0,0,0-.68-2c-.22,2.12-.78,2.66-2.08,2.66h-1.7c-1.84,0-2.22-.62-2.22-2.48V12.86h1.92a13.64,13.64,0,0,0-1.34-.94l1-.86h-4V5.26h4V3.88h-4.08v-2h4.08V.2h2.28V1.88h4.16v2H124.7V5.26h4v5.8h-5.28a10,10,0,0,1,2.36,1.9l-1.5,1.38A9.89,9.89,0,0,0,122.94,13v3.06c0,.48.06.56.46.56h1.1c.36,0,.46-.2.5-1.7a5.53,5.53,0,0,0,1.74.76,13.35,13.35,0,0,0-1.2-2.1l1.82-.86A13.4,13.4,0,0,1,129.5,17ZM121.44,7h-1.08V9.28h1.08Zm2.66,0H123V9.28h1.14Zm1.5,2.24h1.16V7H125.6Z"/><path class="cls-1" d="M148.75.66v18h-2.6V17.6h-12v1.06h-2.48V.66Zm-2.6,14.72V3.1h-12V15.38Zm-1.94-9.92v7.6h-8.16V5.46Zm-2.4,2.08h-3.52V11h3.52Z"/><path class="cls-1" d="M168.8,5.8a22.5,22.5,0,0,1-2.18,7.46,9.39,9.39,0,0,0,3.54,3.32,9.18,9.18,0,0,0-1.64,2.06,10.86,10.86,0,0,1-3.36-3.18,13,13,0,0,1-4.22,3.28,9,9,0,0,0-.76-1.36l-.9.92a19,19,0,0,0-2.08-1.5,12.27,12.27,0,0,1-4.92,1.9,5.25,5.25,0,0,0-.94-2,10.51,10.51,0,0,0,3.8-1.08,11.53,11.53,0,0,0-1.12-.54l-.22.38-2.08-.64c.44-.7.94-1.6,1.44-2.56h-1.9V10.38h2.9c.24-.5.48-1,.68-1.42l.44.1V7.14a14.41,14.41,0,0,1-3,2.32,7.2,7.2,0,0,0-1.2-1.72,10.62,10.62,0,0,0,3.52-2.5h-3.12V3.36H153A10.65,10.65,0,0,0,152,1l1.72-.72a8.52,8.52,0,0,1,1.2,2.48l-1.28.56h1.68V0h2.18V3.36H159l-1.32-.58A19.32,19.32,0,0,0,159.06.24l2,.8c-.62.86-1.24,1.7-1.72,2.32h1.9V5.24H158c1,.54,2.38,1.38,2.82,1.68l-1.26,1.64c-.44-.42-1.28-1.12-2.06-1.74V9.24h-1.28l.86.18-.48,1h4.76A13.87,13.87,0,0,0,159.7,9c1.7-2,2.66-5.44,3.14-9l2.4.32c-.16,1.12-.38,2.22-.64,3.28h5.32V5.8ZM155,13.36c.6.24,1.18.48,1.76.76a6.08,6.08,0,0,0,.76-1.82h-1.94Zm4.76-1.06a8.08,8.08,0,0,1-1.06,2.84,18.63,18.63,0,0,1,1.66,1.06,9.82,9.82,0,0,0,3.52-3,21.17,21.17,0,0,1-1.36-3.94,12.69,12.69,0,0,1-.92,1.44l-.28-.3V12.3ZM164,5.8a25.24,25.24,0,0,0,1.22,4.7,21.4,21.4,0,0,0,1.08-4.7Z"/><path class="cls-2" d="M4.53,94.39a27.74,27.74,0,0,1-1.8,7.74A17.63,17.63,0,0,0,0,100.84a21.81,21.81,0,0,0,1.59-7Zm23.34-13s0,1.19,0,1.64c-.39,13.14-.81,17.88-2.07,19.47a3.72,3.72,0,0,1-2.88,1.65,28.64,28.64,0,0,1-4.68.09,8.53,8.53,0,0,0-1.2-3.6c1.89.18,3.6.18,4.41.18a1.48,1.48,0,0,0,1.26-.51c.9-.93,1.35-5.31,1.68-15.54H16.08a25.32,25.32,0,0,1-2.55,3.88,21.9,21.9,0,0,0-2.82-2,23.89,23.89,0,0,1,2.34,5.61l-2.7,1.26a16.33,16.33,0,0,0-.42-1.62l-1.71.12v12.33H5.07V92.29l-4.44.3-.3-3.12,2.22-.09c.45-.57.93-1.2,1.38-1.86a27.69,27.69,0,0,0-3.6-4.1L2,81l.72.62a40.12,40.12,0,0,0,2.19-5.21l3.15,1.1C7,79.54,5.76,81.85,4.68,83.53c.39.42.75.87,1.05,1.26a46.82,46.82,0,0,0,2.76-4.91l3,1.25a96.58,96.58,0,0,1-5.73,8.13l3-.12c-.33-.72-.69-1.44-1.05-2.07L10.29,86l.21.36a23.89,23.89,0,0,0,4.95-10l3.66.79a35.56,35.56,0,0,1-1.47,4.29Zm-17,12.29a34.21,34.21,0,0,1,1.95,5.64l-2.82,1a30.53,30.53,0,0,0-1.77-5.79Zm7,3.06a28.34,28.34,0,0,0-3.66-6.93l2.85-1.44A28.22,28.22,0,0,1,21,95.11Z"/><path class="cls-2" d="M78.71,53.1c-1-1.11-2.6-1.66-4.82-1.66a9.37,9.37,0,0,0-8.14,4.41q-3,4.41-4.91,14.13a18,18,0,0,1,6.66-5,20.82,20.82,0,0,1,8.55-1.8q7.56,0,11.88,4.14t4.32,11.7A29.64,29.64,0,0,1,87.12,95.9a24.39,24.39,0,0,1-9,7.74,27.56,27.56,0,0,1-12.56,2.79q-10.71,0-15.35-5.31t-4.63-15.3a79.38,79.38,0,0,1,1.35-13Q50,55.67,57.1,47.34T76.77,39Q86,39,90.36,43.74a16.93,16.93,0,0,1,4.41,12,22.78,22.78,0,0,1-.09,2.34H80.37A8.06,8.06,0,0,0,78.71,53.1Zm-16,25.16q-3.19,2.88-3.19,8.19a6.58,6.58,0,0,0,2,5.13,8.28,8.28,0,0,0,5.76,1.8A9.86,9.86,0,0,0,73.93,91a10.75,10.75,0,0,0,3.47-6.52,19.1,19.1,0,0,0,.18-2.16,6.79,6.79,0,0,0-1.89-5.09,7.54,7.54,0,0,0-5.49-1.84A10.87,10.87,0,0,0,62.68,78.26Z"/><path class="cls-2" d="M101.66,56.57l2.52-14.31h24.93l-11.25,63.81h-16l8.73-49.5Z"/><path class="cls-2" d="M150.26,72.29c0,2.11-.18,4.18-.31,6.29h20.34s0,2-.14,2.8c-.63,13.54-1.39,19-3.19,21.14a7.34,7.34,0,0,1-5.31,2.57,54.44,54.44,0,0,1-7.88.13,14.69,14.69,0,0,0-2.34-6.43c3,.27,6,.27,7.38.27a2.88,2.88,0,0,0,2.16-.63c1.08-1,1.76-5.18,2.21-13.55h-14c-1.39,8.1-4.63,15.57-12.78,20.7a19.33,19.33,0,0,0-4.72-5.4c11.11-6.39,11.34-17.37,11.65-27.89h-9.58V65.9h39.91v6.39Z"/><path class="cls-2" d="M217.41,64.32v41.4h-7.16v-2.43H185v2.43h-6.79V64.32Zm-7.16,32.89V71H185V97.21Zm-3.14-21.87V93h-19V75.34ZM200.54,81h-6.26V87.4h6.26Z"/></g></g></svg>