<svg xmlns="http://www.w3.org/2000/svg" viewBox="0 0 115 140"><defs><style>.cls-1{fill:#fccb00;}.cls-2{fill:#333;}.cls-3{fill:#f97a0b;}</style></defs><g id="レイヤー_2" data-name="レイヤー 2"><g id="design"><circle class="cls-1" cx="57.5" cy="82.5" r="57.5"/><path class="cls-2" d="M45.73,49.9Q53.5,44,65.07,44q10.14,0,15.56,4.6a15,15,0,0,1,5.43,12,22.94,22.94,0,0,1-.31,3.68,20.84,20.84,0,0,1-5.32,11A21.45,21.45,0,0,1,71.52,81v.41a14.93,14.93,0,0,1,7.17,5.06,14.11,14.11,0,0,1,2.56,8.65,22.17,22.17,0,0,1-.41,4.3,25,25,0,0,1-9.32,15.61q-7.57,6-19,6-10.95,0-17.24-4.81t-6.3-14.63c0-.89.14-2.49.41-4.81h17c-.13,1.09-.2,1.84-.2,2.25a7.25,7.25,0,0,0,2,5.53q2,1.93,6.14,1.94a9.6,9.6,0,0,0,7.37-3A10.68,10.68,0,0,0,64.46,96a5.92,5.92,0,0,0-2.81-5.48c-1.88-1.12-4.83-1.69-8.86-1.69H49.52l2.56-14.22h3.27q11.57,0,13.1-8.19a12,12,0,0,0,.21-1.84A5.66,5.66,0,0,0,67,60.14a7,7,0,0,0-4.86-1.54A8.45,8.45,0,0,0,55.86,61a12.59,12.59,0,0,0-3.27,5.83h-17Q38,55.84,45.73,49.9Z"/><path class="cls-3" d="M11.24,13.45a14.56,14.56,0,0,1-4,2.42,8.2,8.2,0,0,0,1.64.19A96.88,96.88,0,0,0,19,15.88a9.92,9.92,0,0,0-.7,2.22c-2.53.14-6.94.18-9.44.06s-4-.68-5.23-2.24c-.76.8-1.53,1.58-2.49,2.44L0,16.1a25.92,25.92,0,0,0,2.35-1.85V9.84H.3V7.66H4.55v6.39a3.85,3.85,0,0,0,2.57,1.8,13.31,13.31,0,0,0-1.67-1.4A12.29,12.29,0,0,0,9,12.85H5.19V11.1H8.44V9.78H5.77V8H8.44V7h2.2V8H13V7h2.26V8h2.73V9.78H15.21V11.1h3.35v1.75H14.67A30.45,30.45,0,0,1,18.52,15l-2.42.87a20.06,20.06,0,0,0-3.47-2.17l1.52-.86H9.5ZM2.81,5A13.55,13.55,0,0,0,.16,1.58L2,.38A14.46,14.46,0,0,1,4.83,3.67ZM9.22,2H5.45V.52h5.77V4.37H7.68v.42c0,.42.08.5.6.5H9.82c.4,0,.48-.12.56-.78a4.61,4.61,0,0,0,1.63.6c-.2,1.36-.73,1.73-1.93,1.73H8c-1.75,0-2.25-.45-2.25-2V2.85H9.22Zm1.42,9.08H13V9.78H10.64ZM15.77,2H11.89V.52h5.89V4.37H14.21v.4c0,.44.1.52.6.52h1.61c.4,0,.48-.12.56-.8a5.1,5.1,0,0,0,1.66.6c-.2,1.38-.72,1.75-2,1.75H14.53c-1.8,0-2.26-.45-2.26-2V2.85h3.5Z"/><path class="cls-3" d="M24.23,3.43a53.52,53.52,0,0,0-.93,7.73,9.6,9.6,0,0,0,.08,1.29c.25-.7.59-1.37.87-2l1.24,1c-.56,1.65-1.22,3.67-1.44,4.76a4,4,0,0,0-.1.92c0,.22,0,.56,0,.84l-2.23.16a23.24,23.24,0,0,1-.8-6.37,59.39,59.39,0,0,1,.84-8.32c.06-.56.16-1.31.18-1.95l2.75.22C24.55,2.06,24.31,3.07,24.23,3.43Zm10.1-.72c0,.44-.06,1.2-.06,2.08a28.75,28.75,0,0,0,3.11-.44V6.8c-1,.14-2,.26-3.13.34,0,1.94.14,3.54.22,4.89a12.89,12.89,0,0,1,3.87,2.58L37,16.7a20.66,20.66,0,0,0-2.46-2c-.1,1.91-1.18,3.27-3.89,3.27s-4.47-1.16-4.47-3.25,1.72-3.43,4.43-3.43a9.36,9.36,0,0,1,1.32.08c-.06-1.22-.14-2.68-.16-4.1l-1.42,0c-1.16,0-2.31,0-3.47-.12l0-2.37c1.14.1,2.29.16,3.49.16.46,0,.94,0,1.4,0,0-1,0-1.78,0-2.2a7.91,7.91,0,0,0-.14-1.31h2.85A12.72,12.72,0,0,0,34.33,2.71ZM30.38,15.63c1.24,0,1.66-.64,1.66-1.82v-.34a5.58,5.58,0,0,0-1.62-.24c-1.12,0-1.9.46-1.9,1.22S29.32,15.63,30.38,15.63ZM37.15,3.35l-1.4.46a21.53,21.53,0,0,0-1-2.75L36.09.64A21.67,21.67,0,0,1,37.15,3.35Zm2.09-.64-1.38.44A28.11,28.11,0,0,0,36.79.42L38.14,0A28.55,28.55,0,0,1,39.24,2.71Z"/><path class="cls-3" d="M44.57.64l2.91.1c-.12.56-.3,1.57-.44,2.81l.74,1c-.28.36-.68,1-1,1.54,0,.14,0,.28,0,.44,1.58-1.38,3.87-3,5.81-3a2.79,2.79,0,0,1,3.13,3c0,2.07-.66,5-.66,7.06,0,.52.26.9.76.9A4.15,4.15,0,0,0,58.36,13l.31,2.82a5.32,5.32,0,0,1-3.75,1.47c-1.49,0-2.49-1.08-2.49-3,0-2.16.72-5.09.72-6.91a1.29,1.29,0,0,0-1.36-1.47c-1.48,0-3.63,1.83-5.27,3.63,0,.56,0,1.1,0,1.62,0,1.63,0,3.31.12,5.18,0,.36.08,1.08.14,1.54H44c0-.46.06-1.16.06-1.48,0-1.55.06-2.71.08-4.39-.84,1.26-1.82,2.72-2.52,3.66L40,13.45c1.13-1.4,3.13-4,4.27-5.71,0-.46.08-.94.1-1.41l-3.64.47-.26-2.55a17.18,17.18,0,0,0,1.74,0c.58,0,1.46-.14,2.32-.26,0-.76.08-1.32.08-1.54A11,11,0,0,0,44.57.64Z"/><path class="cls-3" d="M64.49,1.72c1.06,0,5.33-.08,6.47-.18a8.39,8.39,0,0,0,1.51-.22l1.3,1.77c-.46.3-.94.58-1.39.92C71.3,4.77,69.2,6.53,68,7.52a7.68,7.68,0,0,1,1.89-.22c3.39,0,6,2.12,6,5,0,3.16-2.4,5.65-7.23,5.65-2.77,0-4.87-1.28-4.87-3.27a3.35,3.35,0,0,1,3.58-3.12A4,4,0,0,1,71.54,15a2.91,2.91,0,0,0,1.65-2.72c0-1.79-1.79-3-4.15-3C66,9.28,64,10.9,61.86,13.33L60,11.45c1.42-1.13,3.83-3.17,5-4.15s3.19-2.59,4.17-3.45c-1,0-3.77.14-4.83.2-.54,0-1.17.1-1.63.16l-.08-2.59A13.73,13.73,0,0,0,64.49,1.72Zm3.59,14a10.44,10.44,0,0,0,1.16-.06c-.12-1.3-.86-2.14-1.93-2.14-.76,0-1.24.46-1.24,1C66.07,15.21,66.89,15.71,68.08,15.71Z"/><path class="cls-3" d="M84.66,15c-2.2.78-4.59,1.53-6.51,2.15l-.53-2.41c.69-.18,1.51-.4,2.43-.66V9.36H78V7.18h2V3.67h-2.2V1.46h6.59V3.67H82.3V7.18h1.8V9.36H82.3v4c.66-.2,1.32-.4,2-.62Zm11.85,1.21v2.16H83.68V16.18h5.51V14.29H85.06V12.15h4.13V10.44h-4V1.16H95.62v9.28h-4v1.71h4.24v2.14H91.6v1.89ZM87.33,4.85h2.06V3.17H87.33Zm0,3.57h2.06V6.71H87.33Zm6-5.25h-2V4.85h2Zm0,3.54h-2V8.42h2Z"/><path class="cls-3" d="M115,4.11V18.94h-2.49v-1H101.45V19H99.08V4.11h6.6V.34h2.46V4.11Zm-13.55,2.4V9.84h4.23V6.51Zm0,9h4.23v-3.4h-4.23Zm6.69-9V9.84h4.37V6.51Zm4.37,9v-3.4h-4.37v3.4Z"/></g></g></svg>