<svg xmlns="http://www.w3.org/2000/svg" viewBox="0 0 698.41 73.62"><defs><style>.cls-1{fill:#e75513;}.cls-2{fill:#fff;}</style></defs><g id="レイヤー_2" data-name="レイヤー 2"><g id="bg"><path class="cls-1" d="M9.27,4.92a29.65,29.65,0,0,0,3.38-.8l.1,2.9a43.08,43.08,0,0,1-4.38.88A46,46,0,0,1,3,18.6L0,17.05A39.61,39.61,0,0,0,5.1,8.22c-.45,0-.88,0-1.3,0-1,0-2,0-3.13-.1L.45,5.25a32.82,32.82,0,0,0,3.32.17,22.1,22.1,0,0,0,2.28-.1,20.9,20.9,0,0,0,.67-4.17l3.45.35C10,2.3,9.65,3.57,9.27,4.92ZM16,12.47c0,.73.1,1.93.15,3.18a16.26,16.26,0,0,1,5.17,3.2l-1.67,2.67a20.85,20.85,0,0,0-3.37-2.67v.25c0,2.32-1.28,4.12-4.83,4.12-3.1,0-5.55-1.38-5.55-4.12,0-2.45,2.05-4.33,5.53-4.33.6,0,1.15.05,1.72.1-.1-1.85-.22-4.07-.27-5.6H16C16,10.32,16,11.37,16,12.47Zm-5,7.87c1.73,0,2.25-.94,2.25-2.32v-.5a8.94,8.94,0,0,0-2-.25c-1.45,0-2.38.65-2.38,1.53S9.65,20.34,11,20.34Zm3.3-13.29,1.6-2.48A43.71,43.71,0,0,1,22.09,8L20.32,10.6A35.74,35.74,0,0,0,14.32,7.05Z"/><path class="cls-1" d="M44.6,4.57c0,1-.05,1.88-.08,2.73.7-.08,1.33-.1,1.9-.15s1.68-.1,2.4-.18v3.08c-.42,0-1.75,0-2.4,0s-1.22,0-2,.1a42.37,42.37,0,0,1-.37,5c-.25,1.33-.88,1.65-2.18,1.65a31.94,31.94,0,0,1-3.75-.37l.08-2.73a18.42,18.42,0,0,0,2.3.28c.5,0,.72-.08.77-.55a26.94,26.94,0,0,0,.2-3c-2.22.2-4.67.42-6.8.65,0,2.27,0,4.57,0,5.65.05,2.47.28,3,4,3a46.91,46.91,0,0,0,7.47-.65l-.12,3.4a70.66,70.66,0,0,1-7.13.42c-6.5,0-7.25-1.37-7.37-5.69,0-1.08,0-3.48,0-5.8l-1.67.17c-.8.1-2.35.3-3,.43l-.33-3.2c.7,0,1.87-.05,3.15-.15l1.9-.18V6a19.62,19.62,0,0,0-.2-2.78h3.52a16.87,16.87,0,0,0-.15,2.6c0,.58,0,1.43,0,2.4,2.1-.2,4.55-.45,6.82-.62V4.72a21.49,21.49,0,0,0-.17-2.3h3.35C44.7,2.8,44.62,3.92,44.6,4.57ZM48,5.92l-1.73.58A26.78,26.78,0,0,0,45,3.05l1.7-.55A30.12,30.12,0,0,1,48,5.92Zm2.62-.87-1.7.55a32.16,32.16,0,0,0-1.35-3.43l1.7-.52A29.64,29.64,0,0,1,50.62,5.05Z"/><path class="cls-1" d="M54.6,17.82l2.6-2.25A46.06,46.06,0,0,1,62.65,21L60,23.34A49.32,49.32,0,0,0,54.6,17.82Z"/><path class="cls-1" d="M103.26,12.27c-3,7.43-10.2,10.37-18.77,11.55a11.46,11.46,0,0,0-1.25-2.73A32.28,32.28,0,0,0,93,18.72a26.53,26.53,0,0,0-3.67-2.62,31.05,31.05,0,0,1-3.58,1.5,8.6,8.6,0,0,0-1.82-2.3c4.8-1.45,8.2-3.6,10.19-5.78A33.07,33.07,0,0,1,82.52,14a10.53,10.53,0,0,0-1.38-2.55A33.55,33.55,0,0,0,89.57,9a29.73,29.73,0,0,0-3.35-2.15,26.34,26.34,0,0,1-2.88,1.3,10.41,10.41,0,0,0-2-2.2A19.93,19.93,0,0,0,90.57.38l3.22.67c-.38.42-.78.85-1.2,1.27h5l.5-.12L100,3.3A17.19,17.19,0,0,1,94.84,9l3,.7a18.57,18.57,0,0,1-1.55,1.65h4.47l.5-.12ZM89.64,4.77c-.3.23-.6.43-.92.65A20.8,20.8,0,0,1,92.17,7.6a15.9,15.9,0,0,0,3.44-2.83Zm3.6,9.08c-.43.3-.85.57-1.32.85a21.75,21.75,0,0,1,3.74,2.55,12.15,12.15,0,0,0,3.45-3.4Z"/><path class="cls-1" d="M121.66,5.32c-1.63,1.3-4.93,3.85-6.6,5.28-1.32,1.15-1.3,1.42,0,2.6,1.87,1.57,6.62,5.32,9.17,7.79l-2.92,2.68c-.7-.78-1.43-1.58-2.18-2.33-1.52-1.57-5.19-4.69-7.47-6.64-2.5-2.13-2.3-3.45.2-5.55,2-1.6,5.4-4.38,7.07-6A17.42,17.42,0,0,0,120.91,1l2.92,2.58C123.06,4.2,122.23,4.85,121.66,5.32Z"/><path class="cls-1" d="M142.45,22.79l-1.87-3a19,19,0,0,0,2.32-.4c3.2-.75,5.7-3.05,5.7-6.7,0-3.45-1.87-6-5.25-6.6a49.69,49.69,0,0,1-1.5,6.78c-1.5,5-3.64,8.14-6.37,8.14s-5.07-3-5.07-7.27c0-5.77,5-10.7,11.47-10.7,6.2,0,10.1,4.3,10.1,9.75C152,18.1,148.75,21.82,142.45,22.79Zm-6.87-5.59c1,0,2-1.58,3-4.95a37.64,37.64,0,0,0,1.33-6,7.86,7.86,0,0,0-6.35,7.25C133.61,16,134.61,17.2,135.58,17.2Z"/><path class="cls-1" d="M167,7.27c-.07,1.08-.15,2.18-.27,3.25h9.65s0,.9-.1,1.3c-.45,6.8-1,9.6-2,10.7a3.68,3.68,0,0,1-2.7,1.15,35.16,35.16,0,0,1-4.27,0,6.94,6.94,0,0,0-1.05-2.93,41.53,41.53,0,0,0,4.2.18,1.58,1.58,0,0,0,1.2-.33c.65-.55,1.1-2.72,1.45-7.27h-6.88a14.67,14.67,0,0,1-8,10.65,9.26,9.26,0,0,0-2.1-2.53c6.75-3.12,7.32-8.82,7.6-14.17h-7.15V4.42h9.57V.35h3.08V4.42h9.87V7.27Z"/><path class="cls-1" d="M188.59,4.7a66.89,66.89,0,0,0-1.2,9.17,13,13,0,0,0,.1,1.63c.38-.85.78-1.73,1.13-2.55l1.55,1.22c-.7,2.08-1.53,4.8-1.8,6.12a7.15,7.15,0,0,0-.13,1.18c0,.27,0,.67,0,1l-2.9.2a31.92,31.92,0,0,1-1-8.17,69.06,69.06,0,0,1,1.05-9.9c.07-.7.22-1.65.25-2.45l3.5.3C189,3,188.69,4.25,188.59,4.7Zm6.17,12.22c0,1.1,1,1.78,3.5,1.78a29.57,29.57,0,0,0,6.28-.65l.05,3.37a35.56,35.56,0,0,1-6.45.47c-4.3,0-6.37-1.52-6.37-4.09a15.48,15.48,0,0,1,.42-3.25l2.87.27A8.55,8.55,0,0,0,194.76,16.92Zm9.05-12.8V7.35a67.69,67.69,0,0,1-10.75,0V4.15A51.39,51.39,0,0,0,203.81,4.12Z"/><path class="cls-1" d="M219.09,3.5c0,.55-.05,1.15-.07,1.77a29.86,29.86,0,0,0,4.59-.9l.08,3.1c-1.43.33-3.15.58-4.77.78,0,.75,0,1.52,0,2.25v.92a21,21,0,0,1,4.8-.65c3.85,0,6.87,2,6.87,5.45,0,3-1.55,5.17-5.52,6.17a22.18,22.18,0,0,1-3.28.4l-1.15-3.22a20.61,20.61,0,0,0,3.08-.17c2-.38,3.62-1.38,3.62-3.2s-1.5-2.7-3.67-2.7a16.83,16.83,0,0,0-4.7.7c.05,2,.1,3.92.1,4.77,0,3.1-1.1,3.92-2.75,3.92-2.42,0-5.85-2.1-5.85-4.74,0-2.18,2.5-4.45,5.58-5.78,0-.6,0-1.2,0-1.77V8.5c-.47,0-.92.05-1.32.05a30.32,30.32,0,0,1-3.5-.13l0-3a28.68,28.68,0,0,0,3.45.2c.45,0,1,0,1.45,0,0-.88,0-1.6,0-2a21.59,21.59,0,0,0-.17-2.2h3.45C219.24,1.77,219.14,2.85,219.09,3.5Zm-3.75,16c.45,0,.8-.2.8-1,0-.62,0-1.77-.07-3.12-1.53.82-2.55,1.85-2.55,2.72S214.69,19.47,215.34,19.47ZM232.59,7.55l-1.5,2.55a39.43,39.43,0,0,0-6-3.65L226.44,4A53.79,53.79,0,0,1,232.59,7.55Z"/><path class="cls-1" d="M250.3,17.4a18.25,18.25,0,0,1-5,3,9.83,9.83,0,0,0,2.05.25A121.45,121.45,0,0,0,260,20.44a12.52,12.52,0,0,0-.87,2.78c-3.18.17-8.7.22-11.82.07s-5.05-.85-6.55-2.79c-.95,1-1.93,2-3.13,3l-1.4-2.82a37.16,37.16,0,0,0,3-2.32V12.87h-2.57V10.15h5.32v8a4.88,4.88,0,0,0,3.23,2.25,17.71,17.71,0,0,0-2.1-1.75,15.47,15.47,0,0,0,4.42-2h-4.75v-2.2h4.08V12.8h-3.35V10.62h3.35V9.3h2.74v1.32h2.9V9.3h2.83v1.32h3.42V12.8h-3.42v1.65h4.2v2.2H254.6a36.93,36.93,0,0,1,4.83,2.7l-3,1.09a25.24,25.24,0,0,0-4.35-2.72l1.9-1.07h-5.82ZM239.76,6.8a17.42,17.42,0,0,0-3.33-4.28L238.78,1a17.78,17.78,0,0,1,3.5,4.13Zm8-3.73h-4.72V1.2h7.22V6h-4.42v.53c0,.52.1.62.74.62h1.93c.5,0,.6-.15.7-1a6,6,0,0,0,2.05.75c-.25,1.7-.93,2.17-2.43,2.17h-2.62c-2.2,0-2.82-.57-2.82-2.57V4.12h4.37Zm1.77,11.38h2.9V12.8h-2.9ZM256,3.07h-4.85V1.2h7.37V6H254v.5c0,.55.12.65.75.65h2c.5,0,.6-.15.7-1a6.18,6.18,0,0,0,2.08.75c-.25,1.73-.9,2.2-2.48,2.2h-2.67c-2.25,0-2.83-.57-2.83-2.57V4.12H256Z"/><path class="cls-1" d="M266,4.15a39.36,39.36,0,0,0,8.17-1.25l.95,2.77a11.35,11.35,0,0,0-1.27.55c-1.7,1.28-5.08,5.15-5.08,10,0,2.93,1.9,4.08,4.3,4.08,5.5,0,7.27-5.88,5.35-14.93-.18-.5-.35-1-.53-1.55L281,2.9a17.16,17.16,0,0,0,5.35,10.62l-2,2.88a21.56,21.56,0,0,1-2.78-3.85c.35,5.7-1.6,11-8.57,11-4,0-7.45-2.2-7.45-6.72,0-4.05,1.68-7.1,4-10.07-.95.1-2.52.27-3.27.37l-1.48.23-.22-3.25C265,4.17,265.51,4.17,266,4.15Zm18.74,1-1.87.63a28.59,28.59,0,0,0-1.45-3.65l1.87-.58C283.73,2.55,284.38,4.1,284.73,5.12Zm2.78-1-1.88.63a33,33,0,0,0-1.47-3.6L286,.57A35.51,35.51,0,0,1,287.51,4.17Z"/><path class="cls-1" d="M296.33,6.8c0,1.62,0,3.5.15,5.3.35,3.6,1.1,6.07,2.67,6.07,1.18,0,2.18-2.92,2.65-4.92l2.5,3.05c-1.65,4.35-3.22,5.87-5.22,5.87-2.75,0-5.13-2.47-5.83-9.17C293,10.7,293,7.77,293,6.25a15.16,15.16,0,0,0-.2-2.55l3.85,0A19.6,19.6,0,0,0,296.33,6.8Zm17.34,10.47-3.27,1.28c-.4-4-1.73-10.1-4.45-13.2l3.17-1C311.5,7.2,313.4,13.45,313.67,17.27Z"/><path class="cls-1" d="M327.49,4c-.05.28-.13.6-.2,1,1.4-.2,2.8-.47,4.17-.8V7.3a46.17,46.17,0,0,1-4.87.82c-.23,1.08-.48,2.18-.75,3.2a77.43,77.43,0,0,1-4,11.57l-3.47-1.17a53.85,53.85,0,0,0,4.32-11.25c.18-.67.38-1.37.53-2.1-.58,0-1.13.05-1.65.05-1.2,0-2.15-.05-3-.1l-.07-3.12a24.63,24.63,0,0,0,3.15.2c.72,0,1.47,0,2.25-.08.1-.55.17-1,.22-1.42a13.33,13.33,0,0,0,.08-2.53l3.82.3C327.81,2.35,327.59,3.47,327.49,4Zm3,13.58c0,1.1.75,1.92,3.42,1.92a29.75,29.75,0,0,0,5.2-.52L339,22.19a38.93,38.93,0,0,1-5.09.35c-4.2,0-6.48-1.45-6.48-4a17.48,17.48,0,0,1,.45-3.35l3,.3A8.6,8.6,0,0,0,330.49,17.6ZM334.29,9c1.42,0,2.92.08,4.4.23l-.08,3a36.57,36.57,0,0,0-4.3-.3,41.66,41.66,0,0,0-4.82.25V9.22C330.89,9.1,332.69,9,334.29,9Z"/><path class="cls-1" d="M353.64,4.32c-.05.28-.13.6-.2.93,1.39-.2,2.82-.48,4.19-.8V7.57a45.68,45.68,0,0,1-4.87.83c-.22,1.07-.47,2.2-.75,3.22a79.75,79.75,0,0,1-4,11.57L344.56,22a54.85,54.85,0,0,0,4.33-11.25c.17-.67.35-1.4.52-2.1-.57,0-1.12.05-1.65.05-1.22,0-2.15-.05-3-.1l-.08-3.12a24.52,24.52,0,0,0,3.15.2c.73,0,1.48,0,2.25-.08.1-.55.18-1,.23-1.42a12.6,12.6,0,0,0,.07-2.55l3.83.3C354,2.65,353.74,3.77,353.64,4.32Zm3,13.55c0,1.1.75,1.92,3.42,1.92a29.63,29.63,0,0,0,5.2-.49l-.12,3.17a36,36,0,0,1-5.1.37c-4.2,0-6.47-1.45-6.47-4a17.13,17.13,0,0,1,.42-3.35l3,.28A8.69,8.69,0,0,0,356.66,17.87Zm3.8-8.6c1.42,0,2.92.08,4.4.23l-.08,3a36.21,36.21,0,0,0-4.3-.33,37.31,37.31,0,0,0-4.82.28V9.52A47.58,47.58,0,0,1,360.46,9.27Zm3.7-3.17-2,.87a29,29,0,0,0-2-3.47l2-.83A33.56,33.56,0,0,1,364.16,6.1Zm3-1.15-2,.85a25.92,25.92,0,0,0-2-3.45l2-.8A26.93,26.93,0,0,1,367.16,5Z"/><path class="cls-1" d="M382.78,9.12c-.13-.3-.23-.6-.33-.87-.2-.58-.35-1-.5-1.48a57.6,57.6,0,0,1-8.42-.22l-.18-2.88a52.83,52.83,0,0,0,7.83.38c-.25-.8-.5-1.6-.8-2.48l3.35-.37c.12.9.27,1.77.45,2.62a28.31,28.31,0,0,0,4.92-1.07l.4,2.87a36.24,36.24,0,0,1-4.6.93c.13.4.25.8.38,1.17s.27.73.42,1.13a33.18,33.18,0,0,0,4.78-1l.5,3a33.56,33.56,0,0,1-4,.77,21.88,21.88,0,0,0,1.3,2.23,7.34,7.34,0,0,0,1.12,1.27l-1.52,2.3c-1.4-.27-4.1-.6-5.93-.8l.25-2.37,3.15.3c-.52-.88-1-1.75-1.4-2.6a91.87,91.87,0,0,1-10.87,0l-.18-2.95A63.5,63.5,0,0,0,382.78,9.12ZM376.6,17.5c0,1.85,1.75,2.6,5,2.6a32.1,32.1,0,0,0,6.28-.56l-.18,3.18a38.36,38.36,0,0,1-6.07.47c-5,0-8.1-1.47-8.15-5a8.37,8.37,0,0,1,1.07-4l3.1.6A4.71,4.71,0,0,0,376.6,17.5Z"/><path class="cls-1" d="M397.76,17.82l2.59-2.25A45.32,45.32,0,0,1,405.8,21l-2.67,2.3A50.22,50.22,0,0,0,397.76,17.82Z"/><path class="cls-1" d="M429.5,16.82c0,1.63,1.52,2.75,5.12,2.75a35.62,35.62,0,0,0,8.77-1l0,3.49a38.06,38.06,0,0,1-8.67.88c-5.73,0-8.6-1.93-8.6-5.37a18.7,18.7,0,0,1,.47-3.6l3.3.3A9.35,9.35,0,0,0,429.5,16.82Zm15-12.27-2,.87c-.17-.37-.4-.8-.62-1.22V7c-1.75.12-4.85.3-7.22.3-2.63,0-4.8-.13-6.83-.28V3.7a60,60,0,0,0,6.8.32c2.37,0,5.07-.15,7-.32a18.55,18.55,0,0,0-1.08-1.78l2-.8A38.65,38.65,0,0,1,444.52,4.55Zm3-1.15-2,.85a27.12,27.12,0,0,0-2-3.45l2-.8A34.57,34.57,0,0,1,447.52,3.4Z"/><path class="cls-1" d="M455.63,12.12a19.2,19.2,0,0,0-4.45-2.45l1.57-2.25a16.33,16.33,0,0,1,4.53,2.2Zm-3.82,9.62a79.56,79.56,0,0,0,4-8l2.35,1.77c-1.13,2.68-2.43,5.55-3.73,8ZM454.13.65a20,20,0,0,1,4.3,2.65l-1.85,2.35a17.28,17.28,0,0,0-4.2-2.85Zm13.32,8.87V11H474v9.92c0,1.3-.25,2-1.1,2.38a9.42,9.42,0,0,1-3.74.42,8,8,0,0,0-.68-2.47c.93.05,2,.05,2.33.05s.42-.13.42-.4V13.6h-4.12v4h1.22v-3h1.73v5.92h-1.73v-.82h-4.52v1.45h-1.78V14.62h1.78v3H465v-4H461V23.77H458.4V11h6.2V9.52h-7V6.92h4V5.07h-3.2V2.5h3.2v-2h2.77v2h3.35v-2h2.88v2h3.24V5.07h-3.24V6.92h3.94v2.6Zm-3.05-2.6h3.35V5.07H464.4Z"/><path class="cls-1" d="M492.27,20.42a24,24,0,0,0,3.88.27c1.07,0,4.77,0,6.15,0a10.89,10.89,0,0,0-1,2.87H496c-5,0-8.89-.9-11.49-4.72a12.63,12.63,0,0,1-3.43,4.9,12.25,12.25,0,0,0-2.1-2c2.7-2.12,3.8-6.19,4.15-9.59l3.1.35c-.15,1-.35,2-.6,3a7.58,7.58,0,0,0,3.6,4V10.6H482V1.5h17.59v9.1h-7.35v3.07h8.15v2.75h-8.15ZM485,7.77h11.45V4.35H485Z"/><path class="cls-1" d="M510.33,6.8c0,1.62,0,3.5.15,5.3.35,3.6,1.1,6.07,2.68,6.07,1.17,0,2.17-2.92,2.65-4.92l2.5,3.05c-1.65,4.35-3.23,5.87-5.23,5.87-2.75,0-5.12-2.47-5.82-9.17C507,10.7,507,7.77,507,6.25a15.16,15.16,0,0,0-.2-2.55l3.85,0A20.9,20.9,0,0,0,510.33,6.8Zm17.35,10.47-3.27,1.28c-.4-4-1.73-10.1-4.45-13.2l3.17-1C525.5,7.2,527.4,13.45,527.68,17.27Z"/><path class="cls-1" d="M541.5,4c0,.28-.13.6-.21,1,1.4-.2,2.8-.47,4.18-.8V7.3a46.17,46.17,0,0,1-4.87.82c-.23,1.08-.48,2.18-.75,3.2a77.43,77.43,0,0,1-4,11.57l-3.47-1.17a53.85,53.85,0,0,0,4.32-11.25c.18-.67.38-1.37.53-2.1-.58,0-1.13.05-1.65.05-1.2,0-2.15-.05-3-.1L532.5,5.2a24.63,24.63,0,0,0,3.15.2c.72,0,1.47,0,2.25-.08.1-.55.17-1,.22-1.42a13.33,13.33,0,0,0,.08-2.53l3.82.3C541.82,2.35,541.6,3.47,541.5,4Zm3,13.58c0,1.1.75,1.92,3.43,1.92a29.84,29.84,0,0,0,5.2-.52L553,22.19a39.23,39.23,0,0,1-5.1.35c-4.2,0-6.47-1.45-6.47-4a17.48,17.48,0,0,1,.45-3.35l3,.3A8.6,8.6,0,0,0,544.49,17.6ZM548.29,9a43.83,43.83,0,0,1,4.4.23l-.07,3a36.73,36.73,0,0,0-4.3-.3,42,42,0,0,0-4.83.25V9.22C544.89,9.1,546.69,9,548.29,9Z"/><path class="cls-1" d="M567.64,4.32c0,.28-.12.6-.2.93,1.4-.2,2.83-.48,4.2-.8V7.57a46.12,46.12,0,0,1-4.87.83c-.23,1.07-.48,2.2-.75,3.22a81,81,0,0,1-4,11.57L558.57,22a54.29,54.29,0,0,0,4.32-11.25c.18-.67.35-1.4.53-2.1-.58,0-1.13.05-1.65.05-1.23,0-2.15-.05-3-.1l-.07-3.12a24.41,24.41,0,0,0,3.15.2c.72,0,1.47,0,2.25-.08.1-.55.17-1,.22-1.42a13.5,13.5,0,0,0,.08-2.55l3.82.3C568,2.65,567.74,3.77,567.64,4.32Zm3,13.55c0,1.1.75,1.92,3.42,1.92a29.63,29.63,0,0,0,5.2-.49l-.12,3.17a36,36,0,0,1-5.1.37c-4.2,0-6.48-1.45-6.48-4a17.1,17.1,0,0,1,.43-3.35l3,.28A8.69,8.69,0,0,0,570.67,17.87Zm3.8-8.6a43.79,43.79,0,0,1,4.39.23l-.07,3a36.21,36.21,0,0,0-4.3-.33,37.31,37.31,0,0,0-4.82.28V9.52A47.58,47.58,0,0,1,574.47,9.27Zm3.7-3.17-2,.87a29,29,0,0,0-1.95-3.47l2-.83A33.56,33.56,0,0,1,578.17,6.1Zm3-1.15-2,.85a25.92,25.92,0,0,0-2-3.45l2-.8A26.82,26.82,0,0,1,581.16,5Z"/><path class="cls-1" d="M590.3,4.2c-.63,2.77-1.5,8-.83,11.12.33-.77.78-2,1.2-2.9l1.55,1c-.72,2.15-1.4,4.68-1.7,6.1a5.63,5.63,0,0,0-.15,1.22c0,.25,0,.68,0,1l-2.77.27A27.09,27.09,0,0,1,586.22,14,70.36,70.36,0,0,1,587,4a17,17,0,0,0,.18-2.17l3.7.37A17.43,17.43,0,0,0,590.3,4.2Zm12.9-.75v3.2a32.83,32.83,0,0,0,3.74-.45l0,3.25c-1,.12-2.3.22-3.7.3V10.8c0,5.9-.45,9.52-5.45,12.69l-2.87-2.27a9.7,9.7,0,0,0,2.9-2c1.92-2,2.32-4.22,2.32-8.45v-.9c-1,0-1.87.05-2.8.05s-2.62-.07-3.85-.12V6.62a25.65,25.65,0,0,0,3.78.28c.9,0,1.87,0,2.82-.05,0-1.4-.05-2.7-.1-3.38a12,12,0,0,0-.27-1.72h3.62C603.25,2.3,603.22,2.9,603.2,3.45Z"/><path class="cls-1" d="M616.56,2.7c1.33,0,6.68-.1,8.1-.23a11,11,0,0,0,1.9-.27l1.63,2.22c-.58.38-1.18.73-1.75,1.15-1.35.95-4,3.15-5.55,4.4a9.69,9.69,0,0,1,2.37-.27c4.25,0,7.47,2.65,7.47,6.3,0,3.94-3,7.07-9,7.07-3.48,0-6.1-1.6-6.1-4.1a4.19,4.19,0,0,1,4.47-3.9,5,5,0,0,1,5.33,4.28,3.64,3.64,0,0,0,2.07-3.4c0-2.25-2.25-3.78-5.2-3.78-3.82,0-6.32,2-9,5.08L611,14.9c1.77-1.43,4.8-4,6.27-5.2s4-3.25,5.23-4.33c-1.28,0-4.73.18-6,.25-.68,0-1.48.13-2.05.2l-.1-3.25A17.28,17.28,0,0,0,616.56,2.7Zm4.5,17.52c.53,0,1,0,1.45-.07-.15-1.63-1.07-2.68-2.42-2.68-1,0-1.55.58-1.55,1.2C618.54,19.6,619.56,20.22,621.06,20.22Z"/><path class="cls-1" d="M648.8,22.79l-1.88-3a19.5,19.5,0,0,0,2.33-.4c3.2-.75,5.7-3.05,5.7-6.7,0-3.45-1.88-6-5.25-6.6a51.24,51.24,0,0,1-1.5,6.78c-1.5,5-3.65,8.14-6.38,8.14s-5.07-3-5.07-7.27c0-5.77,5-10.7,11.47-10.7,6.2,0,10.1,4.3,10.1,9.75C658.32,18.1,655.1,21.82,648.8,22.79Zm-6.88-5.59c1.05,0,2-1.58,3.05-4.95a37.64,37.64,0,0,0,1.33-6A7.86,7.86,0,0,0,640,13.45C640,16,641,17.2,641.92,17.2Z"/><path class="cls-1" d="M673.13,4c-.17.75-.35,1.67-.53,2.57.83,0,1.58-.1,2.1-.1,2.65,0,4.53,1.18,4.53,4.78,0,3-.35,7-1.43,9.17-.82,1.75-2.22,2.3-4.09,2.3a16.56,16.56,0,0,1-3-.35l-.55-3.3a14.25,14.25,0,0,0,3.07.52,1.84,1.84,0,0,0,1.87-1.07c.68-1.42,1-4.45,1-6.92,0-2-.85-2.28-2.42-2.28-.4,0-1,.05-1.72.1-1,3.8-2.8,9.73-5.1,13.4l-3.25-1.3c2.42-3.27,4.15-8.32,5-11.75l-2.15.25c-.7.13-2,.3-2.78.43l-.3-3.4a26.62,26.62,0,0,0,2.68,0c.77,0,1.95-.1,3.22-.2a28.19,28.19,0,0,0,.53-5.3l3.72.37C673.43,2.52,673.25,3.32,673.13,4Zm13.45,9.57L683.4,15c-.65-2.78-2.42-7.3-4.2-9.5l3-1.28A43.32,43.32,0,0,1,686.58,13.52Z"/><path class="cls-1" d="M698.41,19.47a4,4,0,1,1-4-4A4.05,4.05,0,0,1,698.41,19.47Zm-1.8,0a2.24,2.24,0,1,0-2.25,2.25A2.24,2.24,0,0,0,696.61,19.47Z"/><path class="cls-2" d="M209.35,52.85c1.07,0,6-.23,7.5-.4a8.72,8.72,0,0,0,1.52-.28L220,54a14.52,14.52,0,0,0-1.6,1.12c-1.83,1.48-4.95,4.1-6.83,5.58,3.6-.38,7.95-.7,11.3-.7l0,2.35a39.78,39.78,0,0,0-6.4.07c-2.35.35-4.55,2.23-4.55,4.43s1.82,3.09,4.1,3.4a18.22,18.22,0,0,0,3.67,0l-.52,2.6c-6.23.25-9.73-1.65-9.73-5.64a5.8,5.8,0,0,1,2.43-4.38c-2.5.2-5.6.58-8.4,1.05l-.22-2.37c1.35-.13,3.07-.35,4.35-.5a95.3,95.3,0,0,0,7.72-6.28c-1.08.08-4.88.25-5.93.33-.65,0-1.42.15-2.07.2l-.12-2.55A21.1,21.1,0,0,0,209.35,52.85Z"/><path class="cls-2" d="M231.93,66.8c0,1.77,1.75,3,5.57,3a31.87,31.87,0,0,0,8.65-1l0,2.75a36,36,0,0,1-8.57.87c-5.37,0-8.27-1.77-8.27-5a15.13,15.13,0,0,1,.5-3.53l2.57.23A8.87,8.87,0,0,0,231.93,66.8Zm5.67-12.68c2.43,0,5.12-.17,7-.35v2.6c-1.72.13-4.62.3-6.94.3-2.55,0-4.73-.12-6.73-.27V53.8A58.7,58.7,0,0,0,237.6,54.12Z"/><path class="cls-2" d="M256.83,54.57A60.57,60.57,0,0,0,255.61,64a24.58,24.58,0,0,0,.15,2.67c.43-1,.93-2.25,1.32-3.17l1.25,1c-.64,1.9-1.52,4.57-1.77,5.82a4.84,4.84,0,0,0-.12,1.15c0,.25,0,.62.05.92l-2.28.15a31.73,31.73,0,0,1-.92-8.07,73.06,73.06,0,0,1,1.07-10,19.45,19.45,0,0,0,.23-2.08l2.77.25C257.19,53.12,256.94,54.12,256.83,54.57Zm6,12.53c0,1.12.87,2.05,3.9,2.05a26.54,26.54,0,0,0,6.22-.68l.05,2.67a34.24,34.24,0,0,1-6.32.5c-4.25,0-6.2-1.47-6.2-3.89a12.7,12.7,0,0,1,.42-3.08l2.25.2A8.92,8.92,0,0,0,262.81,67.1Zm9.4-12.63V57a63.23,63.23,0,0,1-10.48,0l0-2.55A46.07,46.07,0,0,0,272.21,54.47Z"/><path class="cls-2" d="M282.73,54.37a65.58,65.58,0,0,0-1.23,9.9,16.36,16.36,0,0,0,.2,2.68c.35-1,.9-2.28,1.3-3.2l1.25,1c-.67,1.9-1.52,4.45-1.8,5.72a6.92,6.92,0,0,0-.12,1.15c0,.25.05.63.07.93l-2.22.17a28.92,28.92,0,0,1-1-7.94,76.8,76.8,0,0,1,1.1-10.48c.08-.62.18-1.42.2-2.07l2.73.25C283.08,52.9,282.83,53.92,282.73,54.37Zm12.62-.6c0,.63-.05,1.7-.08,2.85a37.16,37.16,0,0,0,4.15-.57v2.42c-1.3.2-2.7.38-4.15.48,0,2.5.2,4.75.28,6.67a16.54,16.54,0,0,1,4.92,3.23l-1.35,2.09a24.45,24.45,0,0,0-3.47-2.77v.13c0,2.29-1.1,4.27-4.58,4.27s-5.35-1.4-5.35-3.8,2-4,5.33-4a13.24,13.24,0,0,1,2,.15c-.1-1.75-.2-3.9-.25-5.85-.7,0-1.4,0-2.1,0-1.45,0-2.82-.07-4.27-.17l0-2.35a40.88,40.88,0,0,0,4.33.22c.7,0,1.37,0,2.07,0v-3a11.63,11.63,0,0,0-.15-1.6h2.83A13.55,13.55,0,0,0,295.35,53.77Zm-4.6,16.48c1.85,0,2.42-1,2.42-2.53v-.67a7.86,7.86,0,0,0-2.32-.35c-1.68,0-2.85.72-2.85,1.8S289.15,70.25,290.75,70.25Z"/><path class="cls-2" d="M313.71,68.5c-2.72,1-5.62,1.92-7.87,2.64l-.55-2.37c.9-.25,2-.55,3.2-.92V61.5h-2.7V59.35h2.7v-5h-2.95V52.22h7.95v2.15h-2.78v5h2.38V61.5h-2.38v5.65c.85-.28,1.75-.55,2.6-.85Zm14.77,2.17v2.12h-16V70.67h7.25v-3h-5.42V65.6h5.42V63h-5.2V51.77h12.8V63h-5.23V65.6h5.55v2.1h-5.55v3ZM316.69,56.45H320v-2.7h-3.27Zm0,4.6H320V58.32h-3.27Zm8.44-7.3h-3.19v2.7h3.19Zm0,4.57h-3.19v2.73h3.19Z"/><path class="cls-2" d="M353.85,55.42v18.1h-2.42V72.14H336.76v1.48h-2.33V55.42h8.4V50.67h2.38v4.75Zm-17.09,2.35v4.85h6.07V57.77Zm0,12.1h6.07v-5h-6.07Zm8.45-12.1v4.85h6.22V57.77Zm6.22,12.1v-5h-6.22v5Z"/><path class="cls-2" d="M368.94,53.87c-.15.78-.37,2-.6,3.15,1-.1,2-.15,2.53-.15,2.4,0,4.25,1,4.25,4.48,0,2.95-.38,7-1.43,9.07a3.73,3.73,0,0,1-3.85,2.2,13.77,13.77,0,0,1-3-.38l-.43-2.59a13.84,13.84,0,0,0,3.08.5A2,2,0,0,0,371.57,69c.75-1.57,1.1-4.75,1.1-7.35,0-2.15-1-2.52-2.55-2.52-.53,0-1.35,0-2.28.15-.92,3.67-2.69,9.45-5.17,13.44l-2.57-1c2.5-3.37,4.3-8.77,5.17-12.17-1.12.12-2.15.25-2.72.32s-1.8.23-2.48.35l-.25-2.7c.83.05,1.58,0,2.43,0s2.15-.12,3.54-.25a27.67,27.67,0,0,0,.6-5.37l2.93.3C369.19,52.67,369.07,53.32,368.94,53.87Zm10.95.88-1.6.67a43.77,43.77,0,0,1,4.13,8.45l-2.48,1.18a28.8,28.8,0,0,0-4.35-9.15l2.33-1a1.3,1.3,0,0,0,.1.15A23.89,23.89,0,0,0,376.24,52l1.63-.67A37,37,0,0,1,379.89,54.75Zm2.9-1.1-1.62.72a25.07,25.07,0,0,0-2.08-3.45l1.63-.67A36.86,36.86,0,0,1,382.79,53.65Z"/><path class="cls-2" d="M396.65,52.9c-.1.47-.2,1.05-.3,1.65A45.63,45.63,0,0,0,405,53.47l0,2.33a76.23,76.23,0,0,1-8.95.92c-.08.85-.15,1.78-.23,2.7a16.23,16.23,0,0,1,4-.55,5.78,5.78,0,0,1,.73,0,14,14,0,0,0,.3-1.63l2.45.6c-.15.33-.35,1-.53,1.4,3,.9,4.93,3.18,4.93,6,0,3.58-2.23,6.82-8.18,7.75l-1.35-2.08c4.65-.52,7.1-2.89,7.1-5.77a4.13,4.13,0,0,0-3.17-4,19.76,19.76,0,0,1-5.43,7.88c.18.69.4,1.34.6,2l-2.27.67c-.13-.37-.25-.77-.38-1.22a8.64,8.64,0,0,1-4.07,1.2,3,3,0,0,1-3.15-3.35c0-3.22,2.75-6.55,6.22-8.17.05-1.15.15-2.33.25-3.4h-1.22c-1.17,0-3.12-.13-4.2-.18l-.07-2.32a35.14,35.14,0,0,0,4.34.32h1.38c.05-.62.12-1.17.17-1.67s.08-1,.08-1.33l2.57.08C396.83,52.07,396.73,52.52,396.65,52.9ZM391.1,69.32a5.78,5.78,0,0,0,3-1.1,32,32,0,0,1-.55-5.65c-2.23,1.35-3.8,3.55-3.8,5.35C389.78,68.85,390.21,69.32,391.1,69.32Zm5-2.75a16.34,16.34,0,0,0,3.78-5.7h-.18a11.64,11.64,0,0,0-4,.7v.6A27.06,27.06,0,0,0,396.15,66.57Z"/><path class="cls-2" d="M417.62,57.92c1.1-2.27,3.5-5,6.53-5,3.39,0,5.92,3.35,5.92,8.73,0,7-4.35,10.17-10.72,11.34l-1.5-2.27c5.47-.85,9.57-2.87,9.57-9.07,0-3.9-1.32-6.45-3.7-6.45-3.05,0-5.82,4.5-6.05,7.8a12,12,0,0,0,.1,2.87l-2.45.18a32.52,32.52,0,0,1-.27-4,66.88,66.88,0,0,1,.72-8,19.56,19.56,0,0,0,.2-2.38l2.73.13A47.47,47.47,0,0,0,417.62,57.92Z"/><path class="cls-2" d="M448.43,53.32c0,.3,0,.78-.05,1.33A56.23,56.23,0,0,0,455,54v2.3c-1.85.22-4.18.45-6.6.55v3.1c2.47-.1,4.67-.33,6.85-.63l0,2.33c-2.3.27-4.37.45-6.77.55.05,1.15.13,2.35.18,3.47a20.05,20.05,0,0,1,7.17,3.83l-1.45,2.22A19.32,19.32,0,0,0,448.7,68c0,.53.05,1,.05,1.3,0,1.9-1.37,3.62-4.65,3.62-3.75,0-5.77-1.4-5.77-3.89s2.22-4,5.95-4c.65,0,1.25,0,1.85.1,0-1-.08-2-.1-2.92h-1.38c-1.6,0-4.37-.13-6.1-.33l0-2.35a48,48,0,0,0,6.17.45H446V56.9h-1c-1.65,0-4.65-.25-6.27-.45l0-2.28a45.43,45.43,0,0,0,6.28.55H446V53.2a8.22,8.22,0,0,0-.12-1.58h2.67C448.5,52.07,448.45,52.62,448.43,53.32Zm-4.65,17.4c1.4,0,2.47-.43,2.47-2,0-.35,0-.85,0-1.4a11.37,11.37,0,0,0-2.28-.23c-2.12,0-3.27.83-3.27,1.83S441.63,70.72,443.78,70.72Z"/><path class="cls-2" d="M475.4,53.5c0,.3,0,.75,0,1.25h7.5l-.05,2.35C481.35,57,479,57,475.35,57c0,1.35,0,2.8,0,3.93a6.19,6.19,0,0,1,.87,3.32c0,3.33-1.77,7.25-7.7,9l-2.12-2.1c2.95-.65,5.25-1.74,6.45-3.67a3.92,3.92,0,0,1-1.75.38,4.17,4.17,0,0,1-4.2-4.35,4.51,4.51,0,0,1,4.65-4.5,5.22,5.22,0,0,1,1.4.17c0-.65,0-1.4,0-2.12-3.8,0-7.89.2-11,.4l-.08-2.4c2.83,0,7.47-.18,11.05-.23,0-.55,0-1-.05-1.27-.08-.8-.15-1.58-.2-1.83h2.87A15.75,15.75,0,0,0,475.4,53.5Zm-3.85,12.12c1.3,0,2.28-1,1.95-3.37a2,2,0,0,0-1.95-1.2,2.25,2.25,0,0,0-2.27,2.35A2.19,2.19,0,0,0,471.55,65.62Z"/><path class="cls-2" d="M495.83,69.4a3.91,3.91,0,0,1-7.82,0,3.91,3.91,0,1,1,7.82,0Zm-1.5,0a2.4,2.4,0,1,0-2.4,2.39A2.4,2.4,0,0,0,494.33,69.4Z"/></g></g></svg>