<svg xmlns="http://www.w3.org/2000/svg" viewBox="0 0 650 299.88"><defs><style>.cls-1{fill:#ff0;}.cls-2{fill:#fff;}.cls-3{fill:none;stroke:#fff;stroke-miterlimit:10;stroke-width:1.42px;}.cls-4{fill:#e75513;}</style></defs><g id="レイヤー_2" data-name="レイヤー 2"><g id="bg"><path class="cls-1" d="M195,83.15a36.4,36.4,0,0,1-10.1,6,20.44,20.44,0,0,0,4.1.5,243.14,243.14,0,0,0,25.4-.45,24.8,24.8,0,0,0-1.75,5.55c-6.35.35-17.4.45-23.65.15-6-.25-10.1-1.7-13.1-5.6-1.9,2-3.85,4-6.25,6.1l-2.8-5.65a74.54,74.54,0,0,0,5.9-4.65V74.1h-5.15V68.65h10.65v16a9.62,9.62,0,0,0,6.45,4.5,35.42,35.42,0,0,0-4.2-3.5,30.89,30.89,0,0,0,8.85-4h-9.5v-4.4H188V74h-6.7V69.6H188V67h5.5V69.6h5.8V67H205V69.6h6.85V74H205v3.3h8.4v4.4h-9.75a74.86,74.86,0,0,1,9.65,5.4l-6,2.2a49.87,49.87,0,0,0-8.7-5.45l3.8-2.15H190.69ZM173.94,62c-1.1-2.45-4.1-6.05-6.65-8.55l4.7-3c2.6,2.4,5.75,5.75,7,8.25ZM190,54.5h-9.45V50.75H195V60.4h-8.85v1.05c0,1,.2,1.25,1.5,1.25h3.85c1,0,1.2-.3,1.4-2a11.67,11.67,0,0,0,4.1,1.5c-.5,3.4-1.85,4.35-4.85,4.35h-5.25c-4.4,0-5.65-1.15-5.65-5.15V56.6H190Zm3.55,22.75h5.8V74h-5.8ZM206.39,54.5h-9.7V50.75h14.75V60.4h-8.95v1c0,1.1.25,1.3,1.5,1.3h4c1,0,1.2-.3,1.4-2a12.75,12.75,0,0,0,4.15,1.5c-.5,3.45-1.8,4.4-5,4.4h-5.35c-4.5,0-5.65-1.15-5.65-5.15V56.6h8.75Z"/><path class="cls-1" d="M232.29,58.05a133.94,133.94,0,0,0-2.35,19.35,24.12,24.12,0,0,0,.2,3.25c.65-1.75,1.5-3.45,2.2-5.1l3.1,2.4c-1.4,4.15-3.05,9.2-3.6,12a10,10,0,0,0-.25,2.3c0,.55,0,1.4,0,2.1l-5.6.4a58.31,58.31,0,0,1-2-16c0-7.55,1.5-17,2.1-20.85.15-1.4.4-3.3.45-4.9l6.9.55C233.09,54.6,232.49,57.15,232.29,58.05Zm25.3-1.8c0,1.1-.15,3-.15,5.2a73.25,73.25,0,0,0,7.8-1.1V66.5c-2.45.35-5.1.65-7.85.85.1,4.85.35,8.85.55,12.25a32.37,32.37,0,0,1,9.7,6.45l-3.35,5.25a52,52,0,0,0-6.15-5c-.25,4.8-2.95,8.2-9.75,8.2s-11.2-2.9-11.2-8.15c0-5.1,4.3-8.6,11.1-8.6a23.41,23.41,0,0,1,3.3.2c-.15-3-.35-6.7-.4-10.25-1.2,0-2.4,0-3.55,0q-4.35,0-8.7-.3l-.05-6c2.85.25,5.75.4,8.75.4,1.15,0,2.35,0,3.5,0,0-2.45,0-4.45,0-5.5a20.06,20.06,0,0,0-.35-3.3h7.15A31.63,31.63,0,0,0,257.59,56.25Zm-9.9,32.35c3.1,0,4.15-1.6,4.15-4.55V83.2a13.94,13.94,0,0,0-4.05-.6c-2.8,0-4.75,1.15-4.75,3.05S245,88.6,247.69,88.6Zm16.95-30.75L261.14,59a54.16,54.16,0,0,0-2.55-6.9l3.4-1.05A54.49,54.49,0,0,1,264.64,57.85Zm5.25-1.6-3.45,1.1a62.89,62.89,0,0,0-2.7-6.85l3.4-1A69.17,69.17,0,0,1,269.89,56.25Z"/><path class="cls-1" d="M287.86,51.05l7.3.25c-.3,1.4-.75,4-1.1,7.05l1.85,2.4c-.7.9-1.7,2.55-2.55,3.85-.05.35-.05.7-.1,1.1,3.95-3.45,9.7-7.5,14.55-7.5,5.4,0,7.85,3.2,7.85,7.4,0,5.2-1.65,12.55-1.65,17.7,0,1.3.65,2.25,1.9,2.25,1.85,0,4.2-1.3,6.5-3.6l.8,7a13.33,13.33,0,0,1-9.4,3.7c-3.75,0-6.25-2.7-6.25-7.55,0-5.4,1.8-12.75,1.8-17.3,0-2.45-1.3-3.7-3.4-3.7-3.7,0-9.1,4.6-13.2,9.1-.05,1.4-.1,2.75-.1,4,0,4.1,0,8.3.3,13,.05.9.2,2.7.35,3.85h-6.9c.1-1.15.15-2.9.15-3.7.1-3.9.15-6.8.2-11-2.1,3.15-4.55,6.8-6.3,9.15l-3.95-5.45c2.85-3.5,7.85-10.1,10.7-14.3.1-1.15.2-2.35.25-3.55-2.45.3-6.3.8-9.1,1.2l-.65-6.4a43,43,0,0,0,4.35-.05c1.45-.1,3.65-.35,5.8-.65.1-1.9.2-3.3.2-3.85A27.61,27.61,0,0,0,287.86,51.05Z"/><path class="cls-1" d="M342.38,53.75c2.65,0,13.35-.2,16.2-.45a21.85,21.85,0,0,0,3.8-.55l3.25,4.45c-1.15.75-2.35,1.45-3.5,2.3-2.7,1.9-7.95,6.3-11.1,8.8a19.53,19.53,0,0,1,4.75-.55c8.5,0,15,5.3,15,12.6,0,7.9-6,14.15-18.1,14.15-6.95,0-12.2-3.2-12.2-8.2,0-4,3.65-7.8,8.95-7.8,6.2,0,9.95,3.8,10.65,8.55a7.25,7.25,0,0,0,4.15-6.8c0-4.5-4.5-7.55-10.4-7.55-7.65,0-12.65,4-18,10.15l-4.55-4.7c3.55-2.85,9.6-8,12.55-10.4,2.8-2.3,8-6.5,10.45-8.65-2.55,0-9.45.35-12.1.5-1.35.1-2.95.25-4.1.4l-.2-6.5A34.7,34.7,0,0,0,342.38,53.75Zm9,35.05a26.1,26.1,0,0,0,2.9-.15c-.3-3.25-2.15-5.35-4.85-5.35-1.9,0-3.1,1.15-3.1,2.4C346.33,87.55,348.38,88.8,351.38,88.8Z"/><path class="cls-1" d="M398.74,86c-5.5,2-11.5,3.85-16.3,5.4l-1.35-6c1.75-.45,3.8-1,6.1-1.65V71.9h-5.05V66.45h5.05v-8.8h-5.51V52.1h16.51v5.55h-5.35v8.8h4.5V71.9h-4.5v10c1.65-.5,3.3-1,4.9-1.55Zm29.7,3v5.4H396.29V89h13.8V84.25H399.74V78.9h10.35V74.6h-10V51.35h26.1V74.6H416.14v4.3h10.6v5.35h-10.6V89Zm-23-28.4h5.15V56.4h-5.15Zm0,8.95h5.15v-4.3h-5.15Zm15.1-13.15h-5v4.2h5Zm0,8.85h-5v4.3h5Z"/><path class="cls-1" d="M479.41,58.75V95.9h-6.25V93.3h-27.7V96h-5.95V58.75h16.55V49.3h6.15v9.45Zm-34,6V73.1h10.6V64.75Zm0,22.65h10.6V78.9h-10.6Zm16.75-22.65V73.1h11V64.75Zm11,22.65V78.9h-11v8.5Z"/><polygon class="cls-2" points="210.95 19.47 212.69 19.47 212.69 6.1 220.83 6.1 220.83 4.35 212.69 4.35 212.69 2.02 210.95 2.02 210.95 4.35 203.38 4.35 203.38 6.1 210.95 6.1 210.95 19.47"/><polygon class="cls-2" points="163.24 7.34 163.24 2.02 161.49 2.02 161.49 19.47 163.24 19.47 163.24 9.26 172.65 13.65 176.9 13.65 176.9 11.91 173.04 11.91 163.24 7.34"/><rect class="cls-2" x="225.48" y="3.78" width="8.77" height="1.74"/><polygon class="cls-2" points="207.23 9.21 205.51 8.91 204.06 17.14 202.23 17.14 202.23 18.89 205.52 18.89 207.23 9.21"/><polygon class="cls-2" points="218.71 8.91 216.99 9.21 218.69 18.89 221.99 18.89 221.99 17.14 220.16 17.14 218.71 8.91"/><polygon class="cls-2" points="181.44 18.1 182.87 19.1 187.1 13.06 187.1 6.68 195.82 6.68 195.82 17.73 191.46 17.73 191.46 19.47 197.57 19.47 197.57 4.94 187.1 4.94 187.1 2.02 185.35 2.02 185.35 4.94 181.28 4.94 181.28 6.68 185.35 6.68 185.35 12.51 181.44 18.1"/><polygon class="cls-2" points="241.76 12.98 241.76 2.02 240.02 2.02 240.02 12.43 236.31 17.74 224.92 17.74 224.92 19.48 237.21 19.48 241.76 12.98"/><rect class="cls-2" x="198.15" y="0.86" width="1.74" height="1.74"/><rect class="cls-2" x="195.24" y="0.86" width="1.74" height="1.74"/><rect class="cls-2" x="173.72" y="2.61" width="1.74" height="1.74"/><rect class="cls-2" x="170.81" y="2.61" width="1.74" height="1.74"/><path class="cls-2" d="M218.51,3.77H222V.28h-3.49Zm1.17-2.33h1.16V2.6h-1.16Z"/><rect class="cls-2" x="268.83" y="9.59" width="16.29" height="1.74"/><rect class="cls-2" x="312.45" y="2.61" width="15.7" height="1.74"/><polygon class="cls-2" points="311.87 10.75 321.76 10.75 321.76 14.04 319.17 17.73 312.45 17.73 312.45 19.48 320.08 19.48 323.5 14.59 323.5 10.75 329.32 10.75 329.32 9.01 311.87 9.01 311.87 10.75"/><polygon class="cls-2" points="446.81 7.97 446.81 5.51 449.73 5.51 449.73 3.77 446.81 3.77 446.81 0.28 445.07 0.28 445.07 3.77 442.16 3.77 442.16 5.51 445.07 5.51 445.07 6.61 441.75 14.56 443.36 15.23 445.07 11.14 445.07 20.64 446.81 20.64 446.81 10.55 448.9 12.84 450.19 11.66 446.81 7.97"/><rect class="cls-2" x="356.65" y="3.78" width="8.77" height="1.74"/><polygon class="cls-2" points="371.19 12.43 367.48 17.73 356.09 17.73 356.09 19.48 368.38 19.48 372.94 12.97 372.94 2.02 371.19 2.02 371.19 12.43"/><rect class="cls-2" x="412.8" y="8.31" width="1.74" height="12.92" transform="translate(57.08 224.97) rotate(-32.56)"/><polygon class="cls-2" points="336.75 11.92 335.13 11.92 335.13 13.66 337.22 13.66 342.56 10.58 342.56 20.08 344.3 20.08 344.3 9.57 348.31 7.26 350.26 7.26 350.26 5.52 347.84 5.52 336.75 11.92"/><polygon class="cls-2" points="245.56 4.36 261.85 4.36 261.85 9.29 253.24 14.26 250.2 9 247.3 9 247.3 10.75 249.19 10.75 254.77 20.41 256.28 19.53 254.11 15.78 263.59 10.3 263.59 2.61 245.56 2.61 245.56 4.36"/><polygon class="cls-2" points="294.76 2.02 293.1 1.5 290.56 9.59 289.19 9.59 289.19 11.34 291.84 11.34 293.3 6.68 303.72 6.68 303.72 13.41 300.7 17.73 292.09 17.73 292.09 19.47 301.6 19.47 305.47 13.96 305.47 6.68 307.79 6.68 307.79 4.94 293.85 4.94 294.76 2.02"/><polygon class="cls-2" points="417.72 5.52 409 5.52 409 0.86 407.25 0.86 407.25 5.52 398.53 5.52 398.53 7.26 406.53 7.26 398.67 19.58 400.14 20.52 408.61 7.26 417.72 7.26 417.72 5.52"/><polygon class="cls-2" points="461.35 2.03 456.69 2.03 456.69 0.28 454.94 0.28 454.94 2.03 450.29 2.03 450.29 3.78 461.35 3.78 461.35 2.03"/><polygon class="cls-2" points="379.31 7.26 377.01 7.26 377.01 9.01 380.22 9.01 383.48 4.36 392.72 4.36 392.72 11.72 388.52 17.73 379.92 17.73 379.92 19.47 389.43 19.47 394.47 12.27 394.47 2.61 382.57 2.61 379.31 7.26"/><rect class="cls-2" x="394.47" y="0.28" width="1.74" height="1.74"/><rect class="cls-2" x="391.55" y="0.28" width="1.74" height="1.74"/><polygon class="cls-2" points="438.08 1.07 436.39 0.62 435.55 3.77 431.19 3.77 430.35 0.62 428.66 1.07 429.39 3.77 425.62 3.77 424.78 0.62 423.09 1.07 423.81 3.77 420.64 3.77 420.64 7.85 422.39 7.85 422.39 5.52 438.66 5.52 438.66 7.85 440.4 7.85 440.4 3.77 437.36 3.77 438.08 1.07"/><rect class="cls-2" x="448.72" y="6.54" width="6.42" height="1.74" transform="translate(269.72 421.05) rotate(-67.17)"/><rect class="cls-2" x="458.57" y="4.2" width="1.74" height="6.42" transform="translate(33.11 178.83) rotate(-22.83)"/><polygon class="cls-2" points="459.39 10.31 458.02 9.24 455.68 12.23 453.35 9.24 451.97 10.31 454.58 13.65 449.99 19.51 451.37 20.59 455.68 15.06 460 20.59 461.37 19.51 456.79 13.65 459.39 10.31"/><polygon class="cls-2" points="431.68 12.35 436.35 9.65 436.35 7.84 424.12 7.84 424.12 9.59 432.96 9.59 429.94 11.34 429.94 13.08 420.65 13.08 420.65 14.82 429.94 14.82 429.94 18.89 425.88 18.89 425.88 20.64 431.68 20.64 431.68 14.82 440.4 14.82 440.4 13.08 431.68 13.08 431.68 12.35"/><path class="cls-2" d="M475,3c-.14.67-.35,2-.6,3.26,1.08-.09,2-.16,2.57-.16,2.07,0,3.75.79,3.75,3.91,0,2.74-.39,6.4-1.33,8.3A3.25,3.25,0,0,1,476,20.21a13.89,13.89,0,0,1-2.71-.32L473,18a11.08,11.08,0,0,0,2.8.48,1.92,1.92,0,0,0,2-1.19,19.59,19.59,0,0,0,1.08-7c0-2.09-1-2.48-2.44-2.48-.55,0-1.47.07-2.46.16-.85,3.29-2.41,8.51-4.85,12.39l-1.86-.76c2.34-3.12,4.07-8.37,4.85-11.45l-2.92.3c-.53.07-1.5.18-2.07.28l-.21-2c.74,0,1.33,0,2.07,0s2.09-.14,3.5-.25a26.08,26.08,0,0,0,.59-5l2.12.21C475.17,2.05,475.07,2.53,475,3Zm12.37,9.45-1.77.85A26.94,26.94,0,0,0,481.49,5l1.68-.76A39.44,39.44,0,0,1,487.38,12.44Zm-2.05-8.35-1.26.56a28.06,28.06,0,0,0-1.87-3.2l1.24-.51A31.63,31.63,0,0,1,485.33,4.09Zm2.58-.94-1.25.55a25.08,25.08,0,0,0-1.9-3.17L486,0A33.5,33.5,0,0,1,487.91,3.15Z"/><circle class="cls-2" cx="194.89" cy="37.31" r="4"/><circle class="cls-2" cx="245.56" cy="37.31" r="4"/><circle class="cls-2" cx="296.23" cy="37.31" r="4"/><circle class="cls-2" cx="346.89" cy="37.31" r="4"/><line class="cls-3" y1="121.14" x2="650" y2="121.14"/><rect class="cls-4" x="246.85" y="199.82" width="200" height="50"/><path class="cls-2" d="M53,154a25,25,0,0,0-.31-3.92h4.3c-.1,1.16-.28,2.66-.28,3.92v5.46A115.2,115.2,0,0,1,71.47,165l-1.54,3.78a97.83,97.83,0,0,0-13.27-5.42c0,4.83,0,9.66,0,10.81s.1,3.22.24,4.48H52.67a36,36,0,0,0,.28-4.48Zm16.17,2.7-2.45,1.08a32,32,0,0,0-3.08-5.35l2.35-1A43.83,43.83,0,0,1,69.12,156.68Zm4.52-2-2.42,1.19A33.7,33.7,0,0,0,68,150.66l2.35-1.09A51.16,51.16,0,0,1,73.64,154.72Z"/><path class="cls-2" d="M96.08,152.51c0,1.19-.11,2.35-.18,3.43h7.56a15.36,15.36,0,0,0,2.42-.21l2.45,1.19c-.11.6-.21,1.33-.25,1.79-.1,3.53-.56,13.54-2.1,17-.73,1.61-1.92,2.38-4.06,2.38-1.89,0-3.92-.14-5.7-.24l-.42-3.68a39.09,39.09,0,0,0,5.07.42,1.85,1.85,0,0,0,2-1.19c1.19-2.45,1.64-10.36,1.64-14.14h-9c-1.29,9.73-4.76,15.09-10.78,19.32l-3.22-2.62a19,19,0,0,0,4-2.94c3.39-3.19,5.53-7.42,6.4-13.76H86.66c-1.29,0-2.94,0-4.27.14V155.7c1.33.14,2.91.24,4.27.24H92.3c.07-1.05.1-2.17.1-3.36a23.14,23.14,0,0,0-.24-3h4.09C96.18,150.38,96.11,151.67,96.08,152.51Zm12.18,1.54L106,155a42.84,42.84,0,0,0-2.8-4.83l2.27-.94A50.26,50.26,0,0,1,108.26,154.05Zm4-1.5-2.27,1a33.29,33.29,0,0,0-2.87-4.8l2.24-.94A42.42,42.42,0,0,1,112.28,152.55Z"/><path class="cls-2" d="M120.3,173.9l-3-2.07a36.22,36.22,0,0,0,6.61-9.1l3.12,1.51A52.46,52.46,0,0,1,120.3,173.9Zm14.38-21.46v3.22h8.79a23.21,23.21,0,0,0,3.11-.21v3.64c-1-.07-2.2-.07-3.08-.07h-8.82v16.66c0,1.89-1,3-3.29,3a50.89,50.89,0,0,1-5.28-.25l-.32-3.46a23.85,23.85,0,0,0,4,.38c.91,0,1.3-.35,1.33-1.29V159h-9.34c-1.09,0-2.21,0-3.15.11v-3.68a27.81,27.81,0,0,0,3.11.21h9.38v-3.25a14.91,14.91,0,0,0-.28-2.73H135A19.51,19.51,0,0,0,134.68,152.44Zm13.16,19.43-3.22,1.82a59.9,59.9,0,0,0-5.81-9.35l3-1.64A74.63,74.63,0,0,1,147.84,171.87ZM144.27,147a3.92,3.92,0,1,1-3.92,3.92A3.95,3.95,0,0,1,144.27,147Zm0,6a2.1,2.1,0,0,0,0-4.2,2.1,2.1,0,0,0,0,4.2Z"/><path class="cls-2" d="M169.67,169.38a33.3,33.3,0,0,0,12.15-13.19L184,160a35.77,35.77,0,0,1-12.28,12.67,38.62,38.62,0,0,1-13.41,5.22l-2.34-3.61A36.2,36.2,0,0,0,169.67,169.38Zm-1.19-11.2L165.72,161A75.42,75.42,0,0,0,157,153.6l2.55-2.73A73,73,0,0,1,168.48,158.18Z"/><path class="cls-2" d="M219.66,156.05a56,56,0,0,1-12.35,14c2.06,2.06,4.34,4.51,5.74,6.19l-3.22,2.59a90.5,90.5,0,0,0-6.48-7.35,83.51,83.51,0,0,0-7.87-6.79l2.87-2.34c1.33,1,4,3.11,6.3,5.18a41.44,41.44,0,0,0,10-11.24H195c-1.4,0-3.05.14-3.78.21v-3.92a30.26,30.26,0,0,0,3.78.28h20.23a9,9,0,0,0,2.69-.31l2.77,2.27C220.29,155.28,219.91,155.7,219.66,156.05Z"/><path class="cls-2" d="M231.52,161.54h19c1.68,0,3.05-.14,3.92-.21v4.34c-.77,0-2.38-.17-3.92-.17h-19c-1.92,0-4,.07-5.21.17v-4.34C227.46,161.4,229.63,161.54,231.52,161.54Z"/><path class="cls-2" d="M274.38,152.37c-.32.88-.7,2-1.16,3.08h15.89a23.25,23.25,0,0,0,3.43-.21V159c-1.19-.07-2.62-.1-3.43-.1h-5.46c-.59,9.69-4.41,15.75-10.57,19.63L269.37,176a14,14,0,0,0,3.05-1.75c3.53-2.69,6.93-7.17,7.45-15.36h-8.29a29.54,29.54,0,0,1-5.74,7.45l-3.47-2.1a27.12,27.12,0,0,0,6.16-7.38,25.78,25.78,0,0,0,2-4.87,14.55,14.55,0,0,0,.59-3.11l4.27.8C275,150.55,274.66,151.64,274.38,152.37Z"/><path class="cls-2" d="M303.93,159.69h22.9a28.71,28.71,0,0,0,2.94-.18v3.61c-.81-.07-2-.11-2.94-.11h-9a21.81,21.81,0,0,1-2.17,9.35,16.81,16.81,0,0,1-7,6.51l-3.22-2.35a15,15,0,0,0,6.48-5.21c1.51-2.35,2-5.15,2.1-8.3H303.93c-1.05,0-2.24,0-3.18.11v-3.61A29.29,29.29,0,0,0,303.93,159.69Zm4.34-8.82h14.15a30,30,0,0,0,3.5-.25v3.61c-1.12-.07-2.42-.11-3.5-.11H308.31c-1.16,0-2.45,0-3.43.11v-3.61A26.63,26.63,0,0,0,308.27,150.87Z"/><path class="cls-2" d="M349.14,162.35a37.67,37.67,0,0,0,8.51-7.28l2.73,2.66a49.3,49.3,0,0,1-7.88,6.44v12.28a22.17,22.17,0,0,0,.18,3.36h-4.06c.07-.59.14-2.24.14-3.36V166.37a71,71,0,0,1-10.54,4.41l-1.68-3.29A48.34,48.34,0,0,0,349.14,162.35Z"/><path class="cls-2" d="M382.44,169.38a33.27,33.27,0,0,0,12.14-13.19l2.14,3.81a35.8,35.8,0,0,1-12.29,12.67,38.56,38.56,0,0,1-13.4,5.22l-2.35-3.61A36.19,36.19,0,0,0,382.44,169.38Zm-1.19-11.2L378.48,161a75.42,75.42,0,0,0-8.75-7.42l2.56-2.73A73,73,0,0,1,381.25,158.18Z"/><path class="cls-2" d="M417.4,153.63c-.18.32-.32.6-.53.91h8.44a9.28,9.28,0,0,0,2.62-.35l2.87,1.75a12.4,12.4,0,0,0-1,2.14,34.55,34.55,0,0,1-6.16,11.9c-3.22,4-7.45,7.17-14,9.69l-3.25-2.94a28,28,0,0,0,14-8.71,26.33,26.33,0,0,0,5.32-10.33H414.81a36.38,36.38,0,0,1-8.86,8.54L402.87,164a29.94,29.94,0,0,0,11-11.59,16.13,16.13,0,0,0,1.3-3.15l4.06,1.33C418.52,151.6,417.78,152.93,417.4,153.63Zm13.54-.17-2.31,1a42.47,42.47,0,0,0-2.76-4.83l2.24-1A51.2,51.2,0,0,1,430.94,153.46Zm4-1.54-2.28,1a34.92,34.92,0,0,0-2.87-4.83l2.24-.94A40.33,40.33,0,0,1,435,151.92Z"/><path class="cls-2" d="M457.44,160.63c2.38,7.28,6.79,13.2,13.41,16a12.92,12.92,0,0,0-2.42,3c-6.54-3-10.78-8.72-13.51-16.14a24.19,24.19,0,0,1-13.51,16.14,11.18,11.18,0,0,0-2.49-2.73c8.34-3.64,11.73-9.94,13.13-16.28H439.63v-3.36h13a89,89,0,0,0,.42-9.66h3.53a86.94,86.94,0,0,1-.49,9.66h14.11v3.36Z"/><path class="cls-2" d="M508.06,170.19H494.27V176c0,1.79-.46,2.7-1.89,3.19a24.58,24.58,0,0,1-6.55.49,17.9,17.9,0,0,0-1.37-3.15c2.45.1,4.91.1,5.61.07s.87-.18.87-.7v-5.74H477.29v-3h13.65v-2.42h1.65a27.89,27.89,0,0,0,4-2.62h-13.3V159.3h16.42l.7-.17,2.1,1.57a31.41,31.41,0,0,1-8.19,6v.46h13.79Zm-27.13-8.93h-3.05v-8h5a21.86,21.86,0,0,0-2.73-4L483,148a21.69,21.69,0,0,1,3.26,4.69l-1.26.6h6.48a26.27,26.27,0,0,0-2.45-4.8l2.83-1a21,21,0,0,1,2.84,5.18l-1.72.67h5.92a37,37,0,0,0,3.39-5.46l3.43,1.08c-1,1.51-2.17,3-3.25,4.38h5.07v8h-3.22v-5.14H480.93Z"/><path class="cls-2" d="M526.08,169c-.52-1.16-1.61-3.15-2.62-4.87v15.54h-3.05V164.76a34,34,0,0,1-3.95,8.61,13.49,13.49,0,0,0-1.58-2.9c2.14-2.91,4.2-8.09,5.25-12.57h-4.51v-3h4.79v-7.31h3.05v7.31h4v3h-4v2.24c1,1.26,3.81,5.46,4.44,6.44Zm17.26-5.85a28.38,28.38,0,0,1-4.06,8.3,21.19,21.19,0,0,0,8.33,5.46,12.77,12.77,0,0,0-2.27,2.87,23,23,0,0,1-8.16-5.81,24.76,24.76,0,0,1-9.14,5.84,15.5,15.5,0,0,0-1.68-2.59,21.78,21.78,0,0,0,8.86-5.7,32,32,0,0,1-4.13-8l2.8-.8a24.24,24.24,0,0,0,3.32,6.26,21.44,21.44,0,0,0,2.84-6.47Zm-8.23-5.63a26.93,26.93,0,0,1-6,7.87,13.56,13.56,0,0,0-2.21-2.06,21.58,21.58,0,0,0,5.25-7Zm11.83-2H527.83v-3h7.84v-5h3.26v5h8Zm-5,.63a34.59,34.59,0,0,1,5.64,7.35l-2.73,1.57a35,35,0,0,0-5.43-7.52Z"/><path class="cls-2" d="M560.05,152.79a93.38,93.38,0,0,0-1.71,13.86,22.87,22.87,0,0,0,.28,3.75c.49-1.44,1.26-3.19,1.82-4.48l1.75,1.36a82.63,82.63,0,0,0-2.52,8,8.62,8.62,0,0,0-.18,1.61c0,.35.07.87.11,1.29l-3.12.25a41.23,41.23,0,0,1-1.36-11.13,107.48,107.48,0,0,1,1.54-14.67c.1-.87.24-2,.28-2.9l3.81.35C560.54,150.73,560.19,152.16,560.05,152.79Zm17.68-.84c0,.88-.07,2.38-.1,4a53.28,53.28,0,0,0,5.81-.8v3.39c-1.82.28-3.78.53-5.81.67,0,3.5.28,6.65.38,9.34a23.06,23.06,0,0,1,6.9,4.52L583,176a34,34,0,0,0-4.87-3.89v.18c0,3.22-1.54,6-6.41,6s-7.49-2-7.49-5.32,2.77-5.6,7.46-5.6a18.69,18.69,0,0,1,2.84.21c-.14-2.45-.28-5.46-.35-8.19-1,0-2,.07-3,.07-2,0-4-.1-6-.24l0-3.29a57.16,57.16,0,0,0,6.06.31c1,0,1.92,0,2.91-.07V152a16.62,16.62,0,0,0-.22-2.24h4C577.84,150.48,577.77,151.25,577.73,152ZM571.29,175c2.59,0,3.4-1.33,3.4-3.54v-.94a11.14,11.14,0,0,0-3.26-.49c-2.35,0-4,1-4,2.52S569.05,175,571.29,175Z"/><path class="cls-2" d="M591.55,171.34l2.87-2.52a64.3,64.3,0,0,1,7.74,7.74l-3,2.52A63.57,63.57,0,0,0,591.55,171.34Z"/><path class="cls-2" d="M72.08,224.83A34.06,34.06,0,0,0,85,235.16a17.79,17.79,0,0,0-2.38,2.8,37.71,37.71,0,0,1-12.22-10.5v12.21H67V227.6a38,38,0,0,1-12.18,10.32,22,22,0,0,0-2.38-2.76,33.82,33.82,0,0,0,12.85-10.33H53.43v-3.22H67v-5.32H56v-3.22H67v-5.49H70.4v5.49H81.71v3.22H70.4v5.32H84.16v3.22Z"/><path class="cls-2" d="M96.15,228.09A32.38,32.38,0,0,1,93.81,237a13.71,13.71,0,0,0-2.49-1.22,26.45,26.45,0,0,0,2.07-8.19Zm3.92-2.73v14.38h-2.9V225.53c-1.93.11-3.71.21-5.29.32L91.6,223l2.45-.07c.63-.84,1.33-1.79,2-2.77a33.82,33.82,0,0,0-4.34-4.9l1.57-2.13c.32.24.63.52,1,.8a40.57,40.57,0,0,0,2.87-6.33L100,208.7c-1.23,2.34-2.7,5-4,7a24.26,24.26,0,0,1,1.68,1.93c1.26-2.07,2.45-4.2,3.33-6l2.69,1.23c-2,3.18-4.48,7-6.75,9.94,1.4,0,2.87-.11,4.37-.21-.45-1-.94-2-1.43-2.84l2.2-.91a27.26,27.26,0,0,1,3.19,7.25l-2.38,1.05a15.21,15.21,0,0,0-.56-1.89Zm3,2a40.44,40.44,0,0,1,2.21,6.33l-2.49.84a37.93,37.93,0,0,0-2.06-6.4Zm19.57-17.22a21.78,21.78,0,0,1-6,9.13,24.23,24.23,0,0,0,7.7,3.05,11.71,11.71,0,0,0-2,2.69,25.85,25.85,0,0,1-8.26-3.78,31,31,0,0,1-8.19,3.92,12.26,12.26,0,0,0-1.82-2.73,27.6,27.6,0,0,0,7.49-3.25,21.75,21.75,0,0,1-4.59-6.41l1.93-.63h-3.92v-2.8h14.8l.63-.14Zm-6.76,25.72H124v2.87H104.2v-2.87h8.47v-5h-6.3v-2.87h6.3v-4.62h3.22v4.62h6.55v2.87h-6.55Zm-5.81-23.73a17,17,0,0,0,4,5.22,18.76,18.76,0,0,0,4.16-5.22Z"/><path class="cls-2" d="M130.47,236.8c1.22-1.75,1.64-4.72,1.78-7.7l1.86.39c-.14,3.11-.53,6.37-1.89,8.26ZM156.41,230a13,13,0,0,0,6.93,7.07,12.29,12.29,0,0,0-2.07,2.56,14.74,14.74,0,0,1-7-7.84c-1.19,3-3.53,5.77-8.05,7.94a8.69,8.69,0,0,0-1.82-2.17,2.69,2.69,0,0,1-.49,1,2.51,2.51,0,0,1-1.92,1,22.48,22.48,0,0,1-3.09.07,6.39,6.39,0,0,0-.73-2.56,24.15,24.15,0,0,0,2.48.11,1,1,0,0,0,.92-.42c.31-.39.56-1.44.77-3.71l-1.19.45a20,20,0,0,0-1.72-4.55l1.4-.45a21.89,21.89,0,0,1,1.58,3.6c.1-1.29.21-2.87.28-4.86H132.5V208.94H145v2.7h-4.2v2.52h3.47v2.13a22.86,22.86,0,0,0,8-8.71h2.87a24,24,0,0,0,8.4,8.19,16.64,16.64,0,0,0-1.65,2.8,24.19,24.19,0,0,1-2.55-1.86v2h-3.92v2.42h6.4V230Zm-20.17-.42a31.24,31.24,0,0,1,.49,6.34l-1.64.24a34.25,34.25,0,0,0-.39-6.4Zm-1-18v2.52h2.94v-2.52Zm0,5.07v2.66h2.94v-2.66Zm0,7.95h2.94v-2.73h-2.94Zm3.15,10.46a28.87,28.87,0,0,0-1.19-5.63l1.47-.28a24.57,24.57,0,0,1,1.3,5.56Zm7.14-10.46s0,.84,0,1.19c-.28,6.44-.56,9.83-1.05,11.55,4.27-2,6.33-4.66,7.28-7.39h-5.39v-8.85h6.19v-2.42h-3.88v-2a20.28,20.28,0,0,1-2.87,2.13,14.43,14.43,0,0,0-1.47-2.48v.31h-3.47v2.66h3.47v2.56h-3.47v2.73Zm6.79,2.9a20.42,20.42,0,0,0,.21-3.29v-.66H149v3.95Zm6.44-11.37a25.89,25.89,0,0,1-4.93-5.74,24.13,24.13,0,0,1-4.55,5.74Zm-3.32,7.42v.7a25.29,25.29,0,0,1-.18,3.25H159v-3.95Z"/><path class="cls-2" d="M183,211.92c-.21,1.08-.53,2.76-.84,4.41,1.43-.14,2.69-.21,3.5-.21,3.39,0,6,1.36,6,6.26,0,4.13-.53,9.77-2,12.71-1.12,2.41-2.94,3-5.39,3a19.59,19.59,0,0,1-4.16-.49l-.56-3.64a18.19,18.19,0,0,0,4.27.7,2.74,2.74,0,0,0,2.87-1.68c1-2.17,1.57-6.61,1.57-10.25,0-3-1.36-3.54-3.57-3.54-.73,0-1.89.07-3.22.21-1.29,5.15-3.78,13.23-7.24,18.83l-3.61-1.43c3.5-4.73,6-12.29,7.28-17.05-1.61.18-3,.35-3.85.46s-2.48.31-3.46.49l-.35-3.78c1.19.07,2.2,0,3.39,0s3-.18,5-.35a38.71,38.71,0,0,0,.8-7.53l4.1.42C183.28,210.24,183.11,211.15,183,211.92Zm18.83,13.86-3.47,1.61c-1-3.71-3.6-10-6.05-12.95l3.25-1.4C197.7,215.94,200.68,222.49,201.8,225.78Z"/><path class="cls-2" d="M214.16,225a16.86,16.86,0,0,1,10.92-3.88c5.71,0,9.28,3.46,9.28,7.63,0,6.3-5.32,10.85-19,9.69l-1-3.6c10.82,1.36,16.28-1.54,16.28-6.16,0-2.59-2.42-4.45-5.78-4.45a13.14,13.14,0,0,0-10.32,4.45,7,7,0,0,0-1.19,1.85l-3.22-.77a130.16,130.16,0,0,0,1.78-14.38l3.71.49C215.07,218,214.48,222.84,214.16,225Zm15.47-13.09-.8,3.4c-3.43-.46-11.13-2.07-13.83-2.77l.88-3.32A101.7,101.7,0,0,0,229.63,211.88Z"/><path class="cls-2" d="M287.17,215.17s0,1.37,0,1.86c-.32,14.31-.6,19.39-1.72,21a3.93,3.93,0,0,1-2.76,1.75,23.93,23.93,0,0,1-4.34.14,9.71,9.71,0,0,0-1.23-4c1.54.14,2.87.17,3.54.17a1.29,1.29,0,0,0,1.19-.59c.73-.95,1.08-5.22,1.29-16.52H280c-.45,9.38-2.06,16.59-7.94,21.24a13.77,13.77,0,0,0-2.45-2.76c-5,.52-10.08,1.05-13.86,1.36l-.49-3.5,7.1-.49v-2.1h-6.16V229.8h6.16v-1.36h-6V217.62h6v-1.36h-6.89v-3h6.89v-1.4c-2,.14-4,.24-5.91.28a13.14,13.14,0,0,0-.91-2.94,108.31,108.31,0,0,0,15.08-1.72l1.82,3.12c-1.85.38-4,.7-6.3.94v1.72h6.72v1.92h3.29c0-2.31,0-4.72,0-7.31h4c0,2.55,0,5-.07,7.31Zm-27.58,6.62h2.73v-1.54h-2.73Zm2.73,4.06v-1.58h-2.73v1.58Zm3.78,8.68c2-.14,4.06-.32,6.09-.49,2.73-3.78,3.57-8.79,3.82-15h-3.19v-2.73H266.1v1.36h6.2v10.82h-6.2v1.36h6.34v2.94H266.1Zm2.73-12.74v-1.54H266.1v1.54Zm-2.73,2.48v1.58h2.73v-1.58Z"/><path class="cls-2" d="M325.74,209.4v3.88H312v2.8h6.37v15.86H301.73V216.08h6.13v-2.8H294.42V209.4Zm-5.07,6.19h4V240h-4v-2H299.53V240h-4.06v-24.4h4.06V234h21.14Zm-15.54,6.83h3v-2.94h-3Zm0,6.12h3v-3h-3Zm9.66-9.06h-3.05v2.94h3.05Zm0,6.09h-3.05v3h3.05Z"/><path class="cls-2" d="M349.36,238.59l-2.63-4.17a26.5,26.5,0,0,0,3.26-.56c4.48-1.05,8-4.27,8-9.38,0-4.83-2.62-8.43-7.35-9.24a69.91,69.91,0,0,1-2.1,9.49c-2.1,7.07-5.11,11.41-8.93,11.41s-7.1-4.27-7.1-10.19c0-8.08,7-15,16.07-15,8.68,0,14.14,6,14.14,13.65C362.7,232,358.18,237.22,349.36,238.59Zm-9.63-7.84c1.47,0,2.84-2.21,4.27-6.93a52.65,52.65,0,0,0,1.86-8.47A11,11,0,0,0,337,225.5C337,229,338.37,230.75,339.73,230.75Z"/><path class="cls-2" d="M396.31,207.09a4.18,4.18,0,0,1,0,8.36,2.37,2.37,0,0,1-.46,0c-.1.38-.17.73-.28,1.05-.8,3.43-2.31,8.85-5.25,12.74a28.1,28.1,0,0,1-14.07,9.69l-3.82-4.2c6.94-1.61,10.89-4.65,13.73-8.22a22,22,0,0,0,4.09-9.87H374c-1.61,0-3.29.07-4.16.14v-4.94a38.87,38.87,0,0,0,4.16.28h16.21a14.4,14.4,0,0,0,2-.14,3.42,3.42,0,0,1-.07-.66A4.21,4.21,0,0,1,396.31,207.09Zm0,6.19a2,2,0,1,0-2-2A2,2,0,0,0,396.31,213.28Z"/><path class="cls-2" d="M411.8,212.2h19.25c.87,0,2.2,0,3.46-.07-.07,1.05-.07,2.34-.07,3.39v17.15c0,1.37.07,4.73.07,4.87h-4.83c0-.07,0-.88,0-1.89H412.85c0,1,0,1.78,0,1.89h-4.83c0-.18.11-3.22.11-4.9V215.52c0-1,0-2.41-.07-3.39C409.52,212.16,410.85,212.2,411.8,212.2Zm1.05,19h16.9V216.64h-16.9Z"/><path class="cls-2" d="M469.13,212.86a80.79,80.79,0,0,0,10.29-1v3.25a106.94,106.94,0,0,1-11.52.91,27.86,27.86,0,0,1-2.69,4.62,10.32,10.32,0,0,1,4.48-1,4.62,4.62,0,0,1,4.69,3c2.17-1,3.95-1.75,5.6-2.52,1.19-.53,2.2-1,3.32-1.54l1.44,3.22c-1,.31-2.52.87-3.57,1.29-1.79.7-4.06,1.61-6.51,2.73,0,2,.07,4.8.1,6.48h-3.32c.07-1.23.1-3.22.14-4.94-3,1.65-4.9,3.26-4.9,5.32,0,2.38,2.27,2.87,5.81,2.87a59.65,59.65,0,0,0,9.73-.91l-.11,3.54a90.4,90.4,0,0,1-9.73.63c-5.21,0-9.27-1.23-9.27-5.57s4.2-7,8.26-9.1a2.83,2.83,0,0,0-2.87-1.75,8.94,8.94,0,0,0-5.82,2.52,38.2,38.2,0,0,0-3.18,3.75l-3-2.24a35.41,35.41,0,0,0,7.91-10.22h-1c-1.47,0-3.88-.07-5.84-.21v-3.29a45.16,45.16,0,0,0,6,.38c.67,0,1.36,0,2.07,0a17.74,17.74,0,0,0,.8-4.17l3.64.28C469.86,210.06,469.58,211.36,469.13,212.86Z"/><path class="cls-2" d="M518.45,209.61v29.85H515v-2.31H497.73v2.31h-3.29V209.61Zm-20.72,3.18v5H515v-5Zm0,8.05v5H515v-5ZM515,234v-5H497.73v5Z"/><path class="cls-2" d="M539.82,225.39l-4.38,1.26v9.42c0,1.68-.35,2.55-1.37,3s-2.55.6-4.9.56a12.73,12.73,0,0,0-.94-3c1.47.07,2.9.07,3.32,0s.67-.14.67-.66V227.6c-1.51.45-2.94.84-4.24,1.19l-.84-3.15c1.4-.35,3.15-.74,5.08-1.26v-7h-4.59v-3h4.59v-6.79h3.22v6.79h3.81v3h-3.81v6.06c1.29-.35,2.62-.7,3.95-1.09Zm1.46-1.15h16.6V239.5h-3.22v-1.4H544.37v1.57h-3.09Zm12.89-5.46c1.82,0,2.1-.63,2.34-4.2a10.38,10.38,0,0,0,2.94,1.19c-.42,4.72-1.4,5.95-5.07,5.95h-7.53c-4.37,0-5.53-.95-5.53-4.38v-9.66h3.22v4.94a55.72,55.72,0,0,0,10.4-3.19l2.41,2.38a69.36,69.36,0,0,1-12.81,3.43v2.1c0,1.23.42,1.44,2.56,1.44Zm-9.8,8.15v2.94h10.29v-2.94Zm10.29,8.54v-3H544.37v3Z"/><path class="cls-2" d="M585.94,211.57c0,.42,0,1.05,0,1.75h10.5l-.07,3.29c-2.06-.11-5.39-.18-10.46-.18,0,1.89,0,3.92,0,5.5a8.57,8.57,0,0,1,1.23,4.65c0,4.66-2.49,10.15-10.79,12.57l-3-2.94c4.13-.91,7.35-2.45,9-5.15a5.48,5.48,0,0,1-2.45.53,5.84,5.84,0,0,1-5.88-6.09,6.31,6.31,0,0,1,6.51-6.3,7.21,7.21,0,0,1,2,.24c0-.91,0-2,0-3-5.32.07-11.06.28-15.4.56l-.1-3.36c4-.07,10.46-.25,15.47-.32,0-.77,0-1.36-.07-1.78-.1-1.12-.21-2.21-.28-2.56h4A19.64,19.64,0,0,0,585.94,211.57Zm-5.4,17c1.82,0,3.19-1.43,2.73-4.72a2.87,2.87,0,0,0-2.73-1.68,3.15,3.15,0,0,0-3.18,3.29A3.07,3.07,0,0,0,580.54,228.54Z"/><path class="cls-2" d="M36.5,271.46c-4.45,8.19-14.53,12.88-24,14.91a10.37,10.37,0,0,0-1.51-2.8,44.61,44.61,0,0,0,12.5-4.09,32.64,32.64,0,0,0-5.5-3.57c-1.4.73-2.9,1.43-4.55,2.1a10.23,10.23,0,0,0-2.17-2.42c6.16-2.06,10.64-5.21,13-8.12l3.61.81c-.63.7-1.3,1.4-2,2.06h8l.53-.14Zm4.9,12.22C37.09,293.86,26.63,298.1,15,299.74a9.62,9.62,0,0,0-1.4-3,44.36,44.36,0,0,0,14.56-3.89,35,35,0,0,0-6-4.23,58.32,58.32,0,0,1-5.46,2.27,9.8,9.8,0,0,0-2-2.52c7.24-2.24,12.39-5.7,15.09-9l3.6.84a28.73,28.73,0,0,1-2.38,2.45h7.6l.56-.14ZM22.5,273.07c-.56.42-1.2.84-1.83,1.23a33.54,33.54,0,0,1,5.61,3.53,22.63,22.63,0,0,0,5.46-4.76Zm5.11,12.39c-.81.56-1.61,1.09-2.49,1.61a34.36,34.36,0,0,1,6,4.13,18.48,18.48,0,0,0,5.67-5.74Z"/><path class="cls-2" d="M66.66,273.56c-2.35,2-7.18,5.78-9.66,7.88-2,1.71-2,2.17.07,3.95,3,2.45,9.34,7.53,13,11.17l-3.18,2.9c-.84-.94-1.75-1.92-2.66-2.83-2.35-2.38-7.56-6.86-10.82-9.59s-3-4.52.28-7.28c2.7-2.24,7.77-6.3,10.15-8.65a20.9,20.9,0,0,0,2.28-2.62l3.25,2.9C68.48,272.06,67.36,273,66.66,273.56Z"/><path class="cls-2" d="M94.86,298.27,92.8,295a20.77,20.77,0,0,0,3.11-.49c4.48-1,8.47-4.3,8.47-9.94,0-5.07-3.08-9.1-8.47-9.76a68.93,68.93,0,0,1-2.1,9.83c-2.1,7.14-5,11.1-8.47,11.1s-6.65-3.85-6.65-9.7c0-7.84,6.86-14.56,15.65-14.56,8.4,0,13.72,5.88,13.72,13.2S103.37,297.05,94.86,298.27Zm-9.41-6.72c1.57,0,3.22-2.27,4.83-7.66a56.37,56.37,0,0,0,1.92-9c-6.3,1-10,6.47-10,10.81C82.23,289.7,83.94,291.55,85.45,291.55Z"/><path class="cls-2" d="M128.5,276.5c-.11,1.72-.25,3.47-.46,5.18h13.65s0,1-.1,1.51c-.63,9.73-1.37,13.61-2.73,15.05a4.38,4.38,0,0,1-3.29,1.33,56.59,56.59,0,0,1-5.92,0,6.68,6.68,0,0,0-1.12-3.18c2.42.21,4.87.24,5.85.24a2.32,2.32,0,0,0,1.68-.45c.94-.81,1.61-4.1,2.1-11.38H127.52c-1.26,6.06-4.1,11.66-11.14,15.12a9.46,9.46,0,0,0-2.34-2.69c9.52-4.38,10.47-12.92,10.85-20.69H114.53v-3.11h13.76v-5.95h3.32v5.95h14.07v3.11Z"/><path class="cls-2" d="M158.34,273.07a83.31,83.31,0,0,0-1.72,13.2,34.45,34.45,0,0,0,.21,3.74c.6-1.43,1.3-3.15,1.86-4.44l1.75,1.4c-.91,2.66-2.14,6.4-2.49,8.15a6.84,6.84,0,0,0-.17,1.61c0,.35,0,.88.07,1.3l-3.19.21a44.53,44.53,0,0,1-1.29-11.31c0-5.21,1.12-11.16,1.5-14a26.7,26.7,0,0,0,.32-2.91l3.88.35A26.32,26.32,0,0,0,158.34,273.07Zm8.36,17.54c0,1.57,1.23,2.87,5.46,2.87a37.36,37.36,0,0,0,8.72-1l.07,3.75a48.08,48.08,0,0,1-8.86.7c-6,0-8.68-2.07-8.68-5.46a17.83,17.83,0,0,1,.6-4.31l3.15.28A12,12,0,0,0,166.7,290.61Zm13.16-17.68v3.57a88.59,88.59,0,0,1-14.66,0l0-3.57A64.5,64.5,0,0,0,179.86,272.93Z"/><path class="cls-2" d="M193.89,290.57c0,2.49,2.45,4.2,7.84,4.2a46.41,46.41,0,0,0,12.07-1.36l0,3.85a52.07,52.07,0,0,1-12,1.22c-7.52,0-11.58-2.52-11.58-7.1a21.26,21.26,0,0,1,.7-4.94l3.6.35A13.61,13.61,0,0,0,193.89,290.57Zm8-17.78c3.39,0,7.14-.21,9.73-.49v3.64c-2.42.21-6.44.42-9.73.42-3.57,0-6.58-.14-9.38-.38v-3.61A89.27,89.27,0,0,0,201.87,272.79Zm13.51.6-2.31,1a35.9,35.9,0,0,0-2.8-4.86l2.27-1A49.2,49.2,0,0,1,215.38,273.39Zm4.06-1.51-2.28,1a36,36,0,0,0-2.87-4.83l2.24-.95C217.44,268.42,218.77,270.62,219.44,271.88Z"/><path class="cls-2" d="M251.64,285a21.38,21.38,0,0,1-7.45,8.5,45.93,45.93,0,0,0,12.32,2.91,14.06,14.06,0,0,0-2,3.08,43.37,43.37,0,0,1-13.65-4.06A48.85,48.85,0,0,1,227,299.53a10.16,10.16,0,0,0-1.89-2.94,47.64,47.64,0,0,0,12.57-3.08,23.65,23.65,0,0,1-6.37-6.44l.63-.28h-1.51v-3h18.38l.6-.1ZM229,284.8h-3.05v-7.25h5.29a23.86,23.86,0,0,0-2-4.16l2.84-.81a19,19,0,0,1,2.24,4.38l-1.89.59H240a20.32,20.32,0,0,0-1.57-4.93l2.9-.63a19.79,19.79,0,0,1,1.75,4.83l-2.94.73h7a39.33,39.33,0,0,0,2.8-5.63l3.39.91c-.91,1.57-1.92,3.32-2.9,4.72h5.49v7.25h-3.18v-4.38H229Zm25.24-14.74c-7.35,1.47-18.13,2.31-27.24,2.63a8.89,8.89,0,0,0-.7-2.77c9-.35,19.57-1.22,25.66-2.52Zm-19.4,16.73a19.39,19.39,0,0,0,6.13,5.15,17.68,17.68,0,0,0,5.81-5.15Z"/><path class="cls-2" d="M262.6,273.46h11.8v2.59H262.6Zm11,24.71h-6.83v1.5h-2.7V287.91h9.53Zm-.14-17.33h-9.35v-2.52h9.35Zm-9.35,2.24h9.35v2.52h-9.35Zm9.21-11.79h-9v-2.56h9Zm-6.55,19.25v5h4.1v-5Zm28.14,3.85h-1.85v2.24c0,1.47-.28,2.2-1.37,2.62s-2.62.42-4.93.42a10.33,10.33,0,0,0-.77-2.55c1.5.07,3,.07,3.5.07s.56-.18.56-.6v-2.2H279.23v5.32h-2.76v-5.32h-2V291.8h2v-8.75h6.75v-1.68h-8.68v-2.56h4.87v-1.92h-3.26v-2.35h3.26v-1.85h-3.92v-2.38h3.92v-2.73h2.94v2.73h4.86v-2.73h2.94v2.73h4.13v2.38h-4.13v1.85h3.43v2.35h-3.43v1.92h4.69v2.56H286v1.68h7.07v8.75h1.85Zm-15.68-9v2.14h4v-2.14Zm0,6.41h4v-2.14h-4Zm3.12-17.26h4.86v-1.85h-4.86Zm0,4.27h4.86v-1.92h-4.86Zm3.64,6.58v2.14h4.06v-2.14Zm4.06,6.41v-2.14H286v2.14Z"/><path class="cls-2" d="M306.63,276.05a78.2,78.2,0,0,0,.24,7.87c.53,5.5,2,9.21,4.31,9.21,1.75,0,3.29-3.82,4.09-7l2.77,3.25c-2.21,6-4.38,8.05-6.93,8.05-3.54,0-6.79-3.36-7.74-12.56-.35-3.08-.38-7.28-.38-9.38a17.83,17.83,0,0,0-.28-3.29l4.27.07A27.68,27.68,0,0,0,306.63,276.05Zm24.54,14.84-3.61,1.4c-.6-6-2.59-13.79-6.13-18l3.47-1.16C328.12,277.2,330.71,285.22,331.17,290.89Z"/><path class="cls-2" d="M349.71,272.23c-.1.6-.24,1.3-.42,2.07a61.26,61.26,0,0,0,6.34-1.23v3.47a64.17,64.17,0,0,1-7,1.19c-.35,1.5-.73,3.11-1.12,4.58a105.35,105.35,0,0,1-5.53,16.1l-3.82-1.29c2.07-3.57,4.62-10.78,5.95-15.68.28-1.09.56-2.24.84-3.4-1,0-2,.07-2.83.07-1.61,0-2.91,0-4.17-.14l-.07-3.43a33,33,0,0,0,4.27.28c1.09,0,2.28,0,3.5-.14.18-1.05.35-2,.42-2.62a14,14,0,0,0,.14-3.15l4.21.31C350.17,270.1,349.85,271.53,349.71,272.23Zm4.2,19.32c0,1.58.95,3,5.43,3a39.55,39.55,0,0,0,7-.7l-.11,3.54a54.89,54.89,0,0,1-6.93.49c-5.7,0-8.78-1.86-8.78-5.32a21,21,0,0,1,.59-4.38l3.26.32A12.84,12.84,0,0,0,353.91,291.55Zm5.78-12a59.16,59.16,0,0,1,6.12.28l-.1,3.36a43.45,43.45,0,0,0-5.95-.46,57.83,57.83,0,0,0-6.62.39v-3.26C355,279.69,357.45,279.55,359.69,279.55Z"/><path class="cls-2" d="M385.94,272.69c-.14.59-.28,1.29-.42,2.06a61.23,61.23,0,0,0,6.34-1.19V277a61.29,61.29,0,0,1-7.07,1.19c-.32,1.51-.7,3.12-1.09,4.59a109.51,109.51,0,0,1-5.53,16.1l-3.85-1.3c2.1-3.57,4.66-10.78,5.95-15.68.28-1.08.6-2.24.84-3.39-1,0-1.92.07-2.8.07-1.64,0-2.9,0-4.16-.14l-.07-3.43a32.5,32.5,0,0,0,4.27.28c1.08,0,2.27,0,3.46-.14.21-1.05.39-1.93.46-2.59a15.08,15.08,0,0,0,.14-3.19l4.2.32C386.4,270.55,386.08,272,385.94,272.69Zm4.2,19.32c0,1.57.95,3,5.43,3a39.93,39.93,0,0,0,7-.7l-.11,3.53a53.62,53.62,0,0,1-6.93.49c-5.7,0-8.78-1.85-8.78-5.32a22.93,22.93,0,0,1,.56-4.37l3.29.31A12.91,12.91,0,0,0,390.14,292Zm5.78-12a59.16,59.16,0,0,1,6.12.28l-.1,3.36a45.39,45.39,0,0,0-5.95-.42,60.24,60.24,0,0,0-6.62.35v-3.25C391.26,280.14,393.68,280,395.92,280Zm5.18-4.48-2.31,1a40.06,40.06,0,0,0-2.8-4.87l2.27-.94A54.29,54.29,0,0,1,401.1,275.52Zm4.06-1.5-2.28,1a44,44,0,0,0-2.87-4.86l2.24-.95A51.7,51.7,0,0,1,405.16,274Z"/><path class="cls-2" d="M417,276.05a78.41,78.41,0,0,0,.25,7.87c.52,5.5,2,9.21,4.3,9.21,1.75,0,3.29-3.82,4.1-7l2.76,3.25c-2.2,6-4.37,8.05-6.93,8.05-3.53,0-6.79-3.36-7.73-12.56-.35-3.08-.39-7.28-.39-9.38a17.83,17.83,0,0,0-.28-3.29l4.27.07A29.36,29.36,0,0,0,417,276.05Zm24.54,14.84-3.6,1.4c-.6-6-2.59-13.79-6.13-18l3.47-1.16C438.49,277.2,441.08,285.22,441.53,290.89Z"/><path class="cls-2" d="M450.55,273.14c2.56-.24,8.79-.84,15.23-1.36,3.75-.32,7.25-.53,9.66-.63v3.53a31.25,31.25,0,0,0-6.79.53,11.61,11.61,0,0,0-7.77,10.53c0,6.37,5.95,8.51,11.76,8.75l-1.29,3.71c-6.86-.31-14-4-14-11.72a14.12,14.12,0,0,1,5.95-11.38c-3.53.39-11.69,1.23-15.58,2.07l-.38-3.85C448.66,273.28,449.89,273.21,450.55,273.14Z"/><path class="cls-2" d="M495.11,271.46c0,.84-.07,2-.14,3.22a43.69,43.69,0,0,0,6.89-1.33l.07,3.43a70.62,70.62,0,0,1-7,1.16c0,1.4-.07,2.8-.07,4.06v1.22a27.48,27.48,0,0,1,7.28-1.12c5.21,0,9.13,2.8,9.13,7.28,0,4.17-2.41,7.07-7.56,8.3a27.1,27.1,0,0,1-4.44.52L498,294.63a18.2,18.2,0,0,0,4.2-.24c2.94-.56,5.49-2.1,5.49-5,0-2.7-2.41-4.2-5.6-4.2a23.8,23.8,0,0,0-7.17,1.15c0,2.91.14,5.85.14,7.25,0,3.71-1.37,4.79-3.43,4.79-3.05,0-7.7-2.8-7.7-6.16,0-3,3.6-6.09,7.73-7.87v-2.17c0-1.23,0-2.56,0-3.89-.88.07-1.65.11-2.31.11-2.14,0-3.47-.07-4.62-.18l-.11-3.36a34.58,34.58,0,0,0,4.66.28c.73,0,1.54,0,2.41-.1,0-1.58,0-2.84,0-3.47a23.81,23.81,0,0,0-.21-2.76h3.85C495.28,269.43,495.18,270.62,495.11,271.46Zm-4.48,23.14c.7,0,1.19-.46,1.19-1.61s-.07-3.15-.11-5.43c-2.55,1.26-4.37,3.05-4.37,4.45S489.44,294.6,490.63,294.6Zm23.48-16.94-1.71,2.8a50.18,50.18,0,0,0-8.09-5.18l1.54-2.66A61.63,61.63,0,0,1,514.11,277.66Z"/><path class="cls-2" d="M527,277.76c1.54-3.18,4.9-6.93,9.14-6.93,4.76,0,8.29,4.69,8.29,12.22,0,9.76-6.09,14.24-15,15.89l-2.1-3.19c7.66-1.19,13.4-4,13.4-12.7,0-5.46-1.85-9-5.18-9-4.27,0-8.15,6.3-8.47,10.92a16.67,16.67,0,0,0,.14,4l-3.43.25a45.08,45.08,0,0,1-.38-5.67,93.26,93.26,0,0,1,1-11.27,28.18,28.18,0,0,0,.28-3.33l3.82.18A66.82,66.82,0,0,0,527,277.76Z"/><path class="cls-2" d="M569.88,271.32c0,.42,0,1.09-.07,1.86a78.14,78.14,0,0,0,9.21-1v3.22c-2.59.31-5.85.63-9.24.77v4.34c3.46-.14,6.54-.46,9.59-.88l0,3.26c-3.22.38-6.12.63-9.48.77.07,1.61.17,3.29.24,4.86a28.05,28.05,0,0,1,10,5.36l-2,3.11a27.15,27.15,0,0,0-7.84-5.11c0,.74.07,1.33.07,1.82,0,2.66-1.93,5.08-6.51,5.08-5.25,0-8.09-2-8.09-5.46s3.12-5.64,8.33-5.64c.91,0,1.75.07,2.59.14,0-1.36-.1-2.8-.14-4.09H564.6c-2.24,0-6.13-.18-8.54-.46l0-3.29a67.52,67.52,0,0,0,8.65.63h1.78v-4.3H565c-2.31,0-6.51-.35-8.79-.63l0-3.19a63.28,63.28,0,0,0,8.78.77h1.51v-2.13a11.5,11.5,0,0,0-.18-2.21h3.75C570,269.57,569.92,270.34,569.88,271.32Zm-6.51,24.36c2,0,3.47-.59,3.47-2.83,0-.49,0-1.19,0-2a15.81,15.81,0,0,0-3.18-.32c-3,0-4.59,1.16-4.59,2.56S560.36,295.68,563.37,295.68Z"/><path class="cls-2" d="M607.49,271.57c0,.42,0,1.05,0,1.75H618l-.07,3.29c-2.07-.11-5.39-.18-10.47-.18,0,1.89,0,3.92,0,5.5a8.57,8.57,0,0,1,1.23,4.65c0,4.66-2.49,10.15-10.78,12.57l-3-2.94c4.13-.91,7.35-2.45,9-5.15a5.48,5.48,0,0,1-2.45.53,5.85,5.85,0,0,1-5.88-6.09,6.32,6.32,0,0,1,6.51-6.3,7.16,7.16,0,0,1,2,.24c0-.91,0-2,0-3-5.32.07-11.06.28-15.4.56l-.11-3.36c4-.07,10.47-.25,15.47-.32,0-.77,0-1.36-.07-1.78-.1-1.12-.21-2.21-.28-2.56h4A19.64,19.64,0,0,0,607.49,271.57Zm-5.39,17c1.82,0,3.18-1.43,2.73-4.72a2.88,2.88,0,0,0-2.73-1.68,3.16,3.16,0,0,0-3.19,3.29A3.07,3.07,0,0,0,602.1,288.54Z"/><path class="cls-2" d="M636.08,293.83a5.48,5.48,0,0,1-11,0,5.48,5.48,0,1,1,11,0Zm-2.1,0a3.36,3.36,0,1,0-3.36,3.36A3.35,3.35,0,0,0,634,293.83Z"/></g></g></svg>