<svg xmlns="http://www.w3.org/2000/svg" viewBox="0 0 586.87 178.84"><defs><style>.cls-1{fill:#e15513;}.cls-2{fill:#fff;}</style></defs><g id="レイヤー_2" data-name="レイヤー 2"><g id="design"><rect class="cls-1" x="356.56" width="145" height="35"/><rect class="cls-1" x="359.06" y="0.6" width="140" height="33.79"/><path class="cls-2" d="M63.93,7.74c1.08,0,6-.22,7.5-.4A8,8,0,0,0,73,7.07l1.58,1.82A14.64,14.64,0,0,0,72.93,10c-1.83,1.47-5,4.1-6.82,5.57,3.59-.37,7.94-.7,11.29-.7l0,2.35a40.81,40.81,0,0,0-6.4.08c-2.35.35-4.55,2.22-4.55,4.42s1.83,3.1,4.1,3.4a18.32,18.32,0,0,0,3.67.05l-.52,2.6C67.51,28,64,26.14,64,22.14a5.82,5.82,0,0,1,2.42-4.37c-2.5.2-5.6.57-8.4,1.05l-.22-2.38c1.35-.12,3.07-.35,4.35-.5a95.77,95.77,0,0,0,7.72-6.27C68.81,9.74,65,9.92,64,10c-.65,0-1.43.15-2.08.2l-.12-2.55A18.61,18.61,0,0,0,63.93,7.74Z"/><path class="cls-2" d="M95.19,27.46l-1.48-2.34a18.12,18.12,0,0,0,2.23-.35c3.2-.73,6-3.08,6-7.1a6.65,6.65,0,0,0-6-7,50.56,50.56,0,0,1-1.5,7c-1.5,5.1-3.58,7.92-6,7.92s-4.75-2.75-4.75-6.92c0-5.6,4.9-10.4,11.17-10.4,6,0,9.8,4.2,9.8,9.42S101.26,26.59,95.19,27.46Zm-6.73-4.79c1.13,0,2.3-1.63,3.45-5.48a39.17,39.17,0,0,0,1.38-6.45,8.37,8.37,0,0,0-7.13,7.73C86.16,21.34,87.39,22.67,88.46,22.67Z"/><path class="cls-2" d="M109.41,9.74h9.09v1.85h-9.09Zm8.37,17.65h-5.25v1.07h-2V20.07h7.25ZM117.63,15h-7v-1.8h7Zm-7,1.6h7v1.8h-7Zm7-8.43h-6.9V6.37h6.9Zm-5.1,13.75v3.6h3.22v-3.6Zm19.92,3.5v2.2H118.53v-2.2h1.75V13.32h2.15V25.44H125V9.14H119.3V6.94H132v2.2h-4.79v6.45h4.65v2.2h-4.65v7.65Z"/><path class="cls-2" d="M151,9.54a40,40,0,0,1-2.17,12.55c1.65,3.22,4,4,6.82,4,.7,0,3.95,0,4.75,0a8.64,8.64,0,0,0-.67,2.05h-4.2c-3.23,0-5.8-.83-7.67-4a12.91,12.91,0,0,1-3.8,4.35,6.86,6.86,0,0,0-1.3-1.62,11,11,0,0,0,4-5,26.09,26.09,0,0,1-1.17-4.27,16,16,0,0,1-1.15,2.77,10.49,10.49,0,0,0-1.5-1.37,13.39,13.39,0,0,0,.8-1.78L142,18v8c0,1.1-.23,1.7-.88,2.08a7,7,0,0,1-3.1.37,10.08,10.08,0,0,0-.62-2c1,0,1.9,0,2.15,0s.42-.1.42-.45V18.82l-2.5,1-.57-2.15c.85-.27,1.92-.67,3.07-1.15v-4.2h-2.7V10.19H140V5.54h2v4.65h1.92v2.15H142v3.4l1.72-.67.3,1.32a47.87,47.87,0,0,0,1.58-10.85l1.95.18c-.1,1.25-.2,2.5-.33,3.7h2.23l.34-.05Zm-4,1.88c-.1.7-.2,1.37-.33,2a37.61,37.61,0,0,0,1.1,5.83,36.45,36.45,0,0,0,1.3-7.85Zm6.89,2.5c0,3.17-.35,7.55-2.35,10.4A7,7,0,0,0,150,23c1.75-2.6,1.93-6.3,1.93-9.12V7.07h5.72V20.72a5.48,5.48,0,0,0,.05,1.17A.21.21,0,0,0,158,22h.27a.33.33,0,0,0,.3-.13,2.5,2.5,0,0,0,.15-.72c.05-.45.08-1.45.08-2.7a3.73,3.73,0,0,0,1.5.8c-.05,1.15-.13,2.55-.23,3.07a1.73,1.73,0,0,1-.6,1.08,1.55,1.55,0,0,1-1,.32h-.92a1.91,1.91,0,0,1-1.28-.47c-.32-.38-.42-.8-.42-2.68V9h-1.93Z"/><path class="cls-2" d="M169.48,9.47a60.59,60.59,0,0,0-1.22,9.42,24.76,24.76,0,0,0,.15,2.68c.42-1,.92-2.25,1.32-3.18l1.25,1c-.65,1.9-1.52,4.58-1.77,5.82a4.94,4.94,0,0,0-.13,1.15c0,.25,0,.63,0,.93l-2.27.15a31.72,31.72,0,0,1-.93-8.07,71.25,71.25,0,0,1,1.08-10,17,17,0,0,0,.22-2.07l2.78.25A16.84,16.84,0,0,0,169.48,9.47Zm6,12.52c0,1.13.87,2.05,3.89,2.05a27.16,27.16,0,0,0,6.23-.67l0,2.67a34.36,34.36,0,0,1-6.33.5c-4.24,0-6.19-1.48-6.19-3.9a12.56,12.56,0,0,1,.42-3.07l2.25.2A8.85,8.85,0,0,0,175.46,22Zm9.39-12.62v2.55a64.21,64.21,0,0,1-10.47,0l0-2.55A46,46,0,0,0,184.85,9.37Z"/><path class="cls-2" d="M191.73,22.52l2.05-1.8a46.51,46.51,0,0,1,5.53,5.52L197.18,28A44.51,44.51,0,0,0,191.73,22.52Z"/><path class="cls-2" d="M233,17.87a24.32,24.32,0,0,0,9.23,7.37,12.57,12.57,0,0,0-1.7,2,27,27,0,0,1-8.73-7.5v8.72h-2.44V19.84a27.24,27.24,0,0,1-8.7,7.37,16.55,16.55,0,0,0-1.7-2,24.19,24.19,0,0,0,9.17-7.37h-8.45v-2.3h9.68v-3.8h-7.88V9.47h7.88V5.54h2.44V9.47h8.08v2.3h-8.08v3.8h9.83v2.3Z"/><path class="cls-2" d="M250.22,20.19a23.12,23.12,0,0,1-1.67,6.37,9.71,9.71,0,0,0-1.77-.87,18.9,18.9,0,0,0,1.47-5.85Zm2.8-2V28.51H251V18.37c-1.38.07-2.65.15-3.77.22l-.2-2.05,1.75-.05c.44-.6.94-1.27,1.42-2a22.82,22.82,0,0,0-3.1-3.5l1.13-1.53c.22.18.45.38.67.58a29.56,29.56,0,0,0,2.05-4.53l2,.8c-.88,1.68-1.93,3.6-2.83,5a17,17,0,0,1,1.2,1.37c.9-1.47,1.75-3,2.38-4.27l1.92.87c-1.4,2.28-3.2,5-4.82,7.1,1,0,2-.07,3.12-.15-.32-.7-.67-1.4-1-2l1.57-.65a19.31,19.31,0,0,1,2.28,5.17l-1.7.75a11.38,11.38,0,0,0-.4-1.35Zm2.15,1.4a29.25,29.25,0,0,1,1.58,4.52l-1.78.61a27,27,0,0,0-1.47-4.58Zm14-12.3a15.6,15.6,0,0,1-4.25,6.53A17.51,17.51,0,0,0,270.39,16,8.58,8.58,0,0,0,269,18a18.45,18.45,0,0,1-5.9-2.7,22.41,22.41,0,0,1-5.85,2.8,8.61,8.61,0,0,0-1.3-1.95,19.74,19.74,0,0,0,5.35-2.33A15.53,15.53,0,0,1,258,9.22l1.38-.45h-2.8v-2h10.57l.45-.1Zm-4.83,18.37h5.77v2.05H256V25.71h6V22.12h-4.5V20.07H262v-3.3h2.3v3.3H269v2.05h-4.68ZM260.17,8.77a12,12,0,0,0,2.88,3.72,13.36,13.36,0,0,0,3-3.72Z"/><path class="cls-2" d="M274.82,26.41c.87-1.25,1.17-3.37,1.27-5.49l1.32.27c-.1,2.23-.37,4.55-1.35,5.9Zm18.52-4.84a9.31,9.31,0,0,0,4.94,5,8.75,8.75,0,0,0-1.47,1.83,10.54,10.54,0,0,1-5-5.6,10.72,10.72,0,0,1-5.75,5.67,6.2,6.2,0,0,0-1.3-1.55,1.89,1.89,0,0,1-.35.7,1.78,1.78,0,0,1-1.37.73,16.42,16.42,0,0,1-2.2.05,4.71,4.71,0,0,0-.53-1.83,17.09,17.09,0,0,0,1.78.08.69.69,0,0,0,.65-.3,6.32,6.32,0,0,0,.55-2.65l-.85.33a14.15,14.15,0,0,0-1.23-3.25l1-.33a15.32,15.32,0,0,1,1.13,2.58c.07-.93.15-2.05.2-3.48h-7.27V6.52h8.94V8.44h-3v1.8h2.48v1.53a16.36,16.36,0,0,0,5.7-6.23h2.05a17.06,17.06,0,0,0,6,5.85,12.21,12.21,0,0,0-1.17,2,16,16,0,0,1-1.82-1.32v1.45h-2.8v1.72h4.57v6.33Zm-14.4-.3a22.87,22.87,0,0,1,.35,4.52l-1.18.17a24.45,24.45,0,0,0-.27-4.57Zm-.73-12.83v1.8h2.1V8.44Zm0,3.63V14h2.1v-1.9Zm0,5.67h2.1V15.79h-2.1Zm2.25,7.47a20.14,20.14,0,0,0-.85-4l1.05-.2a17.63,17.63,0,0,1,.93,4Zm5.1-7.47s0,.6,0,.85c-.2,4.6-.4,7-.75,8.25,3-1.45,4.52-3.32,5.2-5.27h-3.85V15.24h4.42V13.52h-2.77V12.09a14.55,14.55,0,0,1-2.05,1.53,10.91,10.91,0,0,0-1.05-1.78v.23h-2.48V14h2.48v1.82h-2.48v1.95Zm4.85,2.08a14.48,14.48,0,0,0,.15-2.35V17h-2.5v2.83Zm4.6-8.13a18.29,18.29,0,0,1-3.52-4.1,17.1,17.1,0,0,1-3.25,4.1ZM292.64,17v.5a18.2,18.2,0,0,1-.13,2.33h2.7V17Z"/><path class="cls-2" d="M312.4,8.64c-.15.78-.38,2-.6,3.15,1-.1,1.92-.15,2.5-.15,2.42,0,4.24,1,4.24,4.48,0,2.95-.37,7-1.42,9.07-.8,1.72-2.1,2.17-3.85,2.17a14,14,0,0,1-3-.35l-.4-2.6a13,13,0,0,0,3.05.5A2,2,0,0,0,315,23.72c.74-1.55,1.12-4.73,1.12-7.33,0-2.15-1-2.52-2.55-2.52-.52,0-1.35.05-2.3.15-.92,3.67-2.7,9.45-5.17,13.44l-2.58-1c2.5-3.37,4.3-8.77,5.2-12.17-1.15.12-2.17.25-2.75.32s-1.77.23-2.47.35l-.25-2.7c.85,0,1.57,0,2.42,0s2.15-.12,3.58-.25a27.52,27.52,0,0,0,.57-5.37l2.93.3C312.62,7.44,312.5,8.09,312.4,8.64Zm13.44,9.9-2.47,1.15A29.9,29.9,0,0,0,319,10.44l2.33-1A43.4,43.4,0,0,1,325.84,18.54Z"/><path class="cls-2" d="M334.79,18a12,12,0,0,1,7.79-2.78c4.08,0,6.63,2.48,6.63,5.45,0,4.5-3.8,7.75-13.57,6.92L334.89,25c7.72,1,11.62-1.1,11.62-4.4,0-1.85-1.73-3.17-4.13-3.17A9.38,9.38,0,0,0,335,20.59a5.24,5.24,0,0,0-.85,1.33l-2.3-.55a94.9,94.9,0,0,0,1.28-10.28l2.65.35C335.44,13,335,16.44,334.79,18Zm11-9.35L345.26,11c-2.45-.32-7.95-1.47-9.87-2L336,6.69A74,74,0,0,0,345.83,8.62Z"/><path class="cls-2" d="M386.93,11s0,1,0,1.32c-.23,10.23-.43,13.85-1.23,15a2.81,2.81,0,0,1-2,1.25,17.22,17.22,0,0,1-3.1.1,6.93,6.93,0,0,0-.88-2.85c1.1.1,2,.12,2.53.12a.92.92,0,0,0,.85-.42c.52-.68.77-3.72.92-11.8h-2.25c-.32,6.7-1.47,11.85-5.67,15.17a9.87,9.87,0,0,0-1.75-2c-3.6.37-7.2.75-9.9,1l-.35-2.5,5.08-.34v-1.5h-4.4v-2.1h4.4v-1h-4.3V12.72h4.3v-1h-4.93V9.59h4.93v-1c-1.45.1-2.88.18-4.23.2a9.09,9.09,0,0,0-.65-2.1,77.59,77.59,0,0,0,10.78-1.22l1.29,2.22c-1.32.28-2.87.5-4.49.68V9.59h4.8V11H379c0-1.65,0-3.38,0-5.23h2.85c0,1.83,0,3.58-.05,5.23Zm-19.69,4.72h1.95v-1.1h-1.95Zm1.95,2.9V17.47h-1.95v1.12Zm2.7,6.2c1.42-.1,2.9-.23,4.34-.35,1.95-2.7,2.55-6.27,2.73-10.75h-2.27V11.74h-4.8v1h4.42v7.72h-4.42v1h4.52v2.1h-4.52Zm1.95-9.1v-1.1h-1.95v1.1Zm-1.95,1.78v1.12h1.95V17.47Z"/><path class="cls-2" d="M414.57,6.84V9.62h-9.8v2h4.55V22.94h-11.9V11.62h4.38v-2h-9.6V6.84Zm-3.63,4.43h2.88V28.66h-2.88V27.21H395.85v1.48H393V11.27h2.9V24.41h15.09Zm-11.09,4.87H402V14h-2.17Zm0,4.38H402V18.39h-2.17ZM406.74,14h-2.17v2.1h2.17Zm0,4.35h-2.17v2.13h2.17Z"/><path class="cls-2" d="M431.53,27.69l-1.87-3a17.37,17.37,0,0,0,2.32-.39c3.2-.75,5.7-3.05,5.7-6.7,0-3.45-1.87-6-5.25-6.6a49.9,49.9,0,0,1-1.5,6.77c-1.5,5.05-3.65,8.15-6.37,8.15s-5.07-3.05-5.07-7.27c0-5.78,5-10.7,11.47-10.7,6.2,0,10.1,4.3,10.1,9.75C441.06,23,437.83,26.71,431.53,27.69Zm-6.87-5.6c1,0,2-1.57,3-4.95A37.41,37.41,0,0,0,429,11.09a7.88,7.88,0,0,0-6.35,7.25C422.68,20.87,423.68,22.09,424.66,22.09Z"/><path class="cls-2" d="M465.18,5.19a3,3,0,0,1,0,6,1.23,1.23,0,0,1-.33,0c-.07.28-.12.53-.2.75-.57,2.45-1.65,6.33-3.75,9.1a20,20,0,0,1-10,6.92l-2.73-3a16.32,16.32,0,0,0,9.8-5.87,15.62,15.62,0,0,0,2.92-7H449.23c-1.15,0-2.35,0-3,.1V8.57a27.74,27.74,0,0,0,3,.2H460.8a11.86,11.86,0,0,0,1.43-.1,2.36,2.36,0,0,1-.05-.48A3,3,0,0,1,465.18,5.19Zm0,4.43a1.44,1.44,0,1,0-1.45-1.43A1.44,1.44,0,0,0,465.18,9.62Z"/><path class="cls-2" d="M476.34,8.84h13.75c.62,0,1.57,0,2.47-.05-.05.75-.05,1.68-.05,2.43V23.47c0,1,.05,3.37.05,3.47h-3.45c0-.05,0-.63,0-1.35H477.09c0,.7,0,1.27,0,1.35h-3.45c0-.13.08-2.3.08-3.5V11.22c0-.7,0-1.73-.05-2.43C474.71,8.82,475.66,8.84,476.34,8.84Zm.75,13.55h12.07V12H477.09Z"/><path class="cls-2" d="M517.29,9.32a57.72,57.72,0,0,0,7.35-.73v2.33a78.67,78.67,0,0,1-8.23.65,20.26,20.26,0,0,1-1.92,3.3,7.24,7.24,0,0,1,3.2-.75A3.3,3.3,0,0,1,521,16.24c1.55-.72,2.82-1.25,4-1.8.85-.37,1.57-.7,2.37-1.1l1,2.3c-.73.23-1.8.63-2.55.93-1.28.5-2.9,1.15-4.65,1.95,0,1.42,0,3.42.07,4.62h-2.37c0-.87.07-2.3.1-3.52-2.15,1.17-3.5,2.32-3.5,3.8,0,1.7,1.62,2,4.15,2a42.62,42.62,0,0,0,6.95-.65l-.08,2.53a64.94,64.94,0,0,1-6.95.45c-3.72,0-6.62-.88-6.62-4s3-5,5.9-6.5a2,2,0,0,0-2-1.25,6.36,6.36,0,0,0-4.15,1.8,27.06,27.06,0,0,0-2.28,2.67l-2.14-1.6a25,25,0,0,0,5.64-7.3h-.72c-1.05,0-2.78-.05-4.18-.15V9.14a32.4,32.4,0,0,0,4.3.28c.48,0,1,0,1.48,0a12.59,12.59,0,0,0,.57-3l2.6.2C517.81,7.32,517.61,8.24,517.29,9.32Z"/><path class="cls-2" d="M71.92,57V78.31H69.47V76.66H57.13v1.65H54.78V57ZM57.13,59.27v3.55H69.47V59.27Zm0,5.75v3.6H69.47V65Zm12.34,9.37V70.82H57.13v3.57Z"/><path class="cls-2" d="M87.29,68.27l-3.13.9v6.72c0,1.2-.25,1.82-1,2.17a8.38,8.38,0,0,1-3.5.4A9.6,9.6,0,0,0,79,76.34c1,0,2.07,0,2.37,0s.47-.1.47-.47v-6c-1.07.33-2.09.6-3,.85l-.6-2.25c1-.25,2.25-.52,3.62-.9v-5H78.59V60.42h3.27V55.57h2.3v4.85h2.73v2.15H84.16v4.32c.93-.25,1.88-.5,2.83-.77Zm1-.83h11.85v10.9h-2.3v-1H90.54v1.12h-2.2Zm9.2-3.9c1.3,0,1.5-.45,1.67-3a7.08,7.08,0,0,0,2.1.85c-.3,3.38-1,4.25-3.62,4.25H92.31c-3.12,0-4-.67-4-3.12v-6.9h2.3v3.52a40.55,40.55,0,0,0,7.43-2.27l1.72,1.7A50.9,50.9,0,0,1,90.66,61v1.5c0,.87.3,1,1.83,1Zm-7,5.83v2.1h7.35v-2.1Zm7.35,6.09V73.29H90.54v2.17Z"/><path class="cls-2" d="M120.32,58.39c0,.3,0,.75,0,1.25h7.49L127.74,62c-1.47-.07-3.84-.12-7.47-.12,0,1.35,0,2.8,0,3.92a6.21,6.21,0,0,1,.87,3.33c0,3.32-1.77,7.24-7.7,9L111.35,76c3-.65,5.25-1.75,6.45-3.67a3.92,3.92,0,0,1-1.75.37,4.17,4.17,0,0,1-4.2-4.35,4.52,4.52,0,0,1,4.65-4.5,4.84,4.84,0,0,1,1.4.18c0-.65,0-1.4,0-2.13-3.8,0-7.9.2-11,.4l-.08-2.4c2.82,0,7.47-.17,11-.22,0-.55,0-1,0-1.28-.08-.8-.15-1.57-.2-1.82h2.87A15.4,15.4,0,0,0,120.32,58.39Zm-3.85,12.13c1.3,0,2.28-1,2-3.38a2.06,2.06,0,0,0-2-1.2,2.25,2.25,0,0,0-2.27,2.35A2.19,2.19,0,0,0,116.47,70.52Z"/><path class="cls-2" d="M151.4,58.32C148.23,64.17,141,67.52,134.23,69a7.26,7.26,0,0,0-1.07-2A32.11,32.11,0,0,0,142.08,64a24.13,24.13,0,0,0-3.92-2.55,34,34,0,0,1-3.25,1.5,7.29,7.29,0,0,0-1.55-1.72,20.45,20.45,0,0,0,9.27-5.8l2.58.57c-.46.5-.93,1-1.43,1.48h5.75l.37-.1ZM154.9,67c-3.07,7.28-10.55,10.3-18.82,11.47a6.86,6.86,0,0,0-1-2.12,31.6,31.6,0,0,0,10.4-2.77,24.94,24.94,0,0,0-4.3-3,39.46,39.46,0,0,1-3.9,1.63,6.68,6.68,0,0,0-1.4-1.8c5.18-1.6,8.85-4.08,10.77-6.45l2.58.6c-.53.6-1.08,1.17-1.7,1.75H153l.4-.1Zm-13.49-7.57a15.47,15.47,0,0,1-1.3.87,23.2,23.2,0,0,1,4,2.53,16.21,16.21,0,0,0,3.9-3.4Zm3.64,8.85c-.57.4-1.14.77-1.77,1.15a24.82,24.82,0,0,1,4.3,3,13.2,13.2,0,0,0,4-4.1Z"/><path class="cls-2" d="M173.07,59.82c-1.68,1.4-5.12,4.12-6.9,5.62-1.42,1.23-1.42,1.55.05,2.83,2.13,1.75,6.67,5.37,9.27,8l-2.27,2.07c-.6-.67-1.25-1.37-1.9-2-1.67-1.7-5.4-4.9-7.72-6.85s-2.18-3.22.2-5.2c1.92-1.6,5.55-4.5,7.24-6.17a14.39,14.39,0,0,0,1.63-1.88L175,58.27C174.37,58.74,173.57,59.42,173.07,59.82Z"/><path class="cls-2" d="M193.38,77.46l-1.48-2.34a18.12,18.12,0,0,0,2.23-.35c3.2-.73,6.05-3.08,6.05-7.1a6.65,6.65,0,0,0-6.05-7,50.56,50.56,0,0,1-1.5,7c-1.5,5.1-3.58,7.92-6,7.92s-4.75-2.75-4.75-6.92c0-5.6,4.9-10.4,11.17-10.4,6,0,9.8,4.2,9.8,9.42S199.45,76.59,193.38,77.46Zm-6.73-4.79c1.13,0,2.3-1.63,3.45-5.48a39.17,39.17,0,0,0,1.38-6.45,8.37,8.37,0,0,0-7.13,7.73C184.35,71.34,185.58,72.67,186.65,72.67Z"/><path class="cls-2" d="M217.51,61.92c-.08,1.22-.18,2.47-.33,3.7h9.75s0,.72-.07,1.07c-.45,7-1,9.72-2,10.75a3.13,3.13,0,0,1-2.35,1,40.52,40.52,0,0,1-4.23,0,4.76,4.76,0,0,0-.8-2.27c1.73.15,3.48.17,4.18.17a1.67,1.67,0,0,0,1.2-.32c.67-.58,1.15-2.92,1.5-8.12h-7.6c-.9,4.32-2.93,8.32-7.95,10.79a6.9,6.9,0,0,0-1.67-1.92c6.79-3.12,7.47-9.22,7.74-14.77h-7.39V59.69h9.82V55.44h2.37v4.25h10.05v2.23Z"/><path class="cls-2" d="M238.93,59.47a59.36,59.36,0,0,0-1.23,9.42,24.76,24.76,0,0,0,.15,2.68c.43-1,.93-2.25,1.33-3.18l1.25,1c-.65,1.9-1.53,4.58-1.78,5.82a4.89,4.89,0,0,0-.12,1.15c0,.25,0,.63.05.93l-2.28.15a31.79,31.79,0,0,1-.92-8.07,73.05,73.05,0,0,1,1.07-10,19.26,19.26,0,0,0,.23-2.07l2.77.25A19.17,19.17,0,0,0,238.93,59.47Zm6,12.52c0,1.13.88,2.05,3.9,2.05a27.08,27.08,0,0,0,6.22-.67l0,2.67a34.24,34.24,0,0,1-6.32.5c-4.25,0-6.2-1.48-6.2-3.9a12.63,12.63,0,0,1,.43-3.07l2.25.2A8.46,8.46,0,0,0,244.9,72Zm9.4-12.62v2.55a64.21,64.21,0,0,1-10.47,0l0-2.55A46.07,46.07,0,0,0,254.3,59.37Z"/><path class="cls-2" d="M264.43,72c0,1.77,1.75,3,5.6,3a33.28,33.28,0,0,0,8.63-1l0,2.75a37.18,37.18,0,0,1-8.57.87c-5.38,0-8.28-1.8-8.28-5.07a15.5,15.5,0,0,1,.5-3.52l2.58.25A9.43,9.43,0,0,0,264.43,72Zm5.7-12.7c2.43,0,5.1-.15,6.95-.35v2.6c-1.72.15-4.6.3-6.95.3-2.55,0-4.7-.1-6.7-.28V59A64,64,0,0,0,270.13,59.27Zm9.65.42-1.65.73a25.22,25.22,0,0,0-2-3.48l1.63-.67A37.88,37.88,0,0,1,279.78,59.69Zm2.9-1.07-1.62.72A26.81,26.81,0,0,0,279,55.89l1.6-.67A36.86,36.86,0,0,1,282.68,58.62Z"/><path class="cls-2" d="M305.77,68a15.29,15.29,0,0,1-5.32,6.08,33.14,33.14,0,0,0,8.8,2.07,10,10,0,0,0-1.43,2.2,31.07,31.07,0,0,1-9.75-2.9,34.7,34.7,0,0,1-9.87,2.92,7.22,7.22,0,0,0-1.35-2.1,34.27,34.27,0,0,0,9-2.19,17,17,0,0,1-4.55-4.6l.45-.2h-1.07V67.12h13.12l.43-.08Zm-16.2-.15H287.4V62.67h3.77a16.76,16.76,0,0,0-1.42-3l2-.57a12.85,12.85,0,0,1,1.6,3.12l-1.35.43h5.4a14.26,14.26,0,0,0-1.12-3.53l2.07-.45a14.26,14.26,0,0,1,1.25,3.45l-2.1.53h5a28.48,28.48,0,0,0,2-4l2.42.65c-.65,1.13-1.37,2.38-2.07,3.38h3.92v5.17H306.5V64.72H289.57Zm18-10.52a134.47,134.47,0,0,1-19.45,1.87,6.28,6.28,0,0,0-.5-2A129.26,129.26,0,0,0,306,55.42ZM293.75,69.27a13.79,13.79,0,0,0,4.37,3.67,12.51,12.51,0,0,0,4.15-3.67Z"/><path class="cls-2" d="M313.7,59.74h8.42v1.85H313.7Zm7.85,17.65h-4.88v1.07h-1.92V70.07h6.8ZM321.45,65h-6.68v-1.8h6.68Zm-6.68,1.6h6.68v1.8h-6.68Zm6.58-8.43H314.9V56.37h6.45Zm-4.68,13.75v3.6h2.93v-3.6Zm20.1,2.75h-1.33v1.6c0,1-.2,1.57-1,1.87a10.78,10.78,0,0,1-3.53.3,7,7,0,0,0-.55-1.82c1.08,0,2.18,0,2.5,0s.4-.13.4-.43V74.69h-7.72v3.8h-2v-3.8h-1.4V72.84h1.4V66.59h4.82v-1.2h-6.2V63.57h3.47V62.19h-2.32V60.52h2.32V59.19H322.9v-1.7h2.79v-2h2.1v2h3.48v-2h2.1v2h2.95v1.7h-2.95v1.33h2.45v1.67h-2.45v1.38h3.35v1.82h-6.33v1.2h5.05v6.25h1.33Zm-11.2-6.42v1.52h2.85V68.27Zm0,4.57h2.85V71.32h-2.85Zm2.22-12.32h3.48V59.19h-3.48Zm0,3h3.48V62.19h-3.48Zm2.6,4.7v1.52h2.9V68.27Zm2.9,4.57V71.32h-2.9v1.52Z"/><path class="cls-2" d="M345.24,61.59a55.93,55.93,0,0,0,.17,5.63c.38,3.92,1.4,6.57,3.08,6.57,1.25,0,2.35-2.72,2.92-5l2,2.33c-1.57,4.27-3.12,5.74-4.94,5.74-2.53,0-4.85-2.39-5.53-9-.25-2.2-.27-5.2-.27-6.7a12.86,12.86,0,0,0-.2-2.35l3.05,0A19.79,19.79,0,0,0,345.24,61.59Zm17.52,10.6-2.58,1c-.42-4.3-1.85-9.85-4.37-12.85l2.47-.82C360.58,62.42,362.43,68.14,362.76,72.19Z"/><path class="cls-2" d="M376.12,58.87c-.07.42-.17.92-.3,1.47a43.7,43.7,0,0,0,4.53-.87v2.47a44,44,0,0,1-5,.85c-.25,1.08-.52,2.23-.8,3.28a75.39,75.39,0,0,1-3.95,11.49l-2.72-.92a58.15,58.15,0,0,0,4.25-11.2c.2-.77.4-1.6.6-2.42-.73,0-1.4,0-2,0-1.15,0-2.07,0-3-.1l-.05-2.45a23.61,23.61,0,0,0,3.05.2c.77,0,1.62,0,2.5-.1.12-.75.25-1.4.3-1.88a10.53,10.53,0,0,0,.1-2.25l3,.23C376.45,57.34,376.22,58.37,376.12,58.87Zm3,13.8c0,1.12.68,2.14,3.88,2.14a28.23,28.23,0,0,0,5-.49l-.08,2.52a39.46,39.46,0,0,1-4.95.35c-4.07,0-6.27-1.33-6.27-3.8a14.92,14.92,0,0,1,.42-3.12l2.33.22A9.24,9.24,0,0,0,379.12,72.67Zm4.13-8.58a42.21,42.21,0,0,1,4.37.2l-.07,2.4a32.54,32.54,0,0,0-4.25-.32,43.39,43.39,0,0,0-4.73.27V64.32C379.92,64.19,381.65,64.09,383.25,64.09Z"/><path class="cls-2" d="M402.1,59.19c-.1.43-.2.93-.3,1.48a43,43,0,0,0,4.52-.85v2.45a45.24,45.24,0,0,1-5,.85c-.23,1.07-.5,2.22-.78,3.27a77.76,77.76,0,0,1-3.95,11.5L393.8,77a54.37,54.37,0,0,0,4.25-11.19c.2-.78.43-1.6.6-2.43-.7,0-1.37,0-2,0-1.17,0-2.07,0-3-.1l-.05-2.45a23.18,23.18,0,0,0,3.05.2c.77,0,1.62,0,2.47-.1.15-.75.28-1.37.33-1.85a10.79,10.79,0,0,0,.1-2.27l3,.22C402.43,57.67,402.2,58.69,402.1,59.19Zm3,13.8c0,1.13.67,2.15,3.87,2.15a28.44,28.44,0,0,0,5-.5l-.07,2.52a38,38,0,0,1-4.95.35c-4.07,0-6.27-1.32-6.27-3.79a16.56,16.56,0,0,1,.4-3.13l2.34.23A9.65,9.65,0,0,0,405.1,73Zm4.12-8.57a42.53,42.53,0,0,1,4.38.2l-.08,2.4a30.9,30.9,0,0,0-4.25-.3,40.86,40.86,0,0,0-4.72.25V64.64C405.9,64.52,407.62,64.42,409.22,64.42Zm3.7-3.2-1.65.72a28,28,0,0,0-2-3.47l1.63-.68C411.52,58.69,412.42,60.27,412.92,61.22Zm2.9-1.08-1.62.73a32.13,32.13,0,0,0-2.05-3.48l1.6-.67A36.69,36.69,0,0,1,415.82,60.14Z"/><path class="cls-2" d="M424.38,61.59a55.93,55.93,0,0,0,.17,5.63c.38,3.92,1.4,6.57,3.08,6.57,1.25,0,2.35-2.72,2.92-5l2,2.33c-1.58,4.27-3.13,5.74-4.95,5.74-2.53,0-4.85-2.39-5.52-9-.25-2.2-.28-5.2-.28-6.7a12.86,12.86,0,0,0-.2-2.35l3.05,0A19.79,19.79,0,0,0,424.38,61.59Zm17.52,10.6-2.57,1c-.43-4.3-1.85-9.85-4.38-12.85l2.48-.82C439.73,62.42,441.58,68.14,441.9,72.19Z"/><path class="cls-2" d="M448.47,59.52c1.82-.18,6.27-.6,10.87-1,2.68-.22,5.18-.37,6.9-.45v2.53a22.32,22.32,0,0,0-4.85.37,8.3,8.3,0,0,0-5.55,7.53c0,4.55,4.25,6.07,8.4,6.25l-.92,2.64c-4.9-.22-10-2.85-10-8.37a10.06,10.06,0,0,1,4.25-8.12c-2.52.27-8.35.87-11.12,1.47l-.27-2.75C447.12,59.62,448,59.57,448.47,59.52Z"/><path class="cls-2" d="M480.4,58.32c0,.6,0,1.4-.1,2.3a31.52,31.52,0,0,0,4.93-.95l0,2.45c-1.45.32-3.3.62-5,.82,0,1-.05,2-.05,2.9v.88a19.39,19.39,0,0,1,5.2-.8c3.73,0,6.53,2,6.53,5.2,0,3-1.73,5-5.4,5.92a19.44,19.44,0,0,1-3.18.37l-.9-2.54a13.46,13.46,0,0,0,3-.18c2.1-.4,3.93-1.5,3.93-3.6,0-1.92-1.73-3-4-3a16.8,16.8,0,0,0-5.13.83c0,2.07.1,4.17.1,5.17,0,2.65-1,3.42-2.45,3.42-2.17,0-5.49-2-5.49-4.39,0-2.13,2.57-4.35,5.52-5.63V65.94c0-.87,0-1.82,0-2.77-.62,0-1.17.07-1.65.07-1.52,0-2.47-.05-3.3-.12l-.07-2.4a26.09,26.09,0,0,0,3.32.2c.53,0,1.1,0,1.73-.08,0-1.12,0-2,0-2.47a15.32,15.32,0,0,0-.15-2h2.75C480.53,56.87,480.45,57.72,480.4,58.32Zm-3.2,16.52c.5,0,.85-.32.85-1.15s-.05-2.25-.07-3.87c-1.83.9-3.13,2.17-3.13,3.17S476.35,74.84,477.2,74.84ZM494,62.74l-1.22,2A36.74,36.74,0,0,0,487,61l1.1-1.9A45,45,0,0,1,494,62.74Z"/><path class="cls-2" d="M503.27,62.82c1.1-2.28,3.5-5,6.52-5,3.4,0,5.93,3.35,5.93,8.72,0,7-4.35,10.17-10.73,11.35l-1.5-2.28c5.48-.85,9.58-2.87,9.58-9.07,0-3.9-1.33-6.45-3.7-6.45-3.05,0-5.83,4.5-6.05,7.8a11.15,11.15,0,0,0,.1,2.88L501,71a30.4,30.4,0,0,1-.28-4,65.08,65.08,0,0,1,.73-8c.12-.85.17-1.67.2-2.37l2.72.12A49.34,49.34,0,0,0,503.27,62.82Z"/><path class="cls-2" d="M524.32,72.52l2-1.8a46.42,46.42,0,0,1,5.52,5.52L529.77,78A45.22,45.22,0,0,0,524.32,72.52Z"/><path class="cls-1" d="M22.12,117.17c-3,7.42-10.2,10.37-18.77,11.54A12,12,0,0,0,2.1,126a32.58,32.58,0,0,0,9.75-2.37A26.68,26.68,0,0,0,8.17,121a31.64,31.64,0,0,1-3.57,1.5,8.44,8.44,0,0,0-1.83-2.3c4.8-1.45,8.2-3.6,10.2-5.77a33,33,0,0,1-11.59,4.47A10.88,10.88,0,0,0,0,116.34a33.46,33.46,0,0,0,8.42-2.47,27.59,27.59,0,0,0-3.35-2.15A29.22,29.22,0,0,1,2.2,113a10.43,10.43,0,0,0-2-2.2c4.42-1.4,7.5-3.5,9.22-5.55l3.23.67c-.38.43-.78.85-1.2,1.28h5l.5-.13,1.9,1.1a17.23,17.23,0,0,1-5.15,5.73l3,.7a21.8,21.8,0,0,1-1.55,1.65h4.47l.5-.13ZM8.5,109.67c-.3.22-.6.42-.93.65A20.38,20.38,0,0,1,11,112.49a15.42,15.42,0,0,0,3.45-2.82Zm3.6,9.07c-.43.3-.85.58-1.33.85a22,22,0,0,1,3.75,2.55,12,12,0,0,0,3.45-3.4Z"/><path class="cls-1" d="M40.52,110.22c-1.63,1.3-4.93,3.85-6.6,5.27-1.33,1.15-1.3,1.43,0,2.6,1.87,1.58,6.62,5.33,9.17,7.8l-2.92,2.67c-.7-.77-1.43-1.57-2.18-2.32-1.52-1.58-5.2-4.7-7.47-6.65-2.5-2.12-2.3-3.45.2-5.55,2-1.6,5.4-4.37,7.07-6a16.7,16.7,0,0,0,1.93-2.12l2.92,2.57C41.92,109.09,41.09,109.74,40.52,110.22Z"/><path class="cls-1" d="M61.31,127.69l-1.87-3a17.37,17.37,0,0,0,2.32-.39c3.2-.75,5.7-3,5.7-6.7,0-3.45-1.87-6-5.25-6.6a49.9,49.9,0,0,1-1.5,6.77c-1.5,5-3.65,8.15-6.37,8.15s-5.07-3-5.07-7.27c0-5.78,5-10.7,11.47-10.7,6.2,0,10.09,4.3,10.09,9.75C70.83,123,67.61,126.71,61.31,127.69Zm-6.87-5.6c1.05,0,2-1.57,3.05-5a37.41,37.41,0,0,0,1.32-6,7.88,7.88,0,0,0-6.35,7.25C52.46,120.87,53.46,122.09,54.44,122.09Z"/><path class="cls-1" d="M85.86,112.17c-.07,1.07-.15,2.17-.27,3.25h9.64a10.93,10.93,0,0,1-.1,1.3c-.45,6.8-1,9.59-2,10.69a3.7,3.7,0,0,1-2.7,1.15,33.23,33.23,0,0,1-4.27,0,6.9,6.9,0,0,0-1-2.92c1.72.17,3.47.17,4.19.17a1.63,1.63,0,0,0,1.2-.32c.65-.55,1.1-2.72,1.45-7.27H85.11a14.65,14.65,0,0,1-8,10.64,9.76,9.76,0,0,0-2.1-2.52c6.75-3.12,7.32-8.82,7.6-14.17H75.44v-2.85H85v-4.08h3.07v4.08H98v2.85Z"/><path class="cls-1" d="M112.63,109c-.15.75-.35,1.67-.52,2.57.85,0,1.57-.1,2.1-.1,2.64,0,4.52,1.18,4.52,4.78,0,3-.35,7-1.43,9.17-.82,1.75-2.2,2.3-4.09,2.3a16.88,16.88,0,0,1-3-.35l-.53-3.3a14.17,14.17,0,0,0,3,.53,1.82,1.82,0,0,0,1.87-1.08,19.68,19.68,0,0,0,1-6.92c0-2-.88-2.28-2.42-2.28-.4,0-1,0-1.75.1-.95,3.8-2.8,9.72-5.1,13.4l-3.25-1.3c2.42-3.27,4.15-8.32,5.07-11.75L106,115c-.72.13-2,.3-2.8.43l-.3-3.4a26.62,26.62,0,0,0,2.68,0c.77,0,2-.1,3.22-.23a25.42,25.42,0,0,0,.53-5.27l3.72.37C112.93,107.59,112.76,108.39,112.63,109Zm10.6.4-1.23.52a45.44,45.44,0,0,1,4.08,8.73l-3.18,1.45a28,28,0,0,0-4.2-9.38l2.25-1a26.81,26.81,0,0,0-1.7-3l2-.83C121.85,106.92,122.75,108.49,123.23,109.42Zm3-1.15-2,.85a28.58,28.58,0,0,0-2-3.45l2-.8A31.86,31.86,0,0,1,126.2,108.27Z"/><path class="cls-1" d="M153.15,123.22h-9.82v5.44h-3.07v-5.44h-9.55v-2.85h9.55v-1.58h1.8a15.67,15.67,0,0,0-1.75-1.4,10.75,10.75,0,0,0,5.32-6.35h-8.87l2.37.55a15.85,15.85,0,0,1-.87,2.13,23.12,23.12,0,0,1,2.87,2.1l-1.77,2.07a21,21,0,0,0-2.38-2,16.36,16.36,0,0,1-3.72,4,21.18,21.18,0,0,0-2.48-2,12.41,12.41,0,0,0,5.28-6.85h-4.68v-2.82h8.88v-2.85h3.07v2.85h9.1V111H146l2.65.55a16.12,16.12,0,0,1-1,2.4,39.1,39.1,0,0,1,4.9,3.53l-2.1,2.25a36.07,36.07,0,0,0-4.32-3.45,15.19,15.19,0,0,1-2.8,2.65v1.4h9.82Z"/><path class="cls-1" d="M173.2,123a22.08,22.08,0,0,0,7.92,2.72,13.78,13.78,0,0,0-2,2.7,21.3,21.3,0,0,1-8.4-4.22v4.5H167.8v-4.35a23.91,23.91,0,0,1-8.38,4,13.28,13.28,0,0,0-1.9-2.48,26.13,26.13,0,0,0,7.9-2.92h-7.17v-2.45h9.55v-1.1h-7.2v-2.15h7.2v-1.12h-8.45v-2.33h4.75a12,12,0,0,0-.85-2l.3,0h-5.23v-2.42h3.35a22.41,22.41,0,0,0-1.55-3.1l2.55-.88a18.66,18.66,0,0,1,1.9,3.53l-1.22.45h2.27v-4.08h2.78v4.08h1.85v-4.08h2.8v4.08h2.22l-.9-.28a20,20,0,0,0,1.58-3.62l3.12.75c-.7,1.15-1.37,2.27-1.95,3.15h3.25v2.42h-4.7c-.4.73-.8,1.4-1.17,2h4.9v2.33h-8.68v1.12h7.5v2.15h-7.5v1.1h9.72V123Zm-6.8-11.15a13.79,13.79,0,0,1,.85,1.93l-.43.07h4.68c.3-.6.6-1.32.87-2Z"/><path class="cls-1" d="M193.14,111.67a33.44,33.44,0,0,1-1.9,3v14.05h-2.78V118a22.13,22.13,0,0,1-2,1.85,17,17,0,0,0-1.55-2.77,21.29,21.29,0,0,0,5.58-6.43Zm-.43-5.28a30.58,30.58,0,0,1-6,6.1,22.93,22.93,0,0,0-1.55-2.17,21.08,21.08,0,0,0,4.9-4.95ZM206.56,119a13.67,13.67,0,0,1-3.8,5.4,22.45,22.45,0,0,0,6.22,1.82,11.31,11.31,0,0,0-1.77,2.55,20.25,20.25,0,0,1-6.9-2.62,24.5,24.5,0,0,1-7.07,2.67,9.66,9.66,0,0,0-1.43-2.52,21.61,21.61,0,0,0,6.15-2,13.61,13.61,0,0,1-2-2.17,23.71,23.71,0,0,1-2.24,1.55,16.35,16.35,0,0,0-1.93-2.2,16.14,16.14,0,0,0,5.57-4.63l-5,.15-.25-2.62c1.12,0,2.42,0,3.84,0,.35-.3.73-.62,1.08-1a29,29,0,0,0-4.4-3.55l1.78-1.92c.42.27.89.57,1.37.9a28,28,0,0,0,2.67-3.6l2.58,1.32c-1.08,1.28-2.3,2.63-3.35,3.68a18.54,18.54,0,0,1,1.42,1.25,45,45,0,0,0,4-4.43l2.62,1.45a78.85,78.85,0,0,1-6.12,5.8l4.47-.07a18.86,18.86,0,0,0-1.25-1.6l2.3-1.28a24.79,24.79,0,0,1,3.8,5.48l-2.5,1.4a13.93,13.93,0,0,0-.82-1.65c-1.65.07-3.35.12-5,.17-.3.5-.62,1-1,1.48h4.52l.48-.1Zm-8.75,1.53a11.37,11.37,0,0,0,2.47,2.42,10.92,10.92,0,0,0,2.4-2.45h-4.85Z"/><path class="cls-1" d="M223.18,108.72c-.08.42-.18,1.1-.27,1.92a33.69,33.69,0,0,0,4.57-.35l-.1,3a45.1,45.1,0,0,1-4.87.25c-.15,1.1-.3,2.27-.43,3.4h.18a43.42,43.42,0,0,0,5-.3l-.08,3c-1.4.13-2.85.23-4.42.23h-1c-.05.75-.1,1.37-.1,1.82,0,2.08,1.28,3.17,3.72,3.17,3.5,0,5.4-1.59,5.4-3.64,0-1.7-.92-3.3-2.57-4.85l3.52-.75a9.32,9.32,0,0,1,2.43,6c0,3.77-3.4,6.47-8.88,6.47-3.92,0-6.69-1.7-6.69-5.87,0-.6.07-1.5.17-2.53a28.18,28.18,0,0,1-4.8-.82l.18-3a22.63,22.63,0,0,0,4.92,1c.15-1.12.3-2.3.43-3.42a30.44,30.44,0,0,1-5-.9l.18-2.88a23.26,23.26,0,0,0,5.15,1c.07-.77.15-1.45.2-2a13.87,13.87,0,0,0,0-2.23l3.52.2C223.38,107.39,223.28,108.07,223.18,108.72Z"/><path class="cls-1" d="M253.74,122.57c1.78,2,4.58,3.14,8.52,3.57a11.26,11.26,0,0,0-1.74,2.6c-4.75-.75-7.73-2.53-9.7-5.62-1.48,2.22-4.25,4.19-9.35,5.57a12,12,0,0,0-1.85-2.4c4.2-1,6.6-2.25,8-3.72h-7.52V120h9a10.68,10.68,0,0,0,.25-1.57h-6.4V116h6.43v-1.5h-6.83v-1.65h-2.22v-5.33h9.12v-2.17h3.05v2.17h9.15v5.33h-2v1.65h-7.3V116h6.8v2.4h-6.82a9.37,9.37,0,0,1-.2,1.57h9.87v2.58Zm-4.42-10.45v-1.43h3v1.43h6.23v-2h-15.3v2Z"/><path class="cls-1" d="M270.46,120.37a22.75,22.75,0,0,1-1.47,6.44,12.91,12.91,0,0,0-2.18-1,18,18,0,0,0,1.28-5.79Zm2.9-2v10.32h-2.55V118.57l-3.57.25-.2-2.58,1.8-.1c.37-.45.75-1,1.12-1.47a22.53,22.53,0,0,0-2.85-3.5l1.45-2,.58.52a30.63,30.63,0,0,0,1.8-4.32l2.57.9a57,57,0,0,1-2.82,5.1c.3.32.57.67.8,1a41.8,41.8,0,0,0,2.25-4l2.42,1.13c-1.37,2.1-3.07,4.57-4.65,6.57l2.33-.15c-.25-.57-.53-1.12-.8-1.65l2.12-.85a21.26,21.26,0,0,1,2.15,5.25l-2.22,1c-.08-.4-.2-.85-.35-1.35Zm2.35,1.4a18.69,18.69,0,0,1,1.28,4.39l-2.2.73a18.75,18.75,0,0,0-1.15-4.5Zm10.85,4.89c1.52.9,3.25,2,4.25,2.65l-2.6,1.4a43.48,43.48,0,0,0-4.13-2.92l1.55-1.13h-4.55l1.68,1.1a22.11,22.11,0,0,1-6,3c-.45-.53-1.27-1.33-1.82-1.85a19.41,19.41,0,0,0,4.92-2.28h-2.17V114.42h11.54v10.24Zm-4.78-16.37h-5v-1.8h5v-1.12h3v1.12H290v1.8h-5.2v.85h4.6v1.73h-4.6v.85h5.67v1.85H276.14v-1.85h5.64v-.85h-4.42v-1.73h4.42Zm-1.45,9h6.08v-1.05h-6.08Zm0,2.78h6.08V119h-6.08Zm0,2.75h6.08v-1h-6.08Z"/><path class="cls-1" d="M304.81,109a63.31,63.31,0,0,0,7.07-.73l0,2.9a75.6,75.6,0,0,1-8.14.63,18.51,18.51,0,0,1-1.43,2.55,8.48,8.48,0,0,1,2.83-.5,3.39,3.39,0,0,1,3.32,1.92c1.3-.6,2.35-1,3.37-1.47s1.85-.83,2.78-1.3l1.25,2.9c-.8.22-2.13.72-3,1-1.12.45-2.55,1-4.07,1.7,0,1.4.07,3.25.1,4.4h-3c.08-.75.1-2,.12-3-1.87,1.07-2.87,2-2.87,3.3s1.18,1.75,3.62,1.75a41.34,41.34,0,0,0,7.1-.7l-.1,3.22a63.74,63.74,0,0,1-7.07.42c-3.92,0-6.82-.95-6.82-4.17s3-5.2,5.85-6.67a1.92,1.92,0,0,0-1.75-.85,6.11,6.11,0,0,0-3.9,1.72,28.77,28.77,0,0,0-2.33,2.75l-2.67-2a24.44,24.44,0,0,0,5.52-6.9h-.32c-1,0-2.85,0-4.23-.15v-2.92a32.64,32.64,0,0,0,4.4.3h1.2a13.62,13.62,0,0,0,.5-2.88l3.3.28A24,24,0,0,1,304.81,109Z"/><path class="cls-1" d="M329.32,106.32a39.8,39.8,0,0,1-2.4,5.15v17.17H324.1V115.87a24.71,24.71,0,0,1-1.7,2,19.11,19.11,0,0,0-1.58-3.08,26.67,26.67,0,0,0,5.68-9.37Zm14.9,3v13.5h-2.9v-1h-3.53v6.89h-2.92v-6.89h-3.42V123h-2.78V109.27h6.2v-3.83h2.92v3.83ZM331.45,112v2.25h3.42V112Zm3.42,7.1v-2.28h-3.42v2.28Zm2.92-7.1v2.25h3.53V112Zm3.53,7.1v-2.28h-3.53v2.28Z"/><path class="cls-1" d="M354,109.74a67.9,67.9,0,0,0-1.17,9.68A11.27,11.27,0,0,0,353,121c.32-.87.75-1.72,1.1-2.55l1.55,1.2a62.14,62.14,0,0,0-1.8,6,5.06,5.06,0,0,0-.13,1.15c0,.28,0,.7,0,1l-2.8.2a28.86,28.86,0,0,1-1-8,74.36,74.36,0,0,1,1-10.42c.07-.7.2-1.65.22-2.45l3.45.27C354.43,108,354.13,109.29,354,109.74Zm12.65-.9c0,.55-.08,1.5-.08,2.6a35.22,35.22,0,0,0,3.9-.55V114c-1.22.17-2.55.32-3.92.42.05,2.43.17,4.43.27,6.13a16.21,16.21,0,0,1,4.85,3.22L370,126.36a25.89,25.89,0,0,0-3.08-2.49c-.12,2.39-1.47,4.09-4.87,4.09s-5.6-1.45-5.6-4.07,2.15-4.3,5.55-4.3a12.61,12.61,0,0,1,1.65.1c-.08-1.52-.18-3.35-.2-5.12l-1.78,0c-1.45,0-2.89,0-4.34-.15l0-3c1.43.12,2.88.2,4.37.2.58,0,1.18,0,1.75,0,0-1.22,0-2.22,0-2.75a10.12,10.12,0,0,0-.18-1.65h3.58A13.57,13.57,0,0,0,366.68,108.84ZM361.73,125c1.55,0,2.07-.8,2.07-2.28v-.42a6.91,6.91,0,0,0-2-.3c-1.4,0-2.37.57-2.37,1.52S360.4,125,361.73,125Zm8.47-15.38-1.75.58a26.78,26.78,0,0,0-1.27-3.45l1.7-.53A28.66,28.66,0,0,1,370.2,109.64Zm2.63-.8-1.73.55a30.76,30.76,0,0,0-1.35-3.42l1.7-.53A35.16,35.16,0,0,1,372.83,108.84Z"/><path class="cls-1" d="M382.94,110c-.1,2.7-.3,8.3-.3,11.4,0,2.52,1.5,3.35,3.45,3.35,4.12,0,6.75-2.38,8.55-5.1l2.27,2.75a13,13,0,0,1-10.85,5.74c-4.1,0-6.75-1.8-6.75-6.07,0-3.35.25-9.92.25-12.07a16.31,16.31,0,0,0-.32-3.38l4,0C383.11,107.74,383,109,382.94,110Z"/><path class="cls-1" d="M402.49,122.72l2.6-2.25a45.32,45.32,0,0,1,5.45,5.47l-2.68,2.3A48.48,48.48,0,0,0,402.49,122.72Z"/><path class="cls-2" d="M452.61,122.72h-10v5.74h-2.4v-5.74h-9.77v-2.23h9.77v-1.65h1.6a11.13,11.13,0,0,0-1.55-1.27,11.47,11.47,0,0,0,5.42-6.63l2.35.45a14.15,14.15,0,0,1-1.12,2.6,43.5,43.5,0,0,1,5.12,3.88l-1.62,1.72a43.8,43.8,0,0,0-4.7-3.77,14.19,14.19,0,0,1-3.13,3h0v1.65h10Zm-13.32-4.9a28.66,28.66,0,0,0-2.8-2.33,16.14,16.14,0,0,1-4,4.28,15.4,15.4,0,0,0-1.87-1.55,13.13,13.13,0,0,0,5.44-7.33l2.35.53a17.37,17.37,0,0,1-1,2.32,31.42,31.42,0,0,1,3.23,2.43Zm12.6-7H431.07v-2.23h9.12v-3h2.4v3h9.3Z"/><path class="cls-2" d="M471.93,122.69a23,23,0,0,0,8.47,3.4,10.76,10.76,0,0,0-1.55,2.07,22.35,22.35,0,0,1-9-4.69v5h-2.27v-4.85a24.94,24.94,0,0,1-8.88,4.5,9.85,9.85,0,0,0-1.52-2,24.17,24.17,0,0,0,8.42-3.47h-7.72v-2h9.7v-1.52h-7.38v-1.75h7.38V116H459v-1.85h5.12a12.25,12.25,0,0,0-1-2.28l.6-.1H458v-1.95h3.7a19.07,19.07,0,0,0-1.83-3.37l2-.68a17.64,17.64,0,0,1,2,3.58l-1.28.47h2.75v-4.27h2.18v4.27h2.47v-4.27h2.2v4.27H475l-.95-.3a21.24,21.24,0,0,0,1.75-3.7l2.4.6a36.57,36.57,0,0,1-2.07,3.4h3.59v1.95h-4.82c-.47.85-1,1.68-1.4,2.38h5.3V116H469.9v1.5h7.68v1.75H469.9v1.52h9.85v2Zm-6.43-11a11,11,0,0,1,1.08,2.23l-.73.15h5.28c.37-.68.77-1.58,1.1-2.38Z"/><path class="cls-2" d="M507.6,125.46v2.25H485.4v-2.25h9.9v-5.74h-7.12v-2.23h7.12v-5h-5.55a21.63,21.63,0,0,1-2.47,3.88,14.53,14.53,0,0,0-2.13-1.4,21.62,21.62,0,0,0,4.53-9l2.4.55c-.38,1.27-.83,2.55-1.3,3.75h4.52v-4.65h2.4v4.65h8.7v2.27h-8.7v5h7.77v2.23H497.7v5.74Z"/><path class="cls-2" d="M522,108.64c-.15.78-.37,2-.6,3.15,1-.1,1.92-.15,2.5-.15,2.42,0,4.25,1,4.25,4.48,0,2.95-.38,7-1.43,9.07-.8,1.72-2.1,2.17-3.84,2.17a14.15,14.15,0,0,1-3-.35l-.4-2.6a13.06,13.06,0,0,0,3,.5,2,2,0,0,0,2-1.19c.75-1.55,1.12-4.73,1.12-7.33,0-2.15-1-2.52-2.54-2.52-.53,0-1.35,0-2.3.15-.93,3.67-2.7,9.45-5.18,13.44l-2.57-1c2.5-3.37,4.3-8.77,5.2-12.17-1.15.12-2.18.25-2.75.32s-1.78.23-2.48.35l-.25-2.7c.85.05,1.58,0,2.43,0s2.15-.12,3.57-.25a28.36,28.36,0,0,0,.58-5.37l2.92.3C522.18,107.44,522.05,108.09,522,108.64Zm13.45,9.9-2.48,1.15c-.7-2.65-2.57-7.12-4.32-9.25l2.32-1A43.44,43.44,0,0,1,535.4,118.54Z"/><path class="cls-2" d="M544.34,118a12.06,12.06,0,0,1,7.8-2.78c4.07,0,6.62,2.48,6.62,5.45,0,4.5-3.8,7.75-13.57,6.92l-.75-2.57c7.72,1,11.62-1.1,11.62-4.4,0-1.85-1.72-3.17-4.12-3.17a9.38,9.38,0,0,0-7.37,3.17,5,5,0,0,0-.85,1.33l-2.3-.55a92.55,92.55,0,0,0,1.27-10.28l2.65.35C545,113,544.57,116.44,544.34,118Zm11-9.35-.58,2.42c-2.45-.32-7.94-1.47-9.87-2l.63-2.38A74,74,0,0,0,555.39,108.62Z"/><path class="cls-2" d="M569.12,109.27a66.61,66.61,0,0,0-1.22,9.9,16.16,16.16,0,0,0,.2,2.67c.35-1,.9-2.27,1.3-3.2l1.25,1a58.89,58.89,0,0,0-1.8,5.72,6,6,0,0,0-.13,1.15c0,.25,0,.62.08.92l-2.23.18a29.52,29.52,0,0,1-1-8,76.62,76.62,0,0,1,1.1-10.47c.07-.63.17-1.43.2-2.08l2.72.25C569.47,107.79,569.22,108.82,569.12,109.27Zm12.62-.6c0,.62,0,1.7-.07,2.85a40.31,40.31,0,0,0,4.15-.58v2.43c-1.3.2-2.7.37-4.15.47,0,2.5.2,4.75.27,6.68a16.45,16.45,0,0,1,4.93,3.22l-1.35,2.1a23.67,23.67,0,0,0-3.48-2.77v.12c0,2.3-1.1,4.27-4.57,4.27s-5.35-1.4-5.35-3.79,2-4,5.32-4a13.37,13.37,0,0,1,2,.15c-.1-1.75-.2-3.9-.25-5.85-.7,0-1.4,0-2.1,0-1.45,0-2.82-.08-4.27-.18l0-2.35a40.85,40.85,0,0,0,4.33.23c.69,0,1.37,0,2.07,0v-3a13.06,13.06,0,0,0-.15-1.6h2.82C581.82,107.62,581.77,108.17,581.74,108.67Zm-4.59,16.47c1.84,0,2.42-1,2.42-2.52v-.68a8.27,8.27,0,0,0-2.33-.35c-1.67,0-2.84.73-2.84,1.8S575.55,125.14,577.15,125.14Z"/><path class="cls-1" d="M51.32,158.92c0,.27-.12.6-.2,1,1.4-.2,2.8-.48,4.18-.8v3.12a45.88,45.88,0,0,1-4.88.83c-.22,1.07-.47,2.17-.75,3.2a77.81,77.81,0,0,1-4,11.57l-3.47-1.18a54.66,54.66,0,0,0,4.32-11.24c.17-.68.37-1.38.52-2.1-.57,0-1.12,0-1.65,0-1.2,0-2.15,0-3-.1l-.08-3.13a24.85,24.85,0,0,0,3.15.2c.73,0,1.48,0,2.25-.07.1-.55.18-1,.23-1.43a12.34,12.34,0,0,0,.07-2.52l3.83.3C51.65,157.24,51.42,158.37,51.32,158.92Zm3,13.57c0,1.1.75,1.92,3.43,1.92a28.71,28.71,0,0,0,5.19-.52l-.12,3.2a41.08,41.08,0,0,1-5.1.35c-4.2,0-6.47-1.45-6.47-4a17.48,17.48,0,0,1,.45-3.35l3,.3A8.53,8.53,0,0,0,54.32,172.49Zm3.8-8.62a43.79,43.79,0,0,1,4.4.22l-.08,3a36.39,36.39,0,0,0-4.29-.3,44.33,44.33,0,0,0-4.83.25v-2.92C54.72,164,56.52,163.87,58.12,163.87Z"/><path class="cls-1" d="M81.37,160.22c-1.63,1.3-4.93,3.85-6.6,5.27-1.32,1.15-1.3,1.43,0,2.6,1.87,1.58,6.62,5.33,9.17,7.8l-2.92,2.67c-.7-.77-1.43-1.57-2.18-2.32-1.52-1.58-5.19-4.7-7.47-6.65-2.5-2.12-2.3-3.45.2-5.55,2-1.6,5.4-4.37,7.07-6a16.7,16.7,0,0,0,1.93-2.12l2.92,2.57C82.77,159.09,81.94,159.74,81.37,160.22Z"/><path class="cls-1" d="M100,156.47l3.37-.4a30.14,30.14,0,0,0,1,3.92,36.44,36.44,0,0,0,5.13-1.15L110,162a32,32,0,0,1-4.45.9,27.26,27.26,0,0,0,2.22,4.08,16.9,16.9,0,0,0,1.35,1.67l-1.55,2.25c-1.4-.27-4.55-.6-6.64-.77l.24-2.65c1.23.1,2.88.25,3.65.3a32.64,32.64,0,0,1-2.35-4.53,66.39,66.39,0,0,1-10.67-.1l0-3.2a51.89,51.89,0,0,0,9.6.35c-.2-.57-.35-1.1-.5-1.52C100.63,158.19,100.35,157.29,100,156.47Zm-4.52,15.37c0,2.1,1.87,3,5.3,3a34.42,34.42,0,0,0,6.69-.6l-.17,3.15a35.8,35.8,0,0,1-6.73.6c-5.09,0-8.32-2-8.32-5.6a10.26,10.26,0,0,1,1.33-4.65l3.12.73A6,6,0,0,0,95.51,171.84Z"/><path class="cls-1" d="M126.9,159.12c-1.23,1.8-3,5-4.22,7.2a5.73,5.73,0,0,1,2.87-.75c1.87,0,3,1.17,3.1,3.25,0,1.12,0,3.12.1,4.17a1.45,1.45,0,0,0,1.62,1.35c2.18,0,3.5-2.8,4.23-5.9l2.7,2.2c-1.3,4.27-3.63,7.12-7.45,7.12-2.78,0-4.08-1.65-4.18-3.47-.1-1.32-.07-3.37-.15-4.4a1.37,1.37,0,0,0-1.47-1.4c-1.7,0-3.1,1.75-4,3.78a53.26,53.26,0,0,0-1.9,5.57l-3.52-1.2a190.88,190.88,0,0,1,8.3-17.57c.32-.68.8-1.5,1.22-2.55l3.55,1.42C127.45,158.29,127.17,158.72,126.9,159.12Z"/><path class="cls-1" d="M154.32,177.69l-1.88-3a17.83,17.83,0,0,0,2.33-.39c3.2-.75,5.7-3,5.7-6.7,0-3.45-1.88-6-5.25-6.6a51.46,51.46,0,0,1-1.5,6.77c-1.5,5.05-3.65,8.15-6.38,8.15s-5.07-3.05-5.07-7.27c0-5.78,5-10.7,11.47-10.7,6.2,0,10.1,4.3,10.1,9.75C163.84,173,160.62,176.71,154.32,177.69Zm-6.88-5.6c1.05,0,2-1.57,3.05-5a37.41,37.41,0,0,0,1.33-6,7.86,7.86,0,0,0-6.35,7.25C145.47,170.87,146.47,172.09,147.44,172.09Z"/><path class="cls-1" d="M173.11,167a18.84,18.84,0,0,0-4.45-2.45l1.57-2.25a16.06,16.06,0,0,1,4.53,2.2Zm-3.82,9.62a79.83,79.83,0,0,0,4-8l2.35,1.78c-1.13,2.67-2.43,5.54-3.73,8Zm2.32-21.1a20.39,20.39,0,0,1,4.3,2.65l-1.85,2.35a17.87,17.87,0,0,0-4.2-2.85Zm13.32,8.88v1.5h6.57v9.92c0,1.3-.25,2-1.1,2.37a9.38,9.38,0,0,1-3.74.43,8,8,0,0,0-.68-2.48c.93.05,2,.05,2.33.05s.42-.12.42-.4v-7.32h-4.12v4h1.22v-2.95h1.73v5.92h-1.73v-.82h-4.52v1.44h-1.78v-6.54h1.78v2.95h1.12v-4h-3.92v10.17h-2.63V165.92h6.2v-1.5h-7v-2.6h4V160h-3.2v-2.58h3.2v-2h2.77v2h3.35v-2h2.88v2h3.24V160h-3.24v1.85h3.94v2.6Zm-3.05-2.6h3.35V160h-3.35Z"/><path class="cls-1" d="M209.75,175.31a24,24,0,0,0,3.88.28c1.07,0,4.77,0,6.15,0a11,11,0,0,0-1,2.88h-5.3c-5,0-8.89-.9-11.49-4.72a12.59,12.59,0,0,1-3.43,4.89,12.2,12.2,0,0,0-2.1-2c2.7-2.12,3.8-6.2,4.15-9.6l3.1.35c-.15,1-.35,2-.6,3a7.6,7.6,0,0,0,3.6,4v-8.85h-7.17v-9.1H217.1v9.1h-7.35v3.08h8.15v2.75h-8.15Zm-7.27-12.64h11.45v-3.43H202.48Z"/><path class="cls-1" d="M235.79,177.69l-1.87-3a17.37,17.37,0,0,0,2.32-.39c3.2-.75,5.7-3,5.7-6.7,0-3.45-1.87-6-5.25-6.6a49.9,49.9,0,0,1-1.5,6.77c-1.49,5.05-3.64,8.15-6.37,8.15s-5.07-3.05-5.07-7.27c0-5.78,5-10.7,11.47-10.7,6.2,0,10.1,4.3,10.1,9.75C245.32,173,242.09,176.71,235.79,177.69Zm-6.87-5.6c1.05,0,2-1.57,3.05-5a37.41,37.41,0,0,0,1.33-6,7.86,7.86,0,0,0-6.35,7.25C227,170.87,228,172.09,228.92,172.09Z"/><path class="cls-1" d="M270.43,174h-3v-1.33H254.64a11.62,11.62,0,0,1-3.2,6.15,13.75,13.75,0,0,0-2.33-2.05c2.73-2.5,3-6,3-8.55v-3.1h18.29Zm-7.92-14.28v1.53h8.3v2.5H251.74v-2.5h7.77v-1.53h-9.35v-2.52h9.35v-1.88h3v1.88h9.42v2.52Zm-7.42,7.83v.72c0,.6,0,1.23-.08,1.9h4.58v-2.62Zm12.37,0h-5v2.62h5Z"/><path class="cls-2" d="M286.17,159.32a57.54,57.54,0,0,0,7.35-.73v2.33a78.48,78.48,0,0,1-8.22.65,20.29,20.29,0,0,1-1.93,3.3,7.31,7.31,0,0,1,3.2-.75,3.28,3.28,0,0,1,3.35,2.12c1.55-.72,2.83-1.25,4-1.8.85-.37,1.58-.7,2.37-1.1l1,2.3c-.72.23-1.8.63-2.55.93-1.27.5-2.9,1.15-4.65,2,0,1.42.05,3.42.08,4.62h-2.38c.05-.87.08-2.3.1-3.52-2.15,1.17-3.5,2.32-3.5,3.8,0,1.7,1.63,2,4.15,2a42.52,42.52,0,0,0,6.95-.65l-.07,2.53a64.94,64.94,0,0,1-6.95.45c-3.73,0-6.63-.88-6.63-4s3-5,5.9-6.5a2,2,0,0,0-2-1.25,6.38,6.38,0,0,0-4.15,1.8,27.09,27.09,0,0,0-2.27,2.67l-2.15-1.6a25.23,25.23,0,0,0,5.65-7.3h-.73c-1.05,0-2.77,0-4.17-.15v-2.35a32.29,32.29,0,0,0,4.3.28c.47,0,1,0,1.47,0a12.15,12.15,0,0,0,.58-3l2.6.2C286.7,157.32,286.5,158.24,286.17,159.32Z"/><path class="cls-2" d="M306.58,161.59a56.13,56.13,0,0,0,.18,5.63c.37,3.92,1.4,6.57,3.07,6.57,1.25,0,2.35-2.72,2.92-5l2,2.33c-1.58,4.27-3.12,5.74-5,5.74-2.52,0-4.85-2.39-5.52-9-.25-2.2-.28-5.2-.28-6.7a12.86,12.86,0,0,0-.2-2.35l3.05,0A21.52,21.52,0,0,0,306.58,161.59Zm17.52,10.6-2.57,1c-.43-4.3-1.85-9.85-4.38-12.85l2.48-.82C321.93,162.42,323.78,168.14,324.1,172.19Z"/><path class="cls-2" d="M337.47,158.87c-.08.42-.18.92-.3,1.47a44,44,0,0,0,4.52-.87v2.47a43.41,43.41,0,0,1-5,.85c-.25,1.08-.53,2.23-.8,3.28a75.39,75.39,0,0,1-3.95,11.49l-2.73-.92a57.5,57.5,0,0,0,4.25-11.2c.2-.77.4-1.6.6-2.42-.72,0-1.4,0-2,0-1.15,0-2.08,0-3-.1l-.05-2.45a23.61,23.61,0,0,0,3.05.2c.78,0,1.63,0,2.5-.1.13-.75.25-1.4.3-1.88a9.92,9.92,0,0,0,.1-2.25l3,.23C337.79,157.34,337.57,158.37,337.47,158.87Zm3,13.8c0,1.12.67,2.14,3.87,2.14a28.23,28.23,0,0,0,5-.49l-.08,2.52a39.29,39.29,0,0,1-4.94.35c-4.08,0-6.28-1.33-6.28-3.8a14.3,14.3,0,0,1,.43-3.12l2.32.22A9.19,9.19,0,0,0,340.47,172.67Zm4.12-8.58a42.21,42.21,0,0,1,4.37.2l-.07,2.4a32.4,32.4,0,0,0-4.25-.32,43.2,43.2,0,0,0-4.72.27v-2.32C341.27,164.19,343,164.09,344.59,164.09Z"/><path class="cls-2" d="M363.45,159.19c-.1.43-.2.93-.3,1.48a44,44,0,0,0,4.52-.85v2.45a45.42,45.42,0,0,1-5.05.85c-.22,1.07-.5,2.22-.77,3.27a78.94,78.94,0,0,1-4,11.5l-2.75-.93a55,55,0,0,0,4.25-11.19c.2-.78.42-1.6.6-2.43-.7,0-1.38,0-2,0-1.18,0-2.08,0-3-.1l0-2.45a23.4,23.4,0,0,0,3,.2c.78,0,1.63,0,2.48-.1.15-.75.27-1.37.32-1.85a10.15,10.15,0,0,0,.1-2.27l3,.22C363.77,157.67,363.55,158.69,363.45,159.19Zm3,13.8c0,1.13.68,2.15,3.88,2.15a28.53,28.53,0,0,0,5-.5l-.08,2.52a38,38,0,0,1-4.95.35c-4.07,0-6.27-1.32-6.27-3.79a16.56,16.56,0,0,1,.4-3.13l2.35.23A9.17,9.17,0,0,0,366.44,173Zm4.13-8.57a42.21,42.21,0,0,1,4.37.2l-.07,2.4a31,31,0,0,0-4.25-.3,40.74,40.74,0,0,0-4.72.25v-2.33C367.24,164.52,369,164.42,370.57,164.42Zm3.7-3.2-1.65.72a29.37,29.37,0,0,0-2-3.47l1.62-.68A38.58,38.58,0,0,1,374.27,161.22Zm2.9-1.08-1.63.73a30.58,30.58,0,0,0-2.05-3.48l1.6-.67A36.86,36.86,0,0,1,377.17,160.14Z"/><path class="cls-2" d="M385.72,161.59a56.13,56.13,0,0,0,.18,5.63c.37,3.92,1.4,6.57,3.07,6.57,1.25,0,2.35-2.72,2.93-5l2,2.33c-1.57,4.27-3.12,5.74-4.95,5.74-2.52,0-4.85-2.39-5.52-9-.25-2.2-.28-5.2-.28-6.7a12.86,12.86,0,0,0-.2-2.35l3.05,0A21.52,21.52,0,0,0,385.72,161.59Zm17.52,10.6-2.57,1c-.42-4.3-1.85-9.85-4.37-12.85l2.47-.82C401.07,162.42,402.92,168.14,403.24,172.19Z"/><path class="cls-2" d="M409.81,159.52c1.83-.18,6.28-.6,10.88-1,2.67-.22,5.17-.37,6.89-.45v2.53a22.23,22.23,0,0,0-4.84.37,8.28,8.28,0,0,0-5.55,7.53c0,4.55,4.25,6.07,8.4,6.25l-.93,2.64c-4.9-.22-10-2.85-10-8.37a10,10,0,0,1,4.25-8.12c-2.53.27-8.35.87-11.13,1.47l-.27-2.75C408.46,159.62,409.34,159.57,409.81,159.52Z"/><path class="cls-2" d="M441.75,158.32c0,.6-.05,1.4-.1,2.3a31.15,31.15,0,0,0,4.92-1l.05,2.45c-1.45.32-3.3.62-5,.82,0,1-.05,2-.05,2.9v.88a19.27,19.27,0,0,1,5.2-.8c3.72,0,6.52,2,6.52,5.2,0,3-1.72,5-5.4,5.92a19.33,19.33,0,0,1-3.17.37l-.9-2.54a13.49,13.49,0,0,0,3-.18c2.1-.4,3.92-1.5,3.92-3.6,0-1.92-1.72-3-4-3a16.73,16.73,0,0,0-5.12.83c0,2.07.1,4.17.1,5.17,0,2.65-1,3.42-2.45,3.42-2.18,0-5.5-2-5.5-4.39,0-2.13,2.57-4.35,5.52-5.63v-1.55c0-.87,0-1.82,0-2.77-.63.05-1.18.07-1.65.07-1.53,0-2.48-.05-3.3-.12l-.08-2.4a26.23,26.23,0,0,0,3.33.2c.52,0,1.1,0,1.72-.08,0-1.12,0-2,0-2.47a17.33,17.33,0,0,0-.15-2H442C441.87,156.87,441.8,157.72,441.75,158.32Zm-3.2,16.52c.5,0,.85-.32.85-1.15s0-2.25-.08-3.87c-1.82.9-3.12,2.17-3.12,3.17S437.7,174.84,438.55,174.84Zm16.77-12.1-1.23,2a35.84,35.84,0,0,0-5.77-3.7l1.1-1.9A45.87,45.87,0,0,1,455.32,162.74Z"/><path class="cls-2" d="M464.61,162.82c1.1-2.28,3.5-4.95,6.53-4.95,3.4,0,5.92,3.35,5.92,8.72,0,7-4.35,10.17-10.72,11.35l-1.5-2.28c5.47-.85,9.57-2.87,9.57-9.07,0-3.9-1.32-6.45-3.7-6.45-3,0-5.82,4.5-6,7.8a12.12,12.12,0,0,0,.1,2.88l-2.45.17a32.52,32.52,0,0,1-.27-4.05,67.06,67.06,0,0,1,.72-8.05,19.41,19.41,0,0,0,.2-2.37l2.73.12A47.62,47.62,0,0,0,464.61,162.82Z"/><path class="cls-2" d="M495.42,158.22c0,.3,0,.77-.05,1.32a53.74,53.74,0,0,0,6.57-.7v2.3c-1.85.23-4.17.45-6.6.55v3.1c2.48-.1,4.68-.32,6.85-.62l0,2.32c-2.3.28-4.38.45-6.78.55.05,1.15.13,2.35.18,3.48a20.12,20.12,0,0,1,7.17,3.82l-1.45,2.22a19.17,19.17,0,0,0-5.6-3.64c0,.52.05,1,.05,1.3,0,1.89-1.37,3.62-4.65,3.62-3.75,0-5.77-1.4-5.77-3.9s2.22-4,5.95-4c.65,0,1.25.05,1.85.1,0-1-.08-2-.1-2.93h-1.38c-1.6,0-4.37-.12-6.1-.32l0-2.35a49.81,49.81,0,0,0,6.17.45H493v-3.08h-1c-1.65,0-4.65-.25-6.27-.45l0-2.27a45.43,45.43,0,0,0,6.28.55H493v-1.53a8.18,8.18,0,0,0-.12-1.57h2.67C495.49,157,495.44,157.52,495.42,158.22Zm-4.65,17.39c1.4,0,2.47-.42,2.47-2,0-.35,0-.85,0-1.4a11.38,11.38,0,0,0-2.28-.22c-2.12,0-3.27.82-3.27,1.82S488.62,175.61,490.77,175.61Z"/><path class="cls-2" d="M522.39,158.39c0,.3,0,.75,0,1.25h7.5l0,2.35c-1.48-.07-3.85-.12-7.48-.12,0,1.35,0,2.8,0,3.92a6.21,6.21,0,0,1,.87,3.33c0,3.32-1.77,7.24-7.69,9l-2.13-2.1c3-.65,5.25-1.75,6.45-3.67a3.92,3.92,0,0,1-1.75.37,4.18,4.18,0,0,1-4.2-4.35,4.52,4.52,0,0,1,4.65-4.5,4.84,4.84,0,0,1,1.4.18c0-.65,0-1.4,0-2.13-3.79.05-7.89.2-11,.4l-.08-2.4c2.83,0,7.48-.17,11-.22,0-.55,0-1,0-1.28-.08-.8-.15-1.57-.2-1.82h2.87A15.4,15.4,0,0,0,522.39,158.39Zm-3.85,12.13c1.3,0,2.28-1,2-3.38a2.06,2.06,0,0,0-2-1.2,2.25,2.25,0,0,0-2.27,2.35A2.2,2.2,0,0,0,518.54,170.52Z"/><path class="cls-2" d="M542.82,174.29a3.91,3.91,0,0,1-7.82,0,3.91,3.91,0,1,1,7.82,0Zm-1.5,0a2.4,2.4,0,1,0-2.4,2.4A2.4,2.4,0,0,0,541.32,174.29Z"/></g></g></svg>