<svg xmlns="http://www.w3.org/2000/svg" viewBox="0 0 88.27 15.69"><defs><style>.cls-1,.cls-2{fill:#4d4d4d;}.cls-2,.cls-3{stroke:#4d4d4d;stroke-miterlimit:10;}.cls-3{fill:none;}</style></defs><g id="レイヤー_2" data-name="レイヤー 2"><g id="design"><path class="cls-1" d="M6.34,1.19c0,.31-.1.74-.17,1.28a17.54,17.54,0,0,0,2.72-.19l0,1.32A28.2,28.2,0,0,1,6,3.74H6c-.1.73-.2,1.53-.28,2.26h.19a23.48,23.48,0,0,0,2.87-.17l0,1.31a24.67,24.67,0,0,1-2.62.14H5.6c0,.49-.07.93-.07,1.22,0,1.28.74,2,2.24,2,2.05,0,3.28-.91,3.28-2.23a3.86,3.86,0,0,0-1.49-2.8l1.56-.32a4.89,4.89,0,0,1,1.4,3.29c0,2.1-1.88,3.47-4.78,3.47-2,0-3.58-.88-3.58-3.2,0-.37,0-.9.09-1.53a14.54,14.54,0,0,1-2.8-.48l.07-1.34a11.76,11.76,0,0,0,2.87.56c.1-.74.2-1.53.3-2.27a17.64,17.64,0,0,1-2.91-.49l.07-1.29a13.29,13.29,0,0,0,3,.53c.07-.5.11-.95.14-1.31A5.88,5.88,0,0,0,5,0L6.55.08C6.45.52,6.4.85,6.34,1.19Z"/><path class="cls-1" d="M16.91,5.1a18.8,18.8,0,0,1,5-1.12C24,4,25.42,5.21,25.42,7.21c0,2.64-2.43,4.16-6.5,4.42l-.58-1.36C21.45,10.17,24,9.32,24,7.2a2,2,0,0,0-2.21-1.95c-1.7,0-4.64,1.22-5.66,1.66l-.59-1.46C15.93,5.38,16.47,5.22,16.91,5.1Z"/><path class="cls-1" d="M32.77,4.22c1.23-.75,2.62-1.43,3.35-1.84a7.5,7.5,0,0,0,1.12-.74L38,2.91a13.44,13.44,0,0,1-1.21.66c-.92.48-2.79,1.35-4.12,2.22s-2,1.69-2,2.71,1,1.74,3.13,1.74a21.2,21.2,0,0,0,4.53-.5v1.59a26.37,26.37,0,0,1-4.46.34c-2.7,0-4.69-.77-4.69-3,0-1.49.95-2.64,2.38-3.65-.64-1.17-1.35-2.75-2-4.25L30.93.18A32.53,32.53,0,0,0,32.77,4.22Z"/><path class="cls-1" d="M44.55.83C45.31.83,47,.74,47.62.7a3,3,0,0,0,.81-.17l.89.7a2.82,2.82,0,0,0-.42.52c-.38.62-1,1.93-1.52,3.19a12.61,12.61,0,0,1,3.51,1,7.74,7.74,0,0,0,.08-.8A9,9,0,0,0,51,3.8L52.41,4a22.2,22.2,0,0,1-.28,2.66c.63.37,1.16.72,1.6,1l-.65,1.52c-.4-.35-.85-.7-1.34-1.05a6.73,6.73,0,0,1-3.63,4l-1.17-1a6,6,0,0,0,3.62-3.77,9.85,9.85,0,0,0-3.71-1.22,27.64,27.64,0,0,1-1.68,3.54,2.17,2.17,0,0,1-2,1.08,1.91,1.91,0,0,1-2-2.07C41.26,6.58,43.19,5,46,4.87c.46-1,.94-2.11,1.32-2.88-.57,0-2.06.08-2.69.11-.3,0-.75.06-1.1.11l0-1.44C43.81.81,44.26.83,44.55.83ZM43.28,9.34a.92.92,0,0,0,.78-.47,16.86,16.86,0,0,0,1.36-2.73c-1.83.19-2.88,1.31-2.88,2.36A.75.75,0,0,0,43.28,9.34Z"/><path class="cls-1" d="M59.18.77c.73,0,3.92-.08,4.68-.15a4.22,4.22,0,0,0,.89-.13l.77,1c-.29.18-.58.38-.88.6-.71.53-2.44,2-3.43,2.8a5.74,5.74,0,0,1,1.68-.24C65.23,4.66,67,6.11,67,8.07c0,2.23-1.78,3.82-4.93,3.82-1.94,0-3.23-.85-3.23-2.13a2.14,2.14,0,0,1,2.32-2A2.76,2.76,0,0,1,64,10.24,2.27,2.27,0,0,0,65.52,8c0-1.32-1.29-2.27-3-2.27-2.24,0-3.55,1.05-5.21,2.82l-1-1,3.67-3c.79-.65,2.41-2,3.11-2.61l-3.89.18c-.35,0-.72.05-1,.09l0-1.45A8.5,8.5,0,0,0,59.18.77Zm2.6,9.86a8,8,0,0,0,1-.05,1.72,1.72,0,0,0-1.65-1.74.94.94,0,0,0-1,.8C60.1,10.25,60.79,10.63,61.78,10.63Z"/><polygon class="cls-2" points="76.15 10.19 76.15 15.19 86.15 15.19 76.15 10.19"/><line class="cls-3" y1="15.19" x2="76.15" y2="15.19"/></g></g></svg>