<svg xmlns="http://www.w3.org/2000/svg" viewBox="0 0 69.38 67.86"><defs><style>.cls-1{fill:#5eaade;}.cls-2{fill:#4d4d4d;}</style></defs><g id="レイヤー_2" data-name="レイヤー 2"><g id="design"><path class="cls-1" d="M45.18,39.88S32.87,40.16,24.9,30c0,0-4.33,6.85,2.94,12.86A9.25,9.25,0,0,1,23.22,42c-.28.7.56,7.14,7.7,9.52,0,0-1,.69-4.06.13,0,0,.28,4.62,8.81,6.86,0,0-4.33,4.61-14,4.06,0,0,13.67,12.13,30.82-.24,11-8,11.7-16.69,11.84-24.66a31.71,31.71,0,0,0,5-4.9,29.16,29.16,0,0,1-5.87,1.54A15.78,15.78,0,0,0,68,29a58,58,0,0,1-6.29,2.37s-3.78-6.29-12.17-1.95C43.79,32.35,45.18,39.88,45.18,39.88Z"/><path class="cls-2" d="M4.55,33a6,6,0,0,1-.09,1.4,2.44,2.44,0,0,1-.45,1L7,36.81a2.27,2.27,0,0,1,.78.54.46.46,0,0,1,.15.45c-.29-.13-.83-.44-1.14-.59-1.1-.53-3.1-1.4-4.17-1.9L1,34.59a2.84,2.84,0,0,1-1-.74.25.25,0,0,1,0-.29.3.3,0,0,1,.28-.06.87.87,0,0,1,.24.23.17.17,0,0,0,.06.06,1.79,1.79,0,0,0,.46.27,4.53,4.53,0,0,1,0-3.89,1.3,1.3,0,0,1,1.07-.67,1.62,1.62,0,0,1,1.08.33,3.64,3.64,0,0,1,.89,1.29A5.37,5.37,0,0,1,4.55,33ZM1.35,30.7a4.08,4.08,0,0,0-.24,1.42,5.1,5.1,0,0,0,.66,2.28l1.9.9a2.32,2.32,0,0,0,.16-.36l.12-.4a7.19,7.19,0,0,0,.13-1.39,4.56,4.56,0,0,0-.27-1.5,3.09,3.09,0,0,0-1-1.49A.94.94,0,0,0,2.11,30,1,1,0,0,0,1.35,30.7Z"/><path class="cls-2" d="M11.67,30.38a1.71,1.71,0,0,1-1.2.71,2.83,2.83,0,0,1-.82,0c-.24,0-.47-.08-.74-.14a6.92,6.92,0,0,1,.39,1.78.28.28,0,0,1-.16.28.18.18,0,0,1-.25-.11l-.24-1.12a5.29,5.29,0,0,0-.36-1.06,13.32,13.32,0,0,1-3.43-2.17,6,6,0,0,1-1.5-2.24.45.45,0,0,1,.27-.54,2.63,2.63,0,0,1,1.42.43,7.85,7.85,0,0,1,1.31.92,10.68,10.68,0,0,1,2.33,3.26,3.94,3.94,0,0,0,1.48.29,1.67,1.67,0,0,0,1-.38,1.21,1.21,0,0,0,.32-.91,3,3,0,0,0-.39-1.13c-.06-.07-.13-.17-.08-.26a.25.25,0,0,1,.23.05c.05,0,.08.09.12.13a2.58,2.58,0,0,1,.48,1.17A1.46,1.46,0,0,1,11.67,30.38ZM5.3,28.31A12.43,12.43,0,0,0,7.93,30,9.3,9.3,0,0,0,6,27.44a6,6,0,0,0-2.11-1.28.13.13,0,0,0-.18.15A6.17,6.17,0,0,0,5.3,28.31Z"/><path class="cls-2" d="M14.5,25.38a2.59,2.59,0,0,1-.3,1.31,1.51,1.51,0,0,1-1.06.71,1.67,1.67,0,0,1-.6,0,2,2,0,0,1-.42-.12,1.61,1.61,0,0,1-.06.41.6.6,0,0,1-.31.34.22.22,0,0,1-.26-.14.73.73,0,0,1,.08-.25,1.28,1.28,0,0,0,.07-.21c0-.1,0-.28,0-.4a6.74,6.74,0,0,1-1.49-1.23,3,3,0,0,1-.69-1.34,1.55,1.55,0,0,1,.53-1.2,2,2,0,0,1,1.53-.16.82.82,0,0,1,.44.61,5.4,5.4,0,0,1,.09.6l0,.29a1.69,1.69,0,0,0,0,.24c0,.31,0,.65,0,1s0,.65,0,.93a1.34,1.34,0,0,0,1.13.15A1.11,1.11,0,0,0,14,26.1a2.4,2.4,0,0,0,.1-1,3.09,3.09,0,0,0-.43-1.5c0-.1.17-.11.21-.08a1.91,1.91,0,0,1,.47.75A3.82,3.82,0,0,1,14.5,25.38ZM10,24.44a2.89,2.89,0,0,0,.53,1,5.06,5.06,0,0,0,1.17,1c0-.32,0-.66,0-1a5.57,5.57,0,0,0-.09-1.1,1.29,1.29,0,0,0-.23-.79,2,2,0,0,0-1,0A1.09,1.09,0,0,0,10,24.44Z"/><path class="cls-2" d="M16.76,20.73a8.28,8.28,0,0,1-.83-.45,6.1,6.1,0,0,1,.72,3.09.91.91,0,0,1-.62.82A1.19,1.19,0,0,1,15,24a3.85,3.85,0,0,1-1-1.08,5.52,5.52,0,0,1-.85-3.22,2.34,2.34,0,0,1,.13-.4.55.55,0,0,1,.31-.29,1.37,1.37,0,0,1,1.05,0,1.6,1.6,0,0,1,.64.37,1.51,1.51,0,0,1,.31.12,8,8,0,0,0,1.25.74,3.91,3.91,0,0,0,2,.58c.14.12,0,.26-.14.33A3.22,3.22,0,0,1,16.76,20.73Zm-2.88-1.35a.42.42,0,0,0-.2.32,4,4,0,0,0,.19,1.64,6.08,6.08,0,0,0,.87,1.7c.14.15.29.32.45.46a1.08,1.08,0,0,0,.52.24.55.55,0,0,0,.43-.31A6,6,0,0,0,15.32,20a1.12,1.12,0,0,1-.25-.42,2.74,2.74,0,0,0-.55-.21A1.27,1.27,0,0,0,13.88,19.38Z"/><path class="cls-2" d="M19.61,20.56a.88.88,0,0,1-.62,0,1.57,1.57,0,0,1-.4-.49.65.65,0,0,1-.07-.39.23.23,0,0,1,.07-.09.1.1,0,0,1,.12,0c.11.12.19.33.31.47s.2.16.33.1a1.5,1.5,0,0,0,.58-.51,3.46,3.46,0,0,0,.85-1.81.24.24,0,0,0-.12-.23,1.12,1.12,0,0,0-.57.2c-.36.18-.69.42-1,.63a2.45,2.45,0,0,1-.84.38.79.79,0,0,1-.76-.47,4.8,4.8,0,0,1-.33-2.15,2,2,0,0,1,.43-1A.8.8,0,0,1,18,15a.76.76,0,0,1,.58.19.26.26,0,0,1,0,.28,1.78,1.78,0,0,1-.26,0,.91.91,0,0,0-.23,0,.36.36,0,0,0-.27.12.57.57,0,0,0-.18.34,4.09,4.09,0,0,0,0,1.48,3.4,3.4,0,0,0,.25.8.25.25,0,0,0,.22.17.75.75,0,0,0,.4-.12l.87-.54a5.33,5.33,0,0,1,.88-.47.83.83,0,0,1,.64,0c.12.08.29.21.31.38a2.86,2.86,0,0,1-.42,1.63A3.73,3.73,0,0,1,19.61,20.56Z"/><path class="cls-2" d="M25,15.7a2.47,2.47,0,0,1-.69,1.16,1.46,1.46,0,0,1-1.23.34,2.11,2.11,0,0,1-.57-.19,2.9,2.9,0,0,1-.36-.25,1.42,1.42,0,0,1-.18.37.6.6,0,0,1-.4.23.24.24,0,0,1-.21-.22,1.16,1.16,0,0,1,.16-.21,1.58,1.58,0,0,0,.13-.18c.06-.09.12-.25.18-.36a6.48,6.48,0,0,1-1-1.64,2.9,2.9,0,0,1-.24-1.49,1.55,1.55,0,0,1,.87-1,2,2,0,0,1,1.51.33.86.86,0,0,1,.23.71c0,.19-.06.4-.11.6l-.06.29a2,2,0,0,0,0,.24,7,7,0,0,1-.27.94c-.1.31-.21.61-.32.88a1.31,1.31,0,0,0,1,.49,1.11,1.11,0,0,0,.85-.55,2.51,2.51,0,0,0,.39-.87,3,3,0,0,0,.05-1.56c0-.1.2,0,.24,0a2.14,2.14,0,0,1,.21.86A3.44,3.44,0,0,1,25,15.7Zm-4-2.29a3,3,0,0,0,.2,1.09,4.82,4.82,0,0,0,.79,1.34c.12-.3.23-.62.34-.95a6.39,6.39,0,0,0,.26-1.07,1.35,1.35,0,0,0,0-.82,1.71,1.71,0,0,0-.91-.28A1.09,1.09,0,0,0,21.06,13.41Z"/><path class="cls-2" d="M31.88,12.43a4,4,0,0,1-1.73.82.88.88,0,0,1-.66-.23,1.51,1.51,0,0,1-.19-1.28c0-.11.2,0,.21,0a2,2,0,0,1,.07.37,1.56,1.56,0,0,0,.1.37.45.45,0,0,0,.38.34,3.42,3.42,0,0,0,1.54-.75,5.09,5.09,0,0,0,1.25-1.58A3.57,3.57,0,0,0,33.31,9a.43.43,0,0,0-.25-.26,16,16,0,0,0-2.18.1c-.83.07-1.67.22-2.51.21a.89.89,0,0,1-.76-.6,2.28,2.28,0,0,1,0-.69c0-.23.09-.47.11-.71s.19-.81.3-1.23a6.52,6.52,0,0,1,.44-1.24,2.49,2.49,0,0,1,.81-1,1.69,1.69,0,0,1,.66-.16,1.44,1.44,0,0,1,.78.22.15.15,0,0,1,0,.25,1.84,1.84,0,0,0-.77-.07,1,1,0,0,0-.59.27,1.89,1.89,0,0,0-.45.6,5.33,5.33,0,0,0-.32.87c-.08.31-.14.61-.23.89a9.35,9.35,0,0,0-.27,1.76.43.43,0,0,0,.23.31,5.21,5.21,0,0,0,1.47-.08,24.85,24.85,0,0,1,3.45-.19.73.73,0,0,1,.51.34,2.34,2.34,0,0,1-.22,1.55A5.71,5.71,0,0,1,31.88,12.43Z"/><path class="cls-2" d="M39.18,9.8a.67.67,0,0,1-.51-.37c-.55-1.12-.93-2.36-1.41-3.52-.14-.36-.55-.33-.66.06a11,11,0,0,0-.33,2.43,16.18,16.18,0,0,0,0,2.31.27.27,0,0,1-.32.22,1.62,1.62,0,0,1-.17-.19l-.13-.24a10.66,10.66,0,0,1-1.08-2.93A17.23,17.23,0,0,1,34.15,4a8.06,8.06,0,0,1,.21-1.76,1.18,1.18,0,0,1,.51-.69.81.81,0,0,1,.53,0c.12.07.25.17.19.34a3.09,3.09,0,0,0-.43,0,.46.46,0,0,0-.29.18,6.25,6.25,0,0,0-.26,1.66,12.53,12.53,0,0,0,.09,1.93,15,15,0,0,0,.51,2.55,12.67,12.67,0,0,0,.59,1.6,14,14,0,0,1,.07-2.15,14.56,14.56,0,0,1,.26-1.65c0-.12,0-.22.08-.31a.74.74,0,0,1,.1-.26.64.64,0,0,1,.46-.34.73.73,0,0,1,.74.23,2,2,0,0,1,.34.66A31.44,31.44,0,0,0,39.12,9.2c0,.05.08.05.09,0a4.62,4.62,0,0,0,.37-1l.25-1.07c0-.08.09-.07.14,0a.18.18,0,0,1,.11.14,6.94,6.94,0,0,1-.41,2.12C39.6,9.49,39.44,9.81,39.18,9.8Z"/><path class="cls-2" d="M44.16,7.3c-.14-.28-.25-.57-.37-.86A6.11,6.11,0,0,1,42.43,9.3a.92.92,0,0,1-1,.25,1.19,1.19,0,0,1-.68-.83,3.87,3.87,0,0,1-.07-1.43,5.42,5.42,0,0,1,1.35-3A2,2,0,0,1,42.38,4a.55.55,0,0,1,.42,0,1.36,1.36,0,0,1,.8.67,1.72,1.72,0,0,1,.28.7c.06.09.1.17.16.28A8.13,8.13,0,0,0,44.55,7a4,4,0,0,0,1.22,1.72c0,.18-.19.18-.32.17A3.23,3.23,0,0,1,44.16,7.3ZM42.75,4.45a.44.44,0,0,0-.35.12A4.24,4.24,0,0,0,41.52,6a6.16,6.16,0,0,0-.38,1.86,4.48,4.48,0,0,0,.07.64,1,1,0,0,0,.26.52A.53.53,0,0,0,42,9a6,6,0,0,0,1.49-3.18,1.28,1.28,0,0,1,.07-.47,2.71,2.71,0,0,0-.3-.51A1.15,1.15,0,0,0,42.75,4.45Z"/><path class="cls-2" d="M48.5,4.28a3.61,3.61,0,0,0-1.09.9,3.49,3.49,0,0,0-.82,1.34,6.08,6.08,0,0,0,.31,1.17c.13.39.29.76.42,1.16a.16.16,0,0,1-.26.1l-.18-.18A12.63,12.63,0,0,1,46,6a4.51,4.51,0,0,1,0-1.79c.07-.13.11-.29.18-.42a.61.61,0,0,1,.33-.34.35.35,0,0,1,.3.12c0,.19-.12.31-.2.45s0,.09,0,.15a3.52,3.52,0,0,0-.15,1.49,4.53,4.53,0,0,1,.85-1,4.13,4.13,0,0,1,1-.7,5.29,5.29,0,0,1,.87-.31,1.06,1.06,0,0,1,.56,0,.18.18,0,0,1-.14.24A4.92,4.92,0,0,0,48.5,4.28Z"/><path class="cls-2" d="M53.15,8.45a2.39,2.39,0,0,1-1.26.49,1.44,1.44,0,0,1-1.18-.46,2.13,2.13,0,0,1-.47-.92,1.25,1.25,0,0,1-.37.18.55.55,0,0,1-.46-.06.22.22,0,0,1,0-.29,1.21,1.21,0,0,1,.25-.08.76.76,0,0,0,.21-.06,4,4,0,0,0,.36-.18,7,7,0,0,1,.18-1.93,2.92,2.92,0,0,1,.71-1.33,1.54,1.54,0,0,1,1.28-.24,2.08,2.08,0,0,1,1,1.17.84.84,0,0,1-.26.71c-.13.13-.29.28-.45.41l-.21.19c-.06.06-.13.12-.18.18a6.87,6.87,0,0,1-.78.58,9.23,9.23,0,0,1-.79.5,1.35,1.35,0,0,0,.52,1,1.1,1.1,0,0,0,1,.08A2.63,2.63,0,0,0,53.08,8a3,3,0,0,0,1-1.2c.07-.07.19.07.19.13a2.08,2.08,0,0,1-.35.81A3.65,3.65,0,0,1,53.15,8.45ZM51.38,4.22a2.57,2.57,0,0,0-.5,1,4.62,4.62,0,0,0-.19,1.54c.27-.17.56-.35.85-.55a5,5,0,0,0,.85-.7c.19-.17.47-.36.52-.64a1.85,1.85,0,0,0-.56-.77A1.05,1.05,0,0,0,51.38,4.22Z"/><path class="cls-2" d="M55.56,8.22a.31.31,0,0,1,.2-.32c.14,0,.22.13.24.21a1.47,1.47,0,0,0,.14.45c.14.25.29.48.43.74a.17.17,0,0,1-.19.15A1.68,1.68,0,0,1,55.56,8.22ZM56.93,1a8.29,8.29,0,0,0-.42,2,25.52,25.52,0,0,0-.22,3c0,.14-.08.29-.25.29a1.12,1.12,0,0,1-.16-.65,23,23,0,0,1,.24-3.1A11.15,11.15,0,0,1,56.74.21S56.83,0,57,0a.24.24,0,0,1,.25.17,2.59,2.59,0,0,1-.14.45Z"/></g></g></svg>