<svg xmlns="http://www.w3.org/2000/svg" viewBox="0 0 378.08 97.29"><defs><style>.cls-1{fill:#e15513;}.cls-2{fill:#4d4d4d;}</style></defs><g id="レイヤー_2" data-name="レイヤー 2"><g id="design"><polygon class="cls-1" points="64.82 23.99 67 23.99 67 7.28 77.18 7.28 77.18 5.09 67 5.09 67 2.18 64.82 2.18 64.82 5.09 55.37 5.09 55.37 7.28 64.82 7.28 64.82 23.99"/><polygon class="cls-1" points="5.18 8.83 5.18 2.18 3 2.18 3 23.99 5.18 23.99 5.18 11.23 16.96 16.72 22.27 16.72 22.27 14.54 17.44 14.54 5.18 8.83"/><rect class="cls-1" x="82.99" y="4.39" width="10.96" height="2.18"/><polygon class="cls-1" points="60.18 11.17 58.03 10.79 56.21 21.09 53.92 21.09 53.92 23.27 58.04 23.27 60.18 11.17"/><polygon class="cls-1" points="74.52 10.79 72.37 11.17 74.5 23.27 78.63 23.27 78.63 21.09 76.34 21.09 74.52 10.79"/><polygon class="cls-1" points="27.93 22.27 29.72 23.53 35.01 15.98 35.01 8.01 45.92 8.01 45.92 21.81 40.46 21.81 40.46 23.99 48.1 23.99 48.1 5.83 35.01 5.83 35.01 2.18 32.83 2.18 32.83 5.83 27.74 5.83 27.74 8.01 32.83 8.01 32.83 15.29 27.93 22.27"/><polygon class="cls-1" points="103.34 15.88 103.34 2.18 101.16 2.18 101.16 15.19 96.52 21.82 82.29 21.82 82.29 24 97.65 24 103.34 15.88"/><rect class="cls-1" x="48.82" y="0.73" width="2.18" height="2.18"/><rect class="cls-1" x="45.19" y="0.73" width="2.18" height="2.18"/><rect class="cls-1" x="18.28" y="2.91" width="2.18" height="2.18"/><rect class="cls-1" x="14.64" y="2.91" width="2.18" height="2.18"/><path class="cls-1" d="M74.28,4.36h4.36V0H74.28Zm1.46-2.91h1.45V2.91H75.74Z"/><rect class="cls-1" x="137.17" y="11.64" width="20.36" height="2.18"/><rect class="cls-1" x="191.7" y="2.92" width="19.63" height="2.18"/><polygon class="cls-1" points="190.98 13.09 203.34 13.09 203.34 17.2 200.1 21.82 191.7 21.82 191.7 24 201.24 24 205.52 17.89 205.52 13.09 212.79 13.09 212.79 10.91 190.98 10.91 190.98 13.09"/><polygon class="cls-1" points="359.65 9.61 359.65 6.55 363.3 6.55 363.3 4.37 359.65 4.37 359.65 0 357.47 0 357.47 4.37 353.83 4.37 353.83 6.55 357.47 6.55 357.47 7.92 353.32 17.85 355.34 18.7 357.47 13.58 357.47 25.45 359.65 25.45 359.65 12.85 362.27 15.71 363.88 14.23 359.65 9.61"/><rect class="cls-1" x="246.95" y="4.38" width="10.96" height="2.18"/><polygon class="cls-1" points="265.13 15.19 260.48 21.82 246.25 21.82 246.25 24 261.62 24 267.31 15.87 267.31 2.17 265.13 2.17 265.13 15.19"/><rect class="cls-1" x="317.13" y="10.04" width="2.18" height="16.15" transform="translate(40.27 174.12) rotate(-32.56)"/><polygon class="cls-1" points="222.08 14.55 220.05 14.55 220.05 16.73 222.66 16.73 229.33 12.88 229.33 24.75 231.51 24.75 231.51 11.62 236.52 8.73 238.96 8.73 238.96 6.55 235.94 6.55 222.08 14.55"/><polygon class="cls-1" points="108.09 5.1 128.45 5.1 128.45 11.27 117.68 17.48 113.89 10.91 110.26 10.91 110.26 13.09 112.63 13.09 119.6 25.16 121.48 24.07 118.77 19.37 130.63 12.53 130.63 2.92 108.09 2.92 108.09 5.1"/><polygon class="cls-1" points="169.59 2.18 167.51 1.53 164.33 11.64 162.63 11.64 162.63 13.82 165.94 13.82 167.76 8.01 180.79 8.01 180.79 16.41 177.01 21.82 166.26 21.82 166.26 24 178.14 24 182.97 17.1 182.97 8.01 185.88 8.01 185.88 5.83 168.45 5.83 169.59 2.18"/><polygon class="cls-1" points="323.29 6.55 312.39 6.55 312.39 0.73 310.21 0.73 310.21 6.55 299.3 6.55 299.3 8.73 309.31 8.73 299.47 24.13 301.31 25.31 311.89 8.73 323.29 8.73 323.29 6.55"/><polygon class="cls-1" points="377.82 2.19 372 2.19 372 0 369.82 0 369.82 2.19 363.99 2.19 363.99 4.38 377.82 4.38 377.82 2.19"/><polygon class="cls-1" points="275.27 8.73 272.41 8.73 272.41 10.92 276.41 10.92 280.48 5.1 292.04 5.1 292.04 14.31 286.79 21.82 276.03 21.82 276.03 24 287.92 24 294.22 15 294.22 2.92 279.35 2.92 275.27 8.73"/><rect class="cls-1" x="294.22" width="2.18" height="2.18"/><rect class="cls-1" x="290.58" width="2.18" height="2.18"/><polygon class="cls-1" points="348.74 1 346.63 0.43 345.57 4.37 340.13 4.37 339.07 0.43 336.97 1 337.87 4.37 333.16 4.37 332.11 0.43 330 1 330.91 4.37 326.94 4.37 326.94 9.47 329.12 9.47 329.12 6.55 349.46 6.55 349.46 9.47 351.64 9.47 351.64 4.37 347.83 4.37 348.74 1"/><rect class="cls-1" x="362.04" y="7.83" width="8.02" height="2.18" transform="translate(215.78 342.82) rotate(-67.17)"/><rect class="cls-1" x="374.35" y="4.91" width="2.18" height="8.02" transform="translate(25.95 146.36) rotate(-22.83)"/><polygon class="cls-1" points="375.38 12.55 373.66 11.21 370.74 14.94 367.82 11.21 366.11 12.55 369.36 16.71 363.63 24.04 365.35 25.39 370.74 18.48 376.14 25.39 377.86 24.04 372.13 16.71 375.38 12.55"/><polygon class="cls-1" points="340.74 15.09 346.58 11.71 346.58 9.46 331.29 9.46 331.29 11.64 342.34 11.64 338.56 13.83 338.56 16 326.94 16 326.94 18.18 338.56 18.18 338.56 23.27 333.49 23.27 333.49 25.45 340.74 25.45 340.74 18.18 351.64 18.18 351.64 16 340.74 16 340.74 15.09"/><path class="cls-2" d="M33.66,62.59c4.28,8.25,11.32,15.84,19.19,20a27.66,27.66,0,0,0-5.06,5.94,44.85,44.85,0,0,1-9-7.37v6.27H29.7v9.3H22.82v-9.3H13.36V81.62a46.74,46.74,0,0,1-8.58,7A32.32,32.32,0,0,0,0,83.21C7.75,79,14.68,71.06,18.92,62.59H2.14V56H22.82V45.38H29.7V56H50.54v6.6ZM22.82,80.74v-12a64.07,64.07,0,0,1-8.63,12Zm15.62,0a61.22,61.22,0,0,1-8.74-12.1v12.1Z"/><path class="cls-2" d="M77.12,59.79h-19V54.62h19Zm-1.43,34.7h-10v2.14H60.3V77.88H75.69Zm-.16-27.11H60.46v-4.9H75.53ZM60.46,70.13H75.53v4.94H60.46ZM75.36,52H60.79V47H75.36ZM65.69,83.05v6.27h4.56V83.05Zm44,5.61h-2.75v2.25c0,2.75-.55,4.07-2.42,4.9s-4.51.88-8.19.88a18.6,18.6,0,0,0-1.49-5.06c2.15.11,4.57.11,5.23.11s.93-.22.93-.88v-2.2H85.32v8h-5.5v-8H77.07V83.49h2.75V69.8H90.49v-2H77.18V62.87h7.15V60.5H79.6V56h4.73v-2.2H78.61V49.17h5.72V45.32h5.83v3.85h6.38V45.32h5.88v3.85h6.16v4.62h-6.16V56h5V60.5h-5v2.37h7.15v4.95H95.88v2h11.05V83.49h2.75ZM85.32,74.3v2.59h5.17V74.3Zm0,9.19h5.17V80.9H85.32ZM90.16,56h6.38v-2.2H90.16Zm0,6.88h6.38V60.5H90.16ZM95.88,74.3v2.59H101V74.3ZM101,83.49V80.9H95.88v2.59Z"/><path class="cls-2" d="M149.52,89.76h17.6v5.61H125.93V89.76h17.26V84.31h-13.8V78.65h13.8V72.27L140.06,76a41.31,41.31,0,0,0-4.18-4.79,20.69,20.69,0,0,1-4.95,5.89,36.5,36.5,0,0,0-4.73-3.85c-.49,7.81-1.87,16.72-5.28,23a25.31,25.31,0,0,0-5.55-3.63c4.29-7.87,4.62-19.36,4.62-27.39V50.33h20.07V45.38h6.82v4.95h19.85v6H126.42v9c0,2.36,0,5-.22,8,4.51-3,6.6-8,7.26-14.41l5.94.44a37.77,37.77,0,0,1-1.32,6.6A64.66,64.66,0,0,1,143.19,71V58.14h6.33V71.55c3.35-3,5.22-7.36,5.94-12.7l5.83.66a35.57,35.57,0,0,1-1.49,6.33,95.51,95.51,0,0,1,7.59,6.59l-3.79,4.51a76.49,76.49,0,0,0-6.22-5.88,20.41,20.41,0,0,1-4.95,5.66A24.49,24.49,0,0,0,149.52,74v4.62h14.63v5.66H149.52Z"/><path class="cls-2" d="M209,47.74q-1.68-1.68-5.36-1.68a10.6,10.6,0,0,0-8.88,4.44q-3.36,4.44-5.28,14.44a17.32,17.32,0,0,1,6.56-5,20,20,0,0,1,8.32-1.8q6.8,0,10.72,3.76T219,72.54a26.89,26.89,0,0,1-4.4,14.76,21,21,0,0,1-7.88,6.92,23.72,23.72,0,0,1-11,2.48q-9.36,0-13.44-4.64t-4.08-13.52a68.49,68.49,0,0,1,1.28-12.08q2.55-14.64,8.92-22.12t17.24-7.48q8.4,0,12.24,4.56a15.27,15.27,0,0,1,3.36,11.36h-10.4A7.38,7.38,0,0,0,209,47.74ZM192.65,69.82a10.81,10.81,0,0,0-4.12,7.2,13.5,13.5,0,0,0-.24,2.48,7.26,7.26,0,0,0,2.2,5.68c1.46,1.34,3.58,2,6.36,2a10.67,10.67,0,0,0,7.36-2.64A12.08,12.08,0,0,0,208,77.42a14.71,14.71,0,0,0,.24-2.56,7.49,7.49,0,0,0-2-5.52q-2-2-6-2A12.31,12.31,0,0,0,192.65,69.82Z"/><path class="cls-2" d="M245.69,62.26c-.38,1-.88,2.26-1.42,3.52h20.07a39,39,0,0,0,4.89-.27v6.7c-1.7-.16-3.79-.16-4.89-.16h-6.71c-.94,11.66-5.34,19.85-14.13,25.24l-6.82-4.56a24.68,24.68,0,0,0,4.95-2.92c4.56-3.74,8.19-9,9.07-17.76h-9.62a50.83,50.83,0,0,1-7.59,9.51l-6.44-3.74a36.13,36.13,0,0,0,8.36-9.34,24.9,24.9,0,0,0,3.08-7,22,22,0,0,0,.77-4L247,59C246.46,60.28,246,61.27,245.69,62.26Z"/><path class="cls-2" d="M318.54,88.33c0,4-.94,5.83-3.47,6.93s-6.48,1.26-12.15,1.26a27.65,27.65,0,0,0-2.75-6.87c3.85.22,8.47.16,9.68.16s1.76-.44,1.76-1.59v-8H288.07c-1.43,6.16-4.18,12.16-9.29,16.45A25.53,25.53,0,0,0,273.72,92c8.3-7.1,9.07-17.6,9.07-26V47.91h35.75Zm-6.93-14.41V67.21H289.56c-.06,2.09-.17,4.4-.39,6.71ZM289.56,54.29V61h22.05V54.29Z"/><path class="cls-2" d="M338.16,67.27V96.69h-6.49V47.41h21.06V67.27Zm0-15.13v2.92h8.47V52.14Zm8.47,10.45V59.46h-8.47v3.13Zm31.45,26.34c0,3.52-.71,5.45-2.91,6.49s-5.34,1.27-10.07,1.27a24,24,0,0,0-1.43-5.12H350v2.81H344.1V70.62h2.69v-.05l18.48.05V90.09c2.14,0,4.18,0,4.89,0,1,0,1.32-.33,1.32-1.21V67.38h-15v-20h21.56Zm-19-13.53H350v3.3h9.07Zm0,11.39V83.38H350v3.41Zm3.63-34.65v2.92h8.74V52.14Zm8.74,10.56V59.46h-8.74V62.7Z"/></g></g></svg>