<svg xmlns="http://www.w3.org/2000/svg" width="375.08" height="97.65" viewBox="0 0 375.08 97.65">
  <g id="レイヤー_2" data-name="レイヤー 2" transform="translate(-15 -4)">
    <g id="design" transform="translate(12 4)">
      <path id="パス_346" data-name="パス 346" d="M64.82,23.99H67V7.28H77.18V5.09H67V2.18H64.82V5.09H55.37V7.28h9.45Z" fill="#e15513"/>
      <path id="パス_347" data-name="パス 347" d="M5.18,8.83V2.18H3V23.99H5.18V11.23l11.78,5.49h5.31V14.54H17.44Z" fill="#e15513"/>
      <rect id="長方形_5" data-name="長方形 5" width="10.96" height="2.18" transform="translate(82.99 4.39)" fill="#e15513"/>
      <path id="パス_348" data-name="パス 348" d="M60.18,11.17l-2.15-.38-1.82,10.3H53.92v2.18h4.12Z" fill="#e15513"/>
      <path id="パス_349" data-name="パス 349" d="M74.52,10.79l-2.15.38,2.13,12.1h4.13V21.09H76.34Z" fill="#e15513"/>
      <path id="パス_350" data-name="パス 350" d="M27.93,22.27l1.79,1.26,5.29-7.55V8.01H45.92v13.8H40.46v2.18H48.1V5.83H35.01V2.18H32.83V5.83H27.74V8.01h5.09v7.28Z" fill="#e15513"/>
      <path id="パス_351" data-name="パス 351" d="M103.34,15.88V2.18h-2.18V15.19l-4.64,6.63H82.29V24H97.65Z" fill="#e15513"/>
      <rect id="長方形_6" data-name="長方形 6" width="2.18" height="2.18" transform="translate(48.82 0.73)" fill="#e15513"/>
      <rect id="長方形_7" data-name="長方形 7" width="2.18" height="2.18" transform="translate(45.19 0.73)" fill="#e15513"/>
      <rect id="長方形_8" data-name="長方形 8" width="2.18" height="2.18" transform="translate(18.28 2.91)" fill="#e15513"/>
      <rect id="長方形_9" data-name="長方形 9" width="2.18" height="2.18" transform="translate(14.64 2.91)" fill="#e15513"/>
      <path id="パス_352" data-name="パス 352" d="M74.28,4.36h4.36V0H74.28Zm1.46-2.91h1.45V2.91H75.74Z" fill="#e15513"/>
      <rect id="長方形_10" data-name="長方形 10" width="20.36" height="2.18" transform="translate(137.17 11.64)" fill="#e15513"/>
      <rect id="長方形_11" data-name="長方形 11" width="19.63" height="2.18" transform="translate(191.7 2.92)" fill="#e15513"/>
      <path id="パス_353" data-name="パス 353" d="M190.98,13.09h12.36V17.2l-3.24,4.62h-8.4V24h9.54l4.28-6.11v-4.8h7.27V10.91H190.98Z" fill="#e15513"/>
      <path id="パス_354" data-name="パス 354" d="M359.65,9.61V6.55h3.65V4.37h-3.65V0h-2.18V4.37h-3.64V6.55h3.64V7.92l-4.15,9.93,2.02.85,2.13-5.12V25.45h2.18V12.85l2.62,2.86,1.61-1.48Z" fill="#e15513"/>
      <rect id="長方形_12" data-name="長方形 12" width="10.96" height="2.18" transform="translate(246.95 4.38)" fill="#e15513"/>
      <path id="パス_355" data-name="パス 355" d="M265.13,15.19l-4.65,6.63H246.25V24h15.37l5.69-8.13V2.17h-2.18Z" fill="#e15513"/>
      <rect id="長方形_13" data-name="長方形 13" width="2.18" height="16.15" transform="translate(312.96 11.909) rotate(-32.56)" fill="#e15513"/>
      <path id="パス_356" data-name="パス 356" d="M222.08,14.55h-2.03v2.18h2.61l6.67-3.85V24.75h2.18V11.62l5.01-2.89h2.44V6.55h-3.02Z" fill="#e15513"/>
      <path id="パス_357" data-name="パス 357" d="M108.09,5.1h20.36v6.17l-10.77,6.21-3.79-6.57h-3.63v2.18h2.37l6.97,12.07,1.88-1.09-2.71-4.7,11.86-6.84V2.92H108.09Z" fill="#e15513"/>
      <path id="パス_358" data-name="パス 358" d="M169.59,2.18l-2.08-.65-3.18,10.11h-1.7v2.18h3.31l1.82-5.81h13.03v8.4l-3.78,5.41H166.26V24h11.88l4.83-6.9V8.01h2.91V5.83H168.45Z" fill="#e15513"/>
      <path id="パス_359" data-name="パス 359" d="M323.29,6.55h-10.9V.73h-2.18V6.55H299.3V8.73h10.01l-9.84,15.4,1.84,1.18L311.89,8.73h11.4Z" fill="#e15513"/>
      <path id="パス_360" data-name="パス 360" d="M377.82,2.19H372V0h-2.18V2.19h-5.83V4.38h13.83Z" fill="#e15513"/>
      <path id="パス_361" data-name="パス 361" d="M275.27,8.73h-2.86v2.19h4l4.07-5.82h11.56v9.21l-5.25,7.51H276.03V24h11.89l6.3-9V2.92H279.35Z" fill="#e15513"/>
      <rect id="長方形_14" data-name="長方形 14" width="2.18" height="2.18" transform="translate(294.22)" fill="#e15513"/>
      <rect id="長方形_15" data-name="長方形 15" width="2.18" height="2.18" transform="translate(290.58)" fill="#e15513"/>
      <path id="パス_362" data-name="パス 362" d="M348.74,1,346.63.43l-1.06,3.94h-5.44L339.07.43l-2.1.57.9,3.37h-4.71L332.11.43,330,1l.91,3.37h-3.97v5.1h2.18V6.55h20.34V9.47h2.18V4.37h-3.81Z" fill="#e15513"/>
      <rect id="長方形_16" data-name="長方形 16" width="8.02" height="2.18" transform="matrix(0.388, -0.922, 0.922, 0.388, 363.468, 12.18)" fill="#e15513"/>
      <rect id="長方形_17" data-name="長方形 17" width="2.18" height="8.02" transform="matrix(0.922, -0.388, 0.388, 0.922, 372.879, 5.638)" fill="#e15513"/>
      <path id="パス_363" data-name="パス 363" d="M375.38,12.55l-1.72-1.34-2.92,3.73-2.92-3.73-1.71,1.34,3.25,4.16-5.73,7.33,1.72,1.35,5.39-6.91,5.4,6.91,1.72-1.35-5.73-7.33Z" fill="#e15513"/>
      <path id="パス_364" data-name="パス 364" d="M340.74,15.09l5.84-3.38V9.46H331.29v2.18h11.05l-3.78,2.19V16H326.94v2.18h11.62v5.09h-5.07v2.18h7.25V18.18h10.9V16h-10.9Z" fill="#e15513"/>
      <path id="パス_369" data-name="パス 369" d="M237.987,60.4c-.223.61-.516,1.379-.833,2.148H248.93a22.017,22.017,0,0,0,2.869-.165v4.088c-1-.1-2.224-.1-2.869-.1h-3.937c-.552,7.114-3.133,12.111-8.291,15.4l-4-2.782a14.369,14.369,0,0,0,2.9-1.782c2.676-2.282,4.805-5.491,5.322-10.836h-5.645a30.843,30.843,0,0,1-4.453,5.8L227.05,69.89a21.781,21.781,0,0,0,4.905-5.7,15.505,15.505,0,0,0,1.807-4.271,13.9,13.9,0,0,0,.452-2.441l4.541.927C238.439,59.188,238.169,59.792,237.987,60.4Z" transform="translate(64.051 15.23)" fill="#4d4d4d"/>
      <path id="パス_370" data-name="パス 370" d="M301.224,72.779c0,2.461-.577,3.587-2.129,4.264s-3.976.775-7.456.775a17.033,17.033,0,0,0-1.687-4.227c2.363.135,5.2.1,5.94.1s1.08-.271,1.08-.978V67.789H282.526a18.237,18.237,0,0,1-5.7,10.121,15.684,15.684,0,0,0-3.105-2.873c5.093-4.368,5.566-10.829,5.566-16V47.91h21.938Zm-4.253-8.866V59.785H283.44c-.037,1.286-.1,2.707-.239,4.128ZM283.44,51.835v4.128h13.531V51.835Z" transform="translate(42.13 19.09)" fill="#4d4d4d"/>
      <path id="パス_371" data-name="パス 371" d="M335.877,59.356V77.07H331.67V47.4h13.651V59.356Zm0-9.11V52h5.49V50.246Zm5.49,6.292V54.653h-5.49v1.885ZM361.754,72.4c0,2.119-.46,3.281-1.886,3.908s-3.461.765-6.528.765a13.661,13.661,0,0,0-.927-3.083h-8.861v1.692h-3.825V61.373h1.744v-.03l11.979.03V73.1h3.17c.648,0,.856-.2.856-.729V59.422h-9.723V47.38h13.976Zm-12.316-8.147h-5.886v1.987h5.879Zm0,6.858V69.056h-5.886v2.053Zm2.353-20.863V52h5.665V50.246Zm5.665,6.358V54.653h-5.665V56.6Z" transform="translate(16.326 19.62)" fill="#4d4d4d"/>
      <path id="パス_383" data-name="パス 383" d="M-213.948-2.3a63.363,63.363,0,0,0-8.586-7.317,31.838,31.838,0,0,0,3.969-7.29,4.263,4.263,0,0,1,.972-1.593l-2.376-2.43a4.954,4.954,0,0,1-2.16.3l-9.234.135c-.783.027-1.3.027-1.512.027a20,20,0,0,1-2.835-.189l.135,4.806a32.067,32.067,0,0,1,4.293-.27l7.02-.108a21.721,21.721,0,0,1-5.427,7.938,25.462,25.462,0,0,1-8.748,5.454,14.144,14.144,0,0,1,3.024,4.266,29.284,29.284,0,0,0,9.936-7.4A43.41,43.41,0,0,1-217.728,1.7Zm9.909-20.655a17.319,17.319,0,0,1-1.566,3.78,23.284,23.284,0,0,1-6.723,7.749A13.179,13.179,0,0,1-208.44-8.37a28.387,28.387,0,0,0,6.156-7.317l7.479-.054a19.08,19.08,0,0,1-2.322,4.941,34.994,34.994,0,0,0-4.968-3.078l-2.835,3.4a29.027,29.027,0,0,1,5.022,3.348,22.108,22.108,0,0,1-9.153,5.535,15.085,15.085,0,0,1,3.159,4.05,31.43,31.43,0,0,0,4.644-2.484,25.872,25.872,0,0,0,6.561-6.1,34.691,34.691,0,0,0,5.022-10.422,2.466,2.466,0,0,1,.621-1.161l-2.4-2.376a2.987,2.987,0,0,1-1.647.351l-7.263.081c.756-1.539,1.134-2.3,1.161-2.349Zm19.926,5.859a28.836,28.836,0,0,1,7.344,5.7l3.186-4.212a39.388,39.388,0,0,0-7.425-5.292Zm1.674,18.144c.729-.216.891-.243,1.944-.486,5.022-1.161,7.587-2.16,10.5-4.05,3.78-2.43,6.345-5.616,8.8-10.935a17.431,17.431,0,0,1-3.969-3.618,24.857,24.857,0,0,1-2.646,5.292,16.236,16.236,0,0,1-7.911,6.669,27.093,27.093,0,0,1-8.127,1.944ZM-137.4-18.36l.918-.27a17.7,17.7,0,0,0-1.917-4.077l-2.727.729a17.375,17.375,0,0,1,1.215,2.268h-.459l-6.264.054c.513-1.08.891-1.836,1.161-2.349l-4.833-.945A22.779,22.779,0,0,1-158.6-11.421,13.535,13.535,0,0,1-154.71-8.37a29.032,29.032,0,0,0,6.156-7.317l7.479-.054A20.538,20.538,0,0,1-143.4-10.8a37.643,37.643,0,0,0-4.968-3.078l-2.835,3.4a29.558,29.558,0,0,1,5.022,3.348,22.5,22.5,0,0,1-9.153,5.535,15.085,15.085,0,0,1,3.159,4.05c8.019-3.591,12.744-8.8,15.606-17.253a6.343,6.343,0,0,1,.756-1.863Zm.243-4.59a21.962,21.962,0,0,1,1.917,4.1l2.619-.81a19.691,19.691,0,0,0-1.944-4Zm5.022,15.255c1.647-.135,2.538-.162,5.562-.162h12.852a52.112,52.112,0,0,1,5.562.162v-5.211a44.3,44.3,0,0,1-5.535.243H-126.6a38.26,38.26,0,0,1-5.535-.243Zm36.612,9.288a33.963,33.963,0,0,1-.162-4.131v-7.02a.749.749,0,0,0,.243.135,8.244,8.244,0,0,0,.972.405,50.744,50.744,0,0,1,8.5,4.7L-83.4-8.91a57.494,57.494,0,0,0-12.285-5.616v-3.7a28.513,28.513,0,0,1,.135-3.942h-5.211a28.268,28.268,0,0,1,.189,3.915V-2.538c-.027,2.214-.054,3-.162,4.131ZM-91.1-19.494a18.307,18.307,0,0,1,2.673,3.942l2.565-1.242a19.289,19.289,0,0,0-2.673-3.861Zm3.726-1.674a20.729,20.729,0,0,1,2.646,3.861l2.484-1.215a18.981,18.981,0,0,0-2.7-3.753ZM-61.02-.621V.972h5.076a40.757,40.757,0,0,1-.162-4.455V-17.577c0-1.35.027-1.809.081-2.754-.783.054-1.539.081-3,.081H-71.415a28.268,28.268,0,0,1-4.725-.243v4.914c1.134-.108,2.16-.135,4.644-.135H-61.02V-5.157h-10.8a27.913,27.913,0,0,1-4.7-.216V-.459A38.021,38.021,0,0,1-71.9-.621Zm9.882-7.074c1.647-.135,2.538-.162,5.562-.162h12.852a52.112,52.112,0,0,1,5.562.162v-5.211a44.3,44.3,0,0,1-5.535.243H-45.6a38.26,38.26,0,0,1-5.535-.243Zm49.95,5.4A63.363,63.363,0,0,0-9.774-9.612,31.838,31.838,0,0,0-5.8-16.9,4.263,4.263,0,0,1-4.833-18.5l-2.376-2.43a4.954,4.954,0,0,1-2.16.3l-9.234.135c-.783.027-1.3.027-1.512.027a20,20,0,0,1-2.835-.189l.135,4.806a32.066,32.066,0,0,1,4.293-.27l7.02-.108a21.721,21.721,0,0,1-5.427,7.938,25.462,25.462,0,0,1-8.748,5.454,14.144,14.144,0,0,1,3.024,4.266,29.284,29.284,0,0,0,9.936-7.4A43.41,43.41,0,0,1-4.968,1.7Z" transform="translate(244.08 94)" fill="#4d4d4d"/>
      <path id="パス_384" data-name="パス 384" d="M-36.9-9.735c.99,3.19,1.7,4.62,3.08,6.16C-30.69,0-26.29,1.65-19.855,1.65-13.97,1.65-9.35.11-6.325-2.8a11.647,11.647,0,0,0,3.3-8.03,10.565,10.565,0,0,0-2.64-7.59c-1.925-2.145-3.96-3.08-7.865-3.685,2.915-.77,4.125-1.21,5.335-2.145A10.028,10.028,0,0,0-4.4-32.34c0-7.15-5.94-11.77-15.125-11.77-4.4,0-7.975.99-10.78,3.025-2.585,1.87-3.85,3.8-5.225,7.865l7.865,1.32a8.079,8.079,0,0,1,2.31-4.235c1.32-1.1,3.3-1.7,6-1.7,4.675,0,7.26,2.145,7.26,5.94,0,4.235-3.245,6.765-8.745,6.765a37.706,37.706,0,0,1-5.335-.275v6.82a46.964,46.964,0,0,1,5.885-.275,14.248,14.248,0,0,1,6.325,1.32,6.408,6.408,0,0,1,3.08,5.775c0,4.345-3.465,7.15-8.91,7.15a10.386,10.386,0,0,1-6.655-2.145c-1.375-1.1-1.87-1.98-2.585-4.51Z" transform="translate(286.08 96)" fill="#4d4d4d"/>
    </g>
  </g>
</svg>
