<svg xmlns="http://www.w3.org/2000/svg" width="380.745" height="99.485" viewBox="0 0 380.745 99.485">
  <g id="レイヤー_2" data-name="レイヤー 2" transform="translate(-9.335 -4)">
    <g id="design" transform="translate(12 4)">
      <path id="パス_346" data-name="パス 346" d="M64.82,23.99H67V7.28H77.18V5.09H67V2.18H64.82V5.09H55.37V7.28h9.45Z" fill="#e15513"/>
      <path id="パス_347" data-name="パス 347" d="M5.18,8.83V2.18H3V23.99H5.18V11.23l11.78,5.49h5.31V14.54H17.44Z" fill="#e15513"/>
      <rect id="長方形_5" data-name="長方形 5" width="10.96" height="2.18" transform="translate(82.99 4.39)" fill="#e15513"/>
      <path id="パス_348" data-name="パス 348" d="M60.18,11.17l-2.15-.38-1.82,10.3H53.92v2.18h4.12Z" fill="#e15513"/>
      <path id="パス_349" data-name="パス 349" d="M74.52,10.79l-2.15.38,2.13,12.1h4.13V21.09H76.34Z" fill="#e15513"/>
      <path id="パス_350" data-name="パス 350" d="M27.93,22.27l1.79,1.26,5.29-7.55V8.01H45.92v13.8H40.46v2.18H48.1V5.83H35.01V2.18H32.83V5.83H27.74V8.01h5.09v7.28Z" fill="#e15513"/>
      <path id="パス_351" data-name="パス 351" d="M103.34,15.88V2.18h-2.18V15.19l-4.64,6.63H82.29V24H97.65Z" fill="#e15513"/>
      <rect id="長方形_6" data-name="長方形 6" width="2.18" height="2.18" transform="translate(48.82 0.73)" fill="#e15513"/>
      <rect id="長方形_7" data-name="長方形 7" width="2.18" height="2.18" transform="translate(45.19 0.73)" fill="#e15513"/>
      <rect id="長方形_8" data-name="長方形 8" width="2.18" height="2.18" transform="translate(18.28 2.91)" fill="#e15513"/>
      <rect id="長方形_9" data-name="長方形 9" width="2.18" height="2.18" transform="translate(14.64 2.91)" fill="#e15513"/>
      <path id="パス_352" data-name="パス 352" d="M74.28,4.36h4.36V0H74.28Zm1.46-2.91h1.45V2.91H75.74Z" fill="#e15513"/>
      <rect id="長方形_10" data-name="長方形 10" width="20.36" height="2.18" transform="translate(137.17 11.64)" fill="#e15513"/>
      <rect id="長方形_11" data-name="長方形 11" width="19.63" height="2.18" transform="translate(191.7 2.92)" fill="#e15513"/>
      <path id="パス_353" data-name="パス 353" d="M190.98,13.09h12.36V17.2l-3.24,4.62h-8.4V24h9.54l4.28-6.11v-4.8h7.27V10.91H190.98Z" fill="#e15513"/>
      <path id="パス_354" data-name="パス 354" d="M359.65,9.61V6.55h3.65V4.37h-3.65V0h-2.18V4.37h-3.64V6.55h3.64V7.92l-4.15,9.93,2.02.85,2.13-5.12V25.45h2.18V12.85l2.62,2.86,1.61-1.48Z" fill="#e15513"/>
      <rect id="長方形_12" data-name="長方形 12" width="10.96" height="2.18" transform="translate(246.95 4.38)" fill="#e15513"/>
      <path id="パス_355" data-name="パス 355" d="M265.13,15.19l-4.65,6.63H246.25V24h15.37l5.69-8.13V2.17h-2.18Z" fill="#e15513"/>
      <rect id="長方形_13" data-name="長方形 13" width="2.18" height="16.15" transform="translate(312.96 11.909) rotate(-32.56)" fill="#e15513"/>
      <path id="パス_356" data-name="パス 356" d="M222.08,14.55h-2.03v2.18h2.61l6.67-3.85V24.75h2.18V11.62l5.01-2.89h2.44V6.55h-3.02Z" fill="#e15513"/>
      <path id="パス_357" data-name="パス 357" d="M108.09,5.1h20.36v6.17l-10.77,6.21-3.79-6.57h-3.63v2.18h2.37l6.97,12.07,1.88-1.09-2.71-4.7,11.86-6.84V2.92H108.09Z" fill="#e15513"/>
      <path id="パス_358" data-name="パス 358" d="M169.59,2.18l-2.08-.65-3.18,10.11h-1.7v2.18h3.31l1.82-5.81h13.03v8.4l-3.78,5.41H166.26V24h11.88l4.83-6.9V8.01h2.91V5.83H168.45Z" fill="#e15513"/>
      <path id="パス_359" data-name="パス 359" d="M323.29,6.55h-10.9V.73h-2.18V6.55H299.3V8.73h10.01l-9.84,15.4,1.84,1.18L311.89,8.73h11.4Z" fill="#e15513"/>
      <path id="パス_360" data-name="パス 360" d="M377.82,2.19H372V0h-2.18V2.19h-5.83V4.38h13.83Z" fill="#e15513"/>
      <path id="パス_361" data-name="パス 361" d="M275.27,8.73h-2.86v2.19h4l4.07-5.82h11.56v9.21l-5.25,7.51H276.03V24h11.89l6.3-9V2.92H279.35Z" fill="#e15513"/>
      <rect id="長方形_14" data-name="長方形 14" width="2.18" height="2.18" transform="translate(294.22)" fill="#e15513"/>
      <rect id="長方形_15" data-name="長方形 15" width="2.18" height="2.18" transform="translate(290.58)" fill="#e15513"/>
      <path id="パス_362" data-name="パス 362" d="M348.74,1,346.63.43l-1.06,3.94h-5.44L339.07.43l-2.1.57.9,3.37h-4.71L332.11.43,330,1l.91,3.37h-3.97v5.1h2.18V6.55h20.34V9.47h2.18V4.37h-3.81Z" fill="#e15513"/>
      <rect id="長方形_16" data-name="長方形 16" width="8.02" height="2.18" transform="matrix(0.388, -0.922, 0.922, 0.388, 363.468, 12.18)" fill="#e15513"/>
      <rect id="長方形_17" data-name="長方形 17" width="2.18" height="8.02" transform="matrix(0.922, -0.388, 0.388, 0.922, 372.879, 5.638)" fill="#e15513"/>
      <path id="パス_363" data-name="パス 363" d="M375.38,12.55l-1.72-1.34-2.92,3.73-2.92-3.73-1.71,1.34,3.25,4.16-5.73,7.33,1.72,1.35,5.39-6.91,5.4,6.91,1.72-1.35-5.73-7.33Z" fill="#e15513"/>
      <path id="パス_364" data-name="パス 364" d="M340.74,15.09l5.84-3.38V9.46H331.29v2.18h11.05l-3.78,2.19V16H326.94v2.18h11.62v5.09h-5.07v2.18h7.25V18.18h10.9V16h-10.9Z" fill="#e15513"/>
      <path id="パス_369" data-name="パス 369" d="M237.987,60.4c-.223.61-.516,1.379-.833,2.148H248.93a22.017,22.017,0,0,0,2.869-.165v4.088c-1-.1-2.224-.1-2.869-.1h-3.937c-.552,7.114-3.133,12.111-8.291,15.4l-4-2.782a14.369,14.369,0,0,0,2.9-1.782c2.676-2.282,4.805-5.491,5.322-10.836h-5.645a30.843,30.843,0,0,1-4.453,5.8L227.05,69.89a21.781,21.781,0,0,0,4.905-5.7,15.505,15.505,0,0,0,1.807-4.271,13.9,13.9,0,0,0,.452-2.441l4.541.927C238.439,59.188,238.169,59.792,237.987,60.4Z" transform="translate(64.051 15.23)" fill="#4d4d4d"/>
      <path id="パス_370" data-name="パス 370" d="M301.224,72.522c0,2.436-.577,3.55-2.129,4.22s-3.976.767-7.456.767a16.758,16.758,0,0,0-1.687-4.183c2.363.134,5.2.1,5.94.1s1.08-.268,1.08-.968V67.584H282.526a18,18,0,0,1-5.7,10.016,15.622,15.622,0,0,0-3.105-2.844c5.093-4.323,5.566-10.717,5.566-15.831V47.91h21.938Zm-4.253-8.774V59.662H283.44c-.037,1.273-.1,2.679-.239,4.086ZM283.44,51.795v4.086h13.531V51.795Z" transform="translate(42.13 19.4)" fill="#4d4d4d"/>
      <path id="パス_371" data-name="パス 371" d="M335.877,59.356V77.07H331.67V47.4h13.651V59.356Zm0-9.11V52h5.49V50.246Zm5.49,6.292V54.653h-5.49v1.885ZM361.754,72.4c0,2.119-.46,3.281-1.886,3.908s-3.461.765-6.528.765a13.661,13.661,0,0,0-.927-3.083h-8.861v1.692h-3.825V61.373h1.744v-.03l11.979.03V73.1h3.17c.648,0,.856-.2.856-.729V59.422h-9.723V47.38h13.976Zm-12.316-8.147h-5.886v1.987h5.879Zm0,6.858V69.056h-5.886v2.053Zm2.353-20.863V52h5.665V50.246Zm5.665,6.358V54.653h-5.665V56.6Z" transform="translate(16.326 19.62)" fill="#4d4d4d"/>
      <path id="パス_385" data-name="パス 385" d="M-222.85-2.125A58.669,58.669,0,0,0-230.8-8.9a29.479,29.479,0,0,0,3.675-6.75,3.947,3.947,0,0,1,.9-1.475l-2.2-2.25a4.587,4.587,0,0,1-2,.275l-8.55.125c-.725.025-1.2.025-1.4.025A18.521,18.521,0,0,1-243-19.125l.125,4.45a29.691,29.691,0,0,1,3.975-.25l6.5-.1a20.112,20.112,0,0,1-5.025,7.35,23.576,23.576,0,0,1-8.1,5.05,13.1,13.1,0,0,1,2.8,3.95,27.115,27.115,0,0,0,9.2-6.85,40.194,40.194,0,0,1,7.175,7.1Zm9.175-19.125a16.036,16.036,0,0,1-1.45,3.5,21.559,21.559,0,0,1-6.225,7.175,12.2,12.2,0,0,1,3.6,2.825,26.284,26.284,0,0,0,5.7-6.775l6.925-.05A17.666,17.666,0,0,1-207.275-10a32.4,32.4,0,0,0-4.6-2.85L-214.5-9.7a26.876,26.876,0,0,1,4.65,3.1,20.47,20.47,0,0,1-8.475,5.125,13.968,13.968,0,0,1,2.925,3.75,29.1,29.1,0,0,0,4.3-2.3,23.956,23.956,0,0,0,6.075-5.65,32.122,32.122,0,0,0,4.65-9.65A2.283,2.283,0,0,1-199.8-16.4l-2.225-2.2a2.765,2.765,0,0,1-1.525.325l-6.725.075c.7-1.425,1.05-2.125,1.075-2.175ZM-196.1-7.125c1.525-.125,2.35-.15,5.15-.15h11.9a48.252,48.252,0,0,1,5.15.15V-11.95a41.019,41.019,0,0,1-5.125.225h-11.95a35.426,35.426,0,0,1-5.125-.225Zm34.45,8.6a36.657,36.657,0,0,1-.15-3.825v-6.5a6,6,0,0,0,1.125.5A46.341,46.341,0,0,1-152.8-4l2.375-4.25a53.026,53.026,0,0,0-11.375-5.2v-3.425a32.328,32.328,0,0,1,.125-3.65H-166.5a23.653,23.653,0,0,1,.175,3.625V-2.35a35.679,35.679,0,0,1-.15,3.825Zm34.475-21.125a4.188,4.188,0,0,1-2.15.275h-13.1a23.8,23.8,0,0,1-4.05-.225v4.375A33.351,33.351,0,0,1-142.5-15.4h11.925a9.464,9.464,0,0,1-4.2,4.25,3.238,3.238,0,0,0-.575.3c0-.25.025-.85.025-.875a13.412,13.412,0,0,1,.125-2.15h-4.7a6.791,6.791,0,0,1,.15,1.725c0,3.325-.425,5.1-1.625,6.65C-142.55-4-144.35-2.9-147.1-2.025a12.583,12.583,0,0,1,2.85,4.05A22.776,22.776,0,0,0-140.725.1a12.452,12.452,0,0,0,3.9-4.225,14.106,14.106,0,0,0,1.45-6.075,13.124,13.124,0,0,1,2.8,2.725A16.909,16.909,0,0,0-125.6-15.75a3.225,3.225,0,0,1,.775-1.3Zm6.5,5.675A31.891,31.891,0,0,1-118.45-7.5l3.9-1.175A31.5,31.5,0,0,0-116.975-15Zm5.55-1.075a29.415,29.415,0,0,1,2.25,6.275l3.825-1.175a25.58,25.58,0,0,0-2.425-6.1Zm8.575-.5a17.468,17.468,0,0,1-1.1,5.275c-1.55,4.15-4.275,6.65-9.3,8.6A12.751,12.751,0,0,1-114.2,1.85,33.848,33.848,0,0,0-111.175.175a18.171,18.171,0,0,0,5.25-5.075,22.559,22.559,0,0,0,3.125-8.15,10.056,10.056,0,0,1,.375-1.525Zm29.8-.25a2.8,2.8,0,0,0,2.8-2.825,2.806,2.806,0,0,0-2.825-2.825,2.774,2.774,0,0,0-2.8,2.7h-12.75a24.033,24.033,0,0,1-4.2-.2v4.5A36.54,36.54,0,0,1-92.4-14.6h10.45C-83.375-8.775-87.875-4.35-94.525-2.275a13.214,13.214,0,0,1,3.15,4.2c7.95-3.55,12.3-8.6,14.35-16.625l.15-.65c.025-.075.05-.15.075-.25l.025-.1Zm-.025-4.25a1.441,1.441,0,0,1,1.425,1.425,1.436,1.436,0,0,1-1.425,1.4,1.436,1.436,0,0,1-1.425-1.4A1.441,1.441,0,0,1-76.775-20.05ZM-56.5-.575V.9h4.7a37.738,37.738,0,0,1-.15-4.125v-13.05c0-1.25.025-1.675.075-2.55-.725.05-1.425.075-2.775.075H-66.125a26.174,26.174,0,0,1-4.375-.225v4.55c1.05-.1,2-.125,4.3-.125h9.7v9.775h-10a25.846,25.846,0,0,1-4.35-.2v4.55a35.2,35.2,0,0,1,4.275-.15Zm9.15-6.55c1.525-.125,2.35-.15,5.15-.15h11.9a48.252,48.252,0,0,1,5.15.15V-11.95a41.019,41.019,0,0,1-5.125.225h-11.95a35.426,35.426,0,0,1-5.125-.225Zm46.25,5A58.669,58.669,0,0,0-9.05-8.9a29.48,29.48,0,0,0,3.675-6.75,3.947,3.947,0,0,1,.9-1.475l-2.2-2.25a4.587,4.587,0,0,1-2,.275l-8.55.125c-.725.025-1.2.025-1.4.025a18.521,18.521,0,0,1-2.625-.175l.125,4.45a29.691,29.691,0,0,1,3.975-.25l6.5-.1a20.112,20.112,0,0,1-5.025,7.35,23.576,23.576,0,0,1-8.1,5.05,13.1,13.1,0,0,1,2.8,3.95,27.115,27.115,0,0,0,9.2-6.85A40.194,40.194,0,0,1-4.6,1.575Z" transform="translate(242.86 97.21)" fill="#4d4d4d"/>
      <path id="パス_386" data-name="パス 386" d="M-22.385.99a46.854,46.854,0,0,1-.44-7.2V-33.99a82.874,82.874,0,0,1,.44-9.075A40,40,0,0,1-28-42.79h-5.06a30.564,30.564,0,0,1-5.5-.33v6.985a48.914,48.914,0,0,1,5.665-.33h2.64v30.25a45.946,45.946,0,0,1-.44,7.2Z" transform="translate(295.31 95.71)" fill="#4d4d4d"/>
    </g>
  </g>
</svg>
