<svg xmlns="http://www.w3.org/2000/svg" width="1081.477" height="145.406" viewBox="0 0 1081.477 145.406">
  <g id="グループ_3" data-name="グループ 3" transform="translate(-417.623 -1392.654)">
    <path id="パス_11" data-name="パス 11" d="M56.481-45.56q-.4.6-1.206,1.977t-1.34,2.513q-1.34,3.149-3.384,7.035T45.929-26.23A70.772,70.772,0,0,1,40.4-18.894a95.456,95.456,0,0,1-8.308,8.476A98.369,98.369,0,0,1,22.512-2.78,67.994,67.994,0,0,1,12.328,3.149L4.623-4.824a58.5,58.5,0,0,0,10.553-5.192,84.843,84.843,0,0,0,9.481-6.8,66.458,66.458,0,0,0,7.37-7.035,47.527,47.527,0,0,0,4.188-5.259A59.353,59.353,0,0,0,39.6-34.639,27.688,27.688,0,0,0,41.741-39.6H19.966q-1.407,0-3.015.1t-3.015.2q-1.407.1-2.211.167V-49.647q1.072.134,2.647.234t3.116.167q1.541.067,2.479.067H42.947a33.6,33.6,0,0,0,4.422-.268,19.67,19.67,0,0,0,3.082-.6ZM41.272-24.991q2.613,2.01,5.528,4.757t5.829,5.728q2.915,2.981,5.394,5.729t4.087,4.69L53.6,3.283a79.319,79.319,0,0,0-5.561-7.2q-3.149-3.651-6.633-7.3T34.3-18.09Zm69.814-16.281a3.957,3.957,0,0,0,1.173,2.915,3.957,3.957,0,0,0,2.915,1.172,3.877,3.877,0,0,0,2.847-1.172,3.957,3.957,0,0,0,1.173-2.915,3.877,3.877,0,0,0-1.173-2.847,3.877,3.877,0,0,0-2.847-1.173,3.957,3.957,0,0,0-2.915,1.173A3.877,3.877,0,0,0,111.086-41.272Zm-4.757,0a8.744,8.744,0,0,1,1.172-4.489,8.7,8.7,0,0,1,3.183-3.182,8.744,8.744,0,0,1,4.489-1.173,8.744,8.744,0,0,1,4.489,1.173,8.7,8.7,0,0,1,3.182,3.182,8.744,8.744,0,0,1,1.173,4.489,8.744,8.744,0,0,1-1.173,4.489,8.7,8.7,0,0,1-3.182,3.182,8.744,8.744,0,0,1-4.489,1.173,8.744,8.744,0,0,1-4.489-1.173,8.7,8.7,0,0,1-3.183-3.182A8.744,8.744,0,0,1,106.329-41.272ZM64.32-19.5q1.541-1.273,2.848-2.479t2.914-2.814q1.139-1.139,2.579-2.814t3.149-3.685q1.708-2.01,3.484-4.187t3.517-4.254q3.082-3.685,6.365-4.054t7.3,3.451q2.412,2.144,4.757,4.556t4.623,4.79q2.278,2.379,4.288,4.59,2.278,2.412,5.126,5.46t5.863,6.265q3.015,3.216,5.561,5.963L118.523.134q-2.211-2.814-4.69-5.863t-4.857-6q-2.379-2.948-4.321-5.159-1.474-1.809-3.216-3.785t-3.451-3.886q-1.708-1.91-3.149-3.451t-2.244-2.412a4.1,4.1,0,0,0-2.781-1.474A3.844,3.844,0,0,0,87.3-30.083q-.938,1.206-2.177,2.915t-2.58,3.584q-1.34,1.876-2.613,3.651t-2.278,3.116q-1.139,1.675-2.312,3.417t-2.11,3.149Zm85.827-33.969q1.675.871,3.785,2.144t4.255,2.646q2.144,1.374,4.12,2.613t3.316,2.178l-5.494,8.174q-1.474-.938-3.417-2.211t-4.053-2.613q-2.11-1.34-4.154-2.579t-3.718-2.178ZM137.082-6.03q3.752-.67,7.638-1.641a74.642,74.642,0,0,0,7.705-2.378,56.322,56.322,0,0,0,7.5-3.417,73.438,73.438,0,0,0,10.72-7.269,73.059,73.059,0,0,0,8.945-8.643,52.6,52.6,0,0,0,6.6-9.413l5.7,10.117a69.518,69.518,0,0,1-11.624,13.233A89.607,89.607,0,0,1,165.021-4.489a78.576,78.576,0,0,1-7.5,3.585Q153.43.8,149.477,2.01a64.264,64.264,0,0,1-6.834,1.742Zm2.68-32.093q1.742.871,3.853,2.144t4.255,2.613q2.144,1.34,4.087,2.58t3.283,2.178L149.812-20.3q-1.474-1.005-3.417-2.278t-4.053-2.646q-2.11-1.373-4.154-2.613T134.4-29.949Zm83.683-4.891q.2,1.273.5,2.613t.57,2.68q.6,2.211,1.474,5.326t1.876,6.767q1,3.651,2.043,7.37t1.977,7.1q.938,3.384,1.675,6t1.206,4.087q.2.6.536,1.709t.7,2.245q.368,1.139.637,1.809l-10.05,2.479q-.2-1.407-.5-3.049A25.409,25.409,0,0,0,225.321,1q-.469-1.474-1.173-4.255t-1.641-6.264q-.938-3.484-1.91-7.269t-1.943-7.4q-.971-3.618-1.775-6.633t-1.407-4.891a19.06,19.06,0,0,0-.871-2.546q-.536-1.273-1.139-2.412Zm32.16,10.72q-1.072,2.144-2.747,5.025t-3.719,5.9q-2.044,3.015-4.053,5.729t-3.752,4.657l-8.174-4.087a49.508,49.508,0,0,0,3.484-3.585q1.876-2.11,3.518-4.255a26.566,26.566,0,0,0,2.445-3.685q-.8.134-2.814.536t-4.79,1q-2.781.6-6.064,1.273t-6.6,1.373q-3.316.7-6.365,1.34t-5.36,1.139q-2.312.5-3.518.771l-2.278-8.777q1.675-.134,3.149-.335t3.216-.469l2.781-.5q2.044-.368,4.857-.9t6.03-1.139q3.216-.6,6.5-1.206t6.231-1.206q2.948-.6,5.159-1.038t3.283-.637a16.4,16.4,0,0,0,1.91-.536q.971-.335,1.641-.6ZM317.58-52.327q-.067,1.407-.134,3.149t-.067,3.819v13.936a64.4,64.4,0,0,1-.569,9.146,40.409,40.409,0,0,1-1.575,6.934,23.766,23.766,0,0,1-2.512,5.36,30.689,30.689,0,0,1-3.384,4.355,27.406,27.406,0,0,1-5.092,4.321,42.068,42.068,0,0,1-5.829,3.25,52.079,52.079,0,0,1-5.427,2.144l-7.772-8.241a39.935,39.935,0,0,0,9.146-3.115,25.258,25.258,0,0,0,7.068-5.193,19.669,19.669,0,0,0,2.747-3.719,16.863,16.863,0,0,0,1.642-4.187,32.08,32.08,0,0,0,.8-5.125q.235-2.847.234-6.6V-45.359q0-2.077-.134-3.819t-.335-3.149Zm-31.021.6q-.067,1.206-.167,2.345t-.1,2.814v22.713q0,1.273.1,3.015t.167,3.015H275.772q.134-.938.234-2.747t.1-3.35V-46.565q0-.871-.067-2.412t-.2-2.747ZM386.791-45.56q-.4.6-1.206,1.977t-1.34,2.513q-1.34,3.149-3.383,7.035t-4.623,7.806a70.772,70.772,0,0,1-5.527,7.336,95.46,95.46,0,0,1-8.308,8.476,98.367,98.367,0,0,1-9.581,7.638,67.994,67.994,0,0,1-10.184,5.929l-7.705-7.973a58.5,58.5,0,0,0,10.553-5.192,84.845,84.845,0,0,0,9.48-6.8,66.46,66.46,0,0,0,7.37-7.035,47.524,47.524,0,0,0,4.188-5.259,59.358,59.358,0,0,0,3.383-5.528,27.689,27.689,0,0,0,2.144-4.958H350.276q-1.407,0-3.015.1t-3.015.2q-1.407.1-2.211.167V-49.647q1.072.134,2.646.234t3.116.167q1.541.067,2.479.067h22.981a33.6,33.6,0,0,0,4.422-.268,19.67,19.67,0,0,0,3.082-.6ZM371.582-24.991q2.613,2.01,5.527,4.757t5.829,5.728q2.914,2.981,5.393,5.729t4.087,4.69l-8.509,7.37a79.319,79.319,0,0,0-5.561-7.2q-3.149-3.651-6.633-7.3t-7.1-6.868Zm46.3,18.425V-44.957q0-1.876-.168-4.221a28.743,28.743,0,0,0-.569-4.154h11.591q-.2,1.809-.436,3.986a40.955,40.955,0,0,0-.234,4.389V-33.3q0,3.886.034,7.973t.034,7.872V-6.566q0,.938.067,2.68t.268,3.651q.2,1.91.335,3.383H417.142q.335-2.01.536-4.824T417.879-6.566Zm8.04-29.48q3.35.871,7.5,2.244t8.442,2.914q4.288,1.541,8.007,3.049t6.064,2.646l-4.221,10.318q-2.814-1.474-6.2-2.948T438.682-20.7q-3.45-1.407-6.733-2.58t-6.03-2.111Zm48.575-11.993q1.943.2,4.389.335t4.188.134h33.969q1.541,0,3.451-.067t2.646-.134q-.067,1.206-.134,3.049t-.067,3.451V-6.566q0,1.742.1,4.154t.234,4.154H512.55q.067-1.742.1-3.517t.034-3.652V-37.989H483.07q-2.211,0-4.656.067t-3.92.2Zm-.8,36.18q1.809.134,4.053.268t4.522.134H518.58v9.782H482.6q-1.943,0-4.556.134t-4.355.335Zm63.583-19.765q1.273.067,3.283.2t4.121.2q2.11.067,3.785.067H584.24q2.345,0,4.489-.2t3.551-.268V-19.9q-1.206-.067-3.585-.235T584.24-20.3H548.462q-2.881,0-6.03.134t-5.159.268ZM651.441-45.56q-.4.6-1.206,1.977t-1.34,2.513q-1.34,3.149-3.383,7.035t-4.623,7.806a70.772,70.772,0,0,1-5.528,7.336,95.464,95.464,0,0,1-8.308,8.476,98.374,98.374,0,0,1-9.581,7.638,68,68,0,0,1-10.184,5.929l-7.705-7.973a58.5,58.5,0,0,0,10.552-5.192,84.837,84.837,0,0,0,9.481-6.8,66.46,66.46,0,0,0,7.37-7.035,47.528,47.528,0,0,0,4.188-5.259,59.351,59.351,0,0,0,3.383-5.528A27.692,27.692,0,0,0,636.7-39.6H614.926q-1.407,0-3.015.1t-3.015.2q-1.407.1-2.211.167V-49.647q1.072.134,2.647.234t3.115.167q1.541.067,2.479.067h22.981a33.6,33.6,0,0,0,4.422-.268,19.671,19.671,0,0,0,3.082-.6ZM636.232-24.991q2.613,2.01,5.528,4.757t5.829,5.728q2.915,2.981,5.393,5.729t4.087,4.69l-8.509,7.37A79.318,79.318,0,0,0,643-3.919q-3.149-3.651-6.633-7.3t-7.1-6.868Z" transform="translate(413 1520)" fill="#4d4d4d"/>
    <path id="パス_2" data-name="パス 2" d="M51.434,4.061a46.34,46.34,0,0,1-28.327-9.33Q10.538-14.6,8.7-32.484H36.158A16.588,16.588,0,0,0,41.379-22.43q4.254,3.867,11.312,3.867,13.632,0,19.143-15.082,3-8.314,3.771-24.267a29.8,29.8,0,0,1-8.024,7.251Q59.845-46.02,48.533-46.02A43.313,43.313,0,0,1,18.853-57.573Q5.9-69.126,5.9-90.879q0-22.526,13-36.5t33.79-13.97q32,0,43.893,28.327,6.768,16.049,6.768,42.249,0,25.427-6.478,42.442Q84.5,4.061,51.434,4.061ZM41.766-114.372q-7.928,6.188-7.928,20.979,0,12.472,5.076,18.708t15.614,6.236a19.265,19.265,0,0,0,10.731-3.287q9.378-5.994,9.378-20.786,0-11.892-5.559-18.853t-15.227-6.961A18.922,18.922,0,0,0,41.766-114.372Z" transform="translate(1088 1534)" fill="#4d4d4d"/>
    <path id="パス_10" data-name="パス 10" d="M46.7-59.9q-.7,1.8-1.3,3.25T44.3-53.9q-.9,2.3-2.25,5.35t-2.7,6Q38-39.6,36.9-37.7a74.887,74.887,0,0,1-4.5,6.95q-2.7,3.75-5.45,7.1A40.122,40.122,0,0,1,21.8-18.3L9-25.8a61.325,61.325,0,0,0,6-5.35,67.587,67.587,0,0,0,5.1-5.8q2.3-2.95,4.1-5.65a48.723,48.723,0,0,0,3.35-6.55A60.683,60.683,0,0,0,29.8-55.5a29.7,29.7,0,0,0,.95-3.95q.35-2.05.55-3.65ZM33.5-48.1h44q1.7,0,4.4-.1a29.9,29.9,0,0,0,4.7-.5v13.5a47.715,47.715,0,0,0-5-.35q-2.6-.05-4.1-.05H32.7Zm32.8,7.5a83.68,83.68,0,0,1-3.25,21.2A52.93,52.93,0,0,1,54.6-2.5,50.358,50.358,0,0,1,40.2,10.2l-13.6-9q2.1-1,4.75-2.5a35.906,35.906,0,0,0,4.55-3,46.084,46.084,0,0,0,6.35-6.4,42.685,42.685,0,0,0,5.05-7.9,45.839,45.839,0,0,0,3.5-9.8,59.834,59.834,0,0,0,1.5-12.2Zm61.1-40.1h49.4v13H127.4Zm.1,23.9h49.8v12.6H127.5Zm-.4,23.5h49.4v12.9H127.1Zm-8.9-47.4h13.6v33.8q0,6.5-.7,14.05a95.784,95.784,0,0,1-2.7,15.25,60.107,60.107,0,0,1-5.95,14.65A43.564,43.564,0,0,1,112.2,9.2q-1-1.3-2.85-3.25a44.733,44.733,0,0,0-3.9-3.65A29.926,29.926,0,0,0,101.9-.3a40.8,40.8,0,0,0,8.9-10.5,45.858,45.858,0,0,0,4.85-11.9,76.368,76.368,0,0,0,2.05-12.4q.5-6.2.5-11.9Zm52.3,0h14.1V-7.2a21.418,21.418,0,0,1-1.5,8.9A9.734,9.734,0,0,1,178,6.5a28.513,28.513,0,0,1-9.3,2.15q-5.5.45-13.3.45a23.072,23.072,0,0,0-1.25-4.55Q153.2,2,152.1-.6a28.312,28.312,0,0,0-2.2-4.3q3.4.2,7,.3t6.45.1h4.05a3.853,3.853,0,0,0,2.4-.75,2.825,2.825,0,0,0,.7-2.15Zm66.2,56.4h26.5v9.4H236.7ZM235.9-39h33.6V-.1H235.9V-9.7h21.2V-29.4H235.9Zm-5.4,0h11.9V5H230.5ZM214.2-67.7h24.3v8.8H214.2Zm46.5,0h24.4v8.8H260.7Zm19-13.8h13.4V-6.2a23.087,23.087,0,0,1-1.2,8.25,9.081,9.081,0,0,1-4.4,4.75,21.469,21.469,0,0,1-7.75,2q-4.55.4-11.05.4a26,26,0,0,0-.9-4.35q-.7-2.45-1.6-4.95a32.954,32.954,0,0,0-1.8-4.2q2.5.2,5.1.25t4.75.05h3.05a2.707,2.707,0,0,0,1.9-.5,2.527,2.527,0,0,0,.5-1.8Zm-64.4,0h31.5v36.8H215.3v-9.4h19.1V-72H215.3Zm71.5,0V-72H265.5v18.2h21.3v9.4H252.9V-81.5Zm-79.2,0h13.2V9.2H207.6Z" transform="translate(1206 1524)" fill="#4d4d4d"/>
  </g>
</svg>
