<svg xmlns="http://www.w3.org/2000/svg" width="1081.086" height="145.213" viewBox="0 0 1081.086 145.213">
  <g id="グループ_2" data-name="グループ 2" transform="translate(-419.014 -1606.461)">
    <path id="パス_13" data-name="パス 13" d="M49.786-45.756a3.341,3.341,0,0,0,1.023,2.449,3.341,3.341,0,0,0,2.449,1.023,3.24,3.24,0,0,0,2.418-1.023,3.394,3.394,0,0,0,.992-2.449,3.29,3.29,0,0,0-.992-2.418,3.29,3.29,0,0,0-2.418-.992,3.394,3.394,0,0,0-2.449.992A3.24,3.24,0,0,0,49.786-45.756Zm-4.092,0a7.154,7.154,0,0,1,1.023-3.751,8.1,8.1,0,0,1,2.728-2.759,7.105,7.105,0,0,1,3.813-1.054,7,7,0,0,1,3.751,1.054,8.383,8.383,0,0,1,2.759,2.759,7,7,0,0,1,1.054,3.751,7.105,7.105,0,0,1-1.054,3.813,8.1,8.1,0,0,1-2.759,2.728,7.154,7.154,0,0,1-3.751,1.023,7.268,7.268,0,0,1-3.813-1.023,7.836,7.836,0,0,1-2.728-2.728A7.268,7.268,0,0,1,45.694-45.756Zm8.122,5.146a14.843,14.843,0,0,0-.806,2.263q-.372,1.333-.682,2.325Q51.77-33.79,50.995-31T49.1-25.172a56.987,56.987,0,0,1-2.635,6.045,38.74,38.74,0,0,1-3.5,5.673A47.766,47.766,0,0,1,36.425-6.51a49.658,49.658,0,0,1-8.37,5.89,55.757,55.757,0,0,1-10.137,4.4L10.416-4.4A49.573,49.573,0,0,0,21.173-8.029a38.918,38.918,0,0,0,7.812-4.96,40.773,40.773,0,0,0,5.8-5.859A27.866,27.866,0,0,0,38.223-24.3a45.624,45.624,0,0,0,2.325-5.828,34.459,34.459,0,0,0,1.3-5.456H13.764q-2.232,0-4.371.093t-3.379.217v-9.734q.992.124,2.387.248t2.883.217q1.488.093,2.48.093H41.788q.992,0,2.449-.093a17.837,17.837,0,0,0,2.821-.4ZM69.5-44.392q1.86.062,3.689.093t3.131.031h37.2q1.674,0,3.472-.062-.062,1.426-.093,3.131t-.031,3.193V-7.688q0,.93.031,2.418t.031,2.945q0,1.457.031,2.48t.031,1.085h-9.486q0-.062.031-1.55t.093-3.5q.062-2.015.062-3.875V-35.526H78.8v30.6q0,1.519.031,2.883T78.864.248V1.24H69.44q0-.062.031-.992t.062-2.387q.031-1.457.031-2.945V-41.23Q69.564-43.028,69.5-44.392Zm41.54,33.542v8.742H74.09V-10.85Zm68.572-30.442a14.843,14.843,0,0,0-.806,2.263q-.372,1.333-.682,2.387-.558,2.232-1.333,5.022t-1.891,5.8a58.435,58.435,0,0,1-2.635,6.014,38.74,38.74,0,0,1-3.5,5.673,46.108,46.108,0,0,1-6.541,7.006,49.1,49.1,0,0,1-8.4,5.89,57.384,57.384,0,0,1-10.106,4.4l-7.5-8.246a50.769,50.769,0,0,0,10.757-3.6,37.172,37.172,0,0,0,7.812-4.96,44.041,44.041,0,0,0,5.8-5.828,30.961,30.961,0,0,0,3.41-5.456,40.268,40.268,0,0,0,2.325-5.828,42.48,42.48,0,0,0,1.333-5.518H139.562q-2.232,0-4.371.093t-3.379.217v-9.672q.992.124,2.387.248t2.883.186q1.488.062,2.48.062h28.024q.992,0,2.449-.062a12.747,12.747,0,0,0,2.821-.434Zm18.476,7.254a23.185,23.185,0,0,0,2.511.279q1.457.093,2.573.093h28.334q1.116,0,2.449-.093t2.511-.279v8.556q-1.178-.124-2.542-.155t-2.418-.031H203.174q-1.116,0-2.573.031t-2.511.155Zm14.2,32.178V-29.388h9.052V-1.86Zm-17.36-5.084q1.178.186,2.6.279t2.666.093h34.224q1.364,0,2.6-.124t2.232-.248V1.984q-.992-.124-2.511-.186t-2.325-.062H200.2q-1.178,0-2.6.062t-2.666.186Zm72.354-42.532q1.55.806,3.5,1.984t3.937,2.449q1.984,1.271,3.813,2.418T281.6-40.61l-5.084,7.564q-1.364-.868-3.162-2.046t-3.751-2.418q-1.953-1.24-3.844-2.387t-3.441-2.015Zm-12.09,43.9q3.472-.62,7.068-1.519a69.075,69.075,0,0,0,7.13-2.2,52.119,52.119,0,0,0,6.944-3.162,67.955,67.955,0,0,0,9.92-6.727,67.6,67.6,0,0,0,8.277-8,48.676,48.676,0,0,0,6.107-8.711l5.27,9.362a64.331,64.331,0,0,1-10.757,12.245A82.919,82.919,0,0,1,281.046-4.154,72.713,72.713,0,0,1,274.1-.837q-3.782,1.581-7.44,2.7a59.469,59.469,0,0,1-6.324,1.612Zm2.48-29.7q1.612.806,3.565,1.984t3.937,2.418q1.984,1.24,3.782,2.387t3.038,2.015l-5.022,7.688q-1.364-.93-3.162-2.108t-3.751-2.449q-1.953-1.271-3.844-2.418t-3.5-1.953Zm65.348,0q.868.062,2.294.124t2.976.093q1.55.031,2.79.031h23.312q1.116,0,2.666-.031t2.356-.093q-.062.682-.062,2.077V.5q0,.744.031,2.17t.031,2.294H350.8q.062-.806.062-2.387V-27.28H331.08q-1.24,0-2.821.031t-3.007.093q-1.426.062-2.232.062Zm1.674,14.446q1.3.062,3.317.124t3.813.062h23v7.812H327.949q-2.077,0-3.255.124ZM322.4-5.7q.744.062,2.232.155t3.162.093h27.094v8H327.794q-1.3,0-2.976.062t-2.418.062Zm77.562-36.084q0-1.612-.217-3.782a23.8,23.8,0,0,0-.651-3.782h10.85a29.388,29.388,0,0,0-.434,3.875q-.124,2.263-.124,3.751V-29.7a60.573,60.573,0,0,1-.744,9.641,34.38,34.38,0,0,1-2.666,8.835,29.791,29.791,0,0,1-5.425,7.967,42.792,42.792,0,0,1-8.959,7.1L383.036-2.48a33.632,33.632,0,0,0,8.339-5.27,23.78,23.78,0,0,0,5.146-6.417,26.277,26.277,0,0,0,2.666-7.409,41.648,41.648,0,0,0,.775-8.122v-12.09ZM377.208-35.9q1.55.186,3.441.341t3.813.155h38.192q2.294,0,4.216-.155t2.976-.279v9.424q-1.054-.124-3.162-.217t-4.092-.093H384.648q-2.046,0-3.937.124t-3.5.248ZM464.814-1.426a13.864,13.864,0,0,0,.372-2.2q.124-1.271.124-2.635V-42.1a26.336,26.336,0,0,0-.248-3.875q-.248-1.643-.248-1.705h10.168q0,.062-.217,1.736a30.78,30.78,0,0,0-.217,3.906V-10.6a27.022,27.022,0,0,0,5.053-2.883,39.442,39.442,0,0,0,5.022-4.278,42.594,42.594,0,0,0,4.5-5.3l5.208,7.564a48.73,48.73,0,0,1-6.107,6.479,74.209,74.209,0,0,1-7.5,5.921,69.309,69.309,0,0,1-7.347,4.464,17.59,17.59,0,0,0-1.7,1.116q-.651.5-1.147.806ZM435.984-2.48a24.847,24.847,0,0,0,6.727-6.913,31.807,31.807,0,0,0,3.751-7.843,23.758,23.758,0,0,0,1.054-4.9q.372-2.976.558-6.386t.217-6.82q.031-3.41.031-6.262a26.838,26.838,0,0,0-.186-3.41,20.871,20.871,0,0,0-.5-2.6h10.106q0,.062-.124.961t-.248,2.232q-.124,1.333-.124,2.7,0,2.852-.062,6.479t-.248,7.409q-.186,3.782-.527,7.161a37.854,37.854,0,0,1-.961,5.735A36.675,36.675,0,0,1,451.2-5.053,36.921,36.921,0,0,1,444.354,3.1Zm68.2-41.974q1.8.186,4.061.31t3.875.124h31.434q1.426,0,3.193-.062t2.449-.124q-.062,1.116-.124,2.821t-.062,3.193V-6.076q0,1.612.093,3.844t.217,3.844H539.4q.062-1.612.093-3.255t.031-3.379V-35.154h-27.4q-2.046,0-4.309.062t-3.627.186Zm-.744,33.48q1.674.124,3.751.248t4.185.124h33.6V-1.55H511.686q-1.8,0-4.216.124t-4.03.31Zm58.838-18.29q1.178.062,3.038.186t3.813.186q1.953.062,3.5.062H605.74q2.17,0,4.154-.186t3.286-.248v10.85q-1.116-.062-3.317-.217t-4.123-.155H572.632q-2.666,0-5.58.124t-4.774.248Zm105.648-12.9q-.372.558-1.116,1.829t-1.24,2.325q-1.24,2.914-3.131,6.51t-4.278,7.223a65.487,65.487,0,0,1-5.115,6.789,88.328,88.328,0,0,1-7.688,7.843,91.024,91.024,0,0,1-8.866,7.068,62.917,62.917,0,0,1-9.424,5.487l-7.13-7.378A54.134,54.134,0,0,0,629.7-9.269a78.51,78.51,0,0,0,8.773-6.293,61.494,61.494,0,0,0,6.82-6.51,43.978,43.978,0,0,0,3.875-4.867,54.923,54.923,0,0,0,3.131-5.115,25.623,25.623,0,0,0,1.984-4.588h-20.15q-1.3,0-2.79.093t-2.79.186q-1.3.093-2.046.155v-9.734q.992.124,2.449.217t2.883.155q1.426.062,2.294.062H655.4a31.092,31.092,0,0,0,4.092-.248,18.2,18.2,0,0,0,2.852-.558ZM653.852-23.126q2.418,1.86,5.115,4.4t5.394,5.3q2.7,2.759,4.991,5.3t3.782,4.34l-7.874,6.82a73.391,73.391,0,0,0-5.146-6.665q-2.914-3.379-6.138-6.758T647.4-16.74Z" transform="translate(413 1732)" fill="#4d4d4d"/>
    <path id="パス_1" data-name="パス 1" d="M60.521-90.976q18.659,0,30.6,12.665t11.94,32.388a54.669,54.669,0,0,1-11.7,34.611Q79.664,3.674,55.011,3.674q-26.49,0-39.059-22.14Q6.188-35.771,6.188-63.132a203.113,203.113,0,0,1,1.354-26.1q2.417-17.886,9.378-29.777a47.982,47.982,0,0,1,15.71-16.339q9.716-6.187,23.251-6.187,19.529,0,31.131,10.006T100.063-104.9H72.606A14.054,14.054,0,0,0,70-112.342q-4.447-6.574-13.438-6.574-13.438,0-19.143,15.082-3.094,8.314-4.254,24.557a30.925,30.925,0,0,1,11.892-8.895A40.126,40.126,0,0,1,60.521-90.976Zm-18.562,26.3q-8.121,6.284-8.121,20.3,0,11.312,6.091,18.466A19.43,19.43,0,0,0,55.4-18.756q9.185,0,14.454-6.913T75.12-43.6q0-12.278-5.994-18.8a19.185,19.185,0,0,0-14.7-6.526A19.622,19.622,0,0,0,41.959-64.679Z" transform="translate(1097 1748)" fill="#4d4d4d"/>
    <path id="パス_12" data-name="パス 12" d="M46.7-59.9q-.7,1.8-1.3,3.25T44.3-53.9q-.9,2.3-2.25,5.35t-2.7,6Q38-39.6,36.9-37.7a74.887,74.887,0,0,1-4.5,6.95q-2.7,3.75-5.45,7.1A40.122,40.122,0,0,1,21.8-18.3L9-25.8a61.325,61.325,0,0,0,6-5.35,67.587,67.587,0,0,0,5.1-5.8q2.3-2.95,4.1-5.65a48.723,48.723,0,0,0,3.35-6.55A60.683,60.683,0,0,0,29.8-55.5a29.7,29.7,0,0,0,.95-3.95q.35-2.05.55-3.65ZM33.5-48.1h44q1.7,0,4.4-.1a29.9,29.9,0,0,0,4.7-.5v13.5a47.715,47.715,0,0,0-5-.35q-2.6-.05-4.1-.05H32.7Zm32.8,7.5a83.68,83.68,0,0,1-3.25,21.2A52.93,52.93,0,0,1,54.6-2.5,50.358,50.358,0,0,1,40.2,10.2l-13.6-9q2.1-1,4.75-2.5a35.906,35.906,0,0,0,4.55-3,46.084,46.084,0,0,0,6.35-6.4,42.685,42.685,0,0,0,5.05-7.9,45.839,45.839,0,0,0,3.5-9.8,59.834,59.834,0,0,0,1.5-12.2Zm61.1-40.1h49.4v13H127.4Zm.1,23.9h49.8v12.6H127.5Zm-.4,23.5h49.4v12.9H127.1Zm-8.9-47.4h13.6v33.8q0,6.5-.7,14.05a95.784,95.784,0,0,1-2.7,15.25,60.107,60.107,0,0,1-5.95,14.65A43.564,43.564,0,0,1,112.2,9.2q-1-1.3-2.85-3.25a44.733,44.733,0,0,0-3.9-3.65A29.926,29.926,0,0,0,101.9-.3a40.8,40.8,0,0,0,8.9-10.5,45.858,45.858,0,0,0,4.85-11.9,76.368,76.368,0,0,0,2.05-12.4q.5-6.2.5-11.9Zm52.3,0h14.1V-7.2a21.418,21.418,0,0,1-1.5,8.9A9.734,9.734,0,0,1,178,6.5a28.513,28.513,0,0,1-9.3,2.15q-5.5.45-13.3.45a23.072,23.072,0,0,0-1.25-4.55Q153.2,2,152.1-.6a28.312,28.312,0,0,0-2.2-4.3q3.4.2,7,.3t6.45.1h4.05a3.853,3.853,0,0,0,2.4-.75,2.825,2.825,0,0,0,.7-2.15Zm66.2,56.4h26.5v9.4H236.7ZM235.9-39h33.6V-.1H235.9V-9.7h21.2V-29.4H235.9Zm-5.4,0h11.9V5H230.5ZM214.2-67.7h24.3v8.8H214.2Zm46.5,0h24.4v8.8H260.7Zm19-13.8h13.4V-6.2a23.087,23.087,0,0,1-1.2,8.25,9.081,9.081,0,0,1-4.4,4.75,21.469,21.469,0,0,1-7.75,2q-4.55.4-11.05.4a26,26,0,0,0-.9-4.35q-.7-2.45-1.6-4.95a32.954,32.954,0,0,0-1.8-4.2q2.5.2,5.1.25t4.75.05h3.05a2.707,2.707,0,0,0,1.9-.5,2.527,2.527,0,0,0,.5-1.8Zm-64.4,0h31.5v36.8H215.3v-9.4h19.1V-72H215.3Zm71.5,0V-72H265.5v18.2h21.3v9.4H252.9V-81.5Zm-79.2,0h13.2V9.2H207.6Z" transform="translate(1207 1738)" fill="#4d4d4d"/>
  </g>
</svg>
