<svg xmlns="http://www.w3.org/2000/svg" width="1029.276" height="144.343" viewBox="0 0 1029.276 144.343">
  <g id="グループ_4" data-name="グループ 4" transform="translate(-423.824 -1866.138)">
    <path id="パス_15" data-name="パス 15" d="M9.179-47.369q1.34.2,3.216.335t3.35.134H52.126q1.541,0,3.25-.134t3.183-.335v10.184q-1.541-.134-3.25-.234t-3.183-.1H15.745q-1.474,0-3.35.1t-3.216.234ZM28.14-5.561V-41.674H38.458V-5.561Zm-23.316-6.1q1.608.2,3.384.368t3.383.168H55.744a28.994,28.994,0,0,0,3.518-.2q1.642-.2,2.914-.335V-1q-1.407-.134-3.317-.2t-3.115-.067H11.591q-1.541,0-3.316.067T4.824-1ZM90.919-47.972q-.335-1.474-.7-2.747T89.445-53.2l10.519-1.675q.134,1.005.3,2.546t.368,2.814q.2,1.072.636,3.618t1.139,6.131q.7,3.585,1.507,7.739t1.608,8.408q.8,4.254,1.541,8.107t1.34,6.834q.6,2.982.938,4.59.335,1.474.771,3.249t.9,3.451L100.366,4.422q-.268-1.876-.4-3.651a22.263,22.263,0,0,0-.469-3.25q-.268-1.407-.771-4.254t-1.206-6.6q-.7-3.752-1.507-7.939L94.4-29.647q-.8-4.188-1.507-7.873t-1.24-6.432Q91.12-46.7,90.919-47.972ZM72.762-39.731q1.675-.134,3.249-.235t3.183-.3q1.407-.2,4.087-.569t6.131-.871q3.45-.5,7.169-1.072t7.2-1.139q3.484-.569,6.231-1.039t4.221-.8q1.675-.268,3.518-.7t3.182-.771l1.809,9.715q-1.206.067-3.116.335t-3.517.469q-1.742.268-4.69.737t-6.5,1.039q-3.551.569-7.236,1.172t-7.035,1.139l-5.863.938q-2.512.4-3.718.6-1.608.335-3.049.67t-3.249.8Zm.134,19.7Q74.3-20.1,76.413-20.3t3.719-.469q1.809-.268,4.824-.737t6.8-1.072l7.772-1.24q3.986-.637,7.772-1.273t6.935-1.206q3.149-.569,5.025-.9,1.943-.335,3.819-.8t3.283-.8l1.943,9.715a30.014,30.014,0,0,0-3.417.4q-2.01.335-3.886.67l-5.36.837q-3.216.5-7.035,1.139T100.8-14.774q-3.986.637-7.705,1.273t-6.633,1.139q-2.915.5-4.59.837-2.211.4-3.987.7a26.144,26.144,0,0,0-2.914.637ZM188.471-45.56q-.4.6-1.206,1.977t-1.34,2.513q-1.34,3.149-3.383,7.035t-4.623,7.806a70.772,70.772,0,0,1-5.527,7.336,95.455,95.455,0,0,1-8.308,8.476A98.369,98.369,0,0,1,154.5-2.78a67.993,67.993,0,0,1-10.184,5.929l-7.705-7.973a58.5,58.5,0,0,0,10.553-5.192,84.844,84.844,0,0,0,9.48-6.8,66.458,66.458,0,0,0,7.37-7.035,47.528,47.528,0,0,0,4.188-5.259,59.355,59.355,0,0,0,3.383-5.528,27.688,27.688,0,0,0,2.144-4.958H151.956q-1.407,0-3.015.1t-3.015.2q-1.407.1-2.211.167V-49.647q1.072.134,2.646.234t3.115.167q1.541.067,2.479.067h22.981a33.6,33.6,0,0,0,4.422-.268,19.671,19.671,0,0,0,3.082-.6ZM173.262-24.991q2.613,2.01,5.527,4.757t5.829,5.728q2.915,2.981,5.394,5.729t4.087,4.69l-8.509,7.37a79.319,79.319,0,0,0-5.561-7.2q-3.149-3.651-6.633-7.3t-7.1-6.868Zm79.8-23.651A3.668,3.668,0,0,0,254.131-46a3.5,3.5,0,0,0,2.613,1.106A3.5,3.5,0,0,0,259.357-46a3.668,3.668,0,0,0,1.072-2.646,3.556,3.556,0,0,0-1.072-2.613,3.556,3.556,0,0,0-2.613-1.072,3.556,3.556,0,0,0-2.613,1.072A3.556,3.556,0,0,0,253.059-48.642Zm-4.489,0a7.559,7.559,0,0,1,1.139-4.053,9.059,9.059,0,0,1,2.981-2.981,7.559,7.559,0,0,1,4.054-1.139,7.73,7.73,0,0,1,4.087,1.139,8.659,8.659,0,0,1,2.982,2.981,7.731,7.731,0,0,1,1.105,4.053,7.854,7.854,0,0,1-1.105,4.121,8.38,8.38,0,0,1-2.982,2.948,7.907,7.907,0,0,1-4.087,1.106,7.731,7.731,0,0,1-4.054-1.106,8.756,8.756,0,0,1-2.981-2.948A7.678,7.678,0,0,1,248.57-48.642Zm-37.185,27.6q1.139-2.881,2.144-6t1.842-6.4q.838-3.283,1.441-6.633t.871-6.633l10.787,2.278q-.2,1-.6,2.412T227.2-39.3q-.268,1.306-.4,2.11-.335,1.809-.938,4.288T224.484-27.7q-.77,2.714-1.608,5.427t-1.708,4.992q-1.139,3.283-2.781,6.834t-3.484,6.8Q213.06-.4,211.318,2.077L200.933-2.345a70.956,70.956,0,0,0,5.93-9.145A80.245,80.245,0,0,0,211.385-21.038Zm33.1-1.072q-.938-2.68-2.177-5.728t-2.579-6.131q-1.34-3.082-2.613-5.8t-2.345-4.59l9.849-3.216q1.072,1.943,2.412,4.757t2.714,5.93q1.373,3.115,2.646,6.13t2.211,5.36q.8,2.211,1.876,5.193t2.144,6.231q1.072,3.25,2.044,6.4t1.641,5.7L251.25,1.675q-.871-4.087-1.943-8.174t-2.278-8.04Q245.823-18.492,244.483-22.11Zm27.47-9.514q1.273.067,3.283.2t4.12.2q2.111.067,3.786.067H318.92q2.345,0,4.489-.2t3.551-.268V-19.9q-1.206-.067-3.585-.235T318.92-20.3H283.142q-2.881,0-6.03.134t-5.159.268ZM353.559-6.566V-44.957q0-1.876-.168-4.221a28.743,28.743,0,0,0-.569-4.154h11.591q-.2,1.809-.436,3.986a40.955,40.955,0,0,0-.234,4.389V-33.3q0,3.886.034,7.973t.034,7.872V-6.566q0,.938.067,2.68t.268,3.651q.2,1.91.335,3.383H352.822q.335-2.01.536-4.824T353.559-6.566Zm8.04-29.48q3.35.871,7.5,2.244t8.442,2.914q4.288,1.541,8.007,3.049t6.064,2.646l-4.221,10.318q-2.814-1.474-6.2-2.948T374.362-20.7q-3.45-1.407-6.733-2.58t-6.03-2.111Zm48.575-11.993q1.943.2,4.389.335t4.188.134h33.969q1.541,0,3.451-.067t2.646-.134q-.067,1.206-.134,3.049t-.067,3.451V-6.566q0,1.742.1,4.154t.234,4.154H448.23q.067-1.742.1-3.517t.033-3.652V-37.989H418.75q-2.211,0-4.656.067t-3.92.2Zm-.8,36.18q1.809.134,4.053.268t4.522.134H454.26v9.782H418.281q-1.943,0-4.556.134t-4.355.335Zm63.583-19.765q1.273.067,3.283.2t4.12.2q2.111.067,3.786.067H519.92q2.345,0,4.489-.2t3.551-.268V-19.9q-1.206-.067-3.584-.235T519.92-20.3H484.142q-2.881,0-6.03.134t-5.159.268ZM587.121-45.56q-.4.6-1.206,1.977t-1.34,2.513q-1.34,3.149-3.383,7.035t-4.623,7.806a70.772,70.772,0,0,1-5.528,7.336,95.464,95.464,0,0,1-8.308,8.476,98.374,98.374,0,0,1-9.581,7.638,68,68,0,0,1-10.184,5.929l-7.705-7.973a58.5,58.5,0,0,0,10.552-5.192,84.837,84.837,0,0,0,9.481-6.8,66.46,66.46,0,0,0,7.37-7.035,47.528,47.528,0,0,0,4.188-5.259,59.351,59.351,0,0,0,3.383-5.528,27.692,27.692,0,0,0,2.144-4.958H550.606q-1.407,0-3.015.1t-3.015.2q-1.407.1-2.211.167V-49.647q1.072.134,2.647.234t3.115.167q1.541.067,2.479.067h22.981a33.6,33.6,0,0,0,4.422-.268,19.669,19.669,0,0,0,3.082-.6ZM571.912-24.991q2.613,2.01,5.528,4.757t5.829,5.728q2.914,2.981,5.393,5.729t4.087,4.69l-8.509,7.37a79.318,79.318,0,0,0-5.561-7.2q-3.149-3.651-6.633-7.3t-7.1-6.868Z" transform="translate(419 1993)" fill="#4d4d4d"/>
    <path id="パス_14" data-name="パス 14" d="M37.9-112.245q-4.641,6.188-4.447,16.532H7.734a69.148,69.148,0,0,1,3.577-19.819,44.611,44.611,0,0,1,10.635-15.179A37.05,37.05,0,0,1,34.8-138.252a55.646,55.646,0,0,1,18.272-2.61q20.109,0,32.436,10.393T97.84-102.577q0,12.375-7.348,20.883a25.091,25.091,0,0,1-9.668,7.251q3.771,0,10.828,6.478Q102.19-58.2,102.19-41.282A44.943,44.943,0,0,1,89.864-10.006Q77.537,3.48,53.367,3.48q-29.777,0-41.379-19.433Q5.9-26.3,5.221-43.022h27.07q0,8.411,2.707,13.922,5.027,10.151,18.272,10.151a20.248,20.248,0,0,0,14.164-5.559q6.042-5.559,6.042-16,0-13.825-11.215-18.466-6.381-2.61-20.109-2.61V-81.308q13.438-.193,18.756-2.61,9.185-4.061,9.185-16.436,0-8.024-4.689-13.052t-13.2-5.027Q42.442-118.433,37.9-112.245Z" transform="translate(1042 2007)" fill="#4d4d4d"/>
    <path id="パス_16" data-name="パス 16" d="M46.7-59.9q-.7,1.8-1.3,3.25T44.3-53.9q-.9,2.3-2.25,5.35t-2.7,6Q38-39.6,36.9-37.7a74.887,74.887,0,0,1-4.5,6.95q-2.7,3.75-5.45,7.1A40.122,40.122,0,0,1,21.8-18.3L9-25.8a61.325,61.325,0,0,0,6-5.35,67.587,67.587,0,0,0,5.1-5.8q2.3-2.95,4.1-5.65a48.723,48.723,0,0,0,3.35-6.55A60.683,60.683,0,0,0,29.8-55.5a29.7,29.7,0,0,0,.95-3.95q.35-2.05.55-3.65ZM33.5-48.1h44q1.7,0,4.4-.1a29.9,29.9,0,0,0,4.7-.5v13.5a47.715,47.715,0,0,0-5-.35q-2.6-.05-4.1-.05H32.7Zm32.8,7.5a83.68,83.68,0,0,1-3.25,21.2A52.93,52.93,0,0,1,54.6-2.5,50.358,50.358,0,0,1,40.2,10.2l-13.6-9q2.1-1,4.75-2.5a35.906,35.906,0,0,0,4.55-3,46.084,46.084,0,0,0,6.35-6.4,42.685,42.685,0,0,0,5.05-7.9,45.839,45.839,0,0,0,3.5-9.8,59.834,59.834,0,0,0,1.5-12.2Zm61.1-40.1h49.4v13H127.4Zm.1,23.9h49.8v12.6H127.5Zm-.4,23.5h49.4v12.9H127.1Zm-8.9-47.4h13.6v33.8q0,6.5-.7,14.05a95.784,95.784,0,0,1-2.7,15.25,60.107,60.107,0,0,1-5.95,14.65A43.564,43.564,0,0,1,112.2,9.2q-1-1.3-2.85-3.25a44.733,44.733,0,0,0-3.9-3.65A29.926,29.926,0,0,0,101.9-.3a40.8,40.8,0,0,0,8.9-10.5,45.858,45.858,0,0,0,4.85-11.9,76.368,76.368,0,0,0,2.05-12.4q.5-6.2.5-11.9Zm52.3,0h14.1V-7.2a21.418,21.418,0,0,1-1.5,8.9A9.734,9.734,0,0,1,178,6.5a28.513,28.513,0,0,1-9.3,2.15q-5.5.45-13.3.45a23.072,23.072,0,0,0-1.25-4.55Q153.2,2,152.1-.6a28.312,28.312,0,0,0-2.2-4.3q3.4.2,7,.3t6.45.1h4.05a3.853,3.853,0,0,0,2.4-.75,2.825,2.825,0,0,0,.7-2.15Zm66.2,56.4h26.5v9.4H236.7ZM235.9-39h33.6V-.1H235.9V-9.7h21.2V-29.4H235.9Zm-5.4,0h11.9V5H230.5ZM214.2-67.7h24.3v8.8H214.2Zm46.5,0h24.4v8.8H260.7Zm19-13.8h13.4V-6.2a23.087,23.087,0,0,1-1.2,8.25,9.081,9.081,0,0,1-4.4,4.75,21.469,21.469,0,0,1-7.75,2q-4.55.4-11.05.4a26,26,0,0,0-.9-4.35q-.7-2.45-1.6-4.95a32.954,32.954,0,0,0-1.8-4.2q2.5.2,5.1.25t4.75.05h3.05a2.707,2.707,0,0,0,1.9-.5,2.527,2.527,0,0,0,.5-1.8Zm-64.4,0h31.5v36.8H215.3v-9.4h19.1V-72H215.3Zm71.5,0V-72H265.5v18.2h21.3v9.4H252.9V-81.5Zm-79.2,0h13.2V9.2H207.6Z" transform="translate(1160 1997)" fill="#4d4d4d"/>
  </g>
</svg>
