<svg xmlns="http://www.w3.org/2000/svg" width="545.869" height="151.7" viewBox="0 0 545.869 151.7">
  <g id="レイヤー_2" data-name="レイヤー 2" transform="translate(2 -4)">
    <g id="design" transform="translate(-2 4)">
      <path id="パス_330" data-name="パス 330" d="M41.4,17.82v5.8H0v-5.8Z" fill="#4d4d4d"/>
      <path id="パス_331" data-name="パス 331" d="M61,24c-1.62.49-3.33.94-5,1.44V36.31c0,2.66-.5,4-1.94,4.82s-3.51,1-6.52,1a21.11,21.11,0,0,0-1.49-5c1.71.09,3.51.09,4,.09s.86-.22.86-.9V26.86L46.65,28,45.3,22.9c1.62-.36,3.51-.81,5.63-1.3v-8H45.84v-5h5.09V.18h5v8.5h4.54v5H56v6.66c1.48-.31,3-.72,4.36-1.12Zm15.75-5.45v6.3h9V42H80.27V40.59H67.89v1.62H62.72V24.88h8.82v-6.3H61.32v-5H71.54V7.29c-2.75.36-5.54.63-8.1.81A20,20,0,0,0,62,3.69c7.25-.63,15.35-1.8,20.43-3.37l3.42,4.32a79.449,79.449,0,0,1-9.18,2v6.93H87.65v5Zm3.56,11.16H67.89v6H80.27Z" fill="#4d4d4d"/>
      <path id="パス_332" data-name="パス 332" d="M106.2,32.08a58,58,0,0,0-3.2-5.85V42H98V26.14a46.28,46.28,0,0,1-5.17,11.07,31.59,31.59,0,0,0-2.43-5.53A40.161,40.161,0,0,0,96.35,20H91.22V15H98V.32h5V15h6.66v5H103v.32c1.31,1.3,5.58,6.34,6.53,7.6Zm-13-17.86a44.3,44.3,0,0,0-2-10.4l3.74-1A44.87,44.87,0,0,1,97.2,13.14ZM110.43,3.6c-1.17,3.6-2.47,7.87-3.6,10.48l-3.37-.94a83,83,0,0,0,2.47-10.53ZM127.89,30V42.12h-5V30.87L110.3,33.12l-.81-5,13.36-2.38V.09h5V24.84l4.59-.86.81,5ZM112.5,13.63a37.8,37.8,0,0,1,7.56,5.18l-2.7,4.27A37.9,37.9,0,0,0,110,17.46ZM119,12a36.609,36.609,0,0,0-7-5.85l2.57-3.6A33.79,33.79,0,0,1,121.77,8Z" fill="#4d4d4d"/>
      <path id="パス_333" data-name="パス 333" d="M169.23,29.16c-1.71,2.47-3.47,5.22-5,7.11H174.4v4.59H136.29V36.27h8.77A30.911,30.911,0,0,0,141.33,29l4.09-1.75h-6.88V22.68h13.68V18.22h-8.28V16a56.868,56.868,0,0,1-6.71,4.18,20.93,20.93,0,0,0-3.33-4.32C141.55,12.15,148.75,5.4,152.08,0h5.54a46,46,0,0,0,19.21,15.34,25,25,0,0,0-3.55,4.82,56.93,56.93,0,0,1-6.84-4.28v2.34h-8.6v4.46H171.7v4.59H157.84v9h4.91l-2.93-1.22a46.359,46.359,0,0,0,4.28-7.78Zm-23.54-1.89a30.08,30.08,0,0,1,4.14,7.42l-3.69,1.58h6.08v-9Zm17.69-13.73a48,48,0,0,1-8.28-8.32,47.151,47.151,0,0,1-8,8.32Z" fill="#4d4d4d"/>
      <path id="パス_337" data-name="パス 337" d="M208.24,122.7l-16.2,29h-11.2l10-29Z" fill="#e25504"/>
      <path id="パス_341" data-name="パス 341" d="M455.92,127.64c0,3.33-.67,5.09-2.74,6.17s-4.86,1.21-8.87,1.21A23,23,0,0,0,442,128.5c2.34.18,5.31.13,6.17.13s1.17-.27,1.17-1.08v-9.27H423.75V135h-6.57V95h38.74ZM423.75,111.8h9.18V101.5h-9.18Zm25.56,0V101.5h-9.86v10.3Z" fill="#4d4d4d"/>
      <path id="パス_342" data-name="パス 342" d="M471.52,115.33a23.62,23.62,0,0,1,3.7-12.78l1.8.78a24.41,24.41,0,0,0,0,24l-1.8.8a23.6,23.6,0,0,1-3.7-12.8Z" fill="#4d4d4d"/>
      <path id="パス_343" data-name="パス 343" d="M493.1,117.67a31.423,31.423,0,0,0-2-2.89v10.29h-2.2V115a25.068,25.068,0,0,1-3.2,5.82,12.9,12.9,0,0,0-1.13-2.15,25.34,25.34,0,0,0,4-7.32h-3.55v-2.2h3.85v-3.4c-1.15.25-2.3.42-3.38.57a7.418,7.418,0,0,0-.67-1.8,36.61,36.61,0,0,0,7.8-2l1.59,1.78a29.948,29.948,0,0,1-3.09,1v3.88h2.92v2.2h-2.92v1.15a44.666,44.666,0,0,1,3.29,3.37Zm12.29,5c.45,0,.55-.38.6-3a6.62,6.62,0,0,0,2,.9c-.17,3.35-.75,4.23-2.35,4.23h-1.92c-1.93,0-2.38-.7-2.38-2.85v-6.5h-1.8c-.37,4.2-1.52,7.75-5.89,9.7a6.569,6.569,0,0,0-1.4-1.8c3.82-1.6,4.67-4.5,5-7.9H495v-8.3h2.2a19.44,19.44,0,0,0-2.08-4.12l1.93-.83a18,18,0,0,1,2.27,4.2l-1.65.75h6.28l-1.85-.72a22.063,22.063,0,0,0,2.17-4.28l2.38.8a46.682,46.682,0,0,1-2.55,4.2h2.52v8.3h-3v6.47c0,.7.08.78.5.78Zm-8.22-9.3h7.1v-4.22h-7.1Z" fill="#4d4d4d"/>
      <path id="パス_344" data-name="パス 344" d="M516,119.77c1.1,1.73,3.15,2.53,5.9,2.63s8.32,0,11.44-.18a10.549,10.549,0,0,0-.77,2.38c-2.82.12-7.85.17-10.7.05-3.17-.13-5.32-1-6.9-2.88-1.17,1-2.37,2-3.67,3.1l-1.2-2.4a37.563,37.563,0,0,0,3.62-2.57V114h-3.2v-2.15H516Zm-1.15-11.67a18.819,18.819,0,0,0-4.18-3.95l1.73-1.4a19.739,19.739,0,0,1,4.27,3.83Zm10.92-4.77c.5,7.37,2.25,13.3,7.3,15.87a10.168,10.168,0,0,0-1.83,1.77c-3.29-2-5.22-5.17-6.34-9.22a17.13,17.13,0,0,1-6.25,9.22,16.2,16.2,0,0,0-1.83-1.75c3.55-2.2,5.58-6,6.5-10.94l.85.12c-.15-.92-.25-1.9-.35-2.87h-4.45v-2.2Z" fill="#4d4d4d"/>
      <path id="パス_345" data-name="パス 345" d="M540.34,127.32a24.41,24.41,0,0,0,0-24l1.8-.78a23.78,23.78,0,0,1,0,25.57Z" fill="#4d4d4d"/>
      <path id="パス_379" data-name="パス 379" d="M-187.288-15.252a30.479,30.479,0,0,0,1.394,4.346A22.2,22.2,0,0,0-177.448-.328c4.346,2.87,11.726,4.592,19.106,4.592,6.15,0,12.792-1.23,17.056-3.2a20.542,20.542,0,0,0,7.708-6.15A18.292,18.292,0,0,0-130.3-15.99a16.149,16.149,0,0,0-5.412-12.136c-2.87-2.46-5.576-3.608-10.578-4.346,9.43-2.214,14.1-7.626,14.1-16.318a15.885,15.885,0,0,0-4.592-11.644c-4.674-4.51-12.054-6.97-20.992-6.97-10,0-17.548,2.788-22.55,8.2-2.624,2.87-3.936,5.33-5.494,10.414l17.712,2.542c1.23-5.248,4.182-7.544,10-7.544,5.412,0,8.528,2.542,8.528,6.97,0,5.248-3.854,7.872-11.644,7.872a72.034,72.034,0,0,1-8.692-.492v14.1c3.2-.328,6.888-.492,10.086-.492a23.605,23.605,0,0,1,7.626,1.066c2.788,1.066,4.428,3.69,4.428,7.052,0,5-4.018,8.2-10.414,8.2-3.936,0-7.216-1.23-9.43-3.526-1.312-1.394-1.8-2.542-2.3-5.248Zm63.386,0a30.477,30.477,0,0,0,1.394,4.346A22.2,22.2,0,0,0-114.062-.328c4.346,2.87,11.726,4.592,19.106,4.592,6.15,0,12.792-1.23,17.056-3.2a20.542,20.542,0,0,0,7.708-6.15,18.292,18.292,0,0,0,3.28-10.906,16.149,16.149,0,0,0-5.412-12.136c-2.87-2.46-5.576-3.608-10.578-4.346,9.43-2.214,14.1-7.626,14.1-16.318A15.885,15.885,0,0,0-73.39-60.434c-4.674-4.51-12.054-6.97-20.992-6.97-10,0-17.548,2.788-22.55,8.2-2.624,2.87-3.936,5.33-5.494,10.414l17.712,2.542c1.23-5.248,4.182-7.544,10-7.544,5.412,0,8.528,2.542,8.528,6.97,0,5.248-3.854,7.872-11.644,7.872a72.034,72.034,0,0,1-8.692-.492v14.1c3.2-.328,6.888-.492,10.086-.492a23.605,23.605,0,0,1,7.626,1.066c2.788,1.066,4.428,3.69,4.428,7.052,0,5-4.018,8.2-10.414,8.2-3.936,0-7.216-1.23-9.43-3.526-1.312-1.394-1.8-2.542-2.3-5.248Zm92.168,19.27C-21.32,4.018-12.71-.574-7.79-8.774c3.116-5.166,5.166-14.186,5.166-22.8a54.543,54.543,0,0,0-3.2-18.86,25.823,25.823,0,0,0-5.986-9.1c-5-4.92-11.972-7.626-19.926-7.626-10.332,0-18.86,4.592-23.862,12.956-3.116,5.166-5.166,14.1-5.166,22.714a54.412,54.412,0,0,0,3.2,18.778,25.823,25.823,0,0,0,5.986,9.1C-46.576,1.394-39.77,4.018-31.734,4.018Zm0-57.318c7.954,0,12.218,7.38,12.218,21.4,0,14.6-4.1,21.976-12.136,21.976-8.118,0-12.3-7.544-12.3-22.222C-43.952-45.51-39.442-53.3-31.734-53.3Z" transform="translate(189.619 138.14)" fill="#e25504"/>
      <path id="パス_380" data-name="パス 380" d="M-158.506,4.018c10.414,0,19.024-4.592,23.944-12.792,3.116-5.166,5.166-14.186,5.166-22.8a54.544,54.544,0,0,0-3.2-18.86,25.823,25.823,0,0,0-5.986-9.1c-5-4.92-11.972-7.626-19.926-7.626-10.332,0-18.86,4.592-23.862,12.956-3.116,5.166-5.166,14.1-5.166,22.714a54.412,54.412,0,0,0,3.2,18.778,25.823,25.823,0,0,0,5.986,9.1C-173.348,1.394-166.542,4.018-158.506,4.018Zm0-57.318c7.954,0,12.218,7.38,12.218,21.4,0,14.6-4.1,21.976-12.136,21.976-8.118,0-12.3-7.544-12.3-22.222C-170.724-45.51-166.214-53.3-158.506-53.3ZM-95.12,4.018c10.414,0,19.024-4.592,23.944-12.792,3.116-5.166,5.166-14.186,5.166-22.8a54.543,54.543,0,0,0-3.2-18.86,25.823,25.823,0,0,0-5.986-9.1c-5-4.92-11.972-7.626-19.926-7.626-10.332,0-18.86,4.592-23.862,12.956-3.116,5.166-5.166,14.1-5.166,22.714a54.412,54.412,0,0,0,3.2,18.778,25.823,25.823,0,0,0,5.986,9.1C-109.962,1.394-103.156,4.018-95.12,4.018Zm0-57.318c7.954,0,12.218,7.38,12.218,21.4,0,14.6-4.1,21.976-12.136,21.976-8.118,0-12.3-7.544-12.3-22.222C-107.338-45.51-102.828-53.3-95.12-53.3ZM-31.734,4.018C-21.32,4.018-12.71-.574-7.79-8.774c3.116-5.166,5.166-14.186,5.166-22.8a54.543,54.543,0,0,0-3.2-18.86,25.823,25.823,0,0,0-5.986-9.1c-5-4.92-11.972-7.626-19.926-7.626-10.332,0-18.86,4.592-23.862,12.956-3.116,5.166-5.166,14.1-5.166,22.714a54.412,54.412,0,0,0,3.2,18.778,25.823,25.823,0,0,0,5.986,9.1C-46.576,1.394-39.77,4.018-31.734,4.018Zm0-57.318c7.954,0,12.218,7.38,12.218,21.4,0,14.6-4.1,21.976-12.136,21.976-8.118,0-12.3-7.544-12.3-22.222C-43.952-45.51-39.442-53.3-31.734-53.3Z" transform="translate(398.619 138.14)" fill="#e25504"/>
    </g>
  </g>
</svg>
