<svg xmlns="http://www.w3.org/2000/svg" width="766.631" height="82.996" viewBox="0 0 766.631 82.996">
  <g id="レイヤー_2" data-name="レイヤー 2" transform="translate(0 -2.904)">
    <g id="design">
      <path id="パス_314" data-name="パス 314" d="M41.4,44.52v5.81H0V44.52Z" fill="#4d4d4d"/>
      <path id="パス_315" data-name="パス 315" d="M61,50.73c-1.62.5-3.33,1-5,1.44V63c0,2.65-.5,4-1.94,4.81s-3.51,1-6.52,1a21,21,0,0,0-1.49-5c1.71.09,3.51.09,4,.09a.782.782,0,0,0,.86-.9V53.57l-4.28,1.12L45.3,49.61c1.62-.36,3.51-.81,5.63-1.31v-8H45.84v-5h5.09V26.88h5v8.51h4.54v5H56V47c1.48-.32,3-.72,4.36-1.13Zm15.75-5.44v6.3h9V68.73H80.27V67.29H67.89v1.62H62.72V51.59h8.82v-6.3H61.32v-5H71.54V34c-2.75.36-5.54.63-8.1.81A20.15,20.15,0,0,0,62,30.39c7.25-.63,15.35-1.8,20.43-3.37l3.42,4.32a77.34,77.34,0,0,1-9.18,2v6.93H87.65v5Zm3.56,11.16H67.89v6H80.27Z" fill="#4d4d4d"/>
      <path id="パス_316" data-name="パス 316" d="M106.2,58.79a58,58,0,0,0-3.2-5.85V68.73H98V52.85a46.47,46.47,0,0,1-5.17,11.07,32,32,0,0,0-2.43-5.54c2.25-2.74,4.54-7.56,5.94-11.65H91.22v-5H98V27h5V41.73h6.66v5H103V47c1.31,1.31,5.58,6.35,6.53,7.61Zm-13-17.87a44.229,44.229,0,0,0-2-10.39l3.74-1a44.79,44.79,0,0,1,2.29,10.3ZM110.43,30.3c-1.17,3.6-2.47,7.88-3.6,10.49l-3.37-.95a82.64,82.64,0,0,0,2.47-10.53Zm17.46,26.37V68.82h-5V57.57L110.3,59.82l-.81-5,13.36-2.39V26.79h5V51.54l4.59-.85.81,5ZM112.5,40.34a37.37,37.37,0,0,1,7.56,5.17l-2.7,4.28A37.911,37.911,0,0,0,110,44.16Zm6.5-1.62a35.89,35.89,0,0,0-7-5.85l2.57-3.6a33.77,33.77,0,0,1,7.15,5.44Z" fill="#4d4d4d"/>
      <path id="パス_317" data-name="パス 317" d="M169.23,55.86c-1.71,2.48-3.47,5.22-5,7.11H174.4v4.59H136.29V63h8.77a30.86,30.86,0,0,0-3.73-7.24L145.42,54h-6.88V49.38h13.68V44.93h-8.28V42.72a58.289,58.289,0,0,1-6.71,4.19,20.67,20.67,0,0,0-3.33-4.32c7.65-3.74,14.85-10.49,18.18-15.89h5.54a45.94,45.94,0,0,0,19.21,15.35,25.23,25.23,0,0,0-3.55,4.81,56.819,56.819,0,0,1-6.84-4.27v2.34h-8.6v4.45H171.7V54H157.84v9h4.91l-2.93-1.21A46.451,46.451,0,0,0,164.1,54ZM145.69,54a30.31,30.31,0,0,1,4.14,7.43L146.14,63h6.08V54Zm17.69-13.72a48,48,0,0,1-8.28-8.33,47.181,47.181,0,0,1-8,8.33Z" fill="#4d4d4d"/>
      <path id="パス_321" data-name="パス 321" d="M410.56,56.9l-16.2,29h-11.2l10-29Z" fill="#e25504"/>
      <path id="パス_325" data-name="パス 325" d="M659.29,61.85c0,3.33-.68,5.08-2.75,6.16s-4.86,1.22-8.86,1.22a23.32,23.32,0,0,0-2.34-6.53c2.34.18,5.31.14,6.16.14s1.17-.27,1.17-1.08V52.49H627.11V69.18h-6.57v-40h38.75ZM627.11,46h9.18V35.7h-9.18Zm25.56,0V35.7h-9.85V46Z" fill="#4d4d4d"/>
      <path id="パス_326" data-name="パス 326" d="M676.15,49.86a28.271,28.271,0,0,1,4.44-15.33l2.16.93A28.17,28.17,0,0,0,679,49.86a28,28,0,0,0,3.78,14.4l-2.16,1a28.3,28.3,0,0,1-4.47-15.4Z" fill="#4d4d4d"/>
      <path id="パス_327" data-name="パス 327" d="M702.68,52.68a37.267,37.267,0,0,0-2.34-3.48V61.56h-2.7V49.44a29.581,29.581,0,0,1-3.84,7,15,15,0,0,0-1.35-2.58,30.582,30.582,0,0,0,4.83-8.79H693V42.42h4.62V38.34c-1.38.3-2.76.51-4,.69a8.6,8.6,0,0,0-.81-2.16,44.1,44.1,0,0,0,9.36-2.4l1.92,2.13a36.616,36.616,0,0,1-3.72,1.17v4.65h3.51v2.64h-3.51v1.38a55.087,55.087,0,0,1,4,4.05Zm14.76,6c.54,0,.66-.45.72-3.63a7.939,7.939,0,0,0,2.4,1.08c-.21,4-.9,5.07-2.82,5.07h-2.31c-2.31,0-2.85-.84-2.85-3.42V50h-2.16c-.45,5-1.83,9.3-7.08,11.64a7.77,7.77,0,0,0-1.68-2.16c4.59-1.92,5.61-5.4,6-9.48H704.9V40h2.64a23.178,23.178,0,0,0-2.49-4.95l2.31-1a21.539,21.539,0,0,1,2.73,5l-2,.9h7.53l-2.22-.87a26.622,26.622,0,0,0,2.61-5.13l2.85,1a54.156,54.156,0,0,1-3.06,5h3V50h-3.6v7.77c0,.84.09.93.6.93Zm-9.87-11.16h8.52V42.48h-8.52Z" fill="#4d4d4d"/>
      <path id="パス_328" data-name="パス 328" d="M730.11,55.2c1.32,2.07,3.78,3,7.08,3.15s10,0,13.74-.21A12.716,12.716,0,0,0,750,61c-3.39.15-9.42.21-12.84.06-3.81-.15-6.39-1.14-8.28-3.45-1.41,1.23-2.85,2.43-4.41,3.72L723,58.44a45.22,45.22,0,0,0,4.35-3.09V48.3h-3.84V45.72h6.57Zm-1.38-14a22.541,22.541,0,0,0-5-4.74l2.07-1.68a23.56,23.56,0,0,1,5.13,4.59Zm13.11-5.73c.6,8.85,2.7,16,8.76,19a12.211,12.211,0,0,0-2.19,2.13c-4-2.34-6.27-6.21-7.62-11.07a20.758,20.758,0,0,1-7.5,11.07,18.388,18.388,0,0,0-2.19-2.1c4.26-2.64,6.69-7.2,7.8-13.14l1,.15c-.18-1.11-.3-2.28-.42-3.45h-5.34v-2.6Z" fill="#4d4d4d"/>
      <path id="パス_329" data-name="パス 329" d="M760,64.26a28,28,0,0,0,3.78-14.4A28.17,28.17,0,0,0,760,35.46l2.16-.93a28.57,28.57,0,0,1,0,30.69Z" fill="#4d4d4d"/>
    </g>
    <path id="パス_373" data-name="パス 373" d="M-178.432-51.086a86.727,86.727,0,0,1,10-.574h3.28V-9.84A94.1,94.1,0,0,1-165.8,2.542h17.876a94.909,94.909,0,0,1-.656-12.382V-52.808a127.306,127.306,0,0,1,.574-13.2,81.339,81.339,0,0,1-10.168.328h-10.414a53.445,53.445,0,0,1-9.84-.574Zm83.312,55.1c10.414,0,19.024-4.592,23.944-12.792,3.116-5.166,5.166-14.186,5.166-22.8a54.543,54.543,0,0,0-3.2-18.86,25.823,25.823,0,0,0-5.986-9.1c-5-4.92-11.972-7.626-19.926-7.626-10.332,0-18.86,4.592-23.862,12.956-3.116,5.166-5.166,14.1-5.166,22.714a54.412,54.412,0,0,0,3.2,18.778,25.823,25.823,0,0,0,5.986,9.1C-109.962,1.394-103.156,4.018-95.12,4.018Zm0-57.318c7.954,0,12.218,7.38,12.218,21.4,0,14.6-4.1,21.976-12.136,21.976-8.118,0-12.3-7.544-12.3-22.222C-107.338-45.51-102.828-53.3-95.12-53.3ZM-4.838-66.01c-3.362.246-5.658.328-13.2.328H-45.756a114.027,114.027,0,0,1-13.284-.574v15.5a98.351,98.351,0,0,1,12.382-.574h23.37c-6.806,9.43-9.922,14.6-13.448,21.976-4.838,10.168-7.462,18.778-9.84,31.9h18.942c2.05-16.072,5-25.912,11.562-38.458,4.018-7.79,6.314-11.07,11.234-16.482Z" transform="translate(383 70.39)" fill="#e25504"/>
    <path id="パス_372" data-name="パス 372" d="M-144.074-33.374c7.79-2.706,11.562-7.708,11.562-15.5,0-11.4-10.086-18.614-25.994-18.614-10,0-18.122,3.034-22.468,8.364a16.977,16.977,0,0,0-3.362,10.742,15.124,15.124,0,0,0,3.936,10.5c1.968,2.214,3.854,3.2,7.954,4.51a18.511,18.511,0,0,0-8.61,3.772,16.234,16.234,0,0,0-6.314,13.448,17.554,17.554,0,0,0,5,12.874c4.92,4.838,13.366,7.544,23.78,7.544,10.25,0,18.614-2.542,23.616-7.3a17.614,17.614,0,0,0,5.412-13.12c0-4.756-1.066-8.2-3.608-11.234C-135.874-30.832-138.908-32.472-144.074-33.374Zm-14.35-21.156c5.9,0,9.594,2.788,9.594,7.216,0,4.592-3.608,7.38-9.512,7.38-5.986,0-9.758-2.87-9.758-7.38C-168.1-51.742-164.328-54.53-158.424-54.53Zm.082,28.126c7.38,0,11.808,3.2,11.808,8.692S-150.88-9.02-158.506-9.02c-7.462,0-11.972-3.2-11.972-8.528C-170.478-23.042-165.886-26.4-158.342-26.4ZM-95.12,4.018c10.414,0,19.024-4.592,23.944-12.792,3.116-5.166,5.166-14.186,5.166-22.8a54.543,54.543,0,0,0-3.2-18.86,25.823,25.823,0,0,0-5.986-9.1c-5-4.92-11.972-7.626-19.926-7.626-10.332,0-18.86,4.592-23.862,12.956-3.116,5.166-5.166,14.1-5.166,22.714a54.412,54.412,0,0,0,3.2,18.778,25.823,25.823,0,0,0,5.986,9.1C-109.962,1.394-103.156,4.018-95.12,4.018Zm0-57.318c7.954,0,12.218,7.38,12.218,21.4,0,14.6-4.1,21.976-12.136,21.976-8.118,0-12.3-7.544-12.3-22.222C-107.338-45.51-102.828-53.3-95.12-53.3ZM-31.734,4.018C-21.32,4.018-12.71-.574-7.79-8.774c3.116-5.166,5.166-14.186,5.166-22.8a54.543,54.543,0,0,0-3.2-18.86,25.823,25.823,0,0,0-5.986-9.1c-5-4.92-11.972-7.626-19.926-7.626-10.332,0-18.86,4.592-23.862,12.956-3.116,5.166-5.166,14.1-5.166,22.714a54.412,54.412,0,0,0,3.2,18.778,25.823,25.823,0,0,0,5.986,9.1C-46.576,1.394-39.77,4.018-31.734,4.018Zm0-57.318c7.954,0,12.218,7.38,12.218,21.4,0,14.6-4.1,21.976-12.136,21.976-8.118,0-12.3-7.544-12.3-22.222C-43.952-45.51-39.442-53.3-31.734-53.3Z" transform="translate(604 70.39)" fill="#e25504"/>
  </g>
</svg>
