<svg xmlns="http://www.w3.org/2000/svg" width="1190.979" height="133.314" viewBox="0 0 1190.979 133.314">
  <g id="グループ_1" data-name="グループ 1" transform="translate(-355.738 -1032.686)">
    <path id="パス_7" data-name="パス 7" d="M2.738-34.188H71.484v10.73H2.738ZM137.122-62.826l6.142,7.918a116.348,116.348,0,0,1-11.655,2.553q-6.327,1.073-12.876,1.776t-12.617,1.147a30.293,30.293,0,0,0-1.036-4.107A36.1,36.1,0,0,0,103.6-57.5q4.44-.37,9.028-.888t8.991-1.184q4.4-.666,8.362-1.517T137.122-62.826ZM102.342-41h43.734v9.25H102.342Zm2.294,19.018h38.48V6.512H133.2V-13.1H114.108V6.808h-9.472Zm5.92,17.39h26.566v8.88H110.556Zm8.436-50.468h9.472v37.518h-9.472ZM75.776-25.9q3.256-.74,7.363-1.665T91.8-29.637q4.551-1.147,8.991-2.331l1.11,9.1q-6.068,1.628-12.321,3.293T78.144-16.5Zm.888-23.31h24.494v9.1H76.664ZM84.73-63.048h9.25V-3.626a16.994,16.994,0,0,1-.7,5.513A5.7,5.7,0,0,1,90.65,4.958a11.379,11.379,0,0,1-4.625,1.517,53.907,53.907,0,0,1-6.475.333,27.213,27.213,0,0,0-1-4.625,30.319,30.319,0,0,0-1.665-4.477q2,.074,3.922.074H83.4a1.694,1.694,0,0,0,1.036-.37,1.575,1.575,0,0,0,.3-1.11Zm76.886.37h9.1V6.66h-9.1Zm-10.952,24.2H181.3V-29.3H150.664ZM159.84-33.6l5.328,2.664q-.888,3.774-2.109,7.881t-2.7,8.14q-1.48,4.033-3.182,7.659a43.3,43.3,0,0,1-3.552,6.29,32.9,32.9,0,0,0-1.184-3.367q-.74-1.813-1.591-3.626t-1.665-3.219a37.543,37.543,0,0,0,4.292-6.623q2.072-3.959,3.774-8.14A59.744,59.744,0,0,0,159.84-33.6Zm10.73,4.588a15.717,15.717,0,0,1,1.776,1.739q1.11,1.221,2.479,2.7t2.7,3q1.332,1.517,2.368,2.738t1.48,1.813L175.454-9.4q-.74-1.554-1.887-3.7t-2.516-4.4q-1.369-2.257-2.627-4.292t-2.294-3.441Zm-20.2-27.9,6.808-1.776a52.586,52.586,0,0,1,1.7,5.809q.74,3.145,1.258,6.1a48.66,48.66,0,0,1,.666,5.4l-7.326,1.924a37.754,37.754,0,0,0-.444-5.4q-.444-3.034-1.147-6.216T150.368-56.906Zm24.494-2.22,8.214,1.776q-.962,3.034-1.961,6.253t-2,6.142q-1,2.923-1.961,5.217l-6.142-1.7q.74-2.442,1.48-5.55t1.406-6.29Q174.566-56.462,174.862-59.126Zm27.824-4h9.176V6.734h-9.176Zm-21.608,46.1,38.036-6.808,1.48,9.1L182.632-7.844Zm3.848-35.742,4.736-6.66q2.072,1.258,4.329,2.812t4.292,3.145a21.659,21.659,0,0,1,3.219,3l-5.106,7.4a22.077,22.077,0,0,0-3.034-3.182q-1.924-1.7-4.144-3.441T184.926-52.762ZM181.67-34.114l4.588-7.03q2.146,1.11,4.514,2.627t4.514,3.071a25.036,25.036,0,0,1,3.478,2.96l-4.884,7.77a36.642,36.642,0,0,0-3.33-3.034q-2.072-1.7-4.4-3.367T181.67-34.114ZM258.7-53.724a68.362,68.362,0,0,1-7.585,8.695,91.658,91.658,0,0,1-10.1,8.547A91.4,91.4,0,0,1,229.4-29.23a25.954,25.954,0,0,0-1.628-2.59q-1.036-1.48-2.22-2.923a19.8,19.8,0,0,0-2.294-2.4,69.648,69.648,0,0,0,12.21-7.548,89.049,89.049,0,0,0,10.4-9.324,55,55,0,0,0,7.289-9.324H263.44a72.392,72.392,0,0,0,6.586,8.066,74.6,74.6,0,0,0,7.7,7.1,70.322,70.322,0,0,0,8.436,5.809,66.034,66.034,0,0,0,8.806,4.329,33.11,33.11,0,0,0-3.515,4.181q-1.665,2.331-3,4.625a92.42,92.42,0,0,1-8.51-5.106,101.183,101.183,0,0,1-8.251-6.179q-3.959-3.293-7.289-6.623A55.837,55.837,0,0,1,258.7-53.724ZM240.13-41h37.3v8.584h-37.3Zm-8.658,15.17h54.464v8.436H231.472ZM227.624-3.552H290.45V4.81H227.624ZM253.3-37.518H263.81V.592H253.3ZM235.69-14.874l7.918-3.256q1.332,1.776,2.7,3.959t2.479,4.255a20.286,20.286,0,0,1,1.628,3.848l-8.51,3.7a24.24,24.24,0,0,0-1.443-3.885q-1-2.183-2.257-4.44T235.69-14.874Zm37.3-3.108,9.4,3.4q-2.294,3.33-4.588,6.623A66.112,66.112,0,0,1,273.5-2.368L266.178-5.4q1.184-1.776,2.442-3.922t2.442-4.44A42.807,42.807,0,0,0,272.986-17.982Z" transform="translate(353 1144)" fill="#4d4d4d"/>
    <path id="パス_9" data-name="パス 9" d="M5.621-57.67h57.3v9.563H15.33V6.716H5.621Zm52.56,0h9.855V-4.38a15.7,15.7,0,0,1-.912,5.913,6.743,6.743,0,0,1-3.394,3.431,15.889,15.889,0,0,1-5.767,1.46q-3.431.292-8.4.292a15.067,15.067,0,0,0-.73-3.139q-.584-1.752-1.278-3.5A21.689,21.689,0,0,0,46.136-2.92q1.971.146,4.051.146h6.169a1.991,1.991,0,0,0,1.423-.4,1.867,1.867,0,0,0,.4-1.351Zm-47.3,27.156H63v9.636H10.877Zm20.513-21.9H41.1V-25.7H31.39Z" transform="translate(1346 1143)" fill="#4d4d4d"/>
    <path id="パス_8" data-name="パス 8" d="M29.283-16.34A28.648,28.648,0,0,0,37.8,4.214l3.268-1.548A26.76,26.76,0,0,1,33.153-16.34a26.76,26.76,0,0,1,7.912-19.006L37.8-36.894A28.648,28.648,0,0,0,29.283-16.34Zm32.035,3.784a78.962,78.962,0,0,0-5.676-5.805v-1.978h5.031v-3.784H55.642v-6.665a52.482,52.482,0,0,0,5.332-1.677l-2.752-3.053a63.212,63.212,0,0,1-13.416,3.44,12.326,12.326,0,0,1,1.161,3.1c1.849-.258,3.827-.559,5.805-.989v5.848H45.15v3.784h6.106a43.826,43.826,0,0,1-6.923,12.6,21.535,21.535,0,0,1,1.935,3.7,42.4,42.4,0,0,0,5.5-10.019V3.311h3.87V-14.405A53.4,53.4,0,0,1,59-9.417Zm4.687-11.481H78.217v7.267H66.005ZM77.916-.774c-.731,0-.86-.129-.86-1.333V-13.244h5.16V-27.52H77.873a77.623,77.623,0,0,0,4.386-7.224L78.174-36.12a38.151,38.151,0,0,1-3.741,7.353l3.182,1.247H66.822l2.838-1.29a30.879,30.879,0,0,0-3.913-7.224l-3.311,1.419a33.23,33.23,0,0,1,3.569,7.1H62.221v14.276h3.956C65.575-7.4,64.113-2.408,57.534.344a11.141,11.141,0,0,1,2.408,3.1c7.525-3.354,9.5-9.46,10.148-16.684h3.1v11.18c0,3.7.774,4.9,4.085,4.9h3.311c2.752,0,3.741-1.505,4.042-7.267a11.38,11.38,0,0,1-3.44-1.548c-.086,4.558-.258,5.2-1.032,5.2ZM103.458-34.1v3.784h7.654c.172,1.677.344,3.354.6,4.945l-1.462-.215c-1.591,8.514-5.074,15.05-11.18,18.834a26.356,26.356,0,0,1,3.139,3.01c5.074-3.612,8.557-8.9,10.75-15.867C114.9-12.642,118.207-7.1,123.883-3.741a17.5,17.5,0,0,1,3.139-3.053c-8.686-4.429-11.7-14.62-12.556-27.3Zm-4.644,5.59c-1.462-2.064-4.687-4.73-7.353-6.579L88.494-32.68a32.306,32.306,0,0,1,7.181,6.794Zm-1.161,9.116H88.236v3.7h5.5V-5.59A64.819,64.819,0,0,1,87.5-1.161l2.064,4.128c2.236-1.849,4.3-3.569,6.321-5.332C98.6.946,102.3,2.365,107.758,2.58c4.9.215,13.545.129,18.4-.086a18.215,18.215,0,0,1,1.333-4.085c-5.375.344-14.921.473-19.694.3-4.73-.172-8.256-1.548-10.148-4.515Zm45.064,3.053A28.648,28.648,0,0,0,134.2-36.894l-3.268,1.548a26.76,26.76,0,0,1,7.912,19.006,26.76,26.76,0,0,1-7.912,19.006L134.2,4.214A28.648,28.648,0,0,0,142.717-16.34Z" transform="translate(1404 1140)" fill="#4d4d4d"/>
    <path id="パス_6" data-name="パス 6" d="M77.956-87.228A161.668,161.668,0,0,0,61.449-59.9a156.555,156.555,0,0,0-9.507,27.006Q47.707-16.931,47.707-6.7H22.125Q23.249-38.618,44.25-73.071,57.819-94.43,66.98-102.859H4.494l.346-20.95h88.5v18.249Q87.809-100.4,77.956-87.228Zm98.439,0A161.668,161.668,0,0,0,159.888-59.9a156.555,156.555,0,0,0-9.507,27.006Q146.146-16.931,146.146-6.7H120.564q1.124-31.916,22.125-66.368,13.569-21.359,22.73-29.788H102.933l.346-20.95h88.5v18.249Q186.248-100.4,176.4-87.228ZM245.622-3.756q-23.94,0-33.576-15.876t-9.636-45.255q0-29.379,9.636-45.337t33.576-15.958q23.94,0,33.62,15.958,9.593,15.958,9.593,45.337T279.2-19.632Q269.562-3.756,245.622-3.756Zm14.433-29.87q3.371-10.8,3.371-31.261,0-21.441-3.414-31.752t-14.39-10.311q-10.976,0-14.52,10.311t-3.543,31.752q0,20.459,3.543,31.3t14.52,10.843Q256.6-22.742,260.055-33.626Z" transform="translate(684 1158.867)" fill="#e25406"/>
    <path id="パス_5" data-name="パス 5" d="M48.744-3.756q-23.94,0-33.576-15.876T5.531-64.887q0-29.379,9.636-45.337t33.576-15.958q23.94,0,33.62,15.958,9.593,15.958,9.593,45.337T82.321-19.632Q72.684-3.756,48.744-3.756Zm14.433-29.87q3.371-10.8,3.371-31.261,0-21.441-3.414-31.752T48.744-106.95q-10.976,0-14.52,10.311T30.681-64.887q0,20.459,3.543,31.3t14.52,10.843Q59.72-22.742,63.177-33.626Zm84.006,29.87q-23.94,0-33.576-15.876T103.97-64.887q0-29.379,9.636-45.337t33.576-15.958q23.94,0,33.62,15.958Q190.4-94.266,190.4-64.887T180.76-19.632Q171.123-3.756,147.183-3.756Zm14.433-29.87q3.371-10.8,3.371-31.261,0-21.441-3.414-31.752t-14.39-10.311q-10.976,0-14.52,10.311T129.12-64.887q0,20.459,3.543,31.3t14.52,10.843Q158.159-22.742,161.616-33.626Zm84.006,29.87q-23.94,0-33.576-15.876t-9.636-45.255q0-29.379,9.636-45.337t33.576-15.958q23.94,0,33.62,15.958,9.593,15.958,9.593,45.337T279.2-19.632Q269.562-3.756,245.622-3.756Zm14.433-29.87q3.371-10.8,3.371-31.261,0-21.441-3.414-31.752t-14.39-10.311q-10.976,0-14.52,10.311t-3.543,31.752q0,20.459,3.543,31.3t14.52,10.843Q256.6-22.742,260.055-33.626Z" transform="translate(1029 1158.867)" fill="#e25406"/>
    <path id="パス_4" data-name="パス 4" d="M0,0H29L4.359,45h-18.9Z" transform="translate(990 1121)" fill="#e25406"/>
  </g>
</svg>
