<svg xmlns="http://www.w3.org/2000/svg" width="862.079" height="226.344" viewBox="0 0 862.079 226.344">
  <g id="グループ_10" data-name="グループ 10" transform="translate(-684.638 -1790.656)">
    <path id="パス_20" data-name="パス 20" d="M2.738-37.32H64.1v9.577H2.738ZM122.684-62.882l5.482,7.067a103.846,103.846,0,0,1-10.4,2.279q-5.647.958-11.493,1.585T95.009-50.927a27.038,27.038,0,0,0-.925-3.666,32.218,32.218,0,0,0-1.321-3.534q3.963-.33,8.058-.793t8.025-1.057q3.93-.594,7.464-1.354T122.684-62.882ZM91.641-43.4h39.035v8.256H91.641Zm2.048,16.975h34.346V-.993h-8.851V-18.5H102.143V-.729H93.688ZM98.972-10.9h23.712v7.926H98.972Zm7.53-45.046h8.454v33.487H106.5ZM67.929-29.923q2.906-.66,6.572-1.486t7.728-1.849q4.062-1.024,8.025-2.081l.991,8.124q-5.416,1.453-11,2.939t-10.2,2.741Zm.793-20.806H90.584V-42.6H68.722Zm7.2-12.351h8.256v53.038a15.168,15.168,0,0,1-.627,4.921A5.085,5.085,0,0,1,81.2-2.38a10.156,10.156,0,0,1-4.128,1.354,48.116,48.116,0,0,1-5.779.3,24.289,24.289,0,0,0-.892-4.128,27.061,27.061,0,0,0-1.486-4q1.783.066,3.5.066h2.312a1.512,1.512,0,0,0,.925-.33,1.406,1.406,0,0,0,.264-.991Zm68.626.33h8.124V-.861h-8.124Zm-9.775,21.6h27.345v8.19H134.771Zm8.19,4.359,4.756,2.378q-.793,3.369-1.882,7.034t-2.411,7.265q-1.321,3.6-2.84,6.836a38.648,38.648,0,0,1-3.17,5.614,29.361,29.361,0,0,0-1.057-3.005q-.66-1.618-1.42-3.236t-1.486-2.873a33.509,33.509,0,0,0,3.831-5.911q1.849-3.534,3.369-7.265A53.326,53.326,0,0,0,142.961-36.792Zm9.577,4.1a14.028,14.028,0,0,1,1.585,1.552q.991,1.09,2.213,2.411t2.411,2.675q1.189,1.354,2.114,2.444T162.182-22l-5.284,6.8q-.661-1.387-1.684-3.3t-2.246-3.93q-1.222-2.015-2.345-3.831t-2.048-3.071ZM134.507-57.6l6.077-1.585A46.935,46.935,0,0,1,142.1-54q.661,2.807,1.123,5.449a43.432,43.432,0,0,1,.594,4.822l-6.539,1.717a33.7,33.7,0,0,0-.4-4.822q-.4-2.708-1.024-5.548T134.507-57.6Zm21.862-1.981,7.332,1.585q-.859,2.708-1.75,5.581t-1.783,5.482q-.892,2.609-1.75,4.657l-5.482-1.519q.66-2.18,1.321-4.954t1.255-5.614Q156.105-57.2,156.369-59.579ZM181.2-63.146h8.19V-.8H181.2ZM161.918-22l33.949-6.077,1.321,8.124L163.3-13.807Zm3.435-31.9,4.227-5.944q1.849,1.123,3.864,2.51t3.831,2.807a19.332,19.332,0,0,1,2.873,2.675l-4.557,6.6a19.7,19.7,0,0,0-2.708-2.84q-1.717-1.519-3.7-3.071T165.352-53.9Zm-2.906,16.645,4.1-6.275q1.915.991,4.029,2.345t4.029,2.741a22.346,22.346,0,0,1,3.1,2.642l-4.359,6.935a32.706,32.706,0,0,0-2.972-2.708q-1.849-1.519-3.93-3.005T162.446-37.254Zm68.758-17.5A61.017,61.017,0,0,1,224.433-47a81.81,81.81,0,0,1-9.016,7.629,81.577,81.577,0,0,1-10.37,6.473,23.165,23.165,0,0,0-1.453-2.312q-.925-1.321-1.981-2.609a17.673,17.673,0,0,0-2.048-2.147,62.165,62.165,0,0,0,10.9-6.737,79.481,79.481,0,0,0,9.28-8.322,49.092,49.092,0,0,0,6.506-8.322h9.181a64.613,64.613,0,0,0,5.878,7.2,66.582,66.582,0,0,0,6.869,6.341,62.767,62.767,0,0,0,7.53,5.185,58.94,58.94,0,0,0,7.86,3.864,29.553,29.553,0,0,0-3.137,3.732q-1.486,2.081-2.675,4.128a82.488,82.488,0,0,1-7.6-4.557,90.31,90.31,0,0,1-7.365-5.515q-3.534-2.939-6.506-5.911A49.839,49.839,0,0,1,231.2-54.758ZM214.625-43.4h33.289v7.662H214.625ZM206.9-29.857H255.51v7.53H206.9ZM203.463-9.976h56.076v7.464H203.463Zm22.919-30.317h9.379V-6.277h-9.379Zm-15.72,20.211,7.067-2.906q1.189,1.585,2.411,3.534t2.213,3.8a18.105,18.105,0,0,1,1.453,3.435l-7.6,3.3a21.636,21.636,0,0,0-1.288-3.468q-.892-1.948-2.015-3.963T210.662-20.082Zm33.289-2.774,8.388,3.038q-2.048,2.972-4.1,5.911a59.007,59.007,0,0,1-3.831,4.987l-6.539-2.708q1.057-1.585,2.18-3.5t2.18-3.963A38.21,38.21,0,0,0,243.951-22.856Z" transform="translate(681.9 1854)" fill="#4d4d4d"/>
    <path id="パス_21" data-name="パス 21" d="M5.621-57.67h57.3v9.563H15.33V6.716H5.621Zm52.56,0h9.855V-4.38a15.7,15.7,0,0,1-.912,5.913,6.743,6.743,0,0,1-3.394,3.431,15.889,15.889,0,0,1-5.767,1.46q-3.431.292-8.4.292a15.067,15.067,0,0,0-.73-3.139q-.584-1.752-1.278-3.5A21.689,21.689,0,0,0,46.136-2.92q1.971.146,4.051.146h6.169a1.991,1.991,0,0,0,1.423-.4,1.867,1.867,0,0,0,.4-1.351Zm-47.3,27.156H63v9.636H10.877Zm20.513-21.9H41.1V-25.7H31.39Z" transform="translate(1346 1994)" fill="#4d4d4d"/>
    <path id="パス_22" data-name="パス 22" d="M29.283-16.34A28.648,28.648,0,0,0,37.8,4.214l3.268-1.548A26.76,26.76,0,0,1,33.153-16.34a26.76,26.76,0,0,1,7.912-19.006L37.8-36.894A28.648,28.648,0,0,0,29.283-16.34Zm32.035,3.784a78.962,78.962,0,0,0-5.676-5.805v-1.978h5.031v-3.784H55.642v-6.665a52.482,52.482,0,0,0,5.332-1.677l-2.752-3.053a63.212,63.212,0,0,1-13.416,3.44,12.326,12.326,0,0,1,1.161,3.1c1.849-.258,3.827-.559,5.805-.989v5.848H45.15v3.784h6.106a43.826,43.826,0,0,1-6.923,12.6,21.535,21.535,0,0,1,1.935,3.7,42.4,42.4,0,0,0,5.5-10.019V3.311h3.87V-14.405A53.4,53.4,0,0,1,59-9.417Zm4.687-11.481H78.217v7.267H66.005ZM77.916-.774c-.731,0-.86-.129-.86-1.333V-13.244h5.16V-27.52H77.873a77.623,77.623,0,0,0,4.386-7.224L78.174-36.12a38.151,38.151,0,0,1-3.741,7.353l3.182,1.247H66.822l2.838-1.29a30.879,30.879,0,0,0-3.913-7.224l-3.311,1.419a33.23,33.23,0,0,1,3.569,7.1H62.221v14.276h3.956C65.575-7.4,64.113-2.408,57.534.344a11.141,11.141,0,0,1,2.408,3.1c7.525-3.354,9.5-9.46,10.148-16.684h3.1v11.18c0,3.7.774,4.9,4.085,4.9h3.311c2.752,0,3.741-1.505,4.042-7.267a11.38,11.38,0,0,1-3.44-1.548c-.086,4.558-.258,5.2-1.032,5.2ZM103.458-34.1v3.784h7.654c.172,1.677.344,3.354.6,4.945l-1.462-.215c-1.591,8.514-5.074,15.05-11.18,18.834a26.356,26.356,0,0,1,3.139,3.01c5.074-3.612,8.557-8.9,10.75-15.867C114.9-12.642,118.207-7.1,123.883-3.741a17.5,17.5,0,0,1,3.139-3.053c-8.686-4.429-11.7-14.62-12.556-27.3Zm-4.644,5.59c-1.462-2.064-4.687-4.73-7.353-6.579L88.494-32.68a32.306,32.306,0,0,1,7.181,6.794Zm-1.161,9.116H88.236v3.7h5.5V-5.59A64.819,64.819,0,0,1,87.5-1.161l2.064,4.128c2.236-1.849,4.3-3.569,6.321-5.332C98.6.946,102.3,2.365,107.758,2.58c4.9.215,13.545.129,18.4-.086a18.215,18.215,0,0,1,1.333-4.085c-5.375.344-14.921.473-19.694.3-4.73-.172-8.256-1.548-10.148-4.515Zm45.064,3.053A28.648,28.648,0,0,0,134.2-36.894l-3.268,1.548a26.76,26.76,0,0,1,7.912,19.006,26.76,26.76,0,0,1-7.912,19.006L134.2,4.214A28.648,28.648,0,0,0,142.717-16.34Z" transform="translate(1404 1991)" fill="#4d4d4d"/>
    <path id="パス_19" data-name="パス 19" d="M47.188-65.406a25.256,25.256,0,0,0-7.778,1.068,15.239,15.239,0,0,0-8.729,7.31L8.556-58.014,17.372-123.8H86.426v19.875H35.175L30.681-77.89a52.38,52.38,0,0,1,8.9-4.681,39.493,39.493,0,0,1,13.05-1.889,40.37,40.37,0,0,1,27.138,9.938q11.581,9.938,11.581,28.91A44,44,0,0,1,80.2-16.128Q69.054-3.152,46.843-3.152q-17.89,0-29.385-9.116T4.667-38.139H29.212Q30.681-30.5,34.83-26.353t12.1,4.148q9.161,0,13.958-6.119t4.8-15.4q0-9.116-4.494-15.4T47.188-65.406Zm98.439,0a25.256,25.256,0,0,0-7.778,1.068,15.239,15.239,0,0,0-8.729,7.31L107-58.014l8.815-65.786h69.054v19.875h-51.25L129.12-77.89a52.38,52.38,0,0,1,8.9-4.681,39.493,39.493,0,0,1,13.05-1.889,40.37,40.37,0,0,1,27.138,9.938q11.581,9.938,11.581,28.91a44,44,0,0,1-11.149,29.484Q167.493-3.152,145.282-3.152q-17.89,0-29.385-9.116T103.106-38.139h24.545q1.469,7.638,5.618,11.786t12.1,4.148q9.161,0,13.958-6.119t4.8-15.4q0-9.116-4.494-15.4T145.627-65.406Zm99.995,62.09q-23.94,0-33.576-15.933t-9.636-45.418q0-29.484,9.636-45.5t33.576-16.015q23.94,0,33.62,16.015,9.593,16.015,9.593,45.5T279.2-19.249Q269.562-3.316,245.622-3.316Zm14.433-29.977q3.371-10.841,3.371-31.373,0-21.518-3.414-31.866t-14.39-10.348q-10.976,0-14.52,10.348t-3.543,31.866q0,20.532,3.543,31.414t14.52,10.882Q256.6-22.37,260.055-33.293Z" transform="translate(684 2009.436)" fill="#e25406"/>
    <path id="パス_23" data-name="パス 23" d="M48.744-3.325q-23.94,0-33.576-15.932T5.531-64.671q0-29.482,9.636-45.5t33.576-16.014q23.94,0,33.62,16.014,9.593,16.014,9.593,45.5T82.321-19.257Q72.684-3.325,48.744-3.325ZM63.177-33.3q3.371-10.84,3.371-31.371,0-21.516-3.414-31.864t-14.39-10.348q-10.976,0-14.52,10.348T30.681-64.671q0,20.531,3.543,31.412t14.52,10.881Q59.72-22.377,63.177-33.3ZM147.183-3.325q-23.94,0-33.576-15.932T103.97-64.671q0-29.482,9.636-45.5t33.576-16.014q23.94,0,33.62,16.014,9.593,16.014,9.593,45.5T180.76-19.257Q171.123-3.325,147.183-3.325ZM161.616-33.3q3.371-10.84,3.371-31.371,0-21.516-3.414-31.864t-14.39-10.348q-10.976,0-14.52,10.348T129.12-64.671q0,20.531,3.543,31.412t14.52,10.881Q158.159-22.377,161.616-33.3ZM245.622-3.325q-23.94,0-33.576-15.932t-9.636-45.414q0-29.482,9.636-45.5t33.576-16.014q23.94,0,33.62,16.014,9.593,16.014,9.593,45.5T279.2-19.257Q269.562-3.325,245.622-3.325ZM260.055-33.3q3.371-10.84,3.371-31.371,0-21.516-3.414-31.864t-14.39-10.348q-10.976,0-14.52,10.348t-3.543,31.864q0,20.531,3.543,31.412t14.52,10.881Q256.6-22.377,260.055-33.3Z" transform="translate(1029 2009.436)" fill="#e25406"/>
    <path id="パス_17" data-name="パス 17" d="M0,0H29L4.359,45h-18.9Z" transform="translate(990 1972)" fill="#e25406"/>
  </g>
</svg>
