<svg xmlns="http://www.w3.org/2000/svg" width="1190.979" height="132.051" viewBox="0 0 1190.979 132.051">
  <g id="グループ_7" data-name="グループ 7" transform="translate(-355.738 -2484.949)">
    <path id="パス_28" data-name="パス 28" d="M2.738-34.188H71.484v10.73H2.738ZM137.122-62.826l6.142,7.918a116.348,116.348,0,0,1-11.655,2.553q-6.327,1.073-12.876,1.776t-12.617,1.147a30.293,30.293,0,0,0-1.036-4.107A36.1,36.1,0,0,0,103.6-57.5q4.44-.37,9.028-.888t8.991-1.184q4.4-.666,8.362-1.517T137.122-62.826ZM102.342-41h43.734v9.25H102.342Zm2.294,19.018h38.48V6.512H133.2V-13.1H114.108V6.808h-9.472Zm5.92,17.39h26.566v8.88H110.556Zm8.436-50.468h9.472v37.518h-9.472ZM75.776-25.9q3.256-.74,7.363-1.665T91.8-29.637q4.551-1.147,8.991-2.331l1.11,9.1q-6.068,1.628-12.321,3.293T78.144-16.5Zm.888-23.31h24.494v9.1H76.664ZM84.73-63.048h9.25V-3.626a16.994,16.994,0,0,1-.7,5.513A5.7,5.7,0,0,1,90.65,4.958a11.379,11.379,0,0,1-4.625,1.517,53.907,53.907,0,0,1-6.475.333,27.213,27.213,0,0,0-1-4.625,30.319,30.319,0,0,0-1.665-4.477q2,.074,3.922.074H83.4a1.694,1.694,0,0,0,1.036-.37,1.575,1.575,0,0,0,.3-1.11Zm76.886.37h9.1V6.66h-9.1Zm-10.952,24.2H181.3V-29.3H150.664ZM159.84-33.6l5.328,2.664q-.888,3.774-2.109,7.881t-2.7,8.14q-1.48,4.033-3.182,7.659a43.3,43.3,0,0,1-3.552,6.29,32.9,32.9,0,0,0-1.184-3.367q-.74-1.813-1.591-3.626t-1.665-3.219a37.543,37.543,0,0,0,4.292-6.623q2.072-3.959,3.774-8.14A59.744,59.744,0,0,0,159.84-33.6Zm10.73,4.588a15.717,15.717,0,0,1,1.776,1.739q1.11,1.221,2.479,2.7t2.7,3q1.332,1.517,2.368,2.738t1.48,1.813L175.454-9.4q-.74-1.554-1.887-3.7t-2.516-4.4q-1.369-2.257-2.627-4.292t-2.294-3.441Zm-20.2-27.9,6.808-1.776a52.586,52.586,0,0,1,1.7,5.809q.74,3.145,1.258,6.1a48.66,48.66,0,0,1,.666,5.4l-7.326,1.924a37.754,37.754,0,0,0-.444-5.4q-.444-3.034-1.147-6.216T150.368-56.906Zm24.494-2.22,8.214,1.776q-.962,3.034-1.961,6.253t-2,6.142q-1,2.923-1.961,5.217l-6.142-1.7q.74-2.442,1.48-5.55t1.406-6.29Q174.566-56.462,174.862-59.126Zm27.824-4h9.176V6.734h-9.176Zm-21.608,46.1,38.036-6.808,1.48,9.1L182.632-7.844Zm3.848-35.742,4.736-6.66q2.072,1.258,4.329,2.812t4.292,3.145a21.659,21.659,0,0,1,3.219,3l-5.106,7.4a22.077,22.077,0,0,0-3.034-3.182q-1.924-1.7-4.144-3.441T184.926-52.762ZM181.67-34.114l4.588-7.03q2.146,1.11,4.514,2.627t4.514,3.071a25.036,25.036,0,0,1,3.478,2.96l-4.884,7.77a36.642,36.642,0,0,0-3.33-3.034q-2.072-1.7-4.4-3.367T181.67-34.114ZM258.7-53.724a68.362,68.362,0,0,1-7.585,8.695,91.658,91.658,0,0,1-10.1,8.547A91.4,91.4,0,0,1,229.4-29.23a25.954,25.954,0,0,0-1.628-2.59q-1.036-1.48-2.22-2.923a19.8,19.8,0,0,0-2.294-2.4,69.648,69.648,0,0,0,12.21-7.548,89.049,89.049,0,0,0,10.4-9.324,55,55,0,0,0,7.289-9.324H263.44a72.392,72.392,0,0,0,6.586,8.066,74.6,74.6,0,0,0,7.7,7.1,70.322,70.322,0,0,0,8.436,5.809,66.034,66.034,0,0,0,8.806,4.329,33.11,33.11,0,0,0-3.515,4.181q-1.665,2.331-3,4.625a92.42,92.42,0,0,1-8.51-5.106,101.183,101.183,0,0,1-8.251-6.179q-3.959-3.293-7.289-6.623A55.837,55.837,0,0,1,258.7-53.724ZM240.13-41h37.3v8.584h-37.3Zm-8.658,15.17h54.464v8.436H231.472ZM227.624-3.552H290.45V4.81H227.624ZM253.3-37.518H263.81V.592H253.3ZM235.69-14.874l7.918-3.256q1.332,1.776,2.7,3.959t2.479,4.255a20.286,20.286,0,0,1,1.628,3.848l-8.51,3.7a24.24,24.24,0,0,0-1.443-3.885q-1-2.183-2.257-4.44T235.69-14.874Zm37.3-3.108,9.4,3.4q-2.294,3.33-4.588,6.623A66.112,66.112,0,0,1,273.5-2.368L266.178-5.4q1.184-1.776,2.442-3.922t2.442-4.44A42.807,42.807,0,0,0,272.986-17.982Z" transform="translate(353 2595)" fill="#4d4d4d"/>
    <path id="パス_25" data-name="パス 25" d="M5.621-57.67h57.3v9.563H15.33V6.716H5.621Zm52.56,0h9.855V-4.38a15.7,15.7,0,0,1-.912,5.913,6.743,6.743,0,0,1-3.394,3.431,15.889,15.889,0,0,1-5.767,1.46q-3.431.292-8.4.292a15.067,15.067,0,0,0-.73-3.139q-.584-1.752-1.278-3.5A21.689,21.689,0,0,0,46.136-2.92q1.971.146,4.051.146h6.169a1.991,1.991,0,0,0,1.423-.4,1.867,1.867,0,0,0,.4-1.351Zm-47.3,27.156H63v9.636H10.877Zm20.513-21.9H41.1V-25.7H31.39Z" transform="translate(1346 2594)" fill="#4d4d4d"/>
    <path id="パス_26" data-name="パス 26" d="M29.283-16.34A28.648,28.648,0,0,0,37.8,4.214l3.268-1.548A26.76,26.76,0,0,1,33.153-16.34a26.76,26.76,0,0,1,7.912-19.006L37.8-36.894A28.648,28.648,0,0,0,29.283-16.34Zm32.035,3.784a78.962,78.962,0,0,0-5.676-5.805v-1.978h5.031v-3.784H55.642v-6.665a52.482,52.482,0,0,0,5.332-1.677l-2.752-3.053a63.212,63.212,0,0,1-13.416,3.44,12.326,12.326,0,0,1,1.161,3.1c1.849-.258,3.827-.559,5.805-.989v5.848H45.15v3.784h6.106a43.826,43.826,0,0,1-6.923,12.6,21.535,21.535,0,0,1,1.935,3.7,42.4,42.4,0,0,0,5.5-10.019V3.311h3.87V-14.405A53.4,53.4,0,0,1,59-9.417Zm4.687-11.481H78.217v7.267H66.005ZM77.916-.774c-.731,0-.86-.129-.86-1.333V-13.244h5.16V-27.52H77.873a77.623,77.623,0,0,0,4.386-7.224L78.174-36.12a38.151,38.151,0,0,1-3.741,7.353l3.182,1.247H66.822l2.838-1.29a30.879,30.879,0,0,0-3.913-7.224l-3.311,1.419a33.23,33.23,0,0,1,3.569,7.1H62.221v14.276h3.956C65.575-7.4,64.113-2.408,57.534.344a11.141,11.141,0,0,1,2.408,3.1c7.525-3.354,9.5-9.46,10.148-16.684h3.1v11.18c0,3.7.774,4.9,4.085,4.9h3.311c2.752,0,3.741-1.505,4.042-7.267a11.38,11.38,0,0,1-3.44-1.548c-.086,4.558-.258,5.2-1.032,5.2ZM103.458-34.1v3.784h7.654c.172,1.677.344,3.354.6,4.945l-1.462-.215c-1.591,8.514-5.074,15.05-11.18,18.834a26.356,26.356,0,0,1,3.139,3.01c5.074-3.612,8.557-8.9,10.75-15.867C114.9-12.642,118.207-7.1,123.883-3.741a17.5,17.5,0,0,1,3.139-3.053c-8.686-4.429-11.7-14.62-12.556-27.3Zm-4.644,5.59c-1.462-2.064-4.687-4.73-7.353-6.579L88.494-32.68a32.306,32.306,0,0,1,7.181,6.794Zm-1.161,9.116H88.236v3.7h5.5V-5.59A64.819,64.819,0,0,1,87.5-1.161l2.064,4.128c2.236-1.849,4.3-3.569,6.321-5.332C98.6.946,102.3,2.365,107.758,2.58c4.9.215,13.545.129,18.4-.086a18.215,18.215,0,0,1,1.333-4.085c-5.375.344-14.921.473-19.694.3-4.73-.172-8.256-1.548-10.148-4.515Zm45.064,3.053A28.648,28.648,0,0,0,134.2-36.894l-3.268,1.548a26.76,26.76,0,0,1,7.912,19.006,26.76,26.76,0,0,1-7.912,19.006L134.2,4.214A28.648,28.648,0,0,0,142.717-16.34Z" transform="translate(1404 2591)" fill="#4d4d4d"/>
    <path id="パス_27" data-name="パス 27" d="M33.879-101.965Q29.73-96.782,29.9-88.116H6.914a54.681,54.681,0,0,1,3.2-16.6,37.448,37.448,0,0,1,9.507-12.716,33.673,33.673,0,0,1,11.495-6.317,52.833,52.833,0,0,1,16.334-2.187q17.977,0,29,8.706T87.463-93.866a24.859,24.859,0,0,1-6.568,17.494A22.386,22.386,0,0,1,72.252-70.3q3.371,0,9.68,5.426,9.42,8.18,9.42,22.353,0,14.9-11.019,26.2T47.707-5.02q-26.619,0-36.99-16.279-5.445-8.666-6.05-22.677h24.2a24.983,24.983,0,0,0,2.42,11.663q4.494,8.5,16.334,8.5a18.782,18.782,0,0,0,12.661-4.657q5.4-4.657,5.4-13.4,0-11.582-10.025-15.469-5.7-2.187-17.977-2.187V-76.048q12.013-.162,16.767-2.187,8.21-3.4,8.21-13.768a14.83,14.83,0,0,0-4.192-10.934q-4.192-4.212-11.8-4.212Q37.941-107.149,33.879-101.965Zm98.439,0q-4.148,5.183-3.976,13.849H105.353a54.681,54.681,0,0,1,3.2-16.6,37.448,37.448,0,0,1,9.507-12.716,33.673,33.673,0,0,1,11.495-6.317,52.833,52.833,0,0,1,16.334-2.187q17.977,0,29,8.706T185.9-93.866a24.859,24.859,0,0,1-6.568,17.494,22.386,22.386,0,0,1-8.643,6.074q3.371,0,9.68,5.426,9.42,8.18,9.42,22.353,0,14.9-11.019,26.2T146.146-5.02q-26.619,0-36.99-16.279-5.445-8.666-6.05-22.677h24.2a24.983,24.983,0,0,0,2.42,11.663q4.494,8.5,16.334,8.5a18.782,18.782,0,0,0,12.661-4.657q5.4-4.657,5.4-13.4,0-11.582-10.025-15.469-5.7-2.187-17.977-2.187V-76.048q12.013-.162,16.767-2.187,8.21-3.4,8.21-13.768a14.83,14.83,0,0,0-4.192-10.934q-4.192-4.212-11.8-4.212Q136.38-107.149,132.318-101.965ZM245.622-5.02q-23.94,0-33.576-15.712T202.409-65.52q0-29.076,9.636-44.869t33.576-15.793q23.94,0,33.62,15.793,9.593,15.793,9.593,44.869T279.2-20.732Q269.562-5.02,245.622-5.02Zm14.433-29.562q3.371-10.691,3.371-30.938,0-21.22-3.414-31.424t-14.39-10.2q-10.976,0-14.52,10.2T227.559-65.52q0,20.248,3.543,30.979t14.52,10.731Q256.6-23.809,260.055-34.581Z" transform="translate(684 2611.131)" fill="#e25406"/>
    <path id="パス_24" data-name="パス 24" d="M48.744-5.02q-23.94,0-33.576-15.712T5.531-65.52q0-29.076,9.636-44.869t33.576-15.793q23.94,0,33.62,15.793Q91.957-94.6,91.957-65.52T82.321-20.732Q72.684-5.02,48.744-5.02ZM63.177-34.581q3.371-10.691,3.371-30.938,0-21.22-3.414-31.424t-14.39-10.2q-10.976,0-14.52,10.2T30.681-65.52q0,20.248,3.543,30.979t14.52,10.731Q59.72-23.809,63.177-34.581ZM147.183-5.02q-23.94,0-33.576-15.712T103.97-65.52q0-29.076,9.636-44.869t33.576-15.793q23.94,0,33.62,15.793Q190.4-94.6,190.4-65.52T180.76-20.732Q171.123-5.02,147.183-5.02Zm14.433-29.562q3.371-10.691,3.371-30.938,0-21.22-3.414-31.424t-14.39-10.2q-10.976,0-14.52,10.2T129.12-65.52q0,20.248,3.543,30.979t14.52,10.731Q158.159-23.809,161.616-34.581ZM245.622-5.02q-23.94,0-33.576-15.712T202.409-65.52q0-29.076,9.636-44.869t33.576-15.793q23.94,0,33.62,15.793,9.593,15.793,9.593,44.869T279.2-20.732Q269.562-5.02,245.622-5.02Zm14.433-29.562q3.371-10.691,3.371-30.938,0-21.22-3.414-31.424t-14.39-10.2q-10.976,0-14.52,10.2T227.559-65.52q0,20.248,3.543,30.979t14.52,10.731Q256.6-23.809,260.055-34.581Z" transform="translate(1029 2611.131)" fill="#e25406"/>
    <path id="パス_18" data-name="パス 18" d="M0,0H29L4.359,45h-18.9Z" transform="translate(990 2572)" fill="#e25406"/>
  </g>
</svg>
