<svg xmlns="http://www.w3.org/2000/svg" width="862.079" height="226.344" viewBox="0 0 862.079 226.344">
  <g id="グループ_11" data-name="グループ 11" transform="translate(-684.638 -2390.656)">
    <path id="パス_28" data-name="パス 28" d="M2.738-37.269H64.219v9.6H2.738ZM122.921-62.881l5.493,7.081a104.054,104.054,0,0,1-10.423,2.283q-5.658.96-11.515,1.588T95.192-50.9a27.091,27.091,0,0,0-.927-3.673,32.283,32.283,0,0,0-1.324-3.541q3.971-.331,8.074-.794t8.041-1.059q3.938-.6,7.478-1.357T122.921-62.881Zm-31.1,19.523h39.112v8.273H91.816Zm2.052,17.008h34.414V-.87h-8.868V-18.408H102.339v17.8H93.868ZM99.162-10.8h23.759v7.942H99.162Zm7.545-45.135h8.471v33.553h-8.471ZM68.058-29.857q2.912-.662,6.585-1.489T82.386-33.2q4.07-1.026,8.041-2.085l.993,8.14Q85.993-25.687,80.4-24.2T70.176-21.452ZM68.852-50.7H90.758v8.14H68.852Zm7.214-12.376h8.273V-9.937a15.2,15.2,0,0,1-.629,4.93A5.1,5.1,0,0,1,81.36-2.26,10.176,10.176,0,0,1,77.224-.9a48.211,48.211,0,0,1-5.791.3,24.337,24.337,0,0,0-.893-4.136,27.115,27.115,0,0,0-1.489-4q1.787.066,3.508.066h2.316A1.515,1.515,0,0,0,75.8-9.01,1.409,1.409,0,0,0,76.066-10Zm68.761.331h8.14V-.738h-8.14Zm-9.795,21.641h27.4V-32.9h-27.4Zm8.206,4.368L148-34.357q-.794,3.375-1.886,7.048t-2.416,7.28q-1.324,3.607-2.846,6.85a38.723,38.723,0,0,1-3.177,5.625,29.422,29.422,0,0,0-1.059-3.011q-.662-1.621-1.423-3.243t-1.489-2.879a33.576,33.576,0,0,0,3.838-5.923q1.853-3.541,3.375-7.28A53.431,53.431,0,0,0,143.238-36.74Zm9.6,4.1a14.057,14.057,0,0,1,1.588,1.555q.993,1.092,2.217,2.416t2.416,2.68q1.191,1.357,2.118,2.449t1.324,1.621L157.2-15.1q-.662-1.39-1.688-3.309t-2.25-3.938q-1.224-2.018-2.349-3.838t-2.052-3.077Zm-18.067-24.95,6.089-1.588a47.029,47.029,0,0,1,1.522,5.2q.662,2.813,1.125,5.46a43.516,43.516,0,0,1,.6,4.831l-6.552,1.721a33.764,33.764,0,0,0-.4-4.831q-.4-2.713-1.026-5.559T134.767-57.586Zm21.906-1.985,7.346,1.588q-.86,2.713-1.754,5.592T160.478-46.9q-.893,2.614-1.754,4.666l-5.493-1.522q.662-2.184,1.324-4.964t1.257-5.625Q156.408-57.189,156.673-59.572Zm24.884-3.574h8.206V-.671h-8.206Zm-19.325,41.23L196.249-28l1.324,8.14-33.95,6.155Zm3.441-31.965,4.236-5.956q1.853,1.125,3.872,2.515t3.838,2.813a19.369,19.369,0,0,1,2.879,2.68l-4.566,6.618a19.745,19.745,0,0,0-2.713-2.846q-1.721-1.522-3.706-3.077T165.674-53.88ZM162.762-37.2l4.1-6.287q1.919.993,4.037,2.349t4.037,2.746a22.39,22.39,0,0,1,3.11,2.647L173.681-28.8a32.772,32.772,0,0,0-2.978-2.713q-1.853-1.522-3.938-3.011T162.762-37.2Zm68.894-17.538a61.139,61.139,0,0,1-6.783,7.776,81.972,81.972,0,0,1-9.034,7.644,81.737,81.737,0,0,1-10.39,6.486,23.212,23.212,0,0,0-1.456-2.316q-.927-1.324-1.985-2.614a17.708,17.708,0,0,0-2.052-2.151,62.288,62.288,0,0,0,10.92-6.75,79.638,79.638,0,0,0,9.3-8.339,49.189,49.189,0,0,0,6.519-8.339h9.2a64.742,64.742,0,0,0,5.89,7.214,66.714,66.714,0,0,0,6.883,6.353,62.892,62.892,0,0,0,7.545,5.2,59.056,59.056,0,0,0,7.875,3.872,29.612,29.612,0,0,0-3.144,3.739q-1.489,2.085-2.68,4.136a82.654,82.654,0,0,1-7.611-4.566,90.492,90.492,0,0,1-7.379-5.526q-3.541-2.945-6.519-5.923A49.937,49.937,0,0,1,231.655-54.741ZM215.044-43.358H248.4v7.677H215.044ZM207.3-29.791h48.709v7.545H207.3ZM203.859-9.87h56.187v7.478H203.859Zm22.965-30.377h9.4V-6.164h-9.4ZM211.073-20l7.081-2.912q1.191,1.588,2.416,3.541t2.217,3.805a18.143,18.143,0,0,1,1.456,3.441l-7.611,3.309a21.678,21.678,0,0,0-1.291-3.474q-.893-1.952-2.018-3.971T211.073-20Zm33.355-2.78,8.4,3.044q-2.052,2.978-4.1,5.923a59.121,59.121,0,0,1-3.838,5l-6.552-2.713q1.059-1.588,2.184-3.508T242.707-19A38.283,38.283,0,0,0,244.428-22.776Z" transform="translate(681.9 2454)" fill="#4d4d4d"/>
    <path id="パス_25" data-name="パス 25" d="M5.621-57.67h57.3v9.563H15.33V6.716H5.621Zm52.56,0h9.855V-4.38a15.7,15.7,0,0,1-.912,5.913,6.743,6.743,0,0,1-3.394,3.431,15.889,15.889,0,0,1-5.767,1.46q-3.431.292-8.4.292a15.067,15.067,0,0,0-.73-3.139q-.584-1.752-1.278-3.5A21.689,21.689,0,0,0,46.136-2.92q1.971.146,4.051.146h6.169a1.991,1.991,0,0,0,1.423-.4,1.867,1.867,0,0,0,.4-1.351Zm-47.3,27.156H63v9.636H10.877Zm20.513-21.9H41.1V-25.7H31.39Z" transform="translate(1346 2594)" fill="#4d4d4d"/>
    <path id="パス_26" data-name="パス 26" d="M29.283-16.34A28.648,28.648,0,0,0,37.8,4.214l3.268-1.548A26.76,26.76,0,0,1,33.153-16.34a26.76,26.76,0,0,1,7.912-19.006L37.8-36.894A28.648,28.648,0,0,0,29.283-16.34Zm32.035,3.784a78.962,78.962,0,0,0-5.676-5.805v-1.978h5.031v-3.784H55.642v-6.665a52.482,52.482,0,0,0,5.332-1.677l-2.752-3.053a63.212,63.212,0,0,1-13.416,3.44,12.326,12.326,0,0,1,1.161,3.1c1.849-.258,3.827-.559,5.805-.989v5.848H45.15v3.784h6.106a43.826,43.826,0,0,1-6.923,12.6,21.535,21.535,0,0,1,1.935,3.7,42.4,42.4,0,0,0,5.5-10.019V3.311h3.87V-14.405A53.4,53.4,0,0,1,59-9.417Zm4.687-11.481H78.217v7.267H66.005ZM77.916-.774c-.731,0-.86-.129-.86-1.333V-13.244h5.16V-27.52H77.873a77.623,77.623,0,0,0,4.386-7.224L78.174-36.12a38.151,38.151,0,0,1-3.741,7.353l3.182,1.247H66.822l2.838-1.29a30.879,30.879,0,0,0-3.913-7.224l-3.311,1.419a33.23,33.23,0,0,1,3.569,7.1H62.221v14.276h3.956C65.575-7.4,64.113-2.408,57.534.344a11.141,11.141,0,0,1,2.408,3.1c7.525-3.354,9.5-9.46,10.148-16.684h3.1v11.18c0,3.7.774,4.9,4.085,4.9h3.311c2.752,0,3.741-1.505,4.042-7.267a11.38,11.38,0,0,1-3.44-1.548c-.086,4.558-.258,5.2-1.032,5.2ZM103.458-34.1v3.784h7.654c.172,1.677.344,3.354.6,4.945l-1.462-.215c-1.591,8.514-5.074,15.05-11.18,18.834a26.356,26.356,0,0,1,3.139,3.01c5.074-3.612,8.557-8.9,10.75-15.867C114.9-12.642,118.207-7.1,123.883-3.741a17.5,17.5,0,0,1,3.139-3.053c-8.686-4.429-11.7-14.62-12.556-27.3Zm-4.644,5.59c-1.462-2.064-4.687-4.73-7.353-6.579L88.494-32.68a32.306,32.306,0,0,1,7.181,6.794Zm-1.161,9.116H88.236v3.7h5.5V-5.59A64.819,64.819,0,0,1,87.5-1.161l2.064,4.128c2.236-1.849,4.3-3.569,6.321-5.332C98.6.946,102.3,2.365,107.758,2.58c4.9.215,13.545.129,18.4-.086a18.215,18.215,0,0,1,1.333-4.085c-5.375.344-14.921.473-19.694.3-4.73-.172-8.256-1.548-10.148-4.515Zm45.064,3.053A28.648,28.648,0,0,0,134.2-36.894l-3.268,1.548a26.76,26.76,0,0,1,7.912,19.006,26.76,26.76,0,0,1-7.912,19.006L134.2,4.214A28.648,28.648,0,0,0,142.717-16.34Z" transform="translate(1404 2591)" fill="#4d4d4d"/>
    <path id="パス_27" data-name="パス 27" d="M33.879-101.965Q29.73-96.782,29.9-88.116H6.914a54.681,54.681,0,0,1,3.2-16.6,37.448,37.448,0,0,1,9.507-12.716,33.673,33.673,0,0,1,11.495-6.317,52.833,52.833,0,0,1,16.334-2.187q17.977,0,29,8.706T87.463-93.866a24.859,24.859,0,0,1-6.568,17.494A22.386,22.386,0,0,1,72.252-70.3q3.371,0,9.68,5.426,9.42,8.18,9.42,22.353,0,14.9-11.019,26.2T47.707-5.02q-26.619,0-36.99-16.279-5.445-8.666-6.05-22.677h24.2a24.983,24.983,0,0,0,2.42,11.663q4.494,8.5,16.334,8.5a18.782,18.782,0,0,0,12.661-4.657q5.4-4.657,5.4-13.4,0-11.582-10.025-15.469-5.7-2.187-17.977-2.187V-76.048q12.013-.162,16.767-2.187,8.21-3.4,8.21-13.768a14.83,14.83,0,0,0-4.192-10.934q-4.192-4.212-11.8-4.212Q37.941-107.149,33.879-101.965Zm98.439,0q-4.148,5.183-3.976,13.849H105.353a54.681,54.681,0,0,1,3.2-16.6,37.448,37.448,0,0,1,9.507-12.716,33.673,33.673,0,0,1,11.495-6.317,52.833,52.833,0,0,1,16.334-2.187q17.977,0,29,8.706T185.9-93.866a24.859,24.859,0,0,1-6.568,17.494,22.386,22.386,0,0,1-8.643,6.074q3.371,0,9.68,5.426,9.42,8.18,9.42,22.353,0,14.9-11.019,26.2T146.146-5.02q-26.619,0-36.99-16.279-5.445-8.666-6.05-22.677h24.2a24.983,24.983,0,0,0,2.42,11.663q4.494,8.5,16.334,8.5a18.782,18.782,0,0,0,12.661-4.657q5.4-4.657,5.4-13.4,0-11.582-10.025-15.469-5.7-2.187-17.977-2.187V-76.048q12.013-.162,16.767-2.187,8.21-3.4,8.21-13.768a14.83,14.83,0,0,0-4.192-10.934q-4.192-4.212-11.8-4.212Q136.38-107.149,132.318-101.965ZM245.622-5.02q-23.94,0-33.576-15.712T202.409-65.52q0-29.076,9.636-44.869t33.576-15.793q23.94,0,33.62,15.793,9.593,15.793,9.593,44.869T279.2-20.732Q269.562-5.02,245.622-5.02Zm14.433-29.562q3.371-10.691,3.371-30.938,0-21.22-3.414-31.424t-14.39-10.2q-10.976,0-14.52,10.2T227.559-65.52q0,20.248,3.543,30.979t14.52,10.731Q256.6-23.809,260.055-34.581Z" transform="translate(684 2611.131)" fill="#e25406"/>
    <path id="パス_24" data-name="パス 24" d="M48.744-5.02q-23.94,0-33.576-15.712T5.531-65.52q0-29.076,9.636-44.869t33.576-15.793q23.94,0,33.62,15.793Q91.957-94.6,91.957-65.52T82.321-20.732Q72.684-5.02,48.744-5.02ZM63.177-34.581q3.371-10.691,3.371-30.938,0-21.22-3.414-31.424t-14.39-10.2q-10.976,0-14.52,10.2T30.681-65.52q0,20.248,3.543,30.979t14.52,10.731Q59.72-23.809,63.177-34.581ZM147.183-5.02q-23.94,0-33.576-15.712T103.97-65.52q0-29.076,9.636-44.869t33.576-15.793q23.94,0,33.62,15.793Q190.4-94.6,190.4-65.52T180.76-20.732Q171.123-5.02,147.183-5.02Zm14.433-29.562q3.371-10.691,3.371-30.938,0-21.22-3.414-31.424t-14.39-10.2q-10.976,0-14.52,10.2T129.12-65.52q0,20.248,3.543,30.979t14.52,10.731Q158.159-23.809,161.616-34.581ZM245.622-5.02q-23.94,0-33.576-15.712T202.409-65.52q0-29.076,9.636-44.869t33.576-15.793q23.94,0,33.62,15.793,9.593,15.793,9.593,44.869T279.2-20.732Q269.562-5.02,245.622-5.02Zm14.433-29.562q3.371-10.691,3.371-30.938,0-21.22-3.414-31.424t-14.39-10.2q-10.976,0-14.52,10.2T227.559-65.52q0,20.248,3.543,30.979t14.52,10.731Q256.6-23.809,260.055-34.581Z" transform="translate(1029 2611.131)" fill="#e25406"/>
    <path id="パス_18" data-name="パス 18" d="M0,0H29L4.359,45h-18.9Z" transform="translate(990 2572)" fill="#e25406"/>
  </g>
</svg>
