<svg xmlns="http://www.w3.org/2000/svg" width="862.166" height="226.344" viewBox="0 0 862.166 226.344">
  <g id="グループ_5" data-name="グループ 5" transform="translate(-684.551 -939.656)">
    <path id="パス_7" data-name="パス 7" d="M2.738-37.318H64.1v9.578H2.738ZM122.7-62.882l5.483,7.068a103.858,103.858,0,0,1-10.4,2.279q-5.648.958-11.494,1.585T95.019-50.925a27.042,27.042,0,0,0-.925-3.666,32.224,32.224,0,0,0-1.321-3.534q3.963-.33,8.059-.793t8.026-1.057q3.93-.595,7.464-1.354T122.7-62.882ZM91.65-43.4h39.039v8.257H91.65ZM93.7-26.419h34.349V-.987H119.2v-17.5H102.153V-.723H93.7ZM98.982-10.9H122.7v7.927H98.982Zm7.53-45.05h8.455v33.491h-8.455ZM67.936-29.92q2.906-.661,6.573-1.486t7.729-1.85q4.062-1.024,8.026-2.081l.991,8.125q-5.417,1.453-11,2.94T70.049-21.53Zm.793-20.808H90.593V-42.6H68.728Zm7.2-12.353h8.257v53.043a15.17,15.17,0,0,1-.628,4.921,5.086,5.086,0,0,1-2.345,2.741A10.157,10.157,0,0,1,77.084-1.02a48.121,48.121,0,0,1-5.78.3,24.292,24.292,0,0,0-.892-4.129,27.065,27.065,0,0,0-1.486-4q1.784.066,3.5.066h2.312a1.512,1.512,0,0,0,.925-.33,1.406,1.406,0,0,0,.264-.991Zm68.632.33h8.125V-.855h-8.125Zm-9.776,21.6h27.347v8.191H134.784Zm8.191,4.36,4.756,2.378q-.793,3.369-1.883,7.035t-2.411,7.266q-1.321,3.6-2.84,6.837a38.65,38.65,0,0,1-3.171,5.615,29.364,29.364,0,0,0-1.057-3.006q-.661-1.618-1.42-3.237t-1.486-2.873a33.512,33.512,0,0,0,3.831-5.912q1.85-3.534,3.369-7.266A53.332,53.332,0,0,0,142.975-36.789Zm9.578,4.1a14.031,14.031,0,0,1,1.585,1.552q.991,1.09,2.213,2.411t2.411,2.675q1.189,1.354,2.114,2.444t1.321,1.618l-5.285,6.8q-.661-1.387-1.684-3.3t-2.246-3.93q-1.222-2.015-2.345-3.831t-2.048-3.072ZM134.52-57.6l6.077-1.585A46.943,46.943,0,0,1,142.117-54q.661,2.807,1.123,5.45a43.435,43.435,0,0,1,.595,4.822l-6.54,1.717a33.7,33.7,0,0,0-.4-4.822q-.4-2.708-1.024-5.549T134.52-57.6Zm21.865-1.982,7.332,1.585q-.859,2.708-1.751,5.582t-1.784,5.483q-.892,2.609-1.75,4.657l-5.483-1.519q.661-2.18,1.321-4.954t1.255-5.615Q156.121-57.2,156.385-59.579Zm24.837-3.567h8.191V-.789h-8.191ZM161.934-21.993l33.953-6.077,1.321,8.125L163.321-13.8ZM165.369-53.9l4.228-5.945q1.85,1.123,3.864,2.51t3.831,2.807a19.334,19.334,0,0,1,2.873,2.675l-4.558,6.606a19.707,19.707,0,0,0-2.708-2.84q-1.717-1.519-3.7-3.072T165.369-53.9Zm-2.906,16.646,4.1-6.275q1.916.991,4.029,2.345t4.029,2.741a22.349,22.349,0,0,1,3.1,2.642l-4.36,6.936a32.709,32.709,0,0,0-2.973-2.708q-1.85-1.519-3.93-3.006T162.462-37.252Zm68.765-17.5A61.023,61.023,0,0,1,224.456-47a81.819,81.819,0,0,1-9.017,7.629,81.585,81.585,0,0,1-10.371,6.474,23.17,23.17,0,0,0-1.453-2.312q-.925-1.321-1.982-2.609a17.674,17.674,0,0,0-2.048-2.147,62.171,62.171,0,0,0,10.9-6.738,79.489,79.489,0,0,0,9.281-8.323,49.1,49.1,0,0,0,6.507-8.323h9.182a64.62,64.62,0,0,0,5.879,7.2A66.588,66.588,0,0,0,248.2-49.8a62.773,62.773,0,0,0,7.53,5.185,58.945,58.945,0,0,0,7.861,3.864,29.557,29.557,0,0,0-3.138,3.732q-1.486,2.081-2.675,4.129a82.5,82.5,0,0,1-7.6-4.558,90.322,90.322,0,0,1-7.365-5.516q-3.534-2.94-6.507-5.912A49.843,49.843,0,0,1,231.227-54.757ZM214.647-43.4h33.292v7.663H214.647Zm-7.729,13.542h48.617v7.53H206.918ZM203.483-9.971h56.082v7.464H203.483ZM226.4-40.29h9.38V-6.271H226.4ZM210.683-20.077l7.068-2.906q1.189,1.585,2.411,3.534t2.213,3.8a18.107,18.107,0,0,1,1.453,3.435l-7.6,3.3a21.637,21.637,0,0,0-1.288-3.468q-.892-1.949-2.015-3.963T210.683-20.077Zm33.292-2.774,8.389,3.039q-2.048,2.973-4.1,5.912a59.016,59.016,0,0,1-3.831,4.987l-6.54-2.708q1.057-1.585,2.18-3.5t2.18-3.963A38.21,38.21,0,0,0,243.975-22.852Z" transform="translate(681.813 1003)" fill="#4d4d4d"/>
    <path id="パス_9" data-name="パス 9" d="M5.621-57.67h57.3v9.563H15.33V6.716H5.621Zm52.56,0h9.855V-4.38a15.7,15.7,0,0,1-.912,5.913,6.743,6.743,0,0,1-3.394,3.431,15.889,15.889,0,0,1-5.767,1.46q-3.431.292-8.4.292a15.067,15.067,0,0,0-.73-3.139q-.584-1.752-1.278-3.5A21.689,21.689,0,0,0,46.136-2.92q1.971.146,4.051.146h6.169a1.991,1.991,0,0,0,1.423-.4,1.867,1.867,0,0,0,.4-1.351Zm-47.3,27.156H63v9.636H10.877Zm20.513-21.9H41.1V-25.7H31.39Z" transform="translate(1346 1143)" fill="#4d4d4d"/>
    <path id="パス_8" data-name="パス 8" d="M29.283-16.34A28.648,28.648,0,0,0,37.8,4.214l3.268-1.548A26.76,26.76,0,0,1,33.153-16.34a26.76,26.76,0,0,1,7.912-19.006L37.8-36.894A28.648,28.648,0,0,0,29.283-16.34Zm32.035,3.784a78.962,78.962,0,0,0-5.676-5.805v-1.978h5.031v-3.784H55.642v-6.665a52.482,52.482,0,0,0,5.332-1.677l-2.752-3.053a63.212,63.212,0,0,1-13.416,3.44,12.326,12.326,0,0,1,1.161,3.1c1.849-.258,3.827-.559,5.805-.989v5.848H45.15v3.784h6.106a43.826,43.826,0,0,1-6.923,12.6,21.535,21.535,0,0,1,1.935,3.7,42.4,42.4,0,0,0,5.5-10.019V3.311h3.87V-14.405A53.4,53.4,0,0,1,59-9.417Zm4.687-11.481H78.217v7.267H66.005ZM77.916-.774c-.731,0-.86-.129-.86-1.333V-13.244h5.16V-27.52H77.873a77.623,77.623,0,0,0,4.386-7.224L78.174-36.12a38.151,38.151,0,0,1-3.741,7.353l3.182,1.247H66.822l2.838-1.29a30.879,30.879,0,0,0-3.913-7.224l-3.311,1.419a33.23,33.23,0,0,1,3.569,7.1H62.221v14.276h3.956C65.575-7.4,64.113-2.408,57.534.344a11.141,11.141,0,0,1,2.408,3.1c7.525-3.354,9.5-9.46,10.148-16.684h3.1v11.18c0,3.7.774,4.9,4.085,4.9h3.311c2.752,0,3.741-1.505,4.042-7.267a11.38,11.38,0,0,1-3.44-1.548c-.086,4.558-.258,5.2-1.032,5.2ZM103.458-34.1v3.784h7.654c.172,1.677.344,3.354.6,4.945l-1.462-.215c-1.591,8.514-5.074,15.05-11.18,18.834a26.356,26.356,0,0,1,3.139,3.01c5.074-3.612,8.557-8.9,10.75-15.867C114.9-12.642,118.207-7.1,123.883-3.741a17.5,17.5,0,0,1,3.139-3.053c-8.686-4.429-11.7-14.62-12.556-27.3Zm-4.644,5.59c-1.462-2.064-4.687-4.73-7.353-6.579L88.494-32.68a32.306,32.306,0,0,1,7.181,6.794Zm-1.161,9.116H88.236v3.7h5.5V-5.59A64.819,64.819,0,0,1,87.5-1.161l2.064,4.128c2.236-1.849,4.3-3.569,6.321-5.332C98.6.946,102.3,2.365,107.758,2.58c4.9.215,13.545.129,18.4-.086a18.215,18.215,0,0,1,1.333-4.085c-5.375.344-14.921.473-19.694.3-4.73-.172-8.256-1.548-10.148-4.515Zm45.064,3.053A28.648,28.648,0,0,0,134.2-36.894l-3.268,1.548a26.76,26.76,0,0,1,7.912,19.006,26.76,26.76,0,0,1-7.912,19.006L134.2,4.214A28.648,28.648,0,0,0,142.717-16.34Z" transform="translate(1404 1140)" fill="#4d4d4d"/>
    <path id="パス_6" data-name="パス 6" d="M77.956-87.228A161.668,161.668,0,0,0,61.449-59.9a156.555,156.555,0,0,0-9.507,27.006Q47.707-16.931,47.707-6.7H22.125Q23.249-38.618,44.25-73.071,57.819-94.43,66.98-102.859H4.494l.346-20.95h88.5v18.249Q87.809-100.4,77.956-87.228Zm98.439,0A161.668,161.668,0,0,0,159.888-59.9a156.555,156.555,0,0,0-9.507,27.006Q146.146-16.931,146.146-6.7H120.564q1.124-31.916,22.125-66.368,13.569-21.359,22.73-29.788H102.933l.346-20.95h88.5v18.249Q186.248-100.4,176.4-87.228ZM245.622-3.756q-23.94,0-33.576-15.876t-9.636-45.255q0-29.379,9.636-45.337t33.576-15.958q23.94,0,33.62,15.958,9.593,15.958,9.593,45.337T279.2-19.632Q269.562-3.756,245.622-3.756Zm14.433-29.87q3.371-10.8,3.371-31.261,0-21.441-3.414-31.752t-14.39-10.311q-10.976,0-14.52,10.311t-3.543,31.752q0,20.459,3.543,31.3t14.52,10.843Q256.6-22.742,260.055-33.626Z" transform="translate(684 1158.867)" fill="#e25406"/>
    <path id="パス_5" data-name="パス 5" d="M48.744-3.756q-23.94,0-33.576-15.876T5.531-64.887q0-29.379,9.636-45.337t33.576-15.958q23.94,0,33.62,15.958,9.593,15.958,9.593,45.337T82.321-19.632Q72.684-3.756,48.744-3.756Zm14.433-29.87q3.371-10.8,3.371-31.261,0-21.441-3.414-31.752T48.744-106.95q-10.976,0-14.52,10.311T30.681-64.887q0,20.459,3.543,31.3t14.52,10.843Q59.72-22.742,63.177-33.626Zm84.006,29.87q-23.94,0-33.576-15.876T103.97-64.887q0-29.379,9.636-45.337t33.576-15.958q23.94,0,33.62,15.958Q190.4-94.266,190.4-64.887T180.76-19.632Q171.123-3.756,147.183-3.756Zm14.433-29.87q3.371-10.8,3.371-31.261,0-21.441-3.414-31.752t-14.39-10.311q-10.976,0-14.52,10.311T129.12-64.887q0,20.459,3.543,31.3t14.52,10.843Q158.159-22.742,161.616-33.626Zm84.006,29.87q-23.94,0-33.576-15.876t-9.636-45.255q0-29.379,9.636-45.337t33.576-15.958q23.94,0,33.62,15.958,9.593,15.958,9.593,45.337T279.2-19.632Q269.562-3.756,245.622-3.756Zm14.433-29.87q3.371-10.8,3.371-31.261,0-21.441-3.414-31.752t-14.39-10.311q-10.976,0-14.52,10.311t-3.543,31.752q0,20.459,3.543,31.3t14.52,10.843Q256.6-22.742,260.055-33.626Z" transform="translate(1029 1158.867)" fill="#e25406"/>
    <path id="パス_4" data-name="パス 4" d="M0,0H29L4.359,45h-18.9Z" transform="translate(990 1121)" fill="#e25406"/>
  </g>
</svg>
