<svg id="レイヤー_2" data-name="レイヤー 2" xmlns="http://www.w3.org/2000/svg" width="650" height="370.685" viewBox="0 0 650 370.685">
  <g id="design">
    <path id="パス_95" data-name="パス 95" d="M292.11,35.65a66.8,66.8,0,0,0-3.6-6.5V46.7H283V29.05c-1.6,4.65-3.6,9.3-5.75,12.3a35.327,35.327,0,0,0-2.7-6.15c2.5-3.05,5.05-8.4,6.6-13h-5.7V16.7H283V.35h5.5V16.7h7.4v5.55h-7.4v.35c1.45,1.45,6.2,7,7.25,8.45ZM277.66,15.8a49.439,49.439,0,0,0-2.25-11.55l4.15-1.1a50.13,50.13,0,0,1,2.55,11.45ZM296.81,4c-1.3,4-2.75,8.75-4,11.65l-3.75-1.05a93,93,0,0,0,2.75-11.7Zm19.4,29.3V46.8h-5.6V34.3l-13.95,2.5-.9-5.55,14.85-2.65V.1h5.6V27.6l5.1-1,.9,5.55Zm-17.1-18.15a41.761,41.761,0,0,1,8.4,5.75l-3,4.75a42.28,42.28,0,0,0-8.2-6.25Zm7.25-1.8a40.231,40.231,0,0,0-7.75-6.5l2.85-4a37.571,37.571,0,0,1,8,6.05Z" fill="#ff0"/>
    <path id="パス_96" data-name="パス 96" d="M367,32.4c-1.9,2.75-3.85,5.8-5.6,7.9h11.3v5.1H330.4V40.3h9.75a34.35,34.35,0,0,0-4.15-8l4.55-1.95H332.9V25.2h15.2V20.25h-9.2V17.8a63.9,63.9,0,0,1-7.45,4.65,23.31,23.31,0,0,0-3.7-4.8C336.29,13.5,344.29,6,348,0h6.15A51.11,51.11,0,0,0,375.5,17.05a27.929,27.929,0,0,0-3.95,5.35,62.521,62.521,0,0,1-7.61-4.75v2.6h-9.55V25.2h15.4v5.1h-15.4v10h5.45L356.59,39a51.931,51.931,0,0,0,4.75-8.65Zm-26.15-2.1a33.728,33.728,0,0,1,4.6,8.25l-4.1,1.75h6.75v-10ZM360.5,15.05a53.352,53.352,0,0,1-9.2-9.25,52.16,52.16,0,0,1-8.85,9.25Z" fill="#ff0"/>
    <line id="線_2" data-name="線 2" x2="650" transform="translate(0 72.04)" fill="none" stroke="#fff" stroke-miterlimit="10" stroke-width="1.42"/>
    <path id="パス_97" data-name="パス 97" d="M58.71,98.16v3h-8v19.5H47.44V98.16Z" fill="#fff"/>
    <path id="パス_98" data-name="パス 98" d="M73.69,104.88a25,25,0,0,0-.32-3.92h4.31c-.11,1.15-.28,2.66-.28,3.92v5.46a115.2,115.2,0,0,1,14.81,5.6l-1.54,3.78A97.829,97.829,0,0,0,77.4,114.3c0,4.83,0,9.66,0,10.81s.11,3.22.25,4.48H73.41a38.071,38.071,0,0,0,.28-4.48Zm16.17,2.69-2.45,1.09a31.741,31.741,0,0,0-3.08-5.36l2.35-1A43.69,43.69,0,0,1,89.86,107.57Zm4.52-2L92,106.8a34.659,34.659,0,0,0-3.22-5.25l2.35-1.08a52.814,52.814,0,0,1,3.25,5.14Z" fill="#fff"/>
    <path id="パス_99" data-name="パス 99" d="M116.81,103.41c0,1.19-.1,2.34-.17,3.43h7.56a16.511,16.511,0,0,0,2.41-.21l2.45,1.19c-.1.59-.21,1.33-.24,1.78-.11,3.54-.56,13.55-2.1,17-.74,1.61-1.93,2.38-4.06,2.38-1.89,0-3.92-.14-5.71-.24l-.42-3.68a39.24,39.24,0,0,0,5.08.42,1.83,1.83,0,0,0,2-1.19c1.19-2.45,1.65-10.36,1.65-14.14h-9c-1.3,9.73-4.76,15.09-10.78,19.32l-3.22-2.62a18.7,18.7,0,0,0,4-2.94c3.4-3.19,5.53-7.42,6.41-13.76H107.4c-1.3,0-2.94,0-4.27.14v-3.68c1.33.14,2.9.25,4.27.25H113c.07-1,.11-2.17.11-3.36a23.338,23.338,0,0,0-.25-3H117C116.92,101.27,116.85,102.57,116.81,103.41ZM129,105l-2.31,1a41.368,41.368,0,0,0-2.8-4.83l2.28-.95A51.2,51.2,0,0,1,129,105Zm4-1.51-2.28,1a32.3,32.3,0,0,0-2.87-4.79l2.24-.95a44.423,44.423,0,0,1,2.91,4.69Z" fill="#fff"/>
    <path id="パス_100" data-name="パス 100" d="M141,124.8l-3-2.07a36.26,36.26,0,0,0,6.62-9.1l3.11,1.51A52.46,52.46,0,0,1,141,124.8Zm14.39-21.46v3.22h8.78a23.341,23.341,0,0,0,3.115-.209L167.29,110c-1-.07-2.21-.07-3.08-.07h-8.82v16.66c0,1.89-1,3-3.29,3a51.089,51.089,0,0,1-5.29-.25l-.31-3.46a23.76,23.76,0,0,0,4,.38c.91,0,1.29-.35,1.33-1.29v-15H142.5c-1.08,0-2.2,0-3.15.1V106.4a30.42,30.42,0,0,0,3.12.21h9.38V103.3a14.91,14.91,0,0,0-.28-2.73h4.13a18.148,18.148,0,0,0-.28,2.77Zm13.16,19.43-3.22,1.82a61.441,61.441,0,0,0-5.81-9.35l3-1.64a75.8,75.8,0,0,1,6.06,9.17ZM165,97.88a3.92,3.92,0,1,1-3.92,3.92A3.92,3.92,0,0,1,165,97.88Zm0,6a2.1,2.1,0,1,0-2.1-2.1A2.1,2.1,0,0,0,165,103.88Z" fill="#fff"/>
    <path id="パス_101" data-name="パス 101" d="M190.41,120.28a33.22,33.22,0,0,0,12.14-13.2l2.14,3.82a35.8,35.8,0,0,1-12.29,12.67,38.56,38.56,0,0,1-13.4,5.22l-2.35-3.61A36.19,36.19,0,0,0,190.41,120.28Zm-1.19-11.2-2.77,2.84a75.46,75.46,0,0,0-8.75-7.43l2.56-2.73a74,74,0,0,1,8.96,7.32Z" fill="#fff"/>
    <path id="パス_102" data-name="パス 102" d="M240.4,106.94A55.729,55.729,0,0,1,228,121c2.07,2.06,4.34,4.51,5.74,6.19l-3.22,2.59a90.211,90.211,0,0,0-6.47-7.35,83.56,83.56,0,0,0-7.88-6.79l2.87-2.34c1.33,1,4,3.11,6.3,5.18a41.27,41.27,0,0,0,10-11.24H215.72c-1.4,0-3,.14-3.78.21v-3.92a30.4,30.4,0,0,0,3.78.28H236a9,9,0,0,0,2.7-.32l2.76,2.28A6.393,6.393,0,0,0,240.4,106.94Z" fill="#fff"/>
    <path id="パス_103" data-name="パス 103" d="M252.26,112.44h19c1.68,0,3.05-.14,3.92-.21v4.34c-.77,0-2.38-.17-3.92-.17h-19c-1.93,0-4,.07-5.22.17v-4.34C248.2,112.3,250.37,112.44,252.26,112.44Z" fill="#fff"/>
    <path id="パス_104" data-name="パス 104" d="M295.11,103.27c-.31.87-.7,2-1.15,3.08h15.89a24.789,24.789,0,0,0,3.43-.21v3.78c-1.19-.07-2.63-.1-3.43-.1h-5.46c-.6,9.69-4.41,15.75-10.57,19.63l-3.71-2.52a13.91,13.91,0,0,0,3-1.75c3.54-2.69,6.93-7.17,7.46-15.36h-8.3a29.09,29.09,0,0,1-5.74,7.45l-3.46-2.1a27.18,27.18,0,0,0,6.16-7.39,26.293,26.293,0,0,0,2-4.86,14.178,14.178,0,0,0,.6-3.12l4.27.81C295.78,101.45,295.39,102.53,295.11,103.27Z" fill="#fff"/>
    <path id="パス_105" data-name="パス 105" d="M324.67,110.59h22.89a28.38,28.38,0,0,0,2.94-.18V114c-.8-.07-2-.11-2.94-.11h-9a21.81,21.81,0,0,1-2.17,9.35,16.81,16.81,0,0,1-7,6.51l-3.22-2.35a15,15,0,0,0,6.48-5.21,16,16,0,0,0,2.1-8.3H324.67a29.959,29.959,0,0,0-3.19.11v-3.61a29.486,29.486,0,0,0,3.19.2Zm4.34-8.83h14.14a29.828,29.828,0,0,0,3.5-.24v3.6c-1.12-.07-2.41-.1-3.5-.1h-14.1c-1.16,0-2.45,0-3.43.1v-3.6a26.649,26.649,0,0,0,3.38.24Z" fill="#fff"/>
    <path id="パス_106" data-name="パス 106" d="M369.88,113.25a37.689,37.689,0,0,0,8.51-7.29l2.73,2.66a48.771,48.771,0,0,1-7.88,6.45v12.28a22.174,22.174,0,0,0,.18,3.36h-4.06c.07-.59.14-2.24.14-3.36V117.27a71.469,71.469,0,0,1-10.5,4.41l-1.68-3.29a48.49,48.49,0,0,0,12.56-5.14Z" fill="#fff"/>
    <path id="パス_107" data-name="パス 107" d="M403.17,120.28a33.25,33.25,0,0,0,12.15-13.2l2.13,3.82a35.771,35.771,0,0,1-12.28,12.67,38.62,38.62,0,0,1-13.41,5.22l-2.34-3.61a36.2,36.2,0,0,0,13.75-4.9ZM402,109.08l-2.76,2.84a75.46,75.46,0,0,0-8.75-7.43l2.55-2.73a74,74,0,0,1,8.96,7.32Z" fill="#fff"/>
    <path id="パス_108" data-name="パス 108" d="M438.13,104.53c-.17.31-.31.59-.52.91H446a9.41,9.41,0,0,0,2.63-.35l2.87,1.75a12.292,12.292,0,0,0-1,2.13,34.68,34.68,0,0,1-6.16,11.91c-3.22,4-7.46,7.17-14,9.69l-3.26-2.94a28,28,0,0,0,14-8.71,26.33,26.33,0,0,0,5.32-10.33h-11a36.15,36.15,0,0,1-8.85,8.54l-3.08-2.27a30,30,0,0,0,11-11.59,16.67,16.67,0,0,0,1.29-3.15l4.06,1.33C439.25,102.5,438.52,103.83,438.13,104.53Zm13.55-.18-2.31,1a41.106,41.106,0,0,0-2.77-4.83l2.24-.94a50.255,50.255,0,0,1,2.84,4.77Zm4-1.54-2.28,1A34.349,34.349,0,0,0,450.56,99l2.24-1a41.157,41.157,0,0,1,2.91,4.81Z" fill="#fff"/>
    <path id="パス_109" data-name="パス 109" d="M478.18,111.53c2.38,7.28,6.79,13.2,13.4,16a12.882,12.882,0,0,0-2.41,3c-6.55-3-10.78-8.72-13.51-16.14a24.25,24.25,0,0,1-13.51,16.14,11.39,11.39,0,0,0-2.49-2.73c8.33-3.64,11.73-9.94,13.13-16.28H460.36v-3.36h13a86.541,86.541,0,0,0,.42-9.66h3.54a89.7,89.7,0,0,1-.49,9.66H491v3.36Z" fill="#fff"/>
    <path id="パス_110" data-name="パス 110" d="M528.79,121.09H515v5.84c0,1.79-.45,2.7-1.89,3.19a24.5,24.5,0,0,1-6.54.49,17.9,17.9,0,0,0-1.37-3.15c2.45.1,4.9.1,5.6.07s.88-.18.88-.7v-5.74H498v-3h13.66v-2.42h1.64a27.428,27.428,0,0,0,4-2.62H504V110.2h16.41l.7-.18,2.1,1.58a31.411,31.411,0,0,1-8.19,6v.46h13.79Zm-27.12-8.93h-3.05v-8h5a22.31,22.31,0,0,0-2.73-4l2.8-1.26a21.691,21.691,0,0,1,3.26,4.69l-1.26.59h6.47a25.58,25.58,0,0,0-2.45-4.79l2.84-1a20.469,20.469,0,0,1,2.83,5.18l-1.71.66h5.91a36.569,36.569,0,0,0,3.4-5.46l3.43,1.09c-1,1.5-2.17,3-3.26,4.37h5.08v8h-3.22V107H501.67Z" fill="#fff"/>
    <path id="パス_111" data-name="パス 111" d="M546.82,119.9c-.53-1.16-1.61-3.15-2.63-4.87v15.54h-3V115.66a34,34,0,0,1-4,8.61,13.463,13.463,0,0,0-1.57-2.9c2.13-2.91,4.2-8.09,5.25-12.57h-4.52v-3h4.8V98.47h3v7.32h4v3h-4V111c1,1.26,3.82,5.46,4.45,6.44Zm17.26-5.85a28.38,28.38,0,0,1-4.06,8.3,21.12,21.12,0,0,0,8.33,5.46,12.81,12.81,0,0,0-2.28,2.87,23.07,23.07,0,0,1-8.15-5.81,24.839,24.839,0,0,1-9.14,5.84,16.161,16.161,0,0,0-1.68-2.59,21.811,21.811,0,0,0,8.85-5.7,32.32,32.32,0,0,1-4.13-8l2.8-.8a24.578,24.578,0,0,0,3.33,6.26,21.441,21.441,0,0,0,2.84-6.47Zm-8.23-5.64a26.87,26.87,0,0,1-6,7.88,13.9,13.9,0,0,0-2.2-2.06,21.581,21.581,0,0,0,5.25-7Zm11.83-2H548.57v-3h7.84v-5h3.26v5h8Zm-5,.63a34.878,34.878,0,0,1,5.64,7.36l-2.77,1.6a35.291,35.291,0,0,0-5.43-7.53Z" fill="#fff"/>
    <path id="パス_112" data-name="パス 112" d="M591.54,129.17l-2.07-3.29a21.144,21.144,0,0,0,3.12-.49c4.48-1,8.47-4.3,8.47-9.94,0-5.07-3.08-9.1-8.47-9.77a70.467,70.467,0,0,1-2.1,9.84c-2.1,7.14-5,11.1-8.47,11.1s-6.65-3.85-6.65-9.7c0-7.84,6.86-14.56,15.64-14.56,8.41,0,13.73,5.88,13.73,13.2S600.05,128,591.54,129.17Zm-9.42-6.72c1.58,0,3.22-2.27,4.83-7.66a55.431,55.431,0,0,0,1.93-9c-6.3,1-10,6.48-10,10.82C578.9,120.6,580.62,122.45,582.12,122.45Z" fill="#fff"/>
    <path id="パス_113" data-name="パス 113" d="M124,175.91a21.4,21.4,0,0,1-7.46,8.5,45.93,45.93,0,0,0,12.32,2.91,13.67,13.67,0,0,0-2,3.08,43.289,43.289,0,0,1-13.65-4.06,48.85,48.85,0,0,1-13.83,4.09,10.16,10.16,0,0,0-1.89-2.94,47.64,47.64,0,0,0,12.57-3.08,23.65,23.65,0,0,1-6.37-6.44l.63-.28h-1.51v-3h18.38l.59-.1Zm-22.68-.21h-3v-7.25h5.29a23.6,23.6,0,0,0-2-4.17l2.84-.8a18.91,18.91,0,0,1,2.24,4.37l-1.89.6h7.56a20,20,0,0,0-1.58-4.94l2.91-.63a19.94,19.94,0,0,1,1.75,4.83l-2.94.74h7a37.439,37.439,0,0,0,2.8-5.64l3.4.91c-.91,1.58-1.93,3.33-2.91,4.73h5.5v7.25H125v-4.38H101.34ZM126.57,161c-7.35,1.47-18.13,2.31-27.23,2.62a8.9,8.9,0,0,0-.7-2.76c9-.35,19.57-1.23,25.66-2.52Zm-19.39,16.73a19.39,19.39,0,0,0,6.13,5.15,17.68,17.68,0,0,0,5.81-5.15Z" fill="#fff"/>
    <path id="パス_114" data-name="パス 114" d="M135,164.35h11.8v2.59H135Zm11,24.72h-6.82v1.5h-2.7V178.81H146Zm-.14-17.33h-9.34v-2.52h9.34ZM136.49,174h9.34v2.52h-9.34Zm9.2-11.8h-9v-2.55h9Zm-6.54,19.26v5h4.09v-5Zm28.14,3.85h-1.86v2.24c0,1.47-.28,2.2-1.36,2.62a15.272,15.272,0,0,1-4.94.42,9.921,9.921,0,0,0-.77-2.55c1.51.07,3,.07,3.5.07s.56-.18.56-.6v-2.2H151.61v5.32h-2.77v-5.32h-2V182.7h2V174h6.76v-1.68h-8.68v-2.56h4.86v-1.93h-3.25v-2.34h3.25v-1.86h-3.92V161.2h3.92v-2.73h2.94v2.73h4.87v-2.73h2.94v2.73h4.13v2.38h-4.13v1.86H166v2.34h-3.43v1.93h4.69v2.56H158.4V174h7.07v8.75h1.86Zm-15.68-9v2.14h4v-2.14Zm0,6.41h4v-2.14h-4Zm3.11-17.26h4.87V163.6h-4.87Zm0,4.27h4.87V167.8h-4.87Zm3.64,6.58v2.14h4.06v-2.14Zm4.06,6.41v-2.14h-4.06v2.14Z" fill="#fff"/>
    <path id="パス_115" data-name="パス 115" d="M182.8,173.53c1,1.12,4.41,5.39,5.14,6.44l-2.06,2.55c-.6-1.26-1.93-3.46-3.08-5.32v13.37h-3.05v-13.4a36.07,36.07,0,0,1-4.45,9.27,17.66,17.66,0,0,0-1.57-3.25,34.74,34.74,0,0,0,5-10.05h-4.45v-3h5.43V158.65h3.05V170.1h5.46v3H182.8Zm-6.62-4.38a34.27,34.27,0,0,0-1.75-7.91l2.34-.6a35.691,35.691,0,0,1,1.93,7.81Zm12.32-8c-.87,2.73-2,6-2.83,8l-2.1-.67a60.911,60.911,0,0,0,2.13-8ZM202.08,181v9.66h-3v-9.1l-10.36,1.89-.53-3,10.89-2V158.51h3v19.36l3.89-.67.45,3Zm-7.52-5a26.711,26.711,0,0,0-5.78-4.24l1.54-2.35a29.9,29.9,0,0,1,5.85,4Zm1.4-8.48a25.719,25.719,0,0,0-5.46-4.51l1.64-2.21a27.9,27.9,0,0,1,5.53,4.24Z" fill="#fff"/>
    <path id="パス_116" data-name="パス 116" d="M219,163.69a91.853,91.853,0,0,0-1.72,13.86,22.868,22.868,0,0,0,.28,3.75c.49-1.44,1.26-3.19,1.82-4.48l1.75,1.36c-.94,2.66-2.13,6.23-2.52,8a9.489,9.489,0,0,0-.17,1.61c0,.35.07.87.1,1.29l-3.11.25a40.759,40.759,0,0,1-1.37-11.13,107.483,107.483,0,0,1,1.54-14.67c.11-.88.25-2,.28-2.91l3.82.35C219.5,161.62,219.15,163.06,219,163.69Zm17.68-.84c0,.87-.07,2.38-.11,4a55,55,0,0,0,5.81-.81v3.4c-1.82.28-3.78.53-5.81.67,0,3.5.28,6.65.39,9.34a23.13,23.13,0,0,1,6.89,4.52L242,186.9a33.369,33.369,0,0,0-4.86-3.89v.18c0,3.22-1.54,6-6.41,6-4.72,0-7.49-2-7.49-5.32s2.77-5.6,7.46-5.6a18.561,18.561,0,0,1,2.83.21c-.14-2.45-.28-5.46-.35-8.19-1,0-2,.07-2.94.07-2,0-4-.1-6-.24v-3.3a57.133,57.133,0,0,0,6.06.32c1,0,1.92,0,2.9-.07v-4.13a16.25,16.25,0,0,0-.21-2.24h4a19.914,19.914,0,0,0-.3,2.15Zm-6.44,23.07c2.59,0,3.39-1.33,3.39-3.54v-.94a11.08,11.08,0,0,0-3.25-.49c-2.35,0-4,1-4,2.52s1.62,2.45,3.87,2.45Z" fill="#fff"/>
    <path id="パス_117" data-name="パス 117" d="M258.52,163.69c-1.68,4.27-4.31,9.24-7.39,12.36a16,16,0,0,0-2.94-1.93,28.94,28.94,0,0,0,6.72-11.27Zm17.08,10.47c-3.29,10.18-10.33,14.52-23,16.55a13.11,13.11,0,0,0-1.75-3.25c11.94-1.47,18.41-5.25,21.35-14.32ZM266,158.47v17.3c0,1.89-.39,2.8-1.68,3.32s-3.29.63-6.16.63A13.2,13.2,0,0,0,257,176.4h4.9c.6,0,.84-.17.84-.73v-17.2Zm7.21,4c2.9,3.5,6.12,8.19,7.42,11.45l-3.33,1.78c-1.12-3.18-4.2-8-7.1-11.69Z" fill="#fff"/>
    <path id="パス_118" data-name="パス 118" d="M294.31,164.39c-.17,3.88-.42,12-.42,16.8,0,3.71,2.28,5,5.32,5,6.13,0,9.8-3.46,12.32-7.21L314,182a17.8,17.8,0,0,1-14.88,7.84c-5.32,0-8.89-2.28-8.89-8.09,0-5,.35-14,.35-17.36a20.611,20.611,0,0,0-.38-4.06h4.48A33.076,33.076,0,0,0,294.31,164.39Z" fill="#fff"/>
    <path id="パス_119" data-name="パス 119" d="M351.48,161.59v2.83h-30.2v-2.83h13.26v-3.15h3.33v3.15Zm-1.19,25.34c0,1.65-.35,2.56-1.54,3.08s-3,.53-5.77.53a11.76,11.76,0,0,0-1-3h-9.34v1.68H329.8V180H343v7.56a29.718,29.718,0,0,0,3.29,0c.56,0,.74-.14.74-.59V178h-21.1v12.57h-3.18v-15.3h27.54Zm-4.48-20.83v7.32H327V166.1Zm-3.29,2.24H330.13v2.84h12.39Zm-2.41,13.94h-7.49v3h7.49Z" fill="#fff"/>
    <path id="パス_120" data-name="パス 120" d="M363.83,166.94a78.314,78.314,0,0,0,.24,7.88c.53,5.5,2,9.21,4.31,9.21,1.75,0,3.29-3.82,4.09-7l2.77,3.25c-2.21,6-4.38,8.05-6.93,8.05-3.54,0-6.79-3.36-7.74-12.56-.35-3.08-.38-7.29-.38-9.39a18,18,0,0,0-.28-3.29l4.27.07a28.005,28.005,0,0,0-.35,3.78Zm24.54,14.85-3.61,1.4c-.59-6-2.59-13.8-6.12-18L382.1,164c3.22,4.1,5.81,12.12,6.27,17.79Z" fill="#fff"/>
    <path id="パス_121" data-name="パス 121" d="M408.17,165a34,34,0,0,0,5.15-1.19l.1,3.22a47.873,47.873,0,0,1-6.26,1.26,62.571,62.571,0,0,1-7.6,14.88l-3.36-1.72a52.34,52.34,0,0,0,7.35-12.78c-.87,0-1.71.07-2.55.07-1.33,0-2.8,0-4.2-.1l-.25-3.26c1.37.14,3.05.21,4.45.21a31.559,31.559,0,0,0,3.6-.14,28.27,28.27,0,0,0,1-6l3.85.38C409.19,161.1,408.7,163.06,408.17,165Zm9.53,9.8c0,1.16.14,3.19.24,5.18a23.07,23.07,0,0,1,7.25,4.41l-1.86,3a27,27,0,0,0-5.25-3.92v1c0,3-1.78,5.39-6.41,5.39-4.06,0-7.35-1.75-7.35-5.39,0-3.29,3-5.6,7.32-5.6a20,20,0,0,1,3,.24c-.1-2.76-.27-6.05-.35-8.36h3.44a39.566,39.566,0,0,0-.03,4.07Zm-6.48,11.83c2.66,0,3.53-1.47,3.53-3.36v-1.19a12.22,12.22,0,0,0-3.26-.45c-2.31,0-3.88,1-3.88,2.48s1.23,2.54,3.61,2.54Zm4.87-19.5,1.78-2.69a62,62,0,0,1,8.4,4.69l-2,2.91a45,45,0,0,0-8.18-4.89Z" fill="#fff"/>
    <path id="パス_122" data-name="パス 122" d="M442.15,185.5a2.7,2.7,0,1,1,2.7,2.7,2.71,2.71,0,0,1-2.7-2.7Z" fill="#fff"/>
    <path id="パス_123" data-name="パス 123" d="M455.75,185.5a2.7,2.7,0,1,1,2.7,2.7,2.71,2.71,0,0,1-2.7-2.7Z" fill="#fff"/>
    <path id="パス_124" data-name="パス 124" d="M469.36,185.5a2.7,2.7,0,1,1,1.3,2.474,2.7,2.7,0,0,1-1.3-2.474Z" fill="#fff"/>
    <path id="パス_125" data-name="パス 125" d="M481.89,190.92v-3h8v-19.5h3.26v22.51Z" fill="#fff"/>
    <path id="パス_126" data-name="パス 126" d="M535,170.41c3.08-1.86,6.54-3.57,8.36-4.59a18.869,18.869,0,0,0,2.8-1.85l1.93,3.18c-.91.56-1.89,1.09-3,1.65a113.161,113.161,0,0,0-10.29,5.53c-3.08,2-5,4.24-5,6.79,0,2.73,2.62,4.34,7.84,4.34a51.82,51.82,0,0,0,11.3-1.26v4a66.907,66.907,0,0,1-11.13.84c-6.76,0-11.73-1.92-11.73-7.52,0-3.71,2.38-6.58,5.95-9.1-1.61-2.95-3.36-6.9-5-10.65l3.46-1.43A81.749,81.749,0,0,0,535,170.41Z" fill="#fff"/>
    <path id="パス_127" data-name="パス 127" d="M153,238.15h-9.66v-7.39H153v6.55a20.37,20.37,0,0,0,4-3.43,34.7,34.7,0,0,1-2.91-9.39H141.92v2.63c0,4.13-.63,10-3.85,13.9a11.5,11.5,0,0,0-2.38-2c2.9-3.53,3.25-8.4,3.25-11.94v-5.21h14.74c-.14-1.12-.25-2.24-.28-3.4h3.08a27.207,27.207,0,0,0,.24,3.4H162a24.333,24.333,0,0,0-3.78-1.82l1.61-1.86a18.66,18.66,0,0,1,5,2.38l-1.09,1.3h3.54v2.62H157.14a31.459,31.459,0,0,0,1.93,6.62,24.66,24.66,0,0,0,2.48-5.29l3.08.7a30,30,0,0,1-4,7.67c1.22,1.93,2.55,3.05,3.78,3.05.8,0,1.16-1.19,1.33-4.27a9.15,9.15,0,0,0,2.52,1.43c-.49,4.59-1.57,5.78-4,5.78-2.06,0-4-1.33-5.6-3.57a24.209,24.209,0,0,1-3.81,3.25A12.521,12.521,0,0,0,153,238Zm-17.08,9.94a12.92,12.92,0,0,0,4.52-6.76l2.87,1c-.88,2.8-2.24,5.74-4.66,7.56Zm17.5-19.4H143v-2.17h10.46Zm2.42,18.56c1.43,0,1.68-.42,1.82-3.43a10.06,10.06,0,0,0,2.9,1.19c-.38,4.13-1.33,5.14-4.41,5.14H149.9c-4,0-5-.87-5-3.92v-5h3.22v5c0,.91.28,1.05,2.06,1.05ZM150.32,233H146v3h4.31Zm-.39,5.39a21.72,21.72,0,0,1,5.71,4.06l-2.28,2a21.43,21.43,0,0,0-5.56-4.23Zm12.29,2.55a24.48,24.48,0,0,1,5.95,7.07l-3,1.54a23.8,23.8,0,0,0-5.63-7.21Z" fill="#fff"/>
    <path id="パス_128" data-name="パス 128" d="M181.73,224.6c-.17,3.88-.45,12-.45,16.8,0,3.71,2.31,5,5.35,5,6.16,0,9.8-3.46,12.32-7.17l2.49,3a17.87,17.87,0,0,1-14.88,7.87c-5.32,0-8.89-2.27-8.89-8.12,0-5,.35-14,.35-17.36a18.371,18.371,0,0,0-.38-4.06h4.48a33.661,33.661,0,0,0-.39,4.04Zm13.09,4.4-2.52,1.12a35.791,35.791,0,0,0-3.25-5.7l2.45-1.05a50.322,50.322,0,0,1,3.32,5.63Zm4.73-2-2.49,1.19a37.269,37.269,0,0,0-3.36-5.53l2.42-1.12a58,58,0,0,1,3.43,5.51Z" fill="#fff"/>
    <path id="パス_129" data-name="パス 129" d="M216.36,221.8c1.82,0,9.8-.21,11.69-.39a10.109,10.109,0,0,0,2.24-.31l1.93,2.52a26.136,26.136,0,0,0-2.21,1.5c-1.78,1.33-6.09,5-8.57,7a14.51,14.51,0,0,1,4.2-.6c5.84,0,10.18,3.61,10.18,8.51,0,5.56-4.44,9.55-12.32,9.55-4.83,0-8.05-2.13-8.05-5.32,0-2.59,2.31-4.93,5.78-4.93a6.91,6.91,0,0,1,7.28,6.12,5.69,5.69,0,0,0,3.71-5.49c0-3.29-3.22-5.67-7.6-5.67-5.6,0-8.89,2.62-13,7l-2.55-2.59c2.73-2.24,7.1-5.91,9.17-7.63s6-5,7.77-6.51c-1.86.07-7.91.35-9.73.45a21.215,21.215,0,0,0-2.59.21l-.11-3.6a26.787,26.787,0,0,0,2.78.18Zm6.51,24.64a17.883,17.883,0,0,0,2.49-.14c-.28-2.55-1.82-4.34-4.13-4.34a2.33,2.33,0,0,0-2.56,2C218.67,245.5,220.39,246.44,222.87,246.44Z" fill="#fff"/>
    <path id="パス_130" data-name="パス 130" d="M255.66,222.81c-.21,1.09-.53,2.77-.84,4.41,1.43-.14,2.69-.21,3.5-.21,3.39,0,5.95,1.37,5.95,6.27,0,4.13-.53,9.77-2,12.71-1.12,2.41-2.94,3-5.39,3a19.588,19.588,0,0,1-4.16-.49l-.56-3.64a18.188,18.188,0,0,0,4.27.7,2.74,2.74,0,0,0,2.87-1.68c1.05-2.17,1.57-6.61,1.57-10.25,0-3-1.36-3.54-3.57-3.54-.73,0-1.89.07-3.22.21-1.29,5.15-3.78,13.23-7.24,18.83l-3.61-1.43c3.5-4.73,6-12.29,7.28-17.05-1.61.18-3,.35-3.85.46s-2.48.31-3.46.49l-.35-3.79c1.19.07,2.2,0,3.39,0s3-.17,5-.35a38.69,38.69,0,0,0,.8-7.52l4.1.42C256,221.13,255.8,222,255.66,222.81Zm18.83,13.87L271,238.29c-1-3.71-3.6-10-6-13l3.25-1.4A63.535,63.535,0,0,1,274.49,236.68Z" fill="#fff"/>
    <path id="パス_131" data-name="パス 131" d="M294,222.85c-.11.77-.25,1.85-.42,3.18a46.881,46.881,0,0,0,6.79-.45l-.11,3.29a67.2,67.2,0,0,1-7,.35h-.07c-.25,1.82-.49,3.82-.7,5.64h.49a56.791,56.791,0,0,0,7.17-.42l-.1,3.29c-2.14.21-4.27.35-6.55.35h-1.33c-.1,1.22-.17,2.31-.17,3,0,3.19,1.85,5,5.6,5,5.11,0,8.19-2.27,8.19-5.56,0-2.38-1.26-4.83-3.71-7l3.88-.81c2.35,2.77,3.5,5.22,3.5,8.23,0,5.25-4.69,8.68-11.93,8.68-5.08,0-9-2.21-9-8,0-.91.1-2.24.24-3.81a38.422,38.422,0,0,1-7-1.19l.17-3.36a29.93,29.93,0,0,0,7.18,1.4c.25-1.86.49-3.82.74-5.68a44.36,44.36,0,0,1-7.28-1.22l.17-3.22a34.158,34.158,0,0,0,7.46,1.33c.17-1.26.28-2.38.35-3.29a15.209,15.209,0,0,0,0-2.77l3.92.21C294.27,221.17,294.13,222,294,222.85Z" fill="#fff"/>
    <path id="パス_132" data-name="パス 132" d="M324.6,224.39c-.17,3.88-.42,12-.42,16.8,0,3.71,2.28,5,5.32,5,6.13,0,9.8-3.46,12.32-7.21l2.49,3.05a17.8,17.8,0,0,1-14.88,7.84c-5.32,0-8.89-2.28-8.89-8.09,0-5,.35-14,.35-17.36a19.837,19.837,0,0,0-.39-4.06h4.49A33.066,33.066,0,0,0,324.6,224.39Z" fill="#fff"/>
    <path id="パス_133" data-name="パス 133" d="M360.09,219.8l4.06.14c-.17.91-.45,2.77-.73,5.08h.1l1.16,1.47c-.42.63-1.09,1.65-1.65,2.52a11.307,11.307,0,0,1-.14,1.51c2.77-2.49,7.07-5.64,10.54-5.64s5.15,2,5.15,4.94c0,3.54-1.26,9.17-1.26,12.78,0,1.05.52,1.89,1.61,1.89,1.5,0,3.25-1,5-2.73l.52,3.81a9.17,9.17,0,0,1-6.51,2.8c-2.45,0-4.09-1.68-4.09-4.79,0-3.85,1.29-9.35,1.29-12.64,0-1.93-1-2.77-2.66-2.77-2.73,0-6.76,3.3-9.8,6.59-.07,1.26-.11,2.48-.11,3.57,0,3,0,5.53.18,8.71,0,.63.1,1.65.17,2.38h-3.78c.07-.73.11-1.75.11-2.31,0-3.29,0-5.28.14-9.17-1.65,2.42-3.71,5.43-5.18,7.46L352,242.31c1.92-2.45,5.74-7.49,7.63-10.32l.21-3.05c-1.65.21-4.55.59-6.65.88l-.35-3.58a21.1,21.1,0,0,0,2.62,0c1.09-.07,2.91-.28,4.59-.53.1-1.5.17-2.66.17-3a19.568,19.568,0,0,0-.13-2.91Z" fill="#fff"/>
    <path id="パス_134" data-name="パス 134" d="M407.19,222.22c0,.42,0,1.08-.07,1.85a75.7,75.7,0,0,0,9.2-1v3.22c-2.59.32-5.84.63-9.24.77v4.35c3.47-.14,6.55-.46,9.59-.88v3.26c-3.22.38-6.13.63-9.49.77.07,1.61.18,3.29.25,4.86a28,28,0,0,1,10,5.36l-2,3.11a26.88,26.88,0,0,0-7.84-5.11c0,.74.07,1.33.07,1.82,0,2.66-1.92,5.08-6.51,5.08-5.25,0-8.08-2-8.08-5.46s3.11-5.64,8.33-5.64c.91,0,1.75.07,2.59.14,0-1.36-.11-2.8-.14-4.09H401.9c-2.24,0-6.12-.18-8.54-.46v-3.29a67.5,67.5,0,0,0,8.64.63h1.79V227.2h-1.44c-2.31,0-6.51-.35-8.78-.63v-3.18a63.551,63.551,0,0,0,8.79.77h1.5V222a11.462,11.462,0,0,0-.17-2.2h3.74A13.985,13.985,0,0,0,407.19,222.22Zm-6.51,24.36c2,0,3.46-.59,3.46-2.83v-2a15.9,15.9,0,0,0-3.19-.32c-3,0-4.58,1.16-4.58,2.56S397.67,246.58,400.68,246.58Z" fill="#fff"/>
    <path id="パス_135" data-name="パス 135" d="M449.84,223.41c0,1.5,0,3-.07,4.41,1.19-.11,2.35-.18,3.33-.25s2.1-.14,3-.21v3.44h-3.05c-.91,0-2.06.07-3.36.14a54.2,54.2,0,0,1-.52,7.21c-.35,1.68-1.16,2.14-2.84,2.14a40.178,40.178,0,0,1-4.9-.53l.07-3a21,21,0,0,0,3.36.45c.81,0,1.16-.14,1.23-.91a50.219,50.219,0,0,0,.35-5.07c-3.4.28-7.21.63-10.47,1,0,3.43-.07,6.89,0,8.33.11,3.6.25,4.72,5.95,4.72a65.927,65.927,0,0,0,10.43-.87l-.1,3.74a98.474,98.474,0,0,1-10.12.6c-8.5,0-9.41-1.89-9.55-7.67v-8.47c-1.29.14-2.38.25-3.15.35-1.08.14-2.91.39-3.82.53l-.38-3.58c1.05,0,2.49-.06,4-.21l3.39-.31v-4.27a21.341,21.341,0,0,0-.24-3.36h3.88a28.783,28.783,0,0,0-.17,3.18c0,1,0,2.45,0,4.13,3.22-.31,7-.66,10.54-1v-4.55a22.24,22.24,0,0,0-.25-2.87H450a20,20,0,0,0-.16,2.76Z" fill="#fff"/>
    <path id="パス_136" data-name="パス 136" d="M478,223.55c-1.61,2.45-4.52,7.67-6.27,10.92a7.76,7.76,0,0,1,4.66-1.68c2.49,0,4.1,1.58,4.24,4.41.07,1.82,0,4.55.14,6.16a2.28,2.28,0,0,0,2.55,2.24c3.54,0,5.67-4.41,6.62-8.43l2.94,2.41c-1.82,5.81-4.9,9.77-10.12,9.77-3.81,0-5.28-2.35-5.39-4.62-.14-2-.1-4.76-.21-6.48a2.12,2.12,0,0,0-2.31-2.2c-2.63,0-5,2.66-6.3,5.46a64.165,64.165,0,0,0-2.87,7.87l-3.85-1.29c2.59-7.07,10-21.39,11.9-24.75a30.114,30.114,0,0,0,1.47-3.08l3.92,1.57A16.6,16.6,0,0,0,478,223.55Z" fill="#fff"/>
    <path id="パス_137" data-name="パス 137" d="M510.22,244.73a5.5,5.5,0,1,1-5.5-5.5,5.5,5.5,0,0,1,5.5,5.5Zm-2.1,0a3.36,3.36,0,1,0-3.36,3.36A3.36,3.36,0,0,0,508.12,244.73Z" fill="#fff"/>
    <path id="パス_154" data-name="パス 154" d="M133.56,350.87a39.721,39.721,0,0,1-5.78,6.75v8.75c0,2-.42,3.08-1.82,3.68s-3.67.56-7.1.56a13.11,13.11,0,0,0-1.16-3.43c2.49.1,5,.07,5.78.07s.94-.25.94-.91v-5.88a61.4,61.4,0,0,1-20.09,9.87,24.621,24.621,0,0,0-2.21-3,58.549,58.549,0,0,0,16.56-6.89c-5.81.49-11.41.91-15.68,1.19l-.49-3.22,5.32-.28v-16.3H115a27.528,27.528,0,0,0,1.26-3.46l4,.52c-.52,1-1.08,2-1.64,2.94h9.2v11a35.928,35.928,0,0,0,2.63-3.5Zm-22.47-6.2v2.73h13.33v-2.73Zm13.33,5.11H111.09v2.77h13.33ZM111.09,358c3.78-.21,7.94-.42,12.07-.7.42-.35.84-.7,1.26-1.08v-1.26H111.09Z" fill="#fff"/>
    <path id="パス_155" data-name="パス 155" d="M146.48,344a84.547,84.547,0,0,0-1.71,13.2,34.45,34.45,0,0,0,.21,3.74c.59-1.43,1.29-3.15,1.85-4.44l1.75,1.4c-.91,2.66-2.13,6.4-2.48,8.15a6.892,6.892,0,0,0-.18,1.61,8.538,8.538,0,0,0,.07,1.3l-3.18.21a44.45,44.45,0,0,1-1.3-11.31c0-5.21,1.12-11.17,1.51-14a24.288,24.288,0,0,0,.31-2.9l3.89.35a24,24,0,0,0-.74,2.69Zm8.37,17.54c0,1.57,1.22,2.87,5.46,2.87a37.36,37.36,0,0,0,8.72-.95l.07,3.75a48.078,48.078,0,0,1-8.86.7c-6,0-8.68-2.07-8.68-5.46a17.761,17.761,0,0,1,.59-4.31l3.15.28a12.391,12.391,0,0,0-.45,3.09ZM168,343.83v3.57a89.818,89.818,0,0,1-14.67,0v-3.57a64.5,64.5,0,0,0,14.67,0Z" fill="#fff"/>
    <path id="パス_156" data-name="パス 156" d="M186.22,339.7a54.261,54.261,0,0,1-3.54,7.38v23.46h-3.29V352.16a32,32,0,0,1-3.08,3.61,22.531,22.531,0,0,0-2-3.33A37.9,37.9,0,0,0,183,338.68Zm20.23,9.66h-4.17v17.08c0,2.28-.59,3.19-2.06,3.68s-3.92.59-7.74.56a13.22,13.22,0,0,0-1.26-3.26c2.84.14,5.74.11,6.58.07s1.12-.28,1.12-1.05V349.36H185.24V346.1h13.68v-7.24h3.36v7.24h4.17ZM192,362.45a88.237,88.237,0,0,0-4.8-8.57l2.84-1.33c1.68,2.62,3.95,6.16,5,8.26Z" fill="#fff"/>
    <path id="パス_157" data-name="パス 157" d="M218.93,343.37c-1,4.59-2.2,12.12-1.05,17.23.46-1.3,1.19-3.26,1.79-4.8l1.82,1.16a72.461,72.461,0,0,0-2.35,8.05,10.619,10.619,0,0,0-.17,1.64c0,.35.07.88.1,1.3l-3,.35a38.939,38.939,0,0,1-1.92-11.2,96.148,96.148,0,0,1,1.26-14,17.579,17.579,0,0,0,.17-2.62l4.1.38C219.39,341.59,219.11,342.71,218.93,343.37Zm18.13-.84v4.94a52.148,52.148,0,0,0,5.53-.74v3.58c-1.5.21-3.43.41-5.46.52v1.37c0,8.12-.28,13.54-7.49,17.95l-3.22-2.52a11.37,11.37,0,0,0,3.71-2.45c3.26-3,3.64-6.65,3.64-13V351c-1.43,0-2.87.07-4.23.07-1.61,0-3.92-.11-5.53-.18v-3.54a37.1,37.1,0,0,0,5.49.39c1.33,0,2.77,0,4.2-.07,0-2.14-.1-4.24-.17-5.15a17.914,17.914,0,0,0-.35-2.2h4.06a19.38,19.38,0,0,0-.18,2.21Z" fill="#fff"/>
    <path id="パス_158" data-name="パス 158" d="M255.32,341.8c1.82,0,9.8-.21,11.69-.39a10.11,10.11,0,0,0,2.24-.31l1.93,2.52a26.13,26.13,0,0,0-2.21,1.5c-1.78,1.33-6.09,5-8.57,7a14.51,14.51,0,0,1,4.2-.6c5.84,0,10.19,3.61,10.19,8.51,0,5.56-4.45,9.55-12.33,9.55-4.83,0-8-2.13-8-5.32,0-2.59,2.31-4.93,5.78-4.93a6.91,6.91,0,0,1,7.28,6.12,5.69,5.69,0,0,0,3.71-5.49c0-3.29-3.22-5.67-7.6-5.67-5.6,0-8.89,2.62-13,7L248,358.74c2.73-2.24,7.1-5.91,9.17-7.63s6-5,7.77-6.51c-1.86.07-7.91.35-9.73.45a21.215,21.215,0,0,0-2.59.21l-.11-3.6a26.778,26.778,0,0,0,2.81.14Zm6.51,24.64a17.876,17.876,0,0,0,2.49-.14c-.28-2.55-1.82-4.34-4.13-4.34a2.33,2.33,0,0,0-2.56,2c0,1.54,1.72,2.48,4.2,2.48Z" fill="#fff"/>
    <path id="パス_159" data-name="パス 159" d="M288.7,361.09c0,2.48,2.45,4.23,7.81,4.23a44.751,44.751,0,0,0,12.11-1.4v3.85a49.817,49.817,0,0,1-12,1.23c-7.53,0-11.59-2.49-11.59-7.07a21.26,21.26,0,0,1,.7-4.94l3.6.32A12.439,12.439,0,0,0,288.7,361.09Zm7.95-17.75c3.39,0,7.17-.25,9.76-.49v3.64c-2.41.17-6.47.42-9.73.42-3.57,0-6.62-.18-9.42-.39v-3.64a79.287,79.287,0,0,0,9.39.46Z" fill="#fff"/>
    <path id="パス_160" data-name="パス 160" d="M328.72,350.41c3.08-1.86,6.54-3.57,8.36-4.59a18.87,18.87,0,0,0,2.8-1.85l1.93,3.18c-.91.56-1.89,1.09-3,1.65a113.162,113.162,0,0,0-10.29,5.53c-3.08,2-5,4.24-5,6.79,0,2.73,2.62,4.34,7.84,4.34a51.923,51.923,0,0,0,11.31-1.26v4a66.823,66.823,0,0,1-11.13.84c-6.76,0-11.73-1.92-11.73-7.52,0-3.71,2.38-6.58,5.95-9.1-1.61-3-3.36-6.9-5-10.65l3.46-1.43a81.74,81.74,0,0,0,4.5,10.07Z" fill="#fff"/>
    <path id="パス_161" data-name="パス 161" d="M364.05,343c-.21,1.08-.52,2.76-.84,4.41,1.44-.14,2.73-.21,3.54-.21,3.36,0,5.95,1.36,5.95,6.27,0,4.13-.52,9.76-2,12.7-1.16,2.42-3,3.08-5.39,3.08a19.327,19.327,0,0,1-4.17-.52l-.6-3.64a18.56,18.56,0,0,0,4.31.7,2.81,2.81,0,0,0,2.87-1.65c1-2.2,1.54-6.65,1.54-10.29,0-3-1.37-3.53-3.57-3.53-.74,0-1.89.07-3.19.21-1.29,5.14-3.78,13.23-7.24,18.83l-3.61-1.44c3.5-4.72,6-12.28,7.25-17-1.58.17-3,.35-3.82.45s-2.52.32-3.46.49l-.35-3.78c1.15.07,2.2,0,3.39,0s3-.18,5-.35a38.909,38.909,0,0,0,.84-7.53l4.1.42C364.4,341.31,364.23,342.22,364.05,343Zm15.34,1.22-2.24,1A61.19,61.19,0,0,1,382.92,357l-3.46,1.65c-1-3.75-3.64-9.88-6.09-12.82l3.25-1.43c0,.07.11.14.14.21a30.586,30.586,0,0,0-2.48-4.27l2.27-.95a50.876,50.876,0,0,1,2.84,4.82Zm4.06-1.54-2.28,1a35.511,35.511,0,0,0-2.9-4.83l2.27-.95c.91,1.31,2.24,3.51,2.91,4.77Z" fill="#fff"/>
    <path id="パス_162" data-name="パス 162" d="M393,344.21c2.56-.24,8.79-.84,15.23-1.4,3.74-.31,7.24-.52,9.66-.59v3.53a34.14,34.14,0,0,0-6.83.49c-4.65,1.4-7.73,6.41-7.73,10.54,0,6.37,5.95,8.51,11.72,8.75l-1.26,3.75c-6.86-.35-14-4-14-11.73a14.05,14.05,0,0,1,5.95-11.38c-3.54.35-11.69,1.19-15.61,2l-.35-3.81C391.07,344.35,392.29,344.28,393,344.21Zm22.72,10.26-2.17,1a33.62,33.62,0,0,0-2.8-4.9l2.1-.91a50.456,50.456,0,0,1,2.86,4.81Zm4-1.57-2.14,1a33.38,33.38,0,0,0-2.94-4.83l2.1-.95a50.776,50.776,0,0,1,2.96,4.78Z" fill="#fff"/>
    <path id="パス_163" data-name="パス 163" d="M439.44,340.05l3.75-.42a33.668,33.668,0,0,0,.73,3.95A38.458,38.458,0,0,0,451,342l.46,3.18a49.118,49.118,0,0,1-6.72,1.37c.24.73.45,1.43.7,2.06s.45,1.23.7,1.9A38.859,38.859,0,0,0,453,349l.56,3.3a55.992,55.992,0,0,1-6.06,1.15,33.757,33.757,0,0,0,2.17,3.82A9,9,0,0,0,451.1,359l-1.75,2.59a77.327,77.327,0,0,0-7.91-1.08l.28-2.66,4.86.49a37.165,37.165,0,0,1-2.38-4.41,111.718,111.718,0,0,1-15.33,0l-.17-3.26a80.8,80.8,0,0,0,14.21.21c-.21-.52-.42-1.05-.6-1.54-.31-.91-.56-1.72-.8-2.45a83.768,83.768,0,0,1-11.94-.28l-.21-3.19a71.3,71.3,0,0,0,11.27.46,1.312,1.312,0,0,0-.1-.32C440.21,342.39,439.86,341.2,439.44,340.05ZM433,362.31c0,2.77,2.52,4.06,7.63,4.06a41,41,0,0,0,8.54-.77l-.17,3.54a55.921,55.921,0,0,1-8.33.63c-6.93,0-11-2.07-11.06-6.79a10.47,10.47,0,0,1,1.47-5.25l3.43.66a6.74,6.74,0,0,0-1.51,3.92Z" fill="#fff"/>
    <path id="パス_164" data-name="パス 164" d="M478,342.22c0,.42,0,1.08-.07,1.85a75.688,75.688,0,0,0,9.2-1v3.22c-2.59.32-5.84.63-9.24.77v4.35c3.47-.14,6.55-.46,9.59-.88v3.26c-3.22.38-6.13.63-9.49.77.07,1.61.18,3.29.25,4.86a28,28,0,0,1,10,5.36l-2,3.11a26.88,26.88,0,0,0-7.84-5.11c0,.74.07,1.33.07,1.82,0,2.66-1.92,5.08-6.51,5.08-5.25,0-8.08-2-8.08-5.46s3.11-5.64,8.33-5.64c.91,0,1.75.07,2.59.14,0-1.36-.11-2.8-.14-4.09h-1.93c-2.24,0-6.12-.18-8.54-.46v-3.29a67.774,67.774,0,0,0,8.65.63h1.79V347.2h-1.44c-2.31,0-6.51-.35-8.79-.63v-3.18a63.554,63.554,0,0,0,8.79.77h1.5V342a11.459,11.459,0,0,0-.17-2.2h3.74A23.662,23.662,0,0,0,478,342.22Zm-6.51,24.36c2,0,3.46-.59,3.46-2.83v-2a15.9,15.9,0,0,0-3.19-.32c-3,0-4.58,1.16-4.58,2.56s1.34,2.59,4.35,2.59Z" fill="#fff"/>
    <path id="パス_165" data-name="パス 165" d="M515.64,342.46v1.75h10.5L526,347.5c-2.06-.1-5.39-.17-10.47-.17v5.5a8.66,8.66,0,0,1,1.22,4.65c0,4.66-2.48,10.15-10.78,12.57l-3-2.94c4.13-.91,7.35-2.45,9-5.15a5.48,5.48,0,0,1-2.45.53,5.84,5.84,0,0,1-5.88-6.09,6.31,6.31,0,0,1,6.51-6.3,6.841,6.841,0,0,1,2,.24v-3c-5.32.07-11.06.28-15.4.56l-.1-3.36c4-.07,10.46-.24,15.47-.31a12.537,12.537,0,0,0-.07-1.79c-.11-1.12-.21-2.2-.28-2.55h4a21.227,21.227,0,0,0-.13,2.57Zm-5.39,17c1.82,0,3.19-1.43,2.73-4.72a2.87,2.87,0,0,0-2.73-1.68,3.15,3.15,0,0,0-3.18,3.29,3.07,3.07,0,0,0,3.18,3.09Z" fill="#fff"/>
    <path id="パス_166" data-name="パス 166" d="M544.24,364.73a5.5,5.5,0,1,1-5.5-5.5,5.5,5.5,0,0,1,5.5,5.5Zm-2.1,0a3.36,3.36,0,1,0-3.36,3.36A3.36,3.36,0,0,0,542.14,364.73Z" fill="#fff"/>
    <g id="グループ_5" data-name="グループ 5">
      <g id="グループ_4" data-name="グループ 4" transform="translate(-17.174 0.54)">
        <path id="パス_138" data-name="パス 138" d="M33,284.21c2.56-.24,8.79-.84,15.23-1.4,3.74-.31,7.24-.52,9.66-.59v3.53a34.14,34.14,0,0,0-6.83.49c-4.65,1.4-7.73,6.41-7.73,10.54,0,6.37,6,8.51,11.72,8.75l-1.26,3.75c-6.86-.35-14-4-14-11.73a14.05,14.05,0,0,1,6-11.38c-3.54.35-11.69,1.19-15.61,2l-.35-3.81C31.11,284.35,32.33,284.28,33,284.21Zm22.72,10.26-2.17,1a33.621,33.621,0,0,0-2.8-4.9l2.1-.91a50.47,50.47,0,0,1,2.9,4.81Zm4-1.57-2.14,1a33.38,33.38,0,0,0-2.94-4.83l2.1-.95a50.775,50.775,0,0,1,3,4.78Z" fill="#fff"/>
        <path id="パス_139" data-name="パス 139" d="M85.74,282.46v1.75H96.2l-.07,3.29c-2.06-.1-5.39-.17-10.46-.17v5.5a8.57,8.57,0,0,1,1.23,4.65c0,4.66-2.49,10.15-10.79,12.57l-3-2.94c4.13-.91,7.35-2.45,9-5.15a5.48,5.48,0,0,1-2.45.53,5.84,5.84,0,0,1-5.88-6.09,6.31,6.31,0,0,1,6.51-6.3,6.8,6.8,0,0,1,2,.24v-3c-5.33.07-11.07.28-15.41.56l-.1-3.36c4-.07,10.46-.24,15.47-.31a12.538,12.538,0,0,0-.07-1.79c-.1-1.12-.21-2.2-.28-2.55h4A19.352,19.352,0,0,0,85.74,282.46Zm-5.4,17c1.83,0,3.19-1.43,2.74-4.72A2.89,2.89,0,0,0,80.34,293a3.15,3.15,0,0,0-3.18,3.29,3.07,3.07,0,0,0,3.18,3.15Z" fill="#fff"/>
        <path id="パス_140" data-name="パス 140" d="M116.36,283c-.21,1.08-.53,2.76-.84,4.41,1.43-.14,2.73-.21,3.53-.21,3.36,0,6,1.36,6,6.27,0,4.13-.52,9.76-2,12.7-1.16,2.42-3,3.08-5.39,3.08a19.408,19.408,0,0,1-4.17-.52l-.59-3.64a18.41,18.41,0,0,0,4.3.7,2.81,2.81,0,0,0,2.87-1.65c1-2.2,1.54-6.65,1.54-10.29,0-3-1.36-3.53-3.57-3.53-.73,0-1.89.07-3.18.21-1.3,5.14-3.78,13.23-7.25,18.83L104,307.91c3.5-4.72,6-12.28,7.25-17-1.57.17-3,.35-3.81.45s-2.53.32-3.47.49l-.35-3.78c1.15.07,2.2,0,3.4,0s3-.18,5-.35a39.7,39.7,0,0,0,.84-7.53l4.09.42A23.191,23.191,0,0,0,116.36,283Zm15.33,1.22-2.24,1A61.19,61.19,0,0,1,135.22,297l-3.46,1.65c-1-3.75-3.64-9.88-6.09-12.82l3.25-1.43c0,.07.11.14.14.21a30.577,30.577,0,0,0-2.48-4.27l2.27-.95a50.883,50.883,0,0,1,2.84,4.82Zm4.06-1.54-2.28,1a35.509,35.509,0,0,0-2.9-4.83l2.27-.95c.91,1.31,2.24,3.51,2.91,4.77Z" fill="#fff"/>
        <path id="パス_141" data-name="パス 141" d="M141.69,302.24l2.88-2.52a64.212,64.212,0,0,1,7.73,7.74l-3,2.52a64.373,64.373,0,0,0-7.61-7.74Z" fill="#fff"/>
        <path id="パス_142" data-name="パス 142" d="M190.49,281.55c1.5,0,8.43-.31,10.5-.56a11.432,11.432,0,0,0,2.13-.38l2.21,2.55a20.865,20.865,0,0,0-2.24,1.58c-2.56,2.06-6.93,5.74-9.56,7.81,5-.53,11.13-1,15.82-1v3.29a55.9,55.9,0,0,0-9,.1c-3.29.49-6.37,3.12-6.37,6.2s2.55,4.34,5.74,4.76a26.438,26.438,0,0,0,5.14.07l-.73,3.64c-8.72.35-13.62-2.31-13.62-7.91a8.12,8.12,0,0,1,3.4-6.13c-3.5.28-7.84.81-11.77,1.47l-.31-3.32c1.89-.18,4.31-.49,6.09-.7a133.924,133.924,0,0,0,10.82-8.79c-1.51.1-6.83.35-8.3.45-.91.07-2,.21-2.9.28l-.18-3.57A26.709,26.709,0,0,0,190.49,281.55Z" fill="#fff"/>
        <path id="パス_143" data-name="パス 143" d="M234.1,309.17l-2.1-3.29a21.133,21.133,0,0,0,3.12-.49c4.48-1,8.47-4.3,8.47-9.94,0-5.07-3.08-9.1-8.47-9.77a70.469,70.469,0,0,1-2.1,9.84c-2.1,7.14-5,11.1-8.47,11.1s-6.66-3.85-6.66-9.7c0-7.84,6.87-14.56,15.65-14.56,8.4,0,13.72,5.88,13.72,13.2S242.6,308,234.1,309.17Zm-9.42-6.72c1.58,0,3.22-2.27,4.83-7.66a55.432,55.432,0,0,0,1.93-9c-6.3,1-10,6.48-10,10.82.02,3.99,1.74,5.84,3.24,5.84Z" fill="#fff"/>
        <path id="パス_144" data-name="パス 144" d="M277.1,279a38.88,38.88,0,0,0,10.43,12.5,17.87,17.87,0,0,0-2.73,2.9,30.154,30.154,0,0,1-2.94-2.87v1.37c-.45,10.6-.94,14.66-2.13,16a3.78,3.78,0,0,1-2.87,1.43,38.737,38.737,0,0,1-5.43,0,7.48,7.48,0,0,0-1.08-3.29c2.13.21,4.13.25,4.93.25a1.91,1.91,0,0,0,1.51-.49c.8-.84,1.26-4.13,1.61-12.25h-8.09c-.87,6.79-3.11,12.91-12.11,16.2a10.261,10.261,0,0,0-2.06-2.9c8-2.66,9.9-7.77,10.64-13.3h-6.55v-2.7a29.843,29.843,0,0,1-3.18,2.84,24.44,24.44,0,0,0-2.77-2.59,29.77,29.77,0,0,0,10.36-13.06l3.47,1a39.39,39.39,0,0,1-7.42,11.31h21.07A53.65,53.65,0,0,1,274,280.26Z" fill="#fff"/>
      </g>
      <path id="パス_147" data-name="パス 147" d="M382.32,287.08a40.883,40.883,0,0,1-3.22,4.52v19.25h-4V296a33.244,33.244,0,0,1-3.08,2.7,24.727,24.727,0,0,0-2.2-4,32.46,32.46,0,0,0,8.82-9.18Zm-.88-7.28a36.36,36.36,0,0,1-9.24,8.86,27.356,27.356,0,0,0-2.06-3.5,26.61,26.61,0,0,0,7.38-6.93Zm19.39,14.53a23.079,23.079,0,0,1-6,9.91,25.85,25.85,0,0,0,8.51,3,16.82,16.82,0,0,0-2.66,3.71,25.229,25.229,0,0,1-9.17-4,32.3,32.3,0,0,1-8.79,4,17.108,17.108,0,0,0-2.27-3.5,26.62,26.62,0,0,0,7.91-3.32,23.75,23.75,0,0,1-4.17-6.23l3.12-.95h-4.94v-3.74h14.91l.77-.18Zm-12.11-11.2c0,3.22-.63,7.28-4.06,9.87a17.746,17.746,0,0,0-3.43-2.34c3.15-2.21,3.54-5.26,3.54-7.64v-3.6h12.67V287a2.5,2.5,0,0,0,.1,1.09.72.72,0,0,0,.49.14h.74a1.14,1.14,0,0,0,.52-.11c.14-.07.28-.28.35-.77s.11-1.61.14-2.9a11.58,11.58,0,0,0,3.12,1.64,15.16,15.16,0,0,1-.53,3.78,2.51,2.51,0,0,1-1.33,1.51,5.081,5.081,0,0,1-2.1.42h-2.1a3.81,3.81,0,0,1-2.62-.91c-.67-.67-1-1.44-1-3.75v-4.09H388.7ZM388,297a16.741,16.741,0,0,0,3.54,4.76,18.43,18.43,0,0,0,3.67-4.76Z" fill="#e15513"/>
      <path id="パス_148" data-name="パス 148" d="M441.38,305.36v4.16H409.7v-4.16h17.44a88.477,88.477,0,0,0,4-15.79l4.79.87a142.7,142.7,0,0,1-4.37,14.92Zm-1-16.95H410.82v-4.09h12.43v-6.09h4.34v6.09h12.78Zm-22.06,15.86a56.5,56.5,0,0,0-3-13.51l4-1.05a57.6,57.6,0,0,1,3.3,13.44Z" fill="#e15513"/>
      <path id="パス_149" data-name="パス 149" d="M452,287.61c2.7-.84,9.84-3.36,15-3.36,6.33,0,11.3,3.64,11.3,10.12,0,7.94-7.56,13-19.88,13.65l-2-4.66c9.49-.24,16.91-3,16.91-9.06,0-3.29-2.28-5.82-6.48-5.82-5.14,0-13.44,3.51-17.08,5.08l-2-4.9A36.264,36.264,0,0,0,452,287.61Z" fill="#e15513"/>
      <path id="パス_150" data-name="パス 150" d="M508.27,286.28a51.248,51.248,0,0,1-5.5,9.63,97.423,97.423,0,0,1,9.77,10l-4,3.46a79.837,79.837,0,0,0-8.82-9.9,46.061,46.061,0,0,1-13.16,9.83L483,305.53a39.24,39.24,0,0,0,14.35-10,27.268,27.268,0,0,0,5.22-8.58H490.66c-1.47,0-3.39.21-4.13.24v-5a39.166,39.166,0,0,0,4.13.25H503a12.448,12.448,0,0,0,3.61-.46l2.87,2.14A16.745,16.745,0,0,0,508.27,286.28Z" fill="#e15513"/>
      <path id="パス_151" data-name="パス 151" d="M527.45,280.19l4.93-.81c.11.7.21,1.89.39,2.73.07.49.28,1.65.56,3.22,3-.49,5.63-.91,6.89-1.15s2.46-.49,3.3-.74l.84,4.59c-.77.07-2.17.28-3.23.42-1.43.24-4.09.66-7,1.12.35,1.75.7,3.68,1.09,5.6,3.15-.52,6-1,7.6-1.33,1.36-.28,2.66-.56,3.57-.84l.94,4.62c-.94.07-2.38.32-3.71.53-1.68.28-4.52.73-7.6,1.22.56,2.87,1.05,5.22,1.26,6.3s.6,2.31.91,3.43l-5,.91c-.17-1.29-.28-2.52-.49-3.53s-.63-3.43-1.19-6.37c-3.57.59-6.86,1.15-8.36,1.43s-2.7.53-3.5.74l-1-4.69c.94,0,2.52-.25,3.64-.39,1.61-.21,4.86-.73,8.4-1.29-.35-1.89-.74-3.85-1-5.64-3.08.49-5.78,1-6.86,1.12a22.242,22.242,0,0,0-3.22.74l-.95-4.84a31.84,31.84,0,0,0,3.26-.24c1.22-.14,3.92-.53,6.93-1-.28-1.47-.53-2.62-.63-3.18C527.94,281.83,527.69,281,527.45,280.19Z" fill="#e15513"/>
      <path id="パス_152" data-name="パス 152" d="M557.5,298.18c1-3,1-9.63,1-13.86a13.291,13.291,0,0,0-.31-3.22h5.14a24.107,24.107,0,0,0-.24,3.18c0,4.13-.11,11.52-1.05,15.06a20.57,20.57,0,0,1-6.23,10l-4.27-2.83a16.5,16.5,0,0,0,5.96-8.33Zm10.53,6.3V284.07a15.194,15.194,0,0,0-.28-3H573a18.76,18.76,0,0,0-.24,3.05v18.31a22.17,22.17,0,0,0,8.64-7.39l2.7,3.85a38.7,38.7,0,0,1-11.87,9.56,7.259,7.259,0,0,0-1.5,1.05l-3-2.42a12.5,12.5,0,0,0,.27-2.6Z" fill="#e15513"/>
      <path id="パス_153" data-name="パス 153" d="M603.43,283.76a80.777,80.777,0,0,0,10.29-1V286a109.573,109.573,0,0,1-11.52.91,28.28,28.28,0,0,1-2.69,4.62,10.32,10.32,0,0,1,4.48-1,4.62,4.62,0,0,1,4.69,3c2.17-1,4-1.75,5.6-2.52,1.19-.53,2.2-1,3.32-1.55l1.44,3.23c-1,.31-2.52.87-3.57,1.29-1.79.7-4.06,1.61-6.51,2.73,0,2,.07,4.8.1,6.48h-3.32c.07-1.23.1-3.22.14-4.94-3,1.65-4.9,3.26-4.9,5.32,0,2.38,2.27,2.87,5.81,2.87a59.652,59.652,0,0,0,9.73-.91l-.11,3.54a90.4,90.4,0,0,1-9.73.63c-5.21,0-9.27-1.23-9.27-5.57s4.2-7,8.26-9.1a2.83,2.83,0,0,0-2.87-1.75,8.91,8.91,0,0,0-5.81,2.52,38.172,38.172,0,0,0-3.19,3.75l-3-2.24A34.939,34.939,0,0,0,598.7,287h-1c-1.47,0-3.89-.07-5.85-.21V283.5a45.323,45.323,0,0,0,6,.39h2.07a17.563,17.563,0,0,0,.8-4.16l3.64.28C604.16,281,603.88,282.25,603.43,283.76Z" fill="#fff"/>
      <text id="ずっと" transform="translate(269.065 309)" fill="#e15513" font-size="35" font-family="YuGo-Bold, YuGothic" font-weight="700"><tspan x="0" y="0">ずっと</tspan></text>
    </g>
  </g>
</svg>
