<svg id="レイヤー_2" data-name="レイヤー 2" xmlns="http://www.w3.org/2000/svg" width="1266" height="469.1" viewBox="0 0 1266 469.1">
  <g id="design">
    <line id="線_3" data-name="線 3" x2="1266" transform="translate(0 105.75)" fill="none" stroke="#fff" stroke-miterlimit="10" stroke-width="1.5"/>
    <path id="パス_167" data-name="パス 167" d="M587.21,49.92a96.076,96.076,0,0,0-5.05-9.11V65.39h-7.7V40.67c-2.24,6.51-5,13-8.05,17.23a49.471,49.471,0,0,0-3.78-8.61c3.5-4.28,7.07-11.77,9.24-18.14h-8V23.38h10.57V.49h7.7V23.38h10.37v7.77H582.16v.49c2,2,8.69,9.87,10.16,11.83ZM567,22.12A69.221,69.221,0,0,0,563.82,6l5.81-1.54a70.179,70.179,0,0,1,3.57,16ZM593.79,5.6c-1.82,5.6-3.85,12.25-5.6,16.31l-5.26-1.47a130.207,130.207,0,0,0,3.86-16.38Zm27.16,41V65.53h-7.84V48l-19.53,3.5-1.26-7.78L613.11,40V.14H621v38.5l7.14-1.33,1.26,7.77ZM597,21.21c4.06,2.17,9.24,5.53,11.76,8.05l-4.2,6.65c-2.31-2.59-7.42-6.3-11.48-8.75Zm10.15-2.52c-2.17-2.73-7-6.51-10.85-9.1l4-5.6c3.92,2.31,8.89,5.88,11.13,8.47Z" fill="#ff0"/>
    <path id="パス_168" data-name="パス 168" d="M691.61,45.36c-2.66,3.86-5.39,8.13-7.84,11.07h15.82v7.14H640.37V56.43H654a48.341,48.341,0,0,0-5.81-11.28l6.37-2.73H643.87V35.28h21.28V28.35H652.27V24.92a89.459,89.459,0,0,1-10.43,6.51,32.63,32.63,0,0,0-5.18-6.72C648.56,18.9,659.76,8.4,664.94,0h8.61a71.52,71.52,0,0,0,29.89,23.87,39.1,39.1,0,0,0-5.53,7.49,88.469,88.469,0,0,1-10.64-6.65v3.64H673.9v6.93h21.56v7.14H673.9v14h7.63L677,54.54a72.8,72.8,0,0,0,6.65-12.12ZM655,42.42A47.269,47.269,0,0,1,661.44,54l-5.74,2.45h9.45v-14Zm27.51-21.35A74.689,74.689,0,0,1,669.63,8.12a73,73,0,0,1-12.39,13Z" fill="#ff0"/>
    <rect id="長方形_4" data-name="長方形 4" width="140" height="35" transform="translate(593.84 340.88)" fill="#e85513"/>
    <path id="パス_169" data-name="パス 169" d="M312.89,146.51v2.07h-5.5V162h-2.23V146.51Z" fill="#fff"/>
    <path id="パス_170" data-name="パス 170" d="M323.16,151.12a17.747,17.747,0,0,0-.22-2.69h2.95c-.07.8-.19,1.83-.19,2.69v3.75a75.881,75.881,0,0,1,10.15,3.84l-1.05,2.59a67.433,67.433,0,0,0-9.1-3.72V165c0,.8.08,2.2.17,3.07H323a25.4,25.4,0,0,0,.2-3.07ZM334.24,153l-1.68.74a21.53,21.53,0,0,0-2.11-3.67l1.61-.69a27.764,27.764,0,0,1,2.18,3.62Zm3.1-1.34-1.65.81a24.323,24.323,0,0,0-2.21-3.6l1.61-.74a36.253,36.253,0,0,1,2.25,3.5Z" fill="#fff"/>
    <path id="パス_171" data-name="パス 171" d="M352.84,150.11c0,.82-.07,1.61-.12,2.36h5.19a11.08,11.08,0,0,0,1.65-.15l1.68.82c-.07.41-.14.91-.17,1.22-.07,2.43-.38,9.29-1.44,11.64a2.67,2.67,0,0,1-2.78,1.64c-1.3,0-2.69-.1-3.91-.17l-.29-2.52a27.143,27.143,0,0,0,3.48.29,1.28,1.28,0,0,0,1.37-.82c.81-1.68,1.13-7.1,1.13-9.7h-6.15c-.89,6.68-3.26,10.35-7.39,13.25l-2.21-1.8a12.63,12.63,0,0,0,2.76-2c2.33-2.19,3.79-5.09,4.39-9.44h-3.64a29.076,29.076,0,0,0-2.93.1V152.3c.91.09,2,.17,2.93.17h3.86c.05-.72.07-1.49.07-2.31a15.336,15.336,0,0,0-.17-2.09H353C352.91,148.65,352.87,149.54,352.84,150.11Zm8.35,1.06-1.58.67a28.379,28.379,0,0,0-1.92-3.31l1.56-.65a35,35,0,0,1,1.94,3.29Zm2.76-1-1.56.67a22.5,22.5,0,0,0-2-3.29l1.53-.65a28.612,28.612,0,0,1,2.08,3.24Z" fill="#fff"/>
    <path id="パス_172" data-name="パス 172" d="M369.56,164.78l-2.06-1.42a24.7,24.7,0,0,0,4.53-6.24l2.14,1a36.5,36.5,0,0,1-4.61,6.66Zm9.86-14.71v2.2h6a15.477,15.477,0,0,0,2.14-.14v2.5h-8.17V166c0,1.3-.67,2-2.25,2a36.066,36.066,0,0,1-3.63-.16l-.21-2.38a16.478,16.478,0,0,0,2.73.26c.63,0,.89-.24.92-.88v-10.3h-6.41a21.255,21.255,0,0,0-2.16.07v-2.52a20.409,20.409,0,0,0,2.13.14H377V150a9.827,9.827,0,0,0-.2-1.87h2.84a13.065,13.065,0,0,0-.22,1.94Zm9,13.32-2.21,1.25a41.569,41.569,0,0,0-4-6.41l2.06-1.13a52,52,0,0,1,4.18,6.29ZM386,146.32a2.69,2.69,0,1,1-2.69,2.69,2.69,2.69,0,0,1,2.69-2.69Zm0,4.13a1.44,1.44,0,1,0-1.44-1.44,1.44,1.44,0,0,0,1.44,1.44Z" fill="#fff"/>
    <path id="パス_173" data-name="パス 173" d="M403.54,161.68a22.74,22.74,0,0,0,8.32-9.05l1.47,2.62a24.5,24.5,0,0,1-8.43,8.69,26.54,26.54,0,0,1-9.19,3.58L394.1,165A24.94,24.94,0,0,0,403.54,161.68Zm-.82-7.68-1.9,1.95a51.111,51.111,0,0,0-6-5.09l1.75-1.87A49.526,49.526,0,0,1,402.72,154Z" fill="#fff"/>
    <path id="パス_174" data-name="パス 174" d="M437.93,152.54a38.331,38.331,0,0,1-8.48,9.6c1.42,1.42,3,3.1,3.94,4.25l-2.21,1.77a63.24,63.24,0,0,0-4.44-5,56.668,56.668,0,0,0-5.4-4.65l2-1.61c.91.67,2.71,2.14,4.32,3.55a28.13,28.13,0,0,0,6.86-7.7H421c-1,0-2.08.09-2.59.14V150.2a20.16,20.16,0,0,0,2.59.19h13.88a6.34,6.34,0,0,0,1.85-.21l1.89,1.56A5.928,5.928,0,0,0,437.93,152.54Z" fill="#fff"/>
    <path id="パス_175" data-name="パス 175" d="M446.18,156.31h13.06c1.15,0,2.09-.1,2.69-.15v3c-.53,0-1.63-.12-2.69-.12H446.18a30.707,30.707,0,0,0-3.57.12v-3C443.4,156.21,444.89,156.31,446.18,156.31Z" fill="#fff"/>
    <path id="パス_176" data-name="パス 176" d="M475.67,150c-.22.6-.48,1.34-.79,2.11h10.89a16.528,16.528,0,0,0,2.36-.14v2.59c-.82-.05-1.8-.07-2.36-.07H482c-.41,6.65-3,10.8-7.25,13.46l-2.54-1.73a9.6,9.6,0,0,0,2.09-1.2c2.42-1.84,4.75-4.92,5.11-10.53h-5.69a20.27,20.27,0,0,1-3.94,5.11l-2.37-1.44a18.559,18.559,0,0,0,4.22-5.07,17.829,17.829,0,0,0,1.37-3.33,9.838,9.838,0,0,0,.41-2.14l2.93.55C476.13,148.77,475.86,149.51,475.67,150Z" fill="#fff"/>
    <path id="パス_177" data-name="パス 177" d="M496,155h15.7a18.447,18.447,0,0,0,2-.12v2.48c-.56,0-1.4-.07-2-.07h-6.17a14.7,14.7,0,0,1-1.49,6.4,11.53,11.53,0,0,1-4.77,4.47l-2.21-1.61a10.27,10.27,0,0,0,4.44-3.58,11.191,11.191,0,0,0,1.44-5.68H496c-.72,0-1.53,0-2.18.07v-2.48A19,19,0,0,0,496,155Zm3-6h9.7a22,22,0,0,0,2.4-.17v2.47c-.77,0-1.66-.07-2.4-.07H499c-.79,0-1.68,0-2.35.07v-2.47A19.492,19.492,0,0,0,499,149Z" fill="#fff"/>
    <path id="パス_178" data-name="パス 178" d="M527.17,156.86a26.15,26.15,0,0,0,5.84-5l1.87,1.82a34.149,34.149,0,0,1-5.4,4.42v8.42a14.873,14.873,0,0,0,.12,2.31h-2.79c.05-.41.1-1.54.1-2.31v-6.91a48.5,48.5,0,0,1-7.23,3l-1.15-2.25a32.841,32.841,0,0,0,8.64-3.5Z" fill="#fff"/>
    <path id="パス_179" data-name="パス 179" d="M550.17,161.68a22.7,22.7,0,0,0,8.33-9.05l1.46,2.62a24.461,24.461,0,0,1-8.42,8.69,26.539,26.539,0,0,1-9.19,3.58L540.74,165a24.82,24.82,0,0,0,9.43-3.32Zm-.81-7.68-1.9,1.95a51.115,51.115,0,0,0-6-5.09l1.75-1.87a50.277,50.277,0,0,1,6.15,5.01Z" fill="#fff"/>
    <path id="パス_180" data-name="パス 180" d="M574.25,150.88a6.735,6.735,0,0,1-.36.63h5.79a6.59,6.59,0,0,0,1.8-.24l2,1.2a8.178,8.178,0,0,0-.67,1.46,23.81,23.81,0,0,1-4.22,8.16,21.85,21.85,0,0,1-9.6,6.65l-2.24-2a19.17,19.17,0,0,0,9.63-6,18,18,0,0,0,3.65-7.08h-7.51a25,25,0,0,1-6.08,5.85L564.29,158a20.54,20.54,0,0,0,7.54-7.94,12,12,0,0,0,.89-2.16l2.78.91A20.7,20.7,0,0,0,574.25,150.88Zm9.29-.12-1.58.67a28.205,28.205,0,0,0-1.9-3.31l1.54-.65a36.341,36.341,0,0,1,1.94,3.29Zm2.76-1-1.56.69a23.888,23.888,0,0,0-2-3.31l1.54-.65a27.53,27.53,0,0,1,2.02,3.22Z" fill="#fff"/>
    <path id="パス_181" data-name="パス 181" d="M601.82,155.68c1.64,5,4.66,9,9.2,10.95a8.5,8.5,0,0,0-1.66,2.09c-4.49-2.09-7.39-6-9.27-11.07a16.58,16.58,0,0,1-9.26,11.07,7.882,7.882,0,0,0-1.7-1.88,14.92,14.92,0,0,0,9-11.16h-8.52v-2.3h8.92a58.884,58.884,0,0,0,.29-6.63h2.43a61.744,61.744,0,0,1-.34,6.63h9.67v2.3Z" fill="#fff"/>
    <path id="パス_182" data-name="パス 182" d="M636.63,162.24h-9.46v4c0,1.23-.31,1.85-1.29,2.19a16.86,16.86,0,0,1-4.49.33,12.2,12.2,0,0,0-.94-2.16c1.68.08,3.36.08,3.84.05s.6-.12.6-.48v-3.93h-9.36v-2.07h9.36v-1.65H626a19.608,19.608,0,0,0,2.71-1.8h-9.12v-1.95h11.26l.48-.12,1.44,1.08a21.47,21.47,0,0,1-5.62,4.13v.31h9.46ZM618,156.11h-2.09v-5.49h3.46a15,15,0,0,0-1.88-2.76l1.92-.87a14.711,14.711,0,0,1,2.24,3.22l-.87.41h4.44a17.37,17.37,0,0,0-1.68-3.29l1.95-.72a14.32,14.32,0,0,1,1.94,3.55l-1.18.46h4.06a25.327,25.327,0,0,0,2.33-3.75l2.35.75c-.7,1-1.49,2.09-2.23,3h3.48v5.49h-2.21v-3.52H618Z" fill="#fff"/>
    <path id="パス_183" data-name="パス 183" d="M649.08,161.42c-.36-.79-1.11-2.16-1.8-3.34v10.66h-2.09V158.52a24,24,0,0,1-2.71,5.9,9.509,9.509,0,0,0-1.08-2,26.588,26.588,0,0,0,3.6-8.62h-3.1v-2.06h3.29v-5h2.09v5H650v2.06h-2.76v1.54c.67.86,2.61,3.74,3,4.41Zm11.83-4a19.44,19.44,0,0,1-2.78,5.69,14.39,14.39,0,0,0,5.71,3.74,8.8,8.8,0,0,0-1.56,2,15.75,15.75,0,0,1-5.59-4,17,17,0,0,1-6.27,4,10.411,10.411,0,0,0-1.15-1.78,15.05,15.05,0,0,0,6.07-3.91,21.808,21.808,0,0,1-2.83-5.5l1.92-.55a16.723,16.723,0,0,0,2.28,4.3,14.56,14.56,0,0,0,1.94-4.44Zm-5.64-3.86a18.489,18.489,0,0,1-4.11,5.4,9.293,9.293,0,0,0-1.51-1.42,14.791,14.791,0,0,0,3.6-4.82Zm8.11-1.35h-13.1v-2.06h5.37v-3.41h2.23v3.41h5.5Zm-3.45.43a24,24,0,0,1,3.86,5.05l-1.87,1.08a24.209,24.209,0,0,0-3.72-5.17Z" fill="#fff"/>
    <path id="パス_184" data-name="パス 184" d="M679.83,167.78l-1.42-2.26a15.158,15.158,0,0,0,2.14-.33c3.07-.7,5.81-2.95,5.81-6.82a6.39,6.39,0,0,0-5.81-6.7,48,48,0,0,1-1.44,6.75c-1.44,4.9-3.43,7.61-5.81,7.61s-4.56-2.64-4.56-6.65c0-5.38,4.71-10,10.73-10,5.76,0,9.41,4,9.41,9.05S685.66,166.94,679.83,167.78Zm-6.46-4.61c1.08,0,2.21-1.56,3.32-5.25a38.656,38.656,0,0,0,1.32-6.2,8,8,0,0,0-6.84,7.42C671.17,161.9,672.34,163.17,673.37,163.17Z" fill="#fff"/>
    <path id="パス_185" data-name="パス 185" d="M712.06,158.68a14.679,14.679,0,0,1-5.11,5.84,32,32,0,0,0,8.45,2,9.449,9.449,0,0,0-1.37,2.11,29.62,29.62,0,0,1-9.36-2.78,33.55,33.55,0,0,1-9.48,2.8,7.2,7.2,0,0,0-1.3-2,33.09,33.09,0,0,0,8.62-2.11,16.261,16.261,0,0,1-4.37-4.42l.43-.19h-1v-2.07h12.6l.41-.07Zm-15.55-.14h-2.09v-5h3.63a16.5,16.5,0,0,0-1.37-2.86l1.94-.55a13,13,0,0,1,1.54,3l-1.3.41h5.19a13.8,13.8,0,0,0-1.08-3.38l2-.44a13.872,13.872,0,0,1,1.2,3.32l-2,.5h4.78a27.725,27.725,0,0,0,1.92-3.86l2.33.62c-.63,1.08-1.32,2.28-2,3.24h3.77v5h-2.18v-3H696.51Zm17.31-10.11a128.86,128.86,0,0,1-18.68,1.8,6,6,0,0,0-.48-1.89,122.911,122.911,0,0,0,17.59-1.73Zm-13.3,11.48a13.22,13.22,0,0,0,4.2,3.53,12.151,12.151,0,0,0,4-3.53Z" fill="#fff"/>
    <path id="パス_186" data-name="パス 186" d="M719.68,150.76h8.09v1.78h-8.09Zm7.53,17h-4.68v1h-1.85V160.7h6.53Zm-.09-11.88h-6.41V154.1h6.41Zm-6.41,1.53h6.41v1.73h-6.41Zm6.31-8.09h-6.19v-1.75H727Zm-4.49,13.21v3.45h2.81v-3.45Zm19.3,2.64h-1.27v1.53c0,1-.19,1.51-.94,1.8a10.2,10.2,0,0,1-3.38.29,6.881,6.881,0,0,0-.53-1.75h2.4c.31,0,.38-.12.38-.41v-1.51h-7.41v3.64h-1.9v-3.64h-1.34v-1.78h1.34v-6h4.63v-1.15h-5.95v-1.76h3.34v-1.32H729v-1.6h2.23v-1.28h-2.69V148.6h2.69v-1.87h2v1.87h3.34v-1.87h2v1.87h2.83v1.63h-2.83v1.28h2.35v1.6h-2.35v1.32h3.21v1.76h-6.07v1.15h4.85v6h1.27ZM731.08,159v1.46h2.73V159Zm0,4.39h2.73v-1.46h-2.73Zm2.13-11.83h3.34v-1.28h-3.34Zm0,2.92h3.34v-1.32h-3.34Zm2.5,4.52v1.46h2.78V159Zm2.78,4.39v-1.46h-2.78v1.46Z" fill="#fff"/>
    <path id="パス_187" data-name="パス 187" d="M752.54,157.05c.72.77,3,3.7,3.53,4.42l-1.42,1.75c-.4-.86-1.32-2.38-2.11-3.65v9.17h-2.09v-9.19a25,25,0,0,1-3,6.36,12.372,12.372,0,0,0-1.08-2.23,23.869,23.869,0,0,0,3.45-6.89h-3V154.7h3.72v-7.85h2.09v7.85h3.75v2.09h-3.75Zm-4.53-3a23.583,23.583,0,0,0-1.2-5.42l1.6-.41a24,24,0,0,1,1.32,5.35Zm8.44-5.5c-.6,1.88-1.34,4.11-1.94,5.5l-1.44-.46a41.7,41.7,0,0,0,1.46-5.47Zm9.32,13.59v6.62h-2.09v-6.24l-7.11,1.3-.36-2.06,7.47-1.35V146.75h2.09V160l2.66-.46.31,2Zm-5.16-3.46a18.88,18.88,0,0,0-4-2.9l1.05-1.61a20,20,0,0,1,4,2.71Zm1-5.81a17.561,17.561,0,0,0-3.75-3.09l1.13-1.51a18.8,18.8,0,0,1,3.79,2.9Z" fill="#fff"/>
    <path id="パス_188" data-name="パス 188" d="M777.47,150.31a63.064,63.064,0,0,0-1.17,9.5,15,15,0,0,0,.19,2.57c.33-1,.86-2.18,1.24-3.07l1.21.93c-.65,1.83-1.47,4.28-1.73,5.5a5.6,5.6,0,0,0-.12,1.1,4.029,4.029,0,0,0,.07.89l-2.14.17a28.279,28.279,0,0,1-.93-7.63,75.2,75.2,0,0,1,1-10.06c.07-.6.17-1.37.2-2l2.61.24C777.81,148.89,777.57,149.87,777.47,150.31Zm12.12-.58c0,.6-.05,1.63-.07,2.74a36.685,36.685,0,0,0,4-.56v2.33c-1.24.19-2.59.36-4,.46,0,2.4.19,4.56.26,6.41a15.7,15.7,0,0,1,4.73,3.09l-1.29,2a22.451,22.451,0,0,0-3.34-2.66v.12c0,2.2-1.06,4.1-4.39,4.1s-5.14-1.34-5.14-3.65,1.9-3.84,5.11-3.84a12.331,12.331,0,0,1,1.95.15c-.1-1.68-.19-3.75-.24-5.62-.67,0-1.35.05-2,.05-1.39,0-2.71-.08-4.1-.17v-2.26a37.706,37.706,0,0,0,4.16.22h2v-2.83a10.672,10.672,0,0,0-.15-1.54h2.72a6.434,6.434,0,0,0-.21,1.46Zm-4.41,15.82c1.77,0,2.32-.91,2.32-2.43v-.64a7.581,7.581,0,0,0-2.23-.34c-1.61,0-2.73.7-2.73,1.73s1.1,1.68,2.64,1.68Z" fill="#fff"/>
    <path id="パス_189" data-name="パス 189" d="M804.68,150.31a26.941,26.941,0,0,1-5.07,8.47,11.324,11.324,0,0,0-2-1.32,19.691,19.691,0,0,0,4.61-7.73Zm11.71,7.17c-2.26,7-7.08,10-15.77,11.36a9,9,0,0,0-1.2-2.24c8.18-1,12.62-3.6,14.64-9.81Zm-6.58-10.75v11.86c0,1.29-.26,1.92-1.15,2.28a12,12,0,0,1-4.22.43,8.775,8.775,0,0,0-.82-2.28h3.36c.36,0,.58-.12.58-.5V146.73Zm5,2.71a34.749,34.749,0,0,1,5.08,7.85l-2.28,1.23a32.771,32.771,0,0,0-4.87-8Z" fill="#fff"/>
    <path id="パス_190" data-name="パス 190" d="M829.35,150.79c-.12,2.66-.29,8.21-.29,11.52,0,2.54,1.56,3.41,3.65,3.41,4.2,0,6.72-2.38,8.45-4.95l1.7,2.09a12.18,12.18,0,0,1-10.2,5.38c-3.65,0-6.1-1.56-6.1-5.55,0-3.41.24-9.6.24-11.9a13.786,13.786,0,0,0-.26-2.79h3.07a21.629,21.629,0,0,0-.26,2.79Z" fill="#fff"/>
    <path id="パス_191" data-name="パス 191" d="M868.66,148.87v1.94H848v-1.94h9.1v-2.16h2.28v2.16Zm-.81,17.37c0,1.13-.24,1.76-1.06,2.12a12.14,12.14,0,0,1-4,.36,8.158,8.158,0,0,0-.7-2.07h-6.4v1.15h-2v-6.33h9.07v5.18a18.354,18.354,0,0,0,2.26,0c.38,0,.5-.1.5-.41v-6.07H851.14v8.61H849v-10.5h18.89ZM864.77,152v5H851.86v-5Zm-2.25,1.54H854v1.94h8.5Zm-1.66,9.55h-5.13v2h5.13Z" fill="#fff"/>
    <path id="パス_192" data-name="パス 192" d="M877.23,152.54c0,1.51,0,3.53.17,5.4.36,3.77,1.35,6.31,3,6.31,1.2,0,2.26-2.61,2.81-4.8l1.9,2.23c-1.51,4.11-3,5.52-4.75,5.52-2.43,0-4.66-2.3-5.31-8.61-.24-2.12-.26-5-.26-6.44a12.58,12.58,0,0,0-.19-2.25h2.92A19.48,19.48,0,0,0,877.23,152.54Zm16.83,10.18-2.47,1c-.41-4.13-1.78-9.46-4.2-12.34l2.37-.79C892,153.33,893.75,158.83,894.06,162.72Z" fill="#fff"/>
    <path id="パス_193" data-name="パス 193" d="M907.74,151.22a22.484,22.484,0,0,0,3.53-.82l.07,2.21a30.883,30.883,0,0,1-4.29.86,43.2,43.2,0,0,1-5.21,10.21l-2.31-1.18a36,36,0,0,0,5-8.76h-1.75c-.91,0-1.92,0-2.88-.08l-.17-2.23c.94.1,2.09.15,3.05.15a20.818,20.818,0,0,0,2.47-.1,19.675,19.675,0,0,0,.7-4.1l2.64.26C908.44,148.53,908.1,149.87,907.74,151.22Zm6.53,6.72c0,.79.1,2.18.17,3.55a15.881,15.881,0,0,1,5,3l-1.28,2a18.23,18.23,0,0,0-3.6-2.69v.67c0,2-1.22,3.7-4.39,3.7-2.78,0-5-1.2-5-3.7,0-2.26,2-3.84,5-3.84a13.262,13.262,0,0,1,2,.17c-.07-1.9-.19-4.15-.24-5.74h2.35C914.22,156.14,914.25,157,914.27,157.94Zm-4.44,8.11c1.82,0,2.42-1,2.42-2.3v-.82a8.461,8.461,0,0,0-2.23-.31c-1.59,0-2.67.72-2.67,1.7S908.2,166.05,909.83,166.05Zm3.34-13.37,1.22-1.85a43.005,43.005,0,0,1,5.76,3.22l-1.37,2a31.1,31.1,0,0,0-5.61-3.37Z" fill="#fff"/>
    <path id="パス_194" data-name="パス 194" d="M925.59,165.26a1.85,1.85,0,1,1,1.85,1.85,1.85,1.85,0,0,1-1.85-1.85Zm9,0a1.86,1.86,0,1,1,1.86,1.86A1.86,1.86,0,0,1,934.59,165.26Zm9,0a1.85,1.85,0,1,1,1.85,1.85,1.85,1.85,0,0,1-1.85-1.85Z" fill="#fff"/>
    <path id="パス_195" data-name="パス 195" d="M953.12,169v-2.06h5.49V153.55h2.24V169Z" fill="#fff"/>
    <path id="パス_196" data-name="パス 196" d="M500,204.91c2.11-1.27,4.49-2.44,5.74-3.14a14.2,14.2,0,0,0,1.92-1.27l1.32,2.18c-.63.39-1.3.75-2.07,1.13-1.58.82-4.77,2.3-7.05,3.79-2.12,1.4-3.46,2.91-3.46,4.66s1.8,3,5.38,3a35.349,35.349,0,0,0,7.75-.87v2.74a46.69,46.69,0,0,1-7.64.57c-4.63,0-8-1.32-8-5.16,0-2.54,1.63-4.51,4.08-6.24-1.1-2-2.3-4.73-3.43-7.29l2.38-1a55.775,55.775,0,0,0,3.08,6.9Z" fill="#fff"/>
    <path id="パス_197" data-name="パス 197" d="M527.19,210.22h-6.62v-5.07h6.62v4.49a13.657,13.657,0,0,0,2.71-2.35,23.729,23.729,0,0,1-2-6.43h-8.33v1.8c0,2.83-.43,6.84-2.64,9.53a7.811,7.811,0,0,0-1.63-1.37c2-2.42,2.23-5.76,2.23-8.19v-3.57h10.11c-.1-.77-.17-1.54-.2-2.33h2.12a19.969,19.969,0,0,0,.16,2.33h3.63a16.688,16.688,0,0,0-2.59-1.25l1.1-1.27a12.42,12.42,0,0,1,3.41,1.63l-.75.89H537v1.8h-7a21.507,21.507,0,0,0,1.32,4.53,16.73,16.73,0,0,0,1.71-3.62l2.11.48a20.86,20.86,0,0,1-2.76,5.26c.84,1.32,1.75,2.09,2.59,2.09.55,0,.79-.82.91-2.93a6.321,6.321,0,0,0,1.73,1c-.34,3.15-1.08,4-2.76,4-1.42,0-2.74-.91-3.84-2.45a16.707,16.707,0,0,1-2.62,2.24,7.379,7.379,0,0,0-1.22-1.25ZM515.48,217a8.83,8.83,0,0,0,3.09-4.64l2,.7a10.1,10.1,0,0,1-3.19,5.18Zm12-13.3H520.3v-1.49h7.18Zm1.65,12.72c1,0,1.16-.29,1.25-2.35a7.12,7.12,0,0,0,2,.81c-.26,2.84-.91,3.53-3,3.53h-4.3c-2.73,0-3.4-.6-3.4-2.69v-3.43h2.2v3.41c0,.62.2.72,1.42.72Zm-3.79-9.79h-3v2h3Zm-.26,3.69a15,15,0,0,1,3.91,2.79l-1.56,1.37a14.49,14.49,0,0,0-3.82-2.91Zm8.42,1.76a16.48,16.48,0,0,1,4.08,4.84l-2,1.06a16.28,16.28,0,0,0-3.86-4.94Z" fill="#fff"/>
    <path id="パス_198" data-name="パス 198" d="M547,200.93c-.12,2.66-.31,8.21-.31,11.52,0,2.55,1.59,3.41,3.67,3.41,4.23,0,6.72-2.38,8.45-4.92l1.71,2.06a12.25,12.25,0,0,1-10.2,5.4c-3.65,0-6.1-1.56-6.1-5.56,0-3.41.24-9.58.24-11.91a12.689,12.689,0,0,0-.26-2.78h3.07A22.4,22.4,0,0,0,547,200.93Zm9,3-1.73.77a24.79,24.79,0,0,0-2.23-3.92l1.68-.72A34.91,34.91,0,0,1,556,204Zm3.24-1.37-1.7.82a26.994,26.994,0,0,0-2.31-3.8l1.66-.76a39.248,39.248,0,0,1,2.33,3.79Z" fill="#fff"/>
    <path id="パス_199" data-name="パス 199" d="M570.88,199c1.25,0,6.72-.14,8-.26a7.21,7.21,0,0,0,1.53-.22l1.32,1.73c-.5.31-1,.65-1.51,1-1.22.91-4.18,3.41-5.88,4.8a9.88,9.88,0,0,1,2.88-.41c4,0,7,2.48,7,5.84,0,3.81-3,6.55-8.44,6.55-3.32,0-5.53-1.47-5.53-3.65,0-1.78,1.59-3.38,4-3.38a4.74,4.74,0,0,1,5,4.2,3.91,3.91,0,0,0,2.54-3.77c0-2.26-2.21-3.89-5.21-3.89-3.84,0-6.09,1.8-8.93,4.82l-1.75-1.77c1.87-1.54,4.88-4.06,6.29-5.24s4.13-3.4,5.33-4.46c-1.27,0-5.42.24-6.67.31a12.69,12.69,0,0,0-1.78.15l-.07-2.48a15.641,15.641,0,0,0,1.88.13Zm4.46,16.9a13.229,13.229,0,0,0,1.71-.1c-.19-1.75-1.25-3-2.83-3a1.6,1.6,0,0,0-1.76,1.36c0,1.1,1.18,1.75,2.88,1.75Z" fill="#fff"/>
    <path id="パス_200" data-name="パス 200" d="M598,199.71c-.15.74-.36,1.89-.58,3,1-.1,1.85-.14,2.4-.14,2.33,0,4.08.93,4.08,4.29,0,2.84-.36,6.7-1.37,8.72-.77,1.65-2,2.08-3.69,2.08a13.59,13.59,0,0,1-2.86-.33l-.38-2.5a12.4,12.4,0,0,0,2.92.48,1.87,1.87,0,0,0,2-1.15,19.519,19.519,0,0,0,1.08-7c0-2.07-.93-2.43-2.45-2.43-.5,0-1.29.05-2.2.15-.89,3.53-2.6,9.07-5,12.91l-2.47-1c2.4-3.24,4.12-8.43,5-11.69-1.11.12-2.09.24-2.64.31s-1.71.21-2.38.34l-.24-2.6a22.64,22.64,0,0,0,2.33,0c.77,0,2.06-.12,3.43-.24a26,26,0,0,0,.55-5.16l2.81.29A7.983,7.983,0,0,0,598,199.71Zm12.91,9.5-2.38,1.11a28.582,28.582,0,0,0-4.15-8.89l2.23-1a42,42,0,0,1,4.26,8.78Z" fill="#fff"/>
    <path id="パス_201" data-name="パス 201" d="M624.33,199.73l-.29,2.18a32.382,32.382,0,0,0,4.66-.31l-.07,2.26a47.4,47.4,0,0,1-4.83.24h0c-.16,1.25-.33,2.62-.48,3.86h.34a39.391,39.391,0,0,0,4.92-.28l-.07,2.25a43.623,43.623,0,0,1-4.49.24h-.91c-.07.84-.12,1.59-.12,2.09,0,2.18,1.27,3.46,3.84,3.46,3.5,0,5.61-1.56,5.61-3.82a6.58,6.58,0,0,0-2.54-4.8l2.66-.55a8.34,8.34,0,0,1,2.4,5.64c0,3.6-3.21,5.95-8.18,5.95-3.48,0-6.14-1.51-6.14-5.5,0-.62.07-1.53.16-2.61a26.279,26.279,0,0,1-4.8-.82l.12-2.3a20.71,20.71,0,0,0,4.92,1c.17-1.27.34-2.62.51-3.89a31.758,31.758,0,0,1-5-.84l.12-2.21a23.219,23.219,0,0,0,5.12.91c.12-.86.19-1.63.24-2.25a10.123,10.123,0,0,0,0-1.9l2.69.14A16.859,16.859,0,0,0,624.33,199.73Z" fill="#fff"/>
    <path id="パス_202" data-name="パス 202" d="M645.46,200.79c-.12,2.66-.28,8.21-.28,11.52,0,2.54,1.56,3.41,3.64,3.41,4.2,0,6.72-2.38,8.45-4.95l1.71,2.09a12.21,12.21,0,0,1-10.2,5.38c-3.65,0-6.1-1.56-6.1-5.55,0-3.41.24-9.6.24-11.9a14.551,14.551,0,0,0-.26-2.79h3.07a21.648,21.648,0,0,0-.27,2.79Z" fill="#fff"/>
    <path id="パス_203" data-name="パス 203" d="M669.9,197.64l2.78.1c-.12.62-.31,1.89-.5,3.48h.07l.79,1c-.28.43-.74,1.13-1.12,1.73a3.37,3.37,0,0,1-.1,1c1.9-1.7,4.85-3.86,7.23-3.86s3.52,1.39,3.52,3.38c0,2.43-.86,6.29-.86,8.76,0,.72.36,1.3,1.1,1.3a5.2,5.2,0,0,0,3.41-1.87l.36,2.61a6.28,6.28,0,0,1-4.46,1.92c-1.68,0-2.81-1.15-2.81-3.28,0-2.64.89-6.41.89-8.67a1.66,1.66,0,0,0-1.83-1.9c-1.87,0-4.63,2.26-6.72,4.52,0,.86-.07,1.7-.07,2.45,0,2.08,0,3.79.12,6,0,.43.07,1.13.12,1.63h-2.59c0-.5.07-1.2.07-1.58,0-2.26,0-3.62.1-6.29-1.13,1.66-2.55,3.72-3.56,5.11l-1.48-2.08c1.32-1.68,3.93-5.14,5.23-7.09,0-.69.09-1.39.14-2.08-1.13.14-3.12.4-4.56.6l-.24-2.45a15.765,15.765,0,0,0,1.8,0,26.892,26.892,0,0,0,3.15-.36c.07-1,.12-1.82.12-2.08A12.871,12.871,0,0,0,669.9,197.64Z" fill="#fff"/>
    <path id="パス_204" data-name="パス 204" d="M702.3,199.3v1.27a53.7,53.7,0,0,0,6.31-.67v2.21c-1.78.21-4,.43-6.34.52v3c2.38-.1,4.49-.31,6.58-.6v2.23c-2.2.27-4.2.44-6.5.53.05,1.11.12,2.26.17,3.34a19.26,19.26,0,0,1,6.89,3.67l-1.4,2.14a18.371,18.371,0,0,0-5.37-3.51v1.25c0,1.82-1.32,3.48-4.47,3.48-3.6,0-5.54-1.34-5.54-3.74s2.13-3.87,5.71-3.87c.62,0,1.2.05,1.78.1,0-.94-.08-1.92-.1-2.81H698.7c-1.54,0-4.2-.12-5.86-.31v-2.26a47.581,47.581,0,0,0,5.93.43H700v-3h-1c-1.59,0-4.47-.24-6-.43v-2.19a43.24,43.24,0,0,0,6,.53h1v-1.46a8.317,8.317,0,0,0-.12-1.51h2.56C702.38,198.1,702.33,198.63,702.3,199.3ZM697.84,216c1.34,0,2.38-.4,2.38-1.94v-1.34a10.4,10.4,0,0,0-2.18-.22c-2,0-3.15.79-3.15,1.75S695.77,216,697.84,216Z" fill="#fff"/>
    <path id="パス_205" data-name="パス 205" d="M731.66,200.11v3l2.28-.17c.63,0,1.44-.1,2.07-.14v2.35h-2.09c-.62,0-1.42.05-2.31.1a34.672,34.672,0,0,1-.36,4.94c-.24,1.16-.79,1.47-1.94,1.47a28.358,28.358,0,0,1-3.36-.36l.05-2.09a13.719,13.719,0,0,0,2.3.31c.55,0,.79-.09.84-.62a34.732,34.732,0,0,0,.24-3.48c-2.33.19-4.94.43-7.17.67v5.71c.07,2.47.16,3.24,4.08,3.24a45.111,45.111,0,0,0,7.15-.6l-.07,2.57a68.112,68.112,0,0,1-6.94.41c-5.83,0-6.46-1.3-6.55-5.26v-5.81c-.88.1-1.63.17-2.16.24L715,207l-.27-2.45a19.687,19.687,0,0,0,2.72-.14l2.32-.22v-2.92a14.378,14.378,0,0,0-.16-2.31h2.66a19.476,19.476,0,0,0-.12,2.19c0,.67,0,1.68,0,2.83,2.2-.22,4.82-.46,7.22-.67v-3.12a16.089,16.089,0,0,0-.17-2h2.57a14.524,14.524,0,0,0-.11,1.92Z" fill="#fff"/>
    <path id="パス_206" data-name="パス 206" d="M751.05,200.21c-1.1,1.68-3.09,5.26-4.29,7.49a5.28,5.28,0,0,1,3.19-1.15,2.793,2.793,0,0,1,2.9,3c0,1.25,0,3.12.1,4.23a1.56,1.56,0,0,0,1.75,1.53c2.43,0,3.89-3,4.54-5.78l2,1.65c-1.25,4-3.36,6.7-6.94,6.7-2.62,0-3.63-1.61-3.7-3.17-.09-1.37-.07-3.26-.14-4.44a1.46,1.46,0,0,0-1.59-1.51c-1.8,0-3.4,1.82-4.32,3.74a43.758,43.758,0,0,0-2,5.4L740,217c1.77-4.85,6.88-14.67,8.16-17a21.639,21.639,0,0,0,1-2.12l2.69,1.08C751.61,199.35,751.34,199.78,751.05,200.21Z" fill="#fff"/>
    <path id="パス_207" data-name="パス 207" d="M773.18,214.73a3.76,3.76,0,1,1-2.319-3.483,3.73,3.73,0,0,1,2.319,3.483Zm-1.44,0a2.3,2.3,0,1,0-.67,1.633,2.31,2.31,0,0,0,.67-1.633Z" fill="#fff"/>
    <g id="グループ_6" data-name="グループ 6" transform="translate(10.165 1.73)">
      <path id="パス_208" data-name="パス 208" d="M277.06,250.67c1.76-.17,6-.58,10.44-1,2.57-.22,5-.36,6.63-.41v2.42a23.3,23.3,0,0,0-4.68.34,8,8,0,0,0-5.31,7.22c0,4.37,4.08,5.84,8.05,6l-.87,2.57c-4.7-.24-9.62-2.76-9.62-8a9.61,9.61,0,0,1,4.08-7.8c-2.43.24-8,.82-10.71,1.39l-.24-2.61C275.74,250.76,276.58,250.71,277.06,250.67Zm15.58,7-1.49.67a22.273,22.273,0,0,0-1.92-3.36l1.44-.62a31.778,31.778,0,0,1,1.97,3.34Zm2.74-1.08-1.47.7a21.692,21.692,0,0,0-2-3.32l1.44-.65a36.806,36.806,0,0,1,2.03,3.3Z" fill="#fff"/>
      <path id="パス_209" data-name="パス 209" d="M313.32,249.47v1.2h7.2l-.05,2.25c-1.41-.07-3.69-.12-7.17-.12v3.77a6,6,0,0,1,.84,3.19c0,3.2-1.7,7-7.39,8.62l-2-2c2.83-.62,5-1.68,6.19-3.52a3.74,3.74,0,0,1-1.68.36,4,4,0,0,1-4-4.18,4.33,4.33,0,0,1,4.46-4.32,4.849,4.849,0,0,1,1.35.17v-2c-3.64,0-7.58.19-10.56.38l-.07-2.3c2.71,0,7.18-.17,10.61-.22a8.079,8.079,0,0,0-.05-1.22c-.07-.77-.14-1.52-.19-1.76h2.76A14.575,14.575,0,0,0,313.32,249.47Zm-3.7,11.64c1.25,0,2.18-1,1.87-3.24a2,2,0,0,0-1.87-1.15,2.16,2.16,0,0,0-2.18,2.25,2.11,2.11,0,0,0,2.18,2.14Z" fill="#fff"/>
      <path id="パス_210" data-name="パス 210" d="M334.41,249.83c-.15.74-.36,1.89-.58,3,1-.1,1.87-.14,2.43-.14,2.3,0,4.08.93,4.08,4.29,0,2.84-.36,6.7-1.37,8.72a3.59,3.59,0,0,1-3.7,2.11,13.382,13.382,0,0,1-2.85-.36L332,265a12.54,12.54,0,0,0,2.95.48,1.92,1.92,0,0,0,2-1.13c.72-1.51,1.05-4.56,1.05-7.05,0-2.07-.93-2.43-2.44-2.43a21.4,21.4,0,0,0-2.19.15c-.89,3.53-2.59,9.07-5,12.91l-2.47-1c2.4-3.24,4.13-8.43,5-11.69l-2.62.31c-.6.07-1.73.22-2.37.34l-.24-2.6a22.441,22.441,0,0,0,2.32,0c.77,0,2.07-.12,3.41-.24a26.91,26.91,0,0,0,.58-5.16l2.81.29C334.65,248.67,334.53,249.3,334.41,249.83Zm10.51.84-1.54.64a41.19,41.19,0,0,1,4,8.12L345,260.56a27.709,27.709,0,0,0-4.18-8.79l2.23-1a.711.711,0,0,1,.1.14,22.47,22.47,0,0,0-1.7-2.93l1.56-.65a35.5,35.5,0,0,1,1.91,3.34Zm2.78-1.06-1.56.7a23.151,23.151,0,0,0-2-3.32l1.56-.64a34,34,0,0,1,2,3.26Z" fill="#fff"/>
      <path id="パス_211" data-name="パス 211" d="M351.78,263l2-1.73a45.046,45.046,0,0,1,5.31,5.3L357,268.33A43,43,0,0,0,351.78,263Z" fill="#fff"/>
      <path id="パス_212" data-name="パス 212" d="M385.24,248.84c1,0,5.78-.21,7.2-.38a7.518,7.518,0,0,0,1.46-.27l1.52,1.76a14.4,14.4,0,0,0-1.54,1.08c-1.75,1.41-4.75,3.93-6.55,5.35,3.45-.36,7.63-.67,10.85-.67v2.25a37.583,37.583,0,0,0-6.14.08c-2.26.33-4.37,2.13-4.37,4.24s1.75,3,3.93,3.27a17.669,17.669,0,0,0,3.53.05l-.5,2.49c-6,.24-9.34-1.58-9.34-5.42a5.58,5.58,0,0,1,2.33-4.2c-2.4.19-5.38.55-8.07,1l-.21-2.28c1.29-.12,2.95-.34,4.18-.48a92.865,92.865,0,0,0,7.41-6c-1,.07-4.68.24-5.69.31-.62.05-1.36.15-2,.19l-.12-2.44A19.638,19.638,0,0,0,385.24,248.84Z" fill="#fff"/>
      <path id="パス_213" data-name="パス 213" d="M415.25,267.78l-1.41-2.26a15.233,15.233,0,0,0,2.13-.33c3.08-.7,5.81-2.95,5.81-6.82a6.39,6.39,0,0,0-5.81-6.7,46.607,46.607,0,0,1-1.44,6.75c-1.44,4.9-3.43,7.61-5.8,7.61s-4.56-2.64-4.56-6.65c0-5.38,4.7-10,10.72-10,5.76,0,9.41,4,9.41,9.05S421.09,266.94,415.25,267.78Zm-6.45-4.61c1.08,0,2.21-1.56,3.31-5.25a38.655,38.655,0,0,0,1.32-6.2,8,8,0,0,0-6.84,7.42C406.59,261.9,407.77,263.17,408.8,263.17Z" fill="#fff"/>
      <path id="パス_214" data-name="パス 214" d="M444.83,247.09a26.65,26.65,0,0,0,7.15,8.57,12.6,12.6,0,0,0-1.87,2,20.475,20.475,0,0,1-2-2v.94c-.31,7.27-.65,10.06-1.46,11a2.59,2.59,0,0,1-2,1,28.405,28.405,0,0,1-3.72,0,5.15,5.15,0,0,0-.74-2.26c1.46.14,2.83.17,3.38.17a1.26,1.26,0,0,0,1-.34c.55-.57.87-2.83,1.11-8.4h-5.55c-.6,4.66-2.13,8.86-8.3,11.11a7.28,7.28,0,0,0-1.42-2c5.52-1.82,6.79-5.33,7.3-9.12h-4.49v-1.85a20.819,20.819,0,0,1-2.19,2,16.065,16.065,0,0,0-1.89-1.78,20.42,20.42,0,0,0,7.1-8.95l2.38.69a27,27,0,0,1-5.09,7.76H448a37.079,37.079,0,0,1-5.33-7.64Z" fill="#fff"/>
    </g>
    <g id="グループ_7" data-name="グループ 7" transform="translate(28.115 1.55)">
      <path id="パス_217" data-name="パス 217" d="M517.25,252.63a26.824,26.824,0,0,1-2.21,3.1v13.2h-2.76V258.76a24.1,24.1,0,0,1-2.11,1.84,17.676,17.676,0,0,0-1.51-2.73,22.68,22.68,0,0,0,6.05-6.29Zm-.6-5a24.88,24.88,0,0,1-6.34,6.07,19.76,19.76,0,0,0-1.41-2.4,18.071,18.071,0,0,0,5.06-4.75Zm13.3,10a16,16,0,0,1-4.13,6.8,17.619,17.619,0,0,0,5.83,2.08,11.538,11.538,0,0,0-1.82,2.55,17.33,17.33,0,0,1-6.29-2.76,22.25,22.25,0,0,1-6,2.76,11.39,11.39,0,0,0-1.56-2.4,18.221,18.221,0,0,0,5.43-2.28,16.451,16.451,0,0,1-2.86-4.27l2.14-.65H517.3v-2.57h10.2l.53-.12Zm-8.31-7.68c0,2.21-.43,5-2.78,6.77a12.129,12.129,0,0,0-2.36-1.61,5.82,5.82,0,0,0,2.43-5.23v-2.47h8.69v5.21c0,.43,0,.64.07.74a.48.48,0,0,0,.34.1h.5a.77.77,0,0,0,.36-.08c.1,0,.19-.19.24-.52s.07-1.11.1-2a7.61,7.61,0,0,0,2.13,1.13,10.581,10.581,0,0,1-.36,2.59,1.76,1.76,0,0,1-.91,1,3.53,3.53,0,0,1-1.44.29h-1.44a2.62,2.62,0,0,1-1.8-.63c-.46-.46-.67-1-.67-2.57v-2.81h-3.1Zm-.53,9.51a11.47,11.47,0,0,0,2.43,3.26,12.828,12.828,0,0,0,2.52-3.26Z" fill="#dca0aa"/>
      <path id="パス_218" data-name="パス 218" d="M557.84,265.16V268H536.11v-2.86h12a59.442,59.442,0,0,0,2.73-10.82l3.29.6a97.372,97.372,0,0,1-3,10.22Zm-.7-11.61H536.88v-2.81h8.52v-4.18h3v4.18h8.76ZM542,264.42a39.309,39.309,0,0,0-2.06-9.27l2.73-.72a39.347,39.347,0,0,1,2.26,9.22Z" fill="#dca0aa"/>
      <path id="パス_219" data-name="パス 219" d="M565.24,253c1.85-.57,6.74-2.3,10.25-2.3,4.34,0,7.75,2.5,7.75,6.94,0,5.45-5.18,8.93-13.63,9.36l-1.39-3.19c6.5-.17,11.59-2,11.59-6.22,0-2.26-1.56-4-4.44-4-3.53,0-9.22,2.4-11.72,3.49l-1.36-3.37a30.2,30.2,0,0,0,2.95-.71Z" fill="#dca0aa"/>
      <path id="パス_220" data-name="パス 220" d="M603.94,252.08a34.928,34.928,0,0,1-3.77,6.6,66.905,66.905,0,0,1,6.7,6.87l-2.74,2.37a55.544,55.544,0,0,0-6-6.79,31.682,31.682,0,0,1-9,6.75l-2.47-2.6a27,27,0,0,0,9.84-6.88,18.7,18.7,0,0,0,3.58-5.89h-8.14c-1,0-2.33.15-2.83.17v-3.41a25.772,25.772,0,0,0,2.83.17h8.47a8.539,8.539,0,0,0,2.47-.31l2,1.46A12.583,12.583,0,0,0,603.94,252.08Z" fill="#dca0aa"/>
      <path id="パス_221" data-name="パス 221" d="M617.23,247.91l3.38-.56c.07.48.14,1.3.26,1.88,0,.33.2,1.12.39,2.2,2-.33,3.86-.62,4.73-.79s1.68-.33,2.25-.5l.58,3.14c-.53.05-1.49.19-2.21.29-1,.17-2.81.46-4.8.77.24,1.2.48,2.52.74,3.84,2.16-.36,4.13-.7,5.21-.91a24,24,0,0,0,2.45-.58l.65,3.17c-.65.05-1.63.22-2.55.36l-5.2.84c.38,2,.72,3.58.86,4.32s.41,1.58.62,2.35l-3.45.63c-.12-.89-.19-1.73-.34-2.43s-.43-2.35-.81-4.37c-2.45.41-4.71.8-5.74,1s-1.85.36-2.4.5l-.67-3.21a23.872,23.872,0,0,0,2.49-.27c1.11-.14,3.34-.5,5.76-.89-.24-1.29-.5-2.64-.72-3.86-2.11.33-4,.65-4.7.77s-1.39.29-2.21.5l-.65-3.31a16.638,16.638,0,0,0,2.24-.17c.75-.1,2.68-.36,4.75-.7-.19-1-.36-1.8-.43-2.18C617.56,249,617.39,248.48,617.23,247.91Z" fill="#dca0aa"/>
      <path id="パス_222" data-name="パス 222" d="M638,260.24c.67-2.06.69-6.6.69-9.5a9.382,9.382,0,0,0-.21-2.21H642a14.778,14.778,0,0,0-.17,2.18c0,2.84-.07,7.9-.72,10.33a14,14,0,0,1-4.27,6.88L633.89,266a11.34,11.34,0,0,0,4.11-5.76Zm7.22,4.32v-14a10.124,10.124,0,0,0-.19-2.06h3.58a11.276,11.276,0,0,0-.17,2.08v12.56a15.25,15.25,0,0,0,5.93-5.07l1.85,2.64a26.45,26.45,0,0,1-8.14,6.56,4.339,4.339,0,0,0-1,.72l-2-1.66a8.9,8.9,0,0,0,.11-1.77Z" fill="#dca0aa"/>
      <path id="パス_223" data-name="パス 223" d="M669.56,250.35a54.823,54.823,0,0,0,7.06-.69v2.23a72.507,72.507,0,0,1-7.9.62,18.7,18.7,0,0,1-1.85,3.17A7.18,7.18,0,0,1,670,255a3.15,3.15,0,0,1,3.21,2c1.49-.69,2.72-1.2,3.84-1.73.82-.36,1.52-.67,2.28-1.05l1,2.21c-.7.21-1.73.6-2.45.89-1.22.48-2.78,1.1-4.46,1.87,0,1.37,0,3.29.07,4.44h-2.28c0-.84.07-2.21.09-3.39-2.06,1.13-3.36,2.24-3.36,3.65,0,1.63,1.56,2,4,2a41.29,41.29,0,0,0,6.67-.62l-.07,2.42a60.148,60.148,0,0,1-6.67.43c-3.58,0-6.37-.84-6.37-3.81s2.88-4.83,5.67-6.24a1.93,1.93,0,0,0-2-1.2,6.09,6.09,0,0,0-4,1.72,26.006,26.006,0,0,0-2.19,2.57l-2.06-1.53a24,24,0,0,0,5.42-7h-.69c-1,0-2.67-.05-4-.15v-2.25a31.263,31.263,0,0,0,4.13.26h1.41a11.77,11.77,0,0,0,.55-2.86l2.5.19C670.07,248.43,669.88,249.32,669.56,250.35Z" fill="#fff"/>
      <path id="パス_224" data-name="パス 224" d="M706.43,255.23a27,27,0,0,1-4,4.63v6c0,1.39-.28,2.11-1.24,2.52a16.42,16.42,0,0,1-4.88.38,8.8,8.8,0,0,0-.79-2.35c1.71.07,3.46,0,4,0s.65-.17.65-.62v-4a41.929,41.929,0,0,1-13.78,6.77,16.234,16.234,0,0,0-1.51-2,40,40,0,0,0,11.35-4.73c-4,.34-7.82.63-10.75.82l-.33-2.21,3.64-.19V249h4.92a17.988,17.988,0,0,0,.87-2.37l2.71.36c-.36.69-.74,1.39-1.13,2h6.31v7.52a24.619,24.619,0,0,0,1.8-2.4ZM691,251v1.87h9.14V251Zm9.14,3.5H691v1.9h9.14ZM691,260.1c2.59-.14,5.44-.29,8.28-.48.28-.24.57-.48.86-.74V258H691Z" fill="#fff"/>
      <path id="パス_225" data-name="パス 225" d="M715.4,250.5a58.571,58.571,0,0,0-1.17,9.05,25.35,25.35,0,0,0,.14,2.57c.41-1,.89-2.16,1.28-3.05l1.2,1c-.63,1.82-1.47,4.39-1.71,5.59a5,5,0,0,0-.12,1.1,5.621,5.621,0,0,0,.05.89l-2.19.15A30.632,30.632,0,0,1,712,260a68.4,68.4,0,0,1,1-9.57,18,18,0,0,0,.21-2l2.67.24a18.585,18.585,0,0,0-.48,1.83Zm5.74,12c0,1.08.84,2,3.75,2a25.471,25.471,0,0,0,6-.65v2.57a32.7,32.7,0,0,1-6.07.48c-4.08,0-6-1.41-6-3.74a12.406,12.406,0,0,1,.4-2.95l2.16.19a8.61,8.61,0,0,0-.24,2.12Zm9-12.12v2.45a61.441,61.441,0,0,1-10.06,0v-2.45a44.109,44.109,0,0,0,10.09.02Z" fill="#fff"/>
      <path id="パス_226" data-name="パス 226" d="M742.77,247.57a37.818,37.818,0,0,1-2.42,5.06v16.09h-2.26V256.11a21.073,21.073,0,0,1-2.11,2.48,14.465,14.465,0,0,0-1.35-2.28,25.9,25.9,0,0,0,5.93-9.44Zm13.87,6.62h-2.85v11.72c0,1.56-.41,2.18-1.42,2.52a17.881,17.881,0,0,1-5.3.38,9,9,0,0,0-.87-2.23c1.95.1,3.94.07,4.51.05s.77-.19.77-.72V254.19H742.1V252h9.38v-5h2.31v5h2.85Zm-9.93,9a60.151,60.151,0,0,0-3.29-5.88l1.94-.91c1.15,1.8,2.71,4.22,3.43,5.66Z" fill="#fff"/>
      <path id="パス_227" data-name="パス 227" d="M765.31,250.09c-.68,3.14-1.52,8.31-.72,11.81.31-.89.81-2.23,1.22-3.29l1.25.79c-.65,1.83-1.32,4.28-1.61,5.52a7.263,7.263,0,0,0-.12,1.13,4.033,4.033,0,0,0,.07.89l-2.09.24A26.631,26.631,0,0,1,762,259.5a65.241,65.241,0,0,1,.87-9.6,13.007,13.007,0,0,0,.12-1.8l2.81.26C765.62,248.87,765.43,249.63,765.31,250.09Zm12.43-.58v3.39a34.619,34.619,0,0,0,3.79-.51v2.45c-1,.15-2.35.29-3.74.36v.94c0,5.57-.2,9.29-5.14,12.31l-2.21-1.73A7.7,7.7,0,0,0,773,265c2.23-2.08,2.49-4.56,2.49-8.93v-.79c-1,0-2,.05-2.9.05-1.11,0-2.69-.07-3.79-.12v-2.42a27.19,27.19,0,0,0,3.76.26c.92,0,1.9,0,2.88-.05,0-1.46-.07-2.9-.12-3.53a11.152,11.152,0,0,0-.24-1.51h2.79a12.857,12.857,0,0,0-.13,1.55Z" fill="#fff"/>
      <path id="パス_228" data-name="パス 228" d="M790.4,249c1.25,0,6.72-.14,8-.26a7.469,7.469,0,0,0,1.54-.22l1.32,1.73c-.51.31-1,.65-1.52,1-1.22.91-4.17,3.41-5.88,4.8a9.88,9.88,0,0,1,2.88-.41c4,0,7,2.48,7,5.84,0,3.81-3,6.55-8.45,6.55-3.31,0-5.52-1.47-5.52-3.65,0-1.78,1.58-3.38,4-3.38a4.73,4.73,0,0,1,5,4.2,3.9,3.9,0,0,0,2.55-3.77c0-2.26-2.21-3.89-5.21-3.89-3.84,0-6.1,1.8-8.93,4.82l-1.75-1.77c1.87-1.54,4.87-4.06,6.28-5.24s4.13-3.4,5.33-4.46c-1.27,0-5.42.24-6.67.31a12.82,12.82,0,0,0-1.78.15l-.07-2.48a15.738,15.738,0,0,0,1.88.13Zm4.47,16.9a13.07,13.07,0,0,0,1.7-.1c-.19-1.75-1.25-3-2.83-3a1.59,1.59,0,0,0-1.74,1.4c0,1.06,1.16,1.71,2.87,1.71Z" fill="#fff"/>
      <path id="パス_229" data-name="パス 229" d="M813.42,262.24c0,1.7,1.68,2.9,5.35,2.9a30.85,30.85,0,0,0,8.31-1v2.64a34.578,34.578,0,0,1-8.23.84c-5.16,0-8-1.7-8-4.85a15,15,0,0,1,.48-3.38l2.48.21A8.589,8.589,0,0,0,813.42,262.24Zm5.45-12.17c2.33,0,4.92-.17,6.7-.34v2.5c-1.66.12-4.44.28-6.68.28-2.44,0-4.53-.12-6.45-.26v-2.5a54,54,0,0,0,6.43.32Z" fill="#fff"/>
      <path id="パス_230" data-name="パス 230" d="M841,254.91c2.11-1.27,4.49-2.44,5.73-3.14a13.6,13.6,0,0,0,1.92-1.27l1.32,2.18a22.71,22.71,0,0,1-2.06,1.13c-1.58.82-4.78,2.3-7.06,3.79-2.11,1.4-3.45,2.91-3.45,4.66s1.8,3,5.37,3a35.44,35.44,0,0,0,7.76-.87v2.74a46.471,46.471,0,0,1-7.63.57c-4.63,0-8-1.32-8-5.16,0-2.54,1.63-4.51,4.08-6.24-1.11-2-2.31-4.73-3.43-7.29l2.37-1a55.688,55.688,0,0,0,3.08,6.9Z" fill="#fff"/>
      <path id="パス_231" data-name="パス 231" d="M865.35,249.83c-.14.74-.36,1.89-.58,3,1-.1,1.88-.14,2.43-.14,2.3,0,4.08.93,4.08,4.29,0,2.84-.36,6.7-1.37,8.72a3.59,3.59,0,0,1-3.7,2.11,13.382,13.382,0,0,1-2.85-.36L863,265a12.539,12.539,0,0,0,2.95.48,1.92,1.92,0,0,0,2-1.13,19.751,19.751,0,0,0,1.06-7.05c0-2.07-.94-2.43-2.45-2.43a21.4,21.4,0,0,0-2.19.15c-.88,3.53-2.59,9.07-5,12.91l-2.48-1c2.4-3.24,4.13-8.43,5-11.69l-2.61.31c-.6.07-1.73.22-2.38.34l-.24-2.6a22.632,22.632,0,0,0,2.33,0c.77,0,2.06-.12,3.41-.24a26.857,26.857,0,0,0,.57-5.16l2.81.29A12.466,12.466,0,0,0,865.35,249.83Zm10.51.84-1.53.64a42.335,42.335,0,0,1,4,8.12l-2.38,1.13a27.5,27.5,0,0,0-4.18-8.79l2.24-1a.856.856,0,0,1,.09.14,21.384,21.384,0,0,0-1.7-2.93l1.56-.65a35.5,35.5,0,0,1,1.9,3.34Zm2.79-1.06-1.56.7a25.131,25.131,0,0,0-2-3.32l1.56-.64a36.268,36.268,0,0,1,2,3.26Z" fill="#fff"/>
      <path id="パス_232" data-name="パス 232" d="M885.29,250.67c1.75-.17,6-.58,10.44-1,2.57-.22,5-.36,6.62-.41v2.42a23.3,23.3,0,0,0-4.68.34,8,8,0,0,0-5.3,7.22c0,4.37,4.08,5.84,8,6l-.87,2.57c-4.7-.24-9.62-2.76-9.62-8A9.61,9.61,0,0,1,894,252c-2.43.24-8,.82-10.71,1.39l-.24-2.61C884,250.76,884.81,250.71,885.29,250.67Zm15.57,7-1.48.67a23.161,23.161,0,0,0-1.92-3.36l1.44-.62a33.591,33.591,0,0,1,1.96,3.34Zm2.74-1.08-1.46.7a22.546,22.546,0,0,0-2-3.32l1.44-.65a34.631,34.631,0,0,1,2.02,3.3Z" fill="#fff"/>
      <path id="パス_233" data-name="パス 233" d="M917.25,247.81l2.57-.29a22.14,22.14,0,0,0,.5,2.71,25.521,25.521,0,0,0,4.85-1.08l.31,2.19a32.609,32.609,0,0,1-4.61.93c.17.51.32,1,.48,1.42s.32.84.48,1.3a26.4,26.4,0,0,0,4.71-1l.38,2.25a39.476,39.476,0,0,1-4.15.8,23.154,23.154,0,0,0,1.49,2.61,6.22,6.22,0,0,0,1,1.13l-1.2,1.78a53.791,53.791,0,0,0-5.42-.75l.19-1.82,3.34.34a24.919,24.919,0,0,1-1.64-3,76.577,76.577,0,0,1-10.51,0l-.12-2.23a55.709,55.709,0,0,0,9.75.14c-.15-.36-.29-.72-.41-1-.22-.63-.39-1.18-.55-1.68a56.759,56.759,0,0,1-8.19-.2l-.14-2.18a49,49,0,0,0,7.73.31l-.08-.21C917.78,249.42,917.54,248.6,917.25,247.81Zm-4.42,15.27c0,1.89,1.73,2.78,5.24,2.78a28.329,28.329,0,0,0,5.85-.53l-.12,2.43a38.365,38.365,0,0,1-5.71.43c-4.75,0-7.54-1.42-7.58-4.66a7.21,7.21,0,0,1,1-3.6l2.36.46a4.56,4.56,0,0,0-1.04,2.69Z" fill="#fff"/>
      <path id="パス_234" data-name="パス 234" d="M943.85,249.3c0,.29,0,.74-.05,1.27a53.644,53.644,0,0,0,6.32-.67v2.21c-1.78.21-4,.43-6.34.52v3c2.38-.1,4.49-.31,6.58-.6v2.23c-2.21.27-4.2.44-6.5.53,0,1.11.12,2.26.17,3.34a19.11,19.11,0,0,1,6.88,3.67l-1.39,2.14a18.511,18.511,0,0,0-5.37-3.51v1.25c0,1.82-1.32,3.48-4.46,3.48-3.6,0-5.55-1.34-5.55-3.74s2.14-3.87,5.72-3.87c.62,0,1.2.05,1.77.1,0-.94-.07-1.92-.09-2.81h-1.32c-1.54,0-4.2-.12-5.86-.31v-2.26a47.586,47.586,0,0,0,5.93.43h1.22v-3h-1c-1.59,0-4.47-.24-6-.43v-2.19a43.241,43.241,0,0,0,6,.53h1v-1.46a7.512,7.512,0,0,0-.12-1.51H944A13.379,13.379,0,0,0,943.85,249.3ZM939.39,266c1.34,0,2.37-.4,2.37-1.94v-1.34a10.471,10.471,0,0,0-2.18-.22c-2,0-3.15.79-3.15,1.75S937.32,266,939.39,266Z" fill="#fff"/>
      <path id="パス_235" data-name="パス 235" d="M969.76,249.47v1.2h7.2l-.05,2.25c-1.42-.07-3.7-.12-7.18-.12v3.77a6,6,0,0,1,.84,3.19c0,3.2-1.71,7-7.39,8.62l-2-2c2.83-.62,5-1.68,6.19-3.52a3.77,3.77,0,0,1-1.68.36,4,4,0,0,1-4-4.18,4.33,4.33,0,0,1,4.46-4.32,4.73,4.73,0,0,1,1.34.17c0-.63,0-1.35,0-2-3.65,0-7.58.19-10.56.38l-.07-2.3c2.71,0,7.17-.17,10.61-.22v-1.22c-.07-.77-.15-1.52-.19-1.76h2.76A12.8,12.8,0,0,0,969.76,249.47Zm-3.69,11.64c1.24,0,2.18-1,1.87-3.24a2,2,0,0,0-1.87-1.15,2.16,2.16,0,0,0-2.19,2.25,2.11,2.11,0,0,0,2.19,2.14Z" fill="#fff"/>
      <path id="パス_236" data-name="パス 236" d="M989.37,264.73a3.76,3.76,0,1,1-1.819-3.417A3.76,3.76,0,0,1,989.37,264.73Zm-1.44,0a2.3,2.3,0,1,0-.67,1.633A2.31,2.31,0,0,0,987.93,264.73Z" fill="#fff"/>
    </g>
    <path id="パス_237" data-name="パス 237" d="M313.35,348.84c1,0,5.78-.21,7.2-.38a7.518,7.518,0,0,0,1.46-.27l1.51,1.76A15.4,15.4,0,0,0,322,351c-1.76,1.41-4.76,3.93-6.56,5.35,3.46-.36,7.64-.67,10.85-.67v2.25a37.729,37.729,0,0,0-6.15.08c-2.25.33-4.37,2.13-4.37,4.24s1.76,3,3.94,3.27a17.669,17.669,0,0,0,3.53.05l-.5,2.49c-6,.24-9.34-1.58-9.34-5.42a5.58,5.58,0,0,1,2.33-4.2c-2.4.19-5.38.55-8.07,1l-.21-2.28c1.29-.12,2.95-.34,4.17-.48a93.174,93.174,0,0,0,7.42-6c-1,.07-4.68.24-5.69.31-.62.05-1.37.15-2,.19l-.12-2.44a19.641,19.641,0,0,0,2.12.1Z" fill="#fff"/>
    <path id="パス_238" data-name="パス 238" d="M343.36,367.78l-1.42-2.26a15.159,15.159,0,0,0,2.14-.33c3.07-.7,5.81-2.95,5.81-6.82a6.39,6.39,0,0,0-5.81-6.7,46.615,46.615,0,0,1-1.44,6.75c-1.44,4.9-3.43,7.61-5.81,7.61s-4.56-2.64-4.56-6.65c0-5.38,4.71-10,10.73-10,5.76,0,9.41,4,9.41,9.05S349.19,366.94,343.36,367.78Zm-6.46-4.61c1.08,0,2.21-1.56,3.32-5.25a38.663,38.663,0,0,0,1.32-6.2,8,8,0,0,0-6.84,7.42C334.7,361.9,335.87,363.17,336.9,363.17Z" fill="#fff"/>
    <path id="パス_239" data-name="パス 239" d="M357,350.76h8.74v1.78H357Zm8,16.95h-5v1h-1.92v-8.06h7Zm-.14-11.88h-6.77V354.1h6.77Zm-6.77,1.53h6.77v1.73h-6.77Zm6.77-8.09h-6.62v-1.75h6.62ZM360,362.48v3.45h3.1v-3.45Zm19.13,3.36V368H365.77v-2.11h1.68v-11.7h2.07v11.65h2.42V350.19h-5.42v-2.12h12.22v2.12h-4.61v6.19h4.46v2.11h-4.46v7.35Z" fill="#fff"/>
    <path id="パス_240" data-name="パス 240" d="M396.93,350.57a38.46,38.46,0,0,1-2.09,12.05c1.59,3.1,3.82,3.86,6.56,3.86h4.56a7.718,7.718,0,0,0-.65,2h-4c-3.1,0-5.57-.79-7.37-3.82a12.51,12.51,0,0,1-3.65,4.18,6.6,6.6,0,0,0-1.25-1.56,10.6,10.6,0,0,0,3.87-4.8,24.411,24.411,0,0,1-1.13-4.11,14.179,14.179,0,0,1-1.11,2.67,9.219,9.219,0,0,0-1.44-1.32A12.362,12.362,0,0,0,390,358l-1.68.72v7.71c0,1.05-.22,1.63-.84,2a6.82,6.82,0,0,1-3,.36,8.76,8.76,0,0,0-.6-1.94h2.07c.24,0,.41-.1.41-.43v-6.91l-2.4,1-.56-2.06c.82-.27,1.85-.65,3-1.11v-4h-2.6v-2.07h2.6v-4.46h1.94v4.46h1.85v2.07h-1.85v3.26l1.66-.64.28,1.27a46.091,46.091,0,0,0,1.52-10.42l1.87.17c-.1,1.2-.19,2.4-.31,3.55h2.13l.34-.05Zm-3.89,1.8c-.09.67-.19,1.32-.31,1.94a36.242,36.242,0,0,0,1.06,5.6,35.749,35.749,0,0,0,1.25-7.54Zm6.63,2.4c0,3.05-.34,7.25-2.26,10a7,7,0,0,0-1.39-1.23c1.68-2.49,1.85-6,1.85-8.76V348.2h5.49v13.1a5.18,5.18,0,0,0,.05,1.13.21.21,0,0,0,.22.12h.26a.34.34,0,0,0,.29-.12,2.179,2.179,0,0,0,.14-.7c.05-.43.08-1.39.08-2.59a3.57,3.57,0,0,0,1.44.77,19.786,19.786,0,0,1-.22,2.95,1.68,1.68,0,0,1-.58,1,1.46,1.46,0,0,1-1,.31h-.89a1.84,1.84,0,0,1-1.23-.45c-.31-.36-.4-.77-.4-2.57V350.07h-1.85Z" fill="#fff"/>
    <path id="パス_241" data-name="パス 241" d="M414.71,350.5a57.335,57.335,0,0,0-1.18,9.05,25.35,25.35,0,0,0,.14,2.57c.41-1,.89-2.16,1.28-3.05l1.2,1c-.63,1.82-1.47,4.39-1.71,5.59a5,5,0,0,0-.12,1.1,5.621,5.621,0,0,0,.05.89l-2.18.15a30.549,30.549,0,0,1-.89-7.76,69.94,69.94,0,0,1,1-9.57c.09-.6.19-1.35.22-2l2.66.24a16.125,16.125,0,0,0-.47,1.79Zm5.73,12c0,1.08.84,2,3.75,2a25.47,25.47,0,0,0,6-.65v2.57a32.7,32.7,0,0,1-6.07.48c-4.08,0-5.95-1.41-5.95-3.74a12.408,12.408,0,0,1,.4-2.95l2.16.19a8.613,8.613,0,0,0-.29,2.12Zm9-12.12v2.45a61.44,61.44,0,0,1-10.06,0v-2.45a44.112,44.112,0,0,0,10.09.02Z" fill="#fff"/>
    <path id="パス_242" data-name="パス 242" d="M436.07,363l2-1.73a44.313,44.313,0,0,1,5.31,5.3l-2,1.73A43,43,0,0,0,436.07,363Z" fill="#fff"/>
    <path id="パス_243" data-name="パス 243" d="M475.64,358.56a23.19,23.19,0,0,0,8.86,7.08,12.452,12.452,0,0,0-1.63,1.92,25.65,25.65,0,0,1-8.38-7.2v8.38h-2.35v-8.28a26.2,26.2,0,0,1-8.35,7.08,15.4,15.4,0,0,0-1.64-1.9,23.09,23.09,0,0,0,8.81-7.08h-8.11v-2.21h9.29v-3.64h-7.56V350.5h7.56v-3.77h2.35v3.77h7.75v2.21h-7.75v3.64h9.43v2.21Z" fill="#fff"/>
    <path id="パス_244" data-name="パス 244" d="M492.23,360.8a22.749,22.749,0,0,1-1.61,6.12,8.5,8.5,0,0,0-1.71-.84,18.189,18.189,0,0,0,1.42-5.62Zm2.68-1.88v9.87h-2V359l-3.62.22-.2-2,1.68-.05c.44-.57.92-1.22,1.37-1.89a22.5,22.5,0,0,0-3-3.36l1.08-1.47c.21.17.43.36.64.55a26.782,26.782,0,0,0,2-4.34l2,.77c-.84,1.61-1.85,3.45-2.71,4.77.43.46.84.92,1.15,1.32.87-1.41,1.68-2.88,2.28-4.1l1.85.84c-1.34,2.18-3.07,4.8-4.63,6.82,1,0,2-.07,3-.15-.31-.67-.65-1.34-1-1.94l1.52-.63a18.85,18.85,0,0,1,2.18,5l-1.63.72a9,9,0,0,0-.39-1.29Zm2.07,1.35a27.538,27.538,0,0,1,1.51,4.34l-1.7.58a25.518,25.518,0,0,0-1.42-4.39Zm13.41-11.81a14.79,14.79,0,0,1-4.08,6.26,16.71,16.71,0,0,0,5.28,2.09,8.449,8.449,0,0,0-1.34,1.85,17.8,17.8,0,0,1-5.66-2.59,21.449,21.449,0,0,1-5.62,2.69,8.21,8.21,0,0,0-1.25-1.88,18.631,18.631,0,0,0,5.14-2.23,14.939,14.939,0,0,1-3.15-4.39l1.32-.43h-2.68v-1.92H508.5l.43-.1Zm-4.63,17.64h5.55v2H497.75v-2h5.8v-3.46h-4.32v-2h4.32v-3.17h2.21v3.17h4.49v2h-4.49Zm-4-16.27a11.55,11.55,0,0,0,2.76,3.57,12.94,12.94,0,0,0,2.85-3.57Z" fill="#fff"/>
    <path id="パス_245" data-name="パス 245" d="M515.84,366.77c.84-1.2,1.13-3.24,1.22-5.28l1.27.27c-.09,2.13-.36,4.36-1.29,5.66Zm17.78-4.65a9,9,0,0,0,4.76,4.84,8.37,8.37,0,0,0-1.42,1.76,10.14,10.14,0,0,1-4.8-5.38,10.3,10.3,0,0,1-5.52,5.45,6.16,6.16,0,0,0-1.25-1.49,1.81,1.81,0,0,1-.33.67,1.74,1.74,0,0,1-1.33.7,15,15,0,0,1-2.11.05,4.511,4.511,0,0,0-.5-1.76,15.6,15.6,0,0,0,1.7.08.67.67,0,0,0,.63-.29,6.2,6.2,0,0,0,.53-2.55l-.82.32A13.313,13.313,0,0,0,522,361.4l1-.32a14.913,14.913,0,0,1,1.08,2.48c.08-.89.15-2,.19-3.34h-7V347.67h8.59v1.84h-2.88v1.73h2.38v1.47a15.669,15.669,0,0,0,5.47-6h2a16.6,16.6,0,0,0,5.76,5.62,11.545,11.545,0,0,0-1.13,1.92,17.237,17.237,0,0,1-1.75-1.28v1.4H533V356h4.39v6.08Zm-13.82-.29a21.724,21.724,0,0,1,.33,4.34l-1.12.17a23.335,23.335,0,0,0-.27-4.39Zm-.7-12.32v1.73h2v-1.73Zm0,3.48v1.83h2V353Zm0,5.45h2v-1.87h-2Zm2.16,7.18a19.618,19.618,0,0,0-.81-3.86l1-.2a16.181,16.181,0,0,1,.89,3.82Zm4.9-7.18v.82a45.372,45.372,0,0,1-.72,7.92,8.85,8.85,0,0,0,5-5.06h-3.7V356H531v-1.65h-2.7V353a14.735,14.735,0,0,1-2,1.46,9.633,9.633,0,0,0-1-1.7V353h-2.38v1.83h2.38v1.75h-2.38v1.87Zm4.66,2a14.525,14.525,0,0,0,.14-2.26v-.46h-2.4v2.72Zm4.41-7.81a17.55,17.55,0,0,1-3.38-3.93,16.659,16.659,0,0,1-3.12,3.93ZM533,357.72v.48a16.813,16.813,0,0,1-.12,2.24h2.59v-2.72Z" fill="#fff"/>
    <path id="パス_246" data-name="パス 246" d="M551.93,349.71c-.15.74-.36,1.89-.58,3,1-.1,1.85-.14,2.4-.14,2.33,0,4.08.93,4.08,4.29,0,2.84-.36,6.7-1.37,8.72-.77,1.65-2,2.08-3.69,2.08a13.591,13.591,0,0,1-2.86-.33l-.38-2.5a12.4,12.4,0,0,0,2.92.48,1.87,1.87,0,0,0,2-1.15,19.521,19.521,0,0,0,1.08-7c0-2.07-.93-2.43-2.45-2.43a13.065,13.065,0,0,0-2.2.15c-.89,3.53-2.6,9.07-5,12.91l-2.48-1c2.41-3.24,4.13-8.43,5-11.69-1.11.12-2.09.24-2.64.31s-1.71.22-2.38.34l-.24-2.6a22.649,22.649,0,0,0,2.33,0c.77,0,2.06-.12,3.43-.24a26,26,0,0,0,.55-5.16l2.81.29C552.14,348.55,552,349.18,551.93,349.71Zm12.91,9.5-2.38,1.11a28.582,28.582,0,0,0-4.15-8.89l2.23-1a42,42,0,0,1,4.3,8.78Z" fill="#fff"/>
    <path id="パス_247" data-name="パス 247" d="M573.43,358.66a11.56,11.56,0,0,1,7.49-2.66c3.91,0,6.36,2.37,6.36,5.23,0,4.32-3.65,7.44-13,6.65l-.72-2.48c7.42.94,11.16-1,11.16-4.22,0-1.78-1.65-3.05-4-3.05a9,9,0,0,0-7.08,3.05,4.77,4.77,0,0,0-.81,1.27l-2.21-.53a90.332,90.332,0,0,0,1.22-9.86l2.55.33C574.05,353.91,573.64,357.2,573.43,358.66Zm10.61-9-.56,2.33c-2.35-.31-7.63-1.42-9.48-1.9l.6-2.28a68.08,68.08,0,0,0,9.4,1.87Z" fill="#fff"/>
    <path id="パス_248" data-name="パス 248" d="M623.49,351.94v1.27c-.22,9.82-.41,13.3-1.18,14.4a2.68,2.68,0,0,1-1.89,1.2,15.933,15.933,0,0,1-3,.1,6.731,6.731,0,0,0-.84-2.74c1.06.1,2,.12,2.42.12a.87.87,0,0,0,.82-.41c.5-.64.74-3.57.89-11.33h-2.16c-.31,6.44-1.42,11.38-5.45,14.57a9.669,9.669,0,0,0-1.68-1.89c-3.46.36-6.91.72-9.51.93l-.33-2.4,4.87-.33V364h-4.22v-2h4.22v-1h-4.13v-7.42h4.13v-.94h-4.73v-2.06h4.73v-1c-1.39.09-2.76.17-4.06.19a8.871,8.871,0,0,0-.62-2,75.173,75.173,0,0,0,10.35-1.17l1.24,2.13c-1.27.27-2.76.48-4.32.65v1.18h4.61v1.32h2.26v-5h2.74v5Zm-18.91,4.54h1.87v-1.06h-1.87Zm1.87,2.78v-1.08h-1.87v1.08Zm2.59,5.95c1.37-.09,2.79-.21,4.18-.33,1.87-2.6,2.45-6,2.62-10.33h-2.19v-1.87H609v.94h4.25V361H609v1h4.35v2H609Zm1.88-8.73v-1.06H609v1.06Zm-1.88,1.7v1.08h1.88v-1.08Z" fill="#fff"/>
    <path id="パス_249" data-name="パス 249" d="M650,348v2.66h-9.4v1.92H645v10.88H633.57v-10.9h4.2v-1.92h-9.22V348Zm-3.48,4.25h2.76v16.7h-2.76v-1.39H632.06V369h-2.79V352.23h2.79v12.62h14.49Zm-10.65,4.68H638v-2h-2.1Zm0,4.2H638v-2h-2.1Zm6.62-6.22H640.4v2h2.09Zm0,4.18H640.4v2h2.09Z" fill="#fff"/>
    <path id="パス_250" data-name="パス 250" d="M666.33,368l-1.8-2.86a20.408,20.408,0,0,0,2.23-.38c3.07-.72,5.47-2.93,5.47-6.44,0-3.31-1.8-5.78-5-6.33a46.794,46.794,0,0,1-1.44,6.5c-1.44,4.85-3.5,7.83-6.12,7.83s-4.87-2.93-4.87-7c0-5.54,4.8-10.27,11-10.27,6,0,9.69,4.13,9.69,9.36C675.47,363.48,672.38,367.06,666.33,368Zm-6.6-5.38c1,0,1.94-1.51,2.93-4.75a37.076,37.076,0,0,0,1.27-5.81,7.55,7.55,0,0,0-6.1,7c0,2.38.96,3.56,1.9,3.56Z" fill="#fff"/>
    <path id="パス_251" data-name="パス 251" d="M698.64,346.39a2.87,2.87,0,0,1,0,5.74,1.67,1.67,0,0,1-.31,0c-.07.26-.12.5-.19.72-.55,2.35-1.59,6.07-3.6,8.73a19.281,19.281,0,0,1-9.65,6.65l-2.62-2.88a15.67,15.67,0,0,0,9.41-5.64,15,15,0,0,0,2.81-6.77H683.33c-1.1,0-2.26.05-2.86.1v-3.39a25.859,25.859,0,0,0,2.86.2h11.11a10.744,10.744,0,0,0,1.37-.1,3.078,3.078,0,0,1,0-.46,2.89,2.89,0,0,1,2.83-2.9Zm0,4.25a1.38,1.38,0,1,0-1.38-1.38A1.38,1.38,0,0,0,698.64,350.64Z" fill="#fff"/>
    <path id="パス_252" data-name="パス 252" d="M709.36,349.9h15.58c-.05.72-.05,1.61-.05,2.33v11.76c0,.94.05,3.24.05,3.34h-3.31v-1.3H710.09v1.3H706.8c0-.12.07-2.21.07-3.36V349.85C707.8,349.87,708.72,349.9,709.36,349.9Zm.73,13h11.59V353H710.09Z" fill="#fff"/>
    <path id="パス_253" data-name="パス 253" d="M748.68,350.35a54.845,54.845,0,0,0,7.05-.69v2.23a72.53,72.53,0,0,1-7.89.62,19.4,19.4,0,0,1-1.85,3.17,7.141,7.141,0,0,1,3.07-.72,3.17,3.17,0,0,1,3.22,2c1.49-.69,2.71-1.2,3.84-1.73.81-.35,1.51-.67,2.28-1l1,2.21c-.69.21-1.73.6-2.45.89-1.22.48-2.78,1.1-4.46,1.87,0,1.37,0,3.29.07,4.44h-2.28c0-.84.07-2.21.1-3.39-2.07,1.13-3.36,2.24-3.36,3.65,0,1.63,1.56,2,4,2a41.193,41.193,0,0,0,6.67-.62l-.07,2.42a60.156,60.156,0,0,1-6.67.43c-3.58,0-6.36-.84-6.36-3.81s2.88-4.83,5.66-6.24a1.93,1.93,0,0,0-2-1.2,6.12,6.12,0,0,0-4,1.72,27.479,27.479,0,0,0-2.18,2.57L740,359.6a24.23,24.23,0,0,0,5.43-7h-.7a38.805,38.805,0,0,1-4-.15V350.2a31.361,31.361,0,0,0,4.13.26h1.42a12.268,12.268,0,0,0,.55-2.86l2.5.19C749.18,348.43,749,349.32,748.68,350.35Z" fill="#fff"/>
    <path id="パス_254" data-name="パス 254" d="M782.62,348.12V368.6h-2.35V367H768.42v1.59h-2.26V348.12Zm-14.2,2.19v3.4h11.85v-3.4Zm0,5.52v3.45h11.85v-3.45Zm11.85,9V361.4H768.42v3.43Z" fill="#fff"/>
    <path id="パス_255" data-name="パス 255" d="M797.38,359l-3,.86v6.46c0,1.15-.24,1.75-.94,2.09a8.3,8.3,0,0,1-3.36.38,8.452,8.452,0,0,0-.65-2,22.214,22.214,0,0,0,2.28,0c.34,0,.46-.09.46-.45v-5.81c-1,.31-2,.58-2.9.82l-.58-2.16c1-.24,2.16-.51,3.48-.87v-4.78H789v-2.06h3.14v-4.66h2.21v4.66H797v2.06h-2.61v4.16c.89-.24,1.8-.48,2.71-.75Zm1-.79h11.37v10.46h-2.2v-1H800.5v1.08h-2.11Zm8.83-3.75c1.25,0,1.44-.43,1.61-2.88a7.15,7.15,0,0,0,2,.82c-.28,3.24-1,4.08-3.48,4.08H802.2c-3,0-3.79-.65-3.79-3V346.8h2.21v3.39a39,39,0,0,0,7.13-2.19l1.65,1.63a48.289,48.289,0,0,1-8.78,2.36v1.44c0,.84.29,1,1.75,1ZM800.5,360v2h7.06v-2Zm7.06,5.86v-2.09H800.5v2.09Z" fill="#fff"/>
    <path id="パス_256" data-name="パス 256" d="M829.1,349.47v1.2h7.2v2.25c-1.42-.07-3.7-.12-7.18-.12v3.77a6,6,0,0,1,.84,3.19c0,3.2-1.71,7-7.4,8.62l-2-2c2.84-.62,5-1.68,6.2-3.52a3.77,3.77,0,0,1-1.68.36,4,4,0,0,1-4-4.18,4.34,4.34,0,0,1,4.47-4.32,4.782,4.782,0,0,1,1.34.17v-2c-3.65,0-7.59.19-10.56.38l-.08-2.3c2.72-.05,7.18-.17,10.61-.22v-1.22c-.08-.77-.15-1.52-.2-1.76h2.76A14.587,14.587,0,0,0,829.1,349.47Zm-3.7,11.64c1.25,0,2.19-1,1.88-3.24a2,2,0,0,0-1.88-1.15,2.16,2.16,0,0,0-2.18,2.25,2.11,2.11,0,0,0,2.18,2.14Z" fill="#fff"/>
    <path id="パス_257" data-name="パス 257" d="M859,349.39c-3.05,5.62-10,8.84-16.49,10.23a7.1,7.1,0,0,0-1-1.92,30.36,30.36,0,0,0,8.57-2.81,22.726,22.726,0,0,0-3.77-2.45,31.3,31.3,0,0,1-3.12,1.44,6.91,6.91,0,0,0-1.49-1.65,19.61,19.61,0,0,0,8.9-5.57l2.48.55a18.439,18.439,0,0,1-1.37,1.42h5.52l.36-.1Zm3.36,8.38c-2.95,7-10.13,9.89-18.07,11a6.81,6.81,0,0,0-1-2,30.31,30.31,0,0,0,10-2.67,24.272,24.272,0,0,0-4.13-2.9,39.727,39.727,0,0,1-3.74,1.56A6.7,6.7,0,0,0,844,361c5-1.53,8.5-3.91,10.35-6.19l2.47.58a23.207,23.207,0,0,1-1.63,1.68h5.21l.38-.1Zm-13-7.27c-.39.29-.82.57-1.25.84a22.871,22.871,0,0,1,3.84,2.42,15.461,15.461,0,0,0,3.74-3.26Zm3.5,8.5c-.55.38-1.1.74-1.7,1.1a24.579,24.579,0,0,1,4.13,2.83,12.792,12.792,0,0,0,3.89-3.93Z" fill="#fff"/>
    <path id="パス_258" data-name="パス 258" d="M879.76,350.83c-1.61,1.35-4.92,4-6.63,5.41-1.37,1.17-1.37,1.48,0,2.71,2,1.68,6.41,5.16,8.9,7.65l-2.18,2c-.58-.65-1.2-1.32-1.82-2-1.61-1.63-5.19-4.7-7.42-6.57s-2.09-3.1.19-5c1.85-1.53,5.33-4.32,7-5.93a13.274,13.274,0,0,0,1.56-1.8l2.23,2C881,349.8,880.24,350.45,879.76,350.83Z" fill="#fff"/>
    <path id="パス_259" data-name="パス 259" d="M899.27,367.78l-1.42-2.26a15.165,15.165,0,0,0,2.14-.33c3.07-.7,5.8-2.95,5.8-6.82a6.39,6.39,0,0,0-5.8-6.7,49.417,49.417,0,0,1-1.44,6.75c-1.44,4.9-3.44,7.61-5.81,7.61s-4.56-2.64-4.56-6.65c0-5.38,4.7-10,10.73-10,5.76,0,9.4,4,9.4,9.05S905.1,366.94,899.27,367.78Zm-6.46-4.61c1.08,0,2.21-1.56,3.31-5.25a38.656,38.656,0,0,0,1.32-6.2,8,8,0,0,0-6.84,7.42C890.6,361.9,891.78,363.17,892.81,363.17Z" fill="#fff"/>
    <path id="パス_260" data-name="パス 260" d="M922.44,352.85c-.07,1.18-.17,2.38-.31,3.55h9.36a5.707,5.707,0,0,1-.08,1c-.43,6.67-.93,9.33-1.87,10.32a3,3,0,0,1-2.25.91,37.322,37.322,0,0,1-4.06,0,4.6,4.6,0,0,0-.77-2.18c1.66.14,3.34.17,4,.17a1.58,1.58,0,0,0,1.15-.31c.65-.56,1.11-2.81,1.44-7.8h-7.29c-.87,4.15-2.81,8-7.64,10.36a6.379,6.379,0,0,0-1.61-1.84c6.53-3,7.18-8.86,7.45-14.19h-7.11V350.7h9.43v-4.08h2.28v4.08h9.65v2.14Z" fill="#fff"/>
    <path id="パス_261" data-name="パス 261" d="M943,350.5a57.335,57.335,0,0,0-1.18,9.05,22.8,22.8,0,0,0,.15,2.57c.4-1,.88-2.16,1.27-3.05l1.2,1c-.63,1.82-1.47,4.39-1.71,5.59a5,5,0,0,0-.12,1.1c0,.24,0,.6,0,.89l-2.18.15a30.548,30.548,0,0,1-.89-7.76,69.95,69.95,0,0,1,1-9.57,18,18,0,0,0,.22-2l2.66.24A16.118,16.118,0,0,0,943,350.5Zm5.73,12c0,1.08.84,2,3.75,2a25.47,25.47,0,0,0,6-.65v2.57a32.7,32.7,0,0,1-6.07.48c-4.08,0-6-1.41-6-3.74a12.006,12.006,0,0,1,.41-2.95l2.16.19a8.219,8.219,0,0,0-.24,2.12Zm9-12.12v2.45a61.436,61.436,0,0,1-10.06,0v-2.45a44.11,44.11,0,0,0,10.1.02Z" fill="#fff"/>
    <path id="パス_262" data-name="パス 262" d="M299.09,412.5c0,1.7,1.68,2.88,5.38,2.88a31.711,31.711,0,0,0,8.28-.94v2.64a35.656,35.656,0,0,1-8.23.84c-5.16,0-8-1.72-8-4.87a14.412,14.412,0,0,1,.49-3.38l2.47.24a9,9,0,0,0-.39,2.59Zm5.47-12.19c2.33,0,4.9-.15,6.68-.34v2.5c-1.66.14-4.42.28-6.68.28-2.44,0-4.51-.09-6.43-.26V400a61.74,61.74,0,0,0,6.43.31Zm9.27.4-1.59.7a24.367,24.367,0,0,0-1.92-3.34l1.56-.64a35.006,35.006,0,0,1,1.95,3.28Zm2.78-1-1.56.7a24.087,24.087,0,0,0-2-3.31l1.54-.65a37.566,37.566,0,0,1,2.02,3.23Z" fill="#fff"/>
    <path id="パス_263" data-name="パス 263" d="M338.79,408.68a14.68,14.68,0,0,1-5.11,5.84,31.88,31.88,0,0,0,8.44,2,9.411,9.411,0,0,0-1.36,2.11,29.542,29.542,0,0,1-9.36-2.78,33.619,33.619,0,0,1-9.49,2.8,6.939,6.939,0,0,0-1.29-2,33.089,33.089,0,0,0,8.62-2.11,16.119,16.119,0,0,1-4.37-4.42l.43-.19h-1v-2.07h12.6l.41-.07Zm-15.56-.14h-2.08v-5h3.62a16.5,16.5,0,0,0-1.37-2.86l2-.55a12.53,12.53,0,0,1,1.53,3l-1.29.41h5.18a13.391,13.391,0,0,0-1.08-3.38l2-.44a13.452,13.452,0,0,1,1.2,3.32l-2,.5h4.77a25.683,25.683,0,0,0,1.92-3.86l2.33.62c-.62,1.08-1.32,2.28-2,3.24h3.77v5h-2.19v-3H323.23Zm17.31-10.11a128.573,128.573,0,0,1-18.67,1.8,6.65,6.65,0,0,0-.48-1.89A123.067,123.067,0,0,0,339,396.61Zm-13.3,11.48a13.439,13.439,0,0,0,4.2,3.53,12.09,12.09,0,0,0,4-3.53Z" fill="#fff"/>
    <path id="パス_264" data-name="パス 264" d="M346.4,400.76h8.09v1.78H346.4Zm7.54,16.95h-4.68v1h-1.85v-8.06h6.53Zm-.1-11.88h-6.41V404.1h6.41Zm-6.41,1.53h6.41v1.73h-6.41Zm6.32-8.09h-6.2v-1.75h6.2Zm-4.49,13.21v3.45h2.81v-3.45Zm19.3,2.64h-1.28v1.53c0,1-.19,1.51-.93,1.8a10.269,10.269,0,0,1-3.39.29,6.849,6.849,0,0,0-.52-1.75c1,.05,2.08.05,2.4.05s.38-.12.38-.41v-1.51H357.8v3.64h-1.89v-3.64h-1.35v-1.78h1.35v-6h4.63v-1.15h-6v-1.76h3.33v-1.32h-2.23v-1.6h2.23v-1.28h-2.69V398.6h2.69v-1.87h2v1.87h3.34v-1.87h2v1.87h2.83v1.63h-2.83v1.28h2.35v1.6h-2.35v1.32h3.22v1.76h-6.07v1.15h4.84v6h1.28ZM357.8,409v1.46h2.74V409Zm0,4.39h2.74v-1.46H357.8Zm2.14-11.83h3.34v-1.28h-3.34Zm0,2.92h3.34v-1.32h-3.34Zm2.5,4.52v1.46h2.78V409Zm2.78,4.39v-1.46h-2.78v1.46Z" fill="#fff"/>
    <path id="パス_265" data-name="パス 265" d="M376.69,402.54c0,1.51,0,3.53.17,5.4.36,3.77,1.34,6.31,2.95,6.31,1.2,0,2.26-2.61,2.81-4.8l1.9,2.23c-1.52,4.11-3,5.52-4.76,5.52-2.42,0-4.65-2.3-5.3-8.61-.24-2.11-.27-5-.27-6.44a11.722,11.722,0,0,0-.19-2.25l2.93.05a19.488,19.488,0,0,0-.24,2.59Zm16.83,10.18-2.48,1c-.4-4.13-1.77-9.46-4.2-12.34l2.38-.79C391.43,403.33,393.2,408.83,393.52,412.72Z" fill="#fff"/>
    <path id="パス_266" data-name="パス 266" d="M406.35,399.92c-.07.41-.17.89-.29,1.42a42.9,42.9,0,0,0,4.35-.84v2.37a42.287,42.287,0,0,1-4.83.82c-.24,1-.5,2.14-.76,3.15a73.17,73.17,0,0,1-3.8,11l-2.61-.89a55.8,55.8,0,0,0,4.08-10.75c.19-.75.38-1.54.57-2.33h-1.94a27.9,27.9,0,0,1-2.86-.09v-2.35a23.147,23.147,0,0,0,2.92.19,20,20,0,0,0,2.4-.1c.12-.72.24-1.34.29-1.8a9.71,9.71,0,0,0,.1-2.16l2.88.22C406.66,398.46,406.45,399.44,406.35,399.92Zm2.88,13.25c0,1.08.65,2.07,3.72,2.07a27.787,27.787,0,0,0,4.8-.48l-.07,2.42a36.643,36.643,0,0,1-4.75.34c-3.91,0-6-1.28-6-3.65a14.448,14.448,0,0,1,.41-3l2.23.21A9,9,0,0,0,409.23,413.17Zm4-8.23a41.765,41.765,0,0,1,4.2.19l-.07,2.31a29.9,29.9,0,0,0-4.08-.32,40.1,40.1,0,0,0-4.54.27v-2.23a38.182,38.182,0,0,1,4.45-.22Z" fill="#fff"/>
    <path id="パス_267" data-name="パス 267" d="M431.3,400.23c-.1.41-.19.89-.29,1.42a40.584,40.584,0,0,0,4.34-.82v2.36a42.1,42.1,0,0,1-4.84.81c-.22,1-.48,2.14-.75,3.15a75.066,75.066,0,0,1-3.79,11l-2.64-.89a52.71,52.71,0,0,0,4.08-10.75c.19-.75.41-1.54.58-2.33h-1.92a24.856,24.856,0,0,1-2.86-.1v-2.35a23.071,23.071,0,0,0,2.93.19,19.587,19.587,0,0,0,2.38-.1c.14-.72.26-1.32.31-1.77a10,10,0,0,0,.09-2.19l2.88.22C431.61,398.77,431.39,399.75,431.3,400.23Zm2.88,13.25c0,1.08.65,2.07,3.72,2.07a27.123,27.123,0,0,0,4.8-.48l-.07,2.42a37.086,37.086,0,0,1-4.76.34c-3.91,0-6-1.27-6-3.65a15.888,15.888,0,0,1,.38-3l2.26.22a8.814,8.814,0,0,0-.33,2.08Zm4-8.23a41.873,41.873,0,0,1,4.2.19l-.07,2.31a30.229,30.229,0,0,0-4.08-.29,40.006,40.006,0,0,0-4.54.24v-2.23c1.31-.12,2.91-.22,4.45-.22Zm3.55-3.07-1.58.69a27.058,27.058,0,0,0-1.92-3.33l1.56-.65a37.8,37.8,0,0,1,1.9,3.29Zm2.79-1-1.56.69a30.382,30.382,0,0,0-2-3.33l1.53-.65a34.9,34.9,0,0,1,1.99,3.26Z" fill="#fff"/>
    <path id="パス_268" data-name="パス 268" d="M452.69,402.54c0,1.51,0,3.53.17,5.4.36,3.77,1.34,6.31,2.95,6.31,1.2,0,2.26-2.61,2.81-4.8l1.9,2.23c-1.52,4.11-3,5.52-4.76,5.52-2.42,0-4.65-2.3-5.3-8.61-.24-2.11-.26-5-.26-6.44a11.749,11.749,0,0,0-.2-2.25l2.93.05A19.494,19.494,0,0,0,452.69,402.54Zm16.83,10.18-2.48,1c-.4-4.13-1.77-9.46-4.2-12.34l2.38-.79C467.43,403.33,469.2,408.83,469.52,412.72Z" fill="#fff"/>
    <path id="パス_269" data-name="パス 269" d="M475.83,400.55c1.75-.17,6-.58,10.44-.94,2.57-.22,5-.36,6.62-.43v2.42a21.69,21.69,0,0,0-4.65.36,8,8,0,0,0-5.33,7.23c0,4.37,4.08,5.83,8.06,6l-.89,2.54c-4.7-.21-9.62-2.73-9.62-8a9.67,9.67,0,0,1,4.08-7.8c-2.42.26-8,.84-10.68,1.42l-.27-2.64C474.53,400.64,475.37,400.59,475.83,400.55Z" fill="#fff"/>
    <path id="パス_270" data-name="パス 270" d="M506.5,399.39c0,.58-.05,1.35-.1,2.21a30.348,30.348,0,0,0,4.73-.91l.05,2.35c-1.4.31-3.17.6-4.83.79,0,1-.05,1.93-.05,2.79v.84a19,19,0,0,1,5-.77c3.57,0,6.26,1.92,6.26,5,0,2.86-1.66,4.85-5.18,5.69a18.87,18.87,0,0,1-3.05.36l-.87-2.45a12.41,12.41,0,0,0,2.88-.16c2-.39,3.77-1.44,3.77-3.46,0-1.85-1.65-2.88-3.84-2.88a16.391,16.391,0,0,0-4.92.79c0,2,.1,4,.1,5,0,2.54-.94,3.29-2.36,3.29-2.08,0-5.28-1.92-5.28-4.23,0-2,2.48-4.17,5.31-5.4v-4.15c-.6.05-1.13.07-1.58.07-1.47,0-2.38-.05-3.17-.12l-.07-2.3a23.819,23.819,0,0,0,3.19.19,13.981,13.981,0,0,0,1.66-.07v-2.38a16,16,0,0,0-.14-1.89h2.64C506.61,398,506.54,398.82,506.5,399.39Zm-3.08,15.87c.48,0,.82-.31.82-1.1s-.05-2.16-.07-3.72c-1.76.86-3,2.08-3,3S502.61,415.26,503.42,415.26Zm16.11-11.62-1.18,1.92a35,35,0,0,0-5.54-3.55l1.05-1.82A42.615,42.615,0,0,1,519.53,403.64Z" fill="#fff"/>
    <path id="パス_271" data-name="パス 271" d="M528.45,403.71c1.06-2.18,3.37-4.75,6.27-4.75,3.26,0,5.69,3.22,5.69,8.38,0,6.7-4.18,9.77-10.3,10.9l-1.44-2.19c5.26-.81,9.19-2.76,9.19-8.71,0-3.75-1.27-6.19-3.55-6.19-2.93,0-5.59,4.32-5.81,7.49a11.15,11.15,0,0,0,.1,2.76l-2.35.16a29.87,29.87,0,0,1-.27-3.88,63.6,63.6,0,0,1,.7-7.73,19.994,19.994,0,0,0,.19-2.28l2.62.12A47.056,47.056,0,0,0,528.45,403.71Z" fill="#fff"/>
    <path id="パス_272" data-name="パス 272" d="M548.66,413l2-1.73a44.223,44.223,0,0,1,5.3,5.3l-2,1.73a43,43,0,0,0-5.3-5.3Z" fill="#fff"/>
    <path id="パス_273" data-name="パス 273" d="M596.5,407.89c-2.91,7.13-9.8,10-18,11.09a11.741,11.741,0,0,0-1.2-2.62,31.12,31.12,0,0,0,9.36-2.28,26,26,0,0,0-3.53-2.52A29.215,29.215,0,0,1,579.7,413a8.249,8.249,0,0,0-1.75-2.2c4.61-1.4,7.87-3.46,9.79-5.55a31.7,31.7,0,0,1-11.14,4.3,9.7,9.7,0,0,0-1.32-2.45,32.217,32.217,0,0,0,8.09-2.38,28.149,28.149,0,0,0-3.21-2.06c-.87.45-1.78.86-2.76,1.25a10.161,10.161,0,0,0-1.92-2.12,19,19,0,0,0,8.85-5.32l3.1.64c-.36.41-.74.82-1.15,1.23h4.8l.48-.12,1.82,1a16.36,16.36,0,0,1-4.94,5.5l2.88.67A18.586,18.586,0,0,1,589.8,407h4.3l.48-.12Zm-13.08-7.2c-.29.22-.58.41-.89.62a20.183,20.183,0,0,1,3.31,2.09,14.68,14.68,0,0,0,3.31-2.71Zm3.45,8.71a14.572,14.572,0,0,1-1.27.82,20.691,20.691,0,0,1,3.6,2.45,11.59,11.59,0,0,0,3.31-3.27Z" fill="#dca0aa"/>
    <path id="パス_274" data-name="パス 274" d="M614.17,401.22c-1.56,1.25-4.73,3.7-6.34,5.06-1.27,1.11-1.25,1.37,0,2.5,1.8,1.51,6.36,5.11,8.81,7.49l-2.81,2.57c-.67-.75-1.37-1.52-2.09-2.24-1.46-1.51-5-4.51-7.17-6.38-2.4-2-2.21-3.31.19-5.33,1.89-1.54,5.18-4.2,6.79-5.76a16.082,16.082,0,0,0,1.85-2l2.81,2.47C615.51,400.14,614.72,400.76,614.17,401.22Z" fill="#dca0aa"/>
    <path id="パス_275" data-name="パス 275" d="M634.15,418l-1.8-2.86a20,20,0,0,0,2.23-.38c3.08-.72,5.48-2.93,5.48-6.44,0-3.31-1.8-5.78-5-6.33a49.864,49.864,0,0,1-1.44,6.5c-1.45,4.85-3.51,7.83-6.13,7.83s-4.87-2.93-4.87-7c0-5.54,4.8-10.27,11-10.27,5.95,0,9.7,4.13,9.7,9.36C643.3,413.48,640.2,417.06,634.15,418Zm-6.6-5.38c1,0,1.94-1.51,2.93-4.75a36,36,0,0,0,1.27-5.81,7.55,7.55,0,0,0-6.1,7c0,2.38.96,3.56,1.9,3.56Z" fill="#dca0aa"/>
    <path id="パス_276" data-name="パス 276" d="M657.73,403.09c-.07,1-.14,2.09-.26,3.12h9.26a11.681,11.681,0,0,1-.09,1.25c-.44,6.53-.94,9.22-1.9,10.27a3.55,3.55,0,0,1-2.59,1.11,34.62,34.62,0,0,1-4.11,0,6.48,6.48,0,0,0-1-2.81c1.66.17,3.34.17,4,.17a1.51,1.51,0,0,0,1.15-.32c.62-.52,1.06-2.61,1.39-7H657a14.06,14.06,0,0,1-7.7,10.22,9.209,9.209,0,0,0-2-2.42c6.48-3,7-8.47,7.3-13.61h-6.87v-2.74h9.2v-3.91h3v3.91h9.48v2.74Z" fill="#dca0aa"/>
    <path id="パス_277" data-name="パス 277" d="M683.44,400.07c-.14.72-.33,1.6-.5,2.47.81-.05,1.51-.1,2-.1,2.55,0,4.35,1.13,4.35,4.59,0,2.83-.34,6.72-1.37,8.81-.79,1.68-2.11,2.2-3.94,2.2a15.662,15.662,0,0,1-2.88-.33l-.5-3.17a14,14,0,0,0,2.93.5,1.77,1.77,0,0,0,1.8-1,19,19,0,0,0,1-6.65c0-1.92-.84-2.18-2.33-2.18-.38,0-1,.05-1.68.09-.91,3.65-2.68,9.34-4.89,12.87l-3.12-1.25c2.33-3.14,4-8,4.87-11.28l-2.06.24c-.7.12-2,.29-2.69.41l-.29-3.27a20.005,20.005,0,0,0,2.57,0c.74,0,1.87-.09,3.09-.21a24.059,24.059,0,0,0,.51-5.07l3.57.36C683.73,398.7,683.56,399.47,683.44,400.07Zm10.18.38-1.18.5a44.518,44.518,0,0,1,3.92,8.38l-3.05,1.39a27,27,0,0,0-4-9l2.16-.93A26.411,26.411,0,0,0,689.8,398l1.9-.79A32.432,32.432,0,0,1,693.62,400.45Zm2.86-1.1-1.9.81a25.833,25.833,0,0,0-2-3.31l1.93-.77a32.9,32.9,0,0,1,1.97,3.27Z" fill="#dca0aa"/>
    <path id="パス_278" data-name="パス 278" d="M722.36,413.7h-9.43v5.23h-3V413.7h-9.16V411H710v-1.51h1.73a13.568,13.568,0,0,0-1.68-1.34,10.28,10.28,0,0,0,5.11-6.1h-8.52l2.28.53a15.083,15.083,0,0,1-.84,2,22.878,22.878,0,0,1,2.76,2l-1.7,2a18,18,0,0,0-2.28-1.87,15.591,15.591,0,0,1-3.58,3.81,18.458,18.458,0,0,0-2.37-1.94,11.92,11.92,0,0,0,5.06-6.58h-4.49v-2.7H710v-2.74h3v2.74h8.73V402h-6.17l2.55.53a17.6,17.6,0,0,1-1,2.3,37.363,37.363,0,0,1,4.7,3.39l-2,2.16a34.854,34.854,0,0,0-4.16-3.31,14.251,14.251,0,0,1-2.68,2.54V411h9.43Z" fill="#dca0aa"/>
    <path id="パス_279" data-name="パス 279" d="M741.61,413.48a21.4,21.4,0,0,0,7.61,2.62,13.071,13.071,0,0,0-1.92,2.59,20.39,20.39,0,0,1-8.06-4.05V419h-2.81v-4.18a23,23,0,0,1-8,3.89,13.472,13.472,0,0,0-1.83-2.38,25.191,25.191,0,0,0,7.59-2.81H727.3v-2.35h9.17v-1.05h-6.92V408h6.92v-1.08h-8.12V404.7h4.57a11.526,11.526,0,0,0-.82-1.87l.29-.05h-5v-2.33h3.22a22.389,22.389,0,0,0-1.49-3l2.45-.84a18.913,18.913,0,0,1,1.82,3.39l-1.18.43h2.19v-3.91H737v3.91h1.78v-3.91h2.69v3.91h2.13l-.86-.26a19.005,19.005,0,0,0,1.51-3.48l3,.72c-.67,1.1-1.32,2.18-1.87,3h3.12v2.33H744c-.39.69-.77,1.34-1.13,1.92h4.7v2.23h-8.32V408h7.2v2.07h-7.2v1.05h9.33v2.35Zm-6.53-10.7a12.285,12.285,0,0,1,.82,1.85l-.41.07H740c.29-.58.58-1.27.84-1.92Z" fill="#dca0aa"/>
    <path id="パス_280" data-name="パス 280" d="M760.76,402.61a32.995,32.995,0,0,1-1.82,2.9V419h-2.67V408.73a21.922,21.922,0,0,1-1.87,1.78,16.5,16.5,0,0,0-1.49-2.67,20.339,20.339,0,0,0,5.35-6.17Zm-.41-5.06a29.442,29.442,0,0,1-5.73,5.85,23.927,23.927,0,0,0-1.49-2.09,20.14,20.14,0,0,0,4.7-4.75Zm13.3,12.09a13.131,13.131,0,0,1-3.65,5.19,22,22,0,0,0,6,1.75,10.581,10.581,0,0,0-1.71,2.45,19.679,19.679,0,0,1-6.62-2.52,23.849,23.849,0,0,1-6.79,2.57,9.693,9.693,0,0,0-1.37-2.43,20.7,20.7,0,0,0,5.9-1.87,13,13,0,0,1-1.89-2.09,23.251,23.251,0,0,1-2.16,1.49,17.145,17.145,0,0,0-1.85-2.11,15.47,15.47,0,0,0,5.35-4.44l-4.8.14-.24-2.52h3.7c.33-.29.69-.6,1-.92a27.719,27.719,0,0,0-4.23-3.4l1.71-1.85c.41.26.86.55,1.32.86a27.713,27.713,0,0,0,2.57-3.45l2.47,1.27c-1,1.22-2.21,2.52-3.22,3.53a14.138,14.138,0,0,1,1.37,1.2,45.216,45.216,0,0,0,3.87-4.25l2.52,1.39a78.5,78.5,0,0,1-5.89,5.57l4.3-.07a17.43,17.43,0,0,0-1.2-1.54l2.21-1.22A23.788,23.788,0,0,1,776,407.6l-2.4,1.35a14.543,14.543,0,0,0-.79-1.59c-1.59.08-3.22.12-4.78.17a12.927,12.927,0,0,1-.94,1.42h4.35l.45-.1Zm-8.4,1.47a11,11,0,0,0,2.38,2.33,10.7,10.7,0,0,0,2.3-2.36h-4.66Z" fill="#dca0aa"/>
    <path id="パス_281" data-name="パス 281" d="M789.61,399.78c-.07.41-.16,1.05-.26,1.85a34.456,34.456,0,0,0,4.39-.34l-.09,2.86a44.3,44.3,0,0,1-4.68.24c-.15,1.05-.29,2.18-.41,3.26h.17a39.913,39.913,0,0,0,4.82-.29l-.07,2.86c-1.35.12-2.74.22-4.25.22h-1c0,.72-.1,1.32-.1,1.75,0,2,1.23,3.05,3.58,3.05,3.36,0,5.18-1.54,5.18-3.51a6.5,6.5,0,0,0-2.47-4.65l3.39-.73a9,9,0,0,1,2.32,5.77c0,3.62-3.26,6.21-8.52,6.21-3.76,0-6.43-1.63-6.43-5.64,0-.57.07-1.44.17-2.42a27.093,27.093,0,0,1-4.61-.79l.17-2.91a22.068,22.068,0,0,0,4.73,1c.14-1.08.29-2.21.41-3.29a28.239,28.239,0,0,1-4.78-.86l.17-2.76a22.75,22.75,0,0,0,4.94.91c.07-.74.15-1.39.19-1.94a12,12,0,0,0,0-2.14l3.38.19C789.81,398.51,789.71,399.15,789.61,399.78Z" fill="#dca0aa"/>
    <path id="パス_282" data-name="パス 282" d="M819,413.08c1.7,1.92,4.39,3,8.18,3.43A11.111,11.111,0,0,0,825.5,419c-4.56-.72-7.42-2.42-9.31-5.4-1.42,2.14-4.08,4-9,5.36a11.459,11.459,0,0,0-1.78-2.31c4-.91,6.34-2.16,7.66-3.57h-7.22V410.6h8.61a9.685,9.685,0,0,0,.24-1.51h-6.14v-2.3h6.17v-1.44h-6.56v-1.59H806v-5.11h8.76v-2.09h2.93v2.09h8.78v5.11h-1.92v1.59h-7v1.44h6.53v2.3h-6.55a7.7,7.7,0,0,1-.19,1.51h9.48v2.48Zm-4.25-10v-1.37h2.85V403h6v-1.89H808.86V403Z" fill="#dca0aa"/>
    <path id="パス_283" data-name="パス 283" d="M835,411a22.331,22.331,0,0,1-1.42,6.2,11.219,11.219,0,0,0-2.09-1,17.61,17.61,0,0,0,1.23-5.57Zm2.78-1.92V419h-2.45v-9.72l-3.43.24-.19-2.48,1.73-.09c.36-.43.72-.91,1.08-1.42a22.417,22.417,0,0,0-2.74-3.36l1.39-1.92c.17.17.36.34.55.5a27.835,27.835,0,0,0,1.73-4.15l2.47.87a53.67,53.67,0,0,1-2.71,4.89,11.827,11.827,0,0,1,.77.94,38.533,38.533,0,0,0,2.16-3.89l2.33,1.08c-1.32,2-3,4.39-4.47,6.31l2.24-.14c-.24-.55-.51-1.08-.77-1.59l2-.81a20.537,20.537,0,0,1,2.06,5l-2.13,1c-.08-.38-.2-.82-.34-1.3Zm2.26,1.35a17.873,17.873,0,0,1,1.22,4.22l-2.11.7a18,18,0,0,0-1.11-4.32Zm10.41,4.7c1.47.87,3.12,1.87,4.08,2.55L852.07,419a43.765,43.765,0,0,0-4-2.81l1.48-1.08h-4.36l1.6,1.06a21,21,0,0,1-5.76,2.9c-.43-.5-1.22-1.27-1.75-1.77a18.582,18.582,0,0,0,4.73-2.19H842v-9.84h11.09v9.84Zm-4.58-15.72h-4.83v-1.73h4.83V396.6h2.85v1.08h5v1.73h-5v.82h4.42v1.65h-4.42v.82h5.45v1.77h-13.7V402.7h5.43v-.82h-4.25v-1.65h4.25ZM844.51,408h5.83v-1h-5.83Zm0,2.67h5.83v-1h-5.83Zm0,2.64h5.83v-1h-5.83Z" fill="#dca0aa"/>
    <path id="パス_284" data-name="パス 284" d="M868,400a60.668,60.668,0,0,0,6.79-.7v2.79a75.093,75.093,0,0,1-7.83.6,16.65,16.65,0,0,1-1.36,2.45,8.06,8.06,0,0,1,2.71-.48,3.25,3.25,0,0,1,3.19,1.84c1.25-.57,2.26-1,3.24-1.41s1.78-.8,2.66-1.25l1.2,2.78c-.76.22-2,.7-2.85,1-1.08.43-2.45,1-3.91,1.63,0,1.35.07,3.12.09,4.23H869c.07-.72.1-1.87.12-2.93-1.8,1-2.76,2-2.76,3.17s1.13,1.68,3.48,1.68a40.081,40.081,0,0,0,6.82-.67l-.1,3.09a58.925,58.925,0,0,1-6.79.41c-3.77,0-6.55-.91-6.55-4s2.88-5,5.61-6.41a1.83,1.83,0,0,0-1.68-.81,5.87,5.87,0,0,0-3.74,1.65,27.512,27.512,0,0,0-2.23,2.64l-2.57-1.92a23.412,23.412,0,0,0,5.3-6.62h-.31a39.73,39.73,0,0,1-4.06-.15v-2.8a31.739,31.739,0,0,0,4.23.28H865a12.99,12.99,0,0,0,.48-2.76l3.17.27A23.6,23.6,0,0,1,868,400Z" fill="#dca0aa"/>
    <path id="パス_285" data-name="パス 285" d="M891.56,397.47a38.776,38.776,0,0,1-2.31,4.95v16.49h-2.71V406.64a21.271,21.271,0,0,1-1.63,1.92,18.7,18.7,0,0,0-1.51-2.95,25.45,25.45,0,0,0,5.44-9Zm14.3,2.84v13h-2.78v-1h-3.39v6.62h-2.81v-6.62H893.6v1.2h-2.67v-13.2h6v-3.68h2.81v3.68ZM893.6,402.9v2.16h3.28V402.9Zm3.28,6.82v-2.19H893.6v2.19Zm2.81-6.82v2.16h3.39V402.9Zm3.39,6.82v-2.19h-3.39v2.19Z" fill="#dca0aa"/>
    <path id="パス_286" data-name="パス 286" d="M915.29,400.76a64.344,64.344,0,0,0-1.13,9.29,11.893,11.893,0,0,0,.1,1.56c.31-.84.72-1.65,1-2.45l1.49,1.16c-.67,2-1.46,4.41-1.73,5.73a5.261,5.261,0,0,0-.12,1.11c0,.26,0,.67,0,1l-2.69.2a27.81,27.81,0,0,1-1-7.66,71.249,71.249,0,0,1,1-10c.07-.67.19-1.58.21-2.35l3.32.26q-.279,1.063-.45,2.15Zm12.14-.86c0,.53-.07,1.44-.07,2.49a35.3,35.3,0,0,0,3.75-.52v2.95c-1.18.17-2.45.31-3.77.41,0,2.33.17,4.25.26,5.88a15.46,15.46,0,0,1,4.66,3.09l-1.61,2.52a26.007,26.007,0,0,0-2.95-2.4c-.12,2.31-1.42,3.94-4.68,3.94s-5.38-1.39-5.38-3.91,2.07-4.13,5.33-4.13a10.082,10.082,0,0,1,1.58.1c-.07-1.47-.16-3.22-.19-4.92h-1.7c-1.39,0-2.79-.05-4.18-.15V402.4c1.37.12,2.76.19,4.2.19h1.68v-2.64a10.3,10.3,0,0,0-.16-1.59h3.43a8.419,8.419,0,0,0-.2,1.54Zm-4.75,15.53c1.49,0,2-.77,2-2.19v-.4a6.381,6.381,0,0,0-1.94-.29c-1.34,0-2.28.55-2.28,1.46s.95,1.42,2.22,1.42Zm8.14-14.76-1.68.55a26.738,26.738,0,0,0-1.23-3.31l1.64-.51a27.54,27.54,0,0,1,1.27,3.27Zm2.52-.77-1.66.53a29.6,29.6,0,0,0-1.29-3.29l1.63-.51a34.99,34.99,0,0,1,1.32,3.27Z" fill="#dca0aa"/>
    <path id="パス_287" data-name="パス 287" d="M943.05,401c-.09,2.59-.28,8-.28,10.94,0,2.43,1.44,3.22,3.31,3.22,4,0,6.48-2.28,8.21-4.9l2.18,2.64a12.4,12.4,0,0,1-10.42,5.52c-3.93,0-6.48-1.73-6.48-5.83,0-3.22.24-9.53.24-11.59a15,15,0,0,0-.31-3.24h3.87C943.22,398.84,943.1,400.07,943.05,401Z" fill="#dca0aa"/>
    <path id="パス_288" data-name="パス 288" d="M961.82,413.22l2.5-2.16a43.2,43.2,0,0,1,5.23,5.26l-2.57,2.2a46.315,46.315,0,0,0-5.16-5.3Z" fill="#dca0aa"/>
    <path id="パス_289" data-name="パス 289" d="M346.88,463.22h-9.62v5.52H335v-5.52h-9.38v-2.14H335V459.5h1.54a10.4,10.4,0,0,0-1.49-1.22,11,11,0,0,0,5.21-6.37l2.26.44a14.289,14.289,0,0,1-1.08,2.49,43.812,43.812,0,0,1,4.92,3.72l-1.56,1.66a41.235,41.235,0,0,0-4.52-3.62,13.491,13.491,0,0,1-3,2.9h0v1.58h9.62Zm-12.79-4.7a27.574,27.574,0,0,0-2.69-2.24,15.33,15.33,0,0,1-3.84,4.11,13.577,13.577,0,0,0-1.8-1.49,12.54,12.54,0,0,0,5.23-7l2.26.5a17.368,17.368,0,0,1-.91,2.23,29.759,29.759,0,0,1,3.09,2.33Zm12.1-6.73h-20v-2.13H335v-2.93h2.31v2.93h8.93Z" fill="#fff"/>
    <path id="パス_290" data-name="パス 290" d="M365.43,463.2a22.13,22.13,0,0,0,8.14,3.26,10.34,10.34,0,0,0-1.49,2,21.41,21.41,0,0,1-8.59-4.51v4.82H361.3v-4.65a23.841,23.841,0,0,1-8.52,4.32,9.809,9.809,0,0,0-1.46-1.9,23.391,23.391,0,0,0,8.09-3.33H352v-1.88h9.31v-1.46h-7.08v-1.68h7.08v-1.44h-8.25V455H358a12.547,12.547,0,0,0-1-2.18l.58-.1h-5.45v-1.87h3.55a17.838,17.838,0,0,0-1.75-3.24l1.94-.65a16.219,16.219,0,0,1,1.92,3.43l-1.22.46h2.64v-4.1h2.09v4.1h2.37v-4.1h2.11v4.1h2.6l-.92-.29a21.412,21.412,0,0,0,1.69-3.55l2.3.58a37.621,37.621,0,0,1-2,3.26h3.45v1.87h-4.63c-.46.82-.94,1.61-1.34,2.28H372v1.78h-8.49v1.44h7.37v1.68h-7.37v1.46H373v1.88Zm-6.17-10.52a9.9,9.9,0,0,1,1,2.14l-.7.14h5.06a22,22,0,0,0,1.06-2.28Z" fill="#fff"/>
    <path id="パス_291" data-name="パス 291" d="M399.68,465.86V468H378.37v-2.16h9.5v-5.52H381V458.2h6.84v-4.8h-5.32a21.137,21.137,0,0,1-2.38,3.72,14.69,14.69,0,0,0-2-1.34,20.679,20.679,0,0,0,4.34-8.69l2.31.53c-.36,1.22-.79,2.45-1.25,3.6h4.34v-4.47h2.31v4.47h8.35v2.18h-8.35v4.8h7.46v2.14h-7.46v5.52Z" fill="#fff"/>
    <path id="パス_292" data-name="パス 292" d="M413.47,449.71c-.15.74-.36,1.89-.58,3,1-.1,1.85-.14,2.4-.14,2.33,0,4.08.93,4.08,4.29,0,2.84-.36,6.7-1.37,8.72-.77,1.65-2,2.08-3.69,2.08a13.586,13.586,0,0,1-2.86-.33l-.38-2.5a12.4,12.4,0,0,0,2.92.48,1.87,1.87,0,0,0,2-1.15,19.521,19.521,0,0,0,1.08-7c0-2.07-.93-2.43-2.45-2.43a13.065,13.065,0,0,0-2.2.15c-.89,3.53-2.6,9.07-5,12.91l-2.48-1c2.41-3.24,4.13-8.43,5-11.69-1.11.12-2.09.24-2.64.31s-1.71.22-2.38.34l-.24-2.6a22.648,22.648,0,0,0,2.33,0c.77,0,2.06-.12,3.43-.24a26,26,0,0,0,.55-5.16l2.81.29C413.68,448.55,413.56,449.18,413.47,449.71Zm12.91,9.5L424,460.32a28.58,28.58,0,0,0-4.15-8.89l2.23-1A42,42,0,0,1,426.38,459.21Z" fill="#fff"/>
    <path id="パス_293" data-name="パス 293" d="M435,458.66a11.56,11.56,0,0,1,7.49-2.66c3.91,0,6.36,2.37,6.36,5.23,0,4.32-3.65,7.44-13,6.65l-.72-2.48c7.42.94,11.16-1,11.16-4.22,0-1.78-1.65-3.05-4-3.05a9,9,0,0,0-7.08,3.05,4.769,4.769,0,0,0-.81,1.27l-2.21-.53a90.341,90.341,0,0,0,1.22-9.86l2.55.33C435.59,453.91,435.18,457.2,435,458.66Zm10.61-9L445,452c-2.35-.31-7.63-1.42-9.48-1.9l.6-2.28a68.094,68.094,0,0,0,9.46,1.86Z" fill="#fff"/>
    <path id="パス_294" data-name="パス 294" d="M458.77,450.31a63,63,0,0,0-1.18,9.5,16,16,0,0,0,.19,2.57c.34-1,.87-2.18,1.25-3.07l1.2.93c-.65,1.83-1.46,4.28-1.73,5.5a6.472,6.472,0,0,0-.12,1.1c0,.24.05.6.07.89l-2.13.17a27.81,27.81,0,0,1-.94-7.63,73.331,73.331,0,0,1,1.06-10.06c.07-.6.17-1.37.19-2l2.62.24C459.1,448.89,458.86,449.87,458.77,450.31Zm12.12-.58c0,.6-.05,1.63-.08,2.74a37.249,37.249,0,0,0,4-.56v2.33c-1.25.19-2.59.36-4,.46,0,2.4.2,4.56.27,6.41a15.82,15.82,0,0,1,4.73,3.09l-1.3,2a22,22,0,0,0-3.34-2.66v.12c0,2.2-1.05,4.1-4.39,4.1s-5.13-1.34-5.13-3.65,1.89-3.84,5.11-3.84a12.2,12.2,0,0,1,1.94.15c-.09-1.68-.19-3.75-.24-5.62-.67,0-1.34.05-2,.05-1.4,0-2.72-.08-4.11-.17v-2.26a37.525,37.525,0,0,0,4.15.22c.67,0,1.32,0,2-.05v-2.83a12.224,12.224,0,0,0-.14-1.54H471c0,.5-.09,1.03-.11,1.51Zm-4.42,15.82c1.78,0,2.33-.91,2.33-2.43v-.64a7.629,7.629,0,0,0-2.23-.34c-1.61,0-2.74.7-2.74,1.73s1.1,1.68,2.64,1.68Z" fill="#fff"/>
    <path id="パス_295" data-name="パス 295" d="M489.22,450c-.05.26-.12.58-.19.91,1.34-.19,2.68-.45,4-.77v3a45.1,45.1,0,0,1-4.68.8c-.21,1-.45,2.09-.72,3.07a74.318,74.318,0,0,1-3.81,11.11L480.48,467a52.082,52.082,0,0,0,4.15-10.8c.17-.65.36-1.32.51-2h-1.59a28.023,28.023,0,0,1-2.9-.09l-.07-3a24.417,24.417,0,0,0,3,.19c.7,0,1.42,0,2.16-.07.1-.53.17-1,.22-1.37a12.9,12.9,0,0,0,.07-2.42l3.67.28C489.53,448.36,489.31,449.44,489.22,450Zm2.88,13c0,1.06.72,1.85,3.29,1.85a28.408,28.408,0,0,0,5-.5l-.12,3.07a38.226,38.226,0,0,1-4.9.34c-4,0-6.21-1.4-6.21-3.82a17,17,0,0,1,.43-3.22l2.85.29A8.321,8.321,0,0,0,492.1,463Zm3.65-8.28a40.593,40.593,0,0,1,4.219.22l-.069,2.88a36.155,36.155,0,0,0-4.13-.29,40.732,40.732,0,0,0-4.63.24V455A41.371,41.371,0,0,1,495.75,454.72Z" fill="#dca0aa"/>
    <path id="パス_296" data-name="パス 296" d="M518.08,451.22c-1.56,1.25-4.73,3.7-6.34,5.06-1.27,1.11-1.25,1.37.05,2.5,1.8,1.51,6.36,5.11,8.81,7.49l-2.81,2.57c-.67-.75-1.37-1.52-2.09-2.24-1.46-1.51-5-4.51-7.18-6.38-2.4-2-2.2-3.31.2-5.33,1.89-1.54,5.18-4.2,6.79-5.76a16.878,16.878,0,0,0,1.85-2l2.81,2.47C519.42,450.14,518.63,450.76,518.08,451.22Z" fill="#dca0aa"/>
    <path id="パス_297" data-name="パス 297" d="M536,447.62l3.24-.39a27.481,27.481,0,0,0,1,3.77,36.31,36.31,0,0,0,4.92-1.1l.39,3a32.937,32.937,0,0,1-4.28.87,26.37,26.37,0,0,0,2.14,3.91,14.478,14.478,0,0,0,1.3,1.61l-1.49,2.16c-1.35-.27-4.37-.58-6.39-.75l.24-2.54c1.18.1,2.76.24,3.51.29a31.177,31.177,0,0,1-2.26-4.35,64.526,64.526,0,0,1-10.25-.09L528,451a49.46,49.46,0,0,0,9.22.34c-.19-.55-.34-1.06-.48-1.46A17.783,17.783,0,0,0,536,447.62Zm-4.34,14.76c0,2,1.8,2.88,5.09,2.88a32.868,32.868,0,0,0,6.43-.58l-.17,3a34.364,34.364,0,0,1-6.46.57c-4.89,0-8-1.92-8-5.37a9.921,9.921,0,0,1,1.27-4.47l3,.7a5.83,5.83,0,0,0-1.15,3.27Z" fill="#dca0aa"/>
    <path id="パス_298" data-name="パス 298" d="M561.82,450.16c-1.17,1.73-2.85,4.8-4.05,6.92a5.54,5.54,0,0,1,2.76-.73c1.8,0,2.88,1.13,3,3.13,0,1.08,0,3,.1,4a1.4,1.4,0,0,0,1.56,1.3c2.09,0,3.36-2.69,4.06-5.66l2.59,2.11c-1.25,4.1-3.48,6.84-7.15,6.84-2.67,0-3.92-1.59-4-3.34-.1-1.27-.07-3.24-.15-4.22a1.32,1.32,0,0,0-1.41-1.35c-1.63,0-3,1.68-3.84,3.63a49.181,49.181,0,0,0-1.83,5.35L550,467a178.536,178.536,0,0,1,8-16.88c.31-.64.77-1.44,1.17-2.44l3.41,1.36C562.35,449.37,562.09,449.78,561.82,450.16Z" fill="#dca0aa"/>
    <path id="パス_299" data-name="パス 299" d="M588.16,468l-1.8-2.86a20.4,20.4,0,0,0,2.23-.38c3.07-.72,5.47-2.93,5.47-6.44,0-3.31-1.8-5.78-5-6.33a46.785,46.785,0,0,1-1.44,6.5c-1.44,4.85-3.5,7.83-6.12,7.83s-4.87-2.93-4.87-7c0-5.54,4.8-10.27,11-10.27,5.95,0,9.69,4.13,9.69,9.36C597.3,463.48,594.21,467.06,588.16,468Zm-6.6-5.38c1,0,1.94-1.51,2.93-4.75a36,36,0,0,0,1.27-5.81,7.55,7.55,0,0,0-6.1,7C579.66,461.44,580.62,462.62,581.56,462.62Z" fill="#dca0aa"/>
    <path id="パス_300" data-name="パス 300" d="M606.21,457.75a18.072,18.072,0,0,0-4.27-2.35l1.51-2.17a15.6,15.6,0,0,1,4.35,2.12ZM602.54,467a75.638,75.638,0,0,0,3.86-7.68l2.26,1.7c-1.08,2.57-2.33,5.33-3.58,7.66Zm2.23-20.26a19.438,19.438,0,0,1,4.13,2.54l-1.78,2.26a16.849,16.849,0,0,0-4-2.74Zm12.8,8.52v1.44h6.31v9.53c0,1.25-.24,1.9-1.06,2.28a9.16,9.16,0,0,1-3.6.41,7.61,7.61,0,0,0-.65-2.38c.89.05,1.92.05,2.24.05s.4-.12.4-.38v-7h-4V463h1.18v-2.83h1.66v5.69h-1.66V465h-4.35v1.4h-1.7v-6.29h1.7V463h1.08v-3.82H611.4v9.77h-2.52V456.69h6v-1.44h-6.67v-2.5H612V451h-3.1v-2.47H612v-1.95h2.67v1.95h3.21v-1.95h2.76v1.95h3.12V451h-3.12v1.77h3.8v2.5Zm-2.93-2.5h3.21V451h-3.21Z" fill="#dca0aa"/>
    <path id="パス_301" data-name="パス 301" d="M641.41,465.72a23.2,23.2,0,0,0,3.72.26h5.9a10.272,10.272,0,0,0-1,2.76H645c-4.83,0-8.55-.87-11-4.54a12.07,12.07,0,0,1-3.29,4.7,12,12,0,0,0-2-1.94c2.6-2,3.65-5.95,4-9.22l3,.34c-.14.94-.33,1.9-.57,2.86a7.3,7.3,0,0,0,3.45,3.86v-8.5h-6.88v-8.73H648.6v8.73h-7.05v3h7.82v2.64h-7.82Zm-7-12.15h11v-3.29h-11Z" fill="#dca0aa"/>
    <path id="パス_302" data-name="パス 302" d="M666.42,468l-1.8-2.86a20.4,20.4,0,0,0,2.23-.38c3.07-.72,5.47-2.93,5.47-6.44,0-3.31-1.8-5.78-5-6.33a48.278,48.278,0,0,1-1.44,6.5c-1.44,4.85-3.5,7.83-6.12,7.83s-4.87-2.93-4.87-7c0-5.54,4.8-10.27,11-10.27,6,0,9.7,4.13,9.7,9.36C675.56,463.48,672.47,467.06,666.42,468Zm-6.6-5.38c1,0,1.94-1.51,2.92-4.75a36,36,0,0,0,1.28-5.81,7.55,7.55,0,0,0-6.1,7C657.92,461.44,658.88,462.62,659.82,462.62Z" fill="#dca0aa"/>
    <path id="パス_303" data-name="パス 303" d="M699.68,464.47h-2.85V463.2H684.51a11,11,0,0,1-3.07,5.9,13.5,13.5,0,0,0-2.23-2c2.62-2.4,2.9-5.76,2.9-8.21v-3h17.57Zm-7.61-13.71v1.47h8v2.4H681.73v-2.4h7.46v-1.47h-9v-2.42h9v-1.8h2.88v1.8h9v2.42ZM685,458.28V459a14.548,14.548,0,0,1-.08,1.83h4.4v-2.52Zm11.88,0H692.1v2.52h4.78Z" fill="#dca0aa"/>
    <path id="パス_304" data-name="パス 304" d="M714.8,450.35a54.826,54.826,0,0,0,7.06-.69v2.23a72.5,72.5,0,0,1-7.9.62,18.073,18.073,0,0,1-1.85,3.17,7.181,7.181,0,0,1,3.08-.72,3.15,3.15,0,0,1,3.21,2c1.49-.69,2.72-1.2,3.84-1.73.82-.35,1.52-.67,2.28-1l1,2.21c-.7.21-1.73.6-2.45.89-1.22.48-2.78,1.1-4.46,1.87,0,1.37,0,3.29.07,4.44H716.4c.05-.84.07-2.21.09-3.39-2.06,1.13-3.36,2.24-3.36,3.65,0,1.63,1.56,2,4,2a41.283,41.283,0,0,0,6.67-.62l-.07,2.42a60.148,60.148,0,0,1-6.67.43c-3.58,0-6.37-.84-6.37-3.81s2.88-4.83,5.67-6.24a1.93,1.93,0,0,0-2-1.2,6.09,6.09,0,0,0-4,1.72,26,26,0,0,0-2.19,2.57l-2.06-1.53a24,24,0,0,0,5.42-7h-.69a38.709,38.709,0,0,1-4-.15v-2.25a31.257,31.257,0,0,0,4.13.26h1.41a12.326,12.326,0,0,0,.56-2.86l2.49.19A24.627,24.627,0,0,1,714.8,450.35Z" fill="#fff"/>
    <path id="パス_305" data-name="パス 305" d="M734.4,452.54c0,1.51,0,3.53.17,5.4.36,3.77,1.35,6.31,2.95,6.31,1.2,0,2.26-2.61,2.81-4.8l1.9,2.23c-1.51,4.11-3,5.52-4.75,5.52-2.43,0-4.66-2.3-5.31-8.61-.24-2.11-.26-5-.26-6.44a11.754,11.754,0,0,0-.2-2.25l2.93.05A19.489,19.489,0,0,0,734.4,452.54Zm16.83,10.18-2.47,1c-.41-4.13-1.78-9.46-4.2-12.34l2.37-.79c2.21,2.74,3.99,8.24,4.3,12.13Z" fill="#fff"/>
    <path id="パス_306" data-name="パス 306" d="M764.07,449.92c-.08.41-.17.89-.29,1.42a43.242,43.242,0,0,0,4.34-.84v2.37a42.5,42.5,0,0,1-4.82.82c-.24,1-.51,2.14-.77,3.15a73.174,73.174,0,0,1-3.79,11l-2.62-.89a55.145,55.145,0,0,0,4.08-10.75c.19-.75.39-1.54.58-2.33h-1.95a27.6,27.6,0,0,1-2.85-.09l-.05-2.35a23.294,23.294,0,0,0,2.93.19,20.077,20.077,0,0,0,2.4-.1c.12-.72.24-1.34.29-1.8a9.647,9.647,0,0,0,.09-2.16l2.88.22C764.38,448.46,764.16,449.44,764.07,449.92ZM767,463.17c0,1.08.64,2.07,3.72,2.07a28,28,0,0,0,4.8-.48l-.08,2.42a36.513,36.513,0,0,1-4.75.34c-3.91,0-6-1.28-6-3.65a13.807,13.807,0,0,1,.41-3l2.23.21a9,9,0,0,0-.33,2.09Zm4-8.23a41.873,41.873,0,0,1,4.2.19l-.08,2.31a29.9,29.9,0,0,0-4.08-.32,39.8,39.8,0,0,0-4.53.27v-2.23a36.52,36.52,0,0,1,4.4-.22Z" fill="#fff"/>
    <path id="パス_307" data-name="パス 307" d="M789,450.23c-.09.41-.19.89-.29,1.42a40.286,40.286,0,0,0,4.35-.82v2.36a41.915,41.915,0,0,1-4.85.81c-.22,1-.48,2.14-.74,3.15a75.04,75.04,0,0,1-3.8,11L781,467.3a52.715,52.715,0,0,0,4.08-10.75c.2-.75.41-1.54.58-2.33h-1.92a24.856,24.856,0,0,1-2.86-.1v-2.35a23.185,23.185,0,0,0,2.93.19,19.518,19.518,0,0,0,2.38-.1c.14-.72.26-1.32.31-1.77a10.7,10.7,0,0,0,.1-2.19l2.88.22C789.32,448.77,789.11,449.75,789,450.23Zm2.88,13.25c0,1.08.65,2.07,3.72,2.07a27.118,27.118,0,0,0,4.8-.48l-.07,2.42a36.927,36.927,0,0,1-4.75.34c-3.91,0-6-1.27-6-3.65a15.131,15.131,0,0,1,.39-3l2.25.22a8.811,8.811,0,0,0-.33,2.08Zm4-8.23a41.883,41.883,0,0,1,4.2.19l-.07,2.31a30.1,30.1,0,0,0-4.08-.29,40.118,40.118,0,0,0-4.54.24v-2.23c1.27-.12,2.93-.22,4.46-.22Zm3.55-3.07-1.58.69a27.058,27.058,0,0,0-1.92-3.33l1.56-.65a37.807,37.807,0,0,1,1.91,3.29Zm2.79-1-1.56.69a30.365,30.365,0,0,0-2-3.33l1.54-.65a37,37,0,0,1,1.99,3.26Z" fill="#fff"/>
    <path id="パス_308" data-name="パス 308" d="M810.4,452.54c0,1.51,0,3.53.17,5.4.36,3.77,1.35,6.31,2.95,6.31,1.2,0,2.26-2.61,2.81-4.8l1.9,2.23c-1.51,4.11-3,5.52-4.75,5.52-2.43,0-4.66-2.3-5.31-8.61-.24-2.11-.26-5-.26-6.44a12.575,12.575,0,0,0-.19-2.25l2.92.05A19.489,19.489,0,0,0,810.4,452.54Zm16.83,10.18-2.47,1c-.41-4.13-1.78-9.46-4.2-12.34l2.37-.79c2.21,2.74,3.99,8.24,4.3,12.13Z" fill="#fff"/>
    <path id="パス_309" data-name="パス 309" d="M833.54,450.55c1.75-.17,6-.58,10.44-.94,2.57-.22,5-.36,6.63-.43v2.42a21.84,21.84,0,0,0-4.61.4,8,8,0,0,0-5.33,7.23c0,4.37,4.08,5.83,8.07,6l-.89,2.54c-4.71-.21-9.63-2.73-9.63-8a9.67,9.67,0,0,1,4.08-7.8c-2.42.26-8,.84-10.68,1.42l-.26-2.64C832.24,450.64,833.08,450.59,833.54,450.55Z" fill="#fff"/>
    <path id="パス_310" data-name="パス 310" d="M859.74,452.54c0,1.51,0,3.53.17,5.4.36,3.77,1.34,6.31,3,6.31,1.2,0,2.26-2.61,2.81-4.8l1.9,2.23c-1.52,4.11-3,5.52-4.76,5.52-2.42,0-4.65-2.3-5.3-8.61-.24-2.11-.26-5-.26-6.44a11.758,11.758,0,0,0-.2-2.25l2.9.1A19.514,19.514,0,0,0,859.74,452.54Zm16.83,10.18-2.48,1c-.4-4.13-1.77-9.46-4.2-12.34l2.38-.79C874.48,453.33,876.25,458.83,876.57,462.72Z" fill="#fff"/>
    <path id="パス_311" data-name="パス 311" d="M892.68,449.3v1.27a53.64,53.64,0,0,0,6.32-.67v2.21c-1.78.21-4,.43-6.34.52v3c2.38-.1,4.49-.31,6.58-.6v2.23c-2.21.27-4.2.44-6.5.53.05,1.11.12,2.26.17,3.34a19.11,19.11,0,0,1,6.88,3.67l-1.39,2.14a18.51,18.51,0,0,0-5.37-3.51c0,.51,0,.91,0,1.25,0,1.82-1.32,3.48-4.46,3.48-3.6,0-5.55-1.34-5.55-3.74s2.14-3.87,5.72-3.87c.62,0,1.2.05,1.77.1,0-.94-.07-1.92-.09-2.81H889.1c-1.54,0-4.2-.12-5.86-.31v-2.26a47.578,47.578,0,0,0,5.93.43h1.22v-2.95h-1c-1.59,0-4.47-.24-6-.43v-2.19a43.243,43.243,0,0,0,6,.53h1V449.2a7.513,7.513,0,0,0-.12-1.51h2.57A10.108,10.108,0,0,0,892.68,449.3ZM888.22,466c1.34,0,2.37-.4,2.37-1.94v-1.34a10.47,10.47,0,0,0-2.18-.22c-2,0-3.15.79-3.15,1.75S886.15,466,888.22,466Z" fill="#fff"/>
    <path id="パス_312" data-name="パス 312" d="M918.59,449.47v1.2h7.2v2.25c-1.42-.07-3.7-.12-7.18-.12v3.77a6,6,0,0,1,.84,3.19c0,3.2-1.71,7-7.39,8.62l-2-2c2.83-.62,5-1.68,6.19-3.52a3.77,3.77,0,0,1-1.68.36,4,4,0,0,1-4-4.18,4.33,4.33,0,0,1,4.46-4.32,4.728,4.728,0,0,1,1.34.17c0-.63,0-1.35,0-2-3.65,0-7.58.19-10.56.38l-.07-2.3c2.71-.05,7.17-.17,10.61-.22a8.079,8.079,0,0,0-.05-1.22c-.07-.77-.15-1.52-.19-1.76h2.76a12.781,12.781,0,0,0-.28,1.7Zm-3.69,11.64c1.24,0,2.18-1,1.87-3.24a2,2,0,0,0-1.87-1.15,2.16,2.16,0,0,0-2.19,2.25,2.11,2.11,0,0,0,2.19,2.14Z" fill="#fff"/>
    <path id="パス_313" data-name="パス 313" d="M938.2,464.73a3.76,3.76,0,1,1-1.819-3.418A3.76,3.76,0,0,1,938.2,464.73Zm-1.44,0a2.3,2.3,0,1,0-.67,1.633,2.31,2.31,0,0,0,.67-1.633Z" fill="#fff"/>
    <text id="ずっと" transform="translate(464 270)" fill="#dca0aa" font-size="25" font-family="YuGo-Bold, YuGothic" font-weight="700"><tspan x="0" y="0">ずっと</tspan></text>
  </g>
</svg>
