<svg xmlns="http://www.w3.org/2000/svg" xmlns:xlink="http://www.w3.org/1999/xlink" width="21" height="33" viewBox="0 0 21 33"><defs><clipPath id="a"><rect width="21" height="33" transform="translate(495 6812)" fill="#fff" stroke="#707070" stroke-width="1"/></clipPath></defs><g transform="translate(-495 -6812)" clip-path="url(#a)"><path d="M-2013.805,5448a8,8,0,0,1-8-8v-44.245l-19.619-23.359a78.723,78.723,0,0,0,16.173,4.486c1.162.164,2.318.28,3.445.358V5356a8,8,0,0,1,8-8h504a8,8,0,0,1,8,8v84a8,8,0,0,1-8,8Z" transform="translate(2536.424 1442)" fill="#fff"/><path d="M-1509.806,5447a7.008,7.008,0,0,0,7-7v-84a7.008,7.008,0,0,0-7-7h-504a7.008,7.008,0,0,0-7,7v22.314l-1.07-.075c-1.207-.084-2.389-.207-3.516-.366a72.946,72.946,0,0,1-12.843-3.232l17.428,20.75V5440a7.008,7.008,0,0,0,7,7h504m0,1h-504a8,8,0,0,1-8-8v-44.245l-19.619-23.359a78.723,78.723,0,0,0,16.173,4.486c1.162.164,2.318.28,3.445.358V5356a8,8,0,0,1,8-8h504a8,8,0,0,1,8,8v84A8,8,0,0,1-1509.806,5448Z" transform="translate(2536.424 1442)" fill="#ddd"/></g></svg>