<svg xmlns="http://www.w3.org/2000/svg" xmlns:xlink="http://www.w3.org/1999/xlink" width="21" height="33" viewBox="0 0 21 33"><defs><clipPath id="a"><rect width="21" height="33" transform="translate(1419 6932)" fill="#fff" stroke="#707070" stroke-width="1"/></clipPath></defs><g transform="translate(-1419 -6932)" clip-path="url(#a)"><path d="M27.619,100a8,8,0,0,1-8-8V70.758c-1.127.079-2.284.195-3.445.358A78.715,78.715,0,0,0,0,75.6L19.619,52.243V-109a8,8,0,0,1,8-8h504a8,8,0,0,1,8,8V92a8,8,0,0,1-8,8Z" transform="translate(1440 7013) rotate(180)" fill="#fafffb"/><path d="M531.619,99a7.008,7.008,0,0,0,7-7V-109a7.008,7.008,0,0,0-7-7h-504a7.008,7.008,0,0,0-7,7V52.608L3.191,73.358a72.929,72.929,0,0,1,12.843-3.232c1.123-.158,2.306-.281,3.515-.366l1.07-.074V92a7.008,7.008,0,0,0,7,7h504m0,1h-504a8,8,0,0,1-8-8V70.758c-1.127.079-2.284.195-3.445.358A78.715,78.715,0,0,0,0,75.6L19.619,52.243V-109a8,8,0,0,1,8-8h504a8,8,0,0,1,8,8V92A8,8,0,0,1,531.619,100Z" transform="translate(1440 7013) rotate(180)" fill="#ddd"/></g></svg>