<svg xmlns="http://www.w3.org/2000/svg" viewBox="0 0 961.67 214.19"><defs><style>.cls-1{fill:#fff}.cls-2{fill:#0071ad}</style></defs><g id="レイヤー_2" data-name="レイヤー 2"><g id="レイヤー_1-2" data-name="レイヤー 1"><path class="cls-1" d="M59 0C21.41 0 4 12.94 4 28.88c0 21.85 26 29.38 50.67 29.38 1.29 0 3.11 4.61 4.16 5.66 0 0 .11.18.17.14s.17-.14.17-.14c1-1 2.87-5.66 4.16-5.66C88 58.26 114 50.73 114 28.88 114 12.94 96.59 0 59 0"/><path class="cls-2" d="M29.75 18.27v1.25a64.38 64.38 0 007.68-.82v3.49c-2 .25-4.77.52-7.72.67V26c3.07-.15 5.66-.39 8.12-.73v3.59c-2.74.3-5.11.51-8 .6.06 1.16.12 2.4.21 3.62a23.77 23.77 0 018.51 4.59l-2.19 3.4a23.19 23.19 0 00-6.14-4.22v1.12c0 2.58-2 4.59-6 4.59-4.87 0-7.42-1.85-7.42-5.07 0-3.07 2.83-5.23 7.51-5.23.63 0 1.27 0 1.88.09-.06-.94-.09-1.91-.12-2.83h-1.64c-1.76 0-5.23-.15-7.23-.39v-3.59a52.78 52.78 0 007.32.58H26v-3.13h-1.15a70.82 70.82 0 01-7.44-.54L17.32 19a55.86 55.86 0 007.5.67H26v-1.46a12.2 12.2 0 00-.18-2.09h4.1a20.44 20.44 0 00-.18 2.15m-6.13 20.85c1.61 0 2.67-.46 2.67-2.22v-1.31a17.07 17.07 0 00-2.49-.21c-2.16 0-3.34.85-3.34 1.88s1.09 1.86 3.19 1.86M66.55 19.31l-2.1.88h4.62v3.61c-1.82-.09-4.71-.18-8.81-.18v4.5a7.61 7.61 0 011.15 4.22c0 4-2.34 9-9.78 11.09l-3.22-3.25c3.07-.64 5.77-1.64 7.44-3.46a6.58 6.58 0 01-1.39.15 5.38 5.38 0 01-5.26-5.56c0-3.44 2.8-5.72 6.11-5.72a6.81 6.81 0 011.21.1v-2c-4.59.06-9.33.27-13.06.49l-.09-3.68c3.46 0 9-.15 13.09-.21a8.27 8.27 0 000-.94 42.05 42.05 0 00-.27-2.65h4.31c-.09.49-.18 2.13-.21 2.61v1h3.65a39.23 39.23 0 00-2-3.44l2.49-1a34.1 34.1 0 012.13 3.59M55.22 33.5c1.27 0 2.37-1 2-3.65a2.18 2.18 0 00-2-1.06 2.27 2.27 0 00-2.31 2.4 2.3 2.3 0 002.34 2.31m15.4-15.08l-2.55 1.07A26.93 26.93 0 0066 15.9l2.52-1a34 34 0 012.16 3.55M79.78 19.94a80.57 80.57 0 00-1.46 11.76 14.62 14.62 0 00.12 2c.39-1.07.91-2.1 1.37-3.13l1.85 1.52c-.85 2.49-1.82 5.59-2.19 7.23a8.49 8.49 0 00-.15 1.43c0 .3 0 .82.06 1.24l-3.38.26a35.61 35.61 0 01-1.22-9.73A95.09 95.09 0 0176 19.85a29.23 29.23 0 00.3-3l4.2.36a18.9 18.9 0 00-.7 2.7m15.34-1.06c0 .67-.06 1.79-.09 3.13a42.16 42.16 0 004.71-.7v3.8c-1.46.21-3 .39-4.71.52.06 2.94.21 5.37.33 7.44a19.72 19.72 0 015.9 3.92l-2.1 3.19a31.25 31.25 0 00-3.7-3.07c-.19 2.92-1.83 5-5.93 5s-6.81-1.76-6.81-5S85.34 32 89.47 32a13.54 13.54 0 012 .12c-.06-1.89-.18-4.1-.21-6.26H89.1c-1.79 0-3.52-.06-5.31-.18V22a51.15 51.15 0 005.31.27h2.13V18.9a12.85 12.85 0 00-.21-2h4.28a18.93 18.93 0 00-.18 2m-6 19.63c1.86 0 2.5-1 2.5-2.77v-.56a9.08 9.08 0 00-2.43-.34c-1.74 0-2.89.73-2.89 1.89s1.21 1.76 2.82 1.76"/><path class="cls-1" d="M217 127a3.94 3.94 0 01-2.52-.89l-5.8-4.7a4 4 0 01.56-6.59 26.28 26.28 0 005.64-4.21 23.28 23.28 0 006.23-11h-1.71c-1.6 0-4.27 0-6.24.19h-.37a4 4 0 01-4-4v-6.51a4 4 0 014-4h.38c2.12.2 4.56.33 6.23.33h3.24v-.35a34.3 34.3 0 00-.3-3.94 4 4 0 013.95-4.66h7.35a4 4 0 014 4.52c-.05.42-.16 1.51-.27 4.1v.33h5.22a20 20 0 003.09-.29 3.68 3.68 0 01.66-.06 4.07 4.07 0 011.74.4l4.35 2.1a4 4 0 012.19 4.34c-.16.84-.27 1.72-.28 2a.41.41 0 010 .11c-.49 13.37-1.56 21.83-3.26 25.86-1.8 4.19-5.21 6.29-10.13 6.29-2.44 0-5.24-.13-8.59-.41a4 4 0 01-3.64-3.51l-.52-4.42a41.44 41.44 0 01-8.84 8.31 4 4 0 01-2.36.66m15.28-15.77h.29a39.21 39.21 0 005.7.63 66.1 66.1 0 001.44-12.3h-3.77a47.94 47.94 0 01-3.66 11.63M274.73 127.64a4 4 0 01-3-1.38l-5.2-6a4 4 0 012.33-6.55 37.12 37.12 0 006.29-1.74 20.62 20.62 0 009.52-7.1 21.41 21.41 0 002.88-6.58h-15.97v3.3c0 1.18.05 2.54.13 3.3a4 4 0 01-1 3.09 4 4 0 01-3 1.31h-6.91a4 4 0 01-4-4.47 33 33 0 00.22-3.73v-8.65a29.45 29.45 0 00-.19-3.64 4 4 0 013.94-4.66 3.59 3.59 0 01.47 0 36.82 36.82 0 004.64.22h6.7a21.48 21.48 0 00-.35-3.81 4 4 0 014-4.64h7.7a4 4 0 014 4.46 33.13 33.13 0 00-.32 4h4.7a8.85 8.85 0 002.81-.32 4.15 4.15 0 011.34-.23 4 4 0 012.08.59l4.35 2.65a4 4 0 011.68 4.78 24.76 24.76 0 00-.84 3.42 49.44 49.44 0 01-5.05 15.26c-4.42 8.17-12.77 14.35-22.92 17a4.34 4.34 0 01-1 .12M312.82 126.69a4 4 0 01-3.37-1.85l-4.2-6.6a4 4 0 012.82-6.11 47.08 47.08 0 0017.65-6 43.11 43.11 0 0016.63-17.73 4 4 0 013.49-2.31h.16a4 4 0 013.5 2.07l3.9 7a4 4 0 010 3.9 57.12 57.12 0 01-19.92 20 58.16 58.16 0 01-19.94 7.57 3.89 3.89 0 01-.68 0m9.8-24.1a3.93 3.93 0 01-2.87-1.28 102.16 102.16 0 00-11.87-10.24 4 4 0 01-.62-6l4.7-5a4 4 0 015.15-.58 104.59 104.59 0 0113.57 11.17 4 4 0 01-.05 5.55l-5.1 5.2a4 4 0 01-2.85 1.2h-.06"/><path class="cls-1" d="M381.84 126.79c-10.53 0-17-2.11-17-12.65v-8.75c-2.3.47-4.32.9-5.57 1.19a3.69 3.69 0 01-.93.11 4 4 0 01-3.93-3.28l-1.2-6.55a4 4 0 013.42-4.68c1.63-.21 4.44-.67 8.21-1.33V87a39.84 39.84 0 00-.35-5.11 4 4 0 013.95-4.64h7.45a4 4 0 014 4.51 48.22 48.22 0 00-.42 5.24v1c5.7-1.11 10.05-2 11.6-2.38h.11a10.34 10.34 0 002.53-.78 4 4 0 014.3.37l4.8 3.7a4 4 0 01.93 5.34l-.1.15c-.38.59-1 1.58-1.34 2.22a76.53 76.53 0 01-10.7 15.19c2-.28 3.76-.6 5.23-.9a4.23 4.23 0 01.79-.08 4 4 0 014 4.12l-.2 6.8a4 4 0 01-3.43 3.84 119.78 119.78 0 01-16.07 1.14m-2.45-14.32a19 19 0 002.4.12c1.27 0 2.53 0 3.77-.11l-4.8-2.84a4.09 4.09 0 01-1.37-1.34v4.17M423.77 127.59a4 4 0 01-2.91-1.25l-5.2-5.5a4 4 0 012-6.64c4.55-1.06 7.72-2.69 10-5.12 2.44-2.65 3-5.13 3-12.59V87a32.38 32.38 0 00-.26-4.43 4 4 0 014-4.57h7.55a4 4 0 014 4.29c-.09 1.28-.19 2.81-.19 4.71v9.9c0 10.65-1.85 16.67-6.83 22.18-4.73 5.16-11.85 7.69-13.92 8.34a4.16 4.16 0 01-1.2.18m-12.3-16.1a4 4 0 01-4-4.21c0-.31 0-.74.09-1.21.07-.93.16-2.09.16-3V86.24a31.39 31.39 0 00-.17-3.33 4 4 0 014-4.52h7.2a4 4 0 014 4.35c-.1 1.1-.13 2.12-.13 3.5v16.9c0 1.21.05 3 .13 4a4 4 0 01-4 4.34zM457.19 126.69a4 4 0 01-3.37-1.85l-4.2-6.6a4 4 0 012.82-6.11 47.08 47.08 0 0017.65-6 43.11 43.11 0 0016.63-17.73 4 4 0 013.49-2.31h.14a4 4 0 013.5 2.07l3.9 7a4 4 0 010 3.9 57.12 57.12 0 01-19.92 20 58.16 58.16 0 01-19.94 7.57 3.89 3.89 0 01-.68 0m9.8-24.1a3.93 3.93 0 01-2.87-1.28 102.16 102.16 0 00-11.87-10.24 4 4 0 01-.62-6l4.7-5a4 4 0 015.15-.58 104.59 104.59 0 0113.57 11.17 4 4 0 01-.05 5.55l-5.1 5.2a4 4 0 01-2.85 1.2H467"/><path class="cls-1" d="M510.92 129.24a4 4 0 01-2.67-1l-5.9-5.3a4 4 0 011.52-6.81c10.08-3 14.91-7.36 18.3-11.21a30.88 30.88 0 004.43-7h-6.45a59.5 59.5 0 01-12.34 11.42 4.06 4.06 0 01-2.24.68 4 4 0 01-2.4-.8l-5.6-4.2a4 4 0 01.33-6.62 39.11 39.11 0 0014.2-14.66 1 1 0 01.08-.14 19 19 0 001.77-4.1 4 4 0 015.11-2.78l7.35 2.4a4 4 0 012.59 2.54c0 .12.08.24.11.36a3.87 3.87 0 01.12-1.72 4 4 0 012.33-2.57l4-1.6a4 4 0 011.26-.28 4.14 4.14 0 01.69-.37l4-1.6a4.16 4.16 0 011.5-.29 4 4 0 013.28 1.7 75.56 75.56 0 014.33 7.27 4 4 0 01-2 5.51l-3.27 1.4a4 4 0 01-.3 3.38 16.62 16.62 0 00-1.3 2.81 54.62 54.62 0 01-9.46 18c-5.52 6.8-12.24 11.53-21.77 15.33a4 4 0 01-1.48.28"/><path class="cls-2" d="M175.32 92.24a4 4 0 003.62 4c3.09.3 6.87.45 10.94.45s8.07-.16 11.3-.44a4 4 0 003.64-4v-6.46a4 4 0 00-4-4 3.87 3.87 0 00-.48 0 101.89 101.89 0 01-11.14.57 71.76 71.76 0 01-9.33-.51 3.39 3.39 0 00-.55 0 4 4 0 00-4 4z"/><path class="cls-2" d="M204.78 110.53a4 4 0 00-2.51-.89 3.7 3.7 0 00-.8.09 55.24 55.24 0 01-11.75 1.21 12.36 12.36 0 01-3-.27 15 15 0 01.46-2.53 4 4 0 00-3.51-4.93l-5.75-.55h-.38a3.87 3.87 0 00-1.4.26l-.17-.14-3.1-2.45a3.54 3.54 0 00-.53-.36c.53-4.56 1.47-9.85 1.92-12.19.22-1 .79-3.12 1.07-3.84a4 4 0 00-3.4-5.41l-7-.6h-.34a4 4 0 00-4 3.88c0 .94-.18 2.14-.31 3.19-.06.47-.11.92-.16 1.33-.09.63-.2 1.37-.33 2.2-.4 2.55-.95 6.12-1.34 10a4 4 0 00-2.91-2.8 29.49 29.49 0 01-4.17-1.31A37.75 37.75 0 00156.54 83a4 4 0 00-2.43-4.8l-3.8-1.44a3.85 3.85 0 00-1.42-.27 4.23 4.23 0 00-.79.08l-.61.12h-17.55a4 4 0 00-3.69 2.45h-1.46v-.7a4 4 0 00-4-4h-5.3a4 4 0 00-4 4v.7h-3.7a4 4 0 00-4 4v5.15a4 4 0 00.56 2 4 4 0 00-.06.7v18.29a4 4 0 00-1.11 2.76v.96a21.49 21.49 0 01-3.08-3 4 4 0 00-3-1.41h-.3c-.14-2.44-.23-5.64-.21-9.85a4 4 0 001.91-3.41v-3.14h.5a4 4 0 004-4v-5a4 4 0 00-4-4H74.7a4.08 4.08 0 00-.54-1.71 4 4 0 00-2.63-1.9l-6.2-1.3a3.91 3.91 0 00-.83-.09 4 4 0 00-3.84 2.91c-1.73 6.1-4.81 11.28-8.52 14.41a4 4 0 00-1.51-2.17A107.89 107.89 0 0037.74 82a4 4 0 00-4.91 1.16l-.11-.08a4 4 0 00-2.37-.78 3.87 3.87 0 00-1.11.16c-1.14.33-2.44.64-3.82.91.09-1 .2-2.06.28-2.51a4 4 0 00-3.95-4.66h-6.9a4 4 0 00-3 1.42 4 4 0 00-.89 3.24c.1.66.29 2.89.29 3.74v.15a53.69 53.69 0 01-5.38-.37 3.71 3.71 0 00-.47 0 4 4 0 00-2.68 1 4 4 0 00-1.32 3l.1 6A4 4 0 005 98.37a54.26 54.26 0 006.12.27v1.16c-5.73 3-11.1 8-11.1 14 0 7.48 8.59 13.5 15.7 13.5a8.43 8.43 0 007.09-3.11l.09.26a4 4 0 003.77 2.65h.48a47.18 47.18 0 006.92-.87h.13c11.61-2.93 14.05-10.45 14.05-16.23a13.77 13.77 0 00-2.63-8.26h.34a4 4 0 002.79-1.92l1.54-2.62a4 4 0 001.54 1.64c1 .59 2.7 1.73 3.88 2.59v1.46a4 4 0 001.29 2.88 4 4 0 00.86 6.3c1.12.64 2.22 1.28 3.29 1.93a39.59 39.59 0 01-7 3.56 4 4 0 00-1.15 6.79 30.82 30.82 0 013.74 3.93A4 4 0 0060 130a4 4 0 001.75-.41 60.91 60.91 0 0011.42-7.23 38.72 38.72 0 014.3 4 4 4 0 002.81 1.32h.17a4 4 0 002.75-1.09l3-2.88a10.21 10.21 0 009.36 5.57c6.34 0 8.26-4.81 9-8.94a4 4 0 002.67 1h4.31v3.85a4 4 0 004 4h5.3a4 4 0 003.82-2.81 4 4 0 003.28 1.71h26.05a4 4 0 004-4v-5.25a4 4 0 00-3-3.88 4 4 0 00.78-2.37v-5a4 4 0 00-.61-2.12 15.47 15.47 0 012.27-2.93 4.08 4.08 0 00.88-1.2c-.13 1.77-.21 3.56-.21 5.3a67.6 67.6 0 002.11 17.47 4 4 0 003.84 2.88h.27l5.81-.4a4 4 0 002.74-1.37 4 4 0 001-2.91c-.06-.83-.09-1.42-.09-1.76a10.38 10.38 0 01.17-1.54c0-.16.07-.33.11-.51 1.76 3.45 5.92 6.89 15.52 6.89a75.44 75.44 0 0013.63-1 4 4 0 003.27-4l-.1-6.75a4 4 0 00-1.49-3.06M700.22 104.26a8.18 8.18 0 01-2-1.29 58.67 58.67 0 002.61-7.33 4 4 0 000-2.08 4 4 0 00.67-2.22v-5a3.94 3.94 0 00-.55-2 4.07 4.07 0 00-.42-1.72 35 35 0 00-4.87-6.62 4 4 0 00-4.81-.84l-.4.21a4 4 0 00-2.49-.87h-5.5a4 4 0 00-4 4.08c0 1.27.06 2.57.1 3.82h-2.49a4 4 0 00-3.76-2.65h-2.75v-1.26a4 4 0 00-4-4h-5.45a4 4 0 00-4 4v1.25h-3a4 4 0 00-4 4v5.2a4.14 4.14 0 00.09.87 4.1 4.1 0 00-.85.76 4 4 0 00-1.08-1.18 107.25 107.25 0 00-12.9-7.4 3.91 3.91 0 00-1.73-.4 4 4 0 00-3.17 1.56l-.11-.08a4 4 0 00-2.37-.78 3.87 3.87 0 00-1.11.16c-1.14.33-2.44.64-3.82.91.09-1 .2-2.06.28-2.51a4 4 0 00-3.95-4.66h-6.9a4 4 0 00-3 1.42 4 4 0 00-.89 3.24c.1.66.29 2.89.29 3.74v.14a50.47 50.47 0 01-5.38-.36 3.71 3.71 0 00-.47 0 4 4 0 00-2.68 1 4 4 0 00-1.32 3l.1 6a4 4 0 003.53 3.91 54.14 54.14 0 006.12.27v1.25c-5.2 2.76-10.09 7.1-10.95 12.4a4 4 0 00-.91-1.19c-4.79-4.29-9.09-8.88-11.92-12-1.08-1.17-2.34-2.65-3.67-4.21-2.26-2.67-4.61-5.43-6.83-7.59-2.45-2.38-5-3.59-7.67-3.59-3 0-5.8 1.49-8.56 4.59-1.37 1.6-2.86 3.46-4.31 5.26-1.77 2.21-3.6 4.49-4.82 5.77a29.36 29.36 0 01-3.77 3.46 4 4 0 00-.43 6l6.1 6.25a4 4 0 002.86 1.2 2.55 2.55 0 00.39 0 4 4 0 003-1.79l.56-.85c.76-1.17 1.62-2.49 2.49-3.74.78-1 1.74-2.35 2.75-3.71 1.3-1.77 2.74-3.73 3.9-5.24 1.21 1.42 2.66 3.21 4.18 5.07 1.32 1.62 2.67 3.27 3.93 4.78a162.75 162.75 0 0011.3 12.26 4 4 0 002.75 1.09h.21a4 4 0 002.82-1.39l5.15-6a4 4 0 00.58-.93c1.25 6.61 9 11.67 15.51 11.67a8.43 8.43 0 007.09-3.11l.09.26a4 4 0 003.77 2.66h.48a47.18 47.18 0 006.92-.87h.13c11.63-2.92 14.07-10.44 14.07-16.23a13.77 13.77 0 00-2.63-8.26h.34a4 4 0 002.79-1.92l2-3.42v2a4 4 0 001.91 3.42c.18 5.3 0 12.73-2.75 17.66a4.07 4.07 0 001.69 5.55 9.22 9.22 0 012.25 2.14A4 4 0 00654 129a4 4 0 003.39-1.91 27.52 27.52 0 001.8-3.51c5.52 3.86 12.42 4.27 18.74 4.27H696a4 4 0 003.9-3.1 16.71 16.71 0 011.67-4.44 4 4 0 00.25-4.21 3.88 3.88 0 00-.66-.89 24.21 24.21 0 001.46-6.82 4 4 0 00-2.41-4.12m-73.7 8.14a31.15 31.15 0 01-4.67.29c0-1.07-.05-2.3-.08-3.63a28.86 28.86 0 015.32-.52c.14 0 3.35 0 3.35 1.4 0 1.57-2.78 2.25-3.92 2.46M742.89 104.54a4 4 0 00-3.08-1.45h-.22a4 4 0 00-3.12 1.79c-3.79 5.73-8.16 8.4-13.76 8.4-2.52 0-2.9-.6-2.9-2.7 0-6.51.45-18.66.59-22.6.09-1.88.33-4.29.62-6.28a4 4 0 00-3.91-4.57L709 77a4 4 0 00-3.91 4.88 27.7 27.7 0 01.56 5.87c0 1.86-.1 5.59-.21 9.54-.14 5.08-.29 10.84-.29 14.61 0 10.27 6.37 16.15 17.5 16.15a30.15 30.15 0 0025-13.28 4 4 0 00-.25-4.77zM768 103.91c-1.24-1-2.34-1.91-3.18-2.61 2.31-1.93 5.86-4.72 8.76-7l3.82-3c1-.81 2.48-2 4.25-3.37a4 4 0 00.19-6.17L776 76.59a4 4 0 00-2.64-1 3 3 0 00-.52 0 4 4 0 00-2.84 1.78 34 34 0 01-3.31 3.6c-3.22 3.13-10.16 8.75-13.94 11.81-2.65 2.23-5.37 5-5.38 8.78s2.65 6.46 5 8.42l1.09.93c4.34 3.72 10.9 9.34 13.64 12.16 1.37 1.37 2.66 2.79 4.21 4.51a4 4 0 002.78 1.31h.19a4 4 0 002.7-1l5.85-5.35a4 4 0 00.08-5.83c-4-3.83-10.27-9-14.88-12.76M836 78.28a4 4 0 00-3.23-1.64 4.16 4.16 0 00-1.5.29l-4 1.6a4.14 4.14 0 00-.69.37 4.24 4.24 0 00-1.3.3l-3.95 1.65a4 4 0 00-2 1.91 4 4 0 00-1.57-.32 4.13 4.13 0 00-.92.11l-2.27.51c0-.18.09-.36.14-.52a4 4 0 00-3.54-5.09l-7.65-.6h-.31a4 4 0 00-4 4.5 20.49 20.49 0 01-.1 3.59h-1a44.37 44.37 0 01-5.83-.37 3.71 3.71 0 00-.47 0 4 4 0 00-4 4.1l.15 6.25a4 4 0 003.77 3.9c1.45.08 2.82.15 4.42.18-1.83 6.61-5.27 16-8 20.58a4 4 0 002.16 5.83l7 2.35a3.79 3.79 0 001.28.22 4 4 0 003.62-2.3c1.17-2.49 2.4-5.62 3.58-8.93.48 3.65 3.22 10.52 16.85 10.52a77.88 77.88 0 0010.76-.78 4 4 0 003.44-3.81l.25-6.35a4 4 0 00-4-4.16 4.38 4.38 0 00-.71.07 54.19 54.19 0 01-9.69.93 10.5 10.5 0 01-2.82-.28 16.48 16.48 0 01.53-2.65 4 4 0 00-1.39-4.21c1.4-.07 2.87-.11 4.48-.11a69.49 69.49 0 018.13.63h.47a4 4 0 004-3.9l.15-6A4 4 0 00834 93a3.52 3.52 0 00.42-.15l4-1.7a4 4 0 002-5.42 58.55 58.55 0 00-4.42-7.45M885.36 84.94a4 4 0 00-4-3.5 4.16 4.16 0 00-1.15.17c-2 .61-4.15 1.14-6.32 1.58-.38-1.39-.71-2.76-.95-4a4 4 0 00-3.92-3.26 3.87 3.87 0 00-.48 0l-6.75.8a4 4 0 00-3.25 5.44c.3.76.58 1.58.84 2.36a112 112 0 01-13.23-.85 3.87 3.87 0 00-.48 0 4 4 0 00-2.68 1 4 4 0 00-1.32 3l.1 6.4a4 4 0 003.69 3.92c4.5.37 8.64.55 12.67.55 2.22 0 4.37-.06 6.5-.17 0 .1.09.19.13.29h-.22a4 4 0 00-4 3.63l-.5 5.3a4 4 0 003.65 4.36c2.91.24 6.35.59 9.09.93a72.23 72.23 0 01-9 .53c-2 0-6.6-.19-6.6-2a8.36 8.36 0 011.76-4.5 4 4 0 00-2.41-6.14l-6.25-1.45a4 4 0 00-.9-.11 4 4 0 00-3.58 2.21c-2.15 4.31-3.07 7.63-3.07 11.09 0 11.14 10.66 15.16 20.63 15.2a74.81 74.81 0 0014.21-1.27 4 4 0 003.24-3.7l.35-6.3a4 4 0 00-1.37-3.24q-.2-.17-.39-.3a4.12 4.12 0 001.16-1.12l3.1-4.5a4 4 0 00-.32-4.94 26.81 26.81 0 01-2.39-3c-.46-.65-1.07-1.63-1.75-2.84 1.5-.31 2.85-.64 4-1a4 4 0 002.84-4.34zM928 83.65a4 4 0 00-4.31-1.26l-6.35 2a4 4 0 00-1.78 6.44c4.6 5.23 7.14 16.29 7.93 24.16a4 4 0 001.89 3 3.89 3.89 0 002.09.59 4 4 0 001.45-.27l6.55-2.55a4 4 0 002.54-4c-.61-8.46-4.61-21.63-10-28.16M913.31 101.51a4 4 0 00-3.09-1.47 4 4 0 00-3.89 3.08 34.12 34.12 0 01-1.6 5.06 35.36 35.36 0 01-1.18-6.77c-.25-3-.34-6.42-.28-10.27a36.94 36.94 0 01.52-5.33 4 4 0 00-.82-3.29 4 4 0 00-3.05-1.52l-7.75-.1a4 4 0 00-3.93 4.76 27.4 27.4 0 01.33 4.34 135.26 135.26 0 00.57 13.92c2 19.08 10.65 21.94 15.63 21.94 7.71 0 11.5-7.25 14.19-14.34a4 4 0 00-.65-4z"/><path class="cls-2" d="M961.12 82.87a4 4 0 00-2.51-1.87l-8.07-2a3.77 3.77 0 00-.94-.11 4 4 0 00-3.92 3.19l-1.5 7.3a1.13 1.13 0 000 .18l-2.7 16.94a3.93 3.93 0 00.35 2.38 8.41 8.41 0 002 15.66 8.71 8.71 0 002.08.26 8.22 8.22 0 008.05-6.45 8.41 8.41 0 00-1.18-6.83 4.08 4.08 0 001.39-2l5.32-16.31a1.54 1.54 0 000-.17l2-7.19a4 4 0 00-.4-3.09"/><path class="cls-1" d="M21.3 84.54c-.05 1.1-.1 2.3-.15 3.55a61.24 61.24 0 009.2-1.8l.15 6.2c-2.85.65-6.3 1.15-9.55 1.55-.05 1.5-.05 3-.05 4.5v1.85a41.43 41.43 0 019.6-1.3c7.7 0 13.75 4 13.75 10.9 0 5.9-3.1 10.35-11 12.35a45.78 45.78 0 01-6.55.8l-2.3-6.45a38.5 38.5 0 006.15-.35c4-.75 7.25-2.75 7.25-6.4 0-3.4-3-5.4-7.35-5.4a33.71 33.71 0 00-9.4 1.4c.1 4 .2 7.85.2 9.55 0 6.2-2.2 7.85-5.5 7.85-4.85 0-11.7-4.2-11.7-9.5 0-4.35 5-8.9 11.15-11.55-.05-1.2-.05-2.4-.05-3.55v-4.2c-.95 0-1.85.1-2.65.1a61.3 61.3 0 01-7-.25l-.1-6a55.44 55.44 0 006.9.4c.9 0 1.9 0 2.9-.1v-4a40.24 40.24 0 00-.35-4.4h6.9c-.15.9-.35 3-.45 4.35m-7.5 31.95c.9 0 1.6-.4 1.6-2.1 0-1.25-.05-3.55-.15-6.25-3.05 1.65-5.1 3.7-5.1 5.45 0 1.55 2.35 2.9 3.65 2.9m34.5-23.95l-3 5.1c-2.4-2-8.95-5.8-12-7.3l2.7-4.85a104.48 104.48 0 0112.3 7M92.56 97.84c-.1 12 .55 21.45 3.45 21.45.75-.05.95-2.65 1-6.7a24.08 24.08 0 003.85 3.7c-.45 6.25-1.5 8.9-5.35 8.9-7.3 0-8.75-9.55-9-22.35H59.7v-4.15l-.45.4a49 49 0 00-5.4-3.75c5-3.75 8.71-10.2 10.66-17.1l6.2 1.3c-.4 1.25-.8 2.5-1.25 3.7H99v5H67.26c-.4.8-.85 1.6-1.3 2.35h28.5v4.8H65.61v-4.2a40.32 40.32 0 01-5 6.7zm-10 7.15a43 43 0 01-5.3 7.7 61.12 61.12 0 017.9 6.4l-4.75 4.5a53.67 53.67 0 00-7.4-6.45 55.82 55.82 0 01-13.01 8.8 34.14 34.14 0 00-4.4-4.65 44.31 44.31 0 0012.66-7.55c-2.85-1.9-5.76-3.65-8.4-5.15l4.25-3.9c2.6 1.35 5.5 3 8.35 4.85a32.71 32.71 0 004.4-6.45zM152.69 81.94a31.78 31.78 0 01-7.45 13.7 30 30 0 009.4 3.9 20.58 20.58 0 00-3.55 4.8 29.41 29.41 0 01-10.1-5 37.1 37.1 0 01-10.55 5.2 25.86 25.86 0 00-2.15-3.55v8.1h-7.5v3H129v5.2h-8.25v7.85h-5.3v-7.85h-8.31v-5.2h8.31v-3h-7.21V91h7.21v-2.71h-7.71v-5.15h7.71v-4.7h5.3v4.7h7.85v5.15h-7.85V91h7.5v8.5a29.88 29.88 0 008.65-4.05 33 33 0 01-5.15-8.65l4-1h-5.8v-5.1h17.95l1-.2zm-40.15 16.2h3.55v-3h-3.55zm0 6.85h3.55v-3h-3.55zm11.3-9.85h-3.7v3h3.7zm0 6.8h-3.7v3h3.7zM144 118.79h9.95V124h-26v-5.25h10.2v-6.25h-7.55v-5h7.55V102H144v5.55h7.7v5H144zm-7.2-33a24.15 24.15 0 004.15 6.3 24 24 0 004.35-6.3zM170.37 86.94c-.65 3.35-2.4 13.35-2.4 18.35a24.12 24.12 0 00.2 3.25c.75-1.7 1.55-3.45 2.25-5.1l3.1 2.45c-1.4 4.15-3.05 9.6-3.6 12.25a15.09 15.09 0 00-.25 2.35c0 .55.05 1.35.1 2.05l-5.8.4a63.92 63.92 0 01-1.97-16.35c0-7.5 1.55-16 2.1-19.8.15-1.4.45-3.3.5-4.9l7 .6c-.4 1.05-1.05 3.55-1.25 4.45m12.35 24.45c0 2.2 1.9 3.55 7 3.55a59.1 59.1 0 0012.55-1.3l.1 6.75a70.81 70.81 0 01-12.9 1c-8.6 0-12.75-3-12.75-8.2a30.55 30.55 0 01.85-6.5l5.75.55a17 17 0 00-.6 4.2m18.1-25.6v6.45a134.2 134.2 0 01-21.5 0v-6.4a102.82 102.82 0 0021.5 0"/><path class="cls-2" d="M233.33 85.14c-.05 1.55-.1 3-.2 4.5h9.4a23.24 23.24 0 003.75-.35l4.35 2.1a20.44 20.44 0 00-.35 2.65c-.2 5.4-.8 19.35-2.95 24.45-1.1 2.55-3 3.86-6.45 3.86-2.85 0-5.85-.21-8.25-.41l-.8-6.7a41.38 41.38 0 007 .7 2.66 2.66 0 002.85-1.75c1.45-3.15 2.1-13.15 2.1-18.55h-11.25c-1.85 13.2-6.6 21-15.55 27.4l-5.8-4.7a29.79 29.79 0 006.55-4.9c4.65-4.6 7.15-10.2 8.25-17.8h-6.6c-1.7 0-4.45 0-6.6.2v-6.55c2.1.2 4.7.35 6.6.35h7.15c.05-1.4.1-2.85.1-4.35a37 37 0 00-.35-4.6h7.35c-.15 1.15-.25 3.25-.3 4.45M283.58 84.54v3.85h8.7a12.16 12.16 0 004.15-.55l4.35 2.65a33.39 33.39 0 00-1 4 46.57 46.57 0 01-4.65 14.15c-4 7.4-11.5 12.7-20.4 15l-5.2-6a40.72 40.72 0 007.05-2 24.48 24.48 0 0011.35-8.55c2.55-3.65 3.85-8.4 4.45-12.85h-24.8v7.3c0 1.15.05 2.7.15 3.7h-6.9a37.92 37.92 0 00.25-4.2v-8.6a31.92 31.92 0 00-.25-4.3 41.48 41.48 0 005.1.25h10.7v-3.85a24.7 24.7 0 00-.4-4.6h7.7a36.34 36.34 0 00-.35 4.6M327.78 109.54c8.55-5.05 15.05-12.7 18.2-19.45l3.9 7a53.17 53.17 0 01-18.5 18.5 54.15 54.15 0 01-18.55 7l-4.2-6.6a51.53 51.53 0 0019.15-6.55m0-16.15l-5.1 5.2a104 104 0 00-12.5-10.8l4.7-5a101 101 0 0112.9 10.6M368.79 100.49c-4.45.9-8.4 1.7-10.5 2.2l-1.2-6.55c2.35-.3 6.75-1 11.7-2V87a43.24 43.24 0 00-.4-5.75h7.45a52.55 52.55 0 00-.45 5.75v5.9c7.3-1.4 14.3-2.8 16.55-3.35a14.1 14.1 0 003.55-1.15l4.8 3.7c-.45.7-1.2 1.85-1.65 2.75-2.2 4.15-6.75 11-10.35 14.55l-5.5-3.25a42.58 42.58 0 008-10.15c-1.55.35-8.3 1.65-15.4 3.1v13.25c0 3.1.9 4.2 6.4 4.2a81.68 81.68 0 0015.75-1.7l-.2 6.8a117.53 117.53 0 01-15.5 1.1c-11.4 0-13-2.75-13-8.65zM418.57 86.24v16.9c0 1.25.05 3.2.15 4.35h-7.25c0-.95.25-2.9.25-4.4V86.24a35.65 35.65 0 00-.21-3.85h7.21c-.1 1.15-.15 2.25-.15 3.85m23.15.75v9.9c0 10.75-2.1 15.4-5.8 19.5-3.3 3.6-8.5 6-12.15 7.21l-5.2-5.51c4.95-1.15 9-3 12-6.3 3.45-3.75 4.1-7.5 4.1-15.3V87a35.27 35.27 0 00-.3-5h7.55c-.1 1.4-.2 3-.2 5M472.15 109.54c8.55-5.05 15.05-12.7 18.2-19.45l3.9 7a53.17 53.17 0 01-18.5 18.5 54.15 54.15 0 01-18.55 7l-4.2-6.6a51.53 51.53 0 0019.15-6.55m0-16.15l-5.1 5.2a104 104 0 00-12.5-10.8l4.7-5a101 101 0 0112.9 10.6M540.92 86.69l-3.7 1.55 4.25 2.6a20 20 0 00-1.65 3.6 50.76 50.76 0 01-8.75 16.65c-4.75 5.85-10.75 10.41-20.15 14.16l-5.9-5.31c10.2-3 15.75-7.4 20.15-12.4a35.37 35.37 0 007.1-13.6h-14a56.18 56.18 0 01-12.7 12.06l-5.6-4.2a43.24 43.24 0 0015.6-16.1 22.62 22.62 0 002.25-5.2l7.35 2.4a51.87 51.87 0 00-3 5.1c0 .1-.1.15-.15.25h10a15.75 15.75 0 004.35-.6l.35.2a58 58 0 00-3.72-6.41l4-1.6a63.56 63.56 0 013.95 6.85m6-2.3l-3.95 1.7a53 53 0 00-4.05-6.9l4-1.6a71.39 71.39 0 014 6.8"/><path class="cls-1" d="M551.07 102c2.3-2.4 6.15-7.55 9.25-11.15 3.5-4 6.75-4.3 10.4-.75 3.4 3.3 7.4 8.45 10.35 11.65 3.2 3.5 7.45 8 12.2 12.25l-5.15 6c-3.6-3.4-7.85-8.25-11-11.95s-6.85-8.45-9.2-11.1c-1.75-2-2.7-1.7-4.15.15-2 2.5-5.55 7.45-7.7 10.3-1.15 1.65-2.3 3.45-3.15 4.75l-6.1-6.25a33.46 33.46 0 004.25-3.9M618 84.54c0 1.1-.1 2.3-.15 3.55a61.24 61.24 0 009.2-1.8l.15 6.2c-2.85.65-6.3 1.15-9.55 1.55v6.35a41.43 41.43 0 019.6-1.3c7.7 0 13.75 4 13.75 10.9 0 5.9-3.1 10.35-11.05 12.35a45.78 45.78 0 01-6.55.8l-2.3-6.45a38.5 38.5 0 006.15-.35c4-.75 7.25-2.75 7.25-6.4 0-3.4-3-5.4-7.35-5.4a33.71 33.71 0 00-9.4 1.4c.1 4 .2 7.85.2 9.55 0 6.2-2.2 7.85-5.5 7.85-4.85 0-11.7-4.2-11.7-9.5 0-4.35 5-8.9 11.15-11.55-.05-1.2-.05-2.4-.05-3.55v-4.2c-.95 0-1.85.1-2.65.1a61.3 61.3 0 01-7-.25l-.1-6a55.44 55.44 0 006.9.4c.9 0 1.9 0 2.9-.1v-4a40.24 40.24 0 00-.35-4.4h6.9c-.15.9-.35 3-.45 4.35m-7.5 31.95c.9 0 1.6-.4 1.6-2.1 0-1.25-.05-3.55-.15-6.25-3.05 1.65-5.1 3.7-5.1 5.45 0 1.55 2.35 2.9 3.65 2.9M645 92.64l-3 5.1c-2.4-2-9-5.8-12-7.3l2.75-4.85a104.48 104.48 0 0112.3 7M666.46 116.64c3 1.2 6.85 1.5 11.5 1.5 3.55 0 16.1 0 20.35-.15a20.19 20.19 0 00-2.3 5.86h-18.1c-9.85 0-16.3-1.35-20.55-7.86a29.31 29.31 0 01-3.4 9 12.59 12.59 0 00-3.85-3.61c3.2-5.65 3.5-13.4 3.25-20.15l5 .3v5.8a17.86 17.86 0 002.75 5.35V98.34h-9.65v-5.2h8.65v-4.2h-7v-5.2h7v-5.25h5.45v5.25h6.75v5.2h-6.75v4.2h7.5v5.2h-6.6v5.55h5.95V109h-5.95zm7.75-30.25h8.5c-.1-2.6-.2-5.25-.25-7.9H688c0 2.65 0 5.3.15 7.9h4.45a28.79 28.79 0 00-3.85-5.6l4-2.1a31.18 31.18 0 014.3 5.75l-3.55 2h4.1v5h-9.15c.25 3.45.65 6.65 1.1 9.45a43.59 43.59 0 003-7.45l4.55 1.2a50.59 50.59 0 01-5.9 13.35c.75 2.15 1.5 3.4 2.3 3.4s1.1-2 1.25-6.25a12.21 12.21 0 004 2.9c-.75 6.9-2.25 8.75-5.85 8.75-2.1 0-3.85-1.5-5.2-4.1a29.39 29.39 0 01-5.3 4.75 19.75 19.75 0 00-3.55-4.1 26.93 26.93 0 006.75-6.15 85.58 85.58 0 01-2.45-15.75h-3.6V105l3.45-2 1.65 4.25c-3.9 2.65-8.15 5.5-11.7 7.7l-2.5-4.75c1.1-.55 2.4-1.3 3.85-2.1zM716.41 87.79c-.2 5.4-.6 16.6-.6 22.8 0 5 3 6.7 6.9 6.7 8.25 0 13.5-4.75 17.1-10.2l4.55 5.5a25.88 25.88 0 01-21.7 11.5c-8.2 0-13.5-3.6-13.5-12.15 0-6.7.5-19.85.5-24.15A31.89 31.89 0 00709 81l8 .1c-.3 2.1-.55 4.65-.65 6.65M774.83 88.19c-3.25 2.6-9.85 7.7-13.2 10.55-2.65 2.3-2.6 2.85.1 5.2 3.75 3.15 13.25 10.65 18.35 15.6l-5.85 5.35c-1.4-1.55-2.85-3.15-4.35-4.65-3-3.15-10.4-9.4-15-13.3-5-4.25-4.6-6.9.4-11.1 3.95-3.2 10.8-8.75 14.15-12a34.75 34.75 0 003.85-4.25l5.85 5.15c-1.55 1.2-3.2 2.5-4.35 3.45M809.72 86.19c-.1.55-.25 1.2-.4 1.85 2.8-.4 5.65-1 8.4-1.6v6.25a92 92 0 01-9.72 1.65c-.45 2.15-1 4.4-1.5 6.45-1.85 7-5.15 17.2-8 23.15l-6.95-2.35c3-5 6.8-15.5 8.65-22.5.35-1.35.7-2.8 1-4.2-1.15 0-2.25.1-3.3.1-2.45 0-4.3-.1-6.05-.2l-.15-6.25a48.94 48.94 0 006.3.4q2.17 0 4.5-.15.3-1.65.45-2.85a26.05 26.05 0 00.15-5.1l7.65.6c-.4 1.4-.9 3.65-1.1 4.75m6 27.1c0 2.2 1.5 3.85 6.85 3.85a58.49 58.49 0 0010.4-1l-.25 6.35a71.76 71.76 0 01-10.2.75c-8.4 0-13-2.9-13-7.95a34 34 0 01.85-6.7l6 .55a17.53 17.53 0 00-.7 4.15m7.6-17.2a87.93 87.93 0 018.8.45l-.15 6a72.71 72.71 0 00-8.6-.65 74.83 74.83 0 00-9.65.55v-5.85a95.32 95.32 0 019.6-.5m7.4-6.35l-4 1.75a56 56 0 00-3.9-6.95l4-1.65a68.78 68.78 0 013.95 6.85m6-2.3l-3.95 1.7a53 53 0 00-4.05-6.9l4-1.6a55.19 55.19 0 014 6.8M862.29 80.69l6.75-.8a58.47 58.47 0 002.1 7.85 75.3 75.3 0 0010.25-2.3l.8 6.3a66.5 66.5 0 01-8.9 1.8 54.77 54.77 0 004.45 8.15 31.53 31.53 0 002.7 3.35l-3.1 4.5c-2.8-.55-9.1-1.2-13.3-1.55l.5-5.3c2.45.2 5.75.5 7.3.6a65.7 65.7 0 01-4.7-9.05 134.08 134.08 0 01-21.35-.2l-.1-6.4a104.67 104.67 0 0019.2.7c-.4-1.15-.7-2.2-1-3-.4-1.15-.95-3-1.6-4.6m-9 30.75c0 4.2 3.75 6 10.6 6a69.06 69.06 0 0013.4-1.2l-.35 6.3a70.54 70.54 0 01-13.45 1.2c-10.2 0-16.65-4-16.65-11.2 0-3.05 1-5.9 2.65-9.3l6.25 1.45a12 12 0 00-2.45 6.75M899.27 91.14c0 3.25 0 7 .3 10.6.7 7.2 2.2 12.15 5.35 12.15 2.35 0 4.35-5.85 5.3-9.85l5 6.1c-3.3 8.7-6.45 11.75-10.45 11.75-5.5 0-10.26-5-11.66-18.35-.5-4.6-.55-10.45-.55-13.5a30.39 30.39 0 00-.4-5.1l7.71.1a40.45 40.45 0 00-.6 6.1m34.7 21l-6.55 2.55c-.8-8-3.45-20.2-8.9-26.4l6.35-2c4.75 5.75 8.55 18.25 9.1 25.9M941.51 115.41a4.4 4.4 0 113.25 5.31 4.27 4.27 0 01-3.25-5.31m6.59-25.16l1.5-7.3 8.07 1.94-2 7.19-5.33 16.31-5-1.2zM13.52 172.57c-3.12 1-6.45 1.9-8.94 2.63L4 173c1-.22 2.35-.57 3.75-.95v-5.6h-3v-2.15h3v-4.9H4.5v-2.15h8.57v2.15H10v4.87h2.82v2.15H10v5l3.2-.9zm11.38 4.18c.52 0 .62-.38.7-2.9a6.08 6.08 0 001.94.87c-.2 3.2-.74 4-2.37 4H23c-2 0-2.48-.64-2.48-2.72v-5.27h-2.05c-.45 4-1.7 6.77-6.77 8.32a6.69 6.69 0 00-1.3-1.9c4.47-1.17 5.42-3.3 5.8-6.42h-2V157H26v13.75h-3.25V176c0 .67.1.75.62.75zM16.32 161h7.4v-2.07h-7.4zm0 3.9h7.4v-2.1h-7.4zm0 3.9h7.4v-2.1h-7.4zM39.84 161.85a28 28 0 01-2.4 3.35v13.7h-2.28v-11.2a31.24 31.24 0 01-2.59 2.3 19.2 19.2 0 00-1.3-2.2 23.35 23.35 0 006.47-6.8zm-.7-5a25.24 25.24 0 01-6.4 6.17 11.22 11.22 0 00-1.2-1.93 18.85 18.85 0 005.37-5.09zm13.79 10.49a16.46 16.46 0 01-4.57 7 18 18 0 006.5 2.48 9 9 0 00-1.47 2.18 18.25 18.25 0 01-6.9-3.05 23.52 23.52 0 01-6.6 3.05 10.24 10.24 0 00-1.28-2 19.86 19.86 0 006.1-2.63 16.9 16.9 0 01-3.32-5l1.75-.53H40v-2.12h10.94l.42-.08zm-8.79-7.7c0 2.23-.5 5-3.08 6.75a10.36 10.36 0 00-1.9-1.32 6 6 0 002.73-5.48v-2.74h8.7v5.69c0 .43 0 .7.15.8a.51.51 0 00.37.1h.75a1.33 1.33 0 00.5-.07.81.81 0 00.28-.55c0-.33.07-1.1.1-2a5.32 5.32 0 001.77.92 12.59 12.59 0 01-.3 2.53 1.75 1.75 0 01-.85.95 4.16 4.16 0 01-1.37.25h-1.45a2.47 2.47 0 01-1.68-.53c-.42-.37-.57-.87-.57-2.35V159h-4.15zm-.63 9.2a12.19 12.19 0 003 4.13 14.33 14.33 0 003.25-4.13zM70.69 177.9l-1.48-2.35a16.39 16.39 0 002.23-.35c3.2-.73 6-3.08 6-7.1a6.65 6.65 0 00-6-7 50.56 50.56 0 01-1.5 7c-1.5 5.1-3.58 7.92-6 7.92s-4.75-2.75-4.75-6.92c0-5.6 4.9-10.4 11.17-10.4 6 0 9.8 4.2 9.8 9.42s-3.35 8.85-9.42 9.73M64 173.1c1.13 0 2.3-1.63 3.45-5.48a39.17 39.17 0 001.38-6.45 8.37 8.37 0 00-7.13 7.73c0 2.87 1.23 4.2 2.3 4.2M107.9 161.4v1.32c-.23 10.23-.43 13.85-1.23 15a2.75 2.75 0 01-2 1.25 17.22 17.22 0 01-3.1.1 7 7 0 00-.88-2.85c1.1.1 2 .13 2.53.13a.91.91 0 00.85-.43c.52-.67.77-3.72.92-11.8h-2.25c-.32 6.7-1.47 11.85-5.67 15.18a9.36 9.36 0 00-1.75-2c-3.6.38-7.2.75-9.9 1l-.35-2.5c1.4-.1 3.15-.23 5.08-.35V174h-4.4v-2.1h4.4v-1h-4.3v-7.72h4.3v-1h-4.92V160h4.93v-1c-1.45.09-2.88.17-4.23.19a9 9 0 00-.65-2.09 77.48 77.48 0 0010.78-1.23l1.3 2.23c-1.33.27-2.88.5-4.5.67V160h4.79v1.38H100v-5.22h2.85v5.22zm-19.69 4.72h2V165h-2zm2 1.78h-2v1.1h2zm2.7 7.32c1.42-.1 2.9-.22 4.35-.35 1.94-2.7 2.54-6.27 2.72-10.75h-2.33v-2h-4.79v1h4.42v7.72h-4.42v1h4.52V174h-4.52zm2-10.2h-2v1.1h2zm-2 4h2v-1.12h-2zM135.54 157.28v2.77h-9.8v2h4.55v11.32h-11.9v-11.32h4.38v-2h-9.6v-2.77zm-3.63 4.42h2.88v17.39h-2.88v-1.44h-15.09v1.47h-2.9V161.7h2.9v13.15h15.09zm-11.09 4.87H123v-2.1h-2.17zm0 4.38H123v-2.13h-2.17zm6.89-6.48h-2.17v2.1h2.17zm0 4.35h-2.17V171h2.17zM152.5 178.12l-1.87-3a19 19 0 002.32-.4c3.2-.75 5.7-3.05 5.7-6.7 0-3.45-1.87-6-5.25-6.6a49.9 49.9 0 01-1.5 6.77c-1.5 5.05-3.65 8.15-6.37 8.15s-5.07-3.05-5.07-7.27c0-5.78 5-10.7 11.47-10.7 6.2 0 10.1 4.3 10.1 9.75 0 5.27-3.23 9-9.53 10m-6.87-5.6c1.05 0 2-1.57 3.05-5a37.41 37.41 0 001.32-6 7.88 7.88 0 00-6.35 7.25c0 2.53 1 3.75 2 3.75M186.15 155.63a3 3 0 010 6 1.23 1.23 0 01-.33 0c-.07.28-.12.53-.2.75-.57 2.45-1.65 6.33-3.75 9.1a20 20 0 01-10 6.93l-2.73-3a16.38 16.38 0 009.8-5.88 15.62 15.62 0 002.92-7.05H170.2c-1.15 0-2.35.05-3 .1V159a27.74 27.74 0 003 .2h11.57a11.86 11.86 0 001.43-.1 2.34 2.34 0 010-.47 3 3 0 013-3m0 4.42a1.44 1.44 0 10-1.45-1.42 1.44 1.44 0 001.45 1.42M197.31 159.27h13.75c.62 0 1.57 0 2.47-.05-.05.75-.05 1.68-.05 2.43v12.25c0 1 .05 3.37.05 3.47h-3.45v-1.35h-12.02v1.35h-3.45c0-.12.08-2.3.08-3.5v-12.22c0-.7 0-1.73-.05-2.43 1 0 2 .05 2.65.05m.75 13.55h12.07v-10.37h-12.05zM228.62 159.2c-.15.77-.37 2-.59 3.15 1-.1 1.94-.15 2.52-.15 2.4 0 4.25 1 4.25 4.47 0 3-.38 7-1.43 9.08a3.73 3.73 0 01-3.85 2.19 13.87 13.87 0 01-3-.37l-.42-2.6a13.13 13.13 0 003.07.5 2 2 0 002.05-1.17c.75-1.58 1.1-4.75 1.1-7.35 0-2.15-1-2.53-2.55-2.53-.53 0-1.35.05-2.27.15-.93 3.68-2.7 9.45-5.18 13.45l-2.57-1c2.5-3.38 4.3-8.78 5.17-12.18-1.12.13-2.15.25-2.72.33s-1.8.22-2.48.35l-.25-2.7h2.43c.85 0 2.15-.13 3.55-.25a28.47 28.47 0 00.6-5.37l2.92.29c-.13.53-.25 1.18-.38 1.73m10.95.87l-1.6.68a43.77 43.77 0 014.13 8.45l-2.48 1.17a28.9 28.9 0 00-4.35-9.15l2.33-1a1.3 1.3 0 00.1.15 22.59 22.59 0 00-1.78-3l1.63-.67a36.87 36.87 0 012 3.44m2.9-1.1l-1.62.73a24.49 24.49 0 00-2.08-3.45l1.63-.67a36.74 36.74 0 012.07 3.39M253.48 156.7a37.6 37.6 0 01-2 4.8v17.44h-2.22v-13.49a24.7 24.7 0 01-2.08 2.75 15.83 15.83 0 00-1.15-2.45 28.08 28.08 0 005.28-9.67zm15.24.68v21.29h-2.2v-1.25h-10.29v1.48h-2.13v-21.52zm-2.2 2h-10.29v16h10.29zm-4.2 5.1V167H265v6.65h-7V167h2.49v-2.5h-3.34v-1.73h3.34v-2.7h1.85v2.7h3.48v1.73zm.85 4.17h-3.47V172h3.47zM285.55 167.82v1c-.27 6.1-.52 8.43-1.2 9.2a2.11 2.11 0 01-1.7.8 18.79 18.79 0 01-3 0 4.92 4.92 0 00-.65-2 24.19 24.19 0 002.67.13c.4 0 .65 0 .83-.28.42-.45.67-2.22.87-6.72h-3.5c-.57 3.52-1.72 6.85-4.35 9a5.77 5.77 0 00-1.6-1.63c3.35-2.7 3.9-7.55 4.13-11.9h-2.6v-8.29h10v8.29h-5.1c0 .8-.1 1.6-.2 2.4zm-8-4.45h5.6v-4.2h-5.6zm12.32 9.4h-2.27V159h2.25zm6-16.29V176c0 1.45-.35 2.13-1.22 2.55a14.52 14.52 0 01-4.7.4 11 11 0 00-.83-2.37c1.7.07 3.28 0 3.78 0s.65-.18.65-.63v-19.47zM306.36 159.9a59.36 59.36 0 00-1.23 9.42 24.76 24.76 0 00.15 2.68c.43-1 .93-2.25 1.33-3.18l1.25 1c-.65 1.9-1.53 4.58-1.78 5.83a4.84 4.84 0 00-.12 1.15c0 .25 0 .62.05.92l-2.28.15a31.79 31.79 0 01-.92-8.07 73.05 73.05 0 011.07-10 19.26 19.26 0 00.23-2.07l2.77.25a19.17 19.17 0 00-.52 1.9m6 12.52c0 1.13.87 2.05 3.9 2.05a27.08 27.08 0 006.22-.67l.05 2.67a34.24 34.24 0 01-6.32.5c-4.25 0-6.2-1.47-6.2-3.9a12.16 12.16 0 01.43-3.07l2.24.2a8.85 8.85 0 00-.32 2.22m9.4-12.62v2.55a64.33 64.33 0 01-10.48 0v-2.55a46.07 46.07 0 0010.5 0M338.13 163a33.93 33.93 0 01-2.07 7.52 31.29 31.29 0 012.67 4.18l-1.87 1.57a25.79 25.79 0 00-1.95-3.37 16.9 16.9 0 01-5.4 5.87 12.89 12.89 0 00-1.58-1.8 14.49 14.49 0 005.55-6.1 67 67 0 00-4.27-5.2l1.62-1.32c1.2 1.25 2.45 2.7 3.65 4.15a34 34 0 001.38-5.8zm12.92 1h-2.82v11.9c0 1.42-.33 2.1-1.13 2.52a11.67 11.67 0 01-4.3.48 10.47 10.47 0 00-.75-2.48c1.5.05 2.85.05 3.28 0s.6-.13.6-.55V164h-6.55v-1.9h-10.85V160h4.55v-4h2.25v4h4.83v1.77h5.77V156h2.3v5.74h2.82zm-9 8.7a20.6 20.6 0 00-2.62-5.47l1.9-.9a18.75 18.75 0 012.72 5.37zM359.23 165.37c0 3.9-.37 9.7-2.54 13.52a12.18 12.18 0 00-2-1.32c2-3.55 2.2-8.62 2.2-12.2V159h9v-3h2.42v3h9.28v2.25h-18.36zm-.2 10.35a18.76 18.76 0 002-7.55l2.12.48c-.3 2.72-.87 6-2.07 8zm11.53.62c.9 0 1-.62 1.15-4.14a7.54 7.54 0 002.05 1c-.23 4.15-.83 5.29-3 5.29h-3.25c-2.35 0-3-.74-3-3.12v-9.17h2.28v9.17c0 .88.17 1 1 1zm0-9.22a31.19 31.19 0 00-5.77-3.85l1.57-1.52a31.16 31.16 0 015.88 3.65zm4 .45a26.72 26.72 0 013.52 8.13l-2.27 1a27.51 27.51 0 00-3.3-8.25zM396.78 167.45a2.9 2.9 0 11-2.9-2.9 2.9 2.9 0 012.9 2.9M431.6 161.1a24.64 24.64 0 01-6.12 6.9l-2.07-1.68a15.34 15.34 0 005.1-5.17h-13.7c-1 0-1.88.07-2.95.15v-2.78a21.51 21.51 0 002.95.23h14a11.65 11.65 0 002.07-.18l1.58 1.48c-.22.27-.62.75-.83 1m-16.22 17l-2.3-1.88a8.92 8.92 0 002.4-1.22c3.58-2.3 4.15-5.45 4.15-9.6a10.73 10.73 0 00-.15-2h2.85c0 6.53-.37 11.33-6.95 14.7M440.61 160.55a17.82 17.82 0 00-.23-2.8h3.08c-.08.82-.2 1.9-.2 2.8v3.9a79.23 79.23 0 0110.57 4l-1.1 2.7a69.83 69.83 0 00-9.47-3.88V175c0 .83.08 2.3.18 3.2h-3a27.62 27.62 0 00.2-3.2zm11.55 1.92l-1.75.78a22.15 22.15 0 00-2.2-3.82l1.67-.73a30.16 30.16 0 012.28 3.77m3.22-1.4l-1.72.85a25.71 25.71 0 00-2.3-3.74l1.67-.78a36.14 36.14 0 012.35 3.67M464.74 160l2.82.57c-.17.63-.4 1.58-.52 2.13a54.8 54.8 0 01-2.2 7.7 36.39 36.39 0 01-3.68 7l-2.72-1.15a31.48 31.48 0 003.87-6.85 37.87 37.87 0 002.43-9.37m6.27.55l2.58-.85c1 1.87 2.67 5.5 3.67 8s2.28 6.3 2.95 8.65l-2.85.93a83.27 83.27 0 00-2.72-8.7 66.32 66.32 0 00-3.64-8.11m7.43.2l-1.63.7a29.35 29.35 0 00-2-3.45l1.63-.68a32.62 32.62 0 012 3.43m2.89-1.1l-1.62.72a29 29 0 00-2-3.45l1.6-.67c.65 1 1.6 2.5 2.07 3.4M495.39 163a30.73 30.73 0 006.95-6l2.1 2a42 42 0 01-6.73 5.48v10.37a18.08 18.08 0 00.18 3h-3.1c.07-.55.15-1.92.15-3v-8.7a51 51 0 01-9.23 3.88l-1.22-2.48a41.1 41.1 0 0010.9-4.6M527.13 161.42a34.47 34.47 0 01-4.1 7.13 65.82 65.82 0 017.14 7.32l-2.17 1.95a55.81 55.81 0 00-6.63-7.3 32.71 32.71 0 01-9.62 7.2l-2-2.12a28.15 28.15 0 0010.25-7.33 20.55 20.55 0 004-6.6h-9.17c-1 0-2.33.13-2.73.15V159c.5.07 2 .17 2.73.17h9.27a7.62 7.62 0 002.18-.25l1.62 1.2a8.9 8.9 0 00-.72 1.3M544.69 157.1l2.7-.32a27.32 27.32 0 001.08 4.12 30.67 30.67 0 005.39-1.2l.31 2.5a43.43 43.43 0 01-4.88 1 27.8 27.8 0 002.58 4.65 11.06 11.06 0 001.2 1.48l-1.25 1.8a60.11 60.11 0 00-6.3-.75l.17-2.08c1.33.1 3.1.25 3.95.35a34.63 34.63 0 01-2.72-5.2 66.26 66.26 0 01-10.6-.07l-.05-2.53a51.56 51.56 0 009.77.33c-.25-.78-.47-1.43-.65-1.93s-.42-1.37-.7-2.12m-5.25 15.37c0 2.25 2 3.23 5.63 3.25a31.31 31.31 0 006.55-.6l-.13 2.5a33.29 33.29 0 01-6.57.55c-4.9 0-8-1.85-8-5.32a9.79 9.79 0 011.25-4.38l2.47.55a6.37 6.37 0 00-1.2 3.45M577 159.5c0 1.07 0 2.15-.05 3.15.85-.08 1.67-.13 2.37-.18s1.5-.1 2.15-.15v2.45h-2.17c-.65 0-1.48 0-2.4.1a37.23 37.23 0 01-.38 5.15c-.25 1.2-.82 1.52-2 1.52a30.56 30.56 0 01-3.5-.37v-2.18a14 14 0 002.4.33c.57 0 .82-.1.87-.65a34.23 34.23 0 00.25-3.63c-2.42.2-5.14.45-7.47.7v5.95c.08 2.58.18 3.38 4.25 3.38a46.08 46.08 0 007.45-.63l-.08 2.68a70.41 70.41 0 01-7.22.42c-6.07 0-6.72-1.35-6.82-5.47v-6c-.92.1-1.7.17-2.25.25-.77.1-2.07.27-2.72.37l-.28-2.55c.75 0 1.78-.05 2.83-.15l2.42-.22v-3.07a15.41 15.41 0 00-.17-2.4h2.77a20.89 20.89 0 00-.12 2.27v3l7.52-.7v-3.25a17.88 17.88 0 00-.17-2h2.67a15.93 15.93 0 00-.12 2M589.38 160c1.82-.18 6.27-.6 10.87-1 2.68-.22 5.18-.37 6.9-.45v2.53a22.32 22.32 0 00-4.85.37 8.3 8.3 0 00-5.55 7.53c0 4.55 4.25 6.07 8.4 6.25l-.92 2.65c-4.9-.23-10-2.85-10-8.38a10.06 10.06 0 014.25-8.12c-2.52.27-8.35.87-11.12 1.47l-.27-2.75c1 0 1.84-.07 2.32-.12M616.66 162a56.13 56.13 0 00.18 5.63c.37 3.92 1.4 6.57 3.07 6.57 1.25 0 2.35-2.72 2.93-5l2 2.33c-1.57 4.27-3.12 5.75-4.95 5.75-2.52 0-4.85-2.4-5.52-9-.25-2.2-.28-5.2-.28-6.7a12.86 12.86 0 00-.2-2.35h3a21.52 21.52 0 00-.25 2.7m17.52 10.6l-2.57 1c-.42-4.3-1.85-9.85-4.37-12.85l2.47-.82c2.3 2.9 4.15 8.62 4.47 12.67M647.55 159.3c-.07.42-.17.92-.3 1.47a43.51 43.51 0 004.52-.87v2.47a43.41 43.41 0 01-5 .85c-.25 1.08-.52 2.23-.8 3.28a75.9 75.9 0 01-4 11.5l-2.72-.93a58.15 58.15 0 004.25-11.2c.2-.77.4-1.6.6-2.42-.73 0-1.4.05-2 .05-1.15 0-2.07 0-3-.1v-2.45a23.5 23.5 0 003 .2c.77 0 1.62 0 2.5-.1.12-.75.25-1.4.3-1.88a10.44 10.44 0 00.1-2.24l3 .22c-.15.62-.38 1.65-.48 2.15m3 13.8c0 1.12.67 2.15 3.87 2.15a28.25 28.25 0 005-.5l-.07 2.52a37.78 37.78 0 01-5 .35c-4.08 0-6.27-1.32-6.27-3.8a14.92 14.92 0 01.42-3.12l2.32.22a9.19 9.19 0 00-.32 2.18m4.12-8.58a42.53 42.53 0 014.38.2l-.08 2.4a32.4 32.4 0 00-4.25-.32 43.2 43.2 0 00-4.72.27v-2.32c1.35-.13 3.07-.23 4.67-.23M673.53 159.62c-.1.43-.2.93-.3 1.48a44 44 0 004.52-.85v2.45a45 45 0 01-5 .85c-.22 1.07-.5 2.22-.77 3.27a78.53 78.53 0 01-3.95 11.5l-2.75-.92a55 55 0 004.25-11.2c.2-.78.42-1.6.6-2.43h-2c-1.18 0-2.08 0-3-.1v-2.45a23.15 23.15 0 003 .2c.78 0 1.63 0 2.48-.1.15-.75.27-1.37.32-1.85a10.15 10.15 0 00.1-2.27l3 .23c-.15.62-.37 1.64-.47 2.14m3 13.8c0 1.13.67 2.15 3.87 2.15a28.44 28.44 0 005-.5l-.07 2.53a39.89 39.89 0 01-5 .35c-4.08 0-6.28-1.33-6.28-3.8a16.56 16.56 0 01.4-3.13l2.35.23a9.11 9.11 0 00-.32 2.17m4.12-8.57a42.53 42.53 0 014.38.2l-.08 2.4a30.9 30.9 0 00-4.25-.3 40.86 40.86 0 00-4.72.25v-2.33c1.35-.12 3.07-.22 4.67-.22m3.7-3.2l-1.65.72a28 28 0 00-2-3.47l1.63-.67a39.32 39.32 0 012 3.42m2.9-1.08l-1.63.73a30.38 30.38 0 00-2-3.47l1.6-.68a39 39 0 012.07 3.42M700.93 157.1l2.67-.3a21.82 21.82 0 00.53 2.82 26.67 26.67 0 005-1.12l.32 2.27a35.3 35.3 0 01-4.8 1c.18.52.33 1 .5 1.47s.33.88.5 1.35a27.09 27.09 0 004.9-1l.4 2.35a41.79 41.79 0 01-4.32.83 22.74 22.74 0 001.55 2.72 6.7 6.7 0 001 1.18l-1.18 1.78a55.13 55.13 0 00-5.65-.78l.2-1.9 3.48.35a24.77 24.77 0 01-1.7-3.15 79.81 79.81 0 01-11 0l-.13-2.32a59.43 59.43 0 0010.15.15c-.15-.38-.3-.75-.42-1.1-.23-.65-.4-1.23-.58-1.75a59.91 59.91 0 01-8.52-.2l-.15-2.27a52 52 0 008 .32c0-.07 0-.15-.08-.22-.22-.8-.47-1.65-.77-2.48m-4.6 15.9c0 2 1.8 2.9 5.45 2.9a29.88 29.88 0 006.1-.55l-.13 2.52a38.83 38.83 0 01-6 .45c-4.95 0-7.85-1.47-7.9-4.85a7.68 7.68 0 011.05-3.75l2.45.48a4.78 4.78 0 00-1.07 2.8M728.62 158.65v1.32a54.11 54.11 0 006.58-.7v2.3c-1.85.23-4.18.45-6.6.55v3.1c2.47-.1 4.67-.32 6.85-.62v2.32c-2.3.28-4.37.45-6.77.55 0 1.15.12 2.35.17 3.48a20.18 20.18 0 017.18 3.82L734.5 177a19.26 19.26 0 00-5.6-3.65c0 .52.05 1 .05 1.3 0 1.9-1.38 3.62-4.65 3.62-3.75 0-5.77-1.4-5.77-3.9s2.22-4 6-4c.64 0 1.25.05 1.84.1 0-1-.07-2-.1-2.93h-1.37c-1.6 0-4.37-.12-6.1-.32v-2.35a49.81 49.81 0 006.17.45h1.27v-3.08h-1c-1.65 0-4.65-.25-6.27-.45v-2.27a45.43 45.43 0 006.27.55h1.08v-1.53a8.18 8.18 0 00-.13-1.57h2.68c0 .45-.1 1-.13 1.7M724 176.05c1.39 0 2.47-.43 2.47-2v-1.4a11.21 11.21 0 00-2.27-.22c-2.12 0-3.27.82-3.27 1.82s1 1.83 3.1 1.83M755.6 158.82v1.25h7.49l-.05 2.35c-1.47-.07-3.84-.12-7.47-.12v3.92a6.21 6.21 0 01.87 3.33c0 3.32-1.77 7.25-7.7 9l-2.12-2.1c3-.65 5.25-1.75 6.45-3.67a3.92 3.92 0 01-1.75.37 4.17 4.17 0 01-4.2-4.35 4.52 4.52 0 014.65-4.5 4.84 4.84 0 011.4.18v-2.13c-3.8.05-7.9.2-11 .4l-.07-2.4c2.82 0 7.47-.17 11-.22v-1.28c-.08-.8-.15-1.57-.2-1.82h2.87a15.4 15.4 0 00-.15 1.82M751.75 171c1.3 0 2.28-1 2-3.38a2.06 2.06 0 00-2-1.2 2.25 2.25 0 00-2.27 2.35 2.19 2.19 0 002.27 2.23M776 174.72a3.91 3.91 0 01-7.82 0 3.91 3.91 0 117.82 0m-1.5 0a2.4 2.4 0 10-2.4 2.4 2.41 2.41 0 002.4-2.4M13.57 193.75c0 .6-.05 1.4-.1 2.3a31.52 31.52 0 004.93-1l.05 2.45c-1.45.32-3.3.62-5 .82 0 1-.05 2-.05 2.9v.88a19.39 19.39 0 015.2-.8c3.73 0 6.53 2 6.53 5.2 0 3-1.73 5-5.4 5.92a19.44 19.44 0 01-3.18.37l-.9-2.54a13.46 13.46 0 003-.18c2.1-.4 3.93-1.5 3.93-3.6 0-1.92-1.73-3-4-3a16.8 16.8 0 00-5.13.83c0 2.07.1 4.17.1 5.17 0 2.65-1 3.43-2.45 3.43-2.17 0-5.5-2-5.5-4.4 0-2.13 2.58-4.35 5.53-5.63v-1.55-2.77c-.62.05-1.17.07-1.65.07-1.52 0-2.47 0-3.3-.12l-.07-2.4a26.09 26.09 0 003.32.2c.53 0 1.1 0 1.73-.08v-2.47a15.32 15.32 0 00-.15-2h2.75c-.07.48-.15 1.33-.2 1.93m-3.2 16.52c.5 0 .85-.32.85-1.15s-.05-2.25-.07-3.87c-1.83.9-3.13 2.17-3.13 3.17s1.5 1.85 2.35 1.85m16.77-12.1l-1.22 2a36.74 36.74 0 00-5.77-3.7l1.1-1.9a45.71 45.71 0 015.89 3.6M37.84 195.45a19 19 0 01-4 5.55 16.27 16.27 0 00-2.14-1.5 17.19 17.19 0 005.3-8.6l2.45.53c-.23.7-.48 1.4-.73 2.07h15.14v1.95zm7.85 8.22a22.93 22.93 0 01-2.92 4.13 31.58 31.58 0 014.2 3.52l-1.85 1.75a30.88 30.88 0 00-4-3.55 26.92 26.92 0 01-6.9 4.67 13.66 13.66 0 00-1.7-1.82 23.72 23.72 0 006.75-4.2c-1.5-1-3-2-4.5-2.82l1.67-1.53c1.43.78 3 1.7 4.5 2.7a18.07 18.07 0 002.55-3.6zm4.88-3c0 6.22.32 11 2 11 .45 0 .57-1.4.6-3.45a11.39 11.39 0 001.57 1.42c-.18 3.1-.65 4.3-2.3 4.32-3.47 0-4.07-4.72-4.22-11.32H34.37v-2zm-13.33-3.58h14.33V199H37.24zM81.84 192.65a15.35 15.35 0 01-3.84 6.77 14.85 14.85 0 005 2.25 8.49 8.49 0 00-1.43 1.93 15.14 15.14 0 01-5.17-2.73 18.48 18.48 0 01-5.42 2.8 9.79 9.79 0 00-1-1.57v3.9h-3.89v1.77h4.35v2.08h-4.35v4.14H64v-4.19h-4.4v-2.08H64V206h-3.76v-8.78H64v-1.65h-4.1v-2H64V191h2.1v2.55h4.15v2h-4.16v1.65h3.85v4.53a15.9 15.9 0 004.78-2.35 16.77 16.77 0 01-2.93-4.73l1.6-.45h-2.6v-2H80l.4-.08zm-19.9 8.1h2.28v-1.9h-2.28zm0 3.52h2.28v-1.92h-2.28zm6.2-5.42h-2.3v1.9h2.3zm0 3.5h-2.3v1.92h2.3zm9.35 8.9h5.15v2.07H69.72v-2.07h5.47v-3.78h-4v-2h4v-3h2.3v3h4v2h-4zm-3.7-17.08a12 12 0 002.53 3.8 12.31 12.31 0 002.65-3.8zM92 194.9a60.59 60.59 0 00-1.22 9.42 24.76 24.76 0 00.15 2.68c.42-1 .92-2.25 1.32-3.18l1.25 1c-.65 1.9-1.52 4.58-1.77 5.83a4.88 4.88 0 00-.13 1.15c0 .25 0 .62.05.92l-2.27.15a31.72 31.72 0 01-.93-8.07 71.25 71.25 0 011.08-10 17 17 0 00.22-2.07l2.78.25a16.84 16.84 0 00-.53 1.9m6 12.52c0 1.13.87 2.05 3.89 2.05a27.16 27.16 0 006.23-.67l.05 2.67a34.36 34.36 0 01-6.33.5c-4.24 0-6.19-1.47-6.19-3.9a12.56 12.56 0 01.42-3.07l2.25.2a8.85 8.85 0 00-.32 2.22m9.39-12.62v2.55a64.21 64.21 0 01-10.47 0v-2.55a46 46 0 0010.49 0M123.62 193.23c-.1.47-.2 1-.3 1.64a45.76 45.76 0 008.68-1.07v2.32a75.68 75.68 0 01-9 .93c-.07.85-.15 1.77-.22 2.7a16.17 16.17 0 014-.55h.72a12.37 12.37 0 00.3-1.62l2.45.6c-.15.32-.35 1-.52 1.4 3 .9 4.92 3.17 4.92 6 0 3.57-2.22 6.82-8.17 7.75l-1.35-2.08c4.65-.52 7.1-2.9 7.1-5.77a4.13 4.13 0 00-3.18-3.95 19.7 19.7 0 01-5.42 7.87c.17.7.4 1.35.6 2l-2.28.67c-.12-.37-.25-.77-.37-1.22a8.68 8.68 0 01-4.08 1.2 3 3 0 01-3.15-3.35c0-3.23 2.75-6.55 6.23-8.18 0-1.15.15-2.32.25-3.4h-1.23c-1.17 0-3.12-.12-4.2-.17l-.07-2.33a35 35 0 004.35.33h1.37c0-.63.13-1.18.18-1.68a12.87 12.87 0 00.07-1.32l2.58.08a8.42 8.42 0 00-.3 1.2m-5.55 16.42a5.87 5.87 0 003-1.1 33.08 33.08 0 01-.55-5.65c-2.22 1.35-3.8 3.55-3.8 5.35 0 .92.43 1.4 1.33 1.4m5.05-2.75a16.28 16.28 0 003.77-5.7h-.17a11.66 11.66 0 00-4 .7v.6a26 26 0 00.38 4.4M149.08 195.65a24.29 24.29 0 003.67-.85l.08 2.3a34.46 34.46 0 01-4.47.9 44.8 44.8 0 01-5.43 10.62l-2.4-1.22a37.32 37.32 0 005.25-9.13h-1.82c-1 0-2 0-3-.07l-.18-2.33c1 .1 2.18.15 3.18.15.82 0 1.7 0 2.57-.1a20.11 20.11 0 00.73-4.27l2.74.35c-.2.88-.55 2.28-.93 3.68m6.8 7c0 .82.1 2.27.17 3.7a16.2 16.2 0 015.18 3.15l-1.33 2.12a19.56 19.56 0 00-3.75-2.8v.7c0 2.13-1.27 3.85-4.57 3.85-2.9 0-5.25-1.25-5.25-3.85 0-2.35 2.13-4 5.23-4a14.31 14.31 0 012.12.18c-.08-2-.2-4.33-.25-6h2.45v2.93m-4.62 8.45c1.89 0 2.52-1 2.52-2.4v-.85a8.67 8.67 0 00-2.32-.33c-1.65 0-2.77.75-2.77 1.78s.9 1.8 2.6 1.8m3.47-13.93l1.27-1.92a44.25 44.25 0 016 3.35l-1.42 2.07a32.24 32.24 0 00-5.85-3.5M176.24 194.3c-.08.42-.18.92-.3 1.47a44 44 0 004.52-.87v2.47a43.78 43.78 0 01-5 .85c-.25 1.08-.53 2.23-.8 3.28a75.9 75.9 0 01-3.95 11.5l-2.73-.93a57.5 57.5 0 004.25-11.2c.2-.77.4-1.6.6-2.42-.72 0-1.4.05-2 .05-1.15 0-2.08 0-3-.1l-.05-2.45a23.61 23.61 0 003.05.2c.78 0 1.63 0 2.5-.1.13-.75.25-1.4.3-1.88a9.83 9.83 0 00.1-2.24l3 .22c-.15.62-.37 1.65-.47 2.15m3 13.8c0 1.12.68 2.15 3.88 2.15a28.25 28.25 0 005-.5l-.08 2.52a37.65 37.65 0 01-4.95.35c-4.07 0-6.27-1.32-6.27-3.8a14.92 14.92 0 01.42-3.12l2.33.22a9.24 9.24 0 00-.33 2.18m4.13-8.58a42.21 42.21 0 014.37.2l-.07 2.4a32.54 32.54 0 00-4.25-.32 43.39 43.39 0 00-4.73.27v-2.32c1.35-.13 3.08-.23 4.68-.23M205.22 212.9l-1.48-2.35a16.39 16.39 0 002.23-.35c3.2-.73 6-3.08 6-7.1a6.64 6.64 0 00-6-7 50.56 50.56 0 01-1.5 7c-1.5 5.1-3.58 7.92-6.05 7.92s-4.75-2.75-4.75-6.92c0-5.6 4.9-10.4 11.17-10.4 6 0 9.8 4.2 9.8 9.42s-3.35 8.85-9.42 9.73m-6.73-4.8c1.13 0 2.3-1.63 3.45-5.48a39.17 39.17 0 001.38-6.45 8.37 8.37 0 00-7.13 7.73c0 2.87 1.23 4.2 2.3 4.2M223.59 196.37a7.9 7.9 0 01-2.33 4.3 6.2 6.2 0 00-1.55-1.47 6.62 6.62 0 002.08-5.23v-2.4l1.62.46a33.61 33.61 0 005.55-1l1.47 1.43a38.22 38.22 0 01-6.59 1.09v.53a3.57 3.57 0 010 .55H231v1.77h-2.67v2.85h-2.05v-2.85zm5.74 14.53a32.93 32.93 0 01-7.64 3.09 16.77 16.77 0 00-1.75-1.72 27.12 27.12 0 007.27-2.35zm-6.24-11.18h16.34v10.13h-16.34zm2.25 2.9h11.77v-1.42h-11.77zm0 2.88h11.77V204h-11.77zm0 2.9h11.77v-1.5h-11.77zm8.27-12a6.45 6.45 0 01-2.61 3.3 5.34 5.34 0 00-1.42-1.58 4.62 4.62 0 002.4-4.25v-2.24l1.67.4a40.86 40.86 0 006-1l1.5 1.4a40.93 40.93 0 01-7.07 1.07v.5a4.65 4.65 0 010 .63h8.23v1.77h-3.45v2.9h-2.13v-2.9zm1.2 13.6a79.36 79.36 0 017.47 2.9l-2.67 1.1a50.89 50.89 0 00-6.7-2.82zM250.19 200.92v13h-2.29V192h9.19v8.94zm0-5.35h4.7v-1.75h-4.7zm4.7 1.65h-4.7v1.88h4.7zm.58 13.2v1.45h-2.15v-9h9.42v7.5zm0-1.92h5.1v-3.63h-5.1zm13 2.47c0 1.4-.32 2.13-1.22 2.53a14.53 14.53 0 01-4.65.4 8.25 8.25 0 00-.8-2.38c1.57.08 3.2 0 3.7 0s.6-.17.6-.62V201h-7.05v-9h9.42zm-7.2-15.4h4.83v-1.77h-4.83zm4.83 1.65h-4.83v1.9h4.83zM274.3 208l2-1.8a46.51 46.51 0 015.53 5.52l-2.13 1.8a45.15 45.15 0 00-5.4-5.52M308 200.3c.87.9 3.1 3.52 3.6 4.17l-1.4 1.88A35.73 35.73 0 00308 203v11h-2.23v-11a25 25 0 01-3.24 6.58 13.49 13.49 0 00-1.15-2.13 25.44 25.44 0 004.09-8.92H302v-2.2h3.82V191H308v5.22h3.35v2.2H308zm15.72-7.92v21.21h-2.32v-1.34h-6.8v1.47h-2.23v-21.34zm-9.12 5.87h6.8v-3.68h-6.8zm0 5.92h6.8v-3.8h-6.8zm6.8 2.13h-6.8v3.82h6.8zM338.59 197h-9.32v-1.9h9.32zm-.82 15.6h-5.37v1h-2v-8.4h7.37zm0-12.25h-7.33v-1.8h7.33zm-7.33 1.52h7.32v1.83h-7.32zm7.28-8.2h-7.18v-1.87h7.18zm-5.3 17h3.37v-3.6h-3.39zm14.2-5.67c0 1.47.92 5.12 5.8 7a20.4 20.4 0 00-1.35 2 9.57 9.57 0 01-5.63-5.9 10.05 10.05 0 01-6.25 5.9 9.14 9.14 0 00-1.32-1.88c5.35-1.9 6.37-5.57 6.37-7.07v-3.65h2.38zm-8.35 2.57a7.5 7.5 0 002.25-4.35l2.05.43a8.93 8.93 0 01-2.43 5zm12.37-5.35a44.06 44.06 0 00-5.4-3.9c-1 1.83-2.6 3.15-5.4 4.1a7.3 7.3 0 00-1.32-1.85c5.12-1.57 5.7-4.47 5.92-9.59h2.28a25.32 25.32 0 01-.7 5.39 52.83 52.83 0 016.15 4.08zm-7.95-9.29a7.86 7.86 0 01-2 4.54l-1.77-.85a7.44 7.44 0 001.89-4.07zm4.9 14.47a25 25 0 002.2-4.35l2.28.75c-.88 1.5-1.88 3.2-2.68 4.27zm4.2-14.25a44.91 44.91 0 01-2.45 4l-1.72-.67a23.63 23.63 0 001.95-4zM357 208l2.05-1.8a46.42 46.42 0 015.52 5.52l-2.12 1.8A46 46 0 00357 208M398.67 195.05c-.53.85-1.05 1.72-1.65 2.57v16.27h-2.53v-13.12a30.78 30.78 0 01-8.52 6.75 13 13 0 00-1.6-2.07 27.75 27.75 0 0011.25-10.4h-10.55v-2.38h21.4v2.38zm.2 3.8a59.25 59.25 0 018.42 6.62l-2 1.8a56.18 56.18 0 00-8.22-6.92zM429.29 202.55a14.72 14.72 0 01-3.43 6.2 46.73 46.73 0 016.67 3.27l-1.82 1.9a44.66 44.66 0 00-6.8-3.52c-2.65 1.85-6.1 2.87-10.37 3.54a9.76 9.76 0 00-1.35-2.12 24.71 24.71 0 009.17-2.45c-1.4-.55-2.82-1.05-4.17-1.5l-.55 1-2.43-.65c.93-1.5 2.05-3.55 3.15-5.65h-5.72v-2.23h6.87c.68-1.35 1.33-2.67 1.88-3.85l2.42.53c-.5 1.05-1.05 2.17-1.62 3.32h12.44v2.23zM414.61 199h-2.37v-5.53h9.07V191h2.48v2.47h9.29V199h-2.47v-3.38h-16zm5.43 3.6c-.63 1.22-1.25 2.4-1.85 3.5 1.7.5 3.52 1.1 5.35 1.8a11.15 11.15 0 003.1-5.3zM444.59 195.47c.43.8.88 1.7 1.35 2.65 3-1.32 6.23-2.6 8.83-2.6 3.62 0 5.84 2.15 5.84 4.95 0 3.15-2.1 5.35-5.94 5.35a11.71 11.71 0 01-3.8-.7l.07-2.5a8.55 8.55 0 003.5.85c2.38 0 3.6-1.3 3.6-3.1 0-1.4-1.15-2.6-3.35-2.6s-5 1.13-7.8 2.4c.3.63.58 1.25.85 1.85 1.28 2.95 3 7.88 3.85 10.68l-2.72.7a72.76 72.76 0 00-3.38-10.3c-.27-.63-.55-1.25-.82-1.88-1.88.93-3.55 1.8-4.65 2.3l-1.2-2.52a17.69 17.69 0 002.25-.75c.82-.33 1.7-.7 2.65-1.13-.45-.92-.88-1.77-1.28-2.47a22.33 22.33 0 00-1.32-2l2.55-1c.2.42.67 1.34.92 1.79m2.9-2.7l1.83-1.29c.85.67 2.72 2.27 3.62 3.19l-1.82 1.4a38.89 38.89 0 00-3.63-3.3M484.44 192.43v21.31H482v-1.64h-12.36v1.64h-2.35v-21.31zm-14.8 5.82H482v-3.55h-12.36zm0 5.8H482v-3.6h-12.36zm12.35 2.2h-12.35v3.57H482zM498.26 206a36.77 36.77 0 00-1.7-3.35v11.25h-2.15v-10.58a23.17 23.17 0 01-2.67 6 12.73 12.73 0 00-1.1-2 26.68 26.68 0 003.57-8.92h-3v-2.15h3.25V191h2.15v5.27h2.65v2.15h-2.65v1.47c.7.93 2.55 3.75 2.95 4.43zm5.5 3.17a15.81 15.81 0 01-4 4 9.31 9.31 0 00-1.45-1.42 13.83 13.83 0 003.69-3.55zm3.8-1.37v3.95c0 1-.15 1.55-.88 1.84a8.05 8.05 0 01-3.17.33 7.41 7.41 0 00-.65-1.87h2.17c.27 0 .35-.08.35-.33v-3.92h-6.12v-1.9h14.52v1.9zm-3.85-13.88h-4.32V192h14.37v1.89h-4.48v1.48h3.83v6.07h-12.95v-6.04h3.55zm-2.87 8.8h11.64v1.75h-11.64zm1.25-2.95h1.82v-2.62h-1.82zm5.37-5.85h-1.93v1.48h1.93zm-1.93 5.85h1.93v-2.62h-1.93zm5 8.48A24.91 24.91 0 01514 212l-1.73 1.22a26.94 26.94 0 00-3.32-3.84zm.58-11.1h-2.05v2.62h2.05zM527.64 194.75A57.72 57.72 0 00535 194v2.33a78.67 78.67 0 01-8.23.65 20.26 20.26 0 01-1.92 3.3 7.24 7.24 0 013.2-.75 3.3 3.3 0 013.35 2.12c1.55-.72 2.82-1.25 4-1.8.85-.37 1.57-.7 2.37-1.1l1 2.3c-.72.23-1.79.63-2.54.93-1.28.5-2.9 1.15-4.65 1.95 0 1.42 0 3.42.07 4.62h-2.37c.05-.87.07-2.3.1-3.52-2.15 1.17-3.5 2.32-3.5 3.8 0 1.7 1.62 2.05 4.15 2.05a42.62 42.62 0 007-.65l-.08 2.52a62.44 62.44 0 01-6.95.45c-3.72 0-6.62-.87-6.62-4s3-5 5.9-6.5a2 2 0 00-2-1.25 6.36 6.36 0 00-4.15 1.8 27.06 27.06 0 00-2.28 2.67l-2.14-1.6a25 25 0 005.64-7.3h-.72c-1 0-2.78 0-4.18-.15v-2.35a32.4 32.4 0 004.3.28h1.48a12.59 12.59 0 00.57-3l2.6.2c-.15.7-.35 1.62-.67 2.7M552.34 193.75c0 .6-.05 1.4-.1 2.3a31.15 31.15 0 004.92-1l.05 2.45c-1.45.32-3.3.62-5 .82 0 1-.05 2-.05 2.9v.88a19.27 19.27 0 015.2-.8c3.72 0 6.52 2 6.52 5.2 0 3-1.72 5-5.4 5.92a19.33 19.33 0 01-3.17.37l-.9-2.54a13.49 13.49 0 003-.18c2.1-.4 3.92-1.5 3.92-3.6 0-1.92-1.72-3-4-3a16.73 16.73 0 00-5.12.83c0 2.07.1 4.17.1 5.17 0 2.65-1 3.43-2.45 3.43-2.18 0-5.5-2-5.5-4.4 0-2.13 2.57-4.35 5.52-5.63v-1.55-2.77c-.63.05-1.18.07-1.65.07-1.53 0-2.48 0-3.3-.12l-.07-2.4a26 26 0 003.32.2c.52 0 1.1 0 1.72-.08v-2.47a17.33 17.33 0 00-.15-2h2.75c-.08.48-.15 1.33-.2 1.93m-3.2 16.52c.5 0 .85-.32.85-1.15s0-2.25-.08-3.87c-1.82.9-3.12 2.17-3.12 3.17s1.5 1.85 2.35 1.85m16.77-12.1l-1.23 2a35.84 35.84 0 00-5.77-3.7l1.1-1.9a45.87 45.87 0 015.9 3.6M573.68 200.27v13.65h-2.3V192h9.27v8.29zm0-5h4.8v-1.6h-4.8zm4.8 1.55h-4.8v1.75h4.8zm7.57 6.35v10.1H584v-1.73l-8.65.63-.12-1.83c.6 0 1.27-.05 2-.1v-7.04h-1.7v-1.68h12.24v1.68zm-2.1 0h-4.72v1.25H584zm0 2.65h-4.72v1.32H584zm-4.72 4.32c1.5-.07 3.1-.17 4.72-.27v-1.35h-4.72zm12.82.93c0 1.25-.23 1.92-1 2.32a9.44 9.44 0 01-3.87.42 7.13 7.13 0 00-.68-2.29h2.8c.37 0 .48-.15.48-.5v-10.7h-7.17V192h9.47zm-7.25-15.8h5v-1.6h-5zm5 1.55h-5v1.8h5zM607 194.08c-.15.77-.37 2-.59 3.14 1-.1 1.92-.15 2.49-.15 2.43 0 4.25 1 4.25 4.48 0 2.95-.37 7-1.42 9.07-.8 1.73-2.1 2.18-3.85 2.18a14 14 0 01-3-.35l-.4-2.6a13 13 0 003 .5 2 2 0 002-1.2c.75-1.55 1.13-4.73 1.13-7.33 0-2.15-1-2.52-2.55-2.52-.53 0-1.35 0-2.3.15-.92 3.67-2.7 9.45-5.17 13.45l-2.58-1c2.5-3.37 4.3-8.77 5.2-12.17-1.15.12-2.17.25-2.75.32s-1.77.23-2.47.35l-.25-2.7c.85.05 1.57 0 2.42 0s2.15-.12 3.58-.25a27.44 27.44 0 00.57-5.37l2.92.3c-.12.53-.25 1.18-.35 1.73m13.53 9.89l-2.47 1.15a29.9 29.9 0 00-4.33-9.25l2.33-1a43.4 43.4 0 014.47 9.1M642.21 194.5c0 1.07 0 2.15-.05 3.15.85-.08 1.67-.13 2.37-.18s1.5-.1 2.15-.15v2.45h-2.18c-.65 0-1.47 0-2.39.1a37.23 37.23 0 01-.38 5.15c-.25 1.2-.82 1.52-2 1.52a30.56 30.56 0 01-3.5-.37v-2.18a14 14 0 002.4.33c.57 0 .82-.1.87-.65a34.23 34.23 0 00.25-3.63c-2.42.2-5.15.45-7.47.7v5.95c.07 2.58.17 3.38 4.25 3.38a45.85 45.85 0 007.44-.63l-.07 2.68a70.41 70.41 0 01-7.22.42c-6.08 0-6.73-1.35-6.83-5.47v-6c-.93.1-1.7.17-2.25.25-.78.1-2.08.27-2.73.37l-.27-2.55c.75 0 1.77-.05 2.82-.15l2.43-.22v-3.07a14.26 14.26 0 00-.18-2.4h2.78a18.44 18.44 0 00-.13 2.27v3l7.52-.7v-3.25a17.88 17.88 0 00-.17-2h2.67a15.93 15.93 0 00-.12 2M664.25 195.25c-1.67 1.4-5.12 4.12-6.89 5.62-1.43 1.23-1.43 1.55 0 2.83 2.12 1.75 6.67 5.37 9.27 8l-2.28 2.07c-.6-.67-1.25-1.37-1.9-2-1.67-1.7-5.39-4.9-7.72-6.85s-2.17-3.22.2-5.2c1.93-1.6 5.55-4.5 7.25-6.17a14.9 14.9 0 001.62-1.87l2.33 2.07c-.63.47-1.43 1.15-1.93 1.55M682.87 194.62c-.1.43-.2.93-.3 1.48a43.69 43.69 0 004.53-.85v2.45a45.82 45.82 0 01-5.05.85c-.23 1.07-.5 2.22-.78 3.27a77.37 77.37 0 01-3.95 11.5l-2.75-.92a54.47 54.47 0 004.25-11.2c.2-.78.43-1.6.6-2.43h-2c-1.17 0-2.07 0-3-.1l-.05-2.45a23.18 23.18 0 003.05.2c.77 0 1.62 0 2.47-.1.15-.75.28-1.37.33-1.85a10.79 10.79 0 00.1-2.27l3 .23c-.15.62-.38 1.64-.48 2.14m3 13.8c0 1.13.68 2.15 3.88 2.15a28.33 28.33 0 005-.5l-.07 2.53a39.89 39.89 0 01-4.95.35c-4.07 0-6.27-1.33-6.27-3.8a16.56 16.56 0 01.4-3.13l2.35.23a9.17 9.17 0 00-.33 2.17m4.13-8.57a42.21 42.21 0 014.37.2l-.07 2.4a31 31 0 00-4.25-.3 41 41 0 00-4.73.25v-2.33c1.35-.12 3.08-.22 4.68-.22m3.7-3.2l-1.65.72a29.37 29.37 0 00-2-3.47l1.62-.67a37 37 0 012 3.42m2.89-1.08l-1.62.73a30.44 30.44 0 00-2.05-3.47l1.6-.68a34.65 34.65 0 012.07 3.42M711.24 192.1l2.7-.32a27.32 27.32 0 001.06 4.12 30.67 30.67 0 005.39-1.2l.31 2.5a43.43 43.43 0 01-4.88 1 27.8 27.8 0 002.58 4.65 11.06 11.06 0 001.2 1.48l-1.25 1.8a60.11 60.11 0 00-6.3-.75l.17-2.08c1.33.1 3.1.25 4 .35a34.63 34.63 0 01-2.72-5.2 66.26 66.26 0 01-10.6-.07v-2.53a51.56 51.56 0 009.77.33c-.25-.78-.47-1.43-.65-1.93s-.42-1.37-.7-2.12M706 207.47c0 2.25 2 3.23 5.63 3.25a31.31 31.31 0 006.55-.6l-.13 2.5a33.29 33.29 0 01-6.57.55c-4.9 0-8-1.85-8-5.32a9.79 9.79 0 011.25-4.38l2.47.55a6.37 6.37 0 00-1.2 3.45M730.32 197a56.13 56.13 0 00.18 5.63c.37 3.92 1.4 6.57 3.07 6.57 1.25 0 2.35-2.72 2.92-5l2 2.33c-1.57 4.27-3.12 5.75-5 5.75-2.52 0-4.85-2.4-5.52-9-.25-2.2-.28-5.2-.28-6.7a12.86 12.86 0 00-.2-2.35h3.05a21.52 21.52 0 00-.25 2.7m17.52 10.6l-2.57 1c-.43-4.3-1.85-9.85-4.38-12.85l2.48-.82c2.3 2.9 4.15 8.62 4.47 12.67M757.29 210.22a1.88 1.88 0 111.88 1.9 1.84 1.84 0 01-1.88-1.9m.28-13.67l-.08-3.3h3.35l-.07 3.3-.58 9.2h-2.05z"/></g></g></svg>