<svg xmlns="http://www.w3.org/2000/svg" width="201" height="99" viewBox="0 0 201 99"><g transform="translate(-866.001 -5937)"><path d="M-1873.857,5459H-1956a8,8,0,0,1-8-8v-64a8,8,0,0,1,8-8h185a8,8,0,0,1,8,8v64a8,8,0,0,1-8,8h-81.144L-1863,5478Z" transform="translate(2830 558)" fill="#ef561d"/><path d="M-1863,5471.953l9.115-15.953H-1771a5.006,5.006,0,0,0,5-5v-64a5.006,5.006,0,0,0-5-5h-185a5.006,5.006,0,0,0-5,5v64a5.006,5.006,0,0,0,5,5h83.883l9.116,15.953m0,6.047-10.858-19H-1956a8,8,0,0,1-8-8v-64a8,8,0,0,1,8-8h185a8,8,0,0,1,8,8v64a8,8,0,0,1-8,8h-81.144Z" transform="translate(2830 558)" fill="#f9f9f9"/><path d="M-25.284-22.652q-.056.42-.1.938t-.07,1.05q-.028.56-.056,1.5t-.028,2.058v4.2q0,1.176.056,2.618t.154,2.912q.1,1.47.168,2.744t.07,2.114A3.9,3.9,0,0,1-25.7-.378a4.163,4.163,0,0,1-1.834,1.526,7.347,7.347,0,0,1-3.066.56A8.775,8.775,0,0,1-35.7.476a3.983,3.983,0,0,1-1.736-3.444,4,4,0,0,1,.826-2.506,5.427,5.427,0,0,1,2.38-1.694,10.059,10.059,0,0,1,3.71-.616,18.04,18.04,0,0,1,4.3.49A19.092,19.092,0,0,1-22.568-6.02a22.6,22.6,0,0,1,2.94,1.652Q-18.34-3.5-17.444-2.8L-19.46.336A24.747,24.747,0,0,0-21.714-1.54,19.587,19.587,0,0,0-24.43-3.22a16.671,16.671,0,0,0-3.108-1.218A12.681,12.681,0,0,0-31-4.9a4.223,4.223,0,0,0-2.254.5,1.452,1.452,0,0,0-.8,1.232,1.375,1.375,0,0,0,.336.924,2.031,2.031,0,0,0,.98.588,5.676,5.676,0,0,0,1.624.2,4.455,4.455,0,0,0,1.3-.168,1.559,1.559,0,0,0,.854-.616,2.205,2.205,0,0,0,.308-1.26q0-.616-.042-1.764t-.1-2.534q-.056-1.386-.112-2.73t-.056-2.38q0-1.008.014-2.114t.014-2.2q0-1.092.014-2t.014-1.5q0-.392-.042-.966a7.229,7.229,0,0,0-.126-.966ZM-36.9-20.02q.756.112,1.68.224t1.89.21q.966.1,1.834.14t1.512.042q2.856,0,5.7-.182t5.894-.686l-.028,3.22q-1.428.2-3.3.364t-3.99.266q-2.114.1-4.242.1-.868,0-2.142-.07t-2.534-.2q-1.26-.126-2.184-.238Zm-.14,6.048q.672.112,1.6.224t1.89.168q.966.056,1.834.1t1.428.042q2.6,0,4.718-.112t3.962-.28q1.848-.168,3.556-.392l-.028,3.3q-1.456.168-2.814.28t-2.772.2q-1.414.084-3.038.112t-3.64.028q-.812,0-2.016-.042t-2.45-.126q-1.246-.084-2.2-.2Zm40.516-8.2q-.028.224-.084.714t-.07.98q-.014.49-.042.714-.028.56-.042,1.512t-.014,2.1q0,1.148.014,2.31t.028,2.184q.014,1.022.014,1.694L-.2-11.172V-14.49q0-1.05-.014-2.086t-.042-1.876q-.028-.84-.056-1.288-.056-.84-.14-1.512t-.112-.924Zm-15.82,3.5q1.26-.028,2.814-.042t3.262-.056q1.708-.042,3.374-.07T.21-18.886Q1.652-18.9,2.716-18.9t2.324-.014q1.26-.014,2.492-.014h3.836L11.34-15.6q-1.316-.056-3.486-.112T2.6-15.764q-1.9,0-3.864.042t-3.892.112q-1.932.07-3.724.14t-3.388.182ZM2.8-10.416a11.343,11.343,0,0,1-.546,3.808A4.6,4.6,0,0,1,.616-4.326a4.6,4.6,0,0,1-2.716.77,4.706,4.706,0,0,1-1.666-.322,4.8,4.8,0,0,1-1.568-.98A5.13,5.13,0,0,1-6.5-6.468,5.143,5.143,0,0,1-6.944-8.68a4.945,4.945,0,0,1,.77-2.772,5.286,5.286,0,0,1,2.058-1.834,6.065,6.065,0,0,1,2.8-.658,5.412,5.412,0,0,1,3.094.84,5.332,5.332,0,0,1,1.89,2.24,7.418,7.418,0,0,1,.644,3.136,9.871,9.871,0,0,1-.448,2.856,9.618,9.618,0,0,1-1.5,2.912A10.872,10.872,0,0,1-.406.616,15.161,15.161,0,0,1-4.7,2.492l-2.968-3A21.118,21.118,0,0,0-4.34-1.456a10.561,10.561,0,0,0,2.7-1.484A6.336,6.336,0,0,0,.182-5.152,6.941,6.941,0,0,0,.84-8.288,2.8,2.8,0,0,0,.2-10.318a2.177,2.177,0,0,0-1.624-.658,2.312,2.312,0,0,0-1.022.238,1.9,1.9,0,0,0-.8.742,2.321,2.321,0,0,0-.308,1.232A1.957,1.957,0,0,0-2.9-7.21a2.215,2.215,0,0,0,1.5.574A1.854,1.854,0,0,0-.2-7.07,2.186,2.186,0,0,0,.49-8.484,6.636,6.636,0,0,0,.2-11.116Zm4.284-12.6q.532.756,1.064,1.666t.9,1.638l-2.352.98q-.42-.84-.9-1.694T4.788-22.064Zm3.752-.784q.532.756,1.064,1.638t.924,1.638l-2.352.98q-.42-.84-.91-1.694a16.481,16.481,0,0,0-1.05-1.61Zm14.112,6.608q1.2.112,2.422.182t2.478.07q2.576,0,5.124-.224a36.831,36.831,0,0,0,4.7-.7v3.5q-2.184.308-4.732.49t-5.1.182q-1.232,0-2.45-.042t-2.45-.126Zm10.64-4.732q-.056.392-.1.868t-.07.952q-.028.448-.056,1.2t-.028,1.694v1.974q0,1.9.056,3.57t.14,3.08l.154,2.59q.07,1.176.07,2.184a6.618,6.618,0,0,1-.294,2.016,4.288,4.288,0,0,1-.938,1.624A4.171,4.171,0,0,1,32.83.91a7.607,7.607,0,0,1-2.562.378A7.889,7.889,0,0,1,25.676.112,3.882,3.882,0,0,1,24-3.276a4.254,4.254,0,0,1,.756-2.506,4.932,4.932,0,0,1,2.156-1.68,8.32,8.32,0,0,1,3.3-.6,14.428,14.428,0,0,1,3.612.42,13.981,13.981,0,0,1,2.968,1.12A15.267,15.267,0,0,1,39.186-5q1.05.826,1.89,1.582L39.144-.476a30.655,30.655,0,0,0-3.108-2.6,13.748,13.748,0,0,0-3.01-1.68,8.4,8.4,0,0,0-3.094-.588,3.67,3.67,0,0,0-1.918.448,1.4,1.4,0,0,0-.742,1.26,1.3,1.3,0,0,0,.756,1.232,3.978,3.978,0,0,0,1.848.392,2.723,2.723,0,0,0,1.372-.294,1.61,1.61,0,0,0,.714-.868,4.048,4.048,0,0,0,.21-1.386q0-.728-.056-1.9T31.99-9.1q-.07-1.456-.126-3.038t-.056-3.094q0-1.6-.014-2.9t-.014-1.946q0-.308-.056-.868t-.14-.98Zm-13.664.308q-.084.28-.238.784t-.252.98q-.1.476-.154.728-.14.588-.308,1.582t-.35,2.24q-.182,1.246-.35,2.548T20.02-10.29q-.084,1.162-.084,2,0,.42.014.91a5.436,5.436,0,0,0,.1.91q.2-.5.406-.98t.434-.952q.224-.476.42-.952l1.708,1.4q-.392,1.148-.8,2.408t-.728,2.38q-.322,1.12-.49,1.876-.056.28-.1.672a6.276,6.276,0,0,0-.042.644q0,.224.014.546t.042.6l-3.164.252a26.865,26.865,0,0,1-.784-3.794,36.1,36.1,0,0,1-.336-5.166q0-1.568.14-3.29t.322-3.318q.182-1.6.378-2.926t.308-2.142q.084-.588.168-1.33t.112-1.414Z" transform="translate(967 5989)" fill="#fff"/></g></svg>