<svg xmlns="http://www.w3.org/2000/svg" xmlns:xlink="http://www.w3.org/1999/xlink" width="1920" height="278.612" viewBox="0 0 1920 278.612"><defs><linearGradient id="a" y1="1" x2="1" gradientUnits="objectBoundingBox"><stop offset="0" stop-color="#ef561d"/><stop offset="1" stop-color="#ff9300"/></linearGradient></defs><g transform="translate(0 -167.388)"><rect width="1920" height="5" transform="translate(0 441)" fill="url(#a)"/><path d="M12.925-46.75l6.49,1.925a45.1,45.1,0,0,1-3.52,5.94,47.089,47.089,0,0,1-4.373,5.39A47.826,47.826,0,0,1,6.875-29.15a12.16,12.16,0,0,0-1.54-1.485q-.99-.825-2.035-1.6T1.485-33.5a32.488,32.488,0,0,0,6.6-5.83A30,30,0,0,0,12.925-46.75Zm-.44,5.83h37.9v5.775H10.89ZM2.695-28.1h49.72v5.885H2.695Zm.88,12.87H51.59V-9.35H3.575ZM19.91-38.885h5.5v26.73h-5.5Zm-9.79,0h5.885V-12.1H10.12Zm19.36,0h5.5V-12.1h-5.5Zm9.68,0h6.05V-12.1H39.16ZM18.26-6.27l6.1-.66q.55,2.475.962,5.39A44.9,44.9,0,0,1,25.8,3.41l-6.49.935q0-1.32-.137-3.135T18.81-2.585Q18.59-4.565,18.26-6.27Zm10.945.165,6.16-1.045q.715,1.595,1.375,3.465T37.9-.055a27.173,27.173,0,0,1,.715,3.19L32.01,4.4A41.213,41.213,0,0,0,30.938-.605Q30.14-3.575,29.205-6.105Zm10.89-.33,6.325-1.98Q47.74-6.71,49.06-4.73T51.59-.8a26.914,26.914,0,0,1,1.87,3.492L46.695,4.95a35.9,35.9,0,0,0-1.678-3.465Q43.945-.5,42.653-2.558T40.095-6.435ZM8.36-8.2l6.38,1.6A34.86,34.86,0,0,1,12.155-.33,24.845,24.845,0,0,1,8.47,5.005L2.145,2.42A20.8,20.8,0,0,0,5.72-2.255,28.318,28.318,0,0,0,8.36-8.2Zm57.09-38.28H71.5V4.785H65.45Zm-8.36,18.1H79.64v6.16H57.09Zm7.15,3.245,3.685,1.815q-.715,2.75-1.65,5.8t-2.09,6.077q-1.155,3.025-2.42,5.693A29.589,29.589,0,0,1,59.07-1.1a17.149,17.149,0,0,0-.8-2.283q-.522-1.237-1.1-2.447T56.1-7.92a30.29,30.29,0,0,0,3.218-5.032q1.568-3,2.888-6.215A47.062,47.062,0,0,0,64.24-25.135Zm7.205,3.19q.44.44,1.293,1.375t1.9,2.118q1.045,1.182,2.007,2.365T78.4-13.97a16.992,16.992,0,0,1,1.128,1.43L75.515-7.37q-.55-1.21-1.43-2.832T72.16-13.557q-1.045-1.732-2.035-3.273T68.42-19.36Zm-14.41-20.3,4.62-1.21a44.234,44.234,0,0,1,1.293,4.29q.577,2.31.962,4.51t.55,3.96l-4.95,1.32a31.7,31.7,0,0,0-.413-3.988q-.357-2.227-.88-4.565A44.105,44.105,0,0,0,57.035-42.24ZM75.13-43.725l5.555,1.21q-.66,2.255-1.43,4.62t-1.54,4.537q-.77,2.173-1.43,3.823l-4.18-1.21q.605-1.76,1.183-4.042t1.073-4.648Q74.855-41.8,75.13-43.725ZM95.975-46.75h6.16V4.895h-6.16ZM79.53-12.32l28.27-5.06.99,6.105L80.52-6.16Zm3.08-26.95,3.245-4.455q1.54.88,3.217,2.035t3.19,2.365a17.135,17.135,0,0,1,2.393,2.255l-3.41,4.95a15.791,15.791,0,0,0-2.282-2.365q-1.457-1.265-3.108-2.53T82.61-39.27ZM80.135-25.41l3.08-4.73a37.133,37.133,0,0,1,3.41,1.952q1.76,1.127,3.355,2.255a17.422,17.422,0,0,1,2.585,2.173L89.21-18.48a17.578,17.578,0,0,0-2.42-2.283Q85.25-22,83.518-23.238A38.484,38.484,0,0,0,80.135-25.41Zm59.125-18.7q-.11.935-.192,2.42l-.138,2.475a96.474,96.474,0,0,1-1.375,14.548,50.559,50.559,0,0,1-3.3,11.247,35.3,35.3,0,0,1-5.445,8.773,42.853,42.853,0,0,1-7.865,7.123l-6.38-5.17q1.7-.99,3.658-2.337a21.784,21.784,0,0,0,3.548-3.053,28.175,28.175,0,0,0,4.565-5.8,31.034,31.034,0,0,0,3-6.93,50.011,50.011,0,0,0,1.677-8.277,82.64,82.64,0,0,0,.55-9.955q0-.605-.055-1.568t-.138-1.9q-.082-.935-.192-1.6Zm18.7,11.77q-.11.66-.247,1.54a9.506,9.506,0,0,0-.137,1.375q-.055,1.76-.192,4.51T157-19q-.247,3.163-.6,6.3t-.852,5.8a21.814,21.814,0,0,1-1.21,4.372A6.714,6.714,0,0,1,151.773.632,8.351,8.351,0,0,1,147.235,1.7q-2.365,0-4.73-.137t-4.4-.3l-.825-7.37q2.035.385,4.07.577t3.63.193a3.549,3.549,0,0,0,2.035-.467,3.441,3.441,0,0,0,1.1-1.457,18.336,18.336,0,0,0,.825-2.915q.385-1.815.66-4.07t.467-4.675q.192-2.42.275-4.7t.083-4.042h-26.84q-1.375,0-3.41.028t-3.85.192v-7.2q1.76.165,3.74.275t3.52.11H149.05a20.746,20.746,0,0,0,2.117-.11q1.073-.11,2.008-.275Zm38.5-12.595q-.165,1.76-.275,2.832a21.835,21.835,0,0,0-.11,2.228v7.92H188.43v-7.92q0-1.155-.082-2.228t-.357-2.832Zm18.535,11.6a17.256,17.256,0,0,0-.632,2.228q-.3,1.347-.467,2.173-.33,1.925-.8,3.9t-1.1,3.96q-.633,1.98-1.43,3.9t-1.788,3.8A30.987,30.987,0,0,1,203.2-6.05a33.349,33.349,0,0,1-7.673,5.583,43.71,43.71,0,0,1-9.185,3.6l-5.72-6.6q1.87-.33,3.96-.907t3.795-1.237a30.155,30.155,0,0,0,4.592-2.228A27.426,27.426,0,0,0,197.285-11a23.171,23.171,0,0,0,3.575-4.015,25.664,25.664,0,0,0,2.365-4.372,31.17,31.17,0,0,0,1.6-4.84,49.292,49.292,0,0,0,.935-4.922h-27.28v8.03q0,.935.055,2.09t.11,1.98h-7.59q.11-1.045.192-2.283t.083-2.337v-9.515q0-.935-.055-2.338a19.475,19.475,0,0,0-.22-2.393q1.43.165,2.75.22t2.86.055h28.985a16.266,16.266,0,0,0,2.777-.193,15.576,15.576,0,0,0,1.788-.412Zm18.26-8.47q1.43.99,3.355,2.42t3.988,3.108Q242.66-34.6,244.475-33a38.369,38.369,0,0,1,2.97,2.86l-5.61,5.72q-1.045-1.155-2.75-2.75t-3.685-3.3q-1.98-1.7-3.9-3.245t-3.41-2.585ZM226.38-5.17a58.248,58.248,0,0,0,8.085-1.705,56.371,56.371,0,0,0,7.04-2.53,64.013,64.013,0,0,0,5.94-2.97,53.188,53.188,0,0,0,8.58-6.38,54.689,54.689,0,0,0,6.82-7.453,42.155,42.155,0,0,0,4.62-7.563l4.29,7.755a51.209,51.209,0,0,1-5.143,7.37,59.186,59.186,0,0,1-6.9,7.012,57.49,57.49,0,0,1-8.3,5.968,62.363,62.363,0,0,1-6.05,3.217A61.859,61.859,0,0,1,238.508.247,51.622,51.622,0,0,1,231,2.09Zm64.13-2.145v-29.81q0-.88-.027-2.035t-.138-2.31a19.9,19.9,0,0,0-.275-1.98h8.2q-.165,1.265-.33,3.108t-.165,3.217V-9.24a6.319,6.319,0,0,0,.5,2.695,2.971,2.971,0,0,0,2.007,1.485,17.414,17.414,0,0,0,4.538.44q2.915,0,5.858-.247t5.857-.66q2.915-.413,5.61-.963l-.22,7.48q-2.255.33-5.115.6t-5.912.44q-3.053.165-6.023.165a39.511,39.511,0,0,1-7.535-.577A10.222,10.222,0,0,1,293.013-.11a5.711,5.711,0,0,1-1.98-2.97A15.376,15.376,0,0,1,290.51-7.315Zm34.65-24.2q-.385.605-.908,1.458t-.908,1.568q-.88,1.705-2.228,3.85t-2.887,4.4q-1.54,2.255-3.163,4.29a35.83,35.83,0,0,1-3.108,3.465l-6.05-3.575a33.766,33.766,0,0,0,3.547-3.658q1.732-2.062,3.108-4.07t2.145-3.382q-.77.11-2.667.523t-4.648.962q-2.75.55-5.995,1.183t-6.545,1.292q-3.3.66-6.38,1.292t-5.555,1.155q-2.475.523-3.96.853l-1.32-7.2q1.595-.22,4.18-.632t5.775-.99q3.19-.578,6.655-1.238t6.875-1.32l6.38-1.237q2.97-.578,5.17-1.045t3.3-.743q1.155-.275,2.145-.578a11.373,11.373,0,0,0,1.76-.687ZM374.165-42.68q-.055,1.155-.138,2.5t-.082,3v10.89a62.907,62.907,0,0,1-.413,7.7,30.227,30.227,0,0,1-1.238,5.775,20.494,20.494,0,0,1-2.007,4.372,25.455,25.455,0,0,1-2.723,3.6,22.5,22.5,0,0,1-4.18,3.548,33.219,33.219,0,0,1-4.758,2.64A44.438,44.438,0,0,1,354.2,3.08l-5.775-6.05a32.417,32.417,0,0,0,7.453-2.612,20.575,20.575,0,0,0,5.8-4.318,17.438,17.438,0,0,0,2.31-3.19,14.1,14.1,0,0,0,1.348-3.548,28.666,28.666,0,0,0,.66-4.427q.192-2.475.193-5.665V-37.18q0-1.65-.083-3t-.247-2.5Zm-25.52.44q-.055.99-.11,1.952T348.48-38v18.59q0,1.045.055,2.42t.11,2.365H340.67q.055-.77.165-2.2t.11-2.64V-38q0-.77-.055-2.008t-.165-2.228Zm49.61.44q1.43.99,3.355,2.42t3.988,3.108Q407.66-34.6,409.475-33a38.366,38.366,0,0,1,2.97,2.86l-5.61,5.72q-1.045-1.155-2.75-2.75t-3.685-3.3q-1.98-1.7-3.9-3.245t-3.41-2.585ZM391.38-5.17a58.248,58.248,0,0,0,8.085-1.705,56.37,56.37,0,0,0,7.04-2.53,64.011,64.011,0,0,0,5.94-2.97,53.188,53.188,0,0,0,8.58-6.38,54.689,54.689,0,0,0,6.82-7.453,42.155,42.155,0,0,0,4.62-7.563l4.29,7.755a51.209,51.209,0,0,1-5.143,7.37,59.186,59.186,0,0,1-6.9,7.012,57.492,57.492,0,0,1-8.3,5.968,62.364,62.364,0,0,1-6.05,3.217A61.863,61.863,0,0,1,403.508.247,51.622,51.622,0,0,1,396,2.09Zm91.465-39.875q.715.99,1.513,2.365t1.567,2.75q.77,1.375,1.265,2.42l-4.4,1.87q-.825-1.705-2.008-3.878a42.3,42.3,0,0,0-2.283-3.767Zm6.49-2.475q.715.99,1.568,2.392t1.65,2.75a23.346,23.346,0,0,1,1.238,2.337l-4.345,1.87q-.88-1.76-2.09-3.9a34.085,34.085,0,0,0-2.365-3.685ZM487.8-32.945a15.23,15.23,0,0,0-.99,1.842,17.976,17.976,0,0,0-.825,2.118,52.294,52.294,0,0,1-2.035,5.528,63,63,0,0,1-3.19,6.408,47.7,47.7,0,0,1-4.4,6.435,50.544,50.544,0,0,1-9.158,8.58,58.515,58.515,0,0,1-13.008,6.93L447.7-.935a56.954,56.954,0,0,0,9.68-3.822,41.189,41.189,0,0,0,7.1-4.593,42.964,42.964,0,0,0,5.39-5.225,34.132,34.132,0,0,0,3.493-4.84,41.558,41.558,0,0,0,2.75-5.39,27.756,27.756,0,0,0,1.568-4.73H459.14l2.53-6.215h15.675a17.71,17.71,0,0,0,2.612-.193,14.658,14.658,0,0,0,2.173-.467Zm-17.93-8.69q-.99,1.43-1.925,3.08t-1.43,2.53a57.692,57.692,0,0,1-4.62,6.847A65.058,65.058,0,0,1,455.7-22.3a59.01,59.01,0,0,1-7.4,6.078l-6.16-4.62a47.622,47.622,0,0,0,6.38-4.565,46.72,46.72,0,0,0,4.785-4.7,49.243,49.243,0,0,0,3.52-4.51q1.485-2.173,2.475-3.933a18.211,18.211,0,0,0,1.4-2.667,18.074,18.074,0,0,0,1.073-3.053Zm49.17-5h6.82V-37.9h-6.82ZM498.9-41.91H546.04v11.825h-6.82v-6.05H505.45v6.05H498.9Zm4.95,10.175H541.64V-26.4H503.855Zm-5.39,17.38H546.81v5.72H498.465Zm6.27-8.745h35.75v5.28h-35.75Zm21.01,9.9a18.423,18.423,0,0,0,7.865,8.525q5.39,3.08,13.97,3.96a20.388,20.388,0,0,0-2.117,2.75,29.71,29.71,0,0,0-1.788,3.025A40.937,40.937,0,0,1,532.84,1.953,24.183,24.183,0,0,1,525.112-3.6a28.977,28.977,0,0,1-5.253-8.332ZM518.87-34.87h6.655v15.29a28.832,28.832,0,0,1-.578,5.72,18.637,18.637,0,0,1-2.09,5.528,20.229,20.229,0,0,1-4.235,5.088,30.985,30.985,0,0,1-6.9,4.483A57.921,57.921,0,0,1,501.545,4.95a13.254,13.254,0,0,0-1.073-1.733q-.688-.962-1.485-1.952a12.474,12.474,0,0,0-1.567-1.65,58.393,58.393,0,0,0,9.6-2.97,25.493,25.493,0,0,0,6.215-3.575,14.92,14.92,0,0,0,3.548-4.042,14.39,14.39,0,0,0,1.65-4.29,22.248,22.248,0,0,0,.44-4.428ZM559.79-39.1v7.15h6.71V-39.1Zm-5.555-5.5H572.44v18.2H554.235Zm7.1,15.95H567.1v25.3H561.33Zm-7.37,6.16h5.225V-1.54H553.96ZM551.485-3.41q2.75-.55,6.353-1.293t7.59-1.65q3.987-.908,7.948-1.843l.6,5.72Q568.48-1.045,562.87.3T552.75,2.75Zm12.485-16.5h9.185v5.665H563.97Zm9.735-17.16L600.82-39.6l.55,5.5L574.31-31.4ZM575.3-28.6l24.31-2.365.605,5.335-24.31,2.53Zm-1.43,8.855,28.875-2.86.66,5.5-28.93,3.025Zm7.37-26.9H587.9q-.165,6.985.22,13.585t1.182,12.32a81.558,81.558,0,0,0,1.98,10.065,25.811,25.811,0,0,0,2.695,6.765q1.513,2.42,3.273,2.42.88,0,1.32-1.375a23.728,23.728,0,0,0,.66-5.005,11.912,11.912,0,0,0,2.365,2.09,15.329,15.329,0,0,0,2.53,1.43,21.6,21.6,0,0,1-1.4,5.72,5.616,5.616,0,0,1-2.338,2.8,7.877,7.877,0,0,1-3.74.77,7.993,7.993,0,0,1-5.362-2.008,16.408,16.408,0,0,1-4.015-5.583,43.581,43.581,0,0,1-2.833-8.47,100.463,100.463,0,0,1-1.87-10.642q-.715-5.748-1.018-12.073T581.24-46.64Zm8.2,3.685,3.575-3.96q1.32.6,2.75,1.4t2.75,1.65a19.355,19.355,0,0,1,2.145,1.568l-3.74,4.4A12.736,12.736,0,0,0,594.88-39.6q-1.265-.88-2.723-1.76T589.435-42.955Zm6.16,27.335,5.555,2.53a37.752,37.752,0,0,1-6.985,7.453,51.117,51.117,0,0,1-8.91,5.83A66.455,66.455,0,0,1,575.135,4.4a19.157,19.157,0,0,0-1.705-2.805,18.4,18.4,0,0,0-2.255-2.64,69.45,69.45,0,0,0,9.6-3.438,46.306,46.306,0,0,0,8.47-4.84A28,28,0,0,0,595.595-15.62ZM609.84-37.18h45.43V-9.57h-6.93V-30.69h-31.9V-9.3h-6.6Zm3.41,18.37h38.94v6.49H613.25Zm15.62-27.94h6.985V4.895H628.87Z" transform="translate(630 345)" fill="#ef561d"/><path d="M10.428-17.556q-.132.44-.264,1.078t-.2.99q-.154.748-.385,1.826t-.506,2.288q-.275,1.21-.561,2.31Q8.228-7.9,7.81-6.545T6.919-3.8q-.473,1.4-.957,2.662T5.016,1.122L1.958.088q.484-.836,1.034-2.035T4.059-4.532q.517-1.386.957-2.75t.748-2.53q.22-.77.418-1.584t.352-1.584q.154-.77.275-1.441T7-15.6q.066-.616.088-1.232a6.778,6.778,0,0,0-.022-.99Zm-5.61,3.278q1.342,0,2.794-.132t2.926-.374q1.474-.242,2.926-.572v2.75q-1.364.308-2.9.528t-3.036.341q-1.5.121-2.75.121-.792,0-1.43-.033T2.112-11.7l-.066-2.75q.858.088,1.474.132T4.818-14.278Zm6.908,3.366q.924-.088,2.046-.154t2.178-.066q.946,0,1.925.044t1.947.154l-.066,2.64q-.814-.11-1.793-.187t-1.991-.077q-1.122,0-2.167.055t-2.079.187Zm1.188,5.544a9.6,9.6,0,0,0-.22.957,5.043,5.043,0,0,0-.088.869,1.456,1.456,0,0,0,.154.66,1.459,1.459,0,0,0,.484.539,2.6,2.6,0,0,0,.913.363,6.778,6.778,0,0,0,1.463.132,21.221,21.221,0,0,0,2.255-.121Q19.008-2.09,20.2-2.31L20.086.506q-.924.11-2.046.209T15.6.814A8.056,8.056,0,0,1,11.363-.1,2.884,2.884,0,0,1,9.9-2.684,8.973,8.973,0,0,1,10.032-4.2q.132-.77.264-1.43ZM31.768-17.314q-.132.462-.275,1.089t-.209,1q-.154.748-.385,1.826t-.5,2.277q-.264,1.2-.55,2.321-.308,1.144-.715,2.508t-.88,2.75Q27.786-2.156,27.3-.88t-.946,2.266L23.276.352a18.663,18.663,0,0,0,1.045-2.046q.539-1.21,1.067-2.585t.968-2.75Q26.8-8.4,27.1-9.548q.2-.792.4-1.606t.363-1.584q.165-.77.286-1.441t.187-1.155q.066-.616.088-1.232a7.164,7.164,0,0,0-.022-1.012Zm-5.61,3.3q1.342,0,2.794-.132t2.926-.385q1.474-.253,2.926-.583v2.75q-1.364.33-2.9.55t-3.036.341q-1.5.121-2.75.121-.792,0-1.43-.033t-1.232-.055l-.066-2.75q.858.088,1.474.132T26.158-14.014Zm6.908,3.366q.924-.11,2.046-.165t2.178-.055q.946,0,1.925.044t1.947.154L41.1-8.03q-.814-.11-1.793-.2t-1.991-.088q-1.144,0-2.178.055t-2.068.187Zm1.188,5.522a9.362,9.362,0,0,0-.22.968,5.142,5.142,0,0,0-.088.858,1.5,1.5,0,0,0,.154.682,1.459,1.459,0,0,0,.484.539,2.472,2.472,0,0,0,.913.352,7.376,7.376,0,0,0,1.463.121q1.1,0,2.244-.11t2.332-.33L41.426.748Q40.5.88,39.38.979t-2.442.1A7.978,7.978,0,0,1,32.7.154,2.891,2.891,0,0,1,31.24-2.42a9.906,9.906,0,0,1,.121-1.54q.121-.77.253-1.408Zm4.554-11.55q.286.4.605.946t.627,1.1q.308.55.506.968l-1.76.77q-.22-.462-.506-1.012T37.686-15a7.568,7.568,0,0,0-.616-.946Zm2.6-.99a9,9,0,0,1,.638.957q.33.561.649,1.1a9.339,9.339,0,0,1,.495.935l-1.738.748q-.352-.7-.836-1.562a13.633,13.633,0,0,0-.946-1.474ZM57-15.07q-.22,1.672-.572,3.564a34.67,34.67,0,0,1-.946,3.828,19.664,19.664,0,0,1-1.5,3.828,8.391,8.391,0,0,1-1.881,2.475,3.378,3.378,0,0,1-2.233.869,3.482,3.482,0,0,1-2.233-.825,5.635,5.635,0,0,1-1.628-2.277,8.513,8.513,0,0,1-.6-3.3,8.617,8.617,0,0,1,.77-3.608,9.6,9.6,0,0,1,2.145-3,10.17,10.17,0,0,1,3.212-2.057,10.429,10.429,0,0,1,3.971-.748,9.79,9.79,0,0,1,3.685.66A8.294,8.294,0,0,1,62-13.838a7.926,7.926,0,0,1,1.782,2.728,9.092,9.092,0,0,1,.616,3.366,8.858,8.858,0,0,1-.946,4.136A7.82,7.82,0,0,1,60.643-.594a12.028,12.028,0,0,1-4.631,1.628l-1.65-2.618Q55-1.65,55.484-1.738t.924-.2A8.372,8.372,0,0,0,58.377-2.7a6.145,6.145,0,0,0,1.6-1.232,5.39,5.39,0,0,0,1.067-1.727,5.961,5.961,0,0,0,.385-2.178,6.844,6.844,0,0,0-.4-2.376,5.349,5.349,0,0,0-1.166-1.881,5.138,5.138,0,0,0-1.87-1.232,6.929,6.929,0,0,0-2.53-.429,7.254,7.254,0,0,0-3.1.627,7.262,7.262,0,0,0-2.266,1.617,7.1,7.1,0,0,0-1.4,2.134,5.7,5.7,0,0,0-.473,2.178,5.5,5.5,0,0,0,.264,1.837,2.78,2.78,0,0,0,.649,1.1,1.187,1.187,0,0,0,.825.363,1.285,1.285,0,0,0,.913-.473,5.277,5.277,0,0,0,.891-1.441,19.5,19.5,0,0,0,.88-2.442,30.048,30.048,0,0,0,.858-3.388,34.481,34.481,0,0,0,.506-3.52Zm10.274,10.6H77.55V-2.6H67.276Zm-.484-10.472h11v1.914h-11Zm4.356-1.54h2.4V-.7h-2.4ZM66.66-.968q1.386-.088,3.168-.22t3.773-.3q1.991-.165,3.971-.341l.022,2q-1.87.2-3.773.4T70.169.935q-1.749.165-3.2.319Zm2.794-7v.99h5.808v-.99Zm0-2.552v.99h5.808v-.99Zm-2.09-1.65H77.44v6.842H67.364Zm9.02-6.4,1.144,1.958q-1.386.286-3.113.5t-3.531.33q-1.8.121-3.454.165a7.115,7.115,0,0,0-.231-.957,6.084,6.084,0,0,0-.363-.935q1.232-.066,2.53-.165t2.563-.231q1.265-.132,2.4-.3T76.384-18.568Zm1.386,4.862H85.4v2.42H77.77Zm6.556,0h2.53v1.166q-.088,3.388-.176,5.753t-.187,3.894a16.984,16.984,0,0,1-.286,2.387A3.541,3.541,0,0,1,85.756.726a2.462,2.462,0,0,1-.781.781,3.2,3.2,0,0,1-.957.341,8.045,8.045,0,0,1-1.232.1q-.726.011-1.518-.011A5.492,5.492,0,0,0,81.037.66,5.514,5.514,0,0,0,80.52-.594q.7.066,1.3.088t.9.022a.98.98,0,0,0,.44-.088.986.986,0,0,0,.33-.286A2.969,2.969,0,0,0,83.8-1.881q.132-.759.231-2.178t.176-3.663q.077-2.244.121-5.434Zm-4.444-4.62h2.53q0,2.816-.055,5.346t-.286,4.763a24.387,24.387,0,0,1-.77,4.136A13.546,13.546,0,0,1,79.794-.616a10.511,10.511,0,0,1-2.486,2.75,5.325,5.325,0,0,0-.517-.7q-.319-.374-.66-.715A4.459,4.459,0,0,0,75.46.154,9.128,9.128,0,0,0,77.7-2.277a11.479,11.479,0,0,0,1.32-3.058,20.826,20.826,0,0,0,.638-3.7q.176-2.013.2-4.334T79.882-18.326Zm11.374,16.5H106.7V.682H91.256ZM89.1-17.38h19.822v2.464H89.1Zm.682,3.916h2.574V1.98H89.782Zm15.906,0h2.552v15.4h-2.552Zm-8.1-3.19h2.662v4.51H97.592Zm.2,4.51h2.266v8.206H97.79ZM95.9-7.128v1.87h6.072v-1.87Zm0-3.85V-9.13h6.072v-1.848Zm-2.156-2.156h10.494V-3.1H93.742Zm30.4-3.74h2.464V-4.422h-2.464Zm3.96-1.43h2.53v17.16a4.5,4.5,0,0,1-.242,1.65,1.826,1.826,0,0,1-.836.924,4.59,4.59,0,0,1-1.573.407,22.005,22.005,0,0,1-2.233.1,10.483,10.483,0,0,0-.319-1.32,13.242,13.242,0,0,0-.473-1.342q.858.022,1.617.033t1.045.011A.706.706,0,0,0,128-.792a.473.473,0,0,0,.11-.374Zm-12.276-.242h2.508v20.5H115.83Zm4.444,10.8h2.376v5.632A4.229,4.229,0,0,1,122.5-.858a1.452,1.452,0,0,1-.638.792,2.955,2.955,0,0,1-1.122.33,11.282,11.282,0,0,1-1.452.044,5.559,5.559,0,0,0-.242-1.122,8.306,8.306,0,0,0-.418-1.1q.462.022.847.022h.539a.233.233,0,0,0,.264-.264Zm-8.6,0H121.2V-5.39h-7.172V.2h-2.354Zm-.858-3.982h12.342v2.4H110.814Zm2.288-4.026h9.2v2.376h-9.68Zm-.616-2.53,2.442.506a29.11,29.11,0,0,1-.957,3.388,18.986,18.986,0,0,1-1.221,2.838,3.634,3.634,0,0,0-.671-.363q-.429-.187-.858-.352t-.759-.275a11.8,11.8,0,0,0,1.21-2.618A22.28,22.28,0,0,0,112.486-18.282Zm30.36,3.19h10.538v2.508H141.592Zm2.882,4.818h7.106v2.42h-7.106Zm-.022,4.884h7.414v2.464h-7.414Zm-1.32-8.866h2.728V1.958h-2.728Zm-1.034-4.224,2.53.66a36.235,36.235,0,0,1-1.441,3.542,29.734,29.734,0,0,1-1.793,3.289,22.329,22.329,0,0,1-1.98,2.7,5.061,5.061,0,0,0-.572-.616q-.374-.352-.759-.693a5.84,5.84,0,0,0-.693-.539,14.184,14.184,0,0,0,1.859-2.332,25.264,25.264,0,0,0,1.606-2.893A25.724,25.724,0,0,0,143.352-18.48Zm-5.83-.132,2.552.814a36.5,36.5,0,0,1-1.672,3.762,33.461,33.461,0,0,1-2.112,3.575,22.157,22.157,0,0,1-2.354,2.937q-.132-.33-.385-.858t-.539-1.078a6.913,6.913,0,0,0-.528-.88,18.005,18.005,0,0,0,1.947-2.332,25.661,25.661,0,0,0,1.738-2.838A22.2,22.2,0,0,0,137.522-18.612ZM135.3-12.518l2.662-2.662V1.936H135.3Zm38.478-1.166q-.176.308-.374.737t-.352.847a22.351,22.351,0,0,1-.8,2.211,23.217,23.217,0,0,1-1.276,2.574,19.55,19.55,0,0,1-1.749,2.563,20.859,20.859,0,0,1-3.685,3.432,23.406,23.406,0,0,1-5.2,2.772L157.74-.88A21.111,21.111,0,0,0,161.612-2.4a17.394,17.394,0,0,0,2.838-1.837,16.619,16.619,0,0,0,2.156-2.079,11.936,11.936,0,0,0,1.408-1.947,19.444,19.444,0,0,0,1.1-2.167,9.331,9.331,0,0,0,.616-1.892h-7.414l1.012-2.486h6.292a8.072,8.072,0,0,0,1.023-.066,4.355,4.355,0,0,0,.891-.2Zm-7.172-3.476q-.4.572-.77,1.232t-.572,1.012a23.835,23.835,0,0,1-1.837,2.739,24.5,24.5,0,0,1-2.475,2.75A25.192,25.192,0,0,1,158-7l-2.486-1.826a21.227,21.227,0,0,0,2.563-1.848,18.13,18.13,0,0,0,1.925-1.881,18.283,18.283,0,0,0,1.4-1.8q.583-.869,1-1.551a7.82,7.82,0,0,0,.55-1.089,10.1,10.1,0,0,0,.44-1.221Zm27.06.088q-.022.462-.055,1t-.033,1.2v4.356a25.162,25.162,0,0,1-.165,3.08,12.092,12.092,0,0,1-.495,2.31,8.2,8.2,0,0,1-.8,1.749,10.183,10.183,0,0,1-1.089,1.441,9,9,0,0,1-1.672,1.419,13.287,13.287,0,0,1-1.9,1.056,17.774,17.774,0,0,1-1.771.693l-2.31-2.42a12.967,12.967,0,0,0,2.981-1.045,8.23,8.23,0,0,0,2.321-1.727,6.975,6.975,0,0,0,.924-1.276,5.641,5.641,0,0,0,.539-1.419,11.465,11.465,0,0,0,.264-1.771q.077-.99.077-2.266v-4.18q0-.66-.033-1.2t-.1-1Zm-10.208.176q-.022.4-.044.781t-.022.913v7.436q0,.418.022.968t.044.946h-3.19q.022-.308.066-.88t.044-1.056V-15.2q0-.308-.022-.8t-.066-.891Zm17.6,1.54q.44.044,1.034.088t1.056.044h11.968q.506,0,1.056-.044t1.012-.088v3.014q-.484-.044-1.034-.066t-1.034-.022H203.148q-.44,0-1.056.022t-1.034.066Zm6.336,13.53V-13.662h3.08V-1.826Zm-7.766-1.8q.528.088,1.1.132t1.078.044h14.5a10.846,10.846,0,0,0,1.122-.055q.528-.055.946-.121V-.44q-.484-.066-1.078-.088T216.3-.55h-14.5q-.484,0-1.056.022t-1.122.088Zm21.736-4.928a38.5,38.5,0,0,0,5.379-1.793,32,32,0,0,0,4.235-2.145,24,24,0,0,0,2.3-1.617q1.155-.913,2.178-1.881a18.459,18.459,0,0,0,1.727-1.848l2.376,2.266q-1.012.99-2.211,2t-2.5,1.936q-1.3.924-2.574,1.694-1.254.726-2.805,1.5T226.2-7q-1.716.682-3.454,1.21Zm9.152-2.53,3.124-.726v9.9q0,.484.022,1.056t.066,1.067a5.25,5.25,0,0,0,.11.759h-3.476q.044-.264.077-.759t.055-1.067q.022-.572.022-1.056Zm20.042.792q1.012.572,2.211,1.353T255.2-7.326q1.232.836,2.321,1.628t1.837,1.408L257.268-1.8q-.726-.66-1.793-1.529t-2.3-1.782q-1.232-.913-2.431-1.749T248.6-8.294Zm10.34-3.74a6.471,6.471,0,0,0-.4.726,6.585,6.585,0,0,0-.33.836,22.552,22.552,0,0,1-.891,2.255,24.848,24.848,0,0,1-1.331,2.53,22.31,22.31,0,0,1-1.76,2.519A23.81,23.81,0,0,1,252.439-1.5a20.071,20.071,0,0,1-5.357,2.948L244.53-.77a19.576,19.576,0,0,0,4-1.672,17.567,17.567,0,0,0,2.937-2.068,20.983,20.983,0,0,0,2.167-2.2,15.387,15.387,0,0,0,1.419-1.925,19.156,19.156,0,0,0,1.166-2.134,10.215,10.215,0,0,0,.693-1.9H249.48l1.012-2.508h6.248a8.244,8.244,0,0,0,1.045-.066,5.151,5.151,0,0,0,.869-.176Zm-7.26-3.388q-.4.572-.781,1.232t-.583,1.012a24.211,24.211,0,0,1-1.892,2.805,29.1,29.1,0,0,1-2.563,2.893,22.41,22.41,0,0,1-3,2.508L242.44-8.8a19.116,19.116,0,0,0,3.289-2.541,20.8,20.8,0,0,0,2.255-2.574,24.277,24.277,0,0,0,1.452-2.211A7.283,7.283,0,0,0,250-17.193a9.164,9.164,0,0,0,.451-1.221Zm11.506,7.238,1.012.055q.616.033,1.287.055t1.243.022H280.5q.77,0,1.452-.055t1.122-.077v3.454L281.952-6.8q-.748-.044-1.452-.044H268.686q-.946,0-1.936.033t-1.606.077Zm33.484-5.368q.308.462.693,1.089t.759,1.276q.374.649.616,1.177l-1.958.858q-.33-.7-.649-1.309t-.638-1.166a10.045,10.045,0,0,0-.737-1.111Zm2.948-1.21q.33.44.726,1.067t.781,1.254a12.559,12.559,0,0,1,.627,1.133l-1.914.924q-.33-.7-.671-1.287t-.682-1.133a11.5,11.5,0,0,0-.759-1.078Zm-8.624-.55q-.11.7-.176,1.485t-.11,1.441q-.044.88-.088,2.167t-.088,2.706q-.044,1.419-.077,2.772t-.033,2.387a3.267,3.267,0,0,0,.407,1.749,2.253,2.253,0,0,0,1.1.924,4.173,4.173,0,0,0,1.551.275,8.074,8.074,0,0,0,2.475-.363,7.785,7.785,0,0,0,2.046-.99A9.726,9.726,0,0,0,301.62-4.2a13.544,13.544,0,0,0,1.342-1.716l2,2.442A13.327,13.327,0,0,1,303.556-1.8a12.006,12.006,0,0,1-2.035,1.65A10.64,10.64,0,0,1,298.8,1.089a11.58,11.58,0,0,1-3.41.473,8.2,8.2,0,0,1-3.124-.55A4.252,4.252,0,0,1,290.2-.715a5.732,5.732,0,0,1-.726-3.047q0-.9.022-2.057t.055-2.409q.033-1.254.055-2.453t.044-2.178q.022-.979.022-1.529,0-.792-.066-1.551a12.988,12.988,0,0,0-.2-1.419Zm25.19,6.292q-.484-.506-1.144-1.1a13.572,13.572,0,0,0-1.254-1.012l1.936-1.43a6.647,6.647,0,0,1,.8.594q.473.4.913.8a8.92,8.92,0,0,1,.7.715Zm-4.51-1.8q.154.308.352.682t.308.616q.33.594.781,1.507t.891,1.881q.44.968.748,1.738.308.726.693,1.738t.77,2.1q.385,1.089.726,2.1t.561,1.76l-2.772.66q-.264-1.1-.671-2.409t-.869-2.585q-.462-1.276-.858-2.288-.352-.814-.77-1.749T312.7-8.844q-.407-.836-.759-1.408-.176-.308-.451-.737a6.553,6.553,0,0,0-.583-.781ZM309.188-7.59q.638-.154,1.188-.33t.77-.264q.968-.374,2.046-.836t2.189-.924q1.111-.462,2.189-.847t2.046-.627a7.389,7.389,0,0,1,1.782-.242,5.35,5.35,0,0,1,2.629.572,3.8,3.8,0,0,1,1.518,1.463,3.817,3.817,0,0,1,.5,1.881,4.387,4.387,0,0,1-1.166,3.212,4.894,4.894,0,0,1-3.63,1.188,6.382,6.382,0,0,1-1.485-.187,12,12,0,0,1-1.265-.363l.066-2.53A7.542,7.542,0,0,0,319.825-6a5.154,5.154,0,0,0,1.221.165,2.881,2.881,0,0,0,1.265-.242,1.715,1.715,0,0,0,.748-.671,1.934,1.934,0,0,0,.253-1,1.3,1.3,0,0,0-.22-.715,1.55,1.55,0,0,0-.66-.55,2.68,2.68,0,0,0-1.144-.209,7.177,7.177,0,0,0-2.046.363,25.465,25.465,0,0,0-2.508.924q-1.32.561-2.574,1.166t-2.244,1.111q-.99.506-1.474.726Zm21.758-6.82q.7.088,1.507.121t1.419.033a25.184,25.184,0,0,0,2.761-.154q1.4-.154,2.7-.407a22.1,22.1,0,0,0,2.354-.583l.088,2.552q-.946.242-2.255.495t-2.761.418a25.318,25.318,0,0,1-2.86.165q-.66,0-1.342-.022t-1.408-.066Zm8.558-3.3q-.132.55-.352,1.43t-.5,1.848q-.275.968-.583,1.914A29.725,29.725,0,0,1,336.8-9.152q-.792,1.782-1.716,3.476a29.116,29.116,0,0,1-1.87,3.014L330.55-4.026a23.787,23.787,0,0,0,1.474-2.046q.726-1.122,1.364-2.31t1.155-2.3a20.664,20.664,0,0,0,.825-2.013A21.561,21.561,0,0,0,336.1-15.3a14.994,14.994,0,0,0,.363-2.717Zm5.148,6.842q-.044.7-.033,1.4t.033,1.419q.022.506.055,1.287t.077,1.65q.044.869.077,1.65t.033,1.243a4.006,4.006,0,0,1-.418,1.837A3.023,3.023,0,0,1,343.145.924a5.376,5.376,0,0,1-2.5.484A7.06,7.06,0,0,1,338.184,1a4.031,4.031,0,0,1-1.76-1.21,3.065,3.065,0,0,1-.66-2.013,3.464,3.464,0,0,1,.572-1.947A3.815,3.815,0,0,1,338-5.533a6.323,6.323,0,0,1,2.629-.495,11.282,11.282,0,0,1,3.564.539,12.815,12.815,0,0,1,2.926,1.375,17.173,17.173,0,0,1,2.222,1.672L347.864-.088q-.594-.528-1.353-1.188a12.576,12.576,0,0,0-1.694-1.232,10.233,10.233,0,0,0-2.024-.946,7.166,7.166,0,0,0-2.343-.374,2.737,2.737,0,0,0-1.518.374,1.12,1.12,0,0,0-.572.968,1.181,1.181,0,0,0,.495.99,2.278,2.278,0,0,0,1.4.374,2.382,2.382,0,0,0,1.188-.253,1.362,1.362,0,0,0,.616-.726,3.043,3.043,0,0,0,.176-1.067q0-.506-.044-1.43t-.1-2.046q-.055-1.122-.1-2.244t-.088-1.98ZM348.436-9.7a15.1,15.1,0,0,0-1.584-1.122q-.946-.594-1.947-1.133t-1.749-.869L344.564-15q.594.264,1.353.649t1.54.8q.781.418,1.452.825t1.089.715Zm8.4-6.028a8.342,8.342,0,0,0-.143.9q-.055.506-.088.99t-.033.792q-.022.726-.011,1.5t.044,1.573q.033.8.1,1.6a21.153,21.153,0,0,0,.44,2.794,5.629,5.629,0,0,0,.748,1.881,1.374,1.374,0,0,0,1.166.671,1.007,1.007,0,0,0,.737-.418,4.324,4.324,0,0,0,.66-1.089,12.933,12.933,0,0,0,.528-1.419q.231-.748.407-1.408l2.2,2.684a17.382,17.382,0,0,1-1.441,3.047,5.169,5.169,0,0,1-1.485,1.628A3.033,3.033,0,0,1,359,.484a3.723,3.723,0,0,1-2.255-.792,6.018,6.018,0,0,1-1.815-2.563A16.921,16.921,0,0,1,353.87-7.59q-.11-1.012-.165-2.134t-.066-2.134q-.011-1.012-.011-1.672,0-.462-.044-1.1a11.236,11.236,0,0,0-.132-1.144Zm11,.506a10.931,10.931,0,0,1,1.188,1.826,22.4,22.4,0,0,1,1.056,2.31q.484,1.232.858,2.519t.605,2.508a18.628,18.628,0,0,1,.3,2.233l-2.9,1.122q-.11-1.342-.4-2.926a28.769,28.769,0,0,0-.77-3.19,22.247,22.247,0,0,0-1.155-3.036,10.515,10.515,0,0,0-1.573-2.464Z" transform="translate(774 186)" fill="#252525"/><path d="M19.034-26.319h3.627v4.5H19.034Zm-5.8,8.091H28.458v2.852H13.237Zm-1.395-4.743H29.791v5.177H26.35V-20.15H15.128v2.356H11.842Zm7.564,5.549,2.759.961a15.7,15.7,0,0,1-2.557,2.635A27.593,27.593,0,0,1,16.4-11.547,26.384,26.384,0,0,1,13.02-9.8a5.709,5.709,0,0,0-.5-.775q-.341-.465-.713-.93t-.651-.775a26.307,26.307,0,0,0,3.162-1.333,18.53,18.53,0,0,0,2.867-1.767A13.825,13.825,0,0,0,19.406-17.422ZM15.717-12.9l2.6-1.395a13.139,13.139,0,0,1,3.1,3.255,13.482,13.482,0,0,1,1.721,3.7,12.883,12.883,0,0,1,.527,3.642,10.526,10.526,0,0,1-.449,3.1,4.318,4.318,0,0,1-1.24,2.046,3.662,3.662,0,0,1-1.457.977,6.172,6.172,0,0,1-1.8.294q-.465.031-1.007.016t-1.1-.046A9.89,9.89,0,0,0,16.4,1.132a5.042,5.042,0,0,0-.62-1.6q.682.093,1.24.124t1.054.031a2.785,2.785,0,0,0,.852-.124,1.263,1.263,0,0,0,.667-.558,3.03,3.03,0,0,0,.62-1.4,7.741,7.741,0,0,0,.124-2.247,11.426,11.426,0,0,0-.574-2.744,11.205,11.205,0,0,0-1.472-2.883A11.893,11.893,0,0,0,15.717-12.9Zm8.8-4.216a56.516,56.516,0,0,0,1.364,5.781,35.586,35.586,0,0,0,1.984,5.286,18.491,18.491,0,0,0,2.542,4.061A10.309,10.309,0,0,0,29.078-.759,12.326,12.326,0,0,0,27.869.713,23.068,23.068,0,0,1,25.2-4a40.984,40.984,0,0,1-2.015-5.952q-.837-3.224-1.4-6.6Zm3.317,2.728,2.449,2.139q-1.209,1.116-2.449,2.232a28.562,28.562,0,0,1-2.263,1.86l-1.8-1.736q.62-.558,1.379-1.349t1.473-1.612A18.426,18.426,0,0,0,27.838-14.384Zm-8.8,2.325,2.108,1.426a23.947,23.947,0,0,1-2.588,2.2,36.056,36.056,0,0,1-3.209,2.139q-1.674.992-3.193,1.7a10.537,10.537,0,0,0-.775-1.271,7.179,7.179,0,0,0-.961-1.147,29.146,29.146,0,0,0,3.1-1.348,28.263,28.263,0,0,0,3.1-1.8A17.474,17.474,0,0,0,19.034-12.059Zm1.3,3.534L22.6-7.006a23.657,23.657,0,0,1-3.131,3.162,32.39,32.39,0,0,1-4,2.9A31.376,31.376,0,0,1,11.284,1.24a12.633,12.633,0,0,0-.775-1.364,10.67,10.67,0,0,0-.961-1.3,24.589,24.589,0,0,0,3.038-1.255,30.119,30.119,0,0,0,3.023-1.7A21.875,21.875,0,0,0,18.29-6.4,16.905,16.905,0,0,0,20.336-8.525ZM5.146-23.405h3.5V2.79h-3.5ZM1.085-17.422H11.78v3.348H1.085Zm4.03,1.364,2.139.868q-.372,1.643-.9,3.441T5.193-8.168Q4.557-6.386,3.828-4.836A19.59,19.59,0,0,1,2.294-2.108a11.658,11.658,0,0,0-.76-1.813Q1.023-4.929.589-5.642A19.217,19.217,0,0,0,2.434-8.7a34.629,34.629,0,0,0,1.581-3.736A35.719,35.719,0,0,0,5.115-16.058Zm4.526-9.734,2.635,2.635a30.4,30.4,0,0,1-3.271,1.069q-1.783.481-3.611.837t-3.565.574a7.274,7.274,0,0,0-.4-1.364,9.131,9.131,0,0,0-.62-1.333q1.612-.279,3.24-.651t3.084-.822A19.337,19.337,0,0,0,9.641-25.792ZM8.463-13.764q.248.217.79.728T10.4-11.9q.6.62,1.085,1.132t.7.759L10.23-7.347q-.248-.465-.667-1.163T8.68-9.951q-.465-.744-.93-1.41t-.775-1.069ZM54.25-24.025q-.031.527-.062,1.069t-.031,1.069q-.031.434-.031,1.317v1.984q0,1.1.016,2.232t.015,2.077v1.5q0,2.759-.2,4.991A17.453,17.453,0,0,1,53.1-3.658,11.056,11.056,0,0,1,51.088-.139,16.3,16.3,0,0,1,47.43,2.976L43.834.155A14.042,14.042,0,0,0,45.771-.93a8.867,8.867,0,0,0,1.689-1.4A10.115,10.115,0,0,0,48.9-4.278a9.133,9.133,0,0,0,.883-2.263,17.189,17.189,0,0,0,.434-2.775q.124-1.534.124-3.487,0-.868-.016-2.139t-.047-2.62q-.031-1.349-.062-2.511t-.093-1.813a9.6,9.6,0,0,0-.139-1.163q-.109-.6-.2-.976ZM42.377-17.949q.775.093,1.535.17t1.55.108q.79.031,1.627.031,1.984,0,4.185-.093t4.247-.279q2.046-.186,3.565-.465l-.031,4.03q-1.426.155-3.41.295t-4.185.217q-2.2.077-4.278.077-.682,0-1.5-.031L44-13.95q-.852-.031-1.628-.093ZM39.184-23.5q-.186.589-.4,1.318a12.512,12.512,0,0,0-.31,1.225q-.31,1.271-.62,3.038t-.511,3.7q-.2,1.938-.217,3.766a15.231,15.231,0,0,0,.294,3.286q.31-.713.713-1.736t.775-1.86l1.953,1.24q-.465,1.3-.868,2.728t-.729,2.682q-.325,1.255-.542,2.123-.062.372-.124.822a5.468,5.468,0,0,0-.062.7q.031.248.046.6t.047.7l-3.472.341q-.31-.93-.744-2.573a33.72,33.72,0,0,1-.729-3.612,26.066,26.066,0,0,1-.294-3.859q0-2.573.17-4.913t.419-4.278q.248-1.937.434-3.208.093-.651.124-1.364t.062-1.3ZM56.7-25.11q.434.93.915,2.186t.729,2.154l-2.139.713q-.31-.992-.744-2.232t-.868-2.17Zm3.193-.992q.434.93.93,2.186t.775,2.154l-2.108.682q-.341-.992-.79-2.2a21.785,21.785,0,0,0-.915-2.139Zm8.928,2.48q.651.093,1.395.124t1.426.031q.5,0,1.488-.015t2.247-.046l2.5-.062q1.24-.031,2.247-.077t1.565-.077q.961-.093,1.519-.171a5.027,5.027,0,0,0,.837-.17l2.015,2.759q-.527.341-1.085.682a12.612,12.612,0,0,0-1.085.744q-.62.434-1.488,1.132T80.553-17.3q-.977.775-1.891,1.519T77-14.446a11.894,11.894,0,0,1,1.488-.264,13.476,13.476,0,0,1,1.457-.077,10.624,10.624,0,0,1,4.728,1.023,8.516,8.516,0,0,1,3.317,2.774,6.834,6.834,0,0,1,1.225,4.015,8.193,8.193,0,0,1-1.24,4.433A8.559,8.559,0,0,1,84.243.62,14.615,14.615,0,0,1,78,1.8a11.327,11.327,0,0,1-3.86-.62A6.334,6.334,0,0,1,71.424-.589a3.992,3.992,0,0,1-.992-2.7,4.349,4.349,0,0,1,.7-2.372A5.184,5.184,0,0,1,73.082-7.44a5.977,5.977,0,0,1,2.9-.682,7.1,7.1,0,0,1,3.611.852,5.917,5.917,0,0,1,2.263,2.279,6.6,6.6,0,0,1,.822,3.131l-3.627.5A4.431,4.431,0,0,0,78.2-4.107a2.647,2.647,0,0,0-2.186-1.039,2.076,2.076,0,0,0-1.395.45,1.336,1.336,0,0,0-.527,1.038,1.583,1.583,0,0,0,.868,1.395,4.316,4.316,0,0,0,2.263.527,13.133,13.133,0,0,0,4.4-.635A5.494,5.494,0,0,0,84.273-4.2a4.635,4.635,0,0,0,.883-2.836A3.78,3.78,0,0,0,84.3-9.486a5.59,5.59,0,0,0-2.31-1.643,8.7,8.7,0,0,0-3.286-.589,11.33,11.33,0,0,0-3.286.449A11.642,11.642,0,0,0,72.618-10a17.171,17.171,0,0,0-2.573,1.984,33.316,33.316,0,0,0-2.5,2.589L64.728-8.339q.837-.682,1.891-1.535t2.154-1.782q1.1-.93,2.077-1.752t1.659-1.379q.651-.527,1.519-1.24t1.8-1.472q.93-.76,1.767-1.457t1.395-1.193q-.465,0-1.209.031t-1.628.062l-1.767.062q-.883.031-1.643.077l-1.256.077q-.62.031-1.3.093t-1.24.155Z" transform="translate(776 242)" fill="#252525"/><path d="M13.888-21.669q1.426.186,3.208.264t3.627.062q1.844-.016,3.549-.124t2.945-.232v4q-1.426.124-3.131.2t-3.5.077q-1.8,0-3.519-.077t-3.177-.2Zm2.48,13.237q-.186.775-.279,1.379A8.041,8.041,0,0,0,16-5.828a1.761,1.761,0,0,0,.248.914A2.033,2.033,0,0,0,17-4.2a4.037,4.037,0,0,0,1.333.434,12.18,12.18,0,0,0,2,.14,35.734,35.734,0,0,0,3.906-.2q1.829-.2,3.875-.6l.062,4.185a33.1,33.1,0,0,1-3.425.434q-1.937.155-4.573.155-4,0-5.952-1.348a4.293,4.293,0,0,1-1.953-3.736,13.27,13.27,0,0,1,.139-1.875q.14-.977.387-2.155ZM9.114-23.746a8.805,8.805,0,0,0-.279.868q-.155.558-.295,1.085t-.2.806q-.093.651-.294,1.689t-.4,2.325q-.2,1.286-.388,2.62T6.959-11.78q-.109,1.24-.109,2.17,0,.434.016.992A6.092,6.092,0,0,0,6.975-7.6q.217-.527.465-1.054t.5-1.069q.248-.543.434-1.039l1.922,1.519Q9.858-7.967,9.408-6.51T8.6-3.766Q8.246-2.48,8.06-1.643,8-1.3,7.951-.868A6.8,6.8,0,0,0,7.9-.186q0,.248.016.6t.047.667l-3.6.248a31.919,31.919,0,0,1-.837-4.294A42.652,42.652,0,0,1,3.162-8.8q0-1.736.155-3.534t.372-3.457q.217-1.659.418-3.022t.357-2.263q.062-.651.171-1.472t.14-1.566Z" transform="translate(1114 242)" fill="#252525"/><path d="M5.414,2.5V1.8L10.254.779l.164-3.445h-.41a18.773,18.773,0,0,1-5,.41v-.656L10.418-4.1l.246-2.912h-.41a19.593,19.593,0,0,1-4.594.287V-7.26H3.814l-.246-4.594a29.322,29.322,0,0,1,.9-6.316H8.162v.656l-.123.779h.246l2.789-1.312v-3.035h-.41q-2.092.533-4.2,1.046a13.773,13.773,0,0,1-4.614.267v-.656l9.229-2.092v-.943l-.164-.9H14.6v1.025h.82q1.846-.369,3.753-.636a19.254,19.254,0,0,1,3.876-.144l.123.656-8.408,1.436v2.912a10.733,10.733,0,0,1,6.152.943,6.54,6.54,0,0,1,.82,4.471,31.144,31.144,0,0,1-1.723,6.193H16.324v-.943h-.533l-1.436.41-.123,3.158h.656a18.283,18.283,0,0,1,4.471-.287v.656L14.068-3.445,13.945-.287h.82a15.377,15.377,0,0,1,5.66-.533v.656A60.105,60.105,0,0,0,13.1,1.62,21.357,21.357,0,0,1,5.414,2.5ZM32.115.779V.123l.533-.533a19.332,19.332,0,0,0,1.969-2.625,36.53,36.53,0,0,0,1.374-3.507,10.254,10.254,0,0,0,.472-3.876L35.4-12.51a3.587,3.587,0,0,0-2.092-.943l-1.723.533q-.656,2.5-1.169,5T29.49-2.789H25.922L25.8-3.445l1.313-6.973h-.246L25.143-9.105v.246H21.451v-.779h.287l.123-.369.9-.533v-.287a22.206,22.206,0,0,1,5.291-2.625,33.758,33.758,0,0,1,.9-3.363q.533-1.641,1.066-3.2h3.691v.9a21.65,21.65,0,0,0-1.6,4.758h3.63a4.882,4.882,0,0,1,3.1,1.025l.123.41.41.246a7.29,7.29,0,0,1,.779,4.348,13.642,13.642,0,0,1-1.107,4.163A28.844,28.844,0,0,1,37-.41l-.41.123-.369.779A15.621,15.621,0,0,1,32.115.779ZM10.664-8.572v-.943l.123-1.846h-.369L7.26-11.2v1.969l.246,1.313h.779ZM16.98-9.762v-.246A17.869,17.869,0,0,0,18.047-16.2L16.98-17.924l-.9-.123-1.477.533V-13.7H16.57v.656l-2.092.369v2.912ZM10.787-13.33,10.91-15.3h-.246l-.41.533H7.506l-.123,2.5h.369ZM8.572-25.676v-.656l2.338-2.379.943-.533.123-.41.779-.369.164-.41a5.261,5.261,0,0,1,5-1.189v.656L13.945-27.4H13.7l-.123.369L12.387-25.84ZM76.125,1.313V-.943L77.6-10.664h3.527v.9q-.533,2.625-.923,5.394t-.513,5.681ZM49.793,1.148A5.8,5.8,0,0,1,46.758-.287a7.378,7.378,0,0,1-1.7-3.9A25.856,25.856,0,0,1,44.912-8.7l.41-1.477h3.568v.943a9.586,9.586,0,0,0-.41,2.871,10.716,10.716,0,0,0,1.6,5.291A4.792,4.792,0,0,0,53.895.369,29.042,29.042,0,0,0,61.134-1.6a17.751,17.751,0,0,1,7.485-1.312v.656Q65.748-1.189,62.774-.267a43,43,0,0,1-6.132,1.415Zm17.8-8.285V-7.67l.369-.492h.287A34.46,34.46,0,0,0,70.731-12.8a12.6,12.6,0,0,0,1.046-5.127l-1.025-1.969a3.776,3.776,0,0,0-2.912-.943L64.148-19.77v4.225H64.8l3.691-.123v.656l-4.348,1.148v3.568h.41l3.691-.123v.656a53.379,53.379,0,0,0-5.927,1.641,15.966,15.966,0,0,1-6.337.738v-.656l4.471-1.312.123-2.5-.123-.656h-.369a17.846,17.846,0,0,1-4.225.246v-.779l4.594-1.312v-3.568h-.246a7.944,7.944,0,0,1-5.66,2.256v2.092L55.33-7.26H51.762a40.332,40.332,0,0,1-.7-4.881q-.205-2.5-.205-5.127l.656-3.691h3.568v.656l-.533,2.789h.369L60.334-20.3l.123-4.594-.123-.943h3.691v4.512h.246l1.723-.41h5.537a4.555,4.555,0,0,1,2.748,1.189l.164.369.492.41a7.981,7.981,0,0,1,.533,3.568,17.037,17.037,0,0,1-1.374,4.512,25.852,25.852,0,0,1-2.44,4.184A8.655,8.655,0,0,1,67.594-7.137Zm-13.7-19.893v-.656A70.063,70.063,0,0,1,61.4-29.572a31.083,31.083,0,0,1,8.039-.451l1.436.369L71-28.465,70.1-27.4H66.527v-.533L67.184-29l-1.066-.123a29.9,29.9,0,0,0-5.988,1.395A14.972,14.972,0,0,1,53.895-27.029ZM106.395.492V-.164l2.748-2.215,2.133-2.133h.246a27.744,27.744,0,0,0,2.44-4.327,11.716,11.716,0,0,0,1-4.86,9.717,9.717,0,0,0-2.01-4.635,12.839,12.839,0,0,0-3.671-2.215,11.422,11.422,0,0,0-4.2-.779,19.308,19.308,0,0,0-5.065,1.436,34.366,34.366,0,0,0-4.7,2.5l-.123.246-1.436,1.189-1.312,1.313-1.723,1.969a8.072,8.072,0,0,0-1.312,4.512L90.48-6.6l.779.246,3.281-2.092.123-.246,1.846-1.723H96.8l1.313-1.846a31.228,31.228,0,0,0,3.035-4.225l.779-1.969h3.691v.656a24.9,24.9,0,0,1-3.158,5.537l-.41.123-.779,1.313L99.955-9.516h-.287l-.246.533-.41.123-.123.41a10.377,10.377,0,0,1-4.614,2.892,13.126,13.126,0,0,1-5.64.39l-1.6-.492L85.969-7.014l-.246-2.748a7.847,7.847,0,0,1,1.107-3.1,19.185,19.185,0,0,1,2.051-2.687l2.625-2.379a25.16,25.16,0,0,1,5.209-2.769,25.261,25.261,0,0,1,5.742-1.456h6.686a19.081,19.081,0,0,1,3.507.882,12.622,12.622,0,0,1,3.1,1.62,9.273,9.273,0,0,1,1.969,2.5,8.867,8.867,0,0,1,.9,5.127,13.814,13.814,0,0,1-1.292,4.676,16.111,16.111,0,0,1-2.769,4.02A23.35,23.35,0,0,1,109.963.492ZM126.41,3.158V2.5l.369-.164.123-.369L128.256.656q6.439-6.48,9.331-10.028t4.471-5.722a10.928,10.928,0,0,0,1.989-4.8l-.779-1.312a5.914,5.914,0,0,0-4.1-.943,24.387,24.387,0,0,0-8.429,2.317,20.749,20.749,0,0,1-8.552,2.03v-.656a44.894,44.894,0,0,1,6.973-2.83,46.657,46.657,0,0,1,7.383-1.641h7.629a4.662,4.662,0,0,1,3.035,1.436,4.6,4.6,0,0,1,.533,2.666,10.213,10.213,0,0,1-1.395,3.322q-.984,1.518-4.676,6.05T131.783,1.559l-1.436,1.066-.123.369ZM144.7-23.584l-1.723-.656v-.287l-.41-.246A5.536,5.536,0,0,1,142.2-27.4a5.883,5.883,0,0,1,1.723-3.035l.369-.123.123-.41a7.961,7.961,0,0,1,5.947-1.189l.779.533v.943l-.123.369a4.706,4.706,0,0,1,3.938.943,2.923,2.923,0,0,1,.533,2.092l-.779,1.6a10.086,10.086,0,0,1-4.758,2.092Zm5-1.846a4.449,4.449,0,0,0,1.969-1.846l.123-.656a3.315,3.315,0,0,0-1.559-1.559h-.287v-.943h-1.682l-.41.123-.287.533-.369.123a6.147,6.147,0,0,0-1.312,3.814l.656,1.066,1.025.246Zm8.9,24.486v-.123a89.95,89.95,0,0,1-1.046-9.557q-.267-4.8-.267-9.68h3.691v3.281h.246q3.322-1.559,6.727-2.871a32.623,32.623,0,0,1,7.1-1.846h5.537l1.969.656.943,1.189a13.385,13.385,0,0,1,.246,3.691,43.785,43.785,0,0,1-1.374,5.312q-.841,2.563-1.661,5.188h2.666v.656A68.431,68.431,0,0,0,172.758-3.65a80.175,80.175,0,0,1-10.582,1.518v.41l.123.779Zm18.047-4.594q1.189-3.158,2.235-6.4a24.728,24.728,0,0,0,1.169-6.768l-1.025-1.6a2.424,2.424,0,0,0-2.133-.533,32.254,32.254,0,0,0-7.937,2.646,36.216,36.216,0,0,1-7.978,2.769v.9q.123,2.912.328,5.8t.574,5.681h.656l6.993-1.333Q173.086-5.045,176.654-5.537Z" transform="translate(892.998 243.5)" fill="#252525"/><path d="M125.91,3.68v-1.5l.465-.206.092-.276L127.9.3c4.26-4.287,7.387-7.648,9.3-9.989s3.411-4.265,4.454-5.7a10.483,10.483,0,0,0,1.871-4.406l-.629-1.059a5.227,5.227,0,0,0-2.932-.837,7.275,7.275,0,0,0-.745.04h-.006a24,24,0,0,0-8.257,2.27A21.341,21.341,0,0,1,122.2-17.3l-.513.014v-1.477l.274-.139a45.6,45.6,0,0,1,7.05-2.861,47.373,47.373,0,0,1,7.462-1.658l.034,0h7.2L142.48-23.9v-.349l-.309-.185-.063-.153a6.055,6.055,0,0,1-.405-2.859l0-.031.007-.031a6.4,6.4,0,0,1,1.863-3.289l.082-.079.231-.077.1-.33.145-.1a8.047,8.047,0,0,1,4.655-1.4,10.854,10.854,0,0,1,1.652.132l.112.017,1.091.746v1.007q.194-.011.382-.011a4.909,4.909,0,0,1,3.255,1.142l.047.039.036.049a3.421,3.421,0,0,1,.626,2.437l-.009.088-.868,1.782-.09.071a10.626,10.626,0,0,1-4.99,2.193l-.038.006h-4.276a5.461,5.461,0,0,1,1.843,1.238l.05.05.034.062a5.116,5.116,0,0,1,.594,2.949l0,.035-.008.034a10.757,10.757,0,0,1-1.463,3.484c-.672,1.036-2.212,3.03-4.708,6.093C139.6-6.121,136.263-2.405,132.145,1.9l-.029.031-1.343,1-.182.546Zm1.428-1.437-.127.381,2.648-.114.064-.192,1.528-1.135c4.087-4.277,7.394-7.962,9.829-10.952s4-5.014,4.644-6.006a9.758,9.758,0,0,0,1.319-3.126,4.079,4.079,0,0,0-.442-2.286,4.124,4.124,0,0,0-2.649-1.239h-2.3a5.924,5.924,0,0,1,1.7.811l.09.062.927,1.561-.028.178a11.473,11.473,0,0,1-2.079,5.015c-1.053,1.45-2.563,3.382-4.488,5.744S132.9-3.3,128.611,1.009l-.007.007Zm9.238-24.67a46.366,46.366,0,0,0-7.269,1.618,44.479,44.479,0,0,0-6.224,2.466,20.183,20.183,0,0,0,7.438-1.938,24.834,24.834,0,0,1,6.862-2.146Zm11.234-1.656h2.1a9.626,9.626,0,0,0,4.4-1.915L155-27.412a2.4,2.4,0,0,0-.413-1.612,3.889,3.889,0,0,0-2.563-.867,6.086,6.086,0,0,0-.928.075l-.317.049a3.841,3.841,0,0,1,1.467,1.612l.075.15-.169.9-.039.07a4.96,4.96,0,0,1-2.183,2.051l-.029.013Zm-3.014,0h2.484l-1.048-.251-.839-1.363v-.142a6.664,6.664,0,0,1,1.415-4.117l.093-.123.327-.109.291-.541.679-.2h2.255v.741l.189-.568v-.6l-.467-.319a9.768,9.768,0,0,0-1.388-.1,7.084,7.084,0,0,0-3.944,1.131l-.146.487-.505.168a5.4,5.4,0,0,0-1.5,2.672,5.116,5.116,0,0,0,.277,2.21l.507.3v.226Zm2.071-1.127.665.159,1.966-.832a3.931,3.931,0,0,0,1.7-1.565l.076-.4a2.771,2.771,0,0,0-1.153-1.138h-.669v-.943h-1.108l-.141.042-.283.525-.408.136a5.666,5.666,0,0,0-1.118,3.251ZM6.855,3.046c-.483,0-.978-.015-1.471-.045l-.47-.028V1.4L9.773.37l.119-2.5a19.045,19.045,0,0,1-3.912.4c-.329,0-.665-.008-1-.024L4.5-1.779V-3.314l5.447-1.2.167-1.97A19.876,19.876,0,0,1,6.749-6.2c-.367,0-.742-.01-1.115-.029L5.16-6.252V-6.76H3.341l-.273-5.09v-.023A29.959,29.959,0,0,1,3.987-18.3l.1-.374H8.662l0,1.206,1.914-.9v-2.179c-1.32.336-2.663.669-4,.993a13.381,13.381,0,0,1-3.15.361c-.528,0-1.076-.028-1.631-.082l-.451-.044v-1.509l9.229-2.092v-.5l-.263-1.447H15.1v1.025h.271c1.219-.243,2.475-.455,3.733-.631a19.625,19.625,0,0,1,2.708-.187c.419,0,.846.013,1.268.04l.389.024.288,1.538L15.266-21.6v1.938c.355-.028.705-.043,1.048-.043a10.82,10.82,0,0,1,4.825,1.09l.131.065.076.125a7.056,7.056,0,0,1,.887,4.8l0,.01a31.341,31.341,0,0,1-.726,3.238l.758-.45v-.266l.221-.149a22.849,22.849,0,0,1,5.141-2.591c.237-1.066.525-2.12.855-3.137.354-1.09.714-2.169,1.069-3.206l.116-.338h4.549V-19l-.048.1a21.151,21.151,0,0,0-1.425,4.044h3a5.392,5.392,0,0,1,3.4,1.131l.125.1.113.377.359.215.065.117a7.811,7.811,0,0,1,.84,4.639v.005A14.2,14.2,0,0,1,39.5-3.957,29.479,29.479,0,0,1,37.416-.139l-.1.155-.374.112-.38.8-.243.051a15.86,15.86,0,0,1-3.228.326c-.33,0-.668-.01-1-.029l-.471-.027V-.084l.67-.67a18.911,18.911,0,0,0,1.891-2.519A36.192,36.192,0,0,0,35.517-6.7a9.758,9.758,0,0,0,.453-3.585L34.994-12.2a3.054,3.054,0,0,0-1.642-.746L32-12.525c-.405,1.564-.773,3.147-1.093,4.709-.339,1.652-.648,3.369-.919,5.1l-.066.423H25.507L25.29-3.445l1.13-6-.778.593v.5H20.951V-8.6q-.221.643-.47,1.278l-.124.318H15.824v-.933l-.983.281-.089,2.277h.088A18.2,18.2,0,0,1,18.277-5.7c.363,0,.736.01,1.109.029l.474.025V-4.1l-5.307,1.07L14.465-.787h.228a15.372,15.372,0,0,1,4.3-.592c.481,0,.977.02,1.474.061l.46.037V.255l-.412.073A59.888,59.888,0,0,0,13.253,2.1,21.537,21.537,0,0,1,6.855,3.046Zm-.165-1h.165a20.539,20.539,0,0,0,6.1-.9A61.153,61.153,0,0,1,18.884-.379a14.308,14.308,0,0,0-3.976.571l-.07.021H13.425l.159-4.071,4.118-.83a16.809,16.809,0,0,0-2.717.3l-.048.009H13.713l.157-4.04,1.851-.529h1.1v.943h2.848a30.748,30.748,0,0,0,1.572-5.772,6.105,6.105,0,0,0-.681-4.008,9.856,9.856,0,0,0-4.25-.923,12.5,12.5,0,0,0-1.488.092l-.56.067v-3.9l7.04-1.2a18.566,18.566,0,0,0-2.061.171c-1.256.176-2.509.388-3.724.631l-.049.01H14.1v-1.025H11.509l.065.357v1.388l-8.49,1.924q.173,0,.343,0a12.382,12.382,0,0,0,2.914-.332c1.4-.34,2.814-.692,4.2-1.045l.061-.016h.973v3.852L8.4-16.234H7.454l.208-1.319v-.117H4.86a29.154,29.154,0,0,0-.791,5.813l.22,4.1H6.16v.553c.2.006.395.009.589.009a18.8,18.8,0,0,0,3.414-.307l.045-.008h1l-.323,3.821-4.328.951A17.738,17.738,0,0,0,9.9-3.154l.054-.012h.99l-.207,4.354ZM32.644.3c.15,0,.3.006.447.006A14.94,14.94,0,0,0,35.873.051L36.229-.7l.446-.134a28.393,28.393,0,0,0,1.916-3.533,13.205,13.205,0,0,0,1.066-4.009A6.894,6.894,0,0,0,39-12.316l-.459-.275-.132-.439a4.371,4.371,0,0,0-2.665-.826H33.914a4.107,4.107,0,0,1,1.819.976l.068.061,1.155,2.266.006.1a10.8,10.8,0,0,1-.5,4.063,37.2,37.2,0,0,1-1.393,3.555l-.014.031-.018.029a19.926,19.926,0,0,1-2.02,2.693L33-.057ZM26.337-3.289h2.726c.257-1.606.546-3.194.86-4.727.342-1.669.737-3.362,1.175-5.03l.07-.269,1.745-.54H31.5l.129-.6a22.274,22.274,0,0,1,1.589-4.765v-.291H30.381c-.316.928-.634,1.886-.949,2.854a33.409,33.409,0,0,0-.889,3.314l-.06.278-.269.091a21.773,21.773,0,0,0-4.951,2.42v.3l-.987.583-.1.313h2.479L26.7-10.918h1.018L26.308-3.445Zm53.836,5.1H75.625V-.981l.006-.037,1.541-10.146h4.457v1.453l-.01.049C81.267-7.93,80.958-6.126,80.7-4.3s-.427,3.716-.508,5.632Zm-3.548-1h2.591c.089-1.785.256-3.549.5-5.25.258-1.83.566-3.638.918-5.374v-.352h-2.6L76.625-.906Zm-19.944.836H49.757l-.036-.005A6.317,6.317,0,0,1,46.428.088L46.4.063l-.025-.03a7.9,7.9,0,0,1-1.814-4.156,26.476,26.476,0,0,1-.147-4.6l0-.055.527-1.9h4.448v1.52l-.023.073a9.126,9.126,0,0,0-.387,2.712A10.274,10.274,0,0,0,50.474-1.38,4.266,4.266,0,0,0,53.847-.129a28.675,28.675,0,0,0,7.094-1.932,18.113,18.113,0,0,1,7.041-1.361c.215,0,.435,0,.652.01l.485.015v1.489l-.326.121c-1.914.711-3.889,1.383-5.871,2a43.7,43.7,0,0,1-6.2,1.432ZM55.3.648H56.6A42.683,42.683,0,0,0,62.626-.744c1.677-.521,3.35-1.082,4.984-1.674a17,17,0,0,0-6.283,1.28A29.4,29.4,0,0,1,55.3.648Zm-5.466,0h2.129A5.3,5.3,0,0,1,49.727-.713l-.041-.041L49.655-.8a11.259,11.259,0,0,1-1.674-5.534v-.021a10.177,10.177,0,0,1,.41-2.946v-.368H45.7l-.294,1.057a25.446,25.446,0,0,0,.143,4.37A6.914,6.914,0,0,0,47.117-.637,5.329,5.329,0,0,0,49.83.648Zm60.279.344h-4.215V-.4l2.914-2.348,2.26-2.26h.188a27.3,27.3,0,0,0,2.249-4.032,11.262,11.262,0,0,0,.961-4.616,9.264,9.264,0,0,0-1.871-4.325,12.392,12.392,0,0,0-3.492-2.1,10.972,10.972,0,0,0-3.987-.745,18.9,18.9,0,0,0-4.9,1.394,34.023,34.023,0,0,0-4.511,2.392l-.108.216-1.5,1.242L92.815-14.3l-1.688,1.93a7.594,7.594,0,0,0-1.211,4.057l.88,1.287.392.124L94.156-8.8l.1-.2,2.056-1.919h.226l1.19-1.67a30.87,30.87,0,0,0,2.966-4.122l.889-2.246h4.531V-17.7l-.037.091a25.517,25.517,0,0,1-3.221,5.648l-.1.132-.381.114-.712,1.2-1.5,1.5h-.174l-.206.447-.368.11-.08.265-.081.086a10.918,10.918,0,0,1-4.834,3.028,13.1,13.1,0,0,1-3.795.55,15.218,15.218,0,0,1-2.058-.144l-.04-.005-1.788-.55L85.484-6.821l-.265-2.954.008-.057a8.379,8.379,0,0,1,1.179-3.292,19.775,19.775,0,0,1,2.1-2.757l.035-.035,2.65-2.4.027-.019a25.778,25.778,0,0,1,5.312-2.823,25.879,25.879,0,0,1,5.855-1.485l.033,0h6.758l.038.006a19.673,19.673,0,0,1,3.6.905,13.18,13.18,0,0,1,3.219,1.684l.023.016.021.018a9.814,9.814,0,0,1,2.074,2.636l0,.005a9.4,9.4,0,0,1,.958,5.41,14.376,14.376,0,0,1-1.339,4.843,16.686,16.686,0,0,1-2.854,4.144,23.953,23.953,0,0,1-4.69,3.894ZM107-.008h2.818a22.9,22.9,0,0,0,4.374-3.654,15.693,15.693,0,0,0,2.685-3.9,13.38,13.38,0,0,0,1.245-4.508,8.418,8.418,0,0,0-.845-4.841,8.819,8.819,0,0,0-1.842-2.348,12.181,12.181,0,0,0-2.952-1.54,18.65,18.65,0,0,0-3.377-.853H107.2a11.709,11.709,0,0,1,2.273.634,13.4,13.4,0,0,1,3.813,2.3l.037.031.03.038a10.255,10.255,0,0,1,2.113,4.869l.006.038v.039a12.266,12.266,0,0,1-1.049,5.065,28.374,28.374,0,0,1-2.484,4.405l-.149.217h-.3l-2.005,2.005ZM88.743-5.658a14.2,14.2,0,0,0,1.882.129,12.1,12.1,0,0,0,3.505-.507,9.912,9.912,0,0,0,4.314-2.671l.166-.554.452-.136.286-.619h.4l1.122-1.122.847-1.426.438-.132a24.5,24.5,0,0,0,2.96-5.2v-.057h-2.852l-.669,1.691-.021.035A31.879,31.879,0,0,1,98.5-11.956L97.055-9.918h-.348L95.071-8.391l-.145.289L91.332-5.81l-1.166-.368L88.914-8.007v-.155a8.6,8.6,0,0,1,1.394-4.785l.019-.029L92.1-15l1.347-1.344L94.8-17.462l.138-.276.117-.074a35.022,35.022,0,0,1,4.765-2.538,19.926,19.926,0,0,1,4.155-1.3h-1.481a24.866,24.866,0,0,0-5.6,1.422,24.768,24.768,0,0,0-5.078,2.7l-2.582,2.34a18.758,18.758,0,0,0-1.981,2.6,7.37,7.37,0,0,0-1.028,2.845l.228,2.541.878,1.114ZM162.884-.443h-4.777v-.582a90.87,90.87,0,0,1-1.045-9.57c-.177-3.193-.267-6.46-.267-9.707v-.5h4.691v3.111c2.067-.957,4.182-1.854,6.293-2.668a33.276,33.276,0,0,1,7.2-1.874l.036-.005h5.654l2.187.729,1.108,1.4.025.113a13.945,13.945,0,0,1,.257,3.829l0,.033-.006.032a44.5,44.5,0,0,1-1.39,5.372c-.488,1.487-.976,3.009-1.456,4.533h2.485v1.63l-.474.025a68.251,68.251,0,0,0-10.546,1.384A81.012,81.012,0,0,1,162.69-1.672Zm-3.831-1h2.661l-.038-.24v-.852h-.225l-.057-.434c-.246-1.86-.44-3.782-.577-5.711s-.247-3.88-.329-5.818v-1.324l.391-.087a35.884,35.884,0,0,0,7.868-2.73,32.852,32.852,0,0,1,7.624-2.6h-1.278a32.271,32.271,0,0,0-6.952,1.812c-2.248.867-4.5,1.828-6.694,2.857l-.1.047h-.858V-19.8H157.8c.009,3.064.1,6.141.265,9.152A89.874,89.874,0,0,0,159.053-1.443Zm19.339-19.795a3.115,3.115,0,0,1,.959.55l.06.05,1.152,1.8-.005.156a25.343,25.343,0,0,1-1.193,6.9c-.7,2.158-1.451,4.318-2.243,6.421l-.1.278-.295.041c-2.359.325-4.745.717-7.091,1.165l-5.72,1.09a79.847,79.847,0,0,0,8.742-1.353,68.684,68.684,0,0,1,7.409-1.152l.175-.558c.545-1.745,1.1-3.493,1.663-5.2a43.478,43.478,0,0,0,1.352-5.219,13.038,13.038,0,0,0-.213-3.409l-.778-.981-1.751-.584Zm-16.064,17.7h.17l6.947-1.324c2.265-.432,4.567-.813,6.846-1.132.748-2,1.462-4.05,2.123-6.1a24.315,24.315,0,0,0,1.139-6.476l-.9-1.4A1.912,1.912,0,0,0,177-20.346H177a31.9,31.9,0,0,0-7.814,2.6,36.8,36.8,0,0,1-7.7,2.717v.493c.081,1.925.191,3.869.327,5.779C161.938-6.992,162.111-5.24,162.328-3.535ZM68.908-6.549a10.766,10.766,0,0,1-1.378-.092L67.094-6.7V-7.837l.619-.826h.261q.189-.3.372-.609a53.128,53.128,0,0,0-5.862,1.623,15.927,15.927,0,0,1-5.142.814c-.454,0-.922-.017-1.392-.05l-.071-.005.016.129H51.355l-.083-.4a41.016,41.016,0,0,1-.706-4.941c-.137-1.674-.207-3.412-.207-5.168v-.044l.737-4.147h4.487v1.2l-.39,2.038,4.648-2.394.114-4.259-.192-1.469h4.761V-21.9l1.41-.336,5.635,0a5.065,5.065,0,0,1,3.042,1.316l.08.071.16.36.5.415.047.115a8.511,8.511,0,0,1,.57,3.789l-.005.047a17.616,17.616,0,0,1-1.414,4.644,26.476,26.476,0,0,1-2.487,4.264l-.091.128-.148.053A8.674,8.674,0,0,1,68.908-6.549Zm-.756-1.031c.257.021.51.031.756.031a7.73,7.73,0,0,0,2.432-.377,25.438,25.438,0,0,0,2.3-3.973,16.617,16.617,0,0,0,1.33-4.357,7.57,7.57,0,0,0-.453-3.211l-.484-.4-.167-.375a4.015,4.015,0,0,0-2.356-.993h-2.3a4.133,4.133,0,0,1,1.872.973l.068.061,1.124,2.158v.122A13.15,13.15,0,0,1,71.189-12.6a35.123,35.123,0,0,1-2.517,4.7l-.147.232h-.312ZM52.171-7.76h2.593l-.714-5.786v-2.623h.5a7.4,7.4,0,0,0,5.316-2.119l.145-.137h.945v4.446L56.61-12.736q.175,0,.348,0A16.877,16.877,0,0,0,60-13l.045-.008h.83l.21,1.122-.143,2.916-3.87,1.136.273,0a14.931,14.931,0,0,0,4.82-.761c1.4-.477,2.839-.9,4.3-1.264l-1.9.063h-.91v-4.453l3.283-.867-2.127.071H63.648v-5.1l3.783-1.093H66.053l-1.723.41h-.8V-25.34H60.9l.054.418-.132,4.929-5.785,2.98h-1.1l.638-3.336v-.109H51.935l-.575,3.235c0,1.713.07,3.409.2,5.042A40.2,40.2,0,0,0,52.171-7.76Zm2.88-5.847.634,5.135,4.291-1.26.1-2.088-.033-.175a17.948,17.948,0,0,1-3.087.261c-.368,0-.746-.011-1.122-.032l-.472-.026V-13.42l4.594-1.313v-2.306a8.37,8.37,0,0,1-4.906,1.858Zm13.7,2.672v.97A33.594,33.594,0,0,0,70.274-13a12.128,12.128,0,0,0,1-4.8l-.925-1.776a3.254,3.254,0,0,0-2.425-.762l-3.278.947v3.349H64.8l4.2-.14v1.558l-4.348,1.148v2.68ZM8.353-7.416H7.091L6.76-9.182v-2.49l3.658-.189h.9L11.164-9.5v1.308Zm-.432-1h.3l1.947-.537v-.6l.087-1.3-2.492.129v1.448Zm9.56-.846h-3.5v-3.832l.6-.106H14.1v-4.665l1.922-.694,1.258.172,1.265,2.044v.142A18.469,18.469,0,0,1,17.48-9.92Zm-2.5-1h1.562a17.438,17.438,0,0,0,1.006-5.8l-.867-1.4-.547-.075-1.031.372V-14.2H17.07v1.576l-2.092.369Zm-7.141-1.5h-.98l.172-3.5h2.978l.41-.533h1.025l-.177,2.831Zm.145-2.5-.07,1.416,2.4-.842.036-.574Zm.09-10.888v-1.383L10.6-29.112l.83-.469.129-.431.8-.38.132-.331.081-.076a5.423,5.423,0,0,1,3.827-1.5,7.724,7.724,0,0,1,1.624.183l.394.085v1.283L14.137-26.9H14.06l-.046.139L12.6-25.349Zm3.145-3.156L9.144-26.2l3.026-.13.968-.968.2-.6h.415l3.67-3.292v-.019a6.385,6.385,0,0,0-1.019-.086,4.389,4.389,0,0,0-3.063,1.153l-.195.487-.756.358-.117.39ZM55.4-26.464c-.5,0-1.026-.022-1.55-.067l-.458-.039v-1.484l.351-.109a70.894,70.894,0,0,1,7.559-1.9,30.607,30.607,0,0,1,5.8-.541c.775,0,1.571.027,2.368.082l.046,0,1.817.467.181,1.747L70.328-26.9h-4.3v-1.175l.319-.518-.225-.026a29.513,29.513,0,0,0-5.828,1.363A14.855,14.855,0,0,1,55.4-26.464Zm-.492-1.007q.248.007.492.007a13.858,13.858,0,0,0,4.562-.734,30.41,30.41,0,0,1,5.77-1.375,29.013,29.013,0,0,0-4.239.493C59.28-28.653,57.07-28.112,54.911-27.472ZM67.094-27.9h2.77l.615-.727-.065-.631-1.054-.271c-.758-.051-1.516-.076-2.254-.076q-.369,0-.736.009l1.651.191Z" transform="translate(892.998 243.5)" fill="#252525"/><path d="M37.877-27.925l-3.107-.42v-1.05l2.184-5.921h2.562l1.05.126v.672a29.3,29.3,0,0,0-1.89,5.669h1.764v.672Zm-6.719,0-3.107-.42v-1.05l2.184-5.921H32.8l1.05.126v.672a29.3,29.3,0,0,0-1.89,5.669H33.72v.672Z" transform="translate(847.135 244.5)" fill="#ef561d"/><path d="M37.868-27.421l-3.6-.486v-1.576L36.6-35.815h2.94l1.52.182v1.223l-.045.1a28.783,28.783,0,0,0-1.713,4.963h1.632v1.625Zm-2.6-1.36,2.617.354.186-.018.115-.512a29.971,29.971,0,0,1,1.877-5.667v-.121l-.58-.07H37.3l-2.032,5.51Zm-4.12,1.36-3.6-.486v-1.576l2.335-6.332h2.94l1.52.182v1.223l-.045.1a28.783,28.783,0,0,0-1.713,4.963H34.22v1.625Zm-2.6-1.36,2.617.354.186-.018.115-.512a29.971,29.971,0,0,1,1.877-5.667v-.121l-.58-.07H30.583l-2.032,5.51Z" transform="translate(847.135 244.5)" fill="#e9541e"/><path d="M5.207-35.987l3.107.42v1.05L6.131-28.6H3.569l-1.05-.126v-.672a29.3,29.3,0,0,0,1.89-5.669H2.646v-.672Zm6.719,0,3.107.42v1.05L12.85-28.6H10.288l-1.05-.126v-.672a29.3,29.3,0,0,0,1.89-5.669H9.364v-.672Z" transform="translate(1081.861 244.5)" fill="#ef561d"/><path d="M5.216-36.491l3.6.486v1.576L6.479-28.1H3.539l-1.52-.182V-29.5l.045-.1a28.783,28.783,0,0,0,1.713-4.963H2.146v-1.625Zm2.6,1.36L5.2-35.484l-.186.018-.115.512A29.97,29.97,0,0,1,3.02-29.287v.121l.58.07H5.782l2.032-5.51Zm4.12-1.36,3.6.486v1.576L13.2-28.1h-2.94l-1.52-.182V-29.5l.045-.1A28.783,28.783,0,0,0,10.5-34.563H8.864v-1.625Zm2.6,1.36-2.617-.354-.186.018-.115.512a29.97,29.97,0,0,1-1.877,5.667v.121l.58.07H12.5l2.032-5.51Z" transform="translate(1081.861 244.5)" fill="#e9541e"/></g></svg>