<svg xmlns="http://www.w3.org/2000/svg" xmlns:xlink="http://www.w3.org/1999/xlink" width="375" height="207.645" viewBox="0 0 375 207.645"><defs><linearGradient id="a" y1="1" x2="1" gradientUnits="objectBoundingBox"><stop offset="0" stop-color="#ef561d"/><stop offset="1" stop-color="#ff9300"/></linearGradient></defs><g transform="translate(0 -108.355)"><path d="M-106.092-14.28h-2.128v-3.584h2.128Zm0,6.524h-2.128v-3.556h2.128Zm-11.76-3.556h2.016v3.556h-2.016Zm6.86,0v3.556h-2.072v-3.556Zm-2.072-2.968v-3.584h2.072v3.584Zm-4.788-3.584h2.016v3.584h-2.016Zm-2.94,3.584h-3.752v2.968h3.752v3.556h-3.332v2.968h24.332V-7.756h-3.248v-3.556h3.64V-14.28h-3.64v-3.584h2.632V-20.8h-16.8a15.074,15.074,0,0,0,1.092-1.96l-3.248-.952a17.218,17.218,0,0,1-5.8,6.692,30.836,30.836,0,0,1,2.716,2.184,19.24,19.24,0,0,0,1.652-1.456Zm-.868,16.744a15.323,15.323,0,0,0,3.192-5.88l-3.22-.784a13.8,13.8,0,0,1-3.136,5.376Zm4.984-5.684a35.543,35.543,0,0,1,.532,5.348l3.248-.476a36.629,36.629,0,0,0-.7-5.236Zm5.544.056a29.837,29.837,0,0,1,1.428,5.32l3.332-.644A31.2,31.2,0,0,0-108-3.7Zm5.544-.14a36.065,36.065,0,0,1,3.3,5.74l3.416-1.148a37.979,37.979,0,0,0-3.528-5.6Zm27.72-15.512A21.042,21.042,0,0,0-82.32-22.2l-1.6,2.24a22.527,22.527,0,0,1,4.34,3.64Zm-7.336,5.88a23.679,23.679,0,0,1,4.592,3.5l1.68-2.66a23.384,23.384,0,0,0-4.7-3.22Zm-2.52-9.24a52.084,52.084,0,0,1-1.54,6.552l2.1.588c.7-1.624,1.512-4.284,2.24-6.524Zm-5.432,6.552a28.074,28.074,0,0,0-1.428-6.412l-2.324.616a27.688,27.688,0,0,1,1.26,6.468Zm7.644,9.212c-.588-.784-3.248-3.92-4.06-4.732v-.2h4.144v-3.108h-4.144V-23.6h-3.08v9.156H-96.88v3.108h3.192a25.921,25.921,0,0,1-3.7,7.252A19.786,19.786,0,0,1-95.872-.644a28.736,28.736,0,0,0,3.22-6.888V2.352h3.08V-7.476a37.4,37.4,0,0,1,2.016,3.64Zm14.812.644-.5-3.108-2.856.532v-15.4H-77.2v15.96L-85.512-6.3l.5,3.108,7.812-1.4v7h3.136v-7.56Zm15.6-16.688H-59.22a20.721,20.721,0,0,1,.2,2.576c0,.84-.028,1.652-.056,2.436h-4c-1.064,0-2.52-.084-3.7-.2v3.668c1.2-.112,2.744-.112,3.7-.112h3.7C-60-9.828-61.4-6.692-64.008-4.116a16.685,16.685,0,0,1-3.668,2.744l3.248,2.632c5.012-3.556,7.672-7.952,8.708-15.344h6.3c0,3.024-.364,8.624-1.176,10.388a1.489,1.489,0,0,1-1.6.98,23.175,23.175,0,0,1-3.92-.392l.448,3.752c1.344.112,3.024.224,4.62.224a3.447,3.447,0,0,0,3.612-2.156c1.2-2.856,1.54-10.668,1.652-13.692a11.448,11.448,0,0,1,.2-1.484L-48.02-17.64a13.015,13.015,0,0,1-2.1.2h-5.264c.056-.812.084-1.652.112-2.52C-55.244-20.636-55.188-21.812-55.1-22.456Zm29.12-.42H-30.3a13.834,13.834,0,0,1,.224,2.576v2.156h-5.992a23.229,23.229,0,0,1-2.856-.14,17.878,17.878,0,0,1,.14,2.408v4.844a21.237,21.237,0,0,1-.14,2.352h3.864c-.056-.56-.084-1.428-.084-2.072V-14.84h13.888a16.624,16.624,0,0,1-2.492,7.2A13.706,13.706,0,0,1-30.1-2.856a22.8,22.8,0,0,1-3.948,1.092l2.912,3.36A17.794,17.794,0,0,0-19.712-6.8a26.077,26.077,0,0,0,2.6-7.924,18.7,18.7,0,0,1,.56-2.24l-2.436-1.484a6.812,6.812,0,0,1-2.324.308H-26.18V-20.3A20.351,20.351,0,0,1-25.984-22.876Zm18.732,1.6-2.632,2.8a58.219,58.219,0,0,1,7,6.048l2.856-2.912A56.551,56.551,0,0,0-7.252-21.28Zm-3.5,18.648,2.352,3.7A30.323,30.323,0,0,0,1.988-2.884a29.774,29.774,0,0,0,10.36-10.36l-2.184-3.948A26.365,26.365,0,0,1-.028-6.3,28.859,28.859,0,0,1-10.752-2.632ZM21.9-3.724c0,3.3.924,4.844,7.308,4.844A65.817,65.817,0,0,0,37.884.5L38-3.3a45.743,45.743,0,0,1-8.82.952c-3.08,0-3.584-.616-3.584-2.352v-7.42c3.976-.812,7.756-1.54,8.624-1.736a23.842,23.842,0,0,1-4.48,5.684l3.08,1.82a40.129,40.129,0,0,0,5.8-8.148c.252-.5.672-1.148.924-1.54l-2.688-2.072a7.894,7.894,0,0,1-1.988.644c-1.26.308-5.18,1.092-9.268,1.876v-3.3a29.429,29.429,0,0,1,.252-3.22H21.672A24.217,24.217,0,0,1,21.9-18.9v4c-2.772.5-5.236.924-6.552,1.092l.672,3.668c1.176-.28,3.388-.728,5.88-1.232Zm42.588-18H60.256a19.752,19.752,0,0,1,.168,2.8v5.32c0,4.368-.364,6.468-2.3,8.568a12.668,12.668,0,0,1-6.72,3.528l2.912,3.08a16.486,16.486,0,0,0,6.8-4.032c2.072-2.3,3.248-4.9,3.248-10.92v-5.544C64.372-20.048,64.428-20.944,64.484-21.728ZM51.492-21.5H47.46a19.881,19.881,0,0,1,.112,2.156v9.436c0,.84-.112,1.932-.14,2.464h4.06c-.056-.644-.084-1.736-.084-2.436v-9.464C51.408-20.244,51.436-20.86,51.492-21.5Zm25.256.224-2.632,2.8a58.218,58.218,0,0,1,7,6.048l2.856-2.912A56.551,56.551,0,0,0,76.748-21.28Zm-3.5,18.648,2.352,3.7A30.323,30.323,0,0,0,85.988-2.884a29.774,29.774,0,0,0,10.36-10.36l-2.184-3.948A26.365,26.365,0,0,1,83.972-6.3,28.859,28.859,0,0,1,73.248-2.632Zm46.564-20.3-2.212.9a32.47,32.47,0,0,1,2.044,3.612l-.2-.112a8.82,8.82,0,0,1-2.436.336h-5.6c.028-.056.056-.084.084-.14A29.047,29.047,0,0,1,113.2-21.2l-4.116-1.344a12.67,12.67,0,0,1-1.26,2.912,24.215,24.215,0,0,1-8.736,9.016l3.136,2.352a31.461,31.461,0,0,0,7.084-6.776h7.868A19.807,19.807,0,0,1,113.2-7.42,22.4,22.4,0,0,1,101.92-.476l3.3,2.968a26.078,26.078,0,0,0,11.284-7.924,28.428,28.428,0,0,0,4.9-9.324,11.211,11.211,0,0,1,.924-2.016l-2.38-1.456,2.072-.868A35.592,35.592,0,0,0,119.812-22.932Zm3.3-1.26-2.212.9a29.685,29.685,0,0,1,2.268,3.864l2.212-.952A39.977,39.977,0,0,0,123.116-24.192ZM-36.652,17.872V15.66h17.136v2.212h-6.972v-1.6H-29.82v1.6Zm20.972,11.7V26.692H-26.74a9.506,9.506,0,0,0,.224-1.764h7.644V22.24h-7.616V20.56h8.176V18.712h2.24V12.748H-26.32V10.312h-3.416v2.436h-10.22v5.964h2.492V20.56h7.644v1.68h-7.2v2.688h7.168a12.833,12.833,0,0,1-.28,1.764H-40.18v2.884h8.428c-1.54,1.652-4.228,3.108-8.932,4.172a13.588,13.588,0,0,1,2.072,2.688c5.712-1.54,8.82-3.752,10.472-6.244,2.212,3.472,5.544,5.46,10.864,6.3a12.955,12.955,0,0,1,1.96-2.912c-4.424-.476-7.56-1.764-9.548-4Zm6.72-15.428h3.416V17.76H-8.96ZM-2.1,29.8c-1.036.252-2.1.5-3.164.728v-3.78h3.08V23.864h-3.08v-3.3h2.688V11.348H-11.76V20.56h3.584V31.2l-1.12.252v-8.9h-2.632v9.436l-1.232.252.644,3.08c3-.728,7-1.68,10.752-2.66ZM9.156,26.048a13.771,13.771,0,0,1-2.212,2.408c-.224-.756-.392-1.568-.588-2.464l6.748-.7-.336-2.8-6.86.672c-.084-.5-.14-1.036-.2-1.6l5.8-.588L11.2,18.264l-5.74.56c-.028-.476-.056-.98-.084-1.484l6.72-.672-.28-2.8-1.344.14L11.7,12.552a20.789,20.789,0,0,0-3.836-2.324l-1.82,1.96A33.25,33.25,0,0,1,9.1,14.12l-3.836.364c-.028-1.372-.028-2.772,0-4.172H1.876c0,1.512.028,3.024.084,4.508l-3.864.364L-1.6,18.04l3.7-.364c.028.5.056.98.084,1.456l-3.3.336.308,2.772L2.436,21.9c.056.532.112,1.064.2,1.6l-4.452.448.308,2.856,4.592-.476a29.407,29.407,0,0,0,1.036,4.116,29.434,29.434,0,0,1-7.308,2.968,10.677,10.677,0,0,1,1.96,2.772A34.533,34.533,0,0,0,5.32,33.272c1.12,1.988,2.548,3.164,4.4,3.164,2.3,0,3.192-.952,3.752-4.676A7.816,7.816,0,0,1,11,29.968c-.168,2.464-.448,3.22-1.008,3.22-.728,0-1.372-.644-1.96-1.764a20.34,20.34,0,0,0,3.948-4.116Zm20.552-1.624V18.4h6.328v6.02Zm-9.828,0V18.4h6.3v6.02Zm9.828-9.3V10.284H26.18v4.844H16.52V29.24h3.36V27.7h6.3v8.736h3.528V27.7h6.328v1.4h3.5V15.128Z" transform="translate(188 213)" fill="#ef561d"/><path d="M8.805-3.66,7.02-3.84a10.489,10.489,0,0,0-.27,2.01C6.75-.315,8.115.555,10.635.555A24.079,24.079,0,0,0,13.7.345l.075-1.92a17.6,17.6,0,0,1-3.12.315c-1.6,0-2.055-.5-2.055-1.155A5.139,5.139,0,0,1,8.805-3.66ZM7.11-11.97l-2.3-.18a7.69,7.69,0,0,1-.045,1.515q-.045.36-.135.855-.7.045-1.35.045a14.844,14.844,0,0,1-1.89-.12L1.44-7.98c.525.03,1.1.06,1.815.06.315,0,.645-.015.99-.03-.09.435-.21.855-.315,1.26A32.477,32.477,0,0,1,1.335.06L3.42.765A46.612,46.612,0,0,0,5.805-6.18c.165-.615.315-1.275.45-1.92A27.614,27.614,0,0,0,9.18-8.6V-10.47c-.825.195-1.665.36-2.505.48.045-.21.09-.405.12-.57C6.855-10.89,6.99-11.565,7.11-11.97ZM8-7.44v1.755a25.772,25.772,0,0,1,2.895-.15,21.99,21.99,0,0,1,2.58.18l.045-1.8a26.378,26.378,0,0,0-2.64-.135C9.915-7.59,8.835-7.515,8-7.44ZM23.355-3.5l-1.8-.165A10.211,10.211,0,0,0,21.3-1.65C21.3-.135,22.665.735,25.185.735A21.528,21.528,0,0,0,28.245.51l.075-1.905a17.546,17.546,0,0,1-3.12.3c-1.6,0-2.055-.5-2.055-1.155A5.259,5.259,0,0,1,23.355-3.5Zm-1.695-8.31-2.3-.18a7.816,7.816,0,0,1-.045,1.53q-.045.36-.135.855-.7.045-1.35.045a14.681,14.681,0,0,1-1.89-.12L15.99-7.8c.525.03,1.08.06,1.815.06.315,0,.645-.015.99-.03-.1.42-.21.855-.315,1.26A32.808,32.808,0,0,1,15.885.24l2.085.7A48.384,48.384,0,0,0,20.355-6c.165-.615.315-1.29.45-1.935A27.614,27.614,0,0,0,23.73-8.43v-1.875c-.825.195-1.68.36-2.52.48.045-.195.09-.39.12-.555C21.39-10.71,21.54-11.385,21.66-11.805Zm.885,4.545v1.755a22.448,22.448,0,0,1,2.9-.165,21.812,21.812,0,0,1,2.58.195l.045-1.8a26.378,26.378,0,0,0-2.64-.135A28.6,28.6,0,0,0,22.545-7.26Zm3.915-4.11-1.185.495a16.8,16.8,0,0,1,1.17,2.085l1.2-.525A20.633,20.633,0,0,0,26.46-11.37Zm1.77-.675-1.185.48a15.9,15.9,0,0,1,1.215,2.07l1.185-.51A16.558,16.558,0,0,0,28.23-12.045ZM43.9-5.28a5.712,5.712,0,0,0-6.06-5.85A6.665,6.665,0,0,0,30.96-4.71c0,2.535,1.38,4.365,3.045,4.365,1.635,0,2.925-1.86,3.825-4.89a30.335,30.335,0,0,0,.9-4.065,3.708,3.708,0,0,1,3.15,3.96,4.071,4.071,0,0,1-3.42,4.02,11.537,11.537,0,0,1-1.4.24L38.19.705C41.97.12,43.9-2.115,43.9-5.28ZM32.88-4.905a4.722,4.722,0,0,1,3.81-4.35,22.515,22.515,0,0,1-.795,3.63c-.615,2.025-1.2,2.97-1.83,2.97C33.48-2.655,32.88-3.39,32.88-4.905ZM50.16-1.8h2.715V-3.06H50.16v-.585h2.655V-8.28H50.16v-.585h2.88V-7.7H54.4c-.1,2.685-.465,4.83-1.635,6.45-.87.075-1.755.15-2.61.21ZM47.37-4.755V-5.43h1.17v.675Zm3.96-.675v.675H50.16V-5.43ZM50.16-6.5v-.66h1.17v.66Zm-2.79-.66h1.17v.66H47.37ZM56.145-9.33c.03-.99.03-2.04.03-3.135h-1.71c0,1.11,0,2.145-.015,3.135H53.04v-.825H50.16v-.735c.975-.105,1.9-.24,2.7-.4l-.78-1.335a46.475,46.475,0,0,1-6.465.735,5.556,5.556,0,0,1,.39,1.26c.81-.015,1.665-.06,2.535-.12v.6H45.585v1.29H48.54v.585H45.96v4.635h2.58v.585H45.9V-1.8h2.64v.9c-1.155.075-2.205.15-3.045.21l.21,1.5c1.62-.135,3.78-.36,5.94-.585a5.844,5.844,0,0,1,1.05,1.185c2.52-2,3.21-5.085,3.4-9.105h1.35c-.09,4.845-.24,6.675-.555,7.08a.545.545,0,0,1-.51.255c-.285,0-.855-.015-1.515-.075a4.176,4.176,0,0,1,.525,1.71,10.062,10.062,0,0,0,1.86-.06A1.674,1.674,0,0,0,58.44.465c.48-.69.6-2.865.735-9,0-.21.015-.8.015-.8Zm15.9,8.07h-9.06V-9.15h-1.74V1.305h1.74V.42h9.06v.87H73.77V-9.15H72.045Zm-2.52-4.965H68.22v-1.26h1.305Zm0,2.625H68.22V-4.875h1.305Zm-4.14-1.275H66.69V-3.6H65.385Zm0-2.61H66.69v1.26H65.385Zm-4.59-4.32v1.665h5.76v1.2H63.93v6.8h7.14v-6.8H68.34v-1.2h5.88v-1.665ZM76.965-7.98c.165-.33.345-.705.51-1.125H78.99V-7.98Zm3.72-1.125H83.37v-1.62H80.685v-1.89H78.99v1.89h-.96a13.975,13.975,0,0,0,.345-1.365l-1.635-.345A11.712,11.712,0,0,1,75.36-8.55a13.866,13.866,0,0,1,1.35.57H75.585v1.605h3.4V-5.28H76.17V.105h1.59v-3.8h1.23V1.29h1.695V-3.69H82V-1.5c0,.15-.045.18-.18.18a6.768,6.768,0,0,1-.93-.015A5.611,5.611,0,0,1,81.33.18a3.269,3.269,0,0,0,1.74-.27c.435-.255.54-.675.54-1.365V-5.28H80.685V-6.375H83.97V-7.98H80.685Zm5.625-2.37H84.645V-3.03H86.31Zm1.02-.975V-.825c0,.255-.09.315-.33.33-.255,0-1.035,0-1.8-.03a7.833,7.833,0,0,1,.525,1.8A6.149,6.149,0,0,0,88.305.93c.54-.3.735-.78.735-1.74V-12.45Zm6.45-.195a15.6,15.6,0,0,1-3.42,5.61,12.189,12.189,0,0,1,.99,1.905c.3-.33.615-.705.93-1.08v7.5h1.8V-8.985a23.367,23.367,0,0,0,1.44-3.12Zm10.755,4.08V-10.26h-5.82a17.727,17.727,0,0,0,.735-1.86l-1.725-.435A14.891,14.891,0,0,1,94.545-6.9,12.132,12.132,0,0,1,95.91-5.655a16.656,16.656,0,0,0,1.965-2.91h.57v9.87h1.83v-3.33h4.08v-1.65h-4.08v-1.7h3.885V-6.99h-3.885V-8.565ZM113.6-11.7l-2.19-.72a7.217,7.217,0,0,1-.675,1.575,13.208,13.208,0,0,1-4.68,4.83l1.68,1.245a17.1,17.1,0,0,0,3.78-3.63h4.215A10.663,10.663,0,0,1,113.6-4.3,11.954,11.954,0,0,1,107.55-.6L109.32.99a14.006,14.006,0,0,0,6.06-4.23,15.651,15.651,0,0,0,2.61-5.01,6.006,6.006,0,0,1,.5-1.08l-1.53-.945a4.81,4.81,0,0,1-1.305.18h-3.015c.015-.03.03-.045.045-.075C112.86-10.5,113.25-11.175,113.6-11.7Zm18.45.06H129.78a10.582,10.582,0,0,1,.09,1.5v2.85c0,2.34-.195,3.465-1.23,4.59a6.786,6.786,0,0,1-3.6,1.89L126.6.84a8.832,8.832,0,0,0,3.645-2.16c1.11-1.23,1.74-2.625,1.74-5.85v-2.97C131.985-10.74,132.015-11.22,132.045-11.64Zm-6.96.12h-2.16a10.651,10.651,0,0,1,.06,1.155V-5.31c0,.45-.06,1.035-.075,1.32h2.175c-.03-.345-.045-.93-.045-1.305v-5.07C125.04-10.845,125.055-11.175,125.085-11.52Zm12,1.05v2.055c.375-.03,1.02-.06,1.425-.06h2.9v6.12H137.6a9.714,9.714,0,0,1-1.47-.12V-.3a12.535,12.535,0,0,1,1.47-.075h9.885a12.035,12.035,0,0,1,1.41.075V-2.475a9.166,9.166,0,0,1-1.41.12h-3.975v-6.12h3.165c.435,0,.96.03,1.41.06V-10.47c-.435.045-.96.09-1.41.09h-8.16C138.09-10.38,137.475-10.425,137.085-10.47ZM150.93-5.835l.945,1.89a30.056,30.056,0,0,0,5.295-2.16v4.8a16.8,16.8,0,0,1-.1,1.965h2.37a10.313,10.313,0,0,1-.135-1.965v-6.06a27.513,27.513,0,0,0,4.035-3.255l-1.62-1.545a19.23,19.23,0,0,1-4.23,3.645A24.12,24.12,0,0,1,150.93-5.835Zm22.005-6.045-2.175-.675a6.208,6.208,0,0,1-.69,1.56,13.928,13.928,0,0,1-4.77,5l1.62,1.245a18.041,18.041,0,0,0,3.96-3.885h4.29a10.647,10.647,0,0,1-1.65,3.315c-.945-.63-1.89-1.245-2.685-1.7L169.5-5.655c.765.48,1.755,1.155,2.73,1.875a12.743,12.743,0,0,1-5.505,3.255L168.465.99a14.114,14.114,0,0,0,5.37-3.555c.615.495,1.17.96,1.575,1.335l1.425-1.7c-.435-.36-1.02-.8-1.665-1.26a17.176,17.176,0,0,0,2.22-4.32,7.057,7.057,0,0,1,.495-1.065l-1.53-.945a4.763,4.763,0,0,1-1.305.165H172A16.162,16.162,0,0,1,172.935-11.88Zm7.845,4.935V-4.59c.555-.045,1.56-.075,2.415-.075h8.055c.63,0,1.395.06,1.755.075V-6.945c-.39.03-1.05.09-1.755.09h-8.055C182.415-6.855,181.32-6.9,180.78-6.945Zm22.83-3.66-1.305.555a15.1,15.1,0,0,1,1.38,2.445l1.335-.585A24.16,24.16,0,0,0,203.61-10.605Zm2.01-.825-1.29.6a15.694,15.694,0,0,1,1.44,2.385l1.305-.63A21.158,21.158,0,0,0,205.62-11.43Zm-5.88-.375-2.415-.03a10.481,10.481,0,0,1,.18,2.025c0,1.29-.135,5.235-.135,7.245,0,2.55,1.575,3.63,4.035,3.63A7.81,7.81,0,0,0,207.93-2.37l-1.365-1.665a6.033,6.033,0,0,1-5.13,3.075,1.823,1.823,0,0,1-2.085-2.01c0-1.875.12-5.22.2-6.84C199.575-10.41,199.65-11.175,199.74-11.805Zm17.175,4.29,1.335-.975a11.468,11.468,0,0,0-1.65-1.44l-1.32.975A13.689,13.689,0,0,1,216.915-7.515Zm-3.075-1.23-1.86.72a7.474,7.474,0,0,1,.705,1.035c.15.255.33.6.525.975-.375.15-.72.3-1.065.435a10.18,10.18,0,0,1-1.335.4l.855,1.815c.4-.18,1.26-.63,2.25-1.11.135.285.255.57.375.84a40.928,40.928,0,0,1,1.635,4.965l1.89-.45c-.42-1.335-1.305-3.93-1.875-5.25-.1-.255-.24-.555-.375-.87a10.581,10.581,0,0,1,3.5-1.05c.93,0,1.38.51,1.38,1.005,0,.78-.51,1.305-1.545,1.305A4.574,4.574,0,0,1,217.2-4.38l-.045,1.725a6.015,6.015,0,0,0,1.875.375c2.25,0,3.27-1.155,3.27-3,0-1.32-.99-2.67-3.165-2.67a13.268,13.268,0,0,0-4.275,1.23c-.21-.435-.405-.84-.57-1.14C214.185-8.085,213.99-8.475,213.84-8.745Zm17.64-3.33-2.07-.21A12.613,12.613,0,0,1,229-9.78c-.465.045-.915.06-1.365.06a18.95,18.95,0,0,1-2-.105l.135,1.74c.645.045,1.26.06,1.875.06.255,0,.51,0,.78-.015a23.633,23.633,0,0,1-3.06,5.295l1.815.93a27.638,27.638,0,0,0,3.21-6.42,26.022,26.022,0,0,0,2.625-.525l-.06-1.74a18.389,18.389,0,0,1-2.025.48C231.165-10.83,231.36-11.6,231.48-12.075ZM230.7-1.7c0-.525.555-.915,1.425-.915a5.389,5.389,0,0,1,1.215.15v.3c0,.825-.315,1.4-1.35,1.4C231.165-.765,230.7-1.14,230.7-1.7Zm4.29-5.715h-1.875c.03.915.105,2.25.165,3.36-.345-.03-.675-.06-1.035-.06-2.085,0-3.315,1.125-3.315,2.6,0,1.65,1.47,2.475,3.33,2.475,2.13,0,2.9-1.08,2.9-2.475v-.15A12.716,12.716,0,0,1,237.18-.06l1.005-1.605a9.809,9.809,0,0,0-3.105-1.92c-.03-.75-.075-1.47-.09-1.905C234.975-6.15,234.945-6.78,234.99-7.41Zm2.58.8,1.065-1.575a25.838,25.838,0,0,0-3.705-2.04l-.96,1.485A21.65,21.65,0,0,1,237.57-6.615Zm5.73-4.11-2.31-.03a9.118,9.118,0,0,1,.12,1.53c0,.915.015,2.67.165,4.05.42,4.02,1.845,5.505,3.495,5.505,1.2,0,2.145-.915,3.135-3.525l-1.5-1.83c-.285,1.2-.885,2.955-1.59,2.955-.945,0-1.395-1.485-1.6-3.645-.09-1.08-.1-2.2-.09-3.18A12.136,12.136,0,0,1,243.3-10.725Zm7.5.345-1.9.615c1.635,1.86,2.43,5.505,2.67,7.92l1.965-.765C253.365-4.905,252.225-8.655,250.8-10.38Z" transform="translate(61 121)" fill="#252525"/><path d="M7.074-5.832c-.288-.342-1.53-1.6-2.034-2.088v-.234h1.8V-10.1H5.04v-2.646a17.768,17.768,0,0,0,2.088-.684L5.634-14.94A22.746,22.746,0,0,1,.522-13.518,6.192,6.192,0,0,1,1.1-11.97c.612-.09,1.26-.18,1.908-.306V-10.1H.684v1.944h1.98A17.118,17.118,0,0,1,.4-3.294,10.554,10.554,0,0,1,1.368-1.26,15.684,15.684,0,0,0,3.006-4.608V1.566H5.04v-7.38c.36.558.72,1.152.918,1.53Zm8.172-5.832v1.1H8.784v-1.1Zm.882,3.33c-.324.432-.774.972-1.224,1.476-.2-.684-.36-1.368-.5-2.07h2.088v-1.386h.756V-13.3H13.122v-1.926h-2.07V-13.3H6.876v2.988H7.7v1.386H9.99A14.4,14.4,0,0,1,6.48-7.11a8.858,8.858,0,0,1,1.1,1.422,17.133,17.133,0,0,0,2.25-1.206,6.67,6.67,0,0,1,.486.522A16.2,16.2,0,0,1,6.066-4.086,6.11,6.11,0,0,1,7.056-2.7a21.409,21.409,0,0,0,4.05-2.466,4.375,4.375,0,0,1,.288.666A14.728,14.728,0,0,1,5.562-.864,7.059,7.059,0,0,1,6.552.684a19.618,19.618,0,0,0,5.256-3.4,2.941,2.941,0,0,1-.432,2.106.938.938,0,0,1-.9.4,9.273,9.273,0,0,1-1.314-.09,3.935,3.935,0,0,1,.486,1.818c.414.018.846.036,1.206.018a2.381,2.381,0,0,0,1.89-.72c1.44-1.26,1.566-5.832-1.584-8.658a13.408,13.408,0,0,0,1.17-1.08h.414c.666,3.654,1.764,7.182,3.4,9.288A6.666,6.666,0,0,1,17.6-1.188a12.427,12.427,0,0,1-2.178-4.05c.648-.54,1.4-1.224,2.106-1.872ZM31.5-13.95H28.908a9.007,9.007,0,0,1,.2,1.242c.036.486.072,1.44.09,2.43-.63.018-1.26.036-1.854.036a19.053,19.053,0,0,1-2.736-.18v2.268c.9.054,2,.108,2.79.108.594,0,1.224,0,1.836-.018v.63c0,3.042-.306,4.644-1.674,6.084A6.844,6.844,0,0,1,25.452.09L27.54,1.728c3.582-2.286,3.906-4.9,3.906-9.144v-.738c1.08-.072,2.07-.144,2.844-.234l.018-2.34c-.792.144-1.8.252-2.88.342,0-1.008,0-1.944.018-2.322C31.446-13.122,31.464-13.554,31.5-13.95Zm-8.748.306L20.088-13.9c-.018.45-.036,1.062-.108,1.548a48.023,48.023,0,0,0-.594,7.2A19.577,19.577,0,0,0,20.412.684l2.016-.2c-.018-.252-.036-.558-.054-.756a6.137,6.137,0,0,1,.108-.882c.234-1.008.7-2.826,1.242-4.374l-1.134-.72c-.288.648-.63,1.53-.864,2.088-.486-2.232.162-6.012.612-8.01C22.41-12.546,22.608-13.194,22.752-13.644Zm10.17-.936L31.7-14.2a21.726,21.726,0,0,1,.936,2.556l1.242-.414A19.861,19.861,0,0,0,32.922-14.58Zm1.854-.576-1.224.4a23.624,23.624,0,0,1,.99,2.52l1.224-.4A23.478,23.478,0,0,0,34.776-15.156ZM43.02-2.124c0-.45.432-.864,1.116-.864.972,0,1.638.756,1.746,1.926a9.4,9.4,0,0,1-1.044.054C43.758-1.008,43.02-1.458,43.02-2.124ZM39.96-13.716l.072,2.34c.414-.054.99-.108,1.476-.144.954-.054,3.438-.162,4.356-.18-.882.774-2.754,2.286-3.762,3.114-1.062.882-3.24,2.718-4.518,3.744L39.222-3.15C41.148-5.346,42.948-6.8,45.7-6.8c2.124,0,3.744,1.1,3.744,2.718a2.609,2.609,0,0,1-1.494,2.448,3.6,3.6,0,0,0-3.834-3.078A3.016,3.016,0,0,0,40.9-1.908c0,1.8,1.89,2.952,4.392,2.952,4.356,0,6.516-2.25,6.516-5.094,0-2.628-2.322-4.536-5.382-4.536a7.032,7.032,0,0,0-1.71.2c1.134-.9,3.024-2.484,4-3.168.414-.306.846-.558,1.26-.828l-1.17-1.6a7.865,7.865,0,0,1-1.368.2c-1.026.09-4.878.162-5.832.162A12.491,12.491,0,0,1,39.96-13.716Z" transform="translate(77 156)" fill="#252525"/><path d="M8.064-12.582v2.3a48.311,48.311,0,0,0,7.74,0V-12.6A37.014,37.014,0,0,1,8.064-12.582ZM9.5-4.9l-2.07-.2a11,11,0,0,0-.306,2.34C7.128-.9,8.622.2,11.718.2a25.492,25.492,0,0,0,4.644-.342l-.036-2.43a21.278,21.278,0,0,1-4.518.468c-1.836,0-2.52-.486-2.52-1.278A6.11,6.11,0,0,1,9.5-4.9ZM5.292-13.788,2.772-14c-.018.576-.126,1.26-.18,1.764a50.192,50.192,0,0,0-.756,7.128,23.01,23.01,0,0,0,.7,5.886L4.626.63C4.608.378,4.59.09,4.59-.108a5.431,5.431,0,0,1,.09-.846c.2-.954.792-2.916,1.3-4.41L4.86-6.246c-.252.594-.54,1.224-.81,1.836a8.684,8.684,0,0,1-.072-1.17,47.741,47.741,0,0,1,.864-6.606C4.914-12.51,5.148-13.41,5.292-13.788Z" transform="translate(281 156)" fill="#252525"/><path d="M3.618-1.842v-.441l3.059-.648.1-2.178H6.521a11.865,11.865,0,0,1-3.163.259v-.415L6.78-6.016l.156-1.841H6.677a12.383,12.383,0,0,1-2.9.181v-.337H2.607l-.156-2.9a18.532,18.532,0,0,1,.57-3.992H5.355v.415L5.277-14h.156L7.2-14.83v-1.918H6.936q-1.322.337-2.657.661a8.7,8.7,0,0,1-2.916.169v-.415L7.2-17.656v-.6l-.1-.57H9.425v.648h.518q1.167-.233,2.372-.4a12.169,12.169,0,0,1,2.45-.091l.078.415-5.314.907V-15.5a6.783,6.783,0,0,1,3.889.6,4.133,4.133,0,0,1,.518,2.826,19.684,19.684,0,0,1-1.089,3.914H10.513v-.6h-.337L9.269-8.5l-.078,2h.415a11.555,11.555,0,0,1,2.826-.181v.415L9.088-5.6l-.078,2h.518a9.719,9.719,0,0,1,3.577-.337v.415A37.989,37.989,0,0,0,8.478-2.4,13.5,13.5,0,0,1,3.618-1.842ZM20.494-2.931v-.415l.337-.337a12.219,12.219,0,0,0,1.244-1.659,23.089,23.089,0,0,0,.868-2.216,6.481,6.481,0,0,0,.3-2.45l-.674-1.322a2.267,2.267,0,0,0-1.322-.6l-1.089.337q-.415,1.581-.739,3.163t-.583,3.24H16.579L16.5-5.6l.83-4.407h-.156l-1.089.83v.156H13.754v-.493h.181l.078-.233.57-.337v-.181a14.035,14.035,0,0,1,3.344-1.659,21.338,21.338,0,0,1,.57-2.126q.337-1.037.674-2.022H21.5v.57A13.684,13.684,0,0,0,20.494-12.5h2.294a3.086,3.086,0,0,1,1.957.648l.078.259.259.156a4.607,4.607,0,0,1,.493,2.748,8.622,8.622,0,0,1-.7,2.631,18.231,18.231,0,0,1-1.3,2.372l-.259.078-.233.493A9.873,9.873,0,0,1,20.494-2.931ZM6.936-8.842v-.6L7.014-10.6H6.78l-2,.1v1.244l.156.83h.493Zm3.992-.752v-.156a11.294,11.294,0,0,0,.674-3.914l-.674-1.089-.57-.078-.933.337v2.411h1.244v.415l-1.322.233v1.841ZM7.014-11.849l.078-1.244H6.936l-.259.337H4.94l-.078,1.581H5.1Zm-1.4-7.8v-.415l1.478-1.5.6-.337.078-.259.493-.233.1-.259a3.325,3.325,0,0,1,3.163-.752V-23L9.01-20.741H8.854l-.078.233-.752.752ZM48.31-2.594V-4.02l.933-6.144h2.229v.57q-.337,1.659-.583,3.409t-.324,3.59ZM31.667-2.7a3.665,3.665,0,0,1-1.918-.907,4.663,4.663,0,0,1-1.076-2.463,16.343,16.343,0,0,1-.091-2.852l.259-.933H31.1v.6a6.059,6.059,0,0,0-.259,1.815A6.773,6.773,0,0,0,31.848-4.1a3.029,3.029,0,0,0,2.411.907,18.356,18.356,0,0,0,4.576-1.244,11.219,11.219,0,0,1,4.731-.83v.415q-1.815.674-3.694,1.257A27.175,27.175,0,0,1,36-2.7ZM42.918-7.934v-.337l.233-.311h.181A21.78,21.78,0,0,0,44.9-11.512a7.961,7.961,0,0,0,.661-3.24L44.914-16a2.386,2.386,0,0,0-1.841-.6l-2.333.674v2.67h.415l2.333-.078v.415l-2.748.726v2.255H41l2.333-.078v.415a33.737,33.737,0,0,0-3.746,1.037,10.091,10.091,0,0,1-4.005.467V-8.5l2.826-.83.078-1.581-.078-.415h-.233a11.28,11.28,0,0,1-2.67.156v-.493l2.9-.83v-2.255h-.156a5.021,5.021,0,0,1-3.577,1.426V-12l.493,3.992H32.911a25.491,25.491,0,0,1-.441-3.085q-.13-1.581-.13-3.24l.415-2.333h2.255v.415l-.337,1.763h.233l3.422-1.763.078-2.9-.078-.6h2.333V-16.9h.156l1.089-.259h3.5a2.879,2.879,0,0,1,1.737.752l.1.233.311.259a5.044,5.044,0,0,1,.337,2.255,10.768,10.768,0,0,1-.868,2.852,16.34,16.34,0,0,1-1.542,2.644A5.47,5.47,0,0,1,42.918-7.934ZM34.259-20.507v-.415A44.284,44.284,0,0,1,39-22.115a19.646,19.646,0,0,1,5.081-.285l.907.233.078.752-.57.674H42.244v-.337l.415-.674-.674-.078a18.9,18.9,0,0,0-3.785.881A9.463,9.463,0,0,1,34.259-20.507ZM67.441-3.113v-.415l1.737-1.4,1.348-1.348h.156A17.536,17.536,0,0,0,72.224-9.01a7.405,7.405,0,0,0,.635-3.072,6.142,6.142,0,0,0-1.27-2.929,8.115,8.115,0,0,0-2.32-1.4,7.219,7.219,0,0,0-2.657-.493,12.2,12.2,0,0,0-3.2.907,21.721,21.721,0,0,0-2.968,1.581l-.078.156-.907.752-.83.83-1.089,1.244a5.1,5.1,0,0,0-.83,2.852l.674.985.493.156,2.074-1.322.078-.156,1.167-1.089h.181l.83-1.167a19.737,19.737,0,0,0,1.918-2.67l.493-1.244h2.333v.415a15.739,15.739,0,0,1-2,3.5l-.259.078-.493.83-.83.83H63.19l-.156.337-.259.078-.078.259a6.558,6.558,0,0,1-2.916,1.828,8.3,8.3,0,0,1-3.564.246L55.205-7l-.674-.855-.156-1.737a4.959,4.959,0,0,1,.7-1.957,12.125,12.125,0,0,1,1.3-1.7l1.659-1.5a15.9,15.9,0,0,1,3.292-1.75,15.965,15.965,0,0,1,3.629-.92h4.226a12.06,12.06,0,0,1,2.216.557,7.978,7.978,0,0,1,1.957,1.024A5.861,5.861,0,0,1,74.6-14.26a5.6,5.6,0,0,1,.57,3.24,8.731,8.731,0,0,1-.817,2.955A10.183,10.183,0,0,1,72.6-5.524a14.758,14.758,0,0,1-2.9,2.411ZM80.092-1.428v-.415l.233-.1.078-.233.855-.83q4.07-4.1,5.9-6.338t2.826-3.616A6.907,6.907,0,0,0,91.239-16l-.493-.83a3.738,3.738,0,0,0-2.592-.6,15.414,15.414,0,0,0-5.327,1.465,13.114,13.114,0,0,1-5.405,1.283v-.415a28.375,28.375,0,0,1,4.407-1.789A29.489,29.489,0,0,1,86.5-17.915h4.822a2.946,2.946,0,0,1,1.918.907,2.91,2.91,0,0,1,.337,1.685,6.455,6.455,0,0,1-.881,2.1q-.622.959-2.955,3.824t-6.248,6.96l-.907.674-.078.233Zm11.562-16.9-1.089-.415v-.181l-.259-.156a3.5,3.5,0,0,1-.233-1.659,3.718,3.718,0,0,1,1.089-1.918l.233-.078L91.472-23a5.032,5.032,0,0,1,3.759-.752l.493.337v.6l-.078.233a2.974,2.974,0,0,1,2.489.6,1.847,1.847,0,0,1,.337,1.322l-.493,1.011a6.375,6.375,0,0,1-3.007,1.322ZM94.817-19.5a2.812,2.812,0,0,0,1.244-1.167l.078-.415a2.1,2.1,0,0,0-.985-.985h-.181v-.6H93.909l-.259.078-.181.337-.233.078a3.885,3.885,0,0,0-.83,2.411l.415.674.648.156ZM100.442-4.02V-4.1a56.855,56.855,0,0,1-.661-6.04q-.169-3.033-.168-6.118h2.333v2.074h.156q2.1-.985,4.251-1.815a20.619,20.619,0,0,1,4.485-1.167h3.5l1.244.415.6.752a8.46,8.46,0,0,1,.156,2.333,27.674,27.674,0,0,1-.868,3.357q-.531,1.62-1.05,3.279H116.1v.415a43.251,43.251,0,0,0-6.714.881,50.674,50.674,0,0,1-6.688.959v.259l.078.493Zm11.406-2.9q.752-2,1.413-4.044A15.629,15.629,0,0,0,114-15.245l-.648-1.011A1.532,1.532,0,0,0,112-16.593a20.386,20.386,0,0,0-5.016,1.672,22.89,22.89,0,0,1-5.042,1.75v.57q.078,1.841.207,3.668t.363,3.59h.415l4.42-.843Q109.593-6.612,111.848-6.923Z" transform="translate(146.864 160.972)" fill="#252525"/><path d="M79.592-.906V-2.167l.329-.146.047-.14.94-.911c2.687-2.7,4.659-4.824,5.861-6.3s2.152-2.69,2.809-3.594A6.445,6.445,0,0,0,90.715-15.9l-.341-.574a3.087,3.087,0,0,0-1.717-.476,4.415,4.415,0,0,0-.452.024H88.2a14.987,14.987,0,0,0-5.156,1.417,13.671,13.671,0,0,1-5.609,1.333l-.513.014V-15.4l.274-.139a29.013,29.013,0,0,1,4.485-1.82,30.131,30.131,0,0,1,4.745-1.055l.034,0h3.6v-.228l-.158-.095-.063-.153a4.009,4.009,0,0,1-.269-1.893l0-.031.007-.031a4.226,4.226,0,0,1,1.23-2.173L90.9-23.1l.1-.032.054-.179.145-.1a5.267,5.267,0,0,1,3.046-.92,7.045,7.045,0,0,1,1.073.086l.112.017.8.55v.542a3.289,3.289,0,0,1,2.233.765l.047.039.036.049a2.341,2.341,0,0,1,.43,1.668l-.009.088-.581,1.193-.09.071a6.9,6.9,0,0,1-3.24,1.423l-.038.006H93.027a3.932,3.932,0,0,1,.562.469l.05.05.034.062a3.415,3.415,0,0,1,.4,1.968l0,.035-.008.034a6.982,6.982,0,0,1-.949,2.261c-.429.661-1.406,1.926-2.987,3.867-1.556,1.911-3.667,4.263-6.274,6.99l-.029.031-.815.605-.137.411ZM90.75-17.415q.144.082.281.177l.09.062.64,1.078-.028.178a7.434,7.434,0,0,1-1.347,3.25c-.668.919-1.624,2.143-2.843,3.638s-3.218,3.645-5.931,6.375l-.007.007-.709.687,1.24-.053.019-.056,1-.743c2.575-2.7,4.658-5.017,6.192-6.9s2.52-3.159,2.923-3.78a5.982,5.982,0,0,0,.805-1.9A2.4,2.4,0,0,0,92.83-16.7a2.423,2.423,0,0,0-1.532-.711Zm-7.1.553q-.847.207-1.668.461a27.7,27.7,0,0,0-2.885,1.076,12.4,12.4,0,0,0,3.517-1.084Q83.12-16.654,83.645-16.862ZM94.524-18.83h.408a5.9,5.9,0,0,0,2.648-1.146l.4-.822a1.334,1.334,0,0,0-.217-.845,2.387,2.387,0,0,0-1.8-.475,2.683,2.683,0,0,1,.618.816l.075.15-.124.659-.039.07a3.315,3.315,0,0,1-1.459,1.372l-.029.013Zm-2.778,0h.642l-.483-.784v-.142a4.392,4.392,0,0,1,.932-2.714l.093-.123.191-.064L93.308-23l.528-.158h1.371l-.162-.111a5.955,5.955,0,0,0-.809-.058,4.243,4.243,0,0,0-2.336.649l-.1.334-.368.123a3.174,3.174,0,0,0-.863,1.555,3.074,3.074,0,0,0,.144,1.245l.353.212v.12Zm1.392-.69.287.069,1.181-.5a2.31,2.31,0,0,0,.978-.888l.029-.156a1.564,1.564,0,0,0-.582-.569h-.56v-.6h-.482l-.176.326-.271.09a3.339,3.339,0,0,0-.636,1.849ZM4.528-1.315c-.309,0-.626-.01-.941-.029l-.47-.028V-2.688L6.2-3.34l.057-1.2a12.577,12.577,0,0,1-2.918.193l-.477-.022V-5.666l3.455-.759L6.387-7.3a12.825,12.825,0,0,1-1.925.144c-.235,0-.475-.006-.714-.019L3.273-7.2v-.312H2.133l-.182-3.4v-.023a19.119,19.119,0,0,1,.586-4.1l.088-.338a10.5,10.5,0,0,1-1.312-.049l-.451-.044v-1.267L6.7-18.055v-.152l-.179-.983-1.4.06v-1.141l1.67-1.7.482-.273.084-.28.516-.245.072-.18.081-.076a3.606,3.606,0,0,1,2.545-1,5.066,5.066,0,0,1,1.066.12l.394.085v1.041l-2.8,2.515-.007.021-.915.915H9.925v.642c.759-.15,1.539-.282,2.321-.391a12.589,12.589,0,0,1,1.737-.12c.269,0,.542.009.813.026l.389.024.243,1.3-5.4.922v.872c.161-.009.321-.014.478-.014a7.021,7.021,0,0,1,3.131.708l.131.065.076.125a4.639,4.639,0,0,1,.585,3.157l0,.01q-.121.719-.3,1.433l.173-.116A14.638,14.638,0,0,1,17.5-12.307c.147-.645.322-1.283.523-1.9.224-.69.452-1.373.676-2.029l.116-.338H22v1.183l-.048.1A13.145,13.145,0,0,0,21.126-13h1.662a3.588,3.588,0,0,1,2.265.754l.125.1.068.226.208.125.065.117a5.116,5.116,0,0,1,.553,3.04v.005a9.16,9.16,0,0,1-.741,2.783A18.816,18.816,0,0,1,24-3.412l-.1.155-.223.067-.245.516-.243.051a10.419,10.419,0,0,1-2.723.191l-.471-.027V-3.553l.474-.474a11.766,11.766,0,0,0,1.166-1.552,22.691,22.691,0,0,0,.836-2.137,5.967,5.967,0,0,0,.279-2.159l-.582-1.141a1.747,1.747,0,0,0-.876-.4l-.719.223c-.245.953-.468,1.917-.663,2.868-.213,1.042-.408,2.124-.579,3.217l-.066.423h-3.1L15.993-5.6l.55-2.922H13.514q-.1.27-.2.538l-.124.318H10.013V-8.2l-.259.074L9.712-7.037a11.8,11.8,0,0,1,2.035-.171c.232,0,.471.006.71.019l.474.025v1.3l-3.36.677L9.53-4.126A9.937,9.937,0,0,1,12.2-4.479c.309,0,.627.013.946.039l.46.037v1.295l-.412.073A37.664,37.664,0,0,0,8.627-1.922,13.8,13.8,0,0,1,4.528-1.315ZM7.248-5.609H7.3L7.16-2.577q.6-.122,1.17-.3.379-.118.761-.228h-.6L8.6-6.014l.069-.014.111-2.858.726-.207H8.847v-2.76l.078-.014v-2.977l.347-.125-.244.029v-2.734h-.1v-.648H7.691l0,.025v1.041l-.035.008H7.7v2.736L5.544-13.5H4.692l.143-.907H3.413a18.318,18.318,0,0,0-.461,3.488l.129,2.407H4.273v.354h.208l-.2-1.053v-1.766l.068,0,.112-2.277H6.43l.259-.337h.934l-.132,2.106-1.152.4.44-.022h.768L7.436-9.421v.96l-.378.1H7.48ZM22.52-12a2.96,2.96,0,0,1,.384.3l.068.061.763,1.5.006.1A7.008,7.008,0,0,1,23.418-7.4a23.7,23.7,0,0,1-.887,2.264l-.014.031-.018.029a12.824,12.824,0,0,1-1.237,1.662,9.247,9.247,0,0,0,1.482-.141l.22-.465.294-.088a17.731,17.731,0,0,0,1.162-2.152,8.163,8.163,0,0,0,.658-2.477,4.2,4.2,0,0,0-.372-2.339L24.4-11.26l-.086-.285A2.594,2.594,0,0,0,22.788-12Zm-5.493,6.31h1.382c.156-.965.331-1.918.52-2.841.217-1.058.467-2.131.745-3.189l.07-.269.139-.043L20-12.6a14.275,14.275,0,0,1,.981-2.973H19.53c-.185.547-.372,1.109-.556,1.677a20.93,20.93,0,0,0-.557,2.076l-.06.278-.269.091a13.563,13.563,0,0,0-3,1.455v.2l-.47.278h1.1l1.293-.985h.927ZM11.013-8.668H12.5a19.237,19.237,0,0,0,.939-3.493,3.638,3.638,0,0,0-.38-2.363,5.874,5.874,0,0,0-1.705-.487l.746,1.2v.142a11.864,11.864,0,0,1-.674,4v.568h-.415ZM5.355-8.927h.01l1.071-.3v-.249l.041-.617-1.194.062V-9.3Zm4.492-1.167h.673a10.319,10.319,0,0,0,.312-1.095l-.985.174ZM5.416-12.256l-.022.446,1.141-.4,0-.045Zm4.509-.326h1.128q.043-.465.049-.94l-.474-.766-.215-.029-.487.176Zm-6.7-2.826H5.855v.656l.841-.4v-1.024c-.762.193-1.533.384-2.3.57A8.2,8.2,0,0,1,3.224-15.408ZM7.4-21.17l-.965.982,1.375-.059.531-.531.154-.463h.325l1.975-1.771a2.638,2.638,0,0,0-2.01.646l-.134.334-.469.222-.072.239ZM51.044-2.094H47.81V-4.058l1-6.606h3.159v1.121l-.01.049c-.222,1.091-.416,2.228-.578,3.379s-.269,2.337-.32,3.542Zm-2.235-1h1.279c.059-1.074.161-2.135.305-3.16.162-1.154.357-2.294.578-3.389v-.02h-1.3L48.81-3.982Zm-12.775.9h-4.4L31.595-2.2A4.173,4.173,0,0,1,29.419-3.23l-.029-.026-.025-.03a5.176,5.176,0,0,1-1.188-2.722,16.919,16.919,0,0,1-.094-2.939l0-.055.376-1.352H31.6V-9.18l-.023.073a5.582,5.582,0,0,0-.236,1.655,6.314,6.314,0,0,0,.905,3.041,2.516,2.516,0,0,0,1.969.723A17.935,17.935,0,0,0,38.641-4.9a11.767,11.767,0,0,1,4.939-.868l.485.015V-4.5l-.326.121c-1.212.45-2.464.876-3.72,1.266a27.8,27.8,0,0,1-3.947.911Zm-4.33-1h.477a3.756,3.756,0,0,1-.687-.546l-.041-.041-.03-.049a7.3,7.3,0,0,1-1.086-3.587v-.021A6.633,6.633,0,0,1,30.6-9.331v-.022H29.221l-.143.514a15.888,15.888,0,0,0,.09,2.71,4.13,4.13,0,0,0,.939,2.173A3.14,3.14,0,0,0,31.7-3.2Zm9.826-1.459a10.167,10.167,0,0,0-2.5.683q-.42.176-.851.332.785-.192,1.546-.428C40.328-4.257,40.932-4.454,41.531-4.657ZM69.843-2.613h-2.9V-3.767l1.9-1.533,1.476-1.476h.1a17.044,17.044,0,0,0,1.352-2.44,6.932,6.932,0,0,0,.591-2.828,5.672,5.672,0,0,0-1.132-2.619,7.645,7.645,0,0,0-2.141-1.283,6.748,6.748,0,0,0-2.44-.458,11.762,11.762,0,0,0-3.036.865,21.32,21.32,0,0,0-2.784,1.471l-.063.125-.97.8-.8.8-1.054,1.2a4.61,4.61,0,0,0-.727,2.4l.487.712.105.033,1.761-1.122.056-.112L61-10.508h.121l.707-.991a19.327,19.327,0,0,0,1.849-2.568l.6-1.522h3.173v1.013l-.037.091a16.312,16.312,0,0,1-2.059,3.611l-.1.132-.23.069-.425.716-1.02,1.02H63.51l-.116.251-.218.067-.034.113-.081.086a7.082,7.082,0,0,1-3.136,1.964,8.464,8.464,0,0,1-2.452.356,9.806,9.806,0,0,1-1.326-.093l-.04-.006-1.2-.369-.863-1.095-.174-1.943.008-.057a5.479,5.479,0,0,1,.771-2.152A12.682,12.682,0,0,1,56-13.584l.035-.035,1.684-1.526.027-.019a16.477,16.477,0,0,1,3.4-1.8,16.541,16.541,0,0,1,3.743-.949l.033,0h4.3l.038.006a12.615,12.615,0,0,1,2.308.581,8.515,8.515,0,0,1,2.079,1.088l.023.016.021.018a6.386,6.386,0,0,1,1.35,1.715l0,.005a6.12,6.12,0,0,1,.626,3.523A9.268,9.268,0,0,1,74.8-7.847a10.729,10.729,0,0,1-1.835,2.665,15.322,15.322,0,0,1-3,2.491Zm-1.5-1h1.205a14.267,14.267,0,0,0,2.684-2.25A9.736,9.736,0,0,0,73.9-8.281a8.273,8.273,0,0,0,.77-2.787,5.141,5.141,0,0,0-.514-2.955,5.391,5.391,0,0,0-1.117-1.427,7.515,7.515,0,0,0-1.812-.944,11.438,11.438,0,0,0-1.736-.467,8.657,8.657,0,0,1,2.423,1.47l.037.031.03.038a6.663,6.663,0,0,1,1.373,3.164l.006.038v.039a7.935,7.935,0,0,1-.679,3.277,18.12,18.12,0,0,1-1.586,2.813l-.149.217h-.212L69.513-4.555ZM56.324-7.18a8.9,8.9,0,0,0,.96.076l-.216-.068-.859-1.255v-.155a5.616,5.616,0,0,1,.911-3.125l.019-.029,1.135-1.3.864-.861.826-.685.093-.185.117-.074a22.328,22.328,0,0,1,3.036-1.618q.352-.154.711-.286a15.154,15.154,0,0,0-2.418.7,15.466,15.466,0,0,0-3.162,1.677l-1.616,1.464a11.663,11.663,0,0,0-1.227,1.61,4.469,4.469,0,0,0-.62,1.706l.137,1.53.485.616Zm4.11-1.435-.1.2L58.35-7.151a7.279,7.279,0,0,0,1.286-.264,6.077,6.077,0,0,0,2.617-1.608l.121-.4.3-.09.2-.423h.294l.639-.639.56-.943.287-.086a15.351,15.351,0,0,0,1.72-2.983H64.956l-.383.966-.021.035A20.335,20.335,0,0,1,62.6-10.867l-.966,1.359h-.242Zm42.926,5.1H99.942v-.537a57.624,57.624,0,0,1-.66-6.053c-.112-2.022-.169-4.089-.169-6.146v-.5h3.333v1.863c1.227-.562,2.478-1.089,3.727-1.57a21.217,21.217,0,0,1,4.593-1.195l.036-.005h3.617l1.462.487.761.959.025.113a9,9,0,0,1,.166,2.471l0,.033-.006.032a28.306,28.306,0,0,1-.884,3.418c-.282.861-.565,1.741-.844,2.624h1.5v1.389l-.474.025a42.951,42.951,0,0,0-6.637.871,51.365,51.365,0,0,1-6.255.928Zm-2.48-1H102.2v-.322h-.12l-.057-.434c-.156-1.18-.279-2.4-.366-3.621s-.156-2.456-.208-3.682v-.992l.391-.087.1-.023h-.493v-2.074h-1.332c.008,1.873.064,3.751.167,5.59A56.624,56.624,0,0,0,100.881-4.52Zm1.565-8.091c.051,1.213.121,2.439.206,3.643.074,1.049.176,2.093.3,3.112l4.3-.82c1.4-.267,2.819-.5,4.228-.7.458-1.229.9-2.487,1.3-3.744a15.173,15.173,0,0,0,.709-3.986l-.518-.808a1.026,1.026,0,0,0-.871-.188H112.1a19.981,19.981,0,0,0-4.894,1.631,23.41,23.41,0,0,1-4.761,1.7Zm11.2-4.052.027.022.06.05.774,1.208-.005.156a16.2,16.2,0,0,1-.763,4.414c-.44,1.364-.918,2.731-1.419,4.062q.77-.107,1.545-.187l.074-.237c.345-1.1.7-2.21,1.052-3.286a27.29,27.29,0,0,0,.846-3.264,8.089,8.089,0,0,0-.123-2.052l-.43-.543-1.026-.342Zm-4.616.356a19.918,19.918,0,0,0-2.495.777c-1.352.521-2.706,1.1-4.029,1.712a22.336,22.336,0,0,0,4.266-1.552A20.611,20.611,0,0,1,109.027-16.307ZM43.748-7.379a6.988,6.988,0,0,1-.895-.059L42.418-7.5v-.943l.394-.525c-1.041.246-2.068.541-3.064.88a10.25,10.25,0,0,1-3.309.524c-.234,0-.474-.007-.715-.021l.008.068H32.5l-.082-.4a26.11,26.11,0,0,1-.449-3.145c-.087-1.063-.131-2.167-.131-3.281v-.044l.5-2.789h3.174v.962l-.179.934,2.5-1.29.069-2.569-.146-1.122h3.4V-17.5l.686-.163,3.6,0a3.381,3.381,0,0,1,2.031.878l.08.071.1.225.317.264.047.115a5.562,5.562,0,0,1,.373,2.476l-.005.047A11.317,11.317,0,0,1,47.48-10.6a16.917,16.917,0,0,1-1.589,2.725l-.091.128-.148.053A5.666,5.666,0,0,1,43.748-7.379Zm1.112-9.284a2.939,2.939,0,0,1,.387.294l.068.061.747,1.434v.122a8.495,8.495,0,0,1-.7,3.442A22.364,22.364,0,0,1,43.8-8.379a4.707,4.707,0,0,0,1.374-.21,15.875,15.875,0,0,0,1.4-2.432,10.32,10.32,0,0,0,.825-2.7,4.622,4.622,0,0,0-.258-1.9l-.3-.252-.106-.238a2.355,2.355,0,0,0-1.346-.557ZM33.322-8.512H34.6l-.427-3.461v-1.853h.5a4.5,4.5,0,0,0,3.233-1.289l.145-.137h.855v3.132l-1.309.374q.246-.032.486-.076l.045-.008h.694l.165.881-.1,2-.992.291a8.671,8.671,0,0,0,1.528-.366q.621-.212,1.258-.4H40.24v-3.14l.673-.178H40.24v-3.546l.378-.109h-.455v-2.852H38.9l.009.07-.087,3.238-3.793,1.954h-.959l.416-2.178H33.175l-.334,1.877c0,1.072.044,2.134.128,3.156A25.292,25.292,0,0,0,33.322-8.512Zm2.019-2.171.206,1.668,2.379-.7.053-1.076a11.624,11.624,0,0,1-1.783.135c-.236,0-.478-.007-.72-.02Zm5.9-1.118v1.362l2.592-.086v.081q.329-.629.611-1.269a7.473,7.473,0,0,0,.618-2.918l-.546-1.049a1.876,1.876,0,0,0-1.355-.417l-1.919.554v1.791l2.748-.092v1.317Zm-6.066-1.046v.753l2.733-.781v-.951A5.439,5.439,0,0,1,35.174-12.846Zm.038-7.12c-.324,0-.659-.014-1-.043l-.458-.039V-21.29l.351-.109a44.99,44.99,0,0,1,4.8-1.206,19.529,19.529,0,0,1,3.7-.345c.494,0,1,.017,1.509.052l.046,0,1.289.331.135,1.31-.858,1.014H41.744v-.979l.049-.079a18.374,18.374,0,0,0-3.429.823A9.572,9.572,0,0,1,35.212-19.966ZM37.9-21.374q-.629.14-1.254.3A8.063,8.063,0,0,0,37.9-21.374Zm5.034.133h1.336l.283-.334-.02-.194L44-21.9c-.216-.014-.431-.025-.645-.033Z" transform="translate(146.864 160.972)" fill="#252525"/><path d="M26.289-20.9l-1.918-.259V-21.8l1.348-3.655H27.3l.648.078v.415a18.09,18.09,0,0,0-1.167,3.5H27.87v.415Zm-4.148,0-1.918-.259V-21.8l1.348-3.655h1.581l.648.078v.415a18.09,18.09,0,0,0-1.167,3.5h1.089v.415Z" transform="translate(115.012 161.207)" fill="#ef561d"/><path d="M26.28-20.394l-2.057-.278v.072l-2.09.206-2.409-.326v-1.174l1.5-4.066h1.96l1.118.134v.966l-.045.1a17.514,17.514,0,0,0-.986,2.793H23.9L25.37-25.96h1.96l1.118.134v.966l-.045.1a17.514,17.514,0,0,0-.986,2.793h.953V-20.6Zm-1.409-1.2,1.385.187.039-.171a18.744,18.744,0,0,1,1.1-3.368l-.121-.015h-1.2l-1.2,3.244Zm-4.148,0,1.385.187.039-.171a18.745,18.745,0,0,1,1.1-3.368l-.121-.015h-1.2l-1.2,3.244Z" transform="translate(115.012 161.207)" fill="#e9541e"/><path d="M3.476-25.944l1.918.259v.648L4.046-21.382H2.464l-.648-.078v-.415a18.09,18.09,0,0,0,1.167-3.5H1.894v-.415Zm4.148,0,1.918.259v.648L8.194-21.382H6.612l-.648-.078v-.415a18.09,18.09,0,0,0,1.167-3.5H6.042v-.415Z" transform="translate(266.803 161.276)" fill="#ef561d"/><path d="M3.485-26.448l2.057.278v-.072l2.09-.206,2.409.326v1.174l-1.5,4.066H6.582l-1.118-.134v-.966l.045-.1a17.513,17.513,0,0,0,.986-2.793H5.867L4.394-20.882H2.435l-1.118-.134v-.966l.045-.1a17.512,17.512,0,0,0,.986-2.793H1.394v-1.368Zm1.409,1.2-1.385-.187-.039.171a18.743,18.743,0,0,1-1.1,3.368l.121.015H3.7l1.2-3.244Zm4.148,0-1.385-.187-.039.171a18.744,18.744,0,0,1-1.1,3.368l.121.015h1.2l1.2-3.244Z" transform="translate(266.803 161.276)" fill="#e9541e"/><path d="M0,0H375V5H0Z" transform="translate(0 311)" fill="url(#a)"/></g></svg>