<svg xmlns="http://www.w3.org/2000/svg" width="21.09" height="23.106" viewBox="0 0 21.09 23.106"><path d="M11.5-1.026l2.358-.18,2.3,3.612H13.7ZM5.976,0A5.149,5.149,0,0,1,3.684-.477,3.332,3.332,0,0,1,2.2-1.893,4.748,4.748,0,0,1,1.68-4.206V-16.464a4.944,4.944,0,0,1,.5-2.337,3.238,3.238,0,0,1,1.476-1.422A5.3,5.3,0,0,1,6.006-20.7h6.762a5.243,5.243,0,0,1,2.3.465,3.264,3.264,0,0,1,1.476,1.413,4.886,4.886,0,0,1,.516,2.358V-4.206A4.736,4.736,0,0,1,16.548-1.9,3.358,3.358,0,0,1,15.069-.48a5.108,5.108,0,0,1-2.3.48Zm6.312-2.076a2.287,2.287,0,0,0,1.728-.654,2.636,2.636,0,0,0,.63-1.9V-16.044a2.729,2.729,0,0,0-.6-1.908,2.441,2.441,0,0,0-1.884-.654H10.386a2.41,2.41,0,0,0-1.893.678,2.737,2.737,0,0,0-.6,1.884V-4.632a2.531,2.531,0,0,0,.675,1.9,2.458,2.458,0,0,0,1.791.657Zm7.3-.528h3.18V0H19.59Z" transform="translate(-1.68 20.7)" fill="#ef561d"/></svg>