<svg xmlns="http://www.w3.org/2000/svg" width="103" height="36" viewBox="0 0 103 36"><g transform="translate(-909 -4339)"><path d="M4,0H99a4,4,0,0,1,4,4V32a4,4,0,0,1-4,4H4a4,4,0,0,1-4-4V4A4,4,0,0,1,4,0Z" transform="translate(909 4339)" fill="#fff"/><path d="M4,1A3,3,0,0,0,1,4V32a3,3,0,0,0,3,3H99a3,3,0,0,0,3-3V4a3,3,0,0,0-3-3H4M4,0H99a4,4,0,0,1,4,4V32a4,4,0,0,1-4,4H4a4,4,0,0,1-4-4V4A4,4,0,0,1,4,0Z" transform="translate(909 4339)" fill="#ef561f"/><path d="M5.616.252a7.058,7.058,0,0,1-2.61-.5,6.813,6.813,0,0,1-2.25-1.44l1.53-1.836A5.678,5.678,0,0,0,3.9-2.457a4.34,4.34,0,0,0,1.773.4,2.571,2.571,0,0,0,1.584-.414,1.333,1.333,0,0,0,.54-1.116,1.17,1.17,0,0,0-.261-.8,2.418,2.418,0,0,0-.711-.531,11.082,11.082,0,0,0-1.044-.468L4.014-6.156a5.883,5.883,0,0,1-1.287-.729A3.759,3.759,0,0,1,1.7-8.046,3.294,3.294,0,0,1,1.3-9.72a3.381,3.381,0,0,1,.594-1.962,4.168,4.168,0,0,1,1.638-1.377A5.318,5.318,0,0,1,5.9-13.572a5.972,5.972,0,0,1,2.286.45A5.618,5.618,0,0,1,10.1-11.844l-1.35,1.656A5.261,5.261,0,0,0,7.434-11a3.907,3.907,0,0,0-1.53-.288,2.312,2.312,0,0,0-1.377.369,1.2,1.2,0,0,0-.513,1.035,1.085,1.085,0,0,0,.288.774,2.528,2.528,0,0,0,.756.531q.468.225,1.026.459l1.746.7a5.473,5.473,0,0,1,1.413.81,3.4,3.4,0,0,1,.936,1.17,3.755,3.755,0,0,1,.333,1.656,3.646,3.646,0,0,1-.585,2A4.2,4.2,0,0,1,8.253-.306,5.727,5.727,0,0,1,5.616.252ZM15.012,0V-11.106H11.268v-2.232h10.17v2.232H17.676V0Zm8.6,0V-13.338h8.172v2.232H26.28v3.078h4.662V-5.8H26.28v3.564h5.706V0Zm11.07,0V-13.338H39.06a8.312,8.312,0,0,1,2.655.4,3.812,3.812,0,0,1,1.872,1.3,4.021,4.021,0,0,1,.693,2.493,4.219,4.219,0,0,1-.693,2.493A4.084,4.084,0,0,1,41.733-5.2a6.9,6.9,0,0,1-2.6.468H37.35V0ZM37.35-6.84h1.6a3.086,3.086,0,0,0,2.043-.576,2.146,2.146,0,0,0,.675-1.728,1.769,1.769,0,0,0-.711-1.611,3.9,3.9,0,0,0-2.1-.459H37.35Z" transform="translate(919 4365)" fill="#ef561f"/><path d="M5.578,0A4.805,4.805,0,0,1,3.439-.445,3.11,3.11,0,0,1,2.05-1.767a4.432,4.432,0,0,1-.482-2.159V-15.366a4.615,4.615,0,0,1,.468-2.181,3.022,3.022,0,0,1,1.378-1.327,4.949,4.949,0,0,1,2.192-.445h6.311a4.894,4.894,0,0,1,2.151.434,3.046,3.046,0,0,1,1.377,1.319,4.56,4.56,0,0,1,.481,2.2V-3.926a4.42,4.42,0,0,1-.481,2.153,3.134,3.134,0,0,1-1.38,1.324A4.768,4.768,0,0,1,11.917,0Zm5.891-1.938a2.135,2.135,0,0,0,1.613-.61,2.46,2.46,0,0,0,.588-1.775V-14.974a2.547,2.547,0,0,0-.56-1.781,2.278,2.278,0,0,0-1.758-.611H9.694a2.249,2.249,0,0,0-1.767.633,2.555,2.555,0,0,0-.563,1.759V-4.323a2.362,2.362,0,0,0,.63,1.773,2.294,2.294,0,0,0,1.672.613ZM19.068,0V-3.8a5.572,5.572,0,0,1,.26-1.879A4.971,4.971,0,0,1,20.4-7.252l6.378-6.625a2.5,2.5,0,0,0,.546-.779,2.231,2.231,0,0,0,.137-.812v-.246a1.629,1.629,0,0,0-.423-1.2,1.8,1.8,0,0,0-1.33-.429H20V-19.32H30.19a3.537,3.537,0,0,1,1.722.42,3.1,3.1,0,0,1,1.207,1.159,3.239,3.239,0,0,1,.437,1.68v.515a5.239,5.239,0,0,1-.224,1.638,4.619,4.619,0,0,1-.739,1.347,7.741,7.741,0,0,1-.6.705L25.917-5.589l-.073.073a2.528,2.528,0,0,0-.535.747,1.966,1.966,0,0,0-.159.793v1.994h7.974V0Z" transform="translate(967 4367)" fill="#ef561f"/></g></svg>