<svg xmlns="http://www.w3.org/2000/svg" viewBox="0 0 103.76 50"><defs><style>.cls-1{fill:#eee021;}.cls-2{fill:#22a773;}</style></defs><g id="レイヤー_2" data-name="レイヤー 2"><g id="design"><circle class="cls-1" cx="78.76" cy="25" r="25"/><path class="cls-2" d="M68.6,34q4.8-3.43,7.67-5.69a37.69,37.69,0,0,0,5-4.61,9.29,9.29,0,0,0,2.45-4.52,5.32,5.32,0,0,0,.13-1.14,2.59,2.59,0,0,0-.68-1.94,2.81,2.81,0,0,0-2-.67c-2.27,0-3.71,1.61-4.32,4.81H69.43a13.56,13.56,0,0,1,4.79-8.36,13.36,13.36,0,0,1,8.36-2.8c3,0,5.32.7,6.81,2.08a7.13,7.13,0,0,1,2.23,5.47,9.77,9.77,0,0,1-.18,1.94A15.75,15.75,0,0,1,86.79,27a66.09,66.09,0,0,1-9.55,7.77H89.15L88,40.88H65.91l1-5.61Z"/><path class="cls-2" d="M3.33,40A5.59,5.59,0,0,1,.9,38.22a4.49,4.49,0,0,1-.9-2.8q0-.21.06-.75H3.45A2.74,2.74,0,0,0,4.25,37a3.65,3.65,0,0,0,2.67.92,4.86,4.86,0,0,0,2.91-.77,2.55,2.55,0,0,0,1.05-2.2,2.2,2.2,0,0,0-.53-1.48,4.45,4.45,0,0,0-1.32-1,22.49,22.49,0,0,0-2.2-1,28.69,28.69,0,0,1-3-1.41A6,6,0,0,1,2,28.26a4.67,4.67,0,0,1-.79-2.79,5.58,5.58,0,0,1,1-3.25,6.14,6.14,0,0,1,2.65-2.14,9.33,9.33,0,0,1,3.82-.75,8.77,8.77,0,0,1,3.67.71,5.14,5.14,0,0,1,2.34,2,5.08,5.08,0,0,1,.7,3h-3.6a2.38,2.38,0,0,0-.74-2,3.52,3.52,0,0,0-2.52-.82,4.42,4.42,0,0,0-2.77.79,2.56,2.56,0,0,0-1,2.14,2.19,2.19,0,0,0,.53,1.46,4.55,4.55,0,0,0,1.33,1c.54.29,1.27.63,2.19,1a32.42,32.42,0,0,1,3,1.5,6.27,6.27,0,0,1,1.93,1.78,4.61,4.61,0,0,1,.81,2.77,5.25,5.25,0,0,1-1,3.1,6.34,6.34,0,0,1-2.69,2.13,9.83,9.83,0,0,1-4,.76A9.09,9.09,0,0,1,3.33,40Z"/><path class="cls-2" d="M32.63,19.6l-.48,2.67H26.61L23.4,40.42H20L23.2,22.27H17.62l.48-2.67Z"/><path class="cls-2" d="M37.9,22.24l-1.11,6.32H44l-.44,2.64h-7.2l-1.16,6.56h8.09l-.48,2.66H31.28L35,19.57h11.5L46,22.24Z"/><path class="cls-2" d="M61.76,28.8A7.29,7.29,0,0,1,59,31.09a9.86,9.86,0,0,1-4.38.88H50.81l-1.5,8.45H45.9L49.58,19.6h7.19A7.18,7.18,0,0,1,61.54,21a4.61,4.61,0,0,1,1.61,3.64A8.45,8.45,0,0,1,63,25.8,7.19,7.19,0,0,1,61.76,28.8Zm-3.63-.42a4.07,4.07,0,0,0,1.4-2.58,4.43,4.43,0,0,0,.09-.87,2.44,2.44,0,0,0-.83-2,3.77,3.77,0,0,0-2.5-.7H52.52l-1.23,7h3.77A4.65,4.65,0,0,0,58.13,28.38Z"/></g></g></svg>