<svg xmlns="http://www.w3.org/2000/svg" viewBox="0 0 651.77 264.3"><defs><style>.cls-1{fill:#ff0;}.cls-2{fill:none;stroke:#fff;stroke-miterlimit:10;stroke-width:1.42px;}.cls-3{fill:#fff;}.cls-4{fill:#e85513;}</style></defs><g id="レイヤー_2" data-name="レイヤー 2"><g id="design"><path class="cls-1" d="M7.8,98a34.36,34.36,0,0,1-2.95,2.6A57,57,0,0,0,0,96.65a30.75,30.75,0,0,0,10.35-12l5.8,1.7a26.92,26.92,0,0,1-1.95,3.5h30v5.25H39.5v6.41H46v5.3H39.5v6.35h5.8v5.3H1.85v-5.3H7.8v-6.35H1.1v-5.3H7.8ZM.6,129.16a24.64,24.64,0,0,0,5.6-9.6L12,121a27.36,27.36,0,0,1-5.7,10.5Zm12.45-27.6h3.6V95.15h-3.6Zm0,11.65h3.6v-6.35h-3.6Zm7.6,7.45A65.41,65.41,0,0,1,21.9,130l-5.8.85a63.47,63.47,0,0,0-1-9.55Zm4.65-19.1V95.15H21.6v6.41Zm-3.7,5.3v6.35h3.7v-6.35Zm9,13.6a55.72,55.72,0,0,1,2.9,9.3l-5.95,1.15a53.28,53.28,0,0,0-2.55-9.5Zm3.4-25.31h-3.8v6.41h3.8Zm0,11.71h-3.8v6.35h3.8Zm6.6,12.5a67.82,67.82,0,0,1,6.3,10l-6.1,2A64.4,64.4,0,0,0,35,121.16Z"/><path class="cls-1" d="M71.74,120.21a66.79,66.79,0,0,0-3.6-6.5v17.55h-5.5V113.61c-1.6,4.65-3.6,9.3-5.75,12.3a35.33,35.33,0,0,0-2.7-6.15c2.5-3.05,5.05-8.4,6.6-13h-5.7v-5.55h7.55V84.9h5.5v16.36h7.4v5.55h-7.4v.35c1.45,1.45,6.2,7,7.25,8.45ZM57.29,100.36A49.52,49.52,0,0,0,55,88.8l4.15-1.1a50.09,50.09,0,0,1,2.55,11.46ZM76.44,88.55c-1.3,4-2.75,8.75-4,11.66l-3.75-1a93.58,93.58,0,0,0,2.75-11.71Zm19.4,29.31v13.5h-5.6v-12.5l-13.95,2.5-.9-5.55,14.85-2.65V84.65h5.6v27.51l5.1-1,.9,5.55ZM78.74,99.71a41.76,41.76,0,0,1,8.4,5.75l-3,4.75a42.28,42.28,0,0,0-8.2-6.25ZM86,97.91a39.89,39.89,0,0,0-7.75-6.51l2.85-4a37.57,37.57,0,0,1,8,6Z"/><path class="cls-1" d="M130.22,91.4c-.05,1.55-.1,3-.2,4.5h9.4a23.24,23.24,0,0,0,3.75-.35l4.35,2.1a20.8,20.8,0,0,0-.35,2.66c-.2,5.4-.8,19.35-2.95,24.45-1.1,2.55-3,3.85-6.45,3.85-2.85,0-5.85-.2-8.25-.4l-.8-6.7a41.38,41.38,0,0,0,7,.7,2.66,2.66,0,0,0,2.85-1.75c1.45-3.15,2.1-13.15,2.1-18.55H129.42c-1.85,13.2-6.6,21-15.55,27.4l-5.8-4.7a29.79,29.79,0,0,0,6.55-4.9c4.65-4.6,7.15-10.2,8.25-17.8h-6.6c-1.7,0-4.45,0-6.6.2V95.55c2.1.2,4.7.35,6.6.35h7.15c0-1.4.1-2.85.1-4.35a37,37,0,0,0-.35-4.6h7.35C130.37,88.1,130.27,90.2,130.22,91.4Z"/><path class="cls-1" d="M182.47,90.8v3.85h8.7a12.16,12.16,0,0,0,4.15-.55l4.35,2.65a34,34,0,0,0-1,4A46.57,46.57,0,0,1,194,114.91c-4,7.4-11.5,12.7-20.4,15l-5.2-6a40.72,40.72,0,0,0,7.05-2,24.48,24.48,0,0,0,11.35-8.55c2.55-3.65,3.85-8.4,4.45-12.85h-24.8v7.3c0,1.15.05,2.7.15,3.7h-6.9a37.92,37.92,0,0,0,.25-4.2V98.71a32.07,32.07,0,0,0-.25-4.31,41.48,41.48,0,0,0,5.1.25h10.7V90.8a24.7,24.7,0,0,0-.4-4.6h7.7A36.34,36.34,0,0,0,182.47,90.8Z"/><path class="cls-1" d="M228.67,115.81c8.55-5,15.05-12.7,18.2-19.46l3.9,7.06a53.17,53.17,0,0,1-18.5,18.5A54.15,54.15,0,0,1,213.72,129l-4.2-6.6A51.53,51.53,0,0,0,228.67,115.81Zm0-16.15-5.1,5.2a104,104,0,0,0-12.5-10.81l4.7-5A100.22,100.22,0,0,1,228.67,99.66Z"/><path class="cls-1" d="M271.69,106.76c-4.45.9-8.4,1.7-10.5,2.2L260,102.41c2.36-.3,6.76-1,11.71-2V93.3a43.24,43.24,0,0,0-.4-5.75h7.45a52.55,52.55,0,0,0-.45,5.75v5.91c7.3-1.41,14.3-2.81,16.55-3.36a14.1,14.1,0,0,0,3.55-1.15l4.8,3.71c-.45.7-1.2,1.85-1.65,2.75-2.2,4.15-6.75,11-10.35,14.55l-5.5-3.25a42.58,42.58,0,0,0,8-10.15c-1.55.35-8.3,1.65-15.4,3.1v13.25c0,3.1.9,4.2,6.4,4.2a81.68,81.68,0,0,0,15.75-1.7l-.2,6.8a117.53,117.53,0,0,1-15.5,1.1c-11.4,0-13.05-2.75-13.05-8.65Z"/><path class="cls-1" d="M323.46,92.5v16.91c0,1.25.05,3.2.15,4.35h-7.25c.05-1,.25-2.9.25-4.4V92.5a35.5,35.5,0,0,0-.2-3.85h7.2C323.51,89.8,323.46,90.9,323.46,92.5Zm23.15.75v9.91c0,10.75-2.1,15.4-5.8,19.5-3.3,3.6-8.5,6.05-12.15,7.2l-5.2-5.5c5-1.15,9-3,12-6.3,3.45-3.75,4.1-7.5,4.1-15.3V93.25a35.27,35.27,0,0,0-.3-5h7.55C346.71,89.65,346.61,91.25,346.61,93.25Z"/><path class="cls-1" d="M379,115.81c8.55-5,15-12.7,18.2-19.46l3.9,7.06a53.17,53.17,0,0,1-18.5,18.5A54.15,54.15,0,0,1,364.09,129l-4.2-6.6A51.53,51.53,0,0,0,379,115.81Zm0-16.15-5.1,5.2a104,104,0,0,0-12.5-10.81l4.7-5A100.22,100.22,0,0,1,379,99.66Z"/><path class="cls-1" d="M449.82,93l-3.7,1.55,4.25,2.61a20,20,0,0,0-1.65,3.6A50.76,50.76,0,0,1,440,117.36c-4.75,5.85-10.75,10.4-20.15,14.15l-5.9-5.3c10.2-3,15.75-7.4,20.15-12.4a35.37,35.37,0,0,0,7.1-13.6H427.12a56.18,56.18,0,0,1-12.65,12.1l-5.6-4.2A43.25,43.25,0,0,0,424.47,92a22.62,22.62,0,0,0,2.25-5.2l7.35,2.4A51.87,51.87,0,0,0,431,94.3c0,.1-.1.15-.15.25h10a15.75,15.75,0,0,0,4.35-.6l.35.2a58,58,0,0,0-3.65-6.45l3.95-1.6A63.56,63.56,0,0,1,449.82,93Zm6-2.3-3.95,1.7a53,53,0,0,0-4.05-6.9l3.95-1.6A71.39,71.39,0,0,1,455.82,90.65Z"/><path class="cls-1" d="M491.73,119.16c3.55,4,9.15,6.3,17,7.15a23.13,23.13,0,0,0-3.5,5.2c-9.5-1.5-15.45-5-19.4-11.25-2.95,4.45-8.5,8.4-18.7,11.15a24.26,24.26,0,0,0-3.7-4.8c8.4-1.9,13.2-4.5,15.95-7.45H464.38V114h17.95a22.92,22.92,0,0,0,.5-3.15H470v-4.8h12.85v-3H469.23v-3.3h-4.45V89.1H483V84.75h6.1V89.1h18.3V99.76h-4v3.3h-14.6v3h13.6v4.8H488.78a17,17,0,0,1-.4,3.15h19.75v5.15Zm-8.85-20.9V95.4h5.95v2.86h12.45v-4h-30.6v4Z"/><path class="cls-1" d="M557,126.31c1.95,0,2.35-.85,2.65-5.25a16.38,16.38,0,0,0,4.8,2c-.65,6.25-2.15,8.15-7,8.15h-8.75c-5.9,0-7.5-1.6-7.5-7.3v-9.6l-2,1-2.05-4.85c-.2,12.25-.55,17.05-1.7,18.65a4.48,4.48,0,0,1-3.2,2,26.14,26.14,0,0,1-5.15.25,14,14,0,0,0-1.45-5.3,27.93,27.93,0,0,0,3.6.2,1.45,1.45,0,0,0,1.45-.8c.65-1,.95-5.2,1.15-17h-3.9c-.7,9-2.3,17.1-6.45,22.8a17.65,17.65,0,0,0-4.25-4.15c5-6.85,5.4-17.85,5.55-29.41h-4.8V92.3h7.65V84.75h5.7V92.3h7.8v3.75a36.12,36.12,0,0,0,4.45-11.35l5.85,1.1c-.4,1.75-1,3.5-1.5,5.2h15.7v5.4H545.61a32.17,32.17,0,0,1-2.85,4.86h3.65v4.8l2.7-1.25V97.65h4.95v4.86l3.6-1.65.2-.15.9-.65,3.7,1.3-.2.8c0,7.1,0,12.2-.2,13.7a3.51,3.51,0,0,1-2.15,3.45,11.43,11.43,0,0,1-4.15.55,13.54,13.54,0,0,0-1-4.35c.6,0,1.3,0,1.7,0s.65-.1.7-.75c.1-.45.1-3.2.15-8l-3.2,1.5v14h-4.95V110.66l-2.7,1.25v12c0,2.05.35,2.35,2.85,2.35Zm-15.8-17.8v-5.2l-.45.5a32.43,32.43,0,0,0-4.45-4.2,17.65,17.65,0,0,0,1.6-1.81h-9.55c0,1.81-.1,3.61-.15,5.36h9v2.25l-.1,5Z"/><path class="cls-1" d="M614.75,93.35v25H608.5v-2.5H597.2v15.6h-6.3v-15.6H579.65v2.75h-6V93.35H590.9V84.7h6.3v8.65ZM590.9,110V99.21H579.65V110Zm17.6,0V99.21H597.2V110Z"/><path class="cls-1" d="M626.75,123a4.58,4.58,0,1,1,9.15,0,4.58,4.58,0,1,1-9.15,0Zm1.1-27-.25-7H635l-.25,7-1,18.46h-4.8Z"/><path class="cls-1" d="M641.25,123a4.58,4.58,0,1,1,9.15,0,4.58,4.58,0,1,1-9.15,0Zm1.1-27-.25-7h7.4l-.25,7-1,18.46h-4.8Z"/><line class="cls-2" x1="1.78" y1="161.15" x2="651.77" y2="161.15"/><polygon class="cls-3" points="177.75 262.09 180.34 262.09 180.34 242.25 192.41 242.25 192.41 239.66 180.34 239.66 180.34 236.2 177.75 236.2 177.75 239.66 166.52 239.66 166.52 242.25 177.75 242.25 177.75 262.09"/><polygon class="cls-3" points="106.95 244.09 106.95 236.2 104.36 236.2 104.36 262.09 106.95 262.09 106.95 246.95 120.93 253.46 127.23 253.46 127.23 250.88 121.5 250.88 106.95 244.09"/><rect class="cls-3" x="199.31" y="238.82" width="13.01" height="2.59"/><polygon class="cls-3" points="172.23 246.87 169.68 246.42 167.53 258.64 164.81 258.64 164.81 261.23 169.7 261.23 172.23 246.87"/><polygon class="cls-3" points="189.26 246.42 186.71 246.87 189.24 261.23 194.14 261.23 194.14 258.64 191.42 258.64 189.26 246.42"/><polygon class="cls-3" points="133.96 260.06 136.08 261.54 142.36 252.58 142.36 243.12 155.31 243.12 155.31 259.5 148.83 259.5 148.83 262.09 157.9 262.09 157.9 240.53 142.36 240.53 142.36 236.2 139.77 236.2 139.77 240.53 133.73 240.53 133.73 243.12 139.77 243.12 139.77 251.76 133.96 260.06"/><polygon class="cls-3" points="223.48 252.46 223.48 236.2 220.89 236.2 220.89 251.65 215.38 259.52 198.48 259.52 198.48 262.11 216.72 262.11 223.48 252.46"/><rect class="cls-3" x="158.76" y="234.48" width="2.59" height="2.59"/><rect class="cls-3" x="154.44" y="234.48" width="2.59" height="2.59"/><rect class="cls-3" x="122.5" y="237.07" width="2.59" height="2.59"/><rect class="cls-3" x="118.18" y="237.07" width="2.59" height="2.59"/><path class="cls-3" d="M189,238.79h5.17v-5.18H189Zm1.72-3.45h1.73v1.73H190.7Z"/><rect class="cls-3" x="263.3" y="247.83" width="24.17" height="2.59"/><rect class="cls-3" x="328.03" y="237.48" width="23.3" height="2.59"/><polygon class="cls-3" points="327.17 249.55 341.84 249.55 341.84 254.43 338.01 259.91 328.03 259.91 328.03 262.5 339.35 262.5 344.43 255.25 344.43 249.55 353.07 249.55 353.07 246.97 327.17 246.97 327.17 249.55"/><polygon class="cls-3" points="527.41 245.42 527.41 241.78 531.73 241.78 531.73 239.19 527.41 239.19 527.41 234.01 524.82 234.01 524.82 239.19 520.5 239.19 520.5 241.78 524.82 241.78 524.82 243.41 519.89 255.21 522.28 256.2 524.82 250.13 524.82 264.23 527.41 264.23 527.41 249.26 530.51 252.66 532.42 250.91 527.41 245.42"/><rect class="cls-3" x="393.62" y="239.21" width="13.01" height="2.59"/><polygon class="cls-3" points="415.19 252.04 409.68 259.91 392.79 259.91 392.79 262.5 411.03 262.5 417.78 252.86 417.78 236.59 415.19 236.59 415.19 252.04"/><rect class="cls-3" x="476.93" y="245.93" width="2.59" height="19.18" transform="translate(-62.35 297.56) rotate(-32.56)"/><polygon class="cls-3" points="364.1 251.28 361.69 251.28 361.69 253.87 364.79 253.87 372.7 249.3 372.7 263.39 375.3 263.39 375.3 247.81 381.24 244.38 384.14 244.38 384.14 241.79 380.55 241.79 364.1 251.28"/><polygon class="cls-3" points="228.78 240.06 252.94 240.06 252.94 247.39 240.17 254.77 235.66 246.96 231.36 246.96 231.36 249.55 234.16 249.55 242.44 263.88 244.68 262.59 241.46 257.01 255.53 248.89 255.53 237.47 228.78 237.47 228.78 240.06"/><polygon class="cls-3" points="301.79 236.6 299.32 235.82 295.55 247.83 293.52 247.83 293.52 250.42 297.45 250.42 299.62 243.52 315.08 243.52 315.08 253.49 310.59 259.91 297.83 259.91 297.83 262.5 311.94 262.5 317.67 254.31 317.67 243.52 321.12 243.52 321.12 240.93 300.43 240.93 301.79 236.6"/><polygon class="cls-3" points="484.24 241.79 471.3 241.79 471.3 234.88 468.71 234.88 468.71 241.79 455.76 241.79 455.76 244.38 467.64 244.38 455.97 262.66 458.15 264.05 470.71 244.38 484.24 244.38 484.24 241.79"/><polygon class="cls-3" points="548.98 236.62 542.06 236.62 542.06 234.01 539.47 234.01 539.47 236.62 532.56 236.62 532.56 239.21 548.98 239.21 548.98 236.62"/><polygon class="cls-3" points="427.24 244.38 423.84 244.38 423.84 246.97 428.59 246.97 433.43 240.06 447.15 240.06 447.15 251 440.91 259.91 428.14 259.91 428.14 262.5 442.25 262.5 449.74 251.82 449.74 237.47 432.08 237.47 427.24 244.38"/><rect class="cls-3" x="449.73" y="234.02" width="2.59" height="2.59"/><rect class="cls-3" x="445.41" y="234.02" width="2.59" height="2.59"/><polygon class="cls-3" points="514.45 235.2 511.95 234.53 510.69 239.2 504.23 239.2 502.98 234.53 500.48 235.2 501.55 239.2 495.96 239.2 494.71 234.53 492.21 235.2 493.28 239.2 488.57 239.2 488.57 245.25 491.16 245.25 491.16 241.79 515.31 241.79 515.31 245.25 517.9 245.25 517.9 239.2 513.38 239.2 514.45 235.2"/><rect class="cls-3" x="530.23" y="243.3" width="9.52" height="2.59" transform="translate(101.95 642.75) rotate(-67.17)"/><rect class="cls-3" x="544.85" y="239.84" width="2.59" height="9.52" transform="translate(-52.12 231.05) rotate(-22.83)"/><polygon class="cls-3" points="546.08 248.91 544.04 247.31 540.57 251.75 537.11 247.31 535.07 248.91 538.93 253.85 532.13 262.55 534.17 264.15 540.57 255.95 546.97 264.15 549.01 262.55 542.21 253.85 546.08 248.91"/><polygon class="cls-3" points="504.95 251.92 511.88 247.92 511.88 245.24 493.74 245.24 493.74 247.83 506.86 247.83 502.36 250.43 502.36 253.01 488.58 253.01 488.58 255.6 502.36 255.6 502.36 261.63 496.35 261.63 496.35 264.22 504.95 264.22 504.95 255.6 517.9 255.6 517.9 253.01 504.95 253.01 504.95 251.92"/><path class="cls-3" d="M160.76,192.68l.72-.72,21.65,21.65-.72.72Z"/><path class="cls-3" d="M199.89,203.75a24.23,24.23,0,0,0,9.16,7.54,8.78,8.78,0,0,0-1.29,1.48,26.31,26.31,0,0,1-8.91-7.72v9.07H197v-9a26.22,26.22,0,0,1-8.84,7.63,10,10,0,0,0-1.29-1.46,23.92,23.92,0,0,0,9.12-7.56h-8.48V202H197v-4.13h-7.76v-1.75H197V192.2h1.84v3.92h8v1.75h-8V202h9.65v1.75Z"/><path class="cls-3" d="M216.67,206.08a21,21,0,0,1-1.7,6.09,6.63,6.63,0,0,0-1.39-.67,17.42,17.42,0,0,0,1.56-5.71Zm2.62-1.92v10H217.7v-9.89l-3.76.22-.15-1.58,1.59-.08c.5-.64,1.05-1.41,1.58-2.2a22,22,0,0,0-3.1-3.39l.92-1.17c.24.19.45.4.69.62a29,29,0,0,0,2.16-4.47l1.56.63a54.41,54.41,0,0,1-2.71,4.82,18.45,18.45,0,0,1,1.39,1.56,48.65,48.65,0,0,0,2.43-4.29l1.51.67a80.85,80.85,0,0,1-4.78,7.15l3.55-.14a18.26,18.26,0,0,0-1.12-2.16l1.24-.51a18.78,18.78,0,0,1,2.26,4.9l-1.34.6a10.37,10.37,0,0,0-.44-1.39Zm2.09,1.46a22,22,0,0,1,1.53,4.37l-1.37.46a24.06,24.06,0,0,0-1.46-4.4Zm8.73,6.17h5.79v1.61H222.26v-1.61h6.1v-3.91H223.8v-1.61h4.56v-3.46h1.75v3.46h4.73v1.61h-4.73Zm4.73-17.9a14.85,14.85,0,0,1-4.29,6.31,16.14,16.14,0,0,0,5.61,2.33,9.31,9.31,0,0,0-1.1,1.48,17.43,17.43,0,0,1-5.88-2.76,21.29,21.29,0,0,1-5.79,2.81,7.13,7.13,0,0,0-1-1.46,19.09,19.09,0,0,0,5.45-2.47,15.41,15.41,0,0,1-3.41-4.8l1-.32h-2.47v-1.58h10.42l.33-.07ZM226.06,195a12.28,12.28,0,0,0,3.09,4.11,13,13,0,0,0,3.27-4.11Z"/><path class="cls-3" d="M240.51,212.2c.84-1.18,1.13-3.29,1.2-5.31l1.13.22c-.12,2.11-.38,4.39-1.32,5.66ZM250.62,204s0,.46,0,.7c-.24,5.9-.52,8-1.08,8.73a1.71,1.71,0,0,1-1.27.63,18.66,18.66,0,0,1-2.13,0,3.59,3.59,0,0,0-.41-1.42c.81.05,1.56.05,1.87.05a.73.73,0,0,0,.65-.24,6.87,6.87,0,0,0,.57-2.95l-.81.33a14.32,14.32,0,0,0-1.3-3.12l.84-.31a14.53,14.53,0,0,1,1.3,2.9c.09-1,.17-2.25.24-3.86h-7.15V193.19h8.49v1.51h-3.17v2.07h2.67v1.44h-2.67v2.13h2.67v1.44h-2.67V204Zm-6.29,3.19a23.92,23.92,0,0,1,.38,4.37l-1,.14a23.76,23.76,0,0,0-.34-4.39Zm-.89-12.48v2.07h2.33V194.7Zm2.33,3.51h-2.33v2.13h2.33ZM243.44,204h2.33v-2.21h-2.33Zm2.62,7a19.09,19.09,0,0,0-.94-3.86l.89-.2a16.67,16.67,0,0,1,1,3.82Zm11.11-18.75A17,17,0,0,0,263.1,198a11,11,0,0,0-.94,1.51,19.6,19.6,0,0,1-5.71-5.69,18.11,18.11,0,0,1-5.66,5.91,6.71,6.71,0,0,0-.89-1.39,15.35,15.35,0,0,0,5.66-6.13Zm.75,15.22a9,9,0,0,0,5,5.23,6.79,6.79,0,0,0-1.13,1.42,10.24,10.24,0,0,1-5.09-5.78c-.74,2.18-2.33,4.22-5.64,5.8a5.72,5.72,0,0,0-1.13-1.24c3.24-1.49,4.68-3.41,5.33-5.43h-4v-5.9h4.42v-1.9h-2.86v-1.46h7.42v1.46h-3v1.9h4.56v5.9Zm-2.36-1.37a15.62,15.62,0,0,0,.15-2.35v-.79H252.8v3.14Zm1.73-3.14v.82a18,18,0,0,1-.12,2.32h3.12v-3.14Z"/><path class="cls-3" d="M276.24,195c-.14.69-.36,2.11-.62,3.43,1.13-.1,2.13-.17,2.71-.17,2.14,0,3.89.82,3.89,4.06,0,2.85-.39,6.67-1.39,8.66a3.39,3.39,0,0,1-3.51,2,13.19,13.19,0,0,1-2.83-.36l-.31-2a11.34,11.34,0,0,0,2.95.48,2,2,0,0,0,2.09-1.22,20.27,20.27,0,0,0,1.15-7.34c0-2.21-1-2.62-2.54-2.62-.58,0-1.54.07-2.6.17-.89,3.45-2.52,8.88-5,12.93l-2-.76c2.45-3.29,4.25-8.76,5.07-12-1.27.12-2.43.26-3.05.34l-2.16.28-.19-2.08c.74,0,1.37,0,2.13,0s2.21-.15,3.65-.27a24.71,24.71,0,0,0,.63-5.23l2.23.24C276.43,194,276.34,194.51,276.24,195Zm12.94,9.72-1.87.88a28.13,28.13,0,0,0-4.28-8.68l1.76-.8A43.32,43.32,0,0,1,289.18,204.69Z"/><path class="cls-3" d="M297.44,204.57a11.5,11.5,0,0,1,7.82-2.93c3.68,0,6.13,2.21,6.13,5,0,4.3-3.8,7.2-12.73,6.46l-.57-2c7.58.94,11.28-1.25,11.28-4.53,0-1.92-1.78-3.29-4.23-3.29a9.43,9.43,0,0,0-7.44,3.21,4,4,0,0,0-.72,1.2l-1.77-.43a84.64,84.64,0,0,0,1.22-9.74l2,.26C298.11,199.45,297.7,203,297.44,204.57Zm10.83-9.27-.46,1.85c-2.28-.31-7.49-1.37-9.31-1.87l.48-1.83A64.7,64.7,0,0,0,308.27,195.3Z"/><path class="cls-3" d="M338.82,197.34s0,.94,0,1.27c-.22,9.82-.41,13.3-1.18,14.4a2.62,2.62,0,0,1-1.9,1.2,15.82,15.82,0,0,1-3,.1,6.78,6.78,0,0,0-.84-2.74c1,.1,2,.12,2.42.12a.88.88,0,0,0,.82-.4c.5-.65.74-3.58.89-11.33h-2.16c-.32,6.43-1.42,11.37-5.45,14.57a9.44,9.44,0,0,0-1.68-1.9c-3.46.36-6.92.72-9.51.94l-.33-2.4,4.87-.34v-1.44h-4.23v-2h4.23v-.93h-4.13V199h4.13v-.93h-4.73V196h4.73v-1c-1.39.1-2.76.17-4.06.19a8.79,8.79,0,0,0-.62-2,73.39,73.39,0,0,0,10.34-1.18l1.25,2.14c-1.27.26-2.76.48-4.32.65V196H329v1.32h2.26c0-1.58,0-3.24,0-5H334c0,1.76,0,3.44-.05,5Zm-18.91,4.54h1.87v-1.06h-1.87Zm1.87,2.78v-1.08h-1.87v1.08Zm2.59,6c1.37-.09,2.79-.21,4.18-.33,1.87-2.59,2.45-6,2.61-10.32H329v-1.87h-4.61V199h4.25v7.42h-4.25v.93h4.35v2h-4.35Zm1.87-8.73v-1.06h-1.87v1.06Zm-1.87,1.7v1.08h1.87v-1.08Z"/><path class="cls-3" d="M365.36,193.38v2.67H356V198h4.37v10.87H348.9V198h4.2v-1.92h-9.22v-2.67Zm-3.48,4.25h2.76v16.7h-2.76v-1.39h-14.5v1.42H344.6V197.63h2.78v12.62h14.5Zm-10.66,4.68h2.09v-2h-2.09Zm0,4.2h2.09v-2h-2.09Zm6.63-6.22h-2.09v2h2.09Zm0,4.18h-2.09v2h2.09Z"/><path class="cls-3" d="M381.66,213.4l-1.8-2.86a18.24,18.24,0,0,0,2.23-.38c3.07-.72,5.47-2.93,5.47-6.43,0-3.32-1.8-5.79-5-6.34a48.28,48.28,0,0,1-1.44,6.5c-1.44,4.85-3.5,7.83-6.12,7.83s-4.87-2.93-4.87-7c0-5.54,4.8-10.27,11-10.27,6,0,9.7,4.13,9.7,9.36C390.8,208.89,387.71,212.46,381.66,213.4Zm-6.6-5.38c1,0,1.94-1.51,2.92-4.75a36,36,0,0,0,1.28-5.81,7.56,7.56,0,0,0-6.1,7C373.16,206.85,374.12,208,375.06,208Z"/><path class="cls-3" d="M414,191.8a2.87,2.87,0,0,1,0,5.73,1.56,1.56,0,0,1-.31,0c-.07.26-.12.5-.19.72-.56,2.35-1.59,6.07-3.6,8.74a19.27,19.27,0,0,1-9.65,6.64l-2.62-2.88a15.7,15.7,0,0,0,9.41-5.64,15.09,15.09,0,0,0,2.81-6.76H398.66c-1.11,0-2.26,0-2.86.09V195a28.6,28.6,0,0,0,2.86.19h11.11a9.26,9.26,0,0,0,1.37-.1,2.06,2.06,0,0,1-.05-.45A2.89,2.89,0,0,1,414,191.8Zm0,4.25a1.38,1.38,0,1,0-1.39-1.37A1.39,1.39,0,0,0,414,196.05Z"/><path class="cls-3" d="M424.69,195.3h13.2c.6,0,1.52,0,2.38-.05,0,.72,0,1.61,0,2.33v11.76c0,.94,0,3.24,0,3.34H437c0-.05,0-.6,0-1.3H425.41c0,.67,0,1.23,0,1.3h-3.32c0-.12.08-2.21.08-3.36V197.58c0-.67,0-1.65-.05-2.33C423.13,195.28,424,195.3,424.69,195.3Zm.72,13H437v-10h-11.6Z"/><path class="cls-3" d="M447.66,204.11c1.27-1.3,3.29-4,4.71-5.74s2.64-1.87,4.22-.26c1.46,1.46,3.29,3.84,4.82,5.5s3.84,4.1,6,6l-1.53,1.75c-1.8-1.7-4-4.15-5.64-6s-3.39-4.08-4.49-5.33c-1-1.1-1.49-.94-2.33.07-1.13,1.42-3.07,4.06-4.29,5.55-.51.62-1.06,1.34-1.42,1.84l-1.78-1.8A16,16,0,0,0,447.66,204.11Z"/><path class="cls-3" d="M492.79,192.68l-21.65,21.65-.72-.72L492.07,192Z"/><path class="cls-3" d="M116.8,3.1c-.07.4-.16.88-.28,1.41a40.59,40.59,0,0,0,4.34-.84V6.05a42.49,42.49,0,0,1-4.82.81c-.24,1-.51,2.14-.77,3.15a73.91,73.91,0,0,1-3.79,11l-2.62-.89a55.15,55.15,0,0,0,4.08-10.75c.19-.75.38-1.54.58-2.33-.7,0-1.35,0-2,0-1.1,0-2,0-2.85-.1l0-2.35a23.19,23.19,0,0,0,2.93.19c.74,0,1.56,0,2.4-.09.12-.72.24-1.35.28-1.8a9.75,9.75,0,0,0,.1-2.16l2.88.21C117.12,1.63,116.9,2.62,116.8,3.1Zm2.89,13.25c0,1.08.64,2.06,3.72,2.06a27,27,0,0,0,4.8-.48l-.08,2.42a36.51,36.51,0,0,1-4.75.34c-3.91,0-6-1.27-6-3.65a14.52,14.52,0,0,1,.4-3l2.24.22A8.89,8.89,0,0,0,119.69,16.35Zm4-8.24a41.88,41.88,0,0,1,4.2.19l-.08,2.31a30,30,0,0,0-4.08-.31,39.8,39.8,0,0,0-4.53.26V8.33C120.45,8.21,122.11,8.11,123.65,8.11Z"/><path class="cls-3" d="M141.75,3.41c-.1.41-.19.89-.29,1.41A43.4,43.4,0,0,0,145.81,4V6.36a45,45,0,0,1-4.85.82c-.22,1-.48,2.13-.75,3.14a73.52,73.52,0,0,1-3.79,11l-2.64-.89a52.48,52.48,0,0,0,4.08-10.75c.19-.74.41-1.54.58-2.33-.67,0-1.32.05-1.92.05-1.13,0-2,0-2.86-.1l0-2.35a21.46,21.46,0,0,0,2.93.19c.75,0,1.56,0,2.38-.09.14-.72.26-1.32.31-1.78a10.62,10.62,0,0,0,.1-2.18l2.88.21C142.06,1.94,141.85,2.93,141.75,3.41Zm2.88,13.25c0,1.08.65,2.06,3.72,2.06a27.12,27.12,0,0,0,4.8-.48l-.07,2.43a39,39,0,0,1-4.75.33c-3.92,0-6-1.27-6-3.65a15.32,15.32,0,0,1,.39-3l2.25.22A8.89,8.89,0,0,0,144.63,16.66Zm4-8.24a39.11,39.11,0,0,1,4.2.2l-.07,2.3a30.11,30.11,0,0,0-4.08-.29,40,40,0,0,0-4.54.24V8.64C145.4,8.52,147.05,8.42,148.59,8.42Zm3.55-3.07-1.58.7a26.46,26.46,0,0,0-1.92-3.34l1.56-.65C150.8,2.93,151.66,4.44,152.14,5.35Zm2.79-1-1.56.7a29.62,29.62,0,0,0-2-3.34L152.94,1C153.58,1.94,154.47,3.46,154.93,4.32Z"/><path class="cls-3" d="M170,21l-1.42-2.25a13.74,13.74,0,0,0,2.14-.34c3.07-.69,5.81-2.95,5.81-6.82a6.37,6.37,0,0,0-5.81-6.69,47.56,47.56,0,0,1-1.44,6.74c-1.44,4.9-3.43,7.61-5.81,7.61s-4.56-2.64-4.56-6.65c0-5.37,4.71-10,10.73-10,5.76,0,9.41,4,9.41,9S175.79,20.11,170,21Zm-6.46-4.6c1.08,0,2.21-1.56,3.32-5.26a38.54,38.54,0,0,0,1.32-6.19,8,8,0,0,0-6.84,7.41C161.3,15.07,162.47,16.35,163.5,16.35Z"/><path class="cls-3" d="M205.37,5.38s0,.76,0,1c-.26,9.91-.48,13.32-1.25,14.35a2.11,2.11,0,0,1-1.7,1,16.51,16.51,0,0,1-2.95,0,5.86,5.86,0,0,0-.63-2.11c1.11.09,2.09.09,2.52.09a.92.92,0,0,0,.87-.38c.53-.67.77-3.72,1-12h-2.83c-.32,6.39-1.4,11.47-5.53,14.64a7.57,7.57,0,0,0-1.6-1.65c.14-.1.28-.22.43-.34-3.46.41-6.91.77-9.48,1l-.29-1.9c1.39-.09,3.12-.24,5-.41V17h-4.37V15.34h4.37V14.11h-4.3V6.89h4.3V5.64h-4.95V4h4.95V2.64c-1.47.12-2.93.19-4.28.24a6.72,6.72,0,0,0-.52-1.61A74.57,74.57,0,0,0,194.37.1l1.06,1.68c-1.27.26-2.86.5-4.51.67V4h4.84v1.4h2.53c0-1.64,0-3.34,0-5.14h2.14c0,1.78,0,3.5,0,5.14Zm-19,4.44h2.48V8.35H186.4Zm2.48,2.83V11.18H186.4v1.47Zm2,6c1.48-.14,3-.29,4.53-.45,2-2.72,2.57-6.34,2.76-10.71h-2.54V5.64h-4.75V6.89h4.46v7.22h-4.46v1.23h4.51V17h-4.51Zm2.56-8.78V8.35h-2.56V9.82Zm-2.56,1.36v1.47h2.56V11.18Z"/><path class="cls-3" d="M231.77,1.42V3.48h-9.55V5.83h4.63V16.56h-11.4V5.83H220V3.48H210.6V1.42Zm-2.88,4.1h2.18V21.87h-2.18v-1.4H213.53v1.44h-2.19V5.52h2.19V18.36h15.36ZM217.32,10.3h2.81V7.68h-2.81Zm0,4.41h2.81V12.07h-2.81Zm7.58-7h-2.83V10.3h2.83Zm0,4.39h-2.83v2.64h2.83Z"/><path class="cls-3" d="M244.38,7.44h5.52v2h-5.52v2.14h4.8v6.31c0,.91-.14,1.49-.76,1.82a6,6,0,0,1-2.79.34,5.68,5.68,0,0,0-.6-1.9,17.38,17.38,0,0,0,1.83,0c.24,0,.31-.07.31-.31V13.61h-2.79v8.33h-2.11V13.61h-2.61V20h-2v-8.4h4.61V9.48h-5.64v-2h1.66a15.58,15.58,0,0,0-1.87-.77,18.63,18.63,0,0,0,2.3-6.24l2.09.43c-.19.8-.41,1.61-.63,2.38h2.09V.05h2.11V3.24H249v2h-4.59Zm-2.11,0V5.26h-2.81a12.66,12.66,0,0,1-1.05,2.18Zm11.16,7.85h-2.06V2h2.06Zm4.32-15V19.08c0,1.35-.28,2-1.08,2.35a10,10,0,0,1-3.91.44,10.15,10.15,0,0,0-.72-2.28c1.34,0,2.64,0,3.05,0s.5-.12.5-.5V.24Z"/><path class="cls-3" d="M270.58.67a37.6,37.6,0,0,1-2.38,5v16.2H266V9.22a23.5,23.5,0,0,1-2,2.35,13.67,13.67,0,0,0-1.25-2.31A26.57,26.57,0,0,0,268.44,0ZM277.83,6V9h6.53v2.05h-6.53v3.19h6.86v2.09h-6.86v5.56h-2.28V6H274.2a24.53,24.53,0,0,1-3.26,4.82,12.91,12.91,0,0,0-1.73-1.51A25.73,25.73,0,0,0,274.4.17l2.13.57c-.38,1-.79,2.09-1.25,3.1h9.65V6Z"/><path class="cls-3" d="M299.77,3.5c-.1.2-.22.41-.34.6h5.76a5.56,5.56,0,0,0,1.8-.24l2,1.2a8.63,8.63,0,0,0-.67,1.47,23.85,23.85,0,0,1-4.23,8.16,21.61,21.61,0,0,1-9.6,6.65l-2.23-2a19.29,19.29,0,0,0,9.62-6,18,18,0,0,0,3.65-7.09H298a25,25,0,0,1-6.09,5.89l-2.11-1.59a20.44,20.44,0,0,0,7.53-7.94,10.55,10.55,0,0,0,.89-2.16l2.78.91C300.53,2.09,300,3,299.77,3.5Z"/><path class="cls-3" d="M319.08,3.62v8.05c0,.62.05,1.46.1,1.94h-2.76c0-.41.09-1.25.09-1.94v-8a15.78,15.78,0,0,0-.09-1.77h2.76A17.53,17.53,0,0,0,319.08,3.62Zm11.14.24V8.14c0,5.49-.87,7.53-2.64,9.55a13.1,13.1,0,0,1-5.74,3.5l-2-2.08A11.25,11.25,0,0,0,325.61,16c1.68-1.92,2-3.8,2-8V3.86a18.93,18.93,0,0,0-.14-2.2h2.85C330.27,2.28,330.22,3,330.22,3.86Z"/><path class="cls-3" d="M340.26,3.82h13.13a14.55,14.55,0,0,0,2.16-.15V6.31c-.67-.07-1.46-.09-2.16-.09h-5.45V16.71h6.77a17.86,17.86,0,0,0,2.09-.17V19.3a15.89,15.89,0,0,0-2.09-.12H338.87a17.4,17.4,0,0,0-2.23.12V16.54a14.22,14.22,0,0,0,2.23.17h6.46V6.22h-5.07c-.52,0-1.51,0-2.13.09V3.67A16,16,0,0,0,340.26,3.82Z"/><path class="cls-3" d="M370.91,6.67A29.43,29.43,0,0,0,377.58,1l2,1.92a40.52,40.52,0,0,1-6.46,5.26v10a18,18,0,0,0,.17,2.83h-3a25.48,25.48,0,0,0,.15-2.83V9.74a49,49,0,0,1-8.86,3.73l-1.18-2.38A39.41,39.41,0,0,0,370.91,6.67Z"/><path class="cls-3" d="M392.46,3.26c-.1.17-.17.32-.27.48H398a5.57,5.57,0,0,0,1.8-.26l1.94,1.2a13.63,13.63,0,0,0-.65,1.49,27.48,27.48,0,0,1-3.67,7.25c1,.72,2,1.44,2.69,2l-1.78,2.11c-.67-.62-1.58-1.37-2.56-2.16a22.93,22.93,0,0,1-8.91,5.93l-2.18-1.92a20.51,20.51,0,0,0,9.07-5.52c-1.66-1.2-3.39-2.38-4.78-3.27l1.66-1.7c1.44.84,3.12,1.92,4.73,3a19.78,19.78,0,0,0,3-6h-7.59a27,27,0,0,1-6.33,6.29l-2-1.58a22.09,22.09,0,0,0,7.68-8.19A11.41,11.41,0,0,0,391,.26l2.74.87C393.23,1.85,392.72,2.78,392.46,3.26Z"/><path class="cls-3" d="M410.6,9.48h13.06c1.15,0,2.09-.1,2.69-.14v3c-.53,0-1.63-.12-2.69-.12H410.6c-1.32,0-2.76.05-3.57.12v-3C407.82,9.38,409.31,9.48,410.6,9.48Z"/><path class="cls-3" d="M437,4.1c-.12,2.67-.31,8.21-.31,11.53,0,2.54,1.59,3.4,3.67,3.4,4.23,0,6.73-2.37,8.45-4.92l1.71,2.07a12.25,12.25,0,0,1-10.2,5.4c-3.65,0-6.1-1.56-6.1-5.57,0-3.41.24-9.58.24-11.91a12.75,12.75,0,0,0-.26-2.78l3.07,0A22.58,22.58,0,0,0,437,4.1Zm9,3.05-1.73.77A24.69,24.69,0,0,0,442,4l1.68-.72A33.86,33.86,0,0,1,446,7.15Zm3.24-1.37-1.7.82a26.9,26.9,0,0,0-2.31-3.79L446.84,2A38.54,38.54,0,0,1,449.19,5.78Z"/><path class="cls-3" d="M460.53,7.61c.29.53.67,1.27,1.08,2.11,2.47-1.06,5.12-2.06,7-2.06,3.32,0,4.83,2,4.83,4,0,2.69-1.56,4.44-5,4.44a8.54,8.54,0,0,1-3-.6l.07-2.18a7.24,7.24,0,0,0,2.76.64c2,0,2.83-1,2.83-2.3,0-.91-.72-1.95-2.59-1.95a17.92,17.92,0,0,0-6,1.83c.26.58.52,1.15.72,1.63,1,2.28,2.28,6.12,2.95,8.21l-2.38.62a63.39,63.39,0,0,0-2.64-7.92c-.21-.5-.45-1-.69-1.58-1.64.79-3,1.51-3.77,1.85l-1.13-2.31c.79-.19,1.56-.45,1.9-.57.62-.24,1.34-.56,2.08-.89-.36-.72-.69-1.37-1-1.83a9.21,9.21,0,0,0-1.05-1.51l2.37-.91C460.1,6.77,460.36,7.27,460.53,7.61Zm2.16-1.85,1.68-1.25A25.39,25.39,0,0,1,467,6.79l-1.68,1.27A20.06,20.06,0,0,0,462.69,5.76Z"/><path class="cls-3" d="M487.32,4.39a22.48,22.48,0,0,0,3.53-.81l.07,2.2a32.31,32.31,0,0,1-4.29.87,43.32,43.32,0,0,1-5.21,10.2l-2.31-1.18a36,36,0,0,0,5-8.76c-.6,0-1.17,0-1.75,0-.91,0-1.92,0-2.88-.07l-.17-2.23c.94.09,2.09.14,3,.14.79,0,1.63,0,2.47-.1a19.67,19.67,0,0,0,.7-4.1l2.64.26C488,1.7,487.68,3.05,487.32,4.39Zm6.53,6.72c0,.8.1,2.19.17,3.56a15.69,15.69,0,0,1,5,3l-1.28,2a18.63,18.63,0,0,0-3.6-2.69v.67c0,2-1.22,3.7-4.39,3.7-2.78,0-5-1.2-5-3.7,0-2.25,2-3.84,5-3.84a14.64,14.64,0,0,1,2,.17c-.07-1.89-.19-4.15-.24-5.74h2.35C493.8,9.31,493.83,10.15,493.85,11.11Zm-4.44,8.12a2.1,2.1,0,0,0,2.42-2.31c0-.21,0-.5,0-.81a8.06,8.06,0,0,0-2.23-.32c-1.59,0-2.67.72-2.67,1.71S487.78,19.23,489.41,19.23Zm3.34-13.37L494,4a43,43,0,0,1,5.76,3.21l-1.37,2A30,30,0,0,0,492.75,5.86Z"/><path class="cls-3" d="M508.09,5.71c0,1.51,0,3.53.16,5.4.36,3.77,1.35,6.32,3,6.32,1.2,0,2.25-2.62,2.8-4.8l1.9,2.23c-1.51,4.1-3,5.52-4.75,5.52-2.43,0-4.66-2.31-5.31-8.62-.24-2.11-.26-5-.26-6.43a12.69,12.69,0,0,0-.19-2.26l2.93.05A19.65,19.65,0,0,0,508.09,5.71Zm16.82,10.18-2.47,1c-.41-4.13-1.78-9.46-4.2-12.34l2.38-.79C522.82,6.5,524.6,12,524.91,15.89Z"/><path class="cls-3" d="M537.39,17.91a3.76,3.76,0,0,1-7.51,0,3.76,3.76,0,1,1,7.51,0Zm-1.44,0a2.31,2.31,0,1,0-2.3,2.3A2.3,2.3,0,0,0,536,17.91Z"/><path class="cls-4" d="M182.76,54.33c-.26-.5-.74-1.3-1.22-2v9.84h-2.72V53.9a20.6,20.6,0,0,1-2.18,4.46,13.78,13.78,0,0,0-1.3-2.71,22.88,22.88,0,0,0,3-6.48h-2.64V46.58h3.09V43.67c-.86.17-1.72.29-2.54.41a8.14,8.14,0,0,0-.77-2.06,30.67,30.67,0,0,0,6.82-1.9l2,2a26.7,26.7,0,0,1-2.78.91v3.53h2.4v2.59h-2.4v.31c.67.65,2.32,2.33,2.71,2.79Zm15.43-3.77c-.93.86-1.94,1.78-2.8,2.5a16.54,16.54,0,0,0,2.9,5.4,8.89,8.89,0,0,0-1.94,2.06c-2.19-2.81-3.65-7.51-4.54-12.38h-.55a19.56,19.56,0,0,1-1.56,1.44c4.2,3.77,4,9.86,2.11,11.54a3.18,3.18,0,0,1-2.52,1c-.48,0-1.06,0-1.61,0a5.18,5.18,0,0,0-.65-2.43,11.84,11.84,0,0,0,1.75.12,1.25,1.25,0,0,0,1.2-.52,3.88,3.88,0,0,0,.58-2.81,26,26,0,0,1-7,4.53,9.61,9.61,0,0,0-1.32-2.06A19.7,19.7,0,0,0,190,54a5.86,5.86,0,0,0-.39-.89,28,28,0,0,1-5.4,3.29,8,8,0,0,0-1.32-1.85,21.35,21.35,0,0,0,5.67-3.05c-.22-.24-.41-.47-.65-.69a23.1,23.1,0,0,1-3,1.61,12.19,12.19,0,0,0-1.46-1.9,19.55,19.55,0,0,0,4.68-2.42h-3V46.29H184v-4h5.57V39.74h2.76V42.3h5.5v4h-1v1.85H194c.19.93.41,1.84.67,2.76.6-.68,1.2-1.4,1.63-2Zm-11.66-6.07V46h8.62V44.49Z"/><path class="cls-4" d="M207,43.82c-.6,2.66-1.47,7.7-.82,10.68.32-.75.77-1.92,1.16-2.79l1.51,1c-.72,2.07-1.35,4.49-1.66,5.84a8.33,8.33,0,0,0-.14,1.17c0,.27.05.67.07,1l-2.69.26a26,26,0,0,1-1.37-7.77,64.2,64.2,0,0,1,.79-9.6c.1-.65.12-1.47.15-2.07l3.55.34C207.38,42.45,207.12,43.31,207,43.82Zm12.14-.72c0,.5,0,1.75,0,3.09,1.44-.12,2.78-.26,3.84-.45l0,3.12c-1,.12-2.36.21-3.8.31v1c0,5.67-.43,9.15-5.2,12.2l-2.79-2.19A9,9,0,0,0,214,58.24c1.82-1.92,2.23-4.05,2.23-8.11v-.84c-.81,0-1.65,0-2.45,0-1,0-2.52-.07-3.72-.14v-3a25.24,25.24,0,0,0,3.65.24c.79,0,1.63,0,2.47,0,0-1.32-.07-2.6-.12-3.24a10.37,10.37,0,0,0-.26-1.66h3.46C219.19,42,219.16,42.54,219.16,43.1Zm3.24.86-1.65.55a30.31,30.31,0,0,0-1.25-3.41l1.63-.5A25.4,25.4,0,0,1,222.4,44Zm2.52-.77-1.63.53A31.67,31.67,0,0,0,222,40.36l1.63-.53A29.12,29.12,0,0,1,224.92,43.19Z"/><path class="cls-4" d="M233.46,41.87c1.27,0,6.4-.09,7.77-.21a10.31,10.31,0,0,0,1.83-.27l1.56,2.14c-.56.36-1.13.69-1.68,1.1-1.3.91-3.82,3-5.33,4.23a9,9,0,0,1,2.28-.27c4.08,0,7.17,2.55,7.17,6,0,3.79-2.88,6.79-8.68,6.79-3.34,0-5.86-1.53-5.86-3.93a4,4,0,0,1,4.3-3.75,4.81,4.81,0,0,1,5.11,4.11,3.48,3.48,0,0,0,2-3.27c0-2.16-2.16-3.62-5-3.62-3.67,0-6.07,1.94-8.64,4.87l-2.19-2.25c1.71-1.37,4.61-3.82,6-5s3.84-3.12,5-4.15c-1.22,0-4.53.17-5.8.24-.65,0-1.42.12-2,.19l-.1-3.12A16,16,0,0,0,233.46,41.87Zm4.32,16.83c.5,0,1,0,1.39-.07-.15-1.56-1-2.57-2.33-2.57-.91,0-1.49.55-1.49,1.15C235.35,58.1,236.34,58.7,237.78,58.7Z"/><path class="cls-4" d="M263.57,46.89a6,6,0,0,1,3.61-5.55L268,42.9c-1.56.84-2.35,1.88-2.35,3.41a1.18,1.18,0,0,1,.26,0,1.81,1.81,0,0,1,1.92,1.85,1.85,1.85,0,0,1-1.92,2C264.39,50.15,263.57,49,263.57,46.89Zm6,0a6,6,0,0,1,3.6-5.55L274,42.9c-1.56.84-2.35,1.88-2.35,3.41a1.18,1.18,0,0,1,.26,0,1.81,1.81,0,0,1,1.92,1.85,1.86,1.86,0,0,1-1.92,2C270.39,50.15,269.58,49,269.58,46.89Z"/><path class="cls-4" d="M300.81,45.11s0,.94,0,1.27c-.22,9.82-.41,13.3-1.18,14.41a2.68,2.68,0,0,1-1.89,1.2,16,16,0,0,1-3,.09,6.69,6.69,0,0,0-.84-2.73c1.06.09,2,.12,2.43.12a.86.86,0,0,0,.81-.41c.51-.65.75-3.58.89-11.33h-2.16c-.31,6.43-1.42,11.38-5.45,14.57a9.14,9.14,0,0,0-1.68-1.9c-3.45.36-6.91.72-9.5.94l-.34-2.4,4.87-.34V57.16h-4.22v-2h4.22v-.94h-4.12V46.79h4.12v-.93H279V43.79h4.72v-1c-1.39.1-2.76.17-4.05.19a8.82,8.82,0,0,0-.63-2,73.37,73.37,0,0,0,10.35-1.18L290.68,42c-1.28.26-2.76.48-4.32.65v1.17H291v1.32h2.26c0-1.58,0-3.24,0-5H296c0,1.75,0,3.43-.05,5Zm-18.92,4.54h1.87V48.59h-1.87Zm1.87,2.78V51.35h-1.87v1.08Zm2.6,6c1.36-.1,2.78-.22,4.17-.34,1.87-2.59,2.45-6,2.62-10.32H291V45.86h-4.6v.93h4.24v7.42h-4.24v.94h4.34v2h-4.34Zm1.87-8.74V48.59h-1.87v1.06Zm-1.87,1.7v1.08h1.87V51.35Z"/><path class="cls-4" d="M327.35,41.15v2.67h-9.41v1.92h4.37V56.61H310.88V45.74h4.2V43.82h-9.22V41.15Zm-3.48,4.25h2.76V62.11h-2.76v-1.4h-14.5v1.42h-2.79V45.4h2.79V58h14.5Zm-10.66,4.68h2.09v-2h-2.09Zm0,4.2h2.09v-2h-2.09Zm6.62-6.22h-2.08v2h2.08Zm0,4.18h-2.08v2h2.08Z"/><path class="cls-4" d="M343.64,61.17l-1.8-2.86a17.91,17.91,0,0,0,2.23-.38c3.08-.72,5.48-2.93,5.48-6.43,0-3.32-1.8-5.79-5-6.34a50.36,50.36,0,0,1-1.44,6.51c-1.44,4.84-3.51,7.82-6.12,7.82s-4.88-2.93-4.88-7c0-5.55,4.8-10.28,11-10.28,6,0,9.7,4.13,9.7,9.36C352.79,56.66,349.69,60.23,343.64,61.17ZM337,55.79c1,0,1.95-1.51,2.93-4.75a36,36,0,0,0,1.27-5.81,7.55,7.55,0,0,0-6.09,7C335.15,54.62,336.11,55.79,337,55.79Z"/><path class="cls-4" d="M376,39.57a2.87,2.87,0,0,1,0,5.73,1.72,1.72,0,0,1-.32,0c-.07.26-.12.5-.19.72-.55,2.35-1.58,6.07-3.6,8.74a19.3,19.3,0,0,1-9.65,6.65l-2.61-2.88A15.83,15.83,0,0,0,369,52.87a15.15,15.15,0,0,0,2.8-6.77H360.64c-1.1,0-2.25,0-2.85.09V42.81a28.2,28.2,0,0,0,2.85.19h11.12a9.14,9.14,0,0,0,1.36-.1,3,3,0,0,1,0-.45A2.88,2.88,0,0,1,376,39.57Zm0,4.25a1.38,1.38,0,1,0-1.4-1.37A1.4,1.4,0,0,0,376,43.82Z"/><path class="cls-4" d="M386.68,43.07h13.2c.6,0,1.51,0,2.38,0-.05.72-.05,1.61-.05,2.33V57.11c0,.94.05,3.24.05,3.34h-3.32c0-.05,0-.6,0-1.3H387.4c0,.68,0,1.23,0,1.3h-3.31c0-.12.07-2.21.07-3.36V45.35c0-.67,0-1.65-.05-2.33C385.12,43.05,386,43.07,386.68,43.07Zm.72,13H399v-10H387.4Z"/><path class="cls-4" d="M408.52,48.33c1.57-.87,2.36-1.87,2.36-3.43a1.23,1.23,0,0,1-.27,0,1.82,1.82,0,0,1-1.92-1.85,1.88,1.88,0,0,1,1.92-2c1.52,0,2.33,1.2,2.33,3.24a5.93,5.93,0,0,1-3.6,5.56Zm6,0c1.56-.87,2.35-1.87,2.35-3.43a1.23,1.23,0,0,1-.27,0,1.82,1.82,0,0,1-1.92-1.85,1.88,1.88,0,0,1,1.92-2c1.52,0,2.33,1.2,2.33,3.24a5.93,5.93,0,0,1-3.6,5.56Z"/><path class="cls-4" d="M440.55,43.79a62.44,62.44,0,0,0-1.16,8.81,11.89,11.89,0,0,0,.1,1.56c.36-.81.74-1.65,1.08-2.45l1.49,1.18c-.67,2-1.47,4.61-1.73,5.88a7.52,7.52,0,0,0-.12,1.13c0,.26,0,.65.05,1l-2.79.19a30.64,30.64,0,0,1-.93-7.84,66,66,0,0,1,1-9.51c.07-.67.21-1.58.24-2.35l3.36.29A18.78,18.78,0,0,0,440.55,43.79Zm5.92,11.74c0,1.06.92,1.7,3.36,1.7a28.51,28.51,0,0,0,6-.62l.05,3.24a33.78,33.78,0,0,1-6.2.46c-4.12,0-6.12-1.47-6.12-3.94a14.88,14.88,0,0,1,.41-3.12l2.76.26A8.32,8.32,0,0,0,446.47,55.53Zm8.69-12.29v3.1a65.84,65.84,0,0,1-10.32,0V43.26A49.36,49.36,0,0,0,455.16,43.24Z"/><path class="cls-4" d="M469,58a3.88,3.88,0,1,1-3.89-3.89A3.89,3.89,0,0,1,469,58Zm-1.73,0a2.15,2.15,0,1,0-2.16,2.16A2.15,2.15,0,0,0,467.28,58Z"/></g></g></svg>