<svg xmlns="http://www.w3.org/2000/svg" viewBox="0 0 1266 444.81"><defs><style>.cls-2{fill:#fff}.cls-3{fill:#db9fa9}.cls-4{fill:#ff0}</style></defs><g id="レイヤー_2" data-name="レイヤー 2"><g id="レイヤー_1-2" data-name="レイヤー 1"><path fill="none" stroke="#fff" stroke-miterlimit="10" stroke-width="1.5" d="M0 151.51h1266"/><path class="cls-2" d="M270.11 3.53c-.07.41-.16.89-.28 1.42a43.25 43.25 0 004.34-.85v2.38a44.83 44.83 0 01-4.82.82c-.24 1-.51 2.13-.77 3.14a73.52 73.52 0 01-3.79 11l-2.62-.89a54.91 54.91 0 004.08-10.75c.19-.74.38-1.53.58-2.33h-1.95c-1.1 0-2 0-2.85-.09V5.02a21.61 21.61 0 002.93.2c.74 0 1.56 0 2.4-.1.12-.72.24-1.34.28-1.8a9.71 9.71 0 00.1-2.16l2.88.21c-.14.6-.36 1.59-.46 2.07M273 16.78c0 1.08.64 2.06 3.72 2.06a27 27 0 004.8-.48l-.08 2.43a38.56 38.56 0 01-4.75.33c-3.91 0-6-1.27-6-3.65a14 14 0 01.41-3l2.23.22a8.89 8.89 0 00-.31 2.09m4-8.24a39.11 39.11 0 014.2.2l-.08 2.3a30 30 0 00-4.08-.31 42.23 42.23 0 00-4.53.26V8.76c1.29-.12 2.95-.22 4.49-.22M295.06 3.84c-.1.41-.19.89-.29 1.42a43.41 43.41 0 004.35-.82v2.35a42.63 42.63 0 01-4.85.82c-.22 1-.48 2.14-.75 3.14a73.52 73.52 0 01-3.79 11l-2.64-.88a52.8 52.8 0 004.08-10.76c.19-.74.41-1.53.58-2.33h-1.92c-1.13 0-2 0-2.86-.09l-.05-2.36a21.61 21.61 0 002.93.2c.75 0 1.56 0 2.38-.1.14-.72.26-1.32.31-1.78a10.59 10.59 0 00.1-2.18l2.88.22c-.15.6-.36 1.58-.46 2.06M297.94 17c0 1.08.65 2.06 3.72 2.06a27.12 27.12 0 004.8-.48l-.07 2.43a37.09 37.09 0 01-4.75.33c-3.92 0-6-1.27-6-3.64a15.13 15.13 0 01.39-3l2.25.21a9 9 0 00-.31 2.09m4-8.23a39.11 39.11 0 014.2.19l-.07 2.3a31.82 31.82 0 00-4.08-.29 40 40 0 00-4.54.25V9.07c1.3-.12 2.95-.21 4.49-.21m3.55-3.08l-1.58.7A27.94 27.94 0 00302 3.14l1.56-.64a37.62 37.62 0 011.94 3.28m2.79-1l-1.56.7a30.53 30.53 0 00-2-3.34l1.54-.65c.64.92 1.53 2.43 2 3.29M323.27 21.39l-1.42-2.26a13.74 13.74 0 002.14-.34c3.07-.69 5.81-2.95 5.81-6.81a6.39 6.39 0 00-5.8-6.7 48 48 0 01-1.45 6.72c-1.44 4.89-3.43 7.6-5.81 7.6s-4.56-2.6-4.56-6.6c0-5.38 4.71-10 10.73-10 5.76 0 9.41 4 9.41 9.05s-3.22 8.5-9.05 9.34m-6.46-4.61c1.08 0 2.21-1.56 3.32-5.26a38.54 38.54 0 001.32-6.19 8 8 0 00-6.84 7.42c0 2.76 1.17 4 2.2 4M358.68 5.81v1c-.26 9.91-.48 13.32-1.25 14.35a2.12 2.12 0 01-1.7 1 17.66 17.66 0 01-2.95 0 5.86 5.86 0 00-.63-2.11c1.11.09 2.09.09 2.52.09a.92.92 0 00.87-.38c.53-.67.77-3.72 1-12h-2.83c-.32 6.39-1.4 11.48-5.53 14.64a7.57 7.57 0 00-1.6-1.65c.14-.1.28-.22.43-.34-3.46.41-6.91.77-9.48 1l-.29-1.9c1.39-.09 3.12-.24 5-.4V17.4h-4.37v-1.63h4.37v-1.22h-4.3V7.32h4.3V6.07h-4.95V4.42h4.95V3.07c-1.47.12-2.93.19-4.28.24a7 7 0 00-.52-1.61A74.57 74.57 0 00347.68.53l1.06 1.68c-1.27.26-2.86.5-4.51.67v1.54h4.84v1.39h2.52V.67h2.14c0 1.78 0 3.51-.05 5.14zm-19 4.44h2.48V8.79h-2.48zm2.48 1.37h-2.48v1.46h2.48zm2 7.41c1.48-.14 3-.28 4.53-.45 2-2.71 2.57-6.34 2.76-10.71H349v-1.8h-4.75v1.25h4.46v7.23h-4.46v1.22h4.51v1.63h-4.51zm2.56-10.24h-2.56v1.46h2.56zm-2.56 4.29h2.56v-1.46h-2.56zM385.08 1.85v2.06h-9.56v2.35h4.64V17h-11.4V6.26h4.53V3.91h-9.38V1.85zM382.2 6h2.18v16.3h-2.18v-1.39h-15.36v1.44h-2.19V6h2.19v12.79h15.36zm-11.57 4.78h2.81V8.11h-2.81zm0 4.42h2.81v-2.7h-2.81zm7.58-7h-2.83v2.62h2.83zm0 4.4h-2.83v2.64h2.83zM397.69 7.87h5.52v2h-5.52v2.14h4.8v6.31c0 .91-.14 1.49-.76 1.83a6.06 6.06 0 01-2.79.33 5.55 5.55 0 00-.6-1.89h1.83c.24 0 .31-.08.31-.32V14h-2.79v8.33h-2.11V14H393v6.41h-2v-8.4h4.61v-2.1h-5.64v-2h1.66a15.05 15.05 0 00-1.88-.76A18.56 18.56 0 00392 .86l2.09.44c-.19.79-.41 1.6-.63 2.37h2.09V.48h2.11v3.19h4.59v2h-4.59zm-2.11 0V5.69h-2.81a12.31 12.31 0 01-1 2.18zm11.16 7.85h-2.06V2.45h2.06zm4.32-15v18.79c0 1.35-.29 2-1.08 2.36a10.25 10.25 0 01-3.91.43 10.31 10.31 0 00-.72-2.28c1.34.05 2.64.05 3 0s.5-.12.5-.5V.67zM423.89 1.1a37.6 37.6 0 01-2.38 5v16.2h-2.25V9.65a22.42 22.42 0 01-2 2.35A13.22 13.22 0 00416 9.7a26.61 26.61 0 005.75-9.27zm7.25 5.31v3.05h6.53v2h-6.53v3.19H438v2.09h-6.86v5.57h-2.28V6.41h-1.35a24.53 24.53 0 01-3.26 4.82 13.66 13.66 0 00-1.73-1.51A25.64 25.64 0 00427.71.6l2.13.58c-.38 1-.79 2.09-1.25 3.09h9.65v2.14zM453.08 3.94c-.1.19-.22.4-.34.6h5.76a5.85 5.85 0 001.8-.24l2 1.2a8.18 8.18 0 00-.7 1.5 23.76 23.76 0 01-4.23 8.16 21.61 21.61 0 01-9.6 6.65l-2.23-2a19.22 19.22 0 009.62-6 18 18 0 003.65-7.08h-7.49a25 25 0 01-6.09 5.88L443.12 11a20.37 20.37 0 007.53-7.94 10.55 10.55 0 00.89-2.16l2.78.91c-.48.72-1 1.66-1.24 2.14M472.39 4.06v8c0 .62.05 1.46.1 1.94h-2.76c0-.41.09-1.25.09-1.94v-8a15.83 15.83 0 00-.09-1.78h2.76a17.57 17.57 0 00-.1 1.78m11.14.24v4.27c0 5.5-.87 7.54-2.64 9.55a13.13 13.13 0 01-5.74 3.51l-2-2.09a11.25 11.25 0 005.76-3.12c1.68-1.92 2-3.79 2-8V4.3a19 19 0 00-.14-2.21h2.85c0 .62-.09 1.34-.09 2.21M493.57 4.25h13.13a14.65 14.65 0 002.16-.15v2.64c-.67-.07-1.46-.09-2.16-.09h-5.45v10.49H508a17.86 17.86 0 002.09-.17v2.76a15.89 15.89 0 00-2.09-.12h-15.82a17.4 17.4 0 00-2.23.12V17a14.22 14.22 0 002.23.17h6.46V6.65h-5.07c-.52 0-1.51 0-2.13.09V4.1a16 16 0 002.13.15M524.22 7.1a29.18 29.18 0 006.67-5.71l2 1.92a40.52 40.52 0 01-6.46 5.26v10a18 18 0 00.17 2.83h-3a25.48 25.48 0 00.15-2.83v-8.39a48.94 48.94 0 01-8.86 3.72l-1.18-2.38a39.55 39.55 0 0010.51-4.42M545.77 3.7c-.1.16-.17.31-.27.48h5.79a5.55 5.55 0 001.8-.27l1.91 1.2a13.63 13.63 0 00-.65 1.49 27.48 27.48 0 01-3.67 7.25c1 .72 1.95 1.44 2.69 2L551.62 18c-.67-.62-1.58-1.37-2.56-2.16a22.93 22.93 0 01-8.91 5.93L538 19.85a20.45 20.45 0 009-5.52c-1.66-1.2-3.38-2.38-4.78-3.26l1.66-1.71c1.44.84 3.12 1.92 4.73 3a20 20 0 003-6.05h-7.59a27.39 27.39 0 01-6.33 6.29l-2-1.59a22.06 22.06 0 007.68-8.18 11.31 11.31 0 00.91-2.13l2.74.86c-.48.72-1 1.66-1.25 2.14M563.91 9.91H577c1.15 0 2.09-.09 2.69-.14v3c-.53 0-1.63-.12-2.69-.12h-13.09c-1.32 0-2.76 0-3.57.12v-3c.79.05 2.28.14 3.57.14M590.28 4.54c-.12 2.66-.31 8.21-.31 11.52 0 2.54 1.59 3.41 3.67 3.41 4.23 0 6.73-2.38 8.45-4.92l1.71 2.06A12.25 12.25 0 01593.6 22c-3.65 0-6.1-1.56-6.1-5.57 0-3.41.24-9.57.24-11.9a12.79 12.79 0 00-.26-2.79h3.07a22.21 22.21 0 00-.27 2.76m9 3l-1.73.77a25.14 25.14 0 00-2.23-3.91l1.68-.64a34.75 34.75 0 012.28 3.86m3.24-1.36L600.8 7a27.48 27.48 0 00-2.31-3.79l1.66-.77a38.72 38.72 0 012.35 3.75M613.84 8c.29.53.67 1.27 1.08 2.11 2.47-1.05 5.11-2.06 7-2.06 3.32 0 4.83 2 4.83 4 0 2.69-1.56 4.44-5 4.44a8.53 8.53 0 01-3-.6l.07-2.18a7.25 7.25 0 002.76.65c2 0 2.83-1 2.83-2.31 0-.91-.72-1.94-2.59-1.94a18.1 18.1 0 00-6 1.82c.26.58.52 1.15.72 1.63 1 2.28 2.28 6.12 3 8.21l-2.38.63a62.32 62.32 0 00-2.64-7.92c-.21-.51-.45-1.06-.69-1.59-1.64.79-3 1.51-3.77 1.85l-1.13-2.31c.79-.19 1.56-.45 1.9-.57.62-.24 1.34-.55 2.08-.89-.36-.72-.69-1.37-1-1.82a8.8 8.8 0 00-1-1.51l2.37-.92c.22.41.48.92.65 1.25M616 6.19L617.68 5a23.18 23.18 0 012.62 2.28l-1.68 1.22A20.13 20.13 0 00616 6.19M640.63 4.82a22.48 22.48 0 003.53-.82l.07 2.21a34.12 34.12 0 01-4.29.86 43.32 43.32 0 01-5.21 10.2l-2.31-1.17a36 36 0 005-8.77h-1.75c-.91 0-1.92 0-2.88-.07l-.17-2.23c.94.1 2.09.14 3.05.14.79 0 1.63 0 2.47-.09a19.88 19.88 0 00.7-4.11l2.64.27c-.19.84-.53 2.18-.89 3.52m6.53 6.73c0 .79.1 2.18.17 3.55a15.69 15.69 0 015 3l-1.27 2a19.14 19.14 0 00-3.61-2.69v.68c0 2-1.22 3.69-4.39 3.69-2.78 0-5-1.2-5-3.69 0-2.26 2-3.84 5-3.84a14.67 14.67 0 012 .16c-.07-1.89-.19-4.15-.24-5.73h2.35v2.81m-4.44 8.11a2.1 2.1 0 002.42-2.31v-.81a8.46 8.46 0 00-2.23-.31c-1.59 0-2.67.72-2.67 1.7s.87 1.73 2.5 1.73m3.34-13.37l1.22-1.85A41.94 41.94 0 01653 7.66l-1.37 2a30 30 0 00-5.61-3.36M661.4 6.15c0 1.51 0 3.52.16 5.4.36 3.76 1.35 6.31 3 6.31 1.2 0 2.25-2.62 2.8-4.8l1.9 2.23c-1.51 4.1-3 5.52-4.75 5.52-2.43 0-4.66-2.3-5.31-8.62-.24-2.11-.26-5-.26-6.43a12.69 12.69 0 00-.19-2.26h2.93a19.79 19.79 0 00-.24 2.6m16.82 10.17l-2.47 1c-.41-4.13-1.78-9.45-4.2-12.34l2.38-.79c2.2 2.79 4 8.28 4.29 12.17M690.7 18.34a3.76 3.76 0 01-7.51 0 3.76 3.76 0 117.51 0m-1.44 0a2.31 2.31 0 10-2.3 2.3 2.31 2.31 0 002.3-2.3"/><path class="cls-3" d="M716.64 14.76c-.26-.5-.74-1.29-1.22-2v9.84h-2.71v-8.27a20.36 20.36 0 01-2.19 4.46 14.32 14.32 0 00-1.29-2.71 22.74 22.74 0 003-6.48h-2.64V7h3.1V4.1c-.87.17-1.73.29-2.55.41a8.4 8.4 0 00-.76-2.06 30 30 0 006.81-1.9l2 2a23.88 23.88 0 01-2.78.91V7h2.4v2.6h-2.4v.31c.67.65 2.33 2.33 2.71 2.79zM732.08 11c-.94.87-2 1.78-2.81 2.5a16.73 16.73 0 002.9 5.4 9.11 9.11 0 00-1.94 2.1c-2.18-2.8-3.65-7.51-4.54-12.38h-.55a19.56 19.56 0 01-1.56 1.38c4.2 3.77 4 9.86 2.11 11.54a3.18 3.18 0 01-2.52 1h-1.61a5.25 5.25 0 00-.64-2.42 13.28 13.28 0 001.75.12 1.27 1.27 0 001.2-.53 3.92 3.92 0 00.57-2.81 26.34 26.34 0 01-7 4.54 9.43 9.43 0 00-1.32-2.07 19.55 19.55 0 007.77-4.85 5.31 5.31 0 00-.38-.88 28.25 28.25 0 01-5.4 3.28 8.08 8.08 0 00-1.32-1.92 21.88 21.88 0 005.66-3 8.55 8.55 0 00-.65-.7 21.38 21.38 0 01-3 1.61 11.48 11.48 0 00-1.46-1.9A19.18 19.18 0 00722 8.57h-3V6.72h-1.1v-4h5.57V.17h2.76v2.57h5.49v4h-1v1.83h-2.82c.19.94.41 1.85.67 2.76.6-.67 1.2-1.39 1.64-2zm-11.67-4.6H729V4.92h-8.62zM740.9 4.25c-.6 2.66-1.46 7.7-.81 10.68.31-.74.77-1.92 1.15-2.78l1.51 1a60.28 60.28 0 00-1.65 5.83 7.2 7.2 0 00-.15 1.17c0 .27 0 .68.07 1l-2.68.27a26 26 0 01-1.34-7.81 64.33 64.33 0 01.79-9.6 18.78 18.78 0 00.14-2.07l3.56.34a19.51 19.51 0 00-.56 2m12.15-.72v3.09c1.44-.12 2.78-.26 3.84-.45v3.12c-1 .12-2.35.21-3.79.31v1c0 5.67-.43 9.15-5.21 12.2l-2.78-2.19a8.9 8.9 0 002.8-1.92c1.83-1.92 2.24-4.05 2.24-8.11v-.89h-2.45c-1.06 0-2.52-.08-3.72-.15v-3a26.53 26.53 0 003.65.24c.79 0 1.63 0 2.47-.05 0-1.32-.07-2.59-.12-3.24a11.75 11.75 0 00-.27-1.66h3.46c0 .53-.07 1.11-.07 1.66m3.24.86l-1.66.55a27.65 27.65 0 00-1.24-3.4L755 1a26.89 26.89 0 011.27 3.36m2.52-.77l-1.63.53a31.67 31.67 0 00-1.3-3.33l1.63-.53a31.05 31.05 0 011.32 3.36M767.34 2.3c1.27 0 6.41-.09 7.78-.21a10.3 10.3 0 001.82-.27L778.5 4c-.55.36-1.13.7-1.68 1.1-1.3.92-3.82 3-5.33 4.23a9.46 9.46 0 012.28-.33c4.08 0 7.18 2.55 7.18 6.05 0 3.8-2.88 6.8-8.69 6.8-3.34 0-5.86-1.54-5.86-3.94a4 4 0 014.3-3.74 4.79 4.79 0 015.11 4.1 3.49 3.49 0 002-3.26c0-2.16-2.17-3.63-5-3.63-3.67 0-6.07 1.95-8.64 4.87L762 14c1.7-1.37 4.61-3.82 6-5s3.84-3.11 5-4.15c-1.23 0-4.54.17-5.81.24-.65 0-1.42.12-2 .2l-.09-3.12a17.69 17.69 0 002.18.11m4.32 16.83a12.07 12.07 0 001.39-.07c-.14-1.56-1-2.57-2.33-2.57-.91 0-1.48.55-1.48 1.15 0 .89 1 1.49 2.42 1.49M797.46 7.32a5.94 5.94 0 013.6-5.54l.82 1.56c-1.57.84-2.36 1.87-2.36 3.41a.83.83 0 01.27 0 1.82 1.82 0 011.92 1.85 1.85 1.85 0 01-1.92 2c-1.52 0-2.33-1.19-2.33-3.26m6 0a5.94 5.94 0 013.6-5.54l.82 1.56c-1.56.84-2.36 1.87-2.36 3.41a.83.83 0 01.27 0 1.82 1.82 0 011.92 1.85 1.86 1.86 0 01-1.92 2c-1.51 0-2.33-1.19-2.33-3.26M834.69 5.54v1.28c-.22 9.81-.41 13.29-1.18 14.4a2.68 2.68 0 01-1.9 1.2 15.94 15.94 0 01-3 .09 6.69 6.69 0 00-.84-2.73c1.05.09 2 .12 2.42.12a.89.89 0 00.82-.41c.5-.65.74-3.58.89-11.33h-2.16c-.32 6.43-1.42 11.38-5.45 14.57a9.44 9.44 0 00-1.68-1.9c-3.46.36-6.92.72-9.51.94l-.33-2.4 4.87-.34v-1.44h-4.23v-2h4.23v-.94h-4.13V7.22h4.13v-.93h-4.73V4.22h4.73v-1c-1.39.1-2.76.17-4.06.2a8.72 8.72 0 00-.62-2A73.39 73.39 0 00823.31.26l1.25 2.14c-1.27.26-2.76.48-4.32.65v1.17h4.61v1.32h2.25v-5h2.73v5zm-18.91 4.54h1.87V9h-1.87zm1.87 1.71h-1.87v1.08h1.87zm2.59 7c1.37-.1 2.78-.22 4.18-.34 1.87-2.59 2.44-6 2.61-10.32h-2.18V6.29h-4.61v.93h4.25v7.42h-4.25v.94h4.34v2h-4.34zM822.11 9h-1.87v1.05h1.87zm-1.87 3.84h1.87v-1.05h-1.87zM861.23 1.58v2.67h-9.41v1.92h4.37V17h-11.42V6.17H849V4.25h-9.22V1.58zm-3.48 4.25h2.76v16.71h-2.76v-1.39h-14.5v1.41h-2.78V5.83h2.78v12.63h14.5zm-10.66 4.68h2.09v-2h-2.09zm0 4.2h2.09v-2h-2.09zm6.63-6.21h-2.09v2h2.09zm0 4.17h-2.09v2h2.09zM877.53 21.6l-1.8-2.85a18.06 18.06 0 002.23-.39c3.07-.72 5.47-2.93 5.47-6.43 0-3.31-1.8-5.78-5-6.34A48.75 48.75 0 01877 12.1c-1.44 4.85-3.5 7.82-6.12 7.82S866 17 866 12.94c0-5.55 4.8-10.27 11-10.27 6 0 9.7 4.12 9.7 9.36 0 5.06-3.1 8.64-9.14 9.57m-6.6-5.37c1 0 1.94-1.52 2.92-4.76a35.62 35.62 0 001.28-5.8 7.55 7.55 0 00-6.1 7c0 2.42 1 3.6 1.9 3.6M909.84 0a2.89 2.89 0 012.86 2.88 2.89 2.89 0 01-2.86 2.86 1.12 1.12 0 01-.31 0c-.07.27-.12.51-.19.72-.55 2.36-1.59 6.08-3.6 8.74a19.28 19.28 0 01-9.65 6.65l-2.62-2.88a15.75 15.75 0 009.41-5.64 15 15 0 002.81-6.77h-11.16c-1.11 0-2.26 0-2.86.09V3.24a25.91 25.91 0 002.86.19h11.11a10.51 10.51 0 001.36-.09 3.24 3.24 0 010-.46A2.89 2.89 0 01909.84 0m0 4.25a1.38 1.38 0 10-1.39-1.37 1.39 1.39 0 001.39 1.37M920.56 3.5H936.14V20.88h-3.31v-1.29h-11.55v1.29H918c0-.12.08-2.21.08-3.36V5.78c0-.67 0-1.65-.05-2.32h2.54m.72 13h11.6v-10h-11.6zM942.41 8.76c1.56-.86 2.35-1.87 2.35-3.43a1.14 1.14 0 01-.26 0 1.82 1.82 0 01-1.92-1.85 1.87 1.87 0 011.92-2c1.51 0 2.33 1.2 2.33 3.24a6 6 0 01-3.6 5.57zm6 0c1.56-.86 2.35-1.87 2.35-3.43a1.14 1.14 0 01-.26 0 1.82 1.82 0 01-1.92-1.85 1.87 1.87 0 011.92-2c1.51 0 2.33 1.2 2.33 3.24a6 6 0 01-3.6 5.57zM974.43 4.22a64.06 64.06 0 00-1.15 8.78 11.85 11.85 0 00.09 1.56c.36-.81.75-1.65 1.08-2.44l1.49 1.17c-.67 2-1.46 4.61-1.73 5.88a7.52 7.52 0 00-.12 1.13v1l-2.78.2a30.72 30.72 0 01-.94-7.85 67.61 67.61 0 011-9.51c.07-.67.22-1.58.24-2.35l3.36.29c-.19.5-.5 1.7-.6 2.13M980.36 16c0 1.06.91 1.71 3.36 1.71a28.43 28.43 0 006-.63v3.24a33.74 33.74 0 01-6.19.46c-4.13 0-6.12-1.47-6.12-3.94a14.39 14.39 0 01.41-3.12l2.76.27a7.73 7.73 0 00-.29 2m8.69-12.29v3.1a64.65 64.65 0 01-10.32 0V3.7a50 50 0 0010.32 0M1002.89 18.41a3.88 3.88 0 11-3.89-3.89 3.88 3.88 0 013.88 3.89m-1.72 0a2.15 2.15 0 10-2.16 2.16 2.15 2.15 0 002.16-2.16"/><path class="cls-2" d="M518.08 270.41h2.59v-19.85h12.08v-2.59h-12.08v-3.46h-2.59v3.46h-11.23v2.59h11.23v19.85zM447.28 252.4v-7.89h-2.59v25.9h2.59v-15.15l13.98 6.52h6.3v-2.59h-5.73l-14.55-6.79zM539.64 247.13h13.02v2.59h-13.02z"/><path class="cls-2" d="M512.56 255.18l-2.55-.45-2.15 12.23h-2.72v2.59h4.89l2.53-14.37zM529.59 254.73l-2.55.45 2.53 14.37h4.9v-2.59h-2.72l-2.16-12.23zM474.29 268.37l2.12 1.48 6.28-8.96v-9.46h12.95v16.39h-6.48v2.59h9.07v-21.57h-15.54v-4.33h-2.59v4.33h-6.04v2.59h6.04v8.64l-5.81 8.3zM563.81 260.77v-16.26h-2.59v15.45l-5.51 7.87h-16.9v2.59h18.24l6.76-9.65zM499.09 242.8h2.59v2.59h-2.59zM494.77 242.8h2.59v2.59h-2.59zM462.83 245.39h2.59v2.59h-2.59zM458.51 245.39h2.59v2.59h-2.59zM529.31 247.11h5.18v-5.18h-5.18zm1.72-3.46h1.73v1.73H531zM603.63 256.15h24.17v2.59h-24.17zM668.36 245.79h23.3v2.59h-23.3zM667.5 257.87h14.67v4.88l-3.83 5.48h-9.98v2.59h11.32l5.08-7.26v-5.69h8.64v-2.59h-25.9v2.59zM867.74 253.74v-3.64h4.32v-2.59h-4.32v-5.18h-2.59v5.18h-4.32v2.59h4.32v1.62l-4.92 11.8 2.39 1 2.53-6.08v14.1h2.59v-14.97l3.1 3.4 1.91-1.75-5.01-5.48zM733.95 247.53h13.02v2.59h-13.02zM755.53 260.35l-5.52 7.88h-16.89v2.59h18.24l6.76-9.65v-16.26h-2.59v15.44z"/><path class="cls-2" transform="rotate(-32.9 813.882 265.835)" d="M817.26 254.24h2.59v19.18h-2.59z"/><path class="cls-2" d="M704.43 259.6h-2.41v2.59h3.1l7.92-4.57v14.09h2.59v-15.59l5.94-3.43h2.9v-2.59h-3.59l-16.45 9.5zM569.11 248.38h24.17v7.33l-12.78 7.37-4.51-7.81h-4.3v2.59h2.81l8.27 14.33 2.24-1.29-3.22-5.58 14.08-8.12v-11.41h-26.76v2.59zM642.12 244.91l-2.47-.77-3.77 12.01h-2.03v2.59h3.93l2.17-6.91h15.46v9.98l-4.49 6.41h-12.76v2.59h14.11l5.73-8.19v-10.79h3.45v-2.59h-20.69l1.36-4.33zM824.58 250.1h-12.95v-6.9h-2.59v6.9h-12.95v2.59h11.88l-11.67 18.28 2.18 1.4 12.56-19.68h13.54v-2.59zM889.31 244.93h-6.92v-2.6h-2.59v2.6h-6.91v2.59h16.42v-2.59zM767.57 252.7h-3.4v2.58h4.75l4.84-6.9h13.72v10.93l-6.24 8.91h-12.76v2.59h14.11l7.48-10.68v-14.34h-17.66l-4.84 6.91zM790.06 242.33h2.59v2.59h-2.59zM785.74 242.33h2.59v2.59h-2.59zM854.78 243.51l-2.5-.67-1.25 4.67h-6.47l-1.25-4.67-2.5.67 1.07 4h-5.59l-1.25-4.67-2.5.67 1.07 4h-4.71v6.05h2.59v-3.46h24.15v3.46h2.59v-6.05h-4.52l1.07-4z"/><path class="cls-2" transform="rotate(-67.18 875.349 252.901)" d="M870.57 251.62h9.52v2.59h-9.52z"/><path class="cls-2" transform="rotate(-22.83 886.442 252.898)" d="M885.18 248.15h2.59v9.52h-2.59z"/><path class="cls-2" d="M886.41 257.22l-2.04-1.59-3.47 4.43-3.46-4.43-2.04 1.59 3.86 4.94-6.8 8.71 2.04 1.59 6.4-8.19 6.4 8.19 2.05-1.59-6.81-8.71 3.87-4.94zM845.28 260.23l6.93-4v-2.67h-18.14v2.58h13.12l-4.49 2.6v2.58h-13.79v2.59h13.79v6.04h-6.02v2.59h8.6v-8.63h12.95v-2.59h-12.95v-1.09z"/><path class="cls-2" transform="rotate(-44.99 512.276 211.46)" d="M511.76 196.15h1.02v30.62h-1.02z"/><path class="cls-2" d="M540.22 212.06a24 24 0 009.17 7.54 8.48 8.48 0 00-1.3 1.49 26.22 26.22 0 01-8.9-7.73v9.07h-1.85v-9a26.33 26.33 0 01-8.84 7.63 9.5 9.5 0 00-1.29-1.47 23.83 23.83 0 009.12-7.56h-8.47v-1.75h9.48v-4.13h-7.76v-1.75h7.76v-3.91h1.85v3.91h8v1.75h-8v4.13h9.64v1.75zM557 214.39a21 21 0 01-1.7 6.1 6.17 6.17 0 00-1.39-.67 17.48 17.48 0 001.56-5.72zm2.62-1.92v10H558v-9.89l-3.77.21-.15-1.58 1.59-.07c.5-.65 1-1.42 1.58-2.21a22.43 22.43 0 00-3.09-3.39l.91-1.17c.24.19.45.41.69.62a29.35 29.35 0 002.16-4.46l1.56.62a54.62 54.62 0 01-2.71 4.83 17 17 0 011.39 1.56c.94-1.49 1.8-3 2.43-4.3l1.51.67a82.52 82.52 0 01-4.78 7.16l3.56-.15a19.11 19.11 0 00-1.13-2.16l1.25-.5a19 19 0 012.25 4.89l-1.34.6a13.15 13.15 0 00-.43-1.39zm2.09 1.47a22 22 0 011.53 4.36l-1.36.46a23.09 23.09 0 00-1.47-4.39zm8.73 6.16h5.79v1.61H562.6v-1.61h6.09v-3.91h-4.56v-1.61h4.56v-3.45h1.75v3.45h4.73v1.61h-4.73zm4.73-17.9a14.85 14.85 0 01-4.29 6.31 16.14 16.14 0 005.61 2.33 9 9 0 00-1.1 1.49 17.43 17.43 0 01-5.88-2.76 21.89 21.89 0 01-5.79 2.81 6.93 6.93 0 00-1-1.47 19 19 0 005.45-2.47 15.3 15.3 0 01-3.41-4.8l1-.31h-2.47v-1.59h10.42l.33-.07zm-8.78 1.13a12.24 12.24 0 003.09 4.1 13.12 13.12 0 003.27-4.1zM580.84 220.51c.84-1.17 1.13-3.29 1.21-5.3l1.12.21c-.12 2.11-.38 4.4-1.32 5.67zM591 212.3v.7c-.24 5.9-.53 8-1.08 8.74a1.75 1.75 0 01-1.28.62 14.94 14.94 0 01-2.13 0 3.64 3.64 0 00-.41-1.42c.82.05 1.56.05 1.87.05a.71.71 0 00.65-.24 7 7 0 00.58-2.95l-.82.34A13.66 13.66 0 00587 215l.84-.32a14.35 14.35 0 011.3 2.91c.1-1 .17-2.26.24-3.87h-7.15V201.5h8.49v1.5h-3.16v2.06h2.66v1.44h-2.66v2.13h2.66v1.44h-2.66v2.21zm-6.29 3.2a23.88 23.88 0 01.39 4.36l-1 .15a23.64 23.64 0 00-.33-4.39zm-.89-10.42h2.33V203h-2.33zm2.33 1.44h-2.33v2.13h2.33zm-2.33 5.78h2.33v-2.21h-2.33zm2.62 7a18.44 18.44 0 00-.94-3.86l.89-.19a17.33 17.33 0 011 3.81zm11.11-18.74a17 17 0 005.93 5.78 12 12 0 00-.94 1.51 19.69 19.69 0 01-5.71-5.68 18.08 18.08 0 01-5.66 5.9 6.57 6.57 0 00-.89-1.39 15.33 15.33 0 005.66-6.12zm.75 15.22a9 9 0 005 5.23 6.48 6.48 0 00-1.13 1.41 10.21 10.21 0 01-5.17-5.82c-.74 2.18-2.33 4.22-5.64 5.81a6 6 0 00-1.13-1.25c3.24-1.49 4.68-3.41 5.33-5.42h-4v-5.91H596v-1.89h-2.86v-1.47h7.42v1.47h-3v1.89h4.56v5.91zm-2.36-1.37A15.7 15.7 0 00596 212v-.8h-2.91v3.15zm1.73-3.15v.74a18.19 18.19 0 01-.12 2.33h3.12v-3.15zM616.57 203.28c-.14.69-.36 2.11-.62 3.43 1.13-.1 2.13-.17 2.71-.17 2.14 0 3.89.82 3.89 4.06 0 2.86-.39 6.67-1.39 8.66a3.39 3.39 0 01-3.51 2 13.19 13.19 0 01-2.83-.36l-.31-2a11.78 11.78 0 003 .48 2 2 0 002.09-1.23 20.27 20.27 0 001.15-7.34c0-2.21-1-2.62-2.54-2.62-.58 0-1.54.07-2.6.17-.88 3.46-2.52 8.88-5 12.94l-2-.77c2.44-3.29 4.24-8.76 5.06-12-1.27.12-2.42.27-3 .34s-1.53.19-2.16.29l-.19-2.09h2.14c.77 0 2.2-.14 3.64-.27a24.63 24.63 0 00.63-5.23l2.23.24c-.1.43-.19 1-.29 1.42m12.84 9.77l-1.87.89a28.18 28.18 0 00-4.28-8.69l1.76-.79a42.71 42.71 0 014.39 8.59M637.77 212.88a11.53 11.53 0 017.83-2.88c3.67 0 6.12 2.21 6.12 5 0 4.29-3.8 7.2-12.72 6.45l-.58-2c7.58.93 11.28-1.25 11.28-4.54 0-1.92-1.78-3.29-4.22-3.29a9.39 9.39 0 00-7.44 3.22 3.68 3.68 0 00-.72 1.2l-1.78-.43a85.1 85.1 0 001.22-9.75l2 .26c-.34 1.64-.74 5.21-1 6.75m10.83-9.27l-.46 1.85c-2.28-.31-7.49-1.37-9.31-1.87l.48-1.82a66.07 66.07 0 009.29 1.84M679.15 205.65v1.28c-.22 9.81-.41 13.29-1.18 14.4a2.68 2.68 0 01-1.9 1.2 15.94 15.94 0 01-3 .09 6.69 6.69 0 00-.84-2.73c1 .09 2 .12 2.42.12a.89.89 0 00.82-.41c.5-.65.74-3.58.89-11.33h-2.16c-.32 6.43-1.42 11.38-5.45 14.57a9.44 9.44 0 00-1.68-1.9c-3.46.36-6.91.72-9.51.94l-.33-2.4 4.87-.34v-1.44h-4.23v-2h4.23v-.94H658v-7.42h4.13v-.93h-4.73v-2.07h4.73v-1c-1.39.1-2.76.17-4.06.2a8.72 8.72 0 00-.62-2 73.39 73.39 0 0010.34-1.18l1.25 2.14c-1.27.26-2.76.48-4.32.65v1.17h4.61v1.32h2.26v-5h2.74c0 1.75 0 3.43-.05 5zm-18.91 4.54h1.87v-1.05h-1.87zm1.87 1.71h-1.87v1.1h1.87zm2.59 7c1.37-.1 2.79-.22 4.18-.34 1.87-2.59 2.45-6 2.61-10.32h-2.18v-1.84h-4.61v.93h4.3v7.42h-4.3v.94h4.35v2h-4.35zm1.87-9.79h-1.87v1.05h1.87zM664.7 213h1.87v-1.1h-1.87zM705.69 201.69v2.67h-9.41v1.92h4.37v10.87h-11.42v-10.87h4.2v-1.92h-9.22v-2.67zm-3.48 4.25H705v16.71h-2.76v-1.39h-14.5v1.41h-2.78v-16.73h2.78v12.63h14.5zm-10.65 4.68h2.08v-2h-2.08zm0 4.2h2.08v-2h-2.08zm6.62-6.21h-2.09v2h2.09zm0 4.17h-2.09v2h2.09zM722 221.71l-1.8-2.85a18.06 18.06 0 002.23-.39c3.07-.72 5.47-2.93 5.47-6.43 0-3.31-1.8-5.79-5-6.34a47.24 47.24 0 01-1.44 6.51c-1.44 4.85-3.5 7.82-6.12 7.82s-4.87-2.93-4.87-7c0-5.55 4.8-10.28 11-10.28 5.95 0 9.69 4.13 9.69 9.36 0 5.07-3.09 8.65-9.14 9.58m-6.6-5.37c1 0 1.94-1.52 2.93-4.76a36.58 36.58 0 001.27-5.81 7.56 7.56 0 00-6.1 7c0 2.43 1 3.61 1.9 3.61M754.3 200.11a2.87 2.87 0 010 5.74 1.12 1.12 0 01-.31 0c-.07.27-.12.51-.19.72-.55 2.35-1.59 6.07-3.6 8.74a19.28 19.28 0 01-9.65 6.65l-2.62-2.88a15.72 15.72 0 009.41-5.64 15 15 0 002.81-6.77H739c-1.1 0-2.26.05-2.86.09v-3.38a25.91 25.91 0 002.86.19h11.1a10.51 10.51 0 001.37-.09 3.24 3.24 0 01-.05-.46 2.89 2.89 0 012.88-2.88m0 4.25a1.38 1.38 0 10-1.39-1.37 1.39 1.39 0 001.39 1.37M765 203.61H780.58c-.05.72-.05 1.6-.05 2.32v11.77c0 .93.05 3.24.05 3.33h-3.31v-1.29h-11.53v1.29h-3.31c0-.12.07-2.21.07-3.36v-11.78-2.32h2.54m.72 13h11.6v-10h-11.6zM788 212.42c1.27-1.29 3.29-4 4.71-5.73s2.64-1.88 4.22-.27 3.29 3.84 4.83 5.5 3.84 4.1 6 6l-1.54 1.76c-1.8-1.71-4-4.16-5.64-6s-3.38-4.08-4.49-5.33c-1-1.1-1.49-.93-2.33.08-1.13 1.41-3.07 4.05-4.29 5.54-.51.62-1.06 1.34-1.42 1.85l-1.78-1.8a17.32 17.32 0 001.73-1.59"/><path class="cls-2" transform="rotate(-45 821.949 211.458)" d="M806.63 210.95h30.62v1.02h-30.62z"/><path class="cls-4" d="M195.53 68.69a48.1 48.1 0 01-4.13 3.64 77.09 77.09 0 00-6.79-5.46 43 43 0 0014.49-16.73l8.12 2.38a37.68 37.68 0 01-2.73 4.9h42v7.35h-6.59v9h9.1v7.42h-9.11V90H248v7.42h-60.8V90h8.33v-8.85h-9.38v-7.42h9.38zm-10.08 43.69c3.08-2.95 6.23-8.34 7.84-13.45l8.05 2a38.35 38.35 0 01-8 14.71zm17.43-38.65h5v-9h-5zm0 16.31h5v-8.89h-5zm10.64 10.43a91.69 91.69 0 011.75 13.1l-8.12 1.19a89 89 0 00-1.33-13.38zm6.48-35.7h-5.18v9H220zM214.85 90H220v-8.85h-5.18zm12.67 10.15a77.81 77.81 0 014.06 13l-8.33 1.61a74.68 74.68 0 00-3.57-13.31zm4.76-35.42H227v9h5.32zm0 16.38H227V90h5.32zm9.24 17.5c3.15 4.27 7.08 10.15 8.83 14l-8.55 2.88c-1.47-3.71-5.18-9.88-8.26-14.36zM281.83 99.84a93.51 93.51 0 00-5-9.1v24.58h-7.7V90.6c-2.24 6.51-5 13-8 17.22a49.51 49.51 0 00-3.79-8.61c3.51-4.27 7.08-11.76 9.25-18.13h-8v-7.77h10.58V50.42h7.7v22.89h10.36v7.77h-10.44v.49c2 2 8.68 9.87 10.15 11.83zm-20.24-27.79a69.17 69.17 0 00-3.14-16.17l5.81-1.54a70.18 70.18 0 013.57 16zm26.82-16.52c-1.82 5.6-3.85 12.25-5.6 16.31l-5.25-1.47A130.21 130.21 0 00281.41 54zm27.16 41v18.91h-7.84V98l-19.53 3.5-1.26-7.77L307.73 90V50.07h7.84v38.5l7.14-1.33L324 95zm-23.94-25.39c4.06 2.17 9.24 5.53 11.76 8l-4.2 6.65c-2.31-2.59-7.42-6.3-11.48-8.75zm10.15-2.52c-2.17-2.73-7-6.51-10.85-9.1l4-5.6c3.92 2.31 8.89 5.88 11.13 8.47zM360.32 59.52c-.07 2.17-.14 4.27-.28 6.3h13.16a32.54 32.54 0 005.25-.49l6.09 2.94a28.62 28.62 0 00-.49 3.71c-.28 7.56-1.12 27.09-4.13 34.23-1.54 3.57-4.2 5.39-9 5.39-4 0-8.19-.28-11.55-.56l-1.12-9.38a57.94 57.94 0 009.8 1c2.24 0 3.22-.77 4-2.45 2-4.41 2.94-18.41 2.94-26H359.2c-2.59 18.48-9.24 29.47-21.77 38.36l-8.12-6.57a41.71 41.71 0 009.17-6.86c6.51-6.44 10-14.28 11.55-24.92h-9.24c-2.38 0-6.23 0-9.24.28v-9.17c2.94.28 6.58.49 9.24.49h10c.07-2 .14-4 .14-6.09a51.8 51.8 0 00-.49-6.44h10.29c-.21 1.61-.35 4.55-.42 6.23M430.06 58.68v5.39h12.18a17 17 0 005.81-.77l6.09 3.7a46.74 46.74 0 00-1.4 5.6 65.19 65.19 0 01-6.51 19.81c-5.6 10.36-16.1 17.78-28.56 21l-7.28-8.41a57 57 0 009.87-2.73 34.27 34.27 0 0015.89-12c3.57-5.11 5.39-11.76 6.23-18h-34.72v10.28c0 1.61.07 3.78.21 5.18h-9.66a53.09 53.09 0 00.35-5.88V69.74a44.69 44.69 0 00-.35-6 58.07 58.07 0 007.14.35h15v-5.41a34.59 34.59 0 00-.56-6.44h10.78a50.88 50.88 0 00-.49 6.44M491.3 93.68c12-7.07 21.07-17.78 25.49-27.23l5.46 9.87c-5.32 9.45-14.64 19.11-25.91 25.9a75.81 75.81 0 01-26 9.88l-5.88-9.25a72.15 72.15 0 0026.81-9.17m0-22.61l-7.14 7.28a145.55 145.55 0 00-17.5-15.12l6.58-7c4.9 3.29 14 10.57 18.06 14.84M548.27 81c-6.23 1.26-11.76 2.38-14.7 3.08l-1.68-9.17c3.29-.42 9.45-1.47 16.38-2.73v-10a60.54 60.54 0 00-.56-8h10.43a73.57 73.57 0 00-.63 8v8.26c10.22-2 20-3.92 23.17-4.69a19.74 19.74 0 005-1.61l6.72 5.18c-.63 1-1.68 2.59-2.31 3.85-3.09 5.83-9.48 15.4-14.52 20.37l-7.7-4.54a59.61 59.61 0 0011.2-14.21c-2.17.49-11.62 2.31-21.56 4.34v18.54c0 4.34 1.26 5.88 9 5.88a114.36 114.36 0 0022-2.38l-.28 9.52a162.85 162.85 0 01-21.7 1.54c-16 0-18.27-3.85-18.27-12.11zM617.29 61.06v23.66c0 1.75.07 4.48.21 6.09h-10.15c.07-1.33.35-4.06.35-6.16V61.06a49.7 49.7 0 00-.28-5.39h10.08c-.14 1.61-.21 3.15-.21 5.39m32.42 1V76c0 15-2.94 21.56-8.12 27.3-4.62 5-11.9 8.48-17 10.08l-7.29-7.7c6.94-1.61 12.61-4.27 16.81-8.82 4.83-5.25 5.74-10.5 5.74-21.42V62.11a49.38 49.38 0 00-.42-7H650c-.14 2-.28 4.2-.28 7M691.57 93.68c12-7.07 21.07-17.78 25.49-27.23l5.46 9.87c-5.32 9.45-14.64 19.11-25.91 25.9a75.81 75.81 0 01-26 9.88l-5.88-9.25a72.15 72.15 0 0026.81-9.17m0-22.61l-7.14 7.28a145.55 145.55 0 00-17.5-15.12l6.58-7c4.9 3.29 14 10.57 18.06 14.84M787.36 61.69l-5.18 2.17 6 3.64a28 28 0 00-2.31 5 71.07 71.07 0 01-12.25 23.31c-6.65 8.19-15.05 14.56-28.21 19.82l-8.26-7.43c14.28-4.27 22-10.36 28.21-17.36 4.76-5.39 8.82-13.86 9.94-19h-19.72a78.65 78.65 0 01-17.71 16.94L730 82.9a60.54 60.54 0 0021.84-22.54 31.67 31.67 0 003.16-7.28l10.29 3.36a72.62 72.62 0 00-4.29 7.14c-.07.14-.14.21-.21.35h14a22.05 22.05 0 006.09-.84l.49.28a81.17 81.17 0 00-5.11-9l5.53-2.24a89 89 0 015.53 9.59m8.4-3.22l-5.53 2.38a74.22 74.22 0 00-5.67-9.66l5.57-2.22a100 100 0 015.67 9.52M842.8 98.37c5 5.6 12.81 8.82 23.87 10a32.45 32.45 0 00-4.9 7.29c-13.3-2.1-21.64-7.08-27.17-15.76-4.13 6.23-11.9 11.76-26.18 15.62a34 34 0 00-5.18-6.73c11.76-2.66 18.48-6.3 22.33-10.43H804.5v-7.2h25.13a32.08 32.08 0 00.7-4.41h-17.92V80h18v-4.2h-19.12v-4.59h-6.23V56.3h25.55v-6.09h8.54v6.09h25.63v14.91h-5.6v4.62h-20.45V80h19v6.72h-19.07a23.77 23.77 0 01-.56 4.41h27.66v7.21zm-12.4-29.26v-4h8.33v4h17.44v-5.53h-42.85v5.53zM930.92 108.39c2.73 0 3.29-1.2 3.71-7.36a22.93 22.93 0 006.72 2.87c-.91 8.76-3 11.42-9.8 11.42H919.3c-8.26 0-10.5-2.24-10.5-10.23V91.65L905.93 93l-2.87-6.79c-.28 17.15-.77 23.87-2.38 26.12a6.3 6.3 0 01-4.48 2.87 36.59 36.59 0 01-7.21.35 19.64 19.64 0 00-2-7.43 37.76 37.76 0 005 .29 2 2 0 002-1.12c.91-1.41 1.33-7.29 1.61-23.74h-5.46c-1 12.6-3.22 24-9 31.93a24.71 24.71 0 00-5.95-5.81c6.93-9.6 7.56-25 7.77-41.17h-6.72v-7.7H887V50.21h8v10.57h10.92V66a50.56 50.56 0 006.23-15.89l8.19 1.54c-.56 2.45-1.33 4.9-2.1 7.28h22v7.56H915a45.59 45.59 0 01-4 6.79h5.11V80l3.78-1.75v-10h6.93v6.79l5-2.31.28-.21 1.26-.91 5.18 1.82-.28 1.12c-.07 9.94-.07 17.08-.28 19.18-.14 2.52-1.12 4.06-3 4.83a16 16 0 01-5.81.77 19 19 0 00-1.47-6.09c.84.07 1.82.07 2.38.07s.91-.14 1-1c.14-.63.14-4.48.21-11.13l-4.48 2.1v19.53h-6.93V86.47l-3.78 1.75v16.87c0 2.87.49 3.3 4 3.3zM908.8 83.46v-7.28l-.63.7a45.4 45.4 0 00-6.23-5.88 26.1 26.1 0 002.24-2.52h-13.37l-.21 7.49h12.6v3.15l-.14 7zM1008.54 62.25v34.93h-8.75v-3.5H984v21.85h-8.82V93.68H959.4v3.85H951V62.25h24.15V50.14H984v12.11zm-33.39 8.19H959.4v15h15.75zm24.64 0H984v15h15.82zM1038.8 103.69a6.41 6.41 0 1112.81 0 6.41 6.41 0 11-12.81 0m1.54-37.69l-.35-9.73h10.36L1050 66l-1.47 25.83h-6.72zM1064.17 103.69a6.41 6.41 0 1112.81 0 6.41 6.41 0 11-12.81 0m1.54-37.69l-.35-9.73h10.36l-.35 9.73-1.47 25.83h-6.72z"/><path fill="#e75513" d="M553.33 316.91h140v35h-140z"/><path class="cls-2" d="M482.88 338.45c-3 .91-6.19 1.82-8.59 2.52l-.55-2.14c1-.22 2.25-.55 3.6-.91v-5.38h-2.88v-2.06h2.88v-4.68h-3.12v-2.07h8.23v2.07h-2.95v4.68h2.71v2.06h-2.71v4.78l3.07-.87zm10.92 4c.51 0 .6-.36.67-2.78a5.7 5.7 0 001.88.84c-.2 3.07-.72 3.87-2.28 3.87H492c-1.92 0-2.38-.63-2.38-2.62v-5.07h-2c-.43 3.84-1.63 6.51-6.5 8a6.21 6.21 0 00-1.25-1.83c4.3-1.13 5.21-3.17 5.57-6.17h-2v-13.2h11.4v13.2h-3.14v5c0 .65.09.72.6.72zm-8.23-15.12h7.1v-2h-7.1zm0 3.75h7.1v-2h-7.1zm0 3.74h7.1v-2h-7.1zM508.15 328.15a25.83 25.83 0 01-2.3 3.22v13.15h-2.18v-10.75a29.11 29.11 0 01-2.5 2.23 16.93 16.93 0 00-1.25-2.11 22.55 22.55 0 006.22-6.53zm-.67-4.78a24.07 24.07 0 01-6.14 5.93 11.32 11.32 0 00-1.15-1.85 18.18 18.18 0 005.16-4.92zm13.25 10.08a15.88 15.88 0 01-4.39 6.77 17.32 17.32 0 006.24 2.38 8.92 8.92 0 00-1.42 2 17.53 17.53 0 01-6.62-2.93 22.37 22.37 0 01-6.34 2.93 9.39 9.39 0 00-1.2-1.9 18.85 18.85 0 005.85-2.53 16.21 16.21 0 01-3.19-4.77l1.68-.51h-3v-2h10.51l.41-.07zm-8.45-7.39c0 2.14-.48 4.78-2.95 6.48a9.86 9.86 0 00-1.82-1.27 5.79 5.79 0 002.61-5.26v-2.64h8.35v5.48c0 .4 0 .67.15.76a.49.49 0 00.36.1h.72a1.25 1.25 0 00.48-.07.76.76 0 00.26-.53c0-.31.08-1.06.1-2a5.3 5.3 0 001.7.89 11.78 11.78 0 01-.28 2.42 1.67 1.67 0 01-.82.92 4.17 4.17 0 01-1.32.24h-1.39a2.39 2.39 0 01-1.61-.51c-.41-.36-.55-.84-.55-2.25v-3.48h-4zm-.6 8.83a11.48 11.48 0 002.88 4 13.68 13.68 0 003.12-4zM537.78 343.56l-1.42-2.26a15.16 15.16 0 002.14-.33c3.07-.7 5.81-3 5.81-6.82a6.39 6.39 0 00-5.81-6.7 49.44 49.44 0 01-1.44 6.75c-1.44 4.89-3.44 7.61-5.81 7.61s-4.56-2.64-4.56-6.65c0-5.38 4.7-10 10.73-10 5.76 0 9.41 4 9.41 9.05s-3.22 8.5-9.05 9.34m-6.46-4.55c1.08 0 2.21-1.56 3.31-5.26a38.31 38.31 0 001.37-6.24 8 8 0 00-6.84 7.42c0 2.76 1.18 4 2.21 4M581.75 327.72v1.27c-.22 9.82-.41 13.3-1.18 14.4a2.68 2.68 0 01-1.89 1.2 15.93 15.93 0 01-3 .1 6.68 6.68 0 00-.84-2.74c1.06.1 2 .12 2.43.12a.86.86 0 00.81-.41c.51-.65.75-3.57.89-11.33h-2.17c-.31 6.44-1.42 11.38-5.45 14.57a9.1 9.1 0 00-1.68-1.89c-3.45.36-6.91.72-9.5.93l-.34-2.4 4.87-.33v-1.44h-4.22v-2h4.22v-.94h-4.12v-7.43h4.12v-.94H560v-2.06h4.72v-1c-1.39.09-2.76.17-4.05.19a8.9 8.9 0 00-.63-2 75 75 0 0010.35-1.17l1.25 2.13c-1.28.27-2.76.48-4.32.65v1.18h4.6v1.32h2.26v-5h2.74v5zm-18.92 4.53h1.87v-1.05h-1.87zm1.87 1.75h-1.87v1h1.87zm2.6 7c1.36-.1 2.78-.22 4.17-.34 1.87-2.59 2.45-6 2.62-10.32h-2.19v-1.87h-4.6v.94h4.24v7.41h-4.24v.94h4.34v2h-4.34zm1.87-9.79h-1.87v1.05h1.87zM567.3 335h1.87v-1h-1.87zM608.29 323.76v2.66h-9.41v1.92h4.37v10.87h-11.43v-10.87H596v-1.92h-9.2v-2.66zm-3.48 4.24h2.76v16.7h-2.76v-1.39h-14.5v1.42h-2.79V328h2.79v12.62h14.5zm-10.66 4.68h2.09v-2h-2.09zm0 4.2h2.09v-2h-2.09zm6.62-6.22h-2.08v2h2.08zm0 4.18h-2.08v2h2.08zM624.58 343.77l-1.8-2.85a17.73 17.73 0 002.23-.39c3.08-.72 5.48-2.92 5.48-6.43 0-3.31-1.8-5.78-5-6.33a50.23 50.23 0 01-1.44 6.5c-1.44 4.85-3.51 7.82-6.12 7.82s-4.88-2.92-4.88-7c0-5.54 4.8-10.27 11-10.27 6 0 9.7 4.13 9.7 9.36 0 5.06-3.1 8.64-9.15 9.57m-6.6-5.35c1 0 1.95-1.51 2.93-4.75a36 36 0 001.27-5.81 7.54 7.54 0 00-6.09 7c0 2.42 1 3.6 1.89 3.6M656.9 322.17a2.87 2.87 0 010 5.74 1.72 1.72 0 01-.32 0c-.07.26-.12.5-.19.72-.55 2.35-1.58 6.07-3.6 8.73a19.24 19.24 0 01-9.65 6.65l-2.61-2.88a15.74 15.74 0 009.41-5.64 15.06 15.06 0 002.8-6.77h-11.16c-1.1 0-2.25.05-2.85.1v-3.39a25.49 25.49 0 002.85.2h11.12a10.72 10.72 0 001.36-.1 3.15 3.15 0 010-.46 2.89 2.89 0 012.88-2.88m0 4.25a1.38 1.38 0 000-2.76 1.38 1.38 0 100 2.76M667.62 325.68h13.2c.6 0 1.51 0 2.38-.05-.05.72-.05 1.61-.05 2.33v11.76c0 .93.05 3.24.05 3.33h-3.32v-1.29h-11.54v1.29h-3.31c0-.12.07-2.2.07-3.36V328v-2.33c1 0 1.9.05 2.55.05m.72 13h11.59v-10h-11.62zM706.4 325.61l-.57 3c1-.1 1.87-.14 2.42-.14 2.31 0 4.08.93 4.08 4.29 0 2.83-.36 6.7-1.37 8.71a3.58 3.58 0 01-3.69 2.12 13.39 13.39 0 01-2.86-.36l-.41-2.5a12.61 12.61 0 003 .48 1.92 1.92 0 002-1.13 19.75 19.75 0 001.06-7.05c0-2.07-.94-2.43-2.45-2.43a21.42 21.42 0 00-2.18.15c-.89 3.52-2.6 9.07-5 12.91l-2.47-1c2.4-3.25 4.12-8.43 5-11.69l-2.61.31c-.6.07-1.73.21-2.38.33l-.24-2.59a22.63 22.63 0 002.33 0c.77 0 2.06-.12 3.41-.24a26.86 26.86 0 00.57-5.16l2.81.29c-.12.5-.24 1.13-.36 1.66m10.52.84l-1.54.64a42.34 42.34 0 014 8.12l-2.47 1.16a27.74 27.74 0 00-4.17-8.78l2.23-1s.07.09.1.14a21.43 21.43 0 00-1.71-2.93l1.56-.65a35.6 35.6 0 011.95 3.32m2.78-1.06l-1.56.7a25.14 25.14 0 00-2-3.32l1.56-.64c.62.88 1.53 2.4 2 3.26M730.27 323.21a36.74 36.74 0 01-1.89 4.6v16.76h-2.14v-13a24.91 24.91 0 01-2 2.64 15.62 15.62 0 00-1.11-2.36 27 27 0 005.07-9.28zm14.64.64v20.45h-2.11v-1.2h-9.89v1.42h-2v-20.67zm-2.11 1.95h-9.89v15.33h9.89zm-4 4.89v2.4h2.54v6.39h-6.72v-6.39H737v-2.4h-3.21V329H737v-2.59h1.78V329h3.34v1.65zm.82 4h-3.34v3.17h3.34zM761.08 333.89v.91c-.26 5.85-.5 8.09-1.15 8.83a2 2 0 01-1.63.77 17.33 17.33 0 01-2.9.05 4.65 4.65 0 00-.63-2 24.25 24.25 0 002.57.12c.38 0 .62 0 .79-.27.41-.43.65-2.13.84-6.45h-3.36c-.55 3.38-1.65 6.58-4.18 8.69a5.41 5.41 0 00-1.53-1.56c3.21-2.59 3.74-7.25 4-11.43h-2.5v-8h9.58v8H756c0 .77-.09 1.54-.19 2.31zm-7.71-4.28h5.38v-4h-5.38zm11.84 9h-2.16v-13.22h2.16zM771 323v18.72c0 1.39-.33 2-1.17 2.45a13.79 13.79 0 01-4.51.38 10.21 10.21 0 00-.8-2.28c1.64.07 3.15.05 3.63.05s.62-.17.62-.6V323zM781.05 326.28a58.58 58.58 0 00-1.17 9.05 25 25 0 00.14 2.56c.41-1 .89-2.16 1.27-3l1.2 1c-.62 1.82-1.46 4.39-1.7 5.59a5 5 0 00-.12 1.1c0 .24 0 .6.05.89l-2.19.15a30.69 30.69 0 01-.88-7.76 68.39 68.39 0 011-9.57 18 18 0 00.21-2l2.67.24a18.59 18.59 0 00-.51 1.83m5.74 12c0 1.08.84 2 3.75 2a25.47 25.47 0 006-.65v2.57a32.7 32.7 0 01-6.07.48c-4.08 0-6-1.42-6-3.74a12.12 12.12 0 01.41-3l2.16.2a8.54 8.54 0 00-.31 2.13m9-12.12v2.45a61.44 61.44 0 01-10.06 0v-2.45a44.2 44.2 0 0010.09 0M811.57 329.21a32.6 32.6 0 01-2 7.22 28.69 28.69 0 012.57 4l-1.8 1.51a24.21 24.21 0 00-1.87-3.24 16.3 16.3 0 01-5.18 5.64 12.56 12.56 0 00-1.52-1.73 13.89 13.89 0 005.33-5.85 59.82 59.82 0 00-4.1-5l1.56-1.27c1.15 1.2 2.35 2.59 3.5 4a31.61 31.61 0 001.32-5.57zm12.41 1h-2.72v11.45c0 1.37-.31 2-1.08 2.42a11.29 11.29 0 01-4.13.46 9.65 9.65 0 00-.72-2.38c1.44.05 2.74.05 3.15 0s.57-.12.57-.53v-11.44h-6.28v-1.8h-10.42v-2.06h4.37v-3.8h2.16v3.8h4.63V328h5.54v-5.52h2.21V328H824zm-8.65 8.35a19.77 19.77 0 00-2.52-5.25l1.83-.87a18 18 0 012.61 5.16zM831.83 331.53c0 3.75-.36 9.32-2.45 13a11.57 11.57 0 00-1.89-1.27c1.94-3.41 2.11-8.28 2.11-11.72v-6.09h8.64v-2.93h2.33v2.93h8.9v2.16h-17.64zm-.19 9.94a18.11 18.11 0 001.94-7.25l2 .46c-.28 2.61-.84 5.78-2 7.68zm11.06.6c.87 0 1-.6 1.11-4a7 7 0 002 .91c-.22 4-.8 5.09-2.91 5.09h-3.12c-2.25 0-2.83-.72-2.83-3v-8.81h2.18v8.81c0 .84.17 1 1 1zm0-8.86a29.49 29.49 0 00-5.55-3.69l1.52-1.47a30.44 30.44 0 015.64 3.51zm3.86.44a25.64 25.64 0 013.39 7.8l-2.19.91a26.28 26.28 0 00-3.17-7.92zM505.57 377.43a23.67 23.67 0 01-5.88 6.62l-2-1.6a14.67 14.67 0 004.89-5h-13.14c-1 0-1.8.07-2.83.14V375a21.39 21.39 0 002.83.21h13.42a13.26 13.26 0 002-.16l1.51 1.41c-.22.26-.6.72-.79 1M490 393.73l-2.21-1.8a9.2 9.2 0 002.31-1.18c3.43-2.21 4-5.23 4-9.22a10.73 10.73 0 00-.14-1.92h2.73c0 6.27-.36 10.88-6.67 14.12M514.22 376.9a16.54 16.54 0 00-.22-2.69h3c-.08.8-.2 1.83-.2 2.69v3.75a76.57 76.57 0 0110.16 3.84l-1.06 2.59a65.65 65.65 0 00-9.1-3.72v7.41c0 .79.07 2.21.17 3.08H514a25.47 25.47 0 00.19-3.08zm11.09 1.85l-1.68.74a23 23 0 00-2.11-3.67l1.6-.69a29 29 0 012.19 3.62m3.09-1.34l-1.65.81a24.32 24.32 0 00-2.21-3.6l1.61-.74a34.46 34.46 0 012.25 3.53M537.39 376.33l2.72.55c-.17.6-.39 1.51-.51 2a50.63 50.63 0 01-2.11 7.39A34.71 34.71 0 01534 393l-2.61-1.11a30.86 30.86 0 003.72-6.57 36.41 36.41 0 002.32-9m6 .52l2.47-.81a83.58 83.58 0 013.53 7.7c.91 2.31 2.19 6.05 2.83 8.31l-2.73.88a83 83 0 00-2.62-8.35 65.46 65.46 0 00-3.48-7.73m7.13.2l-1.56.67a28.38 28.38 0 00-1.92-3.31l1.56-.65a30 30 0 011.92 3.29m2.78-1.06l-1.56.7a26.09 26.09 0 00-2-3.32l1.53-.64c.62.91 1.54 2.4 2 3.26M566.83 379.28a29.68 29.68 0 006.67-5.71l2 1.92a41 41 0 01-6.46 5.25v10a17.87 17.87 0 00.17 2.83h-3a25.19 25.19 0 00.15-2.83v-8.35a48.94 48.94 0 01-8.86 3.72l-1.18-2.38a39.56 39.56 0 0010.47-4.41M597.31 377.74a32.83 32.83 0 01-3.94 6.84 62.68 62.68 0 016.87 7l-2.11 1.87a54.88 54.88 0 00-6.36-7 31.69 31.69 0 01-9.24 6.91l-1.95-2a27.07 27.07 0 009.87-7 19.75 19.75 0 003.81-6.34h-8.81c-.93 0-2.23.12-2.61.15v-2.72a23.47 23.47 0 002.61.17h8.91a7.09 7.09 0 002.09-.24l1.56 1.15a8.2 8.2 0 00-.7 1.25M614.18 373.59l2.59-.31a26.4 26.4 0 001 4 30.31 30.31 0 005.18-1.15l.29 2.4a42.58 42.58 0 01-4.68.93 26.17 26.17 0 002.47 4.47 11.55 11.55 0 001.15 1.41L621 387a56 56 0 00-6-.72l.17-2c1.27.09 3 .24 3.79.33a32.81 32.81 0 01-2.61-5 63.37 63.37 0 01-10.18-.07v-2.42a49.91 49.91 0 009.39.31c-.24-.75-.46-1.37-.63-1.85s-.4-1.32-.67-2m-5 14.76c0 2.16 2 3.1 5.4 3.12a29.66 29.66 0 006.29-.58l-.12 2.4a31.81 31.81 0 01-6.31.53c-4.71 0-7.68-1.77-7.68-5.11a9.34 9.34 0 011.2-4.2l2.37.53a6.1 6.1 0 00-1.15 3.31M645.16 375.89v3l2.28-.17c.63 0 1.44-.1 2.07-.14V381h-2.09c-.62 0-1.42 0-2.31.1a34.67 34.67 0 01-.36 4.94c-.24 1.15-.79 1.47-1.94 1.47a28.13 28.13 0 01-3.36-.36l.05-2.09a13.72 13.72 0 002.3.31c.55 0 .79-.1.84-.62.12-.72.19-2.12.24-3.48-2.33.19-4.94.43-7.18.67v5.71c.08 2.47.17 3.24 4.08 3.24a45.14 45.14 0 007.16-.6l-.07 2.57a68.12 68.12 0 01-6.94.41c-5.83 0-6.46-1.3-6.55-5.26v-5.81c-.89.1-1.63.17-2.16.24l-2.61.36-.27-2.45c.72 0 1.71 0 2.71-.14l2.33-.22v-2.92a14.35 14.35 0 00-.17-2.31h2.67a19.48 19.48 0 00-.12 2.19v2.83c2.21-.22 4.83-.46 7.23-.67V376a16.09 16.09 0 00-.17-2h2.57a14.53 14.53 0 00-.12 1.89M657.1 376.33c1.75-.17 6-.58 10.44-.94 2.56-.22 5-.36 6.62-.43v2.42a21.84 21.84 0 00-4.66.36 8 8 0 00-5.32 7.23c0 4.36 4.08 5.83 8.06 6l-.89 2.54c-4.7-.22-9.62-2.74-9.62-8a9.65 9.65 0 014.08-7.8c-2.43.26-8 .84-10.68 1.42l-.27-2.64c.94 0 1.78-.08 2.24-.12M683.3 378.32c0 1.51 0 3.53.16 5.4.36 3.77 1.35 6.31 3 6.31 1.2 0 2.25-2.62 2.8-4.8l1.9 2.23c-1.51 4.11-3 5.52-4.75 5.52-2.43 0-4.66-2.3-5.31-8.61-.24-2.12-.26-5-.26-6.44a12.58 12.58 0 00-.19-2.25l2.93.05a19.49 19.49 0 00-.24 2.59m16.82 10.17l-2.47 1c-.41-4.12-1.78-9.45-4.2-12.33l2.38-.79c2.2 2.78 4 8.28 4.29 12.16M713 375.7c-.07.41-.17.89-.29 1.42a44 44 0 004.35-.84v2.37a43 43 0 01-4.83.82c-.24 1-.5 2.14-.77 3.14a71.35 71.35 0 01-3.79 11l-2.62-.88a55.26 55.26 0 004.04-10.73c.2-.74.39-1.53.58-2.32h-1.94c-1.11 0-2 0-2.86-.09v-2.35a23.41 23.41 0 002.93.19c.74 0 1.56 0 2.4-.1.12-.72.24-1.34.29-1.8a9.65 9.65 0 00.09-2.16l2.88.22c-.14.6-.36 1.58-.45 2.06m2.83 13.35c0 1.08.65 2.07 3.72 2.07a27 27 0 004.8-.49l-.07 2.43a36.82 36.82 0 01-4.75.33c-3.92 0-6-1.27-6-3.64a13.81 13.81 0 01.41-3l2.23.21a9 9 0 00-.31 2.09m4-8.23a41.88 41.88 0 014.2.19l-.07 2.3a31.8 31.8 0 00-4.08-.31 40 40 0 00-4.54.27v-2.24c1.3-.12 3-.21 4.49-.21M737.9 376c-.09.41-.19.89-.28 1.42a40.57 40.57 0 004.34-.82v2.4a41.91 41.91 0 01-4.85.81c-.21 1-.48 2.14-.74 3.15a76.67 76.67 0 01-3.79 11l-2.65-.89a52.71 52.71 0 004.07-10.74c.19-.75.4-1.54.57-2.33-.67 0-1.32.05-1.92.05-1.13 0-2 0-2.86-.1v-2.35a23 23 0 002.93.19c.74 0 1.56 0 2.37-.1a17.19 17.19 0 00.31-1.77 10 10 0 00.1-2.19l2.88.22c-.14.6-.36 1.58-.46 2.06m2.88 13.25c0 1.08.65 2.07 3.72 2.07a28.31 28.31 0 004.81-.48l-.08 2.42a36.79 36.79 0 01-4.75.34c-3.91 0-6-1.28-6-3.65a15.89 15.89 0 01.38-3l2.26.21a8.51 8.51 0 00-.32 2.09m4-8.23a41.62 41.62 0 014.2.19l-.07 2.31a30.11 30.11 0 00-4.08-.29 39.82 39.82 0 00-4.53.24v-2.23c1.29-.12 3-.22 4.48-.22m3.48-3.03l-1.59.69a27.06 27.06 0 00-1.92-3.33l1.56-.65a37.9 37.9 0 011.95 3.29m2.78-1l-1.56.69a30.38 30.38 0 00-2-3.33l1.54-.65a34.74 34.74 0 012 3.29M764.22 373.59l2.57-.29a20.4 20.4 0 00.5 2.71 25.52 25.52 0 004.85-1.08l.31 2.19a32.9 32.9 0 01-4.61.93c.17.51.31 1 .48 1.42l.48 1.3a26.61 26.61 0 004.71-1l.38 2.25a39.48 39.48 0 01-4.15.8 21.69 21.69 0 001.49 2.61 6.17 6.17 0 001 1.13l-1.2 1.78a51.07 51.07 0 00-5.42-.75l.19-1.82 3.33.33a25.35 25.35 0 01-1.63-3 76.58 76.58 0 01-10.51 0l-.12-2.23a55.61 55.61 0 009.74.14c-.14-.36-.28-.72-.4-1.05-.22-.63-.39-1.18-.56-1.68a56.65 56.65 0 01-8.18-.2l-.14-2.18a49 49 0 007.72.31 1.72 1.72 0 00-.05-.21c-.21-.77-.45-1.59-.74-2.38m-4.42 15.26c0 1.9 1.73 2.79 5.23 2.79a28.37 28.37 0 005.86-.53l-.12 2.42a37.11 37.11 0 01-5.71.44c-4.75 0-7.54-1.42-7.59-4.66a7.32 7.32 0 011-3.6l2.35.46a4.61 4.61 0 00-1 2.68M790.82 375.08c0 .29 0 .74-.05 1.27a53.48 53.48 0 006.31-.67v2.21c-1.77.21-4 .43-6.33.52v3c2.37-.1 4.49-.31 6.57-.6v2.23c-2.21.27-4.2.43-6.51.53.05 1.1.13 2.26.17 3.34a19.17 19.17 0 016.89 3.67l-1.39 2.13a18.62 18.62 0 00-5.38-3.5v1.25c0 1.82-1.32 3.48-4.46 3.48-3.6 0-5.55-1.34-5.55-3.75s2.14-3.86 5.71-3.86c.63 0 1.2.05 1.78.1 0-.94-.07-1.92-.1-2.81h-1.32c-1.53 0-4.2-.12-5.85-.31v-2.26a47.86 47.86 0 005.93.43h1.23v-2.95h-1c-1.58 0-4.46-.24-6-.43v-2.19a43.24 43.24 0 006 .53h1V375a7.67 7.67 0 00-.12-1.52h2.57c-.05.44-.1 1-.12 1.64m-4.47 16.7c1.35 0 2.38-.4 2.38-1.94v-1.35a11.22 11.22 0 00-2.19-.21c-2 0-3.14.79-3.14 1.75s.91 1.75 3 1.75M816.73 375.25v1.2h7.2v2.25c-1.42-.07-3.7-.12-7.18-.12v3.77a5.92 5.92 0 01.84 3.19c0 3.19-1.71 7-7.4 8.62l-2-2c2.84-.62 5-1.68 6.2-3.53a3.77 3.77 0 01-1.68.36 4 4 0 01-4-4.17 4.34 4.34 0 014.47-4.32 4.78 4.78 0 011.34.17v-2c-3.65 0-7.59.19-10.56.38l-.07-2.3c2.71-.05 7.17-.17 10.6-.22v-1.22c-.08-.77-.15-1.52-.2-1.76h2.76a14.57 14.57 0 00-.14 1.76M813 386.89c1.25 0 2.19-1 1.88-3.24a2 2 0 00-1.88-1.16 2.17 2.17 0 00-2.18 2.26 2.11 2.11 0 002.18 2.14M836.34 390.51a3.76 3.76 0 01-7.51 0 3.76 3.76 0 117.51 0m-1.44 0a2.31 2.31 0 10-2.31 2.3 2.3 2.3 0 002.31-2.3M465.14 441.93c.74.07 1.58.09 2.45.09h7.27a7.7 7.7 0 00-.77 2.11h-6.62c-4.59 0-7.63-.67-9.6-3.72a11.77 11.77 0 01-3.55 4.2 13.21 13.21 0 00-1.66-1.58c2.45-1.56 3.94-4.2 4.54-7.54l2.23.31a20.09 20.09 0 01-.6 2.26 5.83 5.83 0 004.08 3.5v-6.72h-9.6v-2h21v2h-9.19v2.28h7.63v1.95h-7.63zm6.7-10.47h-16.16v-8.06h16.16zm-2.26-6.41h-11.74v1.61h11.74zm0 3.17h-11.74v1.59h11.74zM489.93 437.53c-.84.15-1.68.32-2.5.46a11.48 11.48 0 01-6.14 6.82 9.31 9.31 0 00-1.59-1.68 9.78 9.78 0 005.12-4.68c-2 .33-3.89.67-5.45.93l-.46-2.21c1.73-.24 4.13-.57 6.7-1a12.69 12.69 0 00.26-2.49v-.34h-5.76v-2.06h5.76V428h-6v-2.09h6v-3.29h2.23v11.09a13.65 13.65 0 01-.16 2.13l1.89-.28zm11 1.35h-7.1v5.64h-2.23v-21.89h2.23v3.29h6.67V428h-6.67v3.31H500v2.06h-6.14v3.41h7.1zM505.5 438.81l2-1.73a45.05 45.05 0 015.31 5.3l-2 1.73a43 43 0 00-5.23-5.3M540.71 425.17c0 .58-.05 1.35-.09 2.21a30.21 30.21 0 004.72-.91v2.35c-1.39.31-3.17.6-4.82.79 0 1-.05 1.92-.05 2.79v.84a18.51 18.51 0 015-.77c3.58 0 6.27 1.92 6.27 5 0 2.86-1.66 4.85-5.19 5.69a18.87 18.87 0 01-3.05.36l-.86-2.45a11.91 11.91 0 002.88-.17c2-.38 3.77-1.44 3.77-3.45 0-1.85-1.66-2.88-3.84-2.88a16.34 16.34 0 00-4.92.79c0 2 .09 4 .09 5 0 2.54-.93 3.29-2.35 3.29-2.09 0-5.28-1.92-5.28-4.23 0-2 2.47-4.17 5.3-5.4v-1.49-2.66c-.6.05-1.13.07-1.59.07-1.46 0-2.37 0-3.16-.12l-.08-2.3a24 24 0 003.2.19c.5 0 1 0 1.65-.07v-2.38a16.26 16.26 0 00-.15-1.9h2.64c-.07.46-.14 1.28-.19 1.85M537.64 441c.48 0 .81-.31.81-1.11s0-2.16-.07-3.72c-1.75.87-3 2.09-3 3.05s1.44 1.78 2.26 1.78m16.1-11.62l-1.17 1.92a34.65 34.65 0 00-5.55-3.55l1.06-1.82a42.45 42.45 0 015.66 3.45M564 426.81a18.35 18.35 0 01-3.84 5.32 18 18 0 00-2.07-1.44 16.41 16.41 0 005.12-8.25l2.35.5c-.22.67-.46 1.35-.7 2h14.54v1.88zm7.53 7.89a22.41 22.41 0 01-2.8 4 30.18 30.18 0 014 3.39l-1.73 1.64a29 29 0 00-3.89-3.41 25.8 25.8 0 01-6.62 4.49 12.11 12.11 0 00-1.63-1.76 22.91 22.91 0 006.48-4c-1.44-1-2.93-1.92-4.32-2.71l1.61-1.46a57.3 57.3 0 014.32 2.59 17.31 17.31 0 002.44-3.46zm4.68-2.9c0 6 .32 10.56 1.92 10.56.44 0 .56-1.35.58-3.31a11 11 0 001.51 1.36c-.17 3-.62 4.13-2.21 4.16-3.33 0-3.91-4.54-4-10.88h-13.3v-1.89zm-12.79-3.43h13.75v1.82h-13.73zM606.27 424.12a14.67 14.67 0 01-3.7 6.5 14.24 14.24 0 004.75 2.16 8.63 8.63 0 00-1.37 1.85 14.36 14.36 0 01-5-2.62 17.78 17.78 0 01-5.21 2.69 10.24 10.24 0 00-.94-1.51v3.7h-3.7v1.7h4.18v2h-4.18v4h-2v-4h-4.2v-2h4.23v-1.7h-3.6v-8.43h3.6v-1.58h-3.94v-1.95h3.94v-2.44h2v2.44h4v1.95h-4v1.58h3.7v4.35a15.24 15.24 0 004.59-2.26 15.93 15.93 0 01-2.81-4.54l1.53-.43h-2.49v-1.94h8.83l.38-.07zm-19.11 7.77h2.18v-1.82h-2.18zm0 3.39h2.18v-1.85h-2.18zm6-5.21h-2.2v1.82h2.2zm0 3.36h-2.2v1.85h2.2zm9 8.55H607v2h-12.4v-2h5.25v-3.63H596v-1.92h3.86v-2.88h2.21v2.88H606v1.92h-3.86zm-3.55-16.4a11.63 11.63 0 002.42 3.65 11.93 11.93 0 002.55-3.65zM616 426.28a57.33 57.33 0 00-1.18 9.05 25 25 0 00.14 2.56c.41-1 .89-2.16 1.28-3l1.2 1c-.63 1.82-1.47 4.39-1.71 5.59a5 5 0 00-.12 1.1c0 .24 0 .6.05.89l-2.18.15a30.61 30.61 0 01-.89-7.76 69.94 69.94 0 011-9.57c.09-.6.19-1.35.22-2l2.66.24a16.11 16.11 0 00-.5 1.83m5.73 12c0 1.08.84 2 3.75 2a25.47 25.47 0 006-.65v2.57a32.7 32.7 0 01-6.07.48c-4.08 0-6-1.42-6-3.74a12.55 12.55 0 01.4-3l2.16.2a8.54 8.54 0 00-.31 2.13m9-12.12v2.45a61.44 61.44 0 01-10.06 0v-2.45a44.11 44.11 0 0010.08 0M645.13 425.17c0 .58 0 1.35-.1 2.21a30.35 30.35 0 004.73-.91v2.35c-1.39.31-3.17.6-4.82.79v3.63a18.51 18.51 0 015-.77c3.58 0 6.27 1.92 6.27 5 0 2.86-1.66 4.85-5.19 5.69a18.87 18.87 0 01-3 .36l-.86-2.45a11.91 11.91 0 002.88-.17c2-.38 3.77-1.44 3.77-3.45 0-1.85-1.66-2.88-3.84-2.88a16.34 16.34 0 00-4.92.79c0 2 .09 4 .09 5 0 2.54-.93 3.29-2.35 3.29-2.09 0-5.28-1.92-5.28-4.23 0-2 2.47-4.17 5.3-5.4v-1.49-2.66c-.6.05-1.13.07-1.59.07-1.46 0-2.37 0-3.16-.12l-.08-2.3a24 24 0 003.2.19c.5 0 1.05 0 1.65-.07v-2.38a16.26 16.26 0 00-.15-1.9h2.64c-.07.46-.14 1.28-.19 1.85M642.06 441c.48 0 .81-.31.81-1.11s0-2.16-.07-3.72c-1.75.87-3 2.09-3 3.05s1.44 1.78 2.26 1.78m16.1-11.62l-1.16 1.96a35.1 35.1 0 00-5.55-3.55l1.05-1.79a43.1 43.1 0 015.66 3.45M682.5 425.68v13.7h-2.3v-1.2h-6.1v6.36h-2.3v-6.36h-5.93v1.32h-2.21v-13.82h8.14v-3.15h2.3v3.15zm-16.63 5.13h5.93v-3h-5.93zm5.93 2.07h-5.93v3.17h5.93zm2.3-2.07h6.1v-3h-6.1zm6.1 2.07h-6.1v3.17h6.1zM693.35 426.57c-.12 2.66-.28 8.2-.28 11.52 0 2.54 1.56 3.4 3.64 3.4 4.21 0 6.73-2.37 8.45-4.94l1.71 2.09a12.2 12.2 0 01-10.2 5.37c-3.65 0-6.1-1.56-6.1-5.54 0-3.41.24-9.6.24-11.9a14.55 14.55 0 00-.26-2.79h3.07a21.66 21.66 0 00-.27 2.76M716.46 439.41c1.06 1.65 3 2.42 5.67 2.52s8 0 11-.17a9.84 9.84 0 00-.75 2.28c-2.71.12-7.53.17-10.27 0-3.05-.12-5.11-.92-6.62-2.76-1.13 1-2.28 1.94-3.53 3L710.8 442a36.39 36.39 0 003.48-2.47v-5.64h-3.08v-2.07h5.26zm-1.1-11.21a18 18 0 00-4-3.79l1.65-1.35a18.93 18.93 0 014.11 3.67zm10.49-4.59c.48 7.08 2.16 12.77 7 15.24a10.07 10.07 0 00-1.75 1.71c-3.17-1.87-5-5-6.09-8.86a16.49 16.49 0 01-6 8.86 15 15 0 00-1.76-1.68c3.41-2.11 5.36-5.76 6.24-10.51l.82.12c-.14-.89-.24-1.83-.34-2.76h-4.27v-2.12zM743.47 424.89c1.3 0 4.2-.15 5.26-.22a5.76 5.76 0 001.39-.29l1.51 1.2a5.85 5.85 0 00-.72.89c-.64 1.06-1.63 3.31-2.59 5.47a20.9 20.9 0 016 1.78c.07-.48.12-.94.15-1.37a16.93 16.93 0 000-2.38l2.5.27a41.53 41.53 0 01-.48 4.56 32.37 32.37 0 012.73 1.75l-1.1 2.59c-.7-.6-1.46-1.2-2.3-1.8a11.57 11.57 0 01-6.22 6.87l-2-1.66a10.31 10.31 0 006.22-6.46 16.86 16.86 0 00-6.36-2.08 49.24 49.24 0 01-2.88 6.07 3.73 3.73 0 01-3.34 1.85 3.28 3.28 0 01-3.36-3.55c0-3.63 3.31-6.39 8.07-6.56.79-1.75 1.61-3.62 2.25-4.94-1 0-3.53.14-4.61.19-.5 0-1.27.1-1.87.19l-.09-2.47a18.75 18.75 0 001.89.1m-2.18 14.59a1.61 1.61 0 001.34-.82A28.21 28.21 0 00745 434c-3.14.34-4.94 2.26-4.94 4.06a1.29 1.29 0 001.27 1.44M775.54 426.61c-1.61 1.35-4.92 4-6.63 5.4-1.37 1.18-1.37 1.49.05 2.72 2 1.68 6.41 5.16 8.91 7.65l-2.19 2c-.57-.64-1.2-1.32-1.82-1.94-1.61-1.63-5.19-4.7-7.42-6.58s-2.09-3.09.19-5c1.85-1.53 5.33-4.32 7-5.93a12.61 12.61 0 001.56-1.8l2.24 2c-.6.45-1.37 1.1-1.85 1.48M793.42 426c-.09.41-.19.89-.29 1.42a40.29 40.29 0 004.35-.82v2.4a41.91 41.91 0 01-4.85.81c-.22 1-.48 2.14-.74 3.15a75.46 75.46 0 01-3.8 11l-2.64-.89a52.13 52.13 0 004.08-10.75c.2-.75.41-1.54.58-2.33-.67 0-1.32.05-1.92.05-1.13 0-2 0-2.86-.1v-2.35a22.93 22.93 0 002.92.19c.75 0 1.56 0 2.38-.1.14-.72.26-1.32.31-1.77a10 10 0 00.1-2.19l2.88.22c-.15.6-.36 1.58-.46 2.06m2.88 13.25c0 1.08.65 2.07 3.72 2.07a28.09 28.09 0 004.8-.48l-.07 2.42a36.92 36.92 0 01-4.75.34c-3.91 0-6-1.28-6-3.65a15.9 15.9 0 01.39-3l2.25.21a9 9 0 00-.31 2.09m4-8.23a41.88 41.88 0 014.2.19l-.07 2.31a30.11 30.11 0 00-4.08-.29 40.12 40.12 0 00-4.54.24v-2.23c1.3-.12 3-.22 4.49-.22m3.55-3.07l-1.58.69a27.06 27.06 0 00-1.92-3.33l1.56-.65a37.79 37.79 0 011.94 3.29m2.79-1l-1.56.69a30.38 30.38 0 00-2-3.33l1.54-.65a37 37 0 012 3.29M820.66 423.59l2.6-.31a26.33 26.33 0 001 4 30.31 30.31 0 005.18-1.15l.29 2.4a42.58 42.58 0 01-4.68.93 26.17 26.17 0 002.47 4.47 11.62 11.62 0 001.16 1.41L827.5 437a55.83 55.83 0 00-6-.72l.16-2c1.28.09 3 .24 3.8.33a32.79 32.79 0 01-2.62-5 63.37 63.37 0 01-10.18-.07v-2.42a49.78 49.78 0 009.38.31c-.24-.75-.46-1.37-.62-1.85s-.41-1.32-.68-2m-5 14.76c0 2.16 2 3.1 5.4 3.12a29.66 29.66 0 006.29-.58l-.12 2.4a31.81 31.81 0 01-6.31.53c-4.7 0-7.68-1.77-7.68-5.11a9.47 9.47 0 011.2-4.2l2.38.53a6 6 0 00-1.16 3.31M839 428.32a51.5 51.5 0 00.17 5.4c.36 3.77 1.34 6.31 3 6.31 1.2 0 2.25-2.62 2.81-4.8l1.89 2.23c-1.51 4.11-3 5.52-4.75 5.52-2.42 0-4.66-2.3-5.31-8.61-.23-2.12-.26-5-.26-6.44a12.58 12.58 0 00-.19-2.25l2.93.05a19.49 19.49 0 00-.24 2.59m16.82 10.17l-2.47 1c-.41-4.12-1.78-9.45-4.2-12.33l2.38-.79c2.2 2.78 4 8.28 4.29 12.16M868.29 440.51a3.74 3.74 0 01-3.74 3.75 3.76 3.76 0 113.74-3.75m-1.44 0a2.31 2.31 0 10-2.3 2.3 2.3 2.3 0 002.3-2.3"/></g></g></svg>