<svg xmlns="http://www.w3.org/2000/svg" viewBox="0 0 415.63 127.17"><defs><style>.cls-1{fill:#e15513;}.cls-2{fill:#fff;}</style></defs><g id="レイヤー_2" data-name="レイヤー 2"><g id="design"><rect class="cls-1" x="99.75" width="140" height="33.79"/><path class="cls-2" d="M30.22,20.81c-3,.91-6.19,1.83-8.59,2.52l-.55-2.13c1-.22,2.25-.56,3.6-.92V14.91H21.8V12.84h2.88V8.16H21.56V6.1h8.23V8.16H26.84v4.68h2.71v2.07H26.84v4.77l3.07-.86Zm10.92,4c.51,0,.6-.36.67-2.78a5.92,5.92,0,0,0,1.88.84c-.2,3.07-.72,3.86-2.28,3.86H39.32c-1.92,0-2.38-.62-2.38-2.62V19.06H35c-.43,3.84-1.63,6.51-6.5,8a6.29,6.29,0,0,0-1.25-1.82c4.3-1.13,5.21-3.17,5.57-6.17h-2V5.86h11.4v13.2H39.08v5c0,.65.09.72.6.72ZM32.91,9.7H40v-2h-7.1Zm0,3.74H40v-2h-7.1Zm0,3.75H40v-2h-7.1Z"/><path class="cls-2" d="M55.49,10.52a25,25,0,0,1-2.3,3.21V26.88H51V16.13a27.45,27.45,0,0,1-2.49,2.23,17.69,17.69,0,0,0-1.25-2.11,22.43,22.43,0,0,0,6.22-6.53Zm-.67-4.78a24.24,24.24,0,0,1-6.14,5.93,11,11,0,0,0-1.16-1.85A18.09,18.09,0,0,0,52.69,4.9ZM68.07,15.82a15.94,15.94,0,0,1-4.39,6.77A17.32,17.32,0,0,0,69.92,25a8.7,8.7,0,0,0-1.42,2A17.69,17.69,0,0,1,61.88,24,22.93,22.93,0,0,1,55.54,27a9.46,9.46,0,0,0-1.22-1.9,18.83,18.83,0,0,0,5.85-2.52A16.13,16.13,0,0,1,57,17.76l1.68-.5h-3v-2H66.15l.41-.07ZM59.62,8.43a7.4,7.4,0,0,1-2.95,6.48,9.86,9.86,0,0,0-1.82-1.27,5.79,5.79,0,0,0,2.61-5.26V5.74h8.35v5.47c0,.41,0,.67.15.77a.53.53,0,0,0,.36.1H67a1.22,1.22,0,0,0,.48-.08.77.77,0,0,0,.26-.52c0-.32.07-1.06.1-2a5.3,5.3,0,0,0,1.7.89,11.73,11.73,0,0,1-.29,2.42,1.6,1.6,0,0,1-.81.91,3.91,3.91,0,0,1-1.32.24H65.77a2.39,2.39,0,0,1-1.61-.5c-.41-.36-.55-.84-.55-2.26V7.73h-4ZM59,17.26a11.67,11.67,0,0,0,2.88,4,14,14,0,0,0,3.12-4Z"/><path class="cls-2" d="M85.12,25.92,83.7,23.67a13.74,13.74,0,0,0,2.14-.34c3.07-.69,5.81-2.95,5.81-6.81a6.39,6.39,0,0,0-5.81-6.7,49,49,0,0,1-1.44,6.74C83,21.46,81,24.17,78.59,24.17S74,21.53,74,17.52c0-5.37,4.7-10,10.73-10,5.76,0,9.41,4,9.41,9.05S91,25.08,85.12,25.92Zm-6.46-4.6c1.08,0,2.21-1.56,3.31-5.26a38.54,38.54,0,0,0,1.32-6.19,8,8,0,0,0-6.84,7.41C76.45,20,77.63,21.32,78.66,21.32Z"/><path class="cls-2" d="M129.09,10.08s0,.94,0,1.28c-.21,9.81-.41,13.29-1.17,14.4A2.72,2.72,0,0,1,126,27a16,16,0,0,1-3,.09,6.69,6.69,0,0,0-.84-2.73c1.06.09,2,.12,2.43.12a.86.86,0,0,0,.81-.41c.51-.65.75-3.58.89-11.33h-2.16c-.31,6.43-1.42,11.38-5.45,14.57a9.14,9.14,0,0,0-1.68-1.9c-3.45.36-6.91.72-9.5.94l-.34-2.4,4.87-.34V22.13h-4.22v-2H112v-.94h-4.12V11.76H112v-.93h-4.72V8.76H112v-1c-1.39.1-2.76.17-4.05.2a8.75,8.75,0,0,0-.63-2A73.37,73.37,0,0,0,117.71,4.8L119,6.94c-1.28.26-2.76.48-4.32.65V8.76h4.6v1.32h2.26c0-1.58,0-3.24,0-5h2.74c0,1.75,0,3.43-.05,5Zm-18.92,4.54H112V13.56h-1.87ZM112,17.4V16.32h-1.87V17.4Zm2.6,6c1.36-.1,2.78-.22,4.17-.34,1.87-2.59,2.45-6,2.62-10.32h-2.19V10.83h-4.6v.93h4.24v7.42h-4.24v.94H119v2h-4.34Zm1.87-8.74V13.56h-1.87v1.06Zm-1.87,1.7V17.4h1.87V16.32Z"/><path class="cls-2" d="M155.63,6.12V8.79h-9.41v1.92h4.37V21.58H139.16V10.71h4.2V8.79h-9.21V6.12Zm-3.48,4.25h2.76V27.08h-2.76v-1.4h-14.5V27.1h-2.78V10.37h2.78V23h14.5Zm-10.66,4.68h2.09V13h-2.09Zm0,4.2h2.09v-2h-2.09ZM148.11,13H146v2h2.08Zm0,4.17H146v2h2.08Z"/><path class="cls-2" d="M171.92,26.14l-1.8-2.86a17.91,17.91,0,0,0,2.23-.38c3.08-.72,5.48-2.93,5.48-6.43,0-3.31-1.8-5.79-5-6.34a50.36,50.36,0,0,1-1.44,6.51c-1.44,4.84-3.51,7.82-6.12,7.82s-4.88-2.93-4.88-7c0-5.55,4.8-10.28,11-10.28,5.95,0,9.7,4.13,9.7,9.36C181.07,21.63,178,25.2,171.92,26.14Zm-6.6-5.38c1,0,2-1.51,2.93-4.75a35.51,35.51,0,0,0,1.27-5.81,7.55,7.55,0,0,0-6.09,7C163.43,19.59,164.39,20.76,165.32,20.76Z"/><path class="cls-2" d="M204.24,4.54a2.87,2.87,0,0,1,0,5.74,1.16,1.16,0,0,1-.32,0c-.07.27-.12.51-.19.72-.55,2.35-1.58,6.07-3.6,8.74a19.24,19.24,0,0,1-9.65,6.65l-2.61-2.88a15.83,15.83,0,0,0,9.41-5.64,15.15,15.15,0,0,0,2.8-6.77H188.92c-1.1,0-2.25,0-2.85.09V7.78a25.56,25.56,0,0,0,2.85.19H200a10.48,10.48,0,0,0,1.36-.09,3.28,3.28,0,0,1,0-.46A2.89,2.89,0,0,1,204.24,4.54Zm0,4.25a1.38,1.38,0,1,0-1.4-1.37A1.4,1.4,0,0,0,204.24,8.79Z"/><path class="cls-2" d="M215,8h13.2c.6,0,1.51,0,2.38,0,0,.72,0,1.6,0,2.32V22.08c0,.94,0,3.24,0,3.34h-3.32c0-.05,0-.6,0-1.3H215.68c0,.68,0,1.23,0,1.3h-3.31c0-.12.07-2.21.07-3.36V10.32c0-.67,0-1.65-.05-2.32C213.4,8,214.31,8,215,8Zm.72,13h11.59v-10H215.68Z"/><path class="cls-2" d="M253.74,8c-.14.75-.36,1.9-.57,3,1-.1,1.87-.15,2.42-.15,2.31,0,4.08.94,4.08,4.3,0,2.83-.36,6.69-1.37,8.71A3.57,3.57,0,0,1,254.61,26a13.39,13.39,0,0,1-2.86-.36l-.41-2.49a13.17,13.17,0,0,0,2.95.48,1.93,1.93,0,0,0,2-1.13c.72-1.51,1.06-4.56,1.06-7.06,0-2.06-.94-2.42-2.45-2.42-.5,0-1.3,0-2.18.14-.89,3.53-2.6,9.07-5,12.92l-2.47-1c2.4-3.24,4.12-8.42,5-11.69l-2.61.31c-.6.08-1.73.22-2.38.34L245,11.43c.79.05,1.51,0,2.33,0s2.06-.12,3.41-.24A27,27,0,0,0,251.29,6l2.81.29C254,6.82,253.86,7.44,253.74,8Zm10.52.84-1.54.65a42.55,42.55,0,0,1,4,8.11L264.3,18.7a27.54,27.54,0,0,0-4.17-8.78l2.23-1a1.3,1.3,0,0,0,.1.15,21.43,21.43,0,0,0-1.71-2.93l1.56-.65A35.44,35.44,0,0,1,264.26,8.81ZM267,7.76l-1.56.69a25,25,0,0,0-2-3.31l1.56-.65C265.67,5.38,266.58,6.89,267,7.76Z"/><path class="cls-2" d="M277.61,5.57a37.51,37.51,0,0,1-1.89,4.61V26.93h-2.14V14a24.91,24.91,0,0,1-2,2.64,16,16,0,0,0-1.11-2.35A26.92,26.92,0,0,0,275.55,5Zm14.64.65V26.67h-2.11v-1.2h-9.89v1.41h-2V6.22ZM290.14,23.5V8.16h-9.89V23.5Zm-4-10.44v2.4h2.54v6.38h-6.72V15.46h2.4v-2.4h-3.21V11.4h3.21V8.81h1.78V11.4h3.34v1.66Zm.82,4h-3.34v3.17h3.34Z"/><path class="cls-2" d="M308.42,16.25s0,.63,0,.91c-.26,5.86-.5,8.09-1.15,8.84a2,2,0,0,1-1.63.76,17.33,17.33,0,0,1-2.9,0,4.69,4.69,0,0,0-.63-2,22.4,22.4,0,0,0,2.57.13c.38,0,.62,0,.79-.27.41-.43.65-2.14.84-6.46h-3.36c-.55,3.39-1.65,6.58-4.18,8.69a5.54,5.54,0,0,0-1.53-1.56c3.21-2.59,3.74-7.25,4-11.42h-2.5V6h9.58v8h-4.9c0,.77-.09,1.53-.19,2.3ZM300.71,12h5.38V8h-5.38Zm11.84,9h-2.16V7.76h2.16Zm5.8-15.64V24.08c0,1.39-.33,2-1.17,2.45a14.39,14.39,0,0,1-4.51.38,10.21,10.21,0,0,0-.8-2.28c1.64.07,3.15.05,3.63.05s.62-.17.62-.6V5.36Z"/><path class="cls-2" d="M328.39,8.64a58.58,58.58,0,0,0-1.17,9.05,25.35,25.35,0,0,0,.14,2.57c.41-1,.89-2.16,1.27-3.05l1.2,1c-.62,1.83-1.46,4.39-1.7,5.59a5.07,5.07,0,0,0-.12,1.11c0,.24,0,.6.05.89l-2.19.14a30.54,30.54,0,0,1-.88-7.75,68.38,68.38,0,0,1,1-9.58,17.84,17.84,0,0,0,.21-2l2.67.24A17.68,17.68,0,0,0,328.39,8.64Zm5.74,12c0,1.08.84,2,3.75,2a26,26,0,0,0,6-.65l0,2.57a33.59,33.59,0,0,1-6.07.48c-4.08,0-5.95-1.42-5.95-3.75a12.54,12.54,0,0,1,.4-2.95l2.16.19A8.62,8.62,0,0,0,334.13,20.67Zm9-12.12V11a62.57,62.57,0,0,1-10.06,0l0-2.45A44.69,44.69,0,0,0,343.16,8.55Z"/><path class="cls-2" d="M358.91,11.57a32.85,32.85,0,0,1-2,7.23,28.66,28.66,0,0,1,2.57,4l-1.8,1.52a23.6,23.6,0,0,0-1.87-3.24,16.39,16.39,0,0,1-5.18,5.64A12,12,0,0,0,349.11,25a14,14,0,0,0,5.33-5.86,61.31,61.31,0,0,0-4.1-5l1.56-1.27c1.15,1.2,2.35,2.59,3.5,4a31.61,31.61,0,0,0,1.32-5.57Zm12.41,1H368.6V24c0,1.37-.31,2-1.08,2.43a11.35,11.35,0,0,1-4.13.45,9.71,9.71,0,0,0-.72-2.37c1.44,0,2.74,0,3.15,0s.58-.12.58-.53V12.56h-6.29v-1.8H349.69V8.69h4.37V4.9h2.16V8.69h4.63V10.4h5.55V4.88h2.2V10.4h2.72Zm-8.65,8.35a19.81,19.81,0,0,0-2.52-5.26l1.83-.86A17.92,17.92,0,0,1,364.59,20Z"/><path class="cls-2" d="M379.17,13.9c0,3.74-.36,9.31-2.45,13a12.24,12.24,0,0,0-1.89-1.27c1.94-3.41,2.11-8.28,2.11-11.71V7.8h8.64V4.88h2.33V7.8h8.9V10H379.17ZM379,23.84a18.11,18.11,0,0,0,1.94-7.25l2,.45c-.28,2.62-.84,5.79-2,7.68Zm11.06.6c.87,0,1-.6,1.11-4a6.69,6.69,0,0,0,2,.91c-.22,4-.8,5.09-2.91,5.09h-3.12c-2.25,0-2.83-.72-2.83-3V14.64h2.18v8.81c0,.84.17,1,1,1Zm0-8.86a29.49,29.49,0,0,0-5.55-3.7L386,10.42a30.42,30.42,0,0,1,5.64,3.5Zm3.86.43a25.75,25.75,0,0,1,3.39,7.8l-2.19.91A26.28,26.28,0,0,0,392,16.8Z"/><path class="cls-2" d="M52.91,59.8A23.67,23.67,0,0,1,47,66.42l-2-1.61a14.58,14.58,0,0,0,4.89-5H36.78c-1,0-1.8.08-2.83.15V57.32a21.36,21.36,0,0,0,2.83.22H50.2a12,12,0,0,0,2-.17l1.51,1.42C53.48,59.05,53.1,59.51,52.91,59.8ZM37.33,76.09l-2.21-1.8a9.14,9.14,0,0,0,2.31-1.17c3.43-2.21,4-5.24,4-9.22A10.66,10.66,0,0,0,41.27,62H44C44,68.24,43.64,72.85,37.33,76.09Z"/><path class="cls-2" d="M61.56,59.27a16.45,16.45,0,0,0-.22-2.69h3c-.07.79-.19,1.82-.19,2.69V63a79.46,79.46,0,0,1,10.16,3.84L73.2,69.44a68.21,68.21,0,0,0-9.1-3.72c0,3.32,0,6.63,0,7.42s.07,2.21.16,3.07H61.37a25.43,25.43,0,0,0,.19-3.07Zm11.09,1.85L71,61.86a22.53,22.53,0,0,0-2.11-3.67l1.6-.7A29.85,29.85,0,0,1,72.65,61.12Zm3.09-1.35-1.65.82A24.32,24.32,0,0,0,71.88,57l1.61-.75A34.46,34.46,0,0,1,75.74,59.77Z"/><path class="cls-2" d="M84.74,58.69l2.71.55c-.17.6-.39,1.52-.51,2a50.36,50.36,0,0,1-2.11,7.4,34.33,34.33,0,0,1-3.53,6.69l-2.61-1.1a30.93,30.93,0,0,0,3.72-6.58A36.87,36.87,0,0,0,84.74,58.69Zm6,.53,2.47-.82a82.63,82.63,0,0,1,3.53,7.71c.91,2.3,2.18,6,2.83,8.3l-2.73.89A82.21,82.21,0,0,0,94.24,67,64.73,64.73,0,0,0,90.76,59.22Zm7.13.19-1.56.67a28.38,28.38,0,0,0-1.92-3.31L96,56.12A32,32,0,0,1,97.89,59.41Zm2.78-1-1.56.69a26,26,0,0,0-2-3.31l1.54-.65C99.3,56,100.22,57.49,100.67,58.36Z"/><path class="cls-2" d="M114.17,61.64a29.18,29.18,0,0,0,6.67-5.71l2,1.92a40.52,40.52,0,0,1-6.46,5.26v10a18,18,0,0,0,.17,2.83h-3a25.48,25.48,0,0,0,.15-2.83V64.72a49.67,49.67,0,0,1-8.86,3.72l-1.17-2.38A39.47,39.47,0,0,0,114.17,61.64Z"/><path class="cls-2" d="M144.65,60.11A32.83,32.83,0,0,1,140.71,67a63.52,63.52,0,0,1,6.87,7l-2.11,1.87a54.88,54.88,0,0,0-6.36-7,31.55,31.55,0,0,1-9.24,6.92l-2-2a27,27,0,0,0,9.87-7,19.61,19.61,0,0,0,3.81-6.33h-8.81c-.93,0-2.23.12-2.61.14V57.78c.48.07,1.87.17,2.61.17h8.91a7.44,7.44,0,0,0,2.09-.24l1.56,1.15A8.2,8.2,0,0,0,144.65,60.11Z"/><path class="cls-2" d="M161.52,56l2.59-.32a25.79,25.79,0,0,0,1,4,29.39,29.39,0,0,0,5.18-1.15l.29,2.4a40.32,40.32,0,0,1-4.68.94,26.43,26.43,0,0,0,2.47,4.46,11,11,0,0,0,1.15,1.42l-1.2,1.73a56,56,0,0,0-6.05-.72l.17-2c1.27.1,3,.24,3.79.34a33.29,33.29,0,0,1-2.61-5A63.37,63.37,0,0,1,153.48,62l0-2.43a49.08,49.08,0,0,0,9.39.31c-.24-.74-.46-1.36-.63-1.84S161.79,56.68,161.52,56Zm-5,14.76c0,2.16,2,3.09,5.4,3.12a30.34,30.34,0,0,0,6.29-.58l-.12,2.4a33.42,33.42,0,0,1-6.31.53c-4.71,0-7.68-1.78-7.68-5.11a9.31,9.31,0,0,1,1.2-4.2l2.37.52A6.13,6.13,0,0,0,156.48,70.72Z"/><path class="cls-2" d="M192.5,58.26c0,1,0,2.06-.05,3,.82-.07,1.61-.12,2.28-.16s1.44-.1,2.07-.15v2.35c-.41,0-1.47,0-2.09,0s-1.42,0-2.31.09a34.71,34.71,0,0,1-.36,5c-.24,1.15-.79,1.46-1.94,1.46a28.13,28.13,0,0,1-3.36-.36l0-2.09a13.88,13.88,0,0,0,2.3.32c.55,0,.79-.1.84-.63a34.75,34.75,0,0,0,.24-3.48c-2.33.19-4.94.43-7.18.67,0,2.36,0,4.73,0,5.72.08,2.47.17,3.24,4.08,3.24a45.14,45.14,0,0,0,7.16-.6l-.07,2.56a65.35,65.35,0,0,1-6.94.41c-5.83,0-6.46-1.29-6.55-5.25,0-1,0-3.51,0-5.81-.89.09-1.63.17-2.16.24-.74.09-2,.26-2.61.36l-.27-2.45c.72,0,1.71-.05,2.71-.14l2.33-.22V59.41a14.22,14.22,0,0,0-.17-2.3h2.67a19.43,19.43,0,0,0-.12,2.18c0,.67,0,1.68,0,2.83l7.23-.67V58.33a16.45,16.45,0,0,0-.17-2h2.57A14.7,14.7,0,0,0,192.5,58.26Z"/><path class="cls-2" d="M204.44,58.69c1.75-.17,6-.57,10.44-.93,2.56-.22,5-.36,6.62-.44v2.43a21.21,21.21,0,0,0-4.66.36,8,8,0,0,0-5.32,7.22c0,4.37,4.08,5.83,8.06,6l-.89,2.55c-4.7-.22-9.62-2.74-9.62-8a9.65,9.65,0,0,1,4.08-7.8c-2.43.26-8,.84-10.68,1.41l-.27-2.64C203.14,58.79,204,58.74,204.44,58.69Z"/><path class="cls-2" d="M230.64,60.68c0,1.52,0,3.53.16,5.4.36,3.77,1.35,6.32,3,6.32,1.2,0,2.25-2.62,2.8-4.8l1.9,2.23c-1.51,4.1-3,5.52-4.75,5.52-2.43,0-4.66-2.31-5.31-8.62-.24-2.11-.26-5-.26-6.43A12.69,12.69,0,0,0,228,58l2.93.05A19.8,19.8,0,0,0,230.64,60.68Zm16.82,10.18-2.47,1c-.41-4.13-1.78-9.46-4.2-12.34l2.38-.79C245.37,61.48,247.15,67,247.46,70.86Z"/><path class="cls-2" d="M260.3,58.07c-.07.41-.17.89-.29,1.41a40.59,40.59,0,0,0,4.34-.84V61a44.83,44.83,0,0,1-4.82.82c-.24,1-.5,2.13-.77,3.14A71.71,71.71,0,0,1,255,76l-2.62-.89a55.15,55.15,0,0,0,4.08-10.75c.2-.74.39-1.54.58-2.33-.7,0-1.34.05-1.94.05-1.11,0-2,0-2.86-.1l-.05-2.35a21.65,21.65,0,0,0,2.93.19c.74,0,1.56,0,2.4-.09.12-.72.24-1.35.29-1.8a9.67,9.67,0,0,0,.09-2.16l2.88.21C260.61,56.6,260.39,57.59,260.3,58.07Zm2.88,13.25c0,1.08.65,2.06,3.72,2.06a26.93,26.93,0,0,0,4.8-.48l-.07,2.42a36.65,36.65,0,0,1-4.75.34c-3.92,0-6-1.27-6-3.65a13.89,13.89,0,0,1,.41-3l2.23.22A8.89,8.89,0,0,0,263.18,71.32Zm4-8.24a39.11,39.11,0,0,1,4.2.2l-.07,2.3a30.09,30.09,0,0,0-4.08-.31,40,40,0,0,0-4.54.26V63.3C264,63.18,265.6,63.08,267.14,63.08Z"/><path class="cls-2" d="M285.24,58.38c-.09.41-.19.89-.28,1.42A43.22,43.22,0,0,0,289.3,59v2.35a41.89,41.89,0,0,1-4.85.82c-.21,1-.48,2.13-.74,3.14a75.83,75.83,0,0,1-3.79,11l-2.64-.89a52.48,52.48,0,0,0,4.08-10.75c.19-.74.4-1.53.57-2.33-.67,0-1.32,0-1.92,0-1.13,0-2,0-2.85-.09L277.11,60a21.4,21.4,0,0,0,2.93.2c.74,0,1.56,0,2.37-.1a16.86,16.86,0,0,0,.31-1.78,9.93,9.93,0,0,0,.1-2.18l2.88.22C285.56,56.92,285.34,57.9,285.24,58.38Zm2.88,13.25c0,1.08.65,2.06,3.72,2.06a27.32,27.32,0,0,0,4.81-.48l-.08,2.43a39,39,0,0,1-4.75.33c-3.91,0-6-1.27-6-3.65a16.1,16.1,0,0,1,.38-3l2.26.22A8.45,8.45,0,0,0,288.12,71.63Zm4-8.23a38.88,38.88,0,0,1,4.2.19l-.07,2.3a30.11,30.11,0,0,0-4.08-.29,42.26,42.26,0,0,0-4.53.24V63.61C288.89,63.49,290.55,63.4,292.08,63.4Zm3.56-3.08-1.59.7a27.94,27.94,0,0,0-1.92-3.34l1.56-.64A37.74,37.74,0,0,1,295.64,60.32Zm2.78-1-1.56.7a30.53,30.53,0,0,0-2-3.34l1.54-.65A37.46,37.46,0,0,1,298.42,59.29Z"/><path class="cls-2" d="M311.56,56l2.57-.29a20.4,20.4,0,0,0,.5,2.71,27.15,27.15,0,0,0,4.85-1.08l.31,2.18a32.85,32.85,0,0,1-4.61.94c.17.5.31,1,.48,1.42l.48,1.29a26.61,26.61,0,0,0,4.71-1l.38,2.26a37.25,37.25,0,0,1-4.15.79,21.09,21.09,0,0,0,1.49,2.62,6.17,6.17,0,0,0,1,1.13l-1.2,1.77a53.93,53.93,0,0,0-5.42-.74l.19-1.83,3.33.34a26.14,26.14,0,0,1-1.63-3,76.58,76.58,0,0,1-10.51,0l-.12-2.24a56.7,56.7,0,0,0,9.74.15c-.14-.36-.28-.72-.4-1.06-.22-.62-.39-1.17-.56-1.68a56.53,56.53,0,0,1-8.18-.19l-.14-2.18a49,49,0,0,0,7.72.31l-.07-.22C312.09,57.56,311.85,56.75,311.56,56Zm-4.42,15.26c0,1.9,1.73,2.78,5.23,2.78a28.42,28.42,0,0,0,5.86-.52l-.12,2.42a38.47,38.47,0,0,1-5.71.43c-4.75,0-7.54-1.41-7.59-4.65a7.32,7.32,0,0,1,1-3.6l2.35.45A4.67,4.67,0,0,0,307.14,71.22Z"/><path class="cls-2" d="M338.16,57.44c0,.29,0,.75-.05,1.28a53.3,53.3,0,0,0,6.31-.68v2.21c-1.77.22-4,.43-6.33.53v3c2.37-.1,4.49-.32,6.57-.6l0,2.23c-2.21.26-4.2.43-6.5.53,0,1.1.12,2.25.16,3.33a19.49,19.49,0,0,1,6.89,3.67l-1.39,2.14a18.22,18.22,0,0,0-5.38-3.5c0,.5.05.91.05,1.24,0,1.83-1.32,3.48-4.46,3.48-3.6,0-5.55-1.34-5.55-3.74s2.14-3.86,5.71-3.86c.63,0,1.21,0,1.78.09,0-.93-.07-1.92-.1-2.81h-1.31c-1.54,0-4.21-.12-5.86-.31l0-2.25a47.86,47.86,0,0,0,5.93.43h1.23V60.88h-1c-1.58,0-4.46-.24-6-.44l0-2.18a43.24,43.24,0,0,0,6,.53h1V57.32a7.57,7.57,0,0,0-.12-1.51h2.57C338.23,56.24,338.18,56.77,338.16,57.44Zm-4.47,16.71c1.35,0,2.38-.41,2.38-2,0-.33,0-.81,0-1.34a11.22,11.22,0,0,0-2.19-.22c-2,0-3.14.8-3.14,1.76S331.63,74.15,333.69,74.15Z"/><path class="cls-2" d="M364.07,57.61c0,.29,0,.72,0,1.2h7.2l-.05,2.26C369.78,61,367.5,61,364,61c0,1.29,0,2.69,0,3.77a5.9,5.9,0,0,1,.84,3.19c0,3.19-1.71,7-7.4,8.62l-2-2c2.84-.63,5-1.68,6.2-3.53a3.77,3.77,0,0,1-1.68.36,4,4,0,0,1-4-4.18,4.34,4.34,0,0,1,4.47-4.32,4.78,4.78,0,0,1,1.34.17c0-.62,0-1.34,0-2-3.65.05-7.59.19-10.56.39l-.08-2.31c2.72,0,7.18-.17,10.61-.21,0-.53,0-.94,0-1.23-.08-.77-.15-1.51-.2-1.75h2.76A14.41,14.41,0,0,0,364.07,57.61Zm-3.7,11.64c1.25,0,2.19-1,1.88-3.24a2,2,0,0,0-1.88-1.15,2.17,2.17,0,0,0-2.18,2.26A2.1,2.1,0,0,0,360.37,69.25Z"/><path class="cls-2" d="M383.68,72.88a3.76,3.76,0,0,1-7.51,0,3.76,3.76,0,1,1,7.51,0Zm-1.44,0a2.31,2.31,0,1,0-2.31,2.3A2.3,2.3,0,0,0,382.24,72.88Z"/><path class="cls-2" d="M12.48,124.29c.75.07,1.58.1,2.45.1,1.06,0,5.86,0,7.27,0a7.76,7.76,0,0,0-.77,2.12H14.81c-4.59,0-7.63-.68-9.6-3.72A11.77,11.77,0,0,1,1.66,127,13.27,13.27,0,0,0,0,125.37c2.45-1.56,3.94-4.2,4.54-7.53l2.23.31a19.36,19.36,0,0,1-.6,2.25,5.84,5.84,0,0,0,4.08,3.51v-6.72H.65v-2h21v2H12.48v2.28h7.63v1.94H12.48Zm6.7-10.46H3v-8.07H19.18Zm-2.26-6.41H5.18V109H16.92Zm0,3.17H5.18v1.58H16.92Z"/><path class="cls-2" d="M37.27,119.9c-.84.14-1.68.31-2.5.46a11.46,11.46,0,0,1-6.14,6.81A9.66,9.66,0,0,0,27,125.49a9.7,9.7,0,0,0,5.12-4.68l-5.45.94-.46-2.21c1.73-.24,4.13-.58,6.7-1a12.78,12.78,0,0,0,.26-2.5v-.33H27.45v-2.07h5.76v-3.31h-6v-2.09h6V105h2.23v11.08a13.86,13.86,0,0,1-.16,2.14l1.89-.29Zm11,1.34H41.18v5.64H39V105h2.23v3.28h6.67v2.09H41.18v3.31h6.14v2.07H41.18v3.41h7.11Z"/><path class="cls-2" d="M52.84,121.17l2-1.73a44.38,44.38,0,0,1,5.31,5.31l-2,1.73A44.66,44.66,0,0,0,52.84,121.17Z"/><path class="cls-2" d="M88.05,107.54c0,.58,0,1.34-.09,2.21a30.21,30.21,0,0,0,4.72-.91l0,2.35c-1.39.31-3.17.6-4.82.79,0,1,0,1.92,0,2.78v.84a18.88,18.88,0,0,1,5-.76c3.58,0,6.27,1.92,6.27,5,0,2.85-1.66,4.85-5.19,5.69a18.87,18.87,0,0,1-3.05.36L90,123.43a13,13,0,0,0,2.88-.17c2-.38,3.77-1.44,3.77-3.46,0-1.84-1.66-2.88-3.84-2.88a16,16,0,0,0-4.92.8c0,2,.09,4,.09,5,0,2.55-.93,3.29-2.35,3.29-2.09,0-5.28-1.92-5.28-4.22,0-2,2.47-4.18,5.31-5.4v-1.49c0-.84,0-1.75,0-2.66-.6,0-1.13.07-1.58.07-1.47,0-2.38,0-3.17-.12l-.07-2.31a24,24,0,0,0,3.19.2c.5,0,1.05,0,1.65-.08,0-1.08,0-1.94,0-2.37a14.08,14.08,0,0,0-.15-1.9h2.64C88.17,106.15,88.1,107,88.05,107.54ZM85,123.4c.48,0,.82-.31.82-1.1s0-2.16-.08-3.72c-1.75.86-3,2.09-3,3S84.16,123.4,85,123.4Zm16.1-11.61-1.17,1.92a34,34,0,0,0-5.55-3.55l1.06-1.83A42.44,42.44,0,0,1,101.08,111.79Z"/><path class="cls-2" d="M111.36,109.17a18.27,18.27,0,0,1-3.84,5.33,16.84,16.84,0,0,0-2.07-1.44,16.44,16.44,0,0,0,5.12-8.26l2.35.51c-.22.67-.46,1.34-.7,2h14.52v1.87Zm7.53,7.9a22.41,22.41,0,0,1-2.8,4,30.18,30.18,0,0,1,4,3.38l-1.78,1.68a29,29,0,0,0-3.89-3.41,25.55,25.55,0,0,1-6.62,4.49,12.59,12.59,0,0,0-1.63-1.75,22.77,22.77,0,0,0,6.48-4c-1.44-1-2.93-1.92-4.32-2.71l1.61-1.47c1.36.75,2.88,1.63,4.32,2.59a17,17,0,0,0,2.44-3.45Zm4.69-2.91c0,6,.31,10.56,1.92,10.56.43,0,.55-1.34.57-3.31a11.84,11.84,0,0,0,1.51,1.37c-.16,3-.62,4.13-2.2,4.15-3.34,0-3.92-4.53-4.06-10.87H108v-1.9Zm-12.8-1.6v-1.83h13.76v1.83Z"/><path class="cls-2" d="M153.61,106.48a14.7,14.7,0,0,1-3.7,6.51,14.44,14.44,0,0,0,4.75,2.16,8.63,8.63,0,0,0-1.37,1.85,14.53,14.53,0,0,1-5-2.62,18,18,0,0,1-5.21,2.69,9.75,9.75,0,0,0-.94-1.51v3.69h-3.69V121h4.17v2h-4.17v4h-2v-4h-4.23v-2h4.23v-1.71h-3.6v-8.42h3.6v-1.59h-3.94V107.3h3.94v-2.45h2v2.45h4v1.94h-4v1.59h3.69v4.34a15.21,15.21,0,0,0,4.59-2.25,15.93,15.93,0,0,1-2.81-4.54l1.53-.43H143v-2h8.83l.38-.07Zm-19.11,7.78h2.19v-1.82H134.5Zm0,3.38h2.19V115.8H134.5Zm5.95-5.2h-2.2v1.82h2.2Zm0,3.36h-2.2v1.84h2.2Zm9,8.54h4.94v2H142v-2h5.25v-3.62h-3.86V118.8h3.86v-2.88h2.21v2.88h3.86v1.92h-3.86ZM145.88,108a11.63,11.63,0,0,0,2.42,3.65,12.05,12.05,0,0,0,2.55-3.65Z"/><path class="cls-2" d="M163.37,108.64a57.33,57.33,0,0,0-1.18,9,25.35,25.35,0,0,0,.14,2.57c.41-1,.89-2.16,1.28-3.05l1.2,1c-.63,1.83-1.47,4.39-1.71,5.59a5.07,5.07,0,0,0-.12,1.11c0,.24,0,.6.05.89l-2.18.14a30.46,30.46,0,0,1-.89-7.75,69.93,69.93,0,0,1,1-9.58,17.81,17.81,0,0,0,.22-2l2.66.24A15.41,15.41,0,0,0,163.37,108.64Zm5.73,12c0,1.08.84,2,3.75,2a26,26,0,0,0,6-.65l.05,2.57a33.59,33.59,0,0,1-6.07.48c-4.08,0-6-1.42-6-3.75a12.54,12.54,0,0,1,.4-3l2.16.19A8.62,8.62,0,0,0,169.1,120.67Zm9-12.12V111a62.57,62.57,0,0,1-10.06,0l0-2.45A44.69,44.69,0,0,0,178.13,108.55Z"/><path class="cls-2" d="M192.47,107.54c0,.58-.05,1.34-.09,2.21a30.21,30.21,0,0,0,4.72-.91l.05,2.35c-1.39.31-3.17.6-4.82.79,0,1-.05,1.92-.05,2.78v.84a18.88,18.88,0,0,1,5-.76c3.58,0,6.27,1.92,6.27,5,0,2.85-1.66,4.85-5.19,5.69a18.87,18.87,0,0,1-3,.36l-.86-2.45a13,13,0,0,0,2.88-.17c2-.38,3.77-1.44,3.77-3.46,0-1.84-1.66-2.88-3.84-2.88a16,16,0,0,0-4.92.8c0,2,.09,4,.09,5,0,2.55-.93,3.29-2.35,3.29-2.09,0-5.28-1.92-5.28-4.22,0-2,2.47-4.18,5.3-5.4v-1.49c0-.84,0-1.75,0-2.66-.6,0-1.13.07-1.59.07-1.46,0-2.37,0-3.16-.12l-.08-2.31a24.23,24.23,0,0,0,3.2.2c.5,0,1,0,1.65-.08,0-1.08,0-1.94,0-2.37a15.92,15.92,0,0,0-.15-1.9h2.64C192.59,106.15,192.52,107,192.47,107.54ZM189.4,123.4c.48,0,.81-.31.81-1.1s0-2.16-.07-3.72c-1.75.86-3,2.09-3,3S188.58,123.4,189.4,123.4Zm16.1-11.61-1.17,1.92a34,34,0,0,0-5.55-3.55l1.06-1.83A42.44,42.44,0,0,1,205.5,111.79Z"/><path class="cls-2" d="M229.84,108v13.71h-2.3v-1.2h-6.1v6.36h-2.3v-6.36h-5.93v1.32H211V108h8.14V104.9h2.3V108Zm-16.63,2.14v3h5.93v-3Zm5.93,8.23v-3.17h-5.93v3.17Zm2.3-8.23v3h6.1v-3Zm6.1,8.23v-3.17h-6.1v3.17Z"/><path class="cls-2" d="M240.69,108.93c-.12,2.67-.28,8.21-.28,11.52,0,2.55,1.56,3.41,3.64,3.41,4.2,0,6.72-2.38,8.45-4.94l1.71,2.08a12.21,12.21,0,0,1-10.2,5.38c-3.65,0-6.1-1.56-6.1-5.54,0-3.41.24-9.6.24-11.91a14.44,14.44,0,0,0-.26-2.78l3.07,0A22,22,0,0,0,240.69,108.93Z"/><path class="cls-2" d="M263.8,121.77c1.06,1.66,3,2.43,5.67,2.52s8,0,11-.17a10,10,0,0,0-.75,2.28c-2.71.13-7.53.17-10.27,0-3.05-.12-5.11-.91-6.62-2.76-1.13,1-2.28,2-3.53,3l-1.15-2.31a36.39,36.39,0,0,0,3.48-2.47v-5.64h-3.08v-2.06h5.26Zm-1.1-11.21a18.41,18.41,0,0,0-4-3.79l1.65-1.34a18.93,18.93,0,0,1,4.11,3.67ZM273.19,106c.48,7.08,2.16,12.77,7,15.24a10,10,0,0,0-1.75,1.7c-3.17-1.87-5-5-6.09-8.85a16.43,16.43,0,0,1-6,8.85,15,15,0,0,0-1.76-1.68c3.41-2.11,5.36-5.76,6.24-10.51l.82.12c-.14-.89-.24-1.82-.34-2.76H267V106Z"/><path class="cls-2" d="M290.81,107.25c1.3,0,4.2-.14,5.26-.21a5.76,5.76,0,0,0,1.39-.29L299,108a5.4,5.4,0,0,0-.72.89c-.64,1-1.63,3.31-2.59,5.47a21.22,21.22,0,0,1,6,1.77c.07-.48.12-.93.15-1.36a16.93,16.93,0,0,0,0-2.38l2.5.26a41,41,0,0,1-.48,4.56c1.08.63,2,1.23,2.73,1.76l-1.1,2.59c-.7-.6-1.46-1.2-2.3-1.8a11.53,11.53,0,0,1-6.22,6.86l-2-1.65a10.35,10.35,0,0,0,6.22-6.46,16.87,16.87,0,0,0-6.36-2.09,47.88,47.88,0,0,1-2.88,6.07,3.73,3.73,0,0,1-3.34,1.85,3.28,3.28,0,0,1-3.36-3.55c0-3.62,3.31-6.38,8.07-6.55.79-1.75,1.61-3.63,2.25-5-1,0-3.52.15-4.6.2a16.86,16.86,0,0,0-1.88.19l-.09-2.47A18.55,18.55,0,0,0,290.81,107.25Zm-2.18,14.59A1.59,1.59,0,0,0,290,121a28.21,28.21,0,0,0,2.33-4.68c-3.14.33-4.94,2.25-4.94,4.05A1.29,1.29,0,0,0,288.63,121.84Z"/><path class="cls-2" d="M322.88,109c-1.61,1.34-4.92,4-6.63,5.4-1.36,1.18-1.36,1.49.05,2.71,2,1.68,6.41,5.16,8.91,7.66l-2.19,2c-.57-.65-1.2-1.32-1.82-1.94-1.61-1.64-5.19-4.71-7.42-6.58s-2.09-3.1.19-5c1.85-1.54,5.33-4.32,7-5.93a13.81,13.81,0,0,0,1.56-1.8l2.24,2C324.13,108,323.36,108.6,322.88,109Z"/><path class="cls-2" d="M340.76,108.38c-.09.41-.19.89-.29,1.42a42.88,42.88,0,0,0,4.35-.82v2.35a41.89,41.89,0,0,1-4.85.82c-.22,1-.48,2.13-.74,3.14a74.65,74.65,0,0,1-3.8,11l-2.64-.89a51.91,51.91,0,0,0,4.08-10.75c.2-.74.41-1.53.58-2.33-.67,0-1.32,0-1.92,0-1.13,0-2,0-2.86-.09l0-2.36a21.37,21.37,0,0,0,2.92.2c.75,0,1.56,0,2.38-.1.14-.72.26-1.32.31-1.78a9.93,9.93,0,0,0,.1-2.18l2.88.22C341.07,106.92,340.86,107.9,340.76,108.38Zm2.88,13.25c0,1.08.65,2.06,3.72,2.06a27.12,27.12,0,0,0,4.8-.48l-.07,2.43a39,39,0,0,1-4.75.33c-3.91,0-6-1.27-6-3.65a16.12,16.12,0,0,1,.39-3l2.25.22A8.89,8.89,0,0,0,343.64,121.63Zm4-8.23a39,39,0,0,1,4.2.19l-.07,2.3a30.11,30.11,0,0,0-4.08-.29,42.59,42.59,0,0,0-4.54.24v-2.23C344.41,113.49,346.07,113.4,347.6,113.4Zm3.55-3.08-1.58.7a27.94,27.94,0,0,0-1.92-3.34l1.56-.64A37.62,37.62,0,0,1,351.15,110.32Zm2.79-1-1.56.7a30.53,30.53,0,0,0-2-3.34L352,106A37.46,37.46,0,0,1,353.94,109.29Z"/><path class="cls-2" d="M368,106l2.6-.32a25.73,25.73,0,0,0,1,4,29.39,29.39,0,0,0,5.18-1.15l.29,2.4a40.32,40.32,0,0,1-4.68.94,27.15,27.15,0,0,0,2.47,4.46,11,11,0,0,0,1.16,1.42l-1.2,1.73a56.35,56.35,0,0,0-6.05-.72l.16-2c1.28.1,3,.24,3.8.34a33.27,33.27,0,0,1-2.62-5A63.37,63.37,0,0,1,360,112l0-2.43a49,49,0,0,0,9.38.31c-.24-.74-.46-1.36-.62-1.84S368.27,106.68,368,106Zm-5,14.76c0,2.16,2,3.09,5.4,3.12a30.34,30.34,0,0,0,6.29-.58l-.12,2.4a33.42,33.42,0,0,1-6.31.53c-4.7,0-7.68-1.78-7.68-5.11a9.44,9.44,0,0,1,1.2-4.2l2.38.52A6.07,6.07,0,0,0,363,120.72Z"/><path class="cls-2" d="M386.33,110.68a51.42,51.42,0,0,0,.17,5.4c.36,3.77,1.34,6.32,2.95,6.32,1.2,0,2.25-2.62,2.81-4.8l1.89,2.23c-1.51,4.1-3,5.52-4.75,5.52-2.42,0-4.66-2.31-5.3-8.62-.24-2.11-.27-5-.27-6.43a12.69,12.69,0,0,0-.19-2.26l2.93,0A19.8,19.8,0,0,0,386.33,110.68Zm16.82,10.18-2.47,1c-.41-4.13-1.77-9.46-4.2-12.34l2.38-.79C401.07,111.48,402.84,117,403.15,120.86Z"/><path class="cls-2" d="M415.63,122.88a3.73,3.73,0,0,1-3.74,3.74,3.76,3.76,0,1,1,3.74-3.74Zm-1.44,0a2.31,2.31,0,1,0-2.3,2.3A2.3,2.3,0,0,0,414.19,122.88Z"/></g></g></svg>