<svg xmlns="http://www.w3.org/2000/svg" width="278.348" height="172.814" viewBox="0 0 278.348 172.814"><g transform="translate(-48.238 -420.789)"><g transform="translate(50 420.789)"><path d="M86.487,21.428h1.624V9.018h7.55V7.407h-7.55V5.25H86.487V7.407H79.47V9.018h7.017Z" transform="translate(29.256 1.548)" fill="#fff"/><path d="M51.191,10.175V5.25H49.58V21.428h1.611V11.955l8.732,4.08h3.95V14.411H60.288Z" transform="translate(18.224 1.548)" fill="#fff"/><rect width="15.1" height="1.624" transform="translate(87.705 38.333)" fill="#fff"/><rect width="14.567" height="1.624" transform="translate(130.273 31.53)" fill="#fff"/><path d="M94.84,29.284H104v3.041l-2.391,3.431H95.373V37.38h7.069l3.184-4.535V29.284h5.393V27.66H94.84Z" transform="translate(34.915 10.84)" fill="#fff"/><rect width="8.135" height="1.624" transform="translate(130.108 8.422)" fill="#fff"/><path d="M83.289,10.446,81.7,10.16,80.352,17.8h-1.7v1.611H81.7Z" transform="translate(28.711 3.814)" fill="#fff"/><path d="M192.221,28.564V26.29h2.7V24.679h-2.7V21.43H190.61v3.249h-2.7V26.29h2.7V27.3l-3.08,7.381,1.494.624,1.585-3.794v8.81h1.611V30.968l1.949,2.118,1.2-1.092Z" transform="translate(69.157 8.974)" fill="#fff"/><path d="M90.778,10.16l-1.6.286,1.585,8.966h3.067V17.8h-1.7Z" transform="translate(32.556 3.814)" fill="#fff"/><path d="M63.843,20.155l1.325.923,3.924-5.6V9.564h8.1V19.8H73.147v1.624H78.8V7.953H69.093V5.25H67.481v2.7H63.7V9.564h3.781V14.97Z" transform="translate(23.43 1.548)" fill="#fff"/><path d="M110.473,15.412V5.25h-1.624v9.642L105.4,19.817H94.84v1.624h11.409Z" transform="translate(34.901 1.548)" fill="#fff"/><rect width="8.135" height="1.624" transform="translate(173.193 32.664)" fill="#fff"/><path d="M140.4,32.322l-3.444,4.925H126.39v1.624H137.8l4.223-6.03V22.68H140.4Z" transform="translate(46.513 9.348)" fill="#fff"/><rect width="1.624" height="11.981" transform="translate(226.754 39.245) rotate(-32.56)" fill="#fff"/><path d="M112.934,31.109H111.44v1.624h1.936l4.938-2.859v8.81h1.624V28.938l3.716-2.144h1.806V25.17h-2.235Z" transform="translate(40.961 10.094)" fill="#fff"/><path d="M47.51,24.711h15.1V29.3l-7.979,4.613-2.82-4.886h-2.69V30.65h1.754L56.047,39.6l1.4-.806-2.014-3.5,8.8-5.068V23.1H47.51Z" transform="translate(17.495 9.474)" fill="#fff"/><rect width="1.624" height="1.624" transform="translate(103.331 5.719)" fill="#fff"/><rect width="1.624" height="1.624" transform="translate(100.493 5.719)" fill="#fff"/><rect width="1.624" height="1.624" transform="translate(79.537 7.331)" fill="#fff"/><rect width="1.624" height="1.624" transform="translate(76.699 7.331)" fill="#fff"/><path d="M90.27,7.236h3.236V4H90.27Zm1.079-2.157h1.079V6.157H91.349Z" transform="translate(32.922 1.173)" fill="#fff"/><path d="M83.822,22.791l-1.546-.481-2.365,7.5H78.65v1.624h2.456l1.351-4.314h9.668v6.224l-2.807,4.015H81.34v1.611h8.823l3.587-5.107V27.118h2.144V25.494H82.964Z" transform="translate(28.977 9.237)" fill="#fff"/><path d="M174.483,26.177H166.4V21.85h-1.624v4.327h-8.1v1.611h7.433l-7.3,11.422,1.364.871,7.849-12.293h8.459Z" transform="translate(57.756 9.1)" fill="#fff"/><path d="M203.886,23.067h-4.327V21.43h-1.611v1.637H193.62v1.611h10.266Z" transform="translate(70.98 7.866)" fill="#fff"/><path d="M143.461,27.414H141.33v1.624h2.963l3.028-4.327H155.9v6.835L152,37.121H144.02v1.611h8.823l4.665-6.666V23.1H146.476Z" transform="translate(52.033 9.474)" fill="#fff"/><rect width="1.624" height="1.624" transform="translate(209.806 29.262)" fill="#fff"/><rect width="1.624" height="1.624" transform="translate(206.982 29.262)" fill="#fff"/><path d="M188.635,22.1l-1.559-.416-.793,2.924h-4.028l-.793-2.924L179.9,22.1l.676,2.508h-3.5l-.78-2.924-1.572.416.676,2.508H172.47v3.781h1.611v-2.17h15.087v2.17h1.624V24.6H187.96Z" transform="translate(64.647 8.072)" fill="#fff"/><rect width="5.952" height="1.624" transform="matrix(0.388, -0.922, 0.922, 0.388, 264.212, 38.632)" fill="#fff"/><rect width="1.624" height="5.952" transform="matrix(0.922, -0.388, 0.388, 0.922, 271.194, 33.777)" fill="#fff"/><path d="M202.129,28.831l-1.273-1-2.17,2.768-2.157-2.768-1.273,1,2.4,3.093-4.249,5.432,1.286,1,3.989-5.12,4,5.12,1.286-1-4.262-5.432Z" transform="translate(70.917 10.89)" fill="#fff"/><path d="M182.7,31.011l4.34-2.508V26.84H175.693v1.611h8.2l-2.807,1.624v1.611H172.47v1.624h8.615V37.08H177.33V38.7H182.7V33.311h8.1V31.687h-8.1Z" transform="translate(64.647 10.594)" fill="#fff"/><path d="M28.444,9.42V39.1a5.666,5.666,0,0,1-8.5,4.86L7.211,36.6a5.666,5.666,0,0,1,0-9.811l10.656-6.146V15.566L5.028,23.038a10.045,10.045,0,0,0,0,17.4l12.735,7.42a10.045,10.045,0,0,0,15.061-8.693V11.954Z" transform="translate(-0.004 5.377)" fill="#fff"/><path d="M43.912,8.714,31.178,1.359A10.058,10.058,0,0,0,16.1,10.039L15.87,37.068l4.366,2.521.26-29.537a5.653,5.653,0,0,1,8.537-4.86l12.735,7.355a5.666,5.666,0,0,1,0,9.811L30.983,28.583v5.055l12.995-7.459a10.045,10.045,0,0,0,0-17.4Z" transform="translate(4.747 -0.019)" fill="#fff"/></g><path d="M4.788-10.92h8.19V1.008H11.97V-9.982H5.754V1.106H4.788ZM6.342-7.938h5.152v.812H6.342ZM5.32-.672h7.2V.28H5.32ZM8.456-9.534H9.31V-5.1H8.456ZM7.728-4.8v2.184h2.366V-4.8Zm-.812-.784h4.018v3.752H6.916Zm-3.584-6.1.966.28a22.519,22.519,0,0,1-.959,2.359,21.957,21.957,0,0,1-1.2,2.2A13.915,13.915,0,0,1,.8-5.012L.651-5.341q-.091-.2-.2-.413a2.385,2.385,0,0,0-.21-.336,11.32,11.32,0,0,0,1.2-1.589A17.3,17.3,0,0,0,2.5-9.611,19.122,19.122,0,0,0,3.332-11.69ZM2.156-8.274l.994-.98.014.014V1.134H2.156ZM22.3-10.08h1.022v7.77H22.3Zm3.43-1.414h1.05V-.28a1.736,1.736,0,0,1-.147.812.938.938,0,0,1-.483.406,3.528,3.528,0,0,1-.959.161q-.609.035-1.575.035A2.467,2.467,0,0,0,23.52.8L23.38.406A1.892,1.892,0,0,0,23.226.07q.742.014,1.344.021t.8-.007a.461.461,0,0,0,.28-.091.36.36,0,0,0,.084-.273Zm-8.61,6.482h3.3v.938h-3.3Zm2.87,0h.98l-.007.077q-.007.077-.007.182v.175q-.07,1.764-.161,2.835a13.9,13.9,0,0,1-.21,1.624,1.78,1.78,0,0,1-.315.777.834.834,0,0,1-.385.3,2.171,2.171,0,0,1-.525.105q-.266.028-.735.028t-.987-.028a2.282,2.282,0,0,0-.091-.476,1.75,1.75,0,0,0-.2-.462q.532.056.973.063T18.942.2a1.656,1.656,0,0,0,.294-.021.319.319,0,0,0,.2-.133,1.394,1.394,0,0,0,.238-.658,15.032,15.032,0,0,0,.175-1.533q.077-1.015.147-2.695Zm-3.7-5.166v2.7h3.57v-2.7Zm-.966-.938h5.544v4.592H15.33Zm1.54,4.228h1.036q-.056,1.106-.189,2.247A16.108,16.108,0,0,1,17.3-2.429a8.461,8.461,0,0,1-.791,1.988A5.664,5.664,0,0,1,15.2,1.148a2.7,2.7,0,0,0-.343-.392,2.41,2.41,0,0,0-.4-.322,4.833,4.833,0,0,0,1.211-1.456,7.725,7.725,0,0,0,.7-1.827,14.443,14.443,0,0,0,.35-2.016Q16.828-5.894,16.87-6.888ZM34.384-9.45q.574.084,1.337.133t1.582.042q.819-.007,1.568-.056t1.267-.133V-8.33q-.56.056-1.309.091T37.275-8.2q-.805,0-1.561-.035t-1.33-.091Zm.546,5.7q-.1.378-.154.686a3.362,3.362,0,0,0-.056.6,1.123,1.123,0,0,0,.1.469.994.994,0,0,0,.364.406,2.149,2.149,0,0,0,.721.28,5.447,5.447,0,0,0,1.176.105A16.668,16.668,0,0,0,38.878-1.3a16.137,16.137,0,0,0,1.68-.273l.028,1.176a12.871,12.871,0,0,1-1.533.217Q38.178-.1,37.086-.1A4.662,4.662,0,0,1,34.5-.658a1.768,1.768,0,0,1-.819-1.54,4.815,4.815,0,0,1,.063-.749q.063-.4.175-.9Zm-3.22-6.776q-.028.112-.077.287l-.1.35q-.049.175-.077.3-.07.392-.168.9T31.1-7.6q-.091.581-.168,1.176t-.126,1.155q-.049.56-.049,1.036,0,.518.035.98t.091.98q.126-.322.266-.686t.287-.721q.147-.357.259-.637l.588.448q-.182.5-.392,1.106T31.521-1.6q-.161.553-.231.875-.028.154-.056.336A1.11,1.11,0,0,0,31.22-.1q.014.112.021.245t.021.245l-1.008.07a13.888,13.888,0,0,1-.364-1.911,19.871,19.871,0,0,1-.154-2.583q0-.77.07-1.575t.182-1.568q.112-.763.217-1.4t.161-1.071q.042-.252.07-.511a4.511,4.511,0,0,0,.028-.483ZM48.86-8.386h6.566v1.008H48.86ZM42.77-9.45h6.524v.994H42.77Zm9.94-2.31h1.036V-.308a1.778,1.778,0,0,1-.14.791A.9.9,0,0,1,53.144.9a2.565,2.565,0,0,1-.875.175q-.567.035-1.449.035-.028-.154-.084-.35t-.126-.4q-.07-.2-.14-.357.658.028,1.19.028h.714a.434.434,0,0,0,.259-.084.332.332,0,0,0,.077-.252ZM49.028-5.516l.854-.392q.336.476.658,1.036t.567,1.1a6.272,6.272,0,0,1,.357.959l-.924.462a7.13,7.13,0,0,0-.343-.98q-.231-.546-.532-1.12A10.512,10.512,0,0,0,49.028-5.516Zm-5.81-.938.742-.6q.644.672,1.3,1.442T46.529-4.06q.609.784,1.1,1.519a13.707,13.707,0,0,1,.8,1.337l-.84.728a12.329,12.329,0,0,0-.77-1.379Q46.34-2.6,45.745-3.4T44.5-4.991Q43.848-5.782,43.218-6.454Zm2.24-5.292h1.008v2.884H45.458Zm1.6,3.612,1.022.14a21.19,21.19,0,0,1-.966,3.8,11.613,11.613,0,0,1-1.582,2.982,9.437,9.437,0,0,1-2.352,2.219,2.681,2.681,0,0,0-.2-.266q-.126-.154-.273-.3T42.448.2A8.173,8.173,0,0,0,44.7-1.827a10.439,10.439,0,0,0,1.484-2.779A18.408,18.408,0,0,0,47.054-8.134Zm14.854,2H62.93V-.686a.619.619,0,0,0,.126.469.906.906,0,0,0,.532.1h1.848a.522.522,0,0,0,.434-.175,1.461,1.461,0,0,0,.2-.7q.056-.525.084-1.547.126.084.294.175a2.491,2.491,0,0,0,.343.154q.175.063.315.1a12.344,12.344,0,0,1-.21,1.8,1.536,1.536,0,0,1-.462.9,1.418,1.418,0,0,1-.91.259H63.462a2.56,2.56,0,0,1-.952-.14.827.827,0,0,1-.469-.476,2.583,2.583,0,0,1-.133-.924Zm-1.918,1.2.952.224q-.084.756-.245,1.582a12.98,12.98,0,0,1-.413,1.589,6.1,6.1,0,0,1-.6,1.323l-.938-.434a6.072,6.072,0,0,0,.6-1.26,10.68,10.68,0,0,0,.406-1.5Q59.906-4.186,59.99-4.928Zm2.128-2.856.714-.686q.56.266,1.183.63t1.183.735a7.381,7.381,0,0,1,.924.707l-.77.77a8,8,0,0,0-.875-.707q-.539-.385-1.162-.77T62.118-7.784Zm4.466,2.94.938-.378q.462.714.889,1.54t.742,1.617a8.311,8.311,0,0,1,.441,1.421L68.558-.21a7.436,7.436,0,0,0-.4-1.435q-.3-.805-.707-1.645A14.365,14.365,0,0,0,66.584-4.844Zm-3.71-6.916h1.078v2.394H62.874ZM58.2-9.94H69.314v.994H58.2Zm-.5,0H58.73v3.626q0,.8-.049,1.757t-.2,1.96a15.235,15.235,0,0,1-.42,1.96,8.111,8.111,0,0,1-.721,1.757,1.86,1.86,0,0,0-.259-.2Q56.91.8,56.742.693a1.978,1.978,0,0,0-.308-.161A7.344,7.344,0,0,0,57.12-1.1a12.085,12.085,0,0,0,.371-1.792q.119-.917.161-1.8t.042-1.624ZM77-6.8a1.472,1.472,0,0,1,.756.2,1.454,1.454,0,0,1,.532.532,1.472,1.472,0,0,1,.2.756,1.484,1.484,0,0,1-.2.749,1.439,1.439,0,0,1-.532.539,1.472,1.472,0,0,1-.756.2,1.484,1.484,0,0,1-.749-.2,1.423,1.423,0,0,1-.539-.539,1.484,1.484,0,0,1-.2-.749,1.472,1.472,0,0,1,.2-.756,1.439,1.439,0,0,1,.539-.532A1.484,1.484,0,0,1,77-6.8Zm20.034-2.66q-.084.1-.189.238t-.189.266a10.592,10.592,0,0,1-.791,1.169,16.647,16.647,0,0,1-1.211,1.414A9.875,9.875,0,0,1,93.17-5.1l-.924-.742a6.329,6.329,0,0,0,.959-.679,10.755,10.755,0,0,0,.882-.84,9.707,9.707,0,0,0,.728-.868,7.6,7.6,0,0,0,.5-.749h-7.98q-.392,0-.784.021t-.812.063v-1.274q.364.056.784.091t.812.035h8.036q.14,0,.329-.007a3.222,3.222,0,0,0,.371-.035l.28-.042ZM91.448-7.616q0,1.134-.07,2.128a11.29,11.29,0,0,1-.28,1.862,5.963,5.963,0,0,1-.637,1.6A5.65,5.65,0,0,1,89.32-.651,8.1,8.1,0,0,1,87.542.518l-1.036-.84a5.478,5.478,0,0,0,.63-.259,4.214,4.214,0,0,0,.63-.371,4.753,4.753,0,0,0,1.316-1.106,4.42,4.42,0,0,0,.735-1.337,7.266,7.266,0,0,0,.336-1.526,14.893,14.893,0,0,0,.091-1.673q0-.266-.007-.5a4.377,4.377,0,0,0-.049-.518Zm15.736-2.464q.182.252.42.623t.469.763a8.08,8.08,0,0,1,.385.728l-.8.364q-.168-.364-.371-.735t-.42-.728a7.217,7.217,0,0,0-.455-.665Zm1.694-.7q.182.238.427.6t.483.756q.238.392.406.714l-.784.392q-.182-.364-.392-.728t-.441-.714q-.231-.35-.469-.658ZM102.27-1.05V-9.2q0-.294-.021-.714a4.6,4.6,0,0,0-.091-.742h1.386q-.042.322-.07.735t-.028.721V-1.05q0,.21.007.518t.035.609q.028.3.042.525h-1.344q.042-.336.063-.8T102.27-1.05Zm.924-5.936q.686.21,1.526.5t1.7.609q.861.322,1.638.651t1.365.623l-.49,1.19q-.6-.322-1.351-.658t-1.547-.658q-.8-.322-1.533-.574t-1.309-.434Zm19.516-3.92a6.883,6.883,0,0,1,.392.581q.21.343.413.693t.343.644l-.756.336q-.21-.434-.532-.987t-.6-.959Zm1.54-.56a6.967,6.967,0,0,1,.413.6q.217.35.427.693a6.617,6.617,0,0,1,.336.609l-.756.336q-.224-.462-.539-1a8.247,8.247,0,0,0-.623-.931Zm-9.2,7.252q.224-.546.441-1.19t.406-1.337q.189-.693.329-1.372a11.651,11.651,0,0,0,.2-1.3l1.246.266a2.628,2.628,0,0,1-.084.329q-.056.175-.1.357t-.07.336q-.07.322-.2.84t-.294,1.134q-.168.616-.364,1.239t-.42,1.155q-.252.644-.581,1.323t-.707,1.323q-.378.644-.77,1.2l-1.19-.5a16.535,16.535,0,0,0,1.225-1.911A20.013,20.013,0,0,0,115.052-4.214Zm6.888-.532q-.21-.546-.462-1.148t-.532-1.211q-.28-.609-.539-1.148a9.294,9.294,0,0,0-.5-.917l1.134-.378q.21.364.469.9t.539,1.134q.28.6.546,1.218t.49,1.176q.21.518.448,1.155T124-2.681q.231.651.427,1.26t.336,1.085L123.522.07q-.168-.714-.427-1.547t-.553-1.68Q122.248-4,121.94-4.746Zm5.264-.308a22.915,22.915,0,0,0,3.388-1.19,22.24,22.24,0,0,0,2.73-1.428q.728-.462,1.421-1A17.082,17.082,0,0,0,136.052-9.8a13.752,13.752,0,0,0,1.092-1.162l.938.868q-.588.63-1.274,1.232t-1.449,1.155q-.763.553-1.589,1.071-.77.462-1.736.952t-2.058.924q-1.092.434-2.212.8Zm5.894-2.03,1.2-.364v6.384q0,.266.007.56t.028.546a3.674,3.674,0,0,0,.049.392h-1.372q.014-.14.035-.392t.035-.546q.014-.294.014-.56ZM150.78-9.366a1.885,1.885,0,0,0-.175.273q-.1.189-.175.343a15.316,15.316,0,0,1-.7,1.519q-.434.833-.966,1.645a12.4,12.4,0,0,1-1.12,1.47,19.94,19.94,0,0,1-1.694,1.687A20.594,20.594,0,0,1,144-.9,13.779,13.779,0,0,1,141.876.308l-.9-.938a12.768,12.768,0,0,0,2.177-1.113,16.932,16.932,0,0,0,1.96-1.456,17.678,17.678,0,0,0,1.631-1.589,13.787,13.787,0,0,0,.945-1.225,13.368,13.368,0,0,0,.84-1.386,7.106,7.106,0,0,0,.539-1.281h-5.46q-.238,0-.539.014l-.546.028q-.245.014-.329.028V-9.884q.1.014.357.035t.553.035q.294.014.5.014h5.4a6.169,6.169,0,0,0,.623-.028,1.853,1.853,0,0,0,.427-.084Zm-2.954,4.508q.574.476,1.183,1.05t1.2,1.183q.588.609,1.092,1.162t.868,1l-.98.84q-.49-.672-1.176-1.449t-1.449-1.554Q147.8-3.4,147.028-4.06Zm13.09-5.068-.161-.518q-.091-.294-.189-.574l1.19-.154q.07.406.2.917t.294,1.036q.168.525.336.973a12.652,12.652,0,0,0,.812,1.813,15.522,15.522,0,0,0,.924,1.519q.154.2.308.378l.308.364-.574.784q-.252-.056-.665-.112t-.9-.105q-.483-.049-.959-.091t-.854-.07l.084-.938q.392.028.833.07t.84.077q.4.035.651.063-.294-.448-.63-1.029t-.651-1.232q-.315-.651-.553-1.281t-.378-1.092Q161.028-9.6,160.916-9.926Zm-5.124,1.092q1.176.14,2.275.2t2.086.028q.987-.028,1.785-.112.56-.07,1.183-.168t1.239-.252q.616-.154,1.162-.322l.126,1.092a9.587,9.587,0,0,1-1.078.266q-.588.112-1.176.21t-1.106.154a28.125,28.125,0,0,1-2.975.168q-1.645.014-3.493-.14Zm2.156,4.466a5.7,5.7,0,0,0-.483.973,2.761,2.761,0,0,0-.175.973,1.539,1.539,0,0,0,.868,1.456,5.325,5.325,0,0,0,2.422.476,16.46,16.46,0,0,0,1.981-.084,14.018,14.018,0,0,0,1.631-.266L164.136.28q-.644.112-1.54.21a19.29,19.29,0,0,1-2.072.1,7.612,7.612,0,0,1-2.3-.336,3.221,3.221,0,0,1-1.505-.959,2.4,2.4,0,0,1-.532-1.589,3.588,3.588,0,0,1,.189-1.141,10.372,10.372,0,0,1,.483-1.183Zm19.992-6.426q-.014.112-.028.294t-.021.371q-.007.189-.021.343,0,.434-.007.9T177.849-8q-.007.427-.021.791-.014.532-.035,1.169t-.056,1.211a5.9,5.9,0,0,1-.119.938.972.972,0,0,1-.343.63,1.307,1.307,0,0,1-.735.168q-.252,0-.616-.035t-.7-.077q-.336-.042-.532-.084l.028-.966a7.409,7.409,0,0,0,.763.133,5.5,5.5,0,0,0,.637.049.794.794,0,0,0,.385-.07.387.387,0,0,0,.147-.308,5.666,5.666,0,0,0,.084-.735q.028-.455.049-.994t.035-1.029V-9.744q0-.154-.007-.35t-.021-.385a2.258,2.258,0,0,0-.042-.315Zm-5.544.434q-.028.252-.042.532t-.014.6q0,.448-.007,1.141t-.014,1.47q-.007.777-.007,1.519v1.33q0,.588.014.882.028.56.077.952a1.088,1.088,0,0,0,.273.63,1.4,1.4,0,0,0,.728.35,6.882,6.882,0,0,0,1.414.112q.756,0,1.54-.049t1.477-.126q.693-.077,1.141-.161l-.042,1.19q-.462.042-1.148.1T176.344.2q-.756.035-1.47.035a9.573,9.573,0,0,1-1.932-.154,2.137,2.137,0,0,1-1.064-.5,1.741,1.741,0,0,1-.469-.917,8.434,8.434,0,0,1-.147-1.4q0-.294-.007-.833t-.007-1.218V-6.16q0-.7.007-1.33t.007-1.078v-.6q0-.322-.021-.595t-.063-.6ZM168.21-7q.336,0,.707-.028l.749-.056q.462-.042,1.316-.126t1.939-.182l2.247-.2q1.162-.105,2.261-.2t1.967-.133q.266-.028.553-.042l.539-.028V-6.9a1.96,1.96,0,0,0-.3-.007q-.189.007-.406.007h-.4q-.56.014-1.358.063t-1.729.126q-.931.077-1.9.168t-1.862.189l-1.617.175q-.721.077-1.169.133l-.469.063-.511.07q-.252.035-.434.063Zm14.56-2.3q.406-.014.728-.035l.518-.035q.336-.042.973-.105t1.463-.14q.826-.077,1.778-.161l1.918-.168q.77-.07,1.456-.119t1.274-.084q.588-.035,1.05-.049v1.12q-.392-.014-.9,0t-.994.063a4.422,4.422,0,0,0-.854.161,4.078,4.078,0,0,0-1.337.721,5.067,5.067,0,0,0-1.015,1.106,5.1,5.1,0,0,0-.637,1.3,4.254,4.254,0,0,0-.217,1.295,3.408,3.408,0,0,0,.28,1.435,3.011,3.011,0,0,0,.763,1.029,4.163,4.163,0,0,0,1.106.686,6.153,6.153,0,0,0,1.309.392,9.8,9.8,0,0,0,1.372.154L192.4.434a7.95,7.95,0,0,1-1.561-.217,6.981,6.981,0,0,1-1.505-.546,5.043,5.043,0,0,1-1.274-.9,4.048,4.048,0,0,1-.882-1.274,4.081,4.081,0,0,1-.322-1.666,5.242,5.242,0,0,1,.385-2.023,5.989,5.989,0,0,1,.987-1.631A5.028,5.028,0,0,1,189.476-8.9q-.448.056-1.106.126t-1.421.147q-.763.077-1.519.175t-1.421.189q-.665.091-1.113.189ZM198.7-9.772q-.028.168-.049.42l-.042.5q-.021.252-.021.434-.014.434-.007.987t.028,1.148q.021.6.077,1.183a10.517,10.517,0,0,0,.378,2.037,4.181,4.181,0,0,0,.651,1.365,1.1,1.1,0,0,0,.875.49.746.746,0,0,0,.518-.245,2.862,2.862,0,0,0,.483-.658,6.538,6.538,0,0,0,.42-.924,9.305,9.305,0,0,0,.315-1.029l.882.994a10.044,10.044,0,0,1-.847,1.883,3.336,3.336,0,0,1-.868,1,1.58,1.58,0,0,1-.917.308A2.043,2.043,0,0,1,199.3-.357a3.782,3.782,0,0,1-1.064-1.568,10.812,10.812,0,0,1-.644-2.891q-.07-.616-.105-1.33T197.449-7.5q-.007-.644-.007-1.05,0-.238-.014-.616a2.785,2.785,0,0,0-.084-.63ZM206-9.38a7.521,7.521,0,0,1,.721,1.113,13.013,13.013,0,0,1,.63,1.358q.287.721.518,1.491a15.609,15.609,0,0,1,.378,1.533q.147.763.217,1.463l-1.12.462a16.128,16.128,0,0,0-.294-1.939,18.082,18.082,0,0,0-.518-1.918,13.812,13.812,0,0,0-.714-1.757A7.075,7.075,0,0,0,204.9-9Zm9.786-1.638q-.07.238-.14.574t-.112.546q-.1.5-.231,1.169t-.294,1.393q-.161.728-.357,1.428-.182.742-.448,1.617t-.56,1.757q-.294.882-.6,1.666T212.464.5l-1.232-.42a11.782,11.782,0,0,0,.651-1.309q.329-.763.644-1.631t.588-1.729q.273-.861.469-1.589.14-.49.266-1.036t.238-1.071q.112-.525.189-.966t.119-.721q.042-.294.056-.616a3.331,3.331,0,0,0-.014-.546ZM212.674-8.68q.784,0,1.687-.077t1.841-.231q.938-.154,1.806-.378V-8.26q-.868.2-1.82.336t-1.869.217q-.917.077-1.659.077-.462,0-.854-.021t-.77-.035l-.042-1.092q.5.056.9.077T212.674-8.68ZM217.1-6.748q.56-.056,1.225-.091t1.337-.035q.616,0,1.239.028t1.183.1l-.028,1.064q-.532-.07-1.134-.119T219.7-5.852q-.658,0-1.309.035t-1.295.105Zm.294,3.4q-.084.336-.14.658a3.524,3.524,0,0,0-.056.6,1.306,1.306,0,0,0,.091.483.945.945,0,0,0,.343.413,2.058,2.058,0,0,0,.721.294,5.366,5.366,0,0,0,1.211.112q.686,0,1.386-.07a11.9,11.9,0,0,0,1.344-.21L222.25.07q-.56.084-1.246.14t-1.456.056a5.118,5.118,0,0,1-2.534-.511,1.673,1.673,0,0,1-.882-1.547A5.287,5.287,0,0,1,216.2-2.6q.063-.406.147-.84Zm11.97-7.462q-.07.224-.14.56t-.112.546q-.1.5-.231,1.169t-.294,1.393q-.161.728-.357,1.428-.182.742-.448,1.617t-.56,1.757q-.294.882-.6,1.666T226.044.7L224.812.28a12.044,12.044,0,0,0,.651-1.3q.329-.756.644-1.624t.588-1.729q.273-.861.469-1.6.126-.49.252-1.036t.245-1.071q.119-.525.2-.966t.119-.721q.042-.294.056-.616a3.123,3.123,0,0,0-.014-.532Zm-3.108,2.324q.784,0,1.687-.077t1.841-.231q.938-.154,1.806-.364v1.092q-.868.2-1.82.336t-1.869.217q-.917.077-1.659.077-.462,0-.854-.021t-.77-.035l-.042-1.092q.5.056.9.077T226.254-8.484Zm4.424,1.932q.56-.056,1.225-.091t1.337-.035q.616,0,1.239.028t1.183.1l-.028,1.064q-.532-.07-1.134-.119t-1.218-.049q-.672,0-1.316.035t-1.288.119Zm.294,3.4q-.084.35-.14.665a3.405,3.405,0,0,0-.056.595,1.306,1.306,0,0,0,.091.483.945.945,0,0,0,.343.413,2.058,2.058,0,0,0,.721.294,5.366,5.366,0,0,0,1.211.112q.672,0,1.379-.07a11.86,11.86,0,0,0,1.351-.21L235.83.266q-.56.084-1.246.147t-1.456.063a5.06,5.06,0,0,1-2.534-.518,1.689,1.689,0,0,1-.882-1.554,5.784,5.784,0,0,1,.056-.805q.056-.4.154-.847Zm3.178-7.238a6.4,6.4,0,0,1,.392.588q.21.35.413.7t.343.644l-.756.336a6.053,6.053,0,0,0-.329-.644l-.406-.7a5.386,5.386,0,0,0-.4-.6Zm1.54-.574q.2.266.42.616t.427.7q.2.35.343.616l-.756.336q-.224-.476-.546-1.015a10.755,10.755,0,0,0-.616-.931Zm4.4,1.372q1.47.168,2.807.2a21.826,21.826,0,0,0,2.415-.07,16.274,16.274,0,0,0,1.7-.259,16.369,16.369,0,0,0,1.6-.413l.154,1.008q-.686.2-1.533.364t-1.687.252q-1.064.1-2.471.091t-2.919-.147Zm-.266,2.87q1.19.126,2.352.161t2.2-.007q1.036-.042,1.848-.14A17.592,17.592,0,0,0,248.052-7q.826-.182,1.386-.364l.168,1.05q-.574.154-1.344.3t-1.652.259q-.868.1-1.974.147t-2.331.028q-1.225-.021-2.429-.091Zm4.788-3.052q-.084-.322-.189-.637l-.2-.609,1.19-.154a10.5,10.5,0,0,0,.224,1.225q.154.637.336,1.246t.35,1.1q.2.546.462,1.162t.588,1.218q.322.6.686,1.148a3.638,3.638,0,0,0,.245.3l.273.3L248-2.618a7.108,7.108,0,0,0-.924-.189q-.532-.077-1.092-.14l-1.05-.119.1-.854q.56.056,1.162.126t.938.112A14.711,14.711,0,0,1,246.1-5.558q-.441-.966-.749-1.82-.168-.476-.3-.889t-.238-.791Q244.706-9.436,244.608-9.772ZM241.85-3.71a4.552,4.552,0,0,0-.42.742,2.046,2.046,0,0,0-.168.84,1.4,1.4,0,0,0,.791,1.3,5.274,5.274,0,0,0,2.443.434q.98,0,1.778-.07a13.838,13.838,0,0,0,1.554-.224l-.042,1.12q-.728.112-1.554.175T244.51.672a8.409,8.409,0,0,1-2.331-.28,2.969,2.969,0,0,1-1.456-.854,2.221,2.221,0,0,1-.511-1.47A3.068,3.068,0,0,1,240.359-3a6.985,6.985,0,0,1,.4-.931ZM259.6-11.116q-.028.182-.049.406t-.035.532q0,.21-.007.63T259.5-8.6v2.037q0,.7.028,1.47t.07,1.5q.042.728.07,1.33t.028.952a2.02,2.02,0,0,1-.231.938,1.758,1.758,0,0,1-.77.735,3.133,3.133,0,0,1-1.463.287,4.21,4.21,0,0,1-2.31-.525,1.72,1.72,0,0,1-.8-1.533,1.727,1.727,0,0,1,.385-1.12,2.535,2.535,0,0,1,1.113-.749,4.948,4.948,0,0,1,1.736-.273,8.055,8.055,0,0,1,2.079.259,10.037,10.037,0,0,1,1.785.651,11.425,11.425,0,0,1,1.442.819q.63.427,1.036.763l-.644.994a10.814,10.814,0,0,0-1.1-.9,10.713,10.713,0,0,0-1.358-.826,8.118,8.118,0,0,0-1.582-.609,6.811,6.811,0,0,0-1.8-.231,2.863,2.863,0,0,0-1.533.336.972.972,0,0,0-.525.826.919.919,0,0,0,.2.567,1.316,1.316,0,0,0,.63.413,3.408,3.408,0,0,0,1.12.154,2.479,2.479,0,0,0,.742-.105,1.055,1.055,0,0,0,.539-.371,1.2,1.2,0,0,0,.2-.742q0-.406-.021-1.057T258.524-4q-.028-.735-.049-1.421t-.021-1.148v-1.96q0-.49.007-.938t.007-.812q0-.168-.014-.434a3.028,3.028,0,0,0-.042-.406ZM254.24-9.59q.35.056.812.112t.973.1q.511.049.98.07t.819.021q1.33,0,2.723-.1T263.3-9.7l-.014,1.022q-.77.084-1.68.168t-1.869.14q-.959.056-1.9.056-.49,0-1.162-.042t-1.323-.1q-.651-.056-1.1-.1Zm-.07,2.968q.378.056.84.112t.952.084q.49.028.938.049t.8.021q1.022,0,1.981-.049t1.89-.14q.931-.091,1.841-.231l-.014,1.05q-.7.1-1.393.161t-1.386.105q-.693.042-1.414.063t-1.519.021q-.476,0-1.1-.028t-1.26-.07q-.637-.042-1.141-.1Zm20.188-4.466q0,.07-.021.252t-.028.357q-.007.175-.021.273-.014.266-.014.728V-8.47q0,.546.007,1.106t.014,1.05q.007.49.007.826l-1.078-.532V-7.539q0-.525-.007-1.043t-.021-.952q-.014-.434-.028-.672-.014-.28-.042-.539t-.042-.343Zm-7.434,1.946q.574,0,1.3-.021t1.547-.049q.819-.028,1.659-.042l1.617-.028q.777-.014,1.435-.014h2.443q.553,0,.98.007t.679.007l-.014,1.036Q277.984-8.274,277-8.3t-2.527-.021q-.91,0-1.9.021t-1.981.049q-.994.028-1.925.077t-1.715.105Zm7.35,4.074A3.91,3.91,0,0,1,274-3.514a2.026,2.026,0,0,1-.756.938,2.051,2.051,0,0,1-1.127.308,2.508,2.508,0,0,1-.847-.147,2.165,2.165,0,0,1-.742-.448,2.124,2.124,0,0,1-.518-.742,2.519,2.519,0,0,1-.189-1,2.329,2.329,0,0,1,.336-1.246,2.479,2.479,0,0,1,.9-.868,2.44,2.44,0,0,1,1.225-.322,2.354,2.354,0,0,1,1.365.371,2.332,2.332,0,0,1,.819,1.008,3.567,3.567,0,0,1,.28,1.449,5.3,5.3,0,0,1-.2,1.428,4.6,4.6,0,0,1-.672,1.4A4.932,4.932,0,0,1,272.6-.161a7.186,7.186,0,0,1-2.037.917l-.938-.924a8.934,8.934,0,0,0,1.708-.574,4.542,4.542,0,0,0,1.274-.854,3.418,3.418,0,0,0,.791-1.176,4.065,4.065,0,0,0,.273-1.54,1.929,1.929,0,0,0-.406-1.372,1.313,1.313,0,0,0-.98-.42,1.415,1.415,0,0,0-.686.175,1.377,1.377,0,0,0-.525.511,1.514,1.514,0,0,0-.2.8A1.27,1.27,0,0,0,271.3-3.6a1.5,1.5,0,0,0,1,.364,1.155,1.155,0,0,0,.742-.245,1.362,1.362,0,0,0,.441-.742A3.084,3.084,0,0,0,273.5-5.46Z" transform="translate(48 562.941)" fill="#fff"/><path d="M.826-5.586H13.2v.938H.826ZM7.042-3.08h5.25v.924H7.042ZM6.594-5.166h1.05V.14H6.594ZM3.836-2.9A3.888,3.888,0,0,0,5.019-1.162a4.211,4.211,0,0,0,1.827.8,12.89,12.89,0,0,0,2.45.21h3.521q.441,0,.665-.014a1.874,1.874,0,0,0-.161.308,3.512,3.512,0,0,0-.133.371l-.1.329H9.254A15.754,15.754,0,0,1,7.042.7,6.091,6.091,0,0,1,5.292.2,3.935,3.935,0,0,1,3.955-.84a6.214,6.214,0,0,1-.987-1.736Zm-.6-1.288,1.05.14A9.778,9.778,0,0,1,3.2-.994,6.618,6.618,0,0,1,1.288,1.134,2.012,2.012,0,0,0,1.078.9q-.14-.14-.3-.28A1.753,1.753,0,0,0,.49.406a5.559,5.559,0,0,0,1.8-1.9A8.084,8.084,0,0,0,3.234-4.186ZM3.3-8.5V-7.35H10.6V-8.5Zm0-1.89v1.134H10.6v-1.134Zm-1.008-.8h9.366v4.634H2.3ZM22.624-9.632h4.55v.994h-4.55Zm0,6.356h4.788v.994H22.624Zm-.056-3.206H26.88v.966H22.568Zm-7.49-3.15h4.116v.994H15.078Zm.154,3.15h3.934v.966H15.232Zm6.846-5.208h1.05V1.12h-1.05ZM14.56-2.982q.77-.112,1.8-.273t2.184-.357L20.86-4l.042.938q-1.092.2-2.184.4t-2.1.385l-1.848.336Zm4.172-8.708h1.022v6.538a9.608,9.608,0,0,1-.14,1.54,7.09,7.09,0,0,1-.546,1.757A6.117,6.117,0,0,1,17.885-.14a6.854,6.854,0,0,1-2.051,1.414,3.377,3.377,0,0,0-.35-.413Q15.26.63,15.078.476a6.236,6.236,0,0,0,1.6-.959,5.4,5.4,0,0,0,1.057-1.183,5.847,5.847,0,0,0,.623-1.26,6.247,6.247,0,0,0,.294-1.211,7.855,7.855,0,0,0,.077-1.015ZM31.822.784q-.448-.56-.98-1.12T29.771-1.414q-.539-.518-1.043-.924l.91-.8q.5.406,1.064.938t1.1,1.092q.539.56.973,1.078Zm15.932-11.97a2.219,2.219,0,0,0-.042.287q-.014.161-.028.343t-.028.336q-.014.322-.035.84t-.035,1.141q-.014.623-.028,1.26T47.544-5.8q0,.546.007,1.2t.028,1.288q.021.637.028,1.176t.007.861A2.77,2.77,0,0,1,47.46-.252a1.061,1.061,0,0,1-.427.539,1.259,1.259,0,0,1-.651.161,2.623,2.623,0,0,1-.91-.189,4.222,4.222,0,0,1-.959-.511,3.06,3.06,0,0,1-.749-.742,1.514,1.514,0,0,1-.294-.882,1.956,1.956,0,0,1,.483-1.232,5.525,5.525,0,0,1,1.26-1.12,7.926,7.926,0,0,1,1.645-.84A10.656,10.656,0,0,1,48.8-5.635a9.807,9.807,0,0,1,1.82-.189,4.44,4.44,0,0,1,1.813.35,3.011,3.011,0,0,1,1.246.973,2.414,2.414,0,0,1,.455,1.463,3.109,3.109,0,0,1-.343,1.484A2.922,2.922,0,0,1,52.787-.476,5.278,5.278,0,0,1,51.156.2a7.005,7.005,0,0,1-.917.133L49.42.392,49.028-.742q.392.014.819,0a4.626,4.626,0,0,0,.819-.1,4.207,4.207,0,0,0,1.155-.385,2.4,2.4,0,0,0,.868-.721,1.771,1.771,0,0,0,.329-1.078A1.571,1.571,0,0,0,52.7-4.032a1.991,1.991,0,0,0-.868-.616,3.369,3.369,0,0,0-1.218-.21,8.3,8.3,0,0,0-1.806.2,11.609,11.609,0,0,0-1.792.56,6.1,6.1,0,0,0-1.232.623,3.914,3.914,0,0,0-.889.777,1.25,1.25,0,0,0-.329.77.753.753,0,0,0,.161.455,1.743,1.743,0,0,0,.4.385,1.985,1.985,0,0,0,.5.259,1.461,1.461,0,0,0,.462.091.447.447,0,0,0,.371-.168.829.829,0,0,0,.133-.518q0-.406-.014-1.127T46.55-4.123q-.014-.847-.014-1.617,0-.6.007-1.288t.014-1.33q.007-.644.014-1.134t.007-.7q0-.14-.007-.329t-.021-.371a1.836,1.836,0,0,0-.042-.294Zm4.34,1.554q.5.266,1.12.637t1.183.749a10.858,10.858,0,0,1,.9.658l-.574.9a5.57,5.57,0,0,0-.644-.539q-.392-.287-.84-.574t-.882-.546q-.434-.259-.77-.441Zm-8.4.966q.574.07.987.091t.805.021q.518,0,1.162-.056t1.33-.147q.686-.091,1.337-.224t1.169-.287l.028,1.092q-.546.126-1.218.245t-1.365.2q-.693.084-1.323.14t-1.092.056q-.6,0-1.015-.014T43.722-7.6Zm15.68-1.61h9.59v.91h-9.59Zm.154,2h8.106v.882H59.528Zm-1.61,2H66.36v.91H57.918Zm1.638-5.516,1.092.238a14.062,14.062,0,0,1-1.33,3.017A10.4,10.4,0,0,1,57.484-6.2a2.745,2.745,0,0,0-.273-.231q-.175-.133-.357-.259a2.716,2.716,0,0,0-.322-.2,8.271,8.271,0,0,0,1.806-2.135A11.727,11.727,0,0,0,59.556-11.788ZM63.308-5.11l1.008.336a12.6,12.6,0,0,1-1.792,2.457A15.741,15.741,0,0,1,60.249-.3,16.524,16.524,0,0,1,57.68,1.232a1.964,1.964,0,0,0-.21-.266q-.14-.154-.294-.3T56.9.42a14.932,14.932,0,0,0,2.555-1.4,13.5,13.5,0,0,0,2.2-1.876A10.829,10.829,0,0,0,63.308-5.11Zm2.66-1.162h1.064q.014,1.372.063,2.527a18.528,18.528,0,0,0,.182,2.016,4.438,4.438,0,0,0,.385,1.344A.741.741,0,0,0,68.306.1q.21,0,.28-.553A13.723,13.723,0,0,0,68.67-1.9q.168.168.371.343a3.856,3.856,0,0,0,.371.287,9.217,9.217,0,0,1-.154,1.4,1.474,1.474,0,0,1-.35.763.973.973,0,0,1-.672.245,1.462,1.462,0,0,1-1.19-.546,3.743,3.743,0,0,1-.679-1.533,13.841,13.841,0,0,1-.308-2.338Q65.982-4.634,65.968-6.272ZM58.254-3.864l.756-.672q.812.434,1.673.973t1.68,1.127q.819.588,1.519,1.162A10.375,10.375,0,0,1,65.044-.182l-.826.8A11.11,11.11,0,0,0,63.091-.49q-.679-.588-1.491-1.19T59.934-2.842Q59.08-3.4,58.254-3.864Zm18.83.336h5.8v.91h-5.8ZM76.216-.182H83.51V.756H76.216Zm.616-10.878h5.4v.924h-5.4ZM79.45-5.348h1.036V.378H79.45Zm2.492-5.712h.2l.2-.042.658.266a8.622,8.622,0,0,1-1.414,2.849,8.949,8.949,0,0,1-2.149,2.009,11.087,11.087,0,0,1-2.6,1.274,3.186,3.186,0,0,0-.245-.448,2.412,2.412,0,0,0-.315-.406A8.913,8.913,0,0,0,78.1-6.307a8.77,8.77,0,0,0,1.645-1.155,8.011,8.011,0,0,0,1.33-1.526,6.586,6.586,0,0,0,.868-1.89Zm-3.612.9a7.8,7.8,0,0,0,1.225,2.016,7.563,7.563,0,0,0,1.806,1.561,8.112,8.112,0,0,0,2.3.973,2.9,2.9,0,0,0-.224.259q-.126.161-.238.315a1.772,1.772,0,0,0-.182.308,9.056,9.056,0,0,1-2.387-1.155,8.432,8.432,0,0,1-1.869-1.75,9.505,9.505,0,0,1-1.316-2.275Zm-7.616-.1h5.824v.938H70.714Zm-.168,8.008h6.118v.938H70.546Zm2.6-9.52H74.1V-7.91H73.15Zm.084,3.906H74v4.074h.1V1.148H73.15V-3.794h.084ZM71.75-5.46v1.288h3.766V-5.46Zm0-2.016v1.26h3.766v-1.26Zm-.8-.784h5.39v4.872h-5.39ZM90.384-9.45q.574.084,1.337.133t1.582.042q.819-.007,1.568-.056t1.267-.133V-8.33q-.56.056-1.309.091T93.275-8.2q-.805,0-1.561-.035t-1.33-.091Zm.546,5.7q-.1.378-.154.686a3.362,3.362,0,0,0-.056.6,1.123,1.123,0,0,0,.1.469.994.994,0,0,0,.364.406,2.149,2.149,0,0,0,.721.28,5.447,5.447,0,0,0,1.176.105A16.668,16.668,0,0,0,94.878-1.3a16.137,16.137,0,0,0,1.68-.273l.028,1.176a12.871,12.871,0,0,1-1.533.217Q94.178-.1,93.086-.1A4.662,4.662,0,0,1,90.5-.658a1.768,1.768,0,0,1-.819-1.54,4.816,4.816,0,0,1,.063-.749q.063-.4.175-.9Zm-3.22-6.776q-.028.112-.077.287l-.1.35q-.049.175-.077.3-.07.392-.168.9T87.1-7.6q-.091.581-.168,1.176t-.126,1.155q-.049.56-.049,1.036,0,.518.035.98t.091.98q.126-.322.266-.686t.287-.721q.147-.357.259-.637l.588.448q-.182.5-.392,1.106T87.521-1.6q-.161.553-.231.875-.028.154-.056.336A1.11,1.11,0,0,0,87.22-.1q.014.112.021.245t.021.245l-1.008.07a13.889,13.889,0,0,1-.364-1.911,19.871,19.871,0,0,1-.154-2.583q0-.77.07-1.575t.182-1.568q.112-.763.217-1.4t.161-1.071q.042-.252.07-.511a4.51,4.51,0,0,0,.028-.483Zm16.044-.658a2.218,2.218,0,0,0-.042.287q-.014.161-.028.343t-.028.336q-.014.322-.035.84t-.035,1.141q-.014.623-.028,1.26T103.544-5.8q0,.546.007,1.2t.028,1.288q.021.637.028,1.176t.007.861a2.77,2.77,0,0,1-.154,1.022,1.061,1.061,0,0,1-.427.539,1.259,1.259,0,0,1-.651.161,2.623,2.623,0,0,1-.91-.189,4.222,4.222,0,0,1-.959-.511,3.06,3.06,0,0,1-.749-.742,1.514,1.514,0,0,1-.294-.882,1.956,1.956,0,0,1,.483-1.232,5.525,5.525,0,0,1,1.26-1.12,7.926,7.926,0,0,1,1.645-.84,10.656,10.656,0,0,1,1.946-.567,9.807,9.807,0,0,1,1.82-.189,4.44,4.44,0,0,1,1.813.35,3.012,3.012,0,0,1,1.246.973,2.414,2.414,0,0,1,.455,1.463,3.109,3.109,0,0,1-.343,1.484,2.922,2.922,0,0,1-1.008,1.078A5.278,5.278,0,0,1,107.156.2a7.005,7.005,0,0,1-.917.133l-.819.063-.392-1.134q.392.014.819,0a4.626,4.626,0,0,0,.819-.1,4.207,4.207,0,0,0,1.155-.385,2.4,2.4,0,0,0,.868-.721,1.771,1.771,0,0,0,.329-1.078,1.571,1.571,0,0,0-.322-1.008,1.991,1.991,0,0,0-.868-.616,3.369,3.369,0,0,0-1.218-.21,8.3,8.3,0,0,0-1.806.2,11.609,11.609,0,0,0-1.792.56,6.1,6.1,0,0,0-1.232.623,3.914,3.914,0,0,0-.889.777,1.25,1.25,0,0,0-.329.77.752.752,0,0,0,.161.455,1.743,1.743,0,0,0,.4.385,1.985,1.985,0,0,0,.5.259,1.461,1.461,0,0,0,.462.091.447.447,0,0,0,.371-.168.829.829,0,0,0,.133-.518q0-.406-.014-1.127t-.028-1.568q-.014-.847-.014-1.617,0-.6.007-1.288t.014-1.33q.007-.644.014-1.134t.007-.7q0-.14-.007-.329t-.021-.371a1.835,1.835,0,0,0-.042-.294Zm4.34,1.554q.5.266,1.12.637t1.183.749a10.86,10.86,0,0,1,.9.658l-.574.9a5.571,5.571,0,0,0-.644-.539q-.392-.287-.84-.574t-.882-.546q-.434-.259-.77-.441Zm-8.4.966q.574.07.987.091t.805.021q.518,0,1.162-.056t1.33-.147q.686-.091,1.337-.224t1.169-.287l.028,1.092q-.546.126-1.218.245t-1.365.2q-.693.084-1.323.14t-1.092.056q-.6,0-1.015-.014T99.722-7.6Zm13.874-1.246H124.5V-2h-1.078V-8.9H114.6v6.972h-1.036Zm.672,3.052H124v.98H114.24Zm0,3.122H124V-2.73H114.24Zm4.172-8.022H119.5V1.106h-1.092Zm12.348.854q-.056.35-.084.707t-.042.707q-.028.588-.056,1.456t-.056,1.841q-.028.973-.042,1.939t-.014,1.736a2.271,2.271,0,0,0,.294,1.232,1.614,1.614,0,0,0,.812.658,3.349,3.349,0,0,0,1.19.2,5.664,5.664,0,0,0,1.722-.245,5.19,5.19,0,0,0,1.372-.658,6.067,6.067,0,0,0,1.071-.931,10.442,10.442,0,0,0,.847-1.064l.8.952a9.4,9.4,0,0,1-.889,1.043,7.115,7.115,0,0,1-1.239,1A6.759,6.759,0,0,1,134.8.42a6.885,6.885,0,0,1-2.079.294,4.721,4.721,0,0,1-1.764-.308,2.475,2.475,0,0,1-1.2-.994,3.367,3.367,0,0,1-.434-1.82q0-.63.014-1.393t.042-1.575q.028-.812.042-1.589t.028-1.435q.014-.658.014-1.092,0-.392-.028-.756a6.6,6.6,0,0,0-.084-.672Zm14.91-.14h2.94v.994h-2.94Zm2.3,0h1.148a28.5,28.5,0,0,0,.42,3.017,13.064,13.064,0,0,0,.777,2.59,7.943,7.943,0,0,0,1.246,2.051,5.914,5.914,0,0,0,1.8,1.428,1.554,1.554,0,0,0-.28.21q-.154.14-.3.294t-.245.28A6.643,6.643,0,0,1,150.7-2.723a8.593,8.593,0,0,1-1.267-2.128,14.028,14.028,0,0,1-.8-2.632,28.8,28.8,0,0,1-.448-3.059h-.224Zm.056,2.7,1.078.168a13.935,13.935,0,0,1-1.491,4.13,8.908,8.908,0,0,1-2.569,2.87,2.093,2.093,0,0,0-.217-.245q-.147-.147-.315-.294t-.294-.245a7.23,7.23,0,0,0,2.471-2.6A12.5,12.5,0,0,0,148.022-8.344ZM143.668-6.23v4.956h-1.022V-5.25h-1.96v-.98Zm0,4.494a3.039,3.039,0,0,0,1.4,1.148,5.95,5.95,0,0,0,2.114.42q.574.028,1.393.035T150.3-.14q.9-.014,1.743-.042t1.47-.07a1.631,1.631,0,0,0-.14.308q-.07.2-.126.4t-.084.357q-.574.028-1.358.042t-1.624.021q-.84.007-1.631,0T147.182.854a7.056,7.056,0,0,1-2.345-.448,3.985,3.985,0,0,1-1.645-1.232q-.5.448-1.036.9t-1.106.931L140.5-.07q.5-.336,1.085-.777t1.127-.889Zm-2.828-9.058.77-.63a10.236,10.236,0,0,1,.938.679q.476.385.875.777a6.575,6.575,0,0,1,.651.728l-.84.7a4.506,4.506,0,0,0-.609-.742q-.4-.406-.868-.805A11.313,11.313,0,0,0,140.84-10.794Zm16.282.532.553.028q.287.014.5.014.28,0,.721-.014t.917-.042q.476-.028.9-.049t.63-.035q.21-.028.385-.063a1.8,1.8,0,0,0,.315-.091l.7.574q-.1.112-.189.224t-.175.238a10.37,10.37,0,0,0-.532,1.029q-.308.665-.651,1.442t-.679,1.491l-.455,1.029-.5,1.12q-.252.567-.5,1.057a6.641,6.641,0,0,1-.469.812,2.334,2.334,0,0,1-.8.749,2.075,2.075,0,0,1-.966.217,1.766,1.766,0,0,1-1.3-.518,1.892,1.892,0,0,1-.518-1.4,3.1,3.1,0,0,1,.357-1.463,3.691,3.691,0,0,1,.994-1.183,4.714,4.714,0,0,1,1.526-.784,6.475,6.475,0,0,1,1.953-.28,9.4,9.4,0,0,1,2.275.273,12.4,12.4,0,0,1,2.058.7,16.956,16.956,0,0,1,1.75.9q.791.469,1.351.875l-.518,1.2a15.345,15.345,0,0,0-1.386-1.057,12.617,12.617,0,0,0-1.68-.959,10.85,10.85,0,0,0-1.925-.7,8.222,8.222,0,0,0-2.093-.266,4.592,4.592,0,0,0-1.967.385,3.126,3.126,0,0,0-1.246.98,2.1,2.1,0,0,0-.427,1.239.927.927,0,0,0,.259.707.825.825,0,0,0,.581.245.859.859,0,0,0,.434-.112,1.488,1.488,0,0,0,.406-.378,5.292,5.292,0,0,0,.448-.714q.224-.42.448-.91t.434-.994q.21-.5.42-.938.28-.616.567-1.274t.574-1.274q.287-.616.525-1.12-.21.014-.6.028t-.833.035l-.847.042-.637.035q-.224.014-.5.035t-.532.049Zm8.75,3.066a20.288,20.288,0,0,1-.294,2.7,8.92,8.92,0,0,1-.686,2.2,6.021,6.021,0,0,1-1.26,1.757A7.846,7.846,0,0,1,161.616.84l-.924-.77a6.694,6.694,0,0,0,2-1.239,5.694,5.694,0,0,0,1.2-1.554,6.593,6.593,0,0,0,.6-1.687,14.773,14.773,0,0,0,.245-1.624q.014-.322.021-.658a5.46,5.46,0,0,0-.021-.63Zm11.984-3.136q-.224.168-.5.413t-.462.385q-.364.322-.882.749t-1.092.9q-.574.469-1.106.9t-.924.763a2.884,2.884,0,0,0-.56.595.419.419,0,0,0,.007.469,3.223,3.223,0,0,0,.595.63q.392.308.9.721t1.071.889q.567.476,1.155.98t1.134.994q.546.49.98.938L177.17.91q-.434-.5-.966-1.022-.364-.378-.91-.882t-1.169-1.05Q173.5-2.59,172.893-3.1t-1.1-.917A2.963,2.963,0,0,1,170.94-5a.888.888,0,0,1,.07-.847,3.942,3.942,0,0,1,.882-.938q.392-.336.945-.784t1.155-.945q.6-.5,1.141-.966t.889-.833q.21-.21.441-.476a4.191,4.191,0,0,0,.357-.462Zm9.926-.476q-.07.224-.14.56t-.112.546q-.1.5-.231,1.169t-.294,1.393q-.161.728-.357,1.428-.182.742-.448,1.617t-.56,1.757q-.294.882-.6,1.666T184.464.7L183.232.28a12.044,12.044,0,0,0,.651-1.3q.329-.756.644-1.624t.588-1.729q.273-.861.469-1.6.126-.49.252-1.036t.245-1.071q.119-.525.2-.966t.119-.721q.042-.294.056-.616a3.123,3.123,0,0,0-.014-.532Zm-3.108,2.324q.784,0,1.687-.077t1.841-.231q.938-.154,1.806-.364v1.092q-.868.2-1.82.336t-1.869.217q-.917.077-1.659.077-.462,0-.854-.021t-.77-.035l-.042-1.092q.5.056.9.077T184.674-8.484ZM189.1-6.552q.56-.056,1.225-.091t1.337-.035q.616,0,1.239.028t1.183.1l-.028,1.064q-.532-.07-1.134-.119T191.7-5.656q-.672,0-1.316.035T189.1-5.5Zm.294,3.4q-.084.35-.14.665a3.405,3.405,0,0,0-.056.595,1.306,1.306,0,0,0,.091.483.945.945,0,0,0,.343.413,2.058,2.058,0,0,0,.721.294,5.366,5.366,0,0,0,1.211.112q.672,0,1.379-.07a11.86,11.86,0,0,0,1.351-.21L194.25.266Q193.69.35,193,.413t-1.456.063a5.06,5.06,0,0,1-2.534-.518,1.689,1.689,0,0,1-.882-1.554,5.784,5.784,0,0,1,.056-.805q.056-.4.154-.847Zm3.178-7.238a6.4,6.4,0,0,1,.392.588q.21.35.413.7t.343.644l-.756.336a6.053,6.053,0,0,0-.329-.644l-.406-.7a5.386,5.386,0,0,0-.4-.6Zm1.54-.574q.2.266.42.616t.427.7q.2.35.343.616l-.756.336Q194.32-9.17,194-9.709a10.755,10.755,0,0,0-.616-.931Zm9.226,1.036-.161-.518q-.091-.294-.189-.574l1.19-.154q.07.406.2.917t.294,1.036q.168.525.336.973a12.652,12.652,0,0,0,.812,1.813,15.522,15.522,0,0,0,.924,1.519q.154.2.308.378l.308.364-.574.784q-.252-.056-.665-.112t-.9-.105q-.483-.049-.959-.091t-.854-.07l.084-.938q.392.028.833.07t.84.077q.4.035.651.063-.294-.448-.63-1.029t-.651-1.232q-.315-.651-.553-1.281T203.6-9.128Q203.448-9.6,203.336-9.926Zm-5.124,1.092q1.176.14,2.275.2t2.086.028q.987-.028,1.785-.112.56-.07,1.183-.168t1.239-.252q.616-.154,1.162-.322l.126,1.092a9.587,9.587,0,0,1-1.078.266q-.588.112-1.176.21t-1.106.154a28.126,28.126,0,0,1-2.975.168q-1.645.014-3.493-.14Zm2.156,4.466a5.7,5.7,0,0,0-.483.973,2.761,2.761,0,0,0-.175.973,1.539,1.539,0,0,0,.868,1.456A5.325,5.325,0,0,0,203-.49a16.46,16.46,0,0,0,1.981-.084,14.018,14.018,0,0,0,1.631-.266L206.556.28q-.644.112-1.54.21a19.29,19.29,0,0,1-2.072.1,7.612,7.612,0,0,1-2.3-.336,3.221,3.221,0,0,1-1.505-.959A2.4,2.4,0,0,1,198.6-2.3a3.588,3.588,0,0,1,.189-1.141,10.372,10.372,0,0,1,.483-1.183Zm12.754-5.4q-.028.168-.049.42l-.042.5q-.021.252-.021.434Q213-7.98,213-7.427t.028,1.148q.021.6.077,1.183a10.518,10.518,0,0,0,.378,2.037,4.181,4.181,0,0,0,.651,1.365,1.1,1.1,0,0,0,.875.49.746.746,0,0,0,.518-.245,2.862,2.862,0,0,0,.483-.658,6.538,6.538,0,0,0,.42-.924,9.305,9.305,0,0,0,.315-1.029l.882.994a10.044,10.044,0,0,1-.847,1.883,3.336,3.336,0,0,1-.868,1A1.58,1.58,0,0,1,215,.126a2.043,2.043,0,0,1-1.274-.483,3.782,3.782,0,0,1-1.064-1.568,10.812,10.812,0,0,1-.644-2.891q-.07-.616-.105-1.33T211.869-7.5q-.007-.644-.007-1.05,0-.238-.014-.616a2.785,2.785,0,0,0-.084-.63Zm7.294.392a7.521,7.521,0,0,1,.721,1.113,13.013,13.013,0,0,1,.63,1.358q.287.721.518,1.491a15.609,15.609,0,0,1,.378,1.533q.147.763.217,1.463l-1.12.462a16.128,16.128,0,0,0-.294-1.939,18.082,18.082,0,0,0-.518-1.918,13.812,13.812,0,0,0-.714-1.757A7.075,7.075,0,0,0,219.324-9Z" transform="translate(76 592.329)" fill="#fff"/><path d="M.686-11.046H5.5v.98H.686ZM.854-7.07H5.376V-6.1H.854ZM.434-2.086q.644-.168,1.484-.392T3.7-2.968L5.586-3.5l.14.938q-1.316.392-2.653.784T.7-1.078ZM7.14-8.008v1.414h4.578V-8.008Zm0,2.254v1.428h4.578V-5.754Zm0-4.508v1.4h4.578v-1.4Zm-.98-.882h6.58V-3.43H6.16Zm3.668,7.28h1.008v3.57a.525.525,0,0,0,.07.329.457.457,0,0,0,.322.077h1.106A.28.28,0,0,0,12.572,0a1.042,1.042,0,0,0,.119-.469q.035-.357.049-1.071.112.07.273.154a2.246,2.246,0,0,0,.329.14q.168.056.308.1a6.765,6.765,0,0,1-.168,1.33,1.163,1.163,0,0,1-.371.658,1.092,1.092,0,0,1-.665.182H11.074A2.122,2.122,0,0,1,10.3.91.632.632,0,0,1,9.926.5a2.607,2.607,0,0,1-.1-.8Zm-2.394.21H8.47a10.215,10.215,0,0,1-.308,1.645,4.432,4.432,0,0,1-.63,1.351A4.215,4.215,0,0,1,6.419.413,6.485,6.485,0,0,1,4.662,1.2,2.579,2.579,0,0,0,4.508.917Q4.41.756,4.291.6A1.184,1.184,0,0,0,4.06.35,6.131,6.131,0,0,0,5.649-.3a3.4,3.4,0,0,0,.987-.889,3.556,3.556,0,0,0,.539-1.12A8.477,8.477,0,0,0,7.434-3.654Zm-4.8-7H3.654v8.246l-1.022.182Zm18.2-.56h3.92v.938h-3.92ZM19.18-5.6h6.5v.966h-6.5Zm4.928-5.614h1.036V-7.9q0,.42.084.476a.5.5,0,0,0,.126.042.787.787,0,0,0,.154.014H26a1.444,1.444,0,0,0,.189-.014.911.911,0,0,0,.147-.028.281.281,0,0,0,.1-.105.474.474,0,0,0,.063-.2,3.256,3.256,0,0,0,.042-.441q.014-.3.028-.693a2.251,2.251,0,0,0,.371.231,3.551,3.551,0,0,0,.427.189q-.014.392-.049.791a2.1,2.1,0,0,1-.1.567.762.762,0,0,1-.434.476.958.958,0,0,1-.336.1,2.977,2.977,0,0,1-.392.028h-.8a2.015,2.015,0,0,1-.462-.056.954.954,0,0,1-.392-.182.717.717,0,0,1-.231-.385,3.878,3.878,0,0,1-.063-.847ZM25.326-5.6h.21l.2-.042.714.322a8.744,8.744,0,0,1-1.239,2.373,10.162,10.162,0,0,1-1.764,1.841A11.106,11.106,0,0,1,21.322.245a14.663,14.663,0,0,1-2.338.9,5.249,5.249,0,0,0-.273-.469,2.576,2.576,0,0,0-.329-.427,11.824,11.824,0,0,0,2.2-.784,11.151,11.151,0,0,0,2-1.211,8.607,8.607,0,0,0,1.638-1.631,7.319,7.319,0,0,0,1.1-2.044Zm-4.368.91a7.483,7.483,0,0,0,2.485,3.164A9.882,9.882,0,0,0,27.622.21a1.474,1.474,0,0,0-.259.273q-.133.175-.245.343t-.2.308A9.982,9.982,0,0,1,22.666-.84a9.127,9.127,0,0,1-2.632-3.57Zm-.616-6.524h1.022v1.638a6.216,6.216,0,0,1-.14,1.281,4.084,4.084,0,0,1-.532,1.3,3.767,3.767,0,0,1-1.148,1.141,1.742,1.742,0,0,0-.245-.224q-.161-.126-.315-.238a1.58,1.58,0,0,0-.28-.168,3.414,3.414,0,0,0,1.064-.98,3.086,3.086,0,0,0,.462-1.085,5.265,5.265,0,0,0,.112-1.043ZM18.074-8.988l.952.364a15.234,15.234,0,0,1-1.19,1.708,17.661,17.661,0,0,1-1.421,1.575,15.292,15.292,0,0,1-1.491,1.3,1.831,1.831,0,0,0-.154-.294q-.112-.182-.231-.364A2.685,2.685,0,0,0,14.322-5a13.532,13.532,0,0,0,1.393-1.127,13.948,13.948,0,0,0,1.3-1.372A11.653,11.653,0,0,0,18.074-8.988Zm-.462-2.758.994.392a10.277,10.277,0,0,1-1,1.26,15.03,15.03,0,0,1-1.239,1.2,12.282,12.282,0,0,1-1.3.987q-.056-.112-.154-.273t-.21-.322q-.112-.161-.2-.259a11.247,11.247,0,0,0,1.183-.882,12.4,12.4,0,0,0,1.1-1.05A7.614,7.614,0,0,0,17.612-11.746ZM16.6-6.174l.98-.98.042.028V1.106H16.6ZM35.9-9.562q-.14,1.092-.357,2.282a21.382,21.382,0,0,1-.553,2.31,12.941,12.941,0,0,1-.931,2.408,4.782,4.782,0,0,1-1.1,1.456,1.9,1.9,0,0,1-1.232.49,1.913,1.913,0,0,1-1.19-.448,3.2,3.2,0,0,1-.938-1.3,5.025,5.025,0,0,1-.364-1.995,5.141,5.141,0,0,1,.469-2.17A5.841,5.841,0,0,1,31-8.337,6.286,6.286,0,0,1,32.956-9.59a6.216,6.216,0,0,1,2.394-.462,5.785,5.785,0,0,1,2.219.406,5.039,5.039,0,0,1,1.687,1.113,4.952,4.952,0,0,1,1.078,1.638A5.252,5.252,0,0,1,40.712-4.9a5.24,5.24,0,0,1-.623,2.59A4.855,4.855,0,0,1,38.3-.49a7.383,7.383,0,0,1-2.835.924L34.8-.6q.336-.042.644-.084t.56-.1a5.543,5.543,0,0,0,1.309-.483,4.481,4.481,0,0,0,1.141-.84,3.875,3.875,0,0,0,.805-1.218,4.1,4.1,0,0,0,.3-1.617,4.427,4.427,0,0,0-.28-1.589,3.745,3.745,0,0,0-.826-1.3,3.9,3.9,0,0,0-1.33-.882,4.684,4.684,0,0,0-1.792-.322,5,5,0,0,0-2.079.42,5.025,5.025,0,0,0-1.582,1.1,5.045,5.045,0,0,0-1,1.484,3.933,3.933,0,0,0-.35,1.575A3.878,3.878,0,0,0,30.555-3a2.034,2.034,0,0,0,.56.833,1.04,1.04,0,0,0,.651.266,1.023,1.023,0,0,0,.686-.329A3.784,3.784,0,0,0,33.166-3.3a12.323,12.323,0,0,0,.714-1.911A20.547,20.547,0,0,0,34.4-7.35q.217-1.134.315-2.226Z" transform="translate(87 533.554)" fill="#fff"/><path d="M5.936-10.878q-.028.2-.07.413t-.084.427q-.056.238-.126.672T5.5-8.449q-.091.483-.189.931-.154.588-.357,1.337t-.476,1.6q-.273.847-.609,1.722T3.122-1.134A16.818,16.818,0,0,1,2.24.49L1.106.028A10.4,10.4,0,0,0,2-1.4q.42-.8.77-1.659t.63-1.7q.28-.84.483-1.561T4.2-7.56q.2-.826.322-1.736A12.489,12.489,0,0,0,4.648-11Zm4.816,1.624a8.562,8.562,0,0,1,.707,1.064q.371.644.728,1.358t.658,1.386q.3.672.469,1.162l-1.078.518A12.719,12.719,0,0,0,11.809-5q-.273-.686-.616-1.393t-.714-1.344A6.385,6.385,0,0,0,9.73-8.792ZM.9-7.8q.336.014.63.014t.63-.014q.308-.014.805-.049t1.071-.084l1.148-.1q.574-.049,1.05-.084t.756-.035a3.067,3.067,0,0,1,1.141.2,1.694,1.694,0,0,1,.826.714,2.8,2.8,0,0,1,.315,1.463q0,.826-.084,1.785a16.268,16.268,0,0,1-.259,1.82A5.872,5.872,0,0,1,8.456-.714a1.756,1.756,0,0,1-.84.931,2.932,2.932,0,0,1-1.2.231A6.29,6.29,0,0,1,5.551.385Q5.1.322,4.76.252L4.578-.924a4.955,4.955,0,0,0,.616.161q.322.063.616.1a4.209,4.209,0,0,0,.476.035,1.75,1.75,0,0,0,.7-.133,1.15,1.15,0,0,0,.532-.6,5.364,5.364,0,0,0,.371-1.19,13.2,13.2,0,0,0,.217-1.526q.07-.812.07-1.568a2.015,2.015,0,0,0-.182-.966.911.911,0,0,0-.518-.434,2.482,2.482,0,0,0-.784-.112q-.35,0-.952.049t-1.288.112q-.686.063-1.267.133t-.9.1q-.252.028-.623.077t-.637.091ZM10.92-11.284a5.973,5.973,0,0,1,.385.581l.413.7q.21.357.35.637l-.77.336q-.126-.28-.322-.63t-.406-.7q-.21-.35-.406-.616Zm1.54-.574q.182.266.406.616t.434.693a6.619,6.619,0,0,1,.336.609L12.88-9.6q-.224-.462-.546-1a10.753,10.753,0,0,0-.616-.931Z" transform="translate(273.036 533.554)" fill="#fff"/><path d="M3.223,1.489V1.074L6.1.464l.1-2.051H5.957a11.174,11.174,0,0,1-2.979.244v-.391L6.2-2.441l.146-1.733H6.1A11.662,11.662,0,0,1,3.369-4v-.317h-1.1L2.124-7.056a17.453,17.453,0,0,1,.537-3.76h2.2v.391l-.073.464h.146l1.66-.781v-1.807H6.348q-1.245.317-2.5.623a8.2,8.2,0,0,1-2.747.159v-.391L6.592-13.4v-.562l-.1-.537h2.2v.61H9.18q1.1-.22,2.234-.378a11.46,11.46,0,0,1,2.307-.085l.073.391-5,.854v1.733a6.388,6.388,0,0,1,3.662.562,3.893,3.893,0,0,1,.488,2.661,18.538,18.538,0,0,1-1.025,3.687h-2.2v-.562H9.4l-.854.244-.073,1.88h.391a10.883,10.883,0,0,1,2.661-.171v.391l-3.149.635L8.3-.171h.488a9.153,9.153,0,0,1,3.369-.317V-.1A35.777,35.777,0,0,0,7.8.964,12.712,12.712,0,0,1,3.223,1.489ZM19.116.464V.073l.317-.317a11.507,11.507,0,0,0,1.172-1.562,21.744,21.744,0,0,0,.818-2.087A6.1,6.1,0,0,0,21.7-6.2l-.635-1.245a2.135,2.135,0,0,0-1.245-.562L18.8-7.69q-.391,1.489-.7,2.979T17.554-1.66H15.43l-.073-.391.781-4.15h-.146l-1.025.781v.146h-2.2v-.464h.171l.073-.22.537-.317v-.171A13.218,13.218,0,0,1,16.7-8.008a20.094,20.094,0,0,1,.537-2q.317-.977.635-1.9h2.2v.537a12.887,12.887,0,0,0-.952,2.832h2.161a2.906,2.906,0,0,1,1.843.61l.073.244.244.146A4.339,4.339,0,0,1,23.9-4.956a8.12,8.12,0,0,1-.659,2.478A17.169,17.169,0,0,1,22.021-.244l-.244.073-.22.464A9.3,9.3,0,0,1,19.116.464ZM6.348-5.1v-.562l.073-1.1H6.2l-1.88.1v1.172l.146.781h.464Zm3.76-.708v-.146a10.636,10.636,0,0,0,.635-3.687l-.635-1.025-.537-.073-.879.317v2.271H9.863v.391l-1.245.22v1.733ZM6.421-7.935l.073-1.172H6.348L6.1-8.789H4.468L4.395-7.3h.22ZM5.1-15.283v-.391L6.494-17.09l.562-.317.073-.244.464-.22.1-.244a3.131,3.131,0,0,1,2.979-.708v.391L8.3-16.309H8.154l-.073.22-.708.708ZM45.313.781V-.562l.879-5.786h2.1v.537q-.317,1.563-.549,3.21T47.437.781ZM29.639.684a3.452,3.452,0,0,1-1.807-.854A4.391,4.391,0,0,1,26.819-2.49a15.391,15.391,0,0,1-.085-2.686l.244-.879H29.1v.562a5.706,5.706,0,0,0-.244,1.709A6.379,6.379,0,0,0,29.81-.635,2.852,2.852,0,0,0,32.08.22,17.287,17.287,0,0,0,36.389-.952a10.566,10.566,0,0,1,4.456-.781v.391q-1.709.635-3.479,1.184a25.592,25.592,0,0,1-3.65.842Zm10.6-4.932v-.317l.22-.293h.171A20.512,20.512,0,0,0,42.1-7.617a7.5,7.5,0,0,0,.623-3.052l-.61-1.172a2.247,2.247,0,0,0-1.733-.562l-2.2.635v2.515h.391l2.2-.073v.391l-2.588.684v2.124h.244l2.2-.073v.391a31.773,31.773,0,0,0-3.528.977,9.5,9.5,0,0,1-3.772.439v-.391l2.661-.781.073-1.489-.073-.391h-.22a10.623,10.623,0,0,1-2.515.146v-.464l2.734-.781v-2.124H35.84a4.729,4.729,0,0,1-3.369,1.343v1.245l.464,3.76H30.811A24.007,24.007,0,0,1,30.4-7.227q-.122-1.489-.122-3.052l.391-2.2h2.124v.391l-.317,1.66h.22l3.223-1.66.073-2.734-.073-.562h2.2V-12.7h.146l1.025-.244h3.3a2.711,2.711,0,0,1,1.636.708l.1.22.293.244a4.75,4.75,0,0,1,.317,2.124A10.141,10.141,0,0,1,44.1-6.958a15.388,15.388,0,0,1-1.453,2.49A5.152,5.152,0,0,1,40.234-4.248ZM32.08-16.089v-.391A41.7,41.7,0,0,1,36.548-17.6a18.5,18.5,0,0,1,4.785-.269l.854.22.073.708-.537.635H39.6v-.317l.391-.635-.635-.073a17.8,17.8,0,0,0-3.564.83A8.912,8.912,0,0,1,32.08-16.089ZM63.33.293V-.1l1.636-1.318,1.27-1.27h.146a16.514,16.514,0,0,0,1.453-2.576,6.974,6.974,0,0,0,.6-2.893,5.784,5.784,0,0,0-1.2-2.759,7.642,7.642,0,0,0-2.185-1.318,6.8,6.8,0,0,0-2.5-.464,11.493,11.493,0,0,0-3.015.854,20.456,20.456,0,0,0-2.8,1.489l-.073.146-.854.708-.781.781L54-7.544a4.8,4.8,0,0,0-.781,2.686l.635.928.464.146,1.953-1.245.073-.146,1.1-1.025h.171L58.4-7.3a18.588,18.588,0,0,0,1.807-2.515l.464-1.172h2.2v.391a14.822,14.822,0,0,1-1.88,3.3l-.244.073-.464.781-.781.781h-.171l-.146.317-.244.073-.073.244a6.177,6.177,0,0,1-2.747,1.721,7.813,7.813,0,0,1-3.357.232l-.952-.293-.635-.806-.146-1.636a4.671,4.671,0,0,1,.659-1.843,11.419,11.419,0,0,1,1.221-1.6l1.563-1.416a14.976,14.976,0,0,1,3.1-1.648,15.036,15.036,0,0,1,3.418-.867h3.979a11.358,11.358,0,0,1,2.087.525,7.513,7.513,0,0,1,1.843.964,5.519,5.519,0,0,1,1.172,1.489,5.278,5.278,0,0,1,.537,3.052,8.223,8.223,0,0,1-.769,2.783,9.59,9.59,0,0,1-1.648,2.393A13.9,13.9,0,0,1,65.454.293ZM75.244,1.88V1.489l.22-.1.073-.22.806-.781Q80.176-3.467,81.9-5.579t2.661-3.406a6.5,6.5,0,0,0,1.184-2.856l-.464-.781a3.52,3.52,0,0,0-2.441-.562A14.516,14.516,0,0,0,77.82-11.8a12.35,12.35,0,0,1-5.09,1.208v-.391a26.723,26.723,0,0,1,4.15-1.685,27.772,27.772,0,0,1,4.395-.977h4.541a2.775,2.775,0,0,1,1.807.854,2.741,2.741,0,0,1,.317,1.587,6.079,6.079,0,0,1-.83,1.978q-.586.9-2.783,3.6T78.442.928l-.854.635-.073.22ZM86.133-14.038l-1.025-.391V-14.6l-.244-.146a3.3,3.3,0,0,1-.22-1.562,3.5,3.5,0,0,1,1.025-1.807l.22-.073.073-.244a4.739,4.739,0,0,1,3.54-.708l.464.317v.562l-.073.22a2.8,2.8,0,0,1,2.344.562,1.74,1.74,0,0,1,.317,1.245l-.464.952a6,6,0,0,1-2.832,1.245Zm2.979-1.1a2.648,2.648,0,0,0,1.172-1.1l.073-.391a1.973,1.973,0,0,0-.928-.928h-.171v-.562h-1l-.244.073-.171.317-.22.073a3.659,3.659,0,0,0-.781,2.271l.391.635.61.146Zm5.3,14.575V-.635a53.543,53.543,0,0,1-.623-5.688q-.159-2.856-.159-5.762h2.2v1.953h.146q1.978-.928,4-1.709a19.419,19.419,0,0,1,4.224-1.1h3.3l1.172.391.562.708a7.967,7.967,0,0,1,.146,2.2,26.062,26.062,0,0,1-.818,3.162q-.5,1.526-.989,3.088h1.587V-3a40.733,40.733,0,0,0-6.323.83,47.723,47.723,0,0,1-6.3.9v.244l.073.464ZM105.151-3.3q.708-1.88,1.331-3.809a14.719,14.719,0,0,0,.7-4.028l-.61-.952a1.443,1.443,0,0,0-1.27-.317,19.2,19.2,0,0,0-4.724,1.575A21.557,21.557,0,0,1,95.825-9.18v.537q.073,1.733.2,3.455t.342,3.381h.391l4.163-.793Q103.027-3,105.151-3.3Z" transform="translate(144.316 535.078)" fill="#ffff76"/><path d="M20.26-14.937,18.6-15.161v-.562l1.168-3.167h1.37l.562.067v.359a15.674,15.674,0,0,0-1.011,3.032h.943v.359Zm-3.594,0L15-15.161v-.562l1.168-3.167h1.37l.562.067v.359a15.674,15.674,0,0,0-1.011,3.032h.943v.359Z" transform="translate(118.857 535.029)" fill="#ffff76"/><path d="M20.255-14.685l-1.908-.258v-.825l1.244-3.372,1.574,0,.782.094v.635l-.022.049A15.42,15.42,0,0,0,21-15.681h.878v.836Zm-1.408-.695,1.417.191.114-.011.065-.286a16.011,16.011,0,0,1,1-3.031V-18.6l-.326-.039H19.94l-1.092,2.962Zm-2.186.695-1.908-.258v-.825L16-19.14l1.574,0,.782.094v.635l-.022.049a15.42,15.42,0,0,0-.923,2.679h.878v.836Zm-1.408-.695,1.417.191.114-.011.065-.286a16.011,16.011,0,0,1,1-3.031V-18.6l-.326-.039H16.346l-1.092,2.962Z" transform="translate(118.857 535.029)" fill="#fffe76"/><path d="M2.785-19.249l1.662.225v.562L3.279-15.3H1.909l-.562-.067v-.359a15.673,15.673,0,0,0,1.011-3.032H1.415v-.359Zm3.594,0,1.662.225v.562L6.873-15.3H5.5l-.562-.067v-.359a15.673,15.673,0,0,0,1.011-3.032H5.009v-.359Z" transform="translate(260.134 535.029)" fill="#ffff76"/><path d="M2.79-19.5l1.908.258v.825L3.454-15.046l-1.574,0L1.1-15.141v-.635l.022-.049A15.419,15.419,0,0,0,2.043-18.5H1.165v-.836Zm1.408.695L2.781-19l-.114.011L2.6-18.7a16.011,16.011,0,0,1-1,3.031v.084l.326.039H3.105L4.2-18.508ZM6.383-19.5l1.908.258v.825L7.047-15.046l-1.574,0-.782-.094v-.635l.022-.049A15.42,15.42,0,0,0,5.636-18.5H4.759v-.836Zm1.408.695L6.374-19l-.114.011L6.2-18.7a16.011,16.011,0,0,1-1,3.031v.084l.326.039H6.7l1.092-2.962Z" transform="translate(260.134 535.029)" fill="#fffe76"/></g></svg>