<svg xmlns="http://www.w3.org/2000/svg" width="405.223" height="229.56" viewBox="0 0 405.223 229.56"><g transform="translate(-757 -616.578)"><path d="M89.81,29.089H92.2V10.8h11.125V8.429H92.2V5.25H89.81V8.429H79.47V10.8H89.81Z" transform="translate(837.742 621.345)" fill="#fff"/><path d="M51.954,12.507V5.25H49.58V29.089h2.374V15.13l12.867,6.013h5.821V18.749H65.358Z" transform="translate(807.332 621.345)" fill="#fff"/><path d="M0,0H22.25V2.394H0Z" transform="translate(886.236 673.063)" fill="#fff"/><path d="M0,0H21.465V2.394H0Z" transform="translate(948.963 663.039)" fill="#fff"/><path d="M94.84,30.054h13.5v4.481l-3.523,5.055H95.625v2.394h10.417l4.691-6.683V30.054h7.946V27.66H94.84Z" transform="translate(853.359 645.649)" fill="#fff"/><path d="M0,0H11.987V2.394H0Z" transform="translate(948.72 628.988)" fill="#fff"/><path d="M85.486,10.581,83.15,10.16,81.158,21.419H78.65v2.374h4.5Z" transform="translate(836.551 627.009)" fill="#fff"/><path d="M194.442,31.942V28.591h3.983V26.217h-3.983V21.43h-2.374v4.787h-3.983v2.374h3.983v1.494L187.53,40.961l2.2.919,2.336-5.591V49.271h2.374V35.485l2.872,3.121L199.076,37Z" transform="translate(947.708 639.95)" fill="#fff"/><path d="M91.535,10.16l-2.355.421,2.336,13.212h4.519V21.419H93.527Z" transform="translate(847.203 627.009)" fill="#fff"/><path d="M63.911,27.213l1.953,1.36,5.783-8.253V11.607H83.576V26.7H77.621v2.394H85.95V9.233h-14.3V5.25H69.272V9.233H63.7v2.374h5.572v7.966Z" transform="translate(821.689 621.345)" fill="#fff"/><path d="M117.875,20.224V5.25h-2.394V19.458l-5.074,7.257H94.84v2.394h16.812Z" transform="translate(853.338 621.345)" fill="#fff"/><path d="M0,0H11.987V2.394H0Z" transform="translate(1012.207 664.709)" fill="#fff"/><path d="M147.032,36.888l-5.074,7.257H126.39v2.394H143.2l6.223-8.885V22.68h-2.393Z" transform="translate(885.389 641.093)" fill="#fff"/><path d="M0,0H2.393V17.655H0Z" transform="translate(1091.131 674.407) rotate(-32.56)" fill="#fff"/><path d="M113.642,33.921h-2.2v2.394h2.853l7.276-4.213V45.084h2.394V30.723l5.476-3.159H132.1V25.17h-3.293Z" transform="translate(870.128 643.371)" fill="#fff"/><path d="M47.51,25.474H69.76v6.759L58,39.031l-4.155-7.2H49.884v2.394h2.585L60.09,47.418l2.068-1.187L59.19,41.08l12.963-7.468V23.1H47.51Z" transform="translate(805.278 641.477)" fill="#fff"/><path d="M0,0H2.394V2.394H0Z" transform="translate(909.263 625.006)" fill="#fff"/><path d="M0,0H2.394V2.394H0Z" transform="translate(905.081 625.006)" fill="#fff"/><path d="M0,0H2.394V2.394H0Z" transform="translate(874.201 627.38)" fill="#fff"/><path d="M0,0H2.394V2.394H0Z" transform="translate(870.019 627.38)" fill="#fff"/><path d="M90.27,8.768h4.768V4H90.27Zm1.589-3.179h1.589V7.179H91.859Z" transform="translate(848.258 620.201)" fill="#fff"/><path d="M86.271,23.018l-2.279-.708L80.507,33.358H78.65v2.394h3.619l1.991-6.357H98.507v9.172l-4.136,5.917H82.614v2.374h13l5.285-7.525V29.395h3.159V27H85.007Z" transform="translate(836.943 640.754)" fill="#fff"/><path d="M182.913,28.226H171V21.85h-2.394v6.376H156.68V30.6h10.953L156.871,47.432l2.011,1.283L170.447,30.6h12.465Z" transform="translate(916.3 640.334)" fill="#fff"/><path d="M208.747,23.843h-6.376V21.43H200v2.413H193.62v2.374h15.127Z" transform="translate(953.279 638.317)" fill="#fff"/><path d="M144.47,29.457h-3.14v2.394H145.7l4.461-6.376h12.638V35.546l-5.744,8.215H145.294v2.374h13l6.874-9.823V23.1H148.913Z" transform="translate(900.598 641.477)" fill="#fff"/><path d="M0,0H2.394V2.394H0Z" transform="translate(1066.157 659.697)" fill="#fff"/><path d="M0,0H2.394V2.394H0Z" transform="translate(1061.996 659.697)" fill="#fff"/><path d="M196.29,22.293l-2.3-.613-1.168,4.308h-5.936L185.72,21.68l-2.3.613,1,3.7h-5.151l-1.149-4.308-2.317.613,1,3.7H172.47V31.56h2.374v-3.2h22.231v3.2h2.393V25.988h-4.174Z" transform="translate(933.931 638.739)" fill="#fff"/><path d="M0,0H8.77V2.394H0Z" transform="matrix(0.388, -0.922, 0.922, 0.388, 1146.327, 673.504)" fill="#fff"/><path d="M0,0H2.394V8.77H0Z" transform="matrix(0.922, -0.388, 0.388, 0.922, 1156.615, 666.35)" fill="#fff"/><path d="M206.258,29.3l-1.876-1.474-3.2,4.079-3.179-4.079L196.129,29.3l3.542,4.557-6.261,8,1.9,1.474,5.878-7.544,5.9,7.544,1.9-1.474-6.281-8Z" transform="translate(953.087 645.804)" fill="#fff"/><path d="M187.539,32.987l6.4-3.7V26.84H177.219v2.374H189.3l-4.136,2.394v2.374h-12.7v2.394h12.7v5.553h-5.534v2.394h7.908V36.376h11.929V33.982H187.539Z" transform="translate(933.931 644.898)" fill="#fff"/><path d="M41.912,9.42V53.154a8.349,8.349,0,0,1-12.523,7.161L10.624,49.478a8.349,8.349,0,0,1,0-14.457l15.7-9.057V18.477L7.407,29.487a14.8,14.8,0,0,0,0,25.639L26.172,66.06A14.8,14.8,0,0,0,48.364,53.25v-40.1Z" transform="translate(756.996 628.963)" fill="#fff"/><path d="M57.192,12.831,38.426,1.993A14.821,14.821,0,0,0,16.215,14.784L15.87,54.612,22.3,58.327,22.687,14.8a8.329,8.329,0,0,1,12.58-7.161L54.032,18.48a8.349,8.349,0,0,1,0,14.457L38.139,42.109v7.449L57.287,38.566a14.8,14.8,0,0,0,0-25.639Z" transform="translate(771.51 616.56)" fill="#fff"/><path d="M6.156-14.04h10.53V1.3h-1.3v-14.13H7.4V1.422H6.156Zm2,3.834h6.624v1.044H8.154ZM6.84-.864h9.252V.36H6.84Zm4.032-11.394h1.1v5.706h-1.1ZM9.936-6.174v2.808h3.042V-6.174ZM8.892-7.182h5.166v4.824H8.892ZM4.284-15.03l1.242.36a28.954,28.954,0,0,1-1.233,3.033A28.231,28.231,0,0,1,2.754-8.8,17.891,17.891,0,0,1,1.026-6.444L.837-6.867Q.72-7.128.576-7.4a3.066,3.066,0,0,0-.27-.432A14.554,14.554,0,0,0,1.854-9.873a22.238,22.238,0,0,0,1.359-2.484A24.585,24.585,0,0,0,4.284-15.03ZM2.772-10.638,4.05-11.9l.018.018V1.458h-1.3Zm25.9-2.322h1.314v9.99H28.674Zm4.41-1.818h1.35V-.36A2.232,2.232,0,0,1,34.245.684a1.206,1.206,0,0,1-.621.522,4.535,4.535,0,0,1-1.233.207q-.783.045-2.025.045a3.172,3.172,0,0,0-.126-.432l-.18-.5a2.432,2.432,0,0,0-.2-.432q.954.018,1.728.027T32.616.108a.592.592,0,0,0,.36-.117.463.463,0,0,0,.108-.351ZM22.014-6.444h4.248v1.206H22.014Zm3.69,0h1.26l-.009.1q-.009.1-.009.234v.225q-.09,2.268-.207,3.645a17.872,17.872,0,0,1-.27,2.088,2.288,2.288,0,0,1-.405,1,1.072,1.072,0,0,1-.495.387,2.792,2.792,0,0,1-.675.135q-.342.036-.945.036T22.68,1.368a2.934,2.934,0,0,0-.117-.612A2.249,2.249,0,0,0,22.3.162q.684.072,1.251.081t.8.009a2.129,2.129,0,0,0,.378-.027.41.41,0,0,0,.252-.171,1.792,1.792,0,0,0,.306-.846,19.327,19.327,0,0,0,.225-1.971q.1-1.3.189-3.465Zm-4.752-6.642v3.474h4.59v-3.474ZM19.71-14.292h7.128v5.9H19.71Zm1.98,5.436h1.332q-.072,1.422-.243,2.889a20.711,20.711,0,0,1-.531,2.844A10.878,10.878,0,0,1,21.231-.567a7.282,7.282,0,0,1-1.683,2.043,3.472,3.472,0,0,0-.441-.5,3.1,3.1,0,0,0-.513-.414,6.214,6.214,0,0,0,1.557-1.872,9.933,9.933,0,0,0,.9-2.349,18.569,18.569,0,0,0,.45-2.592Q21.636-7.578,21.69-8.856ZM44.208-12.15q.738.108,1.719.171t2.034.054q1.053-.009,2.016-.072t1.629-.171v1.458q-.72.072-1.683.117t-2,.045q-1.035,0-2.007-.045t-1.71-.117Zm.7,7.326q-.126.486-.2.882a4.322,4.322,0,0,0-.072.774,1.444,1.444,0,0,0,.135.6,1.278,1.278,0,0,0,.468.522,2.764,2.764,0,0,0,.927.36,7,7,0,0,0,1.512.135,21.43,21.43,0,0,0,2.3-.117,20.747,20.747,0,0,0,2.16-.351L52.182-.5a16.549,16.549,0,0,1-1.971.279q-1.125.1-2.529.1a5.994,5.994,0,0,1-3.321-.72,2.273,2.273,0,0,1-1.053-1.98,6.192,6.192,0,0,1,.081-.963q.081-.513.225-1.161Zm-4.14-8.712q-.036.144-.1.369l-.126.45q-.063.225-.1.387-.09.5-.216,1.161t-.243,1.4q-.117.747-.216,1.512t-.162,1.485q-.063.72-.063,1.332,0,.666.045,1.26t.117,1.26q.162-.414.342-.882t.369-.927q.189-.459.333-.819l.756.576q-.234.648-.5,1.422t-.477,1.485q-.207.711-.3,1.125-.036.2-.072.432a1.427,1.427,0,0,0-.018.378q.018.144.027.315T40.194.5l-1.3.09a17.856,17.856,0,0,1-.468-2.457,25.548,25.548,0,0,1-.2-3.321q0-.99.09-2.025t.234-2.016q.144-.981.279-1.8t.207-1.377q.054-.324.09-.657a5.8,5.8,0,0,0,.036-.621Zm22.05,2.754h8.442v1.3H62.82ZM54.99-12.15h8.388v1.278H54.99Zm12.78-2.97H69.1V-.4a2.286,2.286,0,0,1-.18,1.017,1.154,1.154,0,0,1-.594.531,3.3,3.3,0,0,1-1.125.225q-.729.045-1.863.045-.036-.2-.108-.45T65.07.459Q64.98.2,64.89,0q.846.036,1.53.036h.918a.558.558,0,0,0,.333-.108.427.427,0,0,0,.1-.324ZM63.036-7.092l1.1-.5q.432.612.846,1.332t.729,1.413a8.063,8.063,0,0,1,.459,1.233l-1.188.594a9.169,9.169,0,0,0-.441-1.26q-.3-.7-.684-1.44A13.515,13.515,0,0,0,63.036-7.092ZM55.566-8.3l.954-.774q.828.864,1.674,1.854t1.629,2q.783,1.008,1.413,1.953a17.623,17.623,0,0,1,1.026,1.719l-1.08.936a15.852,15.852,0,0,0-.99-1.773q-.612-.963-1.377-1.989t-1.6-2.043Q56.376-7.434,55.566-8.3Zm2.88-6.8h1.3v3.708h-1.3ZM60.5-10.458l1.314.18A27.245,27.245,0,0,1,60.57-5.391a14.93,14.93,0,0,1-2.034,3.834A12.133,12.133,0,0,1,55.512,1.3,3.447,3.447,0,0,0,55.26.954q-.162-.2-.351-.387T54.576.252a10.508,10.508,0,0,0,2.9-2.6,13.421,13.421,0,0,0,1.908-3.573A23.668,23.668,0,0,0,60.5-10.458ZM79.6-7.884H80.91v7a.8.8,0,0,0,.162.6,1.164,1.164,0,0,0,.684.135h2.376a.672.672,0,0,0,.558-.225,1.878,1.878,0,0,0,.252-.9q.072-.675.108-1.989.162.108.378.225a3.2,3.2,0,0,0,.441.2q.225.081.4.135A15.87,15.87,0,0,1,86-.387,1.975,1.975,0,0,1,85.41.765a1.823,1.823,0,0,1-1.17.333H81.594A3.291,3.291,0,0,1,80.37.918a1.063,1.063,0,0,1-.6-.612A3.321,3.321,0,0,1,79.6-.882ZM77.13-6.336l1.224.288q-.108.972-.315,2.034a16.69,16.69,0,0,1-.531,2.043,7.847,7.847,0,0,1-.774,1.7L75.528-.828a7.808,7.808,0,0,0,.774-1.62,13.732,13.732,0,0,0,.522-1.926Q77.022-5.382,77.13-6.336Zm2.736-3.672.918-.882q.72.342,1.521.81t1.521.945a9.491,9.491,0,0,1,1.188.909l-.99.99A10.286,10.286,0,0,0,82.9-8.145q-.693-.495-1.494-.99T79.866-10.008Zm5.742,3.78,1.206-.486q.594.918,1.143,1.98t.954,2.079a10.685,10.685,0,0,1,.567,1.827L88.146-.27a9.56,9.56,0,0,0-.513-1.845q-.387-1.035-.909-2.115A18.469,18.469,0,0,0,85.608-6.228Zm-4.77-8.892h1.386v3.078H80.838Zm-6.012,2.34H89.118V-11.5H74.826Zm-.648,0H75.51v4.662q0,1.026-.063,2.259t-.252,2.52a19.588,19.588,0,0,1-.54,2.52,10.428,10.428,0,0,1-.927,2.259,2.391,2.391,0,0,0-.333-.261q-.225-.153-.441-.288a2.543,2.543,0,0,0-.4-.207,9.442,9.442,0,0,0,.882-2.1,15.538,15.538,0,0,0,.477-2.3q.153-1.179.207-2.313t.054-2.088ZM99-8.748a1.893,1.893,0,0,1,.972.252,1.87,1.87,0,0,1,.684.684,1.893,1.893,0,0,1,.252.972,1.907,1.907,0,0,1-.252.963,1.85,1.85,0,0,1-.684.693A1.893,1.893,0,0,1,99-4.932a1.907,1.907,0,0,1-.963-.252,1.83,1.83,0,0,1-.693-.693,1.907,1.907,0,0,1-.252-.963,1.893,1.893,0,0,1,.252-.972,1.85,1.85,0,0,1,.693-.684A1.907,1.907,0,0,1,99-8.748Zm25.758-3.42q-.108.126-.243.306t-.243.342a13.619,13.619,0,0,1-1.017,1.5A21.4,21.4,0,0,1,121.7-8.2a12.7,12.7,0,0,1-1.908,1.647L118.6-7.506a8.138,8.138,0,0,0,1.233-.873,13.825,13.825,0,0,0,1.134-1.08,12.481,12.481,0,0,0,.936-1.116,9.774,9.774,0,0,0,.639-.963h-10.26q-.5,0-1.008.027t-1.044.081v-1.638q.468.072,1.008.117t1.044.045h10.332q.18,0,.423-.009a4.143,4.143,0,0,0,.477-.045l.36-.054Zm-7.182,2.376q0,1.458-.09,2.736a14.515,14.515,0,0,1-.36,2.394,7.666,7.666,0,0,1-.819,2.061A7.264,7.264,0,0,1,114.84-.837a10.409,10.409,0,0,1-2.286,1.5l-1.332-1.08a7.044,7.044,0,0,0,.81-.333,5.419,5.419,0,0,0,.81-.477,6.111,6.111,0,0,0,1.692-1.422,5.683,5.683,0,0,0,.945-1.719,9.342,9.342,0,0,0,.432-1.962,19.15,19.15,0,0,0,.117-2.151q0-.342-.009-.648a5.627,5.627,0,0,0-.063-.666Zm20.232-3.168q.234.324.54.8t.6.981a10.389,10.389,0,0,1,.495.936l-1.026.468q-.216-.468-.477-.945t-.54-.936a9.281,9.281,0,0,0-.585-.855Zm2.178-.9q.234.306.549.774t.621.972q.306.5.522.918l-1.008.5q-.234-.468-.5-.936t-.567-.918q-.3-.45-.6-.846Zm-8.5,12.51V-11.826q0-.378-.027-.918a5.917,5.917,0,0,0-.117-.954h1.782q-.054.414-.09.945t-.036.927V-1.35q0,.27.009.666t.045.783q.036.387.054.675h-1.728q.054-.432.081-1.026T131.49-1.35Zm1.188-7.632q.882.27,1.962.639t2.187.783q1.107.414,2.106.837t1.755.8l-.63,1.53q-.774-.414-1.737-.846t-1.989-.846q-1.026-.414-1.971-.738t-1.683-.558Zm25.092-5.04a8.854,8.854,0,0,1,.5.747q.27.441.531.891t.441.828l-.972.432q-.27-.558-.684-1.269t-.774-1.233Zm1.98-.72a8.958,8.958,0,0,1,.531.774q.279.45.549.891a8.5,8.5,0,0,1,.432.783l-.972.432q-.288-.594-.693-1.287a10.6,10.6,0,0,0-.8-1.2ZM147.924-5.418q.288-.7.567-1.53t.522-1.719q.243-.891.423-1.764a14.98,14.98,0,0,0,.252-1.665l1.6.342a3.379,3.379,0,0,1-.108.423q-.072.225-.126.459t-.09.432q-.09.414-.252,1.08T150.336-7.9q-.216.792-.468,1.593t-.54,1.485q-.324.828-.747,1.7t-.909,1.7q-.486.828-.99,1.548l-1.53-.648a21.26,21.26,0,0,0,1.575-2.457A25.73,25.73,0,0,0,147.924-5.418ZM156.78-6.1q-.27-.7-.594-1.476T155.5-9.135q-.36-.783-.693-1.476a11.952,11.952,0,0,0-.639-1.179l1.458-.486q.27.468.6,1.152t.693,1.458q.36.774.7,1.566t.63,1.512q.27.666.576,1.485t.6,1.656q.3.837.549,1.62t.432,1.395l-1.6.522q-.216-.918-.549-1.989t-.711-2.16Q157.176-5.148,156.78-6.1Zm6.768-.4a29.462,29.462,0,0,0,4.356-1.53,28.594,28.594,0,0,0,3.51-1.836q.936-.594,1.827-1.287a21.963,21.963,0,0,0,1.683-1.449,17.681,17.681,0,0,0,1.4-1.494l1.206,1.116q-.756.81-1.638,1.584t-1.863,1.485q-.981.711-2.043,1.377-.99.594-2.232,1.224T167.112-6.12q-1.4.558-2.844,1.026Zm7.578-2.61,1.548-.468v8.208q0,.342.009.72t.036.7a4.725,4.725,0,0,0,.063.5h-1.764q.018-.18.045-.5t.045-.7q.018-.378.018-.72Zm22.734-2.934a2.422,2.422,0,0,0-.225.351q-.135.243-.225.441a19.692,19.692,0,0,1-.9,1.953q-.558,1.071-1.242,2.115a15.939,15.939,0,0,1-1.44,1.89,25.639,25.639,0,0,1-2.178,2.169,26.481,26.481,0,0,1-2.5,1.962A17.715,17.715,0,0,1,182.412.4L181.26-.81a16.416,16.416,0,0,0,2.8-1.431,21.768,21.768,0,0,0,2.52-1.872,22.728,22.728,0,0,0,2.1-2.043,17.725,17.725,0,0,0,1.215-1.575,17.191,17.191,0,0,0,1.08-1.782,9.135,9.135,0,0,0,.693-1.647h-7.02q-.306,0-.693.018t-.7.036q-.315.018-.423.036v-1.638q.126.018.459.045t.711.045q.378.018.648.018h6.948a7.93,7.93,0,0,0,.8-.036,2.382,2.382,0,0,0,.549-.108Zm-3.8,5.8q.738.612,1.521,1.35t1.539,1.521q.756.783,1.4,1.494t1.116,1.287l-1.26,1.08q-.63-.864-1.512-1.863t-1.863-2q-.981-1-1.971-1.845Zm16.83-6.516q-.09-.288-.207-.666t-.243-.738l1.53-.2q.09.522.252,1.179t.378,1.332q.216.675.432,1.251a16.264,16.264,0,0,0,1.044,2.331,19.957,19.957,0,0,0,1.188,1.953q.2.252.4.486l.4.468-.738,1.008q-.324-.072-.855-.144t-1.152-.135q-.621-.063-1.233-.117t-1.1-.09l.108-1.206q.5.036,1.071.09t1.08.1q.513.045.837.081-.378-.576-.81-1.323t-.837-1.584q-.405-.837-.711-1.647-.288-.792-.486-1.4T206.892-12.762Zm-6.588,1.4q1.512.18,2.925.252t2.682.036q1.269-.036,2.295-.144.72-.09,1.521-.216t1.593-.324q.792-.2,1.494-.414l.162,1.4a12.327,12.327,0,0,1-1.386.342q-.756.144-1.512.27t-1.422.2a36.161,36.161,0,0,1-3.825.216q-2.115.018-4.491-.18Zm2.772,5.742a7.33,7.33,0,0,0-.621,1.251,3.55,3.55,0,0,0-.225,1.251,1.978,1.978,0,0,0,1.116,1.872,6.847,6.847,0,0,0,3.114.612,21.163,21.163,0,0,0,2.547-.108,18.024,18.024,0,0,0,2.1-.342L211.032.36q-.828.144-1.98.27a24.8,24.8,0,0,1-2.664.126,9.788,9.788,0,0,1-2.961-.432,4.141,4.141,0,0,1-1.935-1.233,3.079,3.079,0,0,1-.684-2.043,4.613,4.613,0,0,1,.243-1.467,13.338,13.338,0,0,1,.621-1.521Zm25.7-8.262q-.018.144-.036.378t-.027.477q-.009.243-.027.441,0,.558-.009,1.152t-.018,1.143q-.009.549-.027,1.017-.018.684-.045,1.5t-.072,1.557A7.586,7.586,0,0,1,228.366-5a1.25,1.25,0,0,1-.441.81,1.68,1.68,0,0,1-.945.216q-.324,0-.792-.045t-.9-.1q-.432-.054-.684-.108l.036-1.242a9.527,9.527,0,0,0,.981.171,7.075,7.075,0,0,0,.819.063,1.021,1.021,0,0,0,.5-.09.5.5,0,0,0,.189-.4,7.287,7.287,0,0,0,.108-.945q.036-.585.063-1.278t.045-1.323v-3.258q0-.2-.009-.45t-.027-.495a2.9,2.9,0,0,0-.054-.405Zm-7.128.558q-.036.324-.054.684t-.018.774q0,.576-.009,1.467t-.018,1.89q-.009,1-.009,1.953v1.71q0,.756.018,1.134.036.72.1,1.224a1.4,1.4,0,0,0,.351.81,1.8,1.8,0,0,0,.936.45,8.849,8.849,0,0,0,1.818.144q.972,0,1.98-.063t1.9-.162q.891-.1,1.467-.207l-.054,1.53q-.594.054-1.476.126t-1.854.117q-.972.045-1.89.045a12.308,12.308,0,0,1-2.484-.2,2.748,2.748,0,0,1-1.368-.639,2.239,2.239,0,0,1-.6-1.179,10.844,10.844,0,0,1-.189-1.8q0-.378-.009-1.071t-.009-1.566V-7.92q0-.9.009-1.71t.009-1.386v-.774q0-.414-.027-.765t-.081-.765ZM216.27-9q.432,0,.909-.036l.963-.072q.594-.054,1.692-.162t2.493-.234l2.889-.261q1.494-.135,2.907-.252t2.529-.171q.342-.036.711-.054l.693-.036v1.4a2.52,2.52,0,0,0-.387-.009q-.243.009-.522.009h-.513q-.72.018-1.746.081t-2.223.162q-1.2.1-2.439.216t-2.394.243l-2.079.225q-.927.1-1.5.171l-.6.081-.657.09q-.324.045-.558.081Zm18.72-2.952q.522-.018.936-.045l.666-.045q.432-.054,1.251-.135t1.881-.18q1.062-.1,2.286-.207l2.466-.216q.99-.09,1.872-.153t1.638-.108q.756-.045,1.35-.063v1.44q-.5-.018-1.152,0t-1.278.081a5.685,5.685,0,0,0-1.1.207,5.243,5.243,0,0,0-1.719.927,6.515,6.515,0,0,0-1.3,1.422,6.558,6.558,0,0,0-.819,1.674,5.469,5.469,0,0,0-.279,1.665,4.382,4.382,0,0,0,.36,1.845,3.871,3.871,0,0,0,.981,1.323,5.352,5.352,0,0,0,1.422.882,7.911,7.911,0,0,0,1.683.5,12.6,12.6,0,0,0,1.764.2L247.374.558a10.221,10.221,0,0,1-2.007-.279,8.975,8.975,0,0,1-1.935-.7,6.483,6.483,0,0,1-1.638-1.161,5.205,5.205,0,0,1-1.134-1.638,5.247,5.247,0,0,1-.414-2.142,6.739,6.739,0,0,1,.5-2.6,7.7,7.7,0,0,1,1.269-2.1,6.465,6.465,0,0,1,1.6-1.386q-.576.072-1.422.162t-1.827.189q-.981.1-1.953.225t-1.827.243q-.855.117-1.431.243Zm20.484-.612q-.036.216-.063.54l-.054.648q-.027.324-.027.558-.018.558-.009,1.269t.036,1.476q.027.765.1,1.521a13.523,13.523,0,0,0,.486,2.619,5.376,5.376,0,0,0,.837,1.755,1.421,1.421,0,0,0,1.125.63.959.959,0,0,0,.666-.315,3.679,3.679,0,0,0,.621-.846,8.41,8.41,0,0,0,.54-1.188,11.965,11.965,0,0,0,.4-1.323l1.134,1.278a12.915,12.915,0,0,1-1.089,2.421,4.288,4.288,0,0,1-1.116,1.287,2.031,2.031,0,0,1-1.179.4,2.627,2.627,0,0,1-1.638-.621,4.862,4.862,0,0,1-1.368-2.016,13.9,13.9,0,0,1-.828-3.717q-.09-.792-.135-1.71t-.054-1.746q-.009-.828-.009-1.35,0-.306-.018-.792a3.58,3.58,0,0,0-.108-.81Zm9.378.5a9.668,9.668,0,0,1,.927,1.431,16.731,16.731,0,0,1,.81,1.746q.369.927.666,1.917a20.076,20.076,0,0,1,.486,1.971q.189.981.279,1.881l-1.44.594a20.729,20.729,0,0,0-.378-2.493,23.246,23.246,0,0,0-.666-2.466,17.762,17.762,0,0,0-.918-2.259,9.1,9.1,0,0,0-1.17-1.836Zm12.582-2.106q-.09.306-.18.738t-.144.7q-.126.648-.3,1.5t-.378,1.791q-.207.936-.459,1.836-.234.954-.576,2.079t-.72,2.259q-.378,1.134-.774,2.142T273.168.648l-1.584-.54a15.153,15.153,0,0,0,.837-1.683q.423-.981.828-2.1t.756-2.223q.351-1.107.6-2.043.18-.63.342-1.332t.306-1.377q.144-.675.243-1.242t.153-.927q.054-.378.072-.792a4.282,4.282,0,0,0-.018-.7Zm-4,3.006q1.008,0,2.169-.1t2.367-.3q1.206-.2,2.322-.486v1.422q-1.116.252-2.34.432t-2.4.279q-1.179.1-2.133.1-.594,0-1.1-.027t-.99-.045l-.054-1.4q.648.072,1.161.1T273.438-11.16Zm5.688,2.484q.72-.072,1.575-.117t1.719-.045q.792,0,1.593.036t1.521.126L285.5-7.308q-.684-.09-1.458-.153t-1.566-.063q-.846,0-1.683.045t-1.665.135ZM279.5-4.3q-.108.432-.18.846a4.532,4.532,0,0,0-.072.774,1.679,1.679,0,0,0,.117.621,1.215,1.215,0,0,0,.441.531,2.647,2.647,0,0,0,.927.378,6.9,6.9,0,0,0,1.557.144q.882,0,1.782-.09a15.3,15.3,0,0,0,1.728-.27L285.75.09q-.72.108-1.6.18t-1.872.072a6.58,6.58,0,0,1-3.258-.657A2.151,2.151,0,0,1,277.884-2.3a6.8,6.8,0,0,1,.081-1.044q.081-.522.189-1.08Zm15.39-9.594q-.09.288-.18.72t-.144.7q-.126.648-.3,1.5t-.378,1.791q-.207.936-.459,1.836-.234.954-.576,2.079t-.72,2.259q-.378,1.134-.774,2.142T290.628.9L289.044.36a15.5,15.5,0,0,0,.837-1.674q.423-.972.828-2.088t.756-2.223q.351-1.107.6-2.061.162-.63.324-1.332t.315-1.377q.153-.675.252-1.242t.153-.927q.054-.378.072-.792a4.014,4.014,0,0,0-.018-.684Zm-4,2.988q1.008,0,2.169-.1t2.367-.3q1.206-.2,2.322-.468v1.4q-1.116.252-2.34.432t-2.4.279q-1.179.1-2.133.1-.594,0-1.1-.027t-.99-.045l-.054-1.4q.648.072,1.161.1T290.9-10.908Zm5.688,2.484q.72-.072,1.575-.117t1.719-.045q.792,0,1.593.036t1.521.126l-.036,1.368q-.684-.09-1.458-.153t-1.566-.063q-.864,0-1.692.045t-1.656.153Zm.378,4.374q-.108.45-.18.855a4.379,4.379,0,0,0-.072.765,1.68,1.68,0,0,0,.117.621,1.215,1.215,0,0,0,.441.531A2.647,2.647,0,0,0,298.2-.9a6.9,6.9,0,0,0,1.557.144q.864,0,1.773-.09a15.247,15.247,0,0,0,1.737-.27L303.21.342q-.72.108-1.6.189t-1.872.081a6.506,6.506,0,0,1-3.258-.666,2.171,2.171,0,0,1-1.134-2,7.437,7.437,0,0,1,.072-1.035q.072-.513.2-1.089Zm4.086-9.306a8.223,8.223,0,0,1,.5.756q.27.45.531.9t.441.828l-.972.432a7.78,7.78,0,0,0-.423-.828l-.522-.9a6.922,6.922,0,0,0-.513-.774Zm1.98-.738q.252.342.54.792t.549.9q.261.45.441.792l-.972.432q-.288-.612-.7-1.305a13.83,13.83,0,0,0-.792-1.2Zm5.652,1.764q1.89.216,3.609.252a28.062,28.062,0,0,0,3.105-.09,20.924,20.924,0,0,0,2.187-.333,21.044,21.044,0,0,0,2.061-.531l.2,1.3q-.882.252-1.971.468t-2.169.324q-1.368.126-3.177.117t-3.753-.189Zm-.342,3.69q1.53.162,3.024.207t2.826-.009q1.332-.054,2.376-.18A22.616,22.616,0,0,0,318.924-9q1.062-.234,1.782-.468l.216,1.35q-.738.2-1.728.387T317.07-7.4q-1.116.126-2.538.189t-3,.036q-1.575-.027-3.123-.117Zm6.156-3.924q-.108-.414-.243-.819l-.261-.783,1.53-.2a13.511,13.511,0,0,0,.288,1.575q.2.819.432,1.6t.45,1.413q.252.7.594,1.494t.756,1.566q.414.774.882,1.476a4.685,4.685,0,0,0,.315.387l.351.387-.738,1.1a9.138,9.138,0,0,0-1.188-.243q-.684-.1-1.4-.18l-1.35-.153.126-1.1q.72.072,1.494.162t1.206.144a18.912,18.912,0,0,1-1.323-2.412q-.567-1.242-.963-2.34-.216-.612-.387-1.143t-.306-1.017Q314.622-12.132,314.5-12.564ZM310.95-4.77a5.851,5.851,0,0,0-.54.954,2.63,2.63,0,0,0-.216,1.08,1.8,1.8,0,0,0,1.017,1.674,6.78,6.78,0,0,0,3.141.558q1.26,0,2.286-.09a17.791,17.791,0,0,0,2-.288l-.054,1.44q-.936.144-2,.225T314.37.864a10.811,10.811,0,0,1-3-.36,3.817,3.817,0,0,1-1.872-1.1,2.855,2.855,0,0,1-.657-1.89,3.945,3.945,0,0,1,.189-1.377,8.979,8.979,0,0,1,.513-1.2Zm22.824-9.522q-.036.234-.063.522t-.045.684q0,.27-.009.81t-.009,1.215v2.619q0,.9.036,1.89t.09,1.926q.054.936.09,1.71t.036,1.224a2.6,2.6,0,0,1-.3,1.206,2.26,2.26,0,0,1-.99.945,4.028,4.028,0,0,1-1.881.369,5.413,5.413,0,0,1-2.97-.675,2.212,2.212,0,0,1-1.026-1.971,2.22,2.22,0,0,1,.495-1.44,3.26,3.26,0,0,1,1.431-.963,6.362,6.362,0,0,1,2.232-.351,10.357,10.357,0,0,1,2.673.333,12.9,12.9,0,0,1,2.3.837,14.686,14.686,0,0,1,1.854,1.053q.81.549,1.332.981L338.22-.09a13.907,13.907,0,0,0-1.413-1.152A13.781,13.781,0,0,0,335.061-2.3a10.438,10.438,0,0,0-2.034-.783,8.756,8.756,0,0,0-2.313-.3,3.681,3.681,0,0,0-1.971.432,1.25,1.25,0,0,0-.675,1.062,1.182,1.182,0,0,0,.252.729,1.692,1.692,0,0,0,.81.531,4.382,4.382,0,0,0,1.44.2,3.187,3.187,0,0,0,.954-.135,1.356,1.356,0,0,0,.693-.477A1.541,1.541,0,0,0,332.478-2q0-.522-.027-1.359t-.063-1.782q-.036-.945-.063-1.827T332.3-8.442v-2.52q0-.63.009-1.206t.009-1.044q0-.216-.018-.558a3.891,3.891,0,0,0-.054-.522ZM326.88-12.33q.45.072,1.044.144t1.251.135q.657.063,1.26.09t1.053.027q1.71,0,3.5-.126t3.537-.414l-.018,1.314q-.99.108-2.16.216t-2.4.18q-1.233.072-2.439.072-.63,0-1.494-.054t-1.7-.126q-.837-.072-1.413-.126Zm-.09,3.816q.486.072,1.08.144t1.224.108q.63.036,1.206.063t1.026.027q1.314,0,2.547-.063t2.43-.18q1.2-.117,2.367-.3l-.018,1.35q-.9.126-1.791.207t-1.782.135q-.891.054-1.818.081t-1.953.027q-.612,0-1.413-.036t-1.62-.09q-.819-.054-1.467-.126Zm25.956-5.742q0,.09-.027.324t-.036.459q-.009.225-.027.351-.018.342-.018.936v1.3q0,.7.009,1.422t.018,1.35q.009.63.009,1.062l-1.386-.684V-9.693q0-.675-.009-1.341t-.027-1.224q-.018-.558-.036-.864-.018-.36-.054-.693t-.054-.441Zm-9.558,2.5q.738,0,1.674-.027t1.989-.063q1.053-.036,2.133-.054l2.079-.036q1-.018,1.845-.018h3.141q.711,0,1.26.009t.873.009l-.018,1.332q-.756-.036-2.025-.063t-3.249-.027q-1.17,0-2.439.027T347.9-10.6q-1.278.036-2.475.1t-2.2.135Zm9.45,5.238a5.027,5.027,0,0,1-.351,2,2.6,2.6,0,0,1-.972,1.206,2.636,2.636,0,0,1-1.449.4,3.225,3.225,0,0,1-1.089-.189,2.784,2.784,0,0,1-.954-.576,2.731,2.731,0,0,1-.666-.954,3.239,3.239,0,0,1-.243-1.287,2.994,2.994,0,0,1,.432-1.6,3.188,3.188,0,0,1,1.161-1.116,3.137,3.137,0,0,1,1.575-.414,3.027,3.027,0,0,1,1.755.477,3,3,0,0,1,1.053,1.3,4.586,4.586,0,0,1,.36,1.863,6.816,6.816,0,0,1-.261,1.836,5.911,5.911,0,0,1-.864,1.8,6.34,6.34,0,0,1-1.638,1.575A9.24,9.24,0,0,1,347.868.972L346.662-.216a11.487,11.487,0,0,0,2.2-.738,5.841,5.841,0,0,0,1.638-1.1,4.395,4.395,0,0,0,1.017-1.512,5.228,5.228,0,0,0,.351-1.98,2.48,2.48,0,0,0-.522-1.764,1.689,1.689,0,0,0-1.26-.54,1.82,1.82,0,0,0-.882.225,1.771,1.771,0,0,0-.675.657,1.946,1.946,0,0,0-.261,1.026,1.633,1.633,0,0,0,.549,1.314,1.922,1.922,0,0,0,1.287.468,1.485,1.485,0,0,0,.954-.315,1.752,1.752,0,0,0,.567-.954,3.966,3.966,0,0,0,.027-1.593Z" transform="translate(781 811.5)" fill="#fff"/><path d="M1.062-7.182H16.974v1.206H1.062ZM9.054-3.96H15.8v1.188H9.054ZM8.478-6.642h1.35V.18H8.478ZM4.932-3.726A5,5,0,0,0,6.453-1.494,5.414,5.414,0,0,0,8.8-.468a16.573,16.573,0,0,0,3.15.27h4.527q.567,0,.855-.018a2.41,2.41,0,0,0-.207.4,4.516,4.516,0,0,0-.171.477l-.126.423H11.9A20.255,20.255,0,0,1,9.054.9,7.832,7.832,0,0,1,6.8.252,5.059,5.059,0,0,1,5.085-1.08,7.989,7.989,0,0,1,3.816-3.312ZM4.158-5.382l1.35.18A12.572,12.572,0,0,1,4.113-1.278,8.509,8.509,0,0,1,1.656,1.458a2.587,2.587,0,0,0-.27-.306Q1.206.972,1,.792A2.254,2.254,0,0,0,.63.522,7.148,7.148,0,0,0,2.943-1.917,10.393,10.393,0,0,0,4.158-5.382Zm.09-5.544V-9.45h9.378v-1.476Zm0-2.43V-11.9h9.378v-1.458Zm-1.3-1.026H14.994v5.958H2.952Zm26.136,2h5.85v1.278h-5.85Zm0,8.172h6.156v1.278H29.088Zm-.072-4.122H34.56v1.242H29.016Zm-9.63-4.05h5.292v1.278H19.386Zm.2,4.05h5.058v1.242H19.584Zm8.8-6.7h1.35V1.44h-1.35ZM18.72-3.834q.99-.144,2.313-.351t2.808-.459l2.979-.5.054,1.206q-1.4.252-2.808.513t-2.7.5q-1.3.234-2.376.432Zm5.364-11.2H25.4v8.406a12.353,12.353,0,0,1-.18,1.98,9.115,9.115,0,0,1-.7,2.259,7.864,7.864,0,0,1-1.521,2.2,8.812,8.812,0,0,1-2.637,1.818,4.342,4.342,0,0,0-.45-.531q-.288-.3-.522-.495A8.018,8.018,0,0,0,21.447-.621a6.944,6.944,0,0,0,1.359-1.521,7.517,7.517,0,0,0,.8-1.62,8.031,8.031,0,0,0,.378-1.557,10.1,10.1,0,0,0,.1-1.3ZM40.914,1.008q-.576-.72-1.26-1.44T38.277-1.818q-.693-.666-1.341-1.188l1.17-1.026q.648.522,1.368,1.206t1.413,1.4q.693.72,1.251,1.386ZM61.4-14.382a2.852,2.852,0,0,0-.054.369q-.018.207-.036.441t-.036.432q-.018.414-.045,1.08t-.045,1.467q-.018.8-.036,1.62t-.018,1.521q0,.7.009,1.539t.036,1.656q.027.819.036,1.512t.009,1.107a3.562,3.562,0,0,1-.2,1.314,1.364,1.364,0,0,1-.549.693,1.619,1.619,0,0,1-.837.207,3.372,3.372,0,0,1-1.17-.243,5.428,5.428,0,0,1-1.233-.657,3.934,3.934,0,0,1-.963-.954,1.947,1.947,0,0,1-.378-1.134A2.514,2.514,0,0,1,56.511-4a7.1,7.1,0,0,1,1.62-1.44,10.191,10.191,0,0,1,2.115-1.08,13.7,13.7,0,0,1,2.5-.729,12.608,12.608,0,0,1,2.34-.243,5.709,5.709,0,0,1,2.331.45,3.872,3.872,0,0,1,1.6,1.251,3.1,3.1,0,0,1,.585,1.881A4,4,0,0,1,69.165-2a3.757,3.757,0,0,1-1.3,1.386,6.786,6.786,0,0,1-2.1.864,9.007,9.007,0,0,1-1.179.171L63.54.5l-.5-1.458q.5.018,1.053,0a5.948,5.948,0,0,0,1.053-.126,5.409,5.409,0,0,0,1.485-.5A3.087,3.087,0,0,0,67.743-2.5a2.277,2.277,0,0,0,.423-1.386,2.02,2.02,0,0,0-.414-1.3,2.56,2.56,0,0,0-1.116-.792,4.332,4.332,0,0,0-1.566-.27,10.672,10.672,0,0,0-2.322.252,14.926,14.926,0,0,0-2.3.72,7.84,7.84,0,0,0-1.584.8,5.033,5.033,0,0,0-1.143,1,1.607,1.607,0,0,0-.423.99A.968.968,0,0,0,57.5-1.9a2.241,2.241,0,0,0,.513.495,2.552,2.552,0,0,0,.648.333,1.878,1.878,0,0,0,.594.117.574.574,0,0,0,.477-.216,1.066,1.066,0,0,0,.171-.666q0-.522-.018-1.449T59.85-5.3q-.018-1.089-.018-2.079,0-.774.009-1.656t.018-1.71q.009-.828.018-1.458t.009-.9q0-.18-.009-.423T59.85-14a2.36,2.36,0,0,0-.054-.378Zm5.58,2q.648.342,1.44.819t1.521.963a13.961,13.961,0,0,1,1.161.846L70.362-8.6a7.161,7.161,0,0,0-.828-.693q-.5-.369-1.08-.738t-1.134-.7q-.558-.333-.99-.567Zm-10.8,1.242q.738.09,1.269.117T58.482-11q.666,0,1.494-.072t1.71-.189q.882-.117,1.719-.288t1.5-.369l.036,1.4q-.7.162-1.566.315t-1.755.261q-.891.108-1.7.18t-1.4.072q-.774,0-1.3-.018t-1-.072Zm20.16-2.07h12.33v1.17H76.338Zm.2,2.574H86.958V-9.5H76.536Zm-2.07,2.574H85.32v1.17H74.466Zm2.106-7.092,1.4.306a18.08,18.08,0,0,1-1.71,3.879,13.372,13.372,0,0,1-2.358,3,3.529,3.529,0,0,0-.351-.3q-.225-.171-.459-.333a3.492,3.492,0,0,0-.414-.252A10.635,10.635,0,0,0,75.006-11.6,15.077,15.077,0,0,0,76.572-15.156ZM81.4-6.57l1.3.432a16.194,16.194,0,0,1-2.3,3.159A20.238,20.238,0,0,1,77.463-.387a21.245,21.245,0,0,1-3.3,1.971,2.526,2.526,0,0,0-.27-.342q-.18-.2-.378-.387T73.152.54a19.2,19.2,0,0,0,3.285-1.8,17.362,17.362,0,0,0,2.835-2.412A13.923,13.923,0,0,0,81.4-6.57Zm3.42-1.494h1.368q.018,1.764.081,3.249A23.825,23.825,0,0,0,86.5-2.223a5.706,5.706,0,0,0,.5,1.728.952.952,0,0,0,.828.621q.27,0,.36-.711a17.644,17.644,0,0,0,.108-1.863q.216.216.477.441a4.957,4.957,0,0,0,.477.369,11.851,11.851,0,0,1-.2,1.8,1.894,1.894,0,0,1-.45.981,1.25,1.25,0,0,1-.864.315,1.88,1.88,0,0,1-1.53-.7,4.813,4.813,0,0,1-.873-1.971,17.794,17.794,0,0,1-.4-3.006Q84.834-5.958,84.816-8.064ZM74.9-4.968l.972-.864q1.044.558,2.151,1.251t2.16,1.449q1.053.756,1.953,1.494a13.34,13.34,0,0,1,1.494,1.4L82.566.792A14.286,14.286,0,0,0,81.117-.63q-.873-.756-1.917-1.53T77.058-3.654Q75.96-4.374,74.9-4.968Zm24.21.432h7.452v1.17H99.108Zm-1.116,4.3h9.378V.972H97.992Zm.792-13.986h6.948v1.188H98.784Zm3.366,7.344h1.332V.486H102.15Zm3.2-7.344h.252l.252-.054.846.342a11.086,11.086,0,0,1-1.818,3.663,11.506,11.506,0,0,1-2.763,2.583,14.255,14.255,0,0,1-3.339,1.638,4.1,4.1,0,0,0-.315-.576,3.1,3.1,0,0,0-.4-.522,11.46,11.46,0,0,0,2.349-.963,11.275,11.275,0,0,0,2.115-1.485,10.3,10.3,0,0,0,1.71-1.962,8.468,8.468,0,0,0,1.116-2.43Zm-4.644,1.152a10.022,10.022,0,0,0,1.575,2.592,9.724,9.724,0,0,0,2.322,2.007,10.429,10.429,0,0,0,2.961,1.251,3.731,3.731,0,0,0-.288.333q-.162.207-.306.4a2.28,2.28,0,0,0-.234.4,11.643,11.643,0,0,1-3.069-1.485,10.842,10.842,0,0,1-2.4-2.25,12.221,12.221,0,0,1-1.692-2.925Zm-9.792-.126h7.488v1.206H90.918ZM90.7-2.9h7.866v1.206H90.7Zm3.348-12.24h1.224v4.968H94.05Zm.108,5.022h.99v5.238h.126V1.476H94.05V-4.878h.108ZM92.25-7.02v1.656h4.842V-7.02Zm0-2.592v1.62h4.842v-1.62ZM91.224-10.62h6.93v6.264h-6.93Zm24.984-1.53q.738.108,1.719.171t2.034.054q1.053-.009,2.016-.072t1.629-.171v1.458q-.72.072-1.683.117t-2,.045q-1.035,0-2.007-.045t-1.71-.117Zm.7,7.326q-.126.486-.2.882a4.323,4.323,0,0,0-.072.774,1.444,1.444,0,0,0,.135.6,1.278,1.278,0,0,0,.468.522,2.764,2.764,0,0,0,.927.36,7,7,0,0,0,1.512.135,21.43,21.43,0,0,0,2.3-.117,20.747,20.747,0,0,0,2.16-.351L124.182-.5a16.549,16.549,0,0,1-1.971.279q-1.125.1-2.529.1a5.994,5.994,0,0,1-3.321-.72,2.273,2.273,0,0,1-1.053-1.98,6.192,6.192,0,0,1,.081-.963q.081-.513.225-1.161Zm-4.14-8.712q-.036.144-.1.369l-.126.45q-.063.225-.1.387-.09.5-.216,1.161t-.243,1.4q-.117.747-.216,1.512t-.162,1.485q-.063.72-.063,1.332,0,.666.045,1.26t.117,1.26q.162-.414.342-.882t.369-.927q.189-.459.333-.819l.756.576q-.234.648-.5,1.422t-.477,1.485q-.207.711-.3,1.125-.036.2-.072.432a1.427,1.427,0,0,0-.018.378q.018.144.027.315t.027.315l-1.3.09a17.856,17.856,0,0,1-.468-2.457,25.549,25.549,0,0,1-.2-3.321q0-.99.09-2.025t.234-2.016q.144-.981.279-1.8t.207-1.377q.054-.324.09-.657a5.8,5.8,0,0,0,.036-.621Zm20.628-.846a2.854,2.854,0,0,0-.054.369q-.018.207-.036.441t-.036.432q-.018.414-.045,1.08t-.045,1.467q-.018.8-.036,1.62t-.018,1.521q0,.7.009,1.539t.036,1.656q.027.819.036,1.512t.009,1.107a3.561,3.561,0,0,1-.2,1.314,1.364,1.364,0,0,1-.549.693,1.619,1.619,0,0,1-.837.207,3.372,3.372,0,0,1-1.17-.243,5.428,5.428,0,0,1-1.233-.657,3.934,3.934,0,0,1-.963-.954,1.947,1.947,0,0,1-.378-1.134A2.514,2.514,0,0,1,128.511-4a7.1,7.1,0,0,1,1.62-1.44,10.191,10.191,0,0,1,2.115-1.08,13.7,13.7,0,0,1,2.5-.729,12.609,12.609,0,0,1,2.34-.243,5.709,5.709,0,0,1,2.331.45,3.872,3.872,0,0,1,1.6,1.251,3.1,3.1,0,0,1,.585,1.881A4,4,0,0,1,141.165-2a3.757,3.757,0,0,1-1.3,1.386,6.786,6.786,0,0,1-2.1.864,9.007,9.007,0,0,1-1.179.171L135.54.5l-.5-1.458q.5.018,1.053,0a5.948,5.948,0,0,0,1.053-.126,5.409,5.409,0,0,0,1.485-.5,3.087,3.087,0,0,0,1.116-.927,2.277,2.277,0,0,0,.423-1.386,2.02,2.02,0,0,0-.414-1.3,2.56,2.56,0,0,0-1.116-.792,4.332,4.332,0,0,0-1.566-.27,10.672,10.672,0,0,0-2.322.252,14.926,14.926,0,0,0-2.3.72,7.84,7.84,0,0,0-1.584.8,5.033,5.033,0,0,0-1.143,1,1.607,1.607,0,0,0-.423.99.968.968,0,0,0,.207.585,2.24,2.24,0,0,0,.513.495,2.552,2.552,0,0,0,.648.333,1.878,1.878,0,0,0,.594.117.574.574,0,0,0,.477-.216,1.066,1.066,0,0,0,.171-.666q0-.522-.018-1.449T131.85-5.3q-.018-1.089-.018-2.079,0-.774.009-1.656t.018-1.71q.009-.828.018-1.458t.009-.9q0-.18-.009-.423T131.85-14a2.36,2.36,0,0,0-.054-.378Zm5.58,2q.648.342,1.44.819t1.521.963a13.961,13.961,0,0,1,1.161.846L142.362-8.6a7.163,7.163,0,0,0-.828-.693q-.5-.369-1.08-.738t-1.134-.7q-.558-.333-.99-.567Zm-10.8,1.242q.738.09,1.269.117t1.035.027q.666,0,1.494-.072t1.71-.189q.882-.117,1.719-.288t1.5-.369l.036,1.4q-.7.162-1.566.315t-1.755.261q-.891.108-1.7.18t-1.4.072q-.774,0-1.305-.018t-1-.072Zm17.838-1.6h14.058v10.17h-1.386v-8.874h-11.34v8.964h-1.332Zm.864,3.924h12.546v1.26H146.88Zm0,4.014h12.546v1.3H146.88Zm5.364-10.314h1.4V1.422h-1.4Zm15.876,1.1q-.072.45-.108.909t-.054.909q-.036.756-.072,1.872t-.072,2.367q-.036,1.251-.054,2.493t-.018,2.232a2.919,2.919,0,0,0,.378,1.584,2.075,2.075,0,0,0,1.044.846,4.306,4.306,0,0,0,1.53.252,7.282,7.282,0,0,0,2.214-.315,6.673,6.673,0,0,0,1.764-.846,7.8,7.8,0,0,0,1.377-1.2,13.424,13.424,0,0,0,1.089-1.368l1.026,1.224a12.084,12.084,0,0,1-1.143,1.341,9.149,9.149,0,0,1-1.593,1.287,8.69,8.69,0,0,1-2.115.972,8.853,8.853,0,0,1-2.673.378,6.07,6.07,0,0,1-2.268-.4,3.182,3.182,0,0,1-1.548-1.278,4.329,4.329,0,0,1-.558-2.34q0-.81.018-1.791t.054-2.025q.036-1.044.054-2.043t.036-1.845q.018-.846.018-1.4,0-.5-.036-.972a8.486,8.486,0,0,0-.108-.864Zm19.17-.18h3.78v1.278h-3.78Zm2.952,0h1.476a36.641,36.641,0,0,0,.54,3.879,16.8,16.8,0,0,0,1,3.33,10.213,10.213,0,0,0,1.6,2.637,7.6,7.6,0,0,0,2.313,1.836,2,2,0,0,0-.36.27q-.2.18-.387.378t-.315.36A8.541,8.541,0,0,1,193.761-3.5a11.048,11.048,0,0,1-1.629-2.736,18.035,18.035,0,0,1-1.026-3.384,37.036,37.036,0,0,1-.576-3.933h-.288Zm.072,3.474,1.386.216a17.916,17.916,0,0,1-1.917,5.31,11.453,11.453,0,0,1-3.3,3.69,2.693,2.693,0,0,0-.279-.315q-.189-.189-.4-.378t-.378-.315A9.3,9.3,0,0,0,188.6-5.868,16.075,16.075,0,0,0,190.314-10.728Zm-5.6,2.718v6.372H183.4V-6.75h-2.52V-8.01Zm0,5.778a3.907,3.907,0,0,0,1.8,1.476,7.65,7.65,0,0,0,2.718.54q.738.036,1.791.045t2.214-.009Q194.4-.2,195.48-.234t1.89-.09a2.1,2.1,0,0,0-.18.4q-.09.252-.162.513t-.108.459q-.738.036-1.746.054t-2.088.027q-1.08.009-2.1,0T189.234,1.1a9.072,9.072,0,0,1-3.015-.576A5.124,5.124,0,0,1,184.1-1.062q-.648.576-1.332,1.161T181.35,1.3l-.7-1.386q.648-.432,1.4-1t1.449-1.143ZM181.08-13.878l.99-.81a13.161,13.161,0,0,1,1.206.873q.612.495,1.125,1a8.456,8.456,0,0,1,.837.936l-1.08.9a5.8,5.8,0,0,0-.783-.954q-.513-.522-1.116-1.035A14.542,14.542,0,0,0,181.08-13.878Zm20.934.684.711.036q.369.018.639.018.36,0,.927-.018t1.179-.054q.612-.036,1.152-.063t.81-.045q.27-.036.495-.081a2.313,2.313,0,0,0,.4-.117l.9.738q-.126.144-.243.288t-.225.306a13.331,13.331,0,0,0-.684,1.323q-.4.855-.837,1.854t-.873,1.917l-.585,1.323-.639,1.44q-.324.729-.639,1.359a8.537,8.537,0,0,1-.6,1.044,3,3,0,0,1-1.026.963,2.668,2.668,0,0,1-1.242.279,2.27,2.27,0,0,1-1.674-.666,2.432,2.432,0,0,1-.666-1.8,3.982,3.982,0,0,1,.459-1.881,4.746,4.746,0,0,1,1.278-1.521,6.061,6.061,0,0,1,1.962-1.008,8.325,8.325,0,0,1,2.511-.36,12.088,12.088,0,0,1,2.925.351,15.939,15.939,0,0,1,2.646.9,21.8,21.8,0,0,1,2.25,1.152q1.017.6,1.737,1.125L214.4-2.844A19.731,19.731,0,0,0,212.616-4.2a16.223,16.223,0,0,0-2.16-1.233,13.949,13.949,0,0,0-2.475-.9,10.571,10.571,0,0,0-2.691-.342,5.9,5.9,0,0,0-2.529.5,4.019,4.019,0,0,0-1.6,1.26,2.7,2.7,0,0,0-.549,1.593,1.192,1.192,0,0,0,.333.909,1.061,1.061,0,0,0,.747.315,1.1,1.1,0,0,0,.558-.144,1.914,1.914,0,0,0,.522-.486,6.8,6.8,0,0,0,.576-.918q.288-.54.576-1.17T204.48-6.1q.27-.648.54-1.206.36-.792.729-1.638t.738-1.638q.369-.792.675-1.44-.27.018-.765.036t-1.071.045q-.576.027-1.089.054l-.819.045q-.288.018-.648.045t-.684.063Zm11.25,3.942a26.089,26.089,0,0,1-.378,3.474A11.469,11.469,0,0,1,212-2.952a7.741,7.741,0,0,1-1.62,2.259,10.087,10.087,0,0,1-2.592,1.773L206.6.09A8.607,8.607,0,0,0,209.178-1.5a7.321,7.321,0,0,0,1.539-2,8.475,8.475,0,0,0,.774-2.169,18.989,18.989,0,0,0,.315-2.088q.018-.414.027-.846a7.02,7.02,0,0,0-.027-.81Zm15.408-4.032q-.288.216-.648.531t-.594.5q-.468.414-1.134.963t-1.4,1.152q-.738.6-1.422,1.152t-1.188.981a3.708,3.708,0,0,0-.72.765.539.539,0,0,0,.009.6,4.143,4.143,0,0,0,.765.81q.5.4,1.152.927t1.377,1.143q.729.612,1.485,1.26t1.458,1.278q.7.63,1.26,1.206L227.79,1.17q-.558-.648-1.242-1.314-.468-.486-1.17-1.134t-1.5-1.35q-.8-.7-1.584-1.359t-1.413-1.179a3.81,3.81,0,0,1-1.1-1.269,1.142,1.142,0,0,1,.09-1.089A5.068,5.068,0,0,1,221-8.73q.5-.432,1.215-1.008t1.485-1.215q.774-.639,1.467-1.242t1.143-1.071q.27-.27.567-.612a5.39,5.39,0,0,0,.459-.594Zm12.762-.612q-.09.288-.18.72t-.144.7q-.126.648-.3,1.5t-.378,1.791q-.207.936-.459,1.836-.234.954-.576,2.079t-.72,2.259q-.378,1.134-.774,2.142T237.168.9L235.584.36a15.488,15.488,0,0,0,.837-1.674q.423-.972.828-2.088t.756-2.223q.351-1.107.6-2.061.162-.63.324-1.332t.315-1.377q.153-.675.252-1.242t.153-.927q.054-.378.072-.792a4.014,4.014,0,0,0-.018-.684Zm-4,2.988q1.008,0,2.169-.1t2.367-.3q1.206-.2,2.322-.468v1.4q-1.116.252-2.34.432t-2.4.279q-1.179.1-2.133.1-.594,0-1.1-.027t-.99-.045l-.054-1.4q.648.072,1.161.1T237.438-10.908Zm5.688,2.484q.72-.072,1.575-.117t1.719-.045q.792,0,1.593.036t1.521.126L249.5-7.056q-.684-.09-1.458-.153t-1.566-.063q-.864,0-1.692.045t-1.656.153ZM243.5-4.05q-.108.45-.18.855a4.379,4.379,0,0,0-.072.765,1.679,1.679,0,0,0,.117.621,1.215,1.215,0,0,0,.441.531,2.647,2.647,0,0,0,.927.378,6.9,6.9,0,0,0,1.557.144q.864,0,1.773-.09a15.248,15.248,0,0,0,1.737-.27L249.75.342q-.72.108-1.6.189t-1.872.081a6.506,6.506,0,0,1-3.258-.666,2.171,2.171,0,0,1-1.134-2,7.439,7.439,0,0,1,.072-1.035q.072-.513.2-1.089Zm4.086-9.306a8.223,8.223,0,0,1,.5.756q.27.45.531.9t.441.828l-.972.432a7.78,7.78,0,0,0-.423-.828l-.522-.9a6.924,6.924,0,0,0-.513-.774Zm1.98-.738q.252.342.54.792t.549.9q.261.45.441.792l-.972.432q-.288-.612-.7-1.305a13.826,13.826,0,0,0-.792-1.2Zm11.862,1.332q-.09-.288-.207-.666t-.243-.738l1.53-.2q.09.522.252,1.179t.378,1.332q.216.675.432,1.251a16.263,16.263,0,0,0,1.044,2.331,19.951,19.951,0,0,0,1.188,1.953q.2.252.4.486l.4.468-.738,1.008q-.324-.072-.855-.144t-1.152-.135q-.621-.063-1.233-.117t-1.1-.09l.108-1.206q.5.036,1.071.09t1.08.1q.513.045.837.081-.378-.576-.81-1.323t-.837-1.584q-.4-.837-.711-1.647-.288-.792-.486-1.4T261.432-12.762Zm-6.588,1.4q1.512.18,2.925.252t2.682.036q1.269-.036,2.3-.144.72-.09,1.521-.216t1.593-.324q.792-.2,1.494-.414l.162,1.4a12.327,12.327,0,0,1-1.386.342q-.756.144-1.512.27t-1.422.2a36.161,36.161,0,0,1-3.825.216q-2.115.018-4.491-.18Zm2.772,5.742a7.328,7.328,0,0,0-.621,1.251,3.55,3.55,0,0,0-.225,1.251,1.978,1.978,0,0,0,1.116,1.872A6.847,6.847,0,0,0,261-.63a21.163,21.163,0,0,0,2.547-.108,18.023,18.023,0,0,0,2.1-.342L265.572.36q-.828.144-1.98.27a24.8,24.8,0,0,1-2.664.126,9.787,9.787,0,0,1-2.961-.432,4.141,4.141,0,0,1-1.935-1.233,3.079,3.079,0,0,1-.684-2.043,4.613,4.613,0,0,1,.243-1.467,13.338,13.338,0,0,1,.621-1.521Zm16.4-6.948q-.036.216-.063.54l-.054.648q-.027.324-.027.558-.018.558-.009,1.269t.036,1.476q.027.765.1,1.521a13.524,13.524,0,0,0,.486,2.619,5.376,5.376,0,0,0,.837,1.755,1.421,1.421,0,0,0,1.125.63.959.959,0,0,0,.666-.315,3.679,3.679,0,0,0,.621-.846,8.4,8.4,0,0,0,.54-1.188,11.958,11.958,0,0,0,.4-1.323l1.134,1.278a12.915,12.915,0,0,1-1.089,2.421,4.289,4.289,0,0,1-1.116,1.287,2.031,2.031,0,0,1-1.179.4,2.627,2.627,0,0,1-1.638-.621,4.862,4.862,0,0,1-1.368-2.016,13.9,13.9,0,0,1-.828-3.717q-.09-.792-.135-1.71T272.4-9.648q-.009-.828-.009-1.35,0-.306-.018-.792a3.579,3.579,0,0,0-.108-.81Zm9.378.5a9.671,9.671,0,0,1,.927,1.431,16.731,16.731,0,0,1,.81,1.746q.369.927.666,1.917a20.076,20.076,0,0,1,.486,1.971q.189.981.279,1.881l-1.44.594a20.735,20.735,0,0,0-.378-2.493,23.254,23.254,0,0,0-.666-2.466,17.762,17.762,0,0,0-.918-2.259,9.1,9.1,0,0,0-1.17-1.836Z" transform="translate(817 844.5)" fill="#fff"/><path d="M.882-14.2H7.074v1.26H.882ZM1.1-9.09H6.912v1.242H1.1ZM.558-2.682q.828-.216,1.908-.5t2.295-.63L7.182-4.5l.18,1.206q-1.692.5-3.411,1.008T.9-1.386ZM9.18-10.3v1.818h5.886V-10.3Zm0,2.9v1.836h5.886V-7.4Zm0-5.8v1.8h5.886v-1.8ZM7.92-14.328h8.46V-4.41H7.92Zm4.716,9.36h1.3v4.59a.675.675,0,0,0,.09.423.588.588,0,0,0,.414.1h1.422A.36.36,0,0,0,16.164,0a1.34,1.34,0,0,0,.153-.6q.045-.459.063-1.377.144.09.351.2a2.888,2.888,0,0,0,.423.18q.216.072.4.126a8.7,8.7,0,0,1-.216,1.71,1.5,1.5,0,0,1-.477.846A1.4,1.4,0,0,1,16,1.314H14.238a2.728,2.728,0,0,1-1-.144.812.812,0,0,1-.477-.522,3.352,3.352,0,0,1-.126-1.026ZM9.558-4.7H10.89a13.134,13.134,0,0,1-.4,2.115,5.7,5.7,0,0,1-.81,1.737A5.419,5.419,0,0,1,8.253.531,8.338,8.338,0,0,1,5.994,1.548a3.316,3.316,0,0,0-.2-.369Q5.67.972,5.517.765A1.522,1.522,0,0,0,5.22.45,7.883,7.883,0,0,0,7.263-.387,4.368,4.368,0,0,0,8.532-1.53a4.573,4.573,0,0,0,.693-1.44A10.9,10.9,0,0,0,9.558-4.7Zm-6.174-9H4.7V-3.1l-1.314.234Zm23.4-.72h5.04v1.206h-5.04ZM24.66-7.2h8.352v1.242H24.66ZM31-14.418h1.332v4.266q0,.54.108.612a.643.643,0,0,0,.162.054,1.011,1.011,0,0,0,.2.018h.63a1.856,1.856,0,0,0,.243-.018,1.171,1.171,0,0,0,.189-.036.361.361,0,0,0,.135-.135.609.609,0,0,0,.081-.261,4.185,4.185,0,0,0,.054-.567q.018-.387.036-.891a2.9,2.9,0,0,0,.477.3,4.565,4.565,0,0,0,.549.243q-.018.5-.063,1.017a2.706,2.706,0,0,1-.135.729.98.98,0,0,1-.558.612A1.232,1.232,0,0,1,34-8.352a3.827,3.827,0,0,1-.5.036H32.472a2.59,2.59,0,0,1-.594-.072,1.227,1.227,0,0,1-.5-.234.921.921,0,0,1-.3-.5A4.986,4.986,0,0,1,31-10.206ZM32.562-7.2h.27l.252-.054L34-6.84a11.242,11.242,0,0,1-1.593,3.051,13.065,13.065,0,0,1-2.268,2.367A14.279,14.279,0,0,1,27.414.315a18.853,18.853,0,0,1-3.006,1.161,6.748,6.748,0,0,0-.351-.6,3.312,3.312,0,0,0-.423-.549A15.2,15.2,0,0,0,26.469-.684a14.337,14.337,0,0,0,2.574-1.557,11.066,11.066,0,0,0,2.106-2.1,9.41,9.41,0,0,0,1.413-2.628ZM26.946-6.03a9.621,9.621,0,0,0,3.195,4.068A12.706,12.706,0,0,0,35.514.27a1.9,1.9,0,0,0-.333.351q-.171.225-.315.441t-.252.4A12.834,12.834,0,0,1,29.142-1.08a11.735,11.735,0,0,1-3.384-4.59Zm-.792-8.388h1.314v2.106a7.992,7.992,0,0,1-.18,1.647A5.251,5.251,0,0,1,26.6-8.991a4.843,4.843,0,0,1-1.476,1.467,2.24,2.24,0,0,0-.315-.288q-.207-.162-.4-.306a2.031,2.031,0,0,0-.36-.216,4.389,4.389,0,0,0,1.368-1.26,3.968,3.968,0,0,0,.594-1.395,6.769,6.769,0,0,0,.144-1.341Zm-2.916,2.862,1.224.468a19.586,19.586,0,0,1-1.53,2.2A22.706,22.706,0,0,1,21.1-6.867,19.662,19.662,0,0,1,19.188-5.2a2.354,2.354,0,0,0-.2-.378q-.144-.234-.3-.468a3.452,3.452,0,0,0-.279-.378A17.4,17.4,0,0,0,20.2-7.875a17.934,17.934,0,0,0,1.674-1.764A14.982,14.982,0,0,0,23.238-11.556ZM22.644-15.1l1.278.5a13.213,13.213,0,0,1-1.287,1.62,19.325,19.325,0,0,1-1.593,1.539,15.792,15.792,0,0,1-1.674,1.269q-.072-.144-.2-.351t-.27-.414q-.144-.207-.252-.333A14.461,14.461,0,0,0,20.169-12.4a15.943,15.943,0,0,0,1.413-1.35A9.79,9.79,0,0,0,22.644-15.1Zm-1.3,7.164,1.26-1.26.054.036V1.422H21.348Zm24.8-4.356q-.18,1.4-.459,2.934a27.491,27.491,0,0,1-.711,2.97,16.639,16.639,0,0,1-1.2,3.1,6.149,6.149,0,0,1-1.413,1.872,2.445,2.445,0,0,1-1.584.63,2.459,2.459,0,0,1-1.53-.576,4.117,4.117,0,0,1-1.206-1.665A6.461,6.461,0,0,1,37.584-5.6a6.61,6.61,0,0,1,.6-2.79,7.51,7.51,0,0,1,1.674-2.331,8.082,8.082,0,0,1,2.511-1.611,7.992,7.992,0,0,1,3.078-.594A7.438,7.438,0,0,1,48.3-12.4a6.479,6.479,0,0,1,2.169,1.431,6.367,6.367,0,0,1,1.386,2.106A6.753,6.753,0,0,1,52.344-6.3a6.737,6.737,0,0,1-.8,3.33,6.242,6.242,0,0,1-2.3,2.34A9.493,9.493,0,0,1,45.594.558L44.748-.774q.432-.054.828-.108t.72-.126a7.126,7.126,0,0,0,1.683-.621,5.761,5.761,0,0,0,1.467-1.08,4.982,4.982,0,0,0,1.035-1.566,5.265,5.265,0,0,0,.387-2.079,5.691,5.691,0,0,0-.36-2.043,4.815,4.815,0,0,0-1.062-1.665,5.014,5.014,0,0,0-1.71-1.134,6.022,6.022,0,0,0-2.3-.414,6.428,6.428,0,0,0-2.673.54,6.461,6.461,0,0,0-2.034,1.413,6.487,6.487,0,0,0-1.287,1.908,5.057,5.057,0,0,0-.45,2.025,4.985,4.985,0,0,0,.3,1.863,2.615,2.615,0,0,0,.72,1.071,1.337,1.337,0,0,0,.837.342,1.315,1.315,0,0,0,.882-.423,4.865,4.865,0,0,0,.918-1.368A15.843,15.843,0,0,0,43.56-6.7a26.418,26.418,0,0,0,.675-2.754q.279-1.458.4-2.862Z" transform="translate(850 778.5)" fill="#fff"/><path d="M7.632-13.986q-.036.252-.09.531t-.108.549q-.072.306-.162.864t-.207,1.179q-.117.621-.243,1.2-.2.756-.459,1.719T5.751-5.895Q5.4-4.806,4.968-3.681T4.014-1.458A21.623,21.623,0,0,1,2.88.63L1.422.036A13.37,13.37,0,0,0,2.574-1.8q.54-1.026.99-2.133t.81-2.187q.36-1.08.621-2.007T5.4-9.72q.252-1.062.414-2.232a16.058,16.058,0,0,0,.162-2.2ZM13.824-11.9a11.008,11.008,0,0,1,.909,1.368q.477.828.936,1.746T16.515-7q.387.864.6,1.494l-1.386.666a16.353,16.353,0,0,0-.549-1.584q-.351-.882-.792-1.791t-.918-1.728A8.209,8.209,0,0,0,12.51-11.3ZM1.152-10.026q.432.018.81.018t.81-.018q.4-.018,1.035-.063T5.184-10.2l1.476-.126q.738-.063,1.35-.108t.972-.045a3.943,3.943,0,0,1,1.467.261,2.179,2.179,0,0,1,1.062.918,3.605,3.605,0,0,1,.4,1.881q0,1.062-.108,2.295a20.916,20.916,0,0,1-.333,2.34,7.55,7.55,0,0,1-.6,1.863,2.257,2.257,0,0,1-1.08,1.2,3.77,3.77,0,0,1-1.548.3A8.087,8.087,0,0,1,7.137.5Q6.552.414,6.12.324L5.886-1.188a6.37,6.37,0,0,0,.792.207q.414.081.792.126a5.412,5.412,0,0,0,.612.045,2.25,2.25,0,0,0,.9-.171,1.479,1.479,0,0,0,.684-.765,6.9,6.9,0,0,0,.477-1.53,16.965,16.965,0,0,0,.279-1.962q.09-1.044.09-2.016A2.591,2.591,0,0,0,10.278-8.5a1.171,1.171,0,0,0-.666-.558A3.191,3.191,0,0,0,8.6-9.2q-.45,0-1.224.063t-1.656.144Q4.842-8.91,4.1-8.82t-1.161.126q-.324.036-.8.1t-.819.117ZM14.04-14.508a7.679,7.679,0,0,1,.5.747l.531.9q.27.459.45.819l-.99.432q-.162-.36-.414-.81t-.522-.9q-.27-.45-.522-.792Zm1.98-.738q.234.342.522.792t.558.891a8.51,8.51,0,0,1,.432.783l-.972.432q-.288-.594-.7-1.287a13.826,13.826,0,0,0-.792-1.2Z" transform="translate(1053 778.5)" fill="#fff"/><path d="M3.48,1.608V1.16L6.592.5,6.7-1.714H6.434a12.068,12.068,0,0,1-3.217.264v-.422L6.7-2.637l.158-1.872H6.592a12.6,12.6,0,0,1-2.953.185v-.343H2.452L2.294-7.62a18.85,18.85,0,0,1,.58-4.061H5.247v.422l-.079.5h.158L7.119-11.6v-1.951H6.855q-1.345.343-2.7.672a8.854,8.854,0,0,1-2.966.171v-.422l5.933-1.345v-.606l-.105-.58H9.387V-15h.527q1.187-.237,2.413-.409a12.377,12.377,0,0,1,2.492-.092l.079.422-5.405.923v1.872a6.9,6.9,0,0,1,3.955.606,4.2,4.2,0,0,1,.527,2.874,20.021,20.021,0,0,1-1.107,3.981H10.494v-.606h-.343l-.923.264-.079,2.03h.422a11.753,11.753,0,0,1,2.874-.185V-2.9l-3.4.686L8.965-.185h.527a9.885,9.885,0,0,1,3.639-.343v.422A38.639,38.639,0,0,0,8.424,1.042,13.729,13.729,0,0,1,3.48,1.608ZM20.646.5V.079l.343-.343a12.428,12.428,0,0,0,1.266-1.687,23.484,23.484,0,0,0,.883-2.254,6.592,6.592,0,0,0,.3-2.492l-.686-1.345a2.306,2.306,0,0,0-1.345-.606L20.3-8.306q-.422,1.608-.751,3.217t-.593,3.3H16.664l-.079-.422L17.429-6.7h-.158l-1.107.844V-5.7H13.79v-.5h.185l.079-.237.58-.343v-.185a14.275,14.275,0,0,1,3.4-1.687,21.7,21.7,0,0,1,.58-2.162q.343-1.055.686-2.057h2.373v.58a13.918,13.918,0,0,0-1.028,3.059h2.333a3.138,3.138,0,0,1,1.991.659l.079.264.264.158a4.686,4.686,0,0,1,.5,2.795A8.77,8.77,0,0,1,25.1-2.676,18.543,18.543,0,0,1,23.783-.264l-.264.079-.237.5A10.042,10.042,0,0,1,20.646.5ZM6.855-5.511v-.606L6.935-7.3H6.7L4.667-7.2v1.266l.158.844h.5Zm4.061-.765v-.158a11.487,11.487,0,0,0,.686-3.981l-.686-1.107-.58-.079-.949.343v2.452h1.266v.422l-1.345.237v1.872ZM6.935-8.569l.079-1.266H6.855l-.264.343H4.825L4.746-7.884h.237ZM5.511-16.506v-.422l1.5-1.529L7.62-18.8l.079-.264.5-.237.105-.264a3.382,3.382,0,0,1,3.217-.765v.422L8.965-17.613H8.807l-.079.237-.765.765ZM48.938.844V-.606l.949-6.249h2.268v.58q-.343,1.688-.593,3.467T51.231.844ZM32.01.738a3.728,3.728,0,0,1-1.951-.923,4.743,4.743,0,0,1-1.094-2.5,16.622,16.622,0,0,1-.092-2.9l.264-.949H31.43v.606a6.162,6.162,0,0,0-.264,1.846,6.889,6.889,0,0,0,1.028,3.4,3.081,3.081,0,0,0,2.452.923A18.67,18.67,0,0,0,39.3-1.028a11.411,11.411,0,0,1,4.812-.844v.422q-1.846.686-3.757,1.279a27.64,27.64,0,0,1-3.942.91ZM43.453-4.588v-.343l.237-.316h.185a22.153,22.153,0,0,0,1.6-2.979,8.1,8.1,0,0,0,.672-3.3l-.659-1.266a2.427,2.427,0,0,0-1.872-.606l-2.373.686v2.716h.422l2.373-.079v.422l-2.795.738v2.294H41.5L43.875-6.7v.422a34.315,34.315,0,0,0-3.81,1.055,10.264,10.264,0,0,1-4.074.475v-.422l2.874-.844.079-1.608-.079-.422h-.237a11.473,11.473,0,0,1-2.716.158v-.5l2.953-.844v-2.294h-.158a5.107,5.107,0,0,1-3.639,1.45v1.345l.5,4.061H33.275A25.927,25.927,0,0,1,32.827-7.8Q32.7-9.413,32.7-11.1l.422-2.373h2.294v.422l-.343,1.793h.237l3.48-1.793L38.865-16l-.079-.606h2.373v2.9h.158l1.107-.264h3.56a2.928,2.928,0,0,1,1.767.765l.105.237.316.264a5.13,5.13,0,0,1,.343,2.294,10.952,10.952,0,0,1-.883,2.9,16.619,16.619,0,0,1-1.569,2.689A5.564,5.564,0,0,1,43.453-4.588ZM34.646-17.376V-17.8a45.041,45.041,0,0,1,4.825-1.213,19.982,19.982,0,0,1,5.168-.29l.923.237.079.765-.58.686H42.768v-.343l.422-.686-.686-.079a19.222,19.222,0,0,0-3.85.9A9.625,9.625,0,0,1,34.646-17.376ZM68.4.316V-.105l1.767-1.424L71.534-2.9h.158a17.836,17.836,0,0,0,1.569-2.782,7.532,7.532,0,0,0,.646-3.125,6.247,6.247,0,0,0-1.292-2.979,8.254,8.254,0,0,0-2.36-1.424,7.343,7.343,0,0,0-2.7-.5,12.413,12.413,0,0,0-3.256.923,22.093,22.093,0,0,0-3.019,1.608l-.079.158-.923.765-.844.844L58.324-8.147a5.189,5.189,0,0,0-.844,2.9l.686,1,.5.158,2.109-1.345.079-.158L62.042-6.7h.185l.844-1.187A20.075,20.075,0,0,0,65.021-10.6l.5-1.266H67.9v.422a16.008,16.008,0,0,1-2.03,3.56L65.6-7.8l-.5.844-.844.844h-.185l-.158.343L63.65-5.7l-.079.264A6.671,6.671,0,0,1,60.6-3.573a8.438,8.438,0,0,1-3.625.25l-1.028-.316-.686-.87-.158-1.767a5.044,5.044,0,0,1,.712-1.991,12.333,12.333,0,0,1,1.318-1.727l1.688-1.529a16.174,16.174,0,0,1,3.349-1.78,16.239,16.239,0,0,1,3.691-.936h4.3a12.266,12.266,0,0,1,2.254.567,8.114,8.114,0,0,1,1.991,1.042,5.961,5.961,0,0,1,1.266,1.608,5.7,5.7,0,0,1,.58,3.3,8.881,8.881,0,0,1-.831,3.006,10.357,10.357,0,0,1-1.78,2.584A15.011,15.011,0,0,1,70.69.316ZM81.264,2.03V1.608L81.5,1.5l.079-.237.87-.844q4.14-4.166,6-6.447T91.323-9.7A7.025,7.025,0,0,0,92.6-12.788l-.5-.844a3.8,3.8,0,0,0-2.637-.606,15.677,15.677,0,0,0-5.418,1.49,13.338,13.338,0,0,1-5.5,1.305v-.422a28.861,28.861,0,0,1,4.482-1.819,29.994,29.994,0,0,1,4.746-1.055h4.9a3,3,0,0,1,1.951.923,2.96,2.96,0,0,1,.343,1.714,6.565,6.565,0,0,1-.9,2.136q-.633.976-3.006,3.889T84.718,1l-.923.686-.079.237Zm11.76-17.191-1.107-.422v-.185l-.264-.158a3.559,3.559,0,0,1-.237-1.687,3.782,3.782,0,0,1,1.107-1.951l.237-.079.079-.264a5.118,5.118,0,0,1,3.823-.765l.5.343v.606l-.079.237a3.025,3.025,0,0,1,2.531.606,1.879,1.879,0,0,1,.343,1.345l-.5,1.028A6.484,6.484,0,0,1,96.4-15.161Zm3.217-1.187a2.86,2.86,0,0,0,1.266-1.187l.079-.422a2.131,2.131,0,0,0-1-1H96.4v-.606H95.317l-.264.079-.185.343-.237.079a3.952,3.952,0,0,0-.844,2.452l.422.686.659.158ZM101.962-.606V-.686a57.825,57.825,0,0,1-.672-6.144q-.171-3.085-.171-6.223h2.373v2.109h.158q2.136-1,4.324-1.846a20.972,20.972,0,0,1,4.562-1.187h3.56l1.266.422.606.765a8.6,8.6,0,0,1,.158,2.373A28.147,28.147,0,0,1,117.242-7q-.541,1.648-1.068,3.335h1.714v.422a43.991,43.991,0,0,0-6.829.9,51.541,51.541,0,0,1-6.8.976v.264l.079.5Zm11.6-2.953q.765-2.03,1.437-4.113a15.9,15.9,0,0,0,.751-4.351l-.659-1.028a1.558,1.558,0,0,0-1.371-.343,20.735,20.735,0,0,0-5.1,1.7,23.282,23.282,0,0,1-5.128,1.78v.58q.079,1.872.211,3.731t.369,3.652h.422l4.5-.857Q111.27-3.243,113.563-3.56Z" transform="translate(918.267 780)" fill="#ffff76"/><path d="M22.021-16.235l-1.807-.244v-.61l1.27-3.442h1.489l.61.073v.391a17.036,17.036,0,0,0-1.1,3.3h1.025v.391Zm-3.906,0-1.807-.244v-.61l1.27-3.442h1.489l.61.073v.391a17.036,17.036,0,0,0-1.1,3.3H19.6v.391Z" transform="translate(891.5 779)" fill="#ffff76"/><path d="M22.017-15.984l-2.052-.277v-.873l1.345-3.648,1.693,0,.831.1v.666l-.022.049A16.789,16.789,0,0,0,22.8-17.022h.96v.867ZM20.465-16.7l1.561.211.36-.035h-.214l.069-.3a17.381,17.381,0,0,1,1.093-3.295v-.115l-.375-.045h-1.3l-1.194,3.237Zm-2.354.714-2.052-.277v-.873L17.4-20.782l1.693,0,.831.1v.666l-.022.049a16.789,16.789,0,0,0-1.011,2.943h.96v.867ZM16.559-16.7l1.561.211.36-.035h-.214l.069-.3a17.381,17.381,0,0,1,1.093-3.295v-.115l-.375-.045h-1.3l-1.194,3.237Z" transform="translate(891.5 779)" fill="#fffe76"/><path d="M3.027-20.923l1.807.244v.61l-1.27,3.442H2.075l-.61-.073v-.391a17.036,17.036,0,0,0,1.1-3.3H1.538v-.391Zm3.906,0,1.807.244v.61l-1.27,3.442H5.981l-.61-.073v-.391a17.036,17.036,0,0,0,1.1-3.3H5.444v-.391Z" transform="translate(1040.035 779)" fill="#ffff76"/><path d="M3.032-21.175l2.052.277v.873L3.739-16.376l-1.693,0-.831-.1v-.666l.022-.049a16.789,16.789,0,0,0,1.011-2.943h-.96V-21Zm1.552.714-1.561-.211-.36.035h.214l-.069.3a17.381,17.381,0,0,1-1.093,3.295v.115l.375.045h1.3l1.194-3.237Zm2.354-.714L8.99-20.9v.873L7.645-16.376l-1.693,0-.831-.1v-.666l.022-.049a16.789,16.789,0,0,0,1.011-2.943h-.96V-21Zm1.552.714-1.561-.211-.36.035h.214l-.069.3a17.381,17.381,0,0,1-1.093,3.295v.115L6-16.876H7.3L8.49-20.113Z" transform="translate(1040.035 779)" fill="#fffe76"/></g></svg>