<svg xmlns="http://www.w3.org/2000/svg" viewBox="0 0 377.49 64.92"><defs><style>.cls-1{fill:#e15513;}.cls-2{fill:#006837;}</style></defs><g id="レイヤー_2" data-name="レイヤー 2"><g id="design"><polygon class="cls-1" points="76.33 18.81 78.04 18.81 78.04 5.7 86.01 5.7 86.01 3.99 78.04 3.99 78.04 1.71 76.33 1.71 76.33 3.99 68.91 3.99 68.91 5.7 76.33 5.7 76.33 18.81"/><polygon class="cls-1" points="29.57 6.92 29.57 1.71 27.86 1.71 27.86 18.81 29.57 18.81 29.57 8.81 38.8 13.11 42.97 13.11 42.97 11.4 39.18 11.4 29.57 6.92"/><rect class="cls-1" x="90.57" y="3.44" width="8.59" height="1.71"/><polygon class="cls-1" points="72.69 8.76 71 8.46 69.58 16.53 67.78 16.53 67.78 18.24 71.01 18.24 72.69 8.76"/><polygon class="cls-1" points="83.93 8.46 82.25 8.76 83.92 18.24 87.15 18.24 87.15 16.53 85.35 16.53 83.93 8.46"/><polygon class="cls-1" points="47.41 17.46 48.81 18.44 52.95 12.52 52.95 6.28 61.51 6.28 61.51 17.1 57.23 17.1 57.23 18.81 63.22 18.81 63.22 4.57 52.95 4.57 52.95 1.71 51.24 1.71 51.24 4.57 47.26 4.57 47.26 6.28 51.24 6.28 51.24 11.98 47.41 17.46"/><polygon class="cls-1" points="106.53 12.45 106.53 1.71 104.82 1.71 104.82 11.91 101.18 17.11 90.02 17.11 90.02 18.82 102.07 18.82 106.53 12.45"/><rect class="cls-1" x="63.79" y="0.57" width="1.71" height="1.71"/><rect class="cls-1" x="60.93" y="0.57" width="1.71" height="1.71"/><rect class="cls-1" x="39.84" y="2.28" width="1.71" height="1.71"/><rect class="cls-1" x="36.99" y="2.28" width="1.71" height="1.71"/><path class="cls-1" d="M83.74,3.42h3.42V0H83.74Zm1.14-2.28H86V2.28H84.88Z"/><rect class="cls-1" x="133.05" y="9.13" width="15.96" height="1.71"/><rect class="cls-1" x="175.79" y="2.29" width="15.39" height="1.71"/><polygon class="cls-1" points="175.23 10.26 184.92 10.26 184.92 13.48 182.38 17.11 175.79 17.11 175.79 18.82 183.27 18.82 186.63 14.02 186.63 10.26 192.33 10.26 192.33 8.55 175.23 8.55 175.23 10.26"/><polygon class="cls-1" points="307.46 7.54 307.46 5.13 310.32 5.13 310.32 3.42 307.46 3.42 307.46 0 305.75 0 305.75 3.42 302.9 3.42 302.9 5.13 305.75 5.13 305.75 6.21 302.5 14 304.08 14.66 305.75 10.64 305.75 19.96 307.46 19.96 307.46 10.07 309.51 12.31 310.78 11.16 307.46 7.54"/><rect class="cls-1" x="219.11" y="3.43" width="8.6" height="1.71"/><polygon class="cls-1" points="233.36 11.9 229.72 17.11 218.56 17.11 218.56 18.82 230.61 18.82 235.07 12.44 235.07 1.71 233.36 1.71 233.36 11.9"/><rect class="cls-1" x="274.13" y="7.87" width="1.71" height="12.66" transform="translate(35.58 150.24) rotate(-32.56)"/><polygon class="cls-1" points="199.61 11.41 198.02 11.41 198.02 13.12 200.07 13.12 205.3 10.1 205.3 19.4 207.01 19.4 207.01 9.11 210.93 6.84 212.85 6.84 212.85 5.13 210.47 5.13 199.61 11.41"/><polygon class="cls-1" points="110.25 4 126.21 4 126.21 8.84 117.77 13.71 114.79 8.55 111.95 8.55 111.95 10.26 113.8 10.26 119.27 19.73 120.75 18.87 118.62 15.19 127.92 9.82 127.92 2.29 110.25 2.29 110.25 4"/><polygon class="cls-1" points="158.46 1.71 156.83 1.2 154.34 9.13 153 9.13 153 10.84 155.6 10.84 157.03 6.28 167.24 6.28 167.24 12.87 164.28 17.1 155.85 17.1 155.85 18.81 165.17 18.81 168.95 13.4 168.95 6.28 171.23 6.28 171.23 4.57 157.56 4.57 158.46 1.71"/><polygon class="cls-1" points="278.96 5.14 270.41 5.14 270.41 0.57 268.7 0.57 268.7 5.14 260.15 5.14 260.15 6.85 267.99 6.85 260.28 18.92 261.73 19.84 270.02 6.85 278.96 6.85 278.96 5.14"/><polygon class="cls-1" points="321.71 1.72 317.14 1.72 317.14 0 315.43 0 315.43 1.72 310.87 1.72 310.87 3.43 321.71 3.43 321.71 1.72"/><polygon class="cls-1" points="241.31 6.85 239.07 6.85 239.07 8.56 242.2 8.56 245.4 4 254.46 4 254.46 11.22 250.34 17.1 241.91 17.1 241.91 18.81 251.23 18.81 256.17 11.76 256.17 2.29 244.51 2.29 241.31 6.85"/><rect class="cls-1" x="256.17" width="1.71" height="1.71"/><rect class="cls-1" x="253.31" width="1.71" height="1.71"/><polygon class="cls-1" points="298.9 0.78 297.25 0.34 296.43 3.42 292.16 3.42 291.33 0.34 289.68 0.78 290.39 3.42 286.7 3.42 285.87 0.34 284.22 0.78 284.93 3.42 281.82 3.42 281.82 7.42 283.53 7.42 283.53 5.13 299.48 5.13 299.48 7.42 301.19 7.42 301.19 3.42 298.2 3.42 298.9 0.78"/><rect class="cls-1" x="309.33" y="6.14" width="6.29" height="1.71" transform="translate(184.77 292.27) rotate(-67.17)"/><rect class="cls-1" x="318.99" y="3.85" width="1.71" height="6.29" transform="translate(22.34 124.64) rotate(-22.83)"/><polygon class="cls-1" points="319.79 9.84 318.44 8.78 316.16 11.71 313.87 8.78 312.52 9.84 315.07 13.1 310.58 18.85 311.93 19.9 316.16 14.49 320.39 19.9 321.73 18.85 317.24 13.1 319.79 9.84"/><polygon class="cls-1" points="292.63 11.83 297.21 9.18 297.21 7.42 285.23 7.42 285.23 9.13 293.89 9.13 290.93 10.84 290.93 12.55 281.82 12.55 281.82 14.26 290.93 14.26 290.93 18.24 286.95 18.24 286.95 19.95 292.63 19.95 292.63 14.26 301.18 14.26 301.18 12.55 292.63 12.55 292.63 11.83"/><path class="cls-2" d="M5.46,41.43A22.41,22.41,0,0,1,3.4,43.25,39.76,39.76,0,0,0,0,40.52a21.55,21.55,0,0,0,7.25-8.37l4.06,1.19a18.56,18.56,0,0,1-1.37,2.45h21v3.68H27.65V44H32.2v3.71H27.65v4.45h4.06v3.71H1.3V52.11H5.46V47.66H.77V44H5.46Zm-5,21.84a17.15,17.15,0,0,0,3.92-6.72l4,1a19.22,19.22,0,0,1-4,7.35ZM9.14,44h2.52V39.47H9.14Zm0,8.16h2.52V47.66H9.14Zm5.32,5.21a45.08,45.08,0,0,1,.87,6.55l-4.06.59a44.91,44.91,0,0,0-.66-6.68ZM17.71,44V39.47H15.12V44Zm-2.59,3.71v4.45h2.59V47.66Zm6.34,9.52a39.77,39.77,0,0,1,2,6.51l-4.17.81a37.14,37.14,0,0,0-1.78-6.65Zm2.38-17.71H21.18V44h2.66Zm0,8.19H21.18v4.45h2.66Zm4.62,8.75a48.87,48.87,0,0,1,4.41,7L28.6,64.85a45.28,45.28,0,0,0-4.13-7.18Z"/><path class="cls-2" d="M49,57a44.71,44.71,0,0,0-2.52-4.55V64.74H42.61V52.39a36.21,36.21,0,0,1-4,8.61,25,25,0,0,0-1.89-4.31,32.5,32.5,0,0,0,4.62-9.06h-4V43.74h5.28V32.29h3.85V43.74h5.18v3.89H46.46v.24c1,1,4.34,4.94,5.08,5.92ZM38.87,43.11A34.41,34.41,0,0,0,37.29,35l2.91-.77a34.84,34.84,0,0,1,1.78,8Zm13.4-8.26c-.91,2.8-1.92,6.13-2.8,8.16l-2.62-.74a64.44,64.44,0,0,0,1.92-8.19ZM65.86,55.36v9.45H61.94V56.06l-9.77,1.75-.63-3.88,10.4-1.86v-20h3.92V51.37l3.57-.66.63,3.88Zm-12-12.7a29,29,0,0,1,5.88,4L57.66,50a29.45,29.45,0,0,0-5.74-4.38ZM59,41.39a28.57,28.57,0,0,0-5.43-4.55l2-2.8a26.35,26.35,0,0,1,5.57,4.24Z"/><path class="cls-2" d="M88.75,36.84c0,1.09-.07,2.14-.14,3.15h6.58a16.26,16.26,0,0,0,2.62-.24l3,1.47a13.54,13.54,0,0,0-.25,1.86c-.14,3.78-.56,13.54-2.06,17.11-.77,1.79-2.1,2.7-4.52,2.7-2,0-4.09-.14-5.77-.28l-.56-4.69a29.39,29.39,0,0,0,4.9.49,1.86,1.86,0,0,0,2-1.23c1-2.2,1.47-9.2,1.47-13H88.19c-1.3,9.24-4.62,14.73-10.89,19.18l-4.06-3.29a21.08,21.08,0,0,0,4.59-3.43c3.25-3.22,5-7.14,5.77-12.46H79c-1.19,0-3.11,0-4.62.14V39.75c1.47.14,3.29.24,4.62.24h5c0-1,.07-2,.07-3a25.93,25.93,0,0,0-.25-3.22H89C88.85,34.53,88.78,36,88.75,36.84Z"/><path class="cls-2" d="M124.16,36.42v2.7h6.09a8.43,8.43,0,0,0,2.9-.39l3,1.86a23.37,23.37,0,0,0-.7,2.8,32.68,32.68,0,0,1-3.26,9.91c-2.8,5.18-8.05,8.89-14.28,10.5l-3.64-4.2a28.57,28.57,0,0,0,4.94-1.37,17.13,17.13,0,0,0,7.94-6,20.74,20.74,0,0,0,3.12-9H113v5.11c0,.81,0,1.89.1,2.59h-4.83a25.23,25.23,0,0,0,.18-2.94V42a22.52,22.52,0,0,0-.18-3,29,29,0,0,0,3.57.18h7.49v-2.7A16.9,16.9,0,0,0,119,33.2h5.39A26.31,26.31,0,0,0,124.16,36.42Z"/><path class="cls-2" d="M155.35,53.93a33,33,0,0,0,12.74-13.62l2.73,4.94a37.26,37.26,0,0,1-12.95,13,38,38,0,0,1-13,4.93l-2.94-4.62A36.13,36.13,0,0,0,155.35,53.93Zm0-11.31-3.57,3.64A72.71,72.71,0,0,0,143,38.7l3.29-3.5A69.86,69.86,0,0,1,155.35,42.62Z"/><path class="cls-2" d="M184.23,47.59c-3.11.63-5.88,1.19-7.35,1.54L176,44.55c1.65-.21,4.73-.74,8.19-1.37v-5a29.38,29.38,0,0,0-.28-4h5.22a36.57,36.57,0,0,0-.32,4v4.14c5.12-1,10-2,11.59-2.35a10,10,0,0,0,2.49-.81l3.36,2.6c-.32.49-.84,1.29-1.16,1.92a50.16,50.16,0,0,1-7.24,10.19L194,51.58a29.79,29.79,0,0,0,5.6-7.1c-1.09.24-5.81,1.15-10.79,2.17v9.27c0,2.17.63,2.94,4.48,2.94a57.14,57.14,0,0,0,11-1.19l-.14,4.76a82.14,82.14,0,0,1-10.85.77c-8,0-9.14-1.92-9.14-6.05Z"/><path class="cls-2" d="M219.33,37.61V49.45c0,.87,0,2.24.11,3h-5.08c0-.66.18-2,.18-3.08V37.61a26.1,26.1,0,0,0-.14-2.69h5C219.37,35.72,219.33,36.49,219.33,37.61Zm16.21.53v6.93c0,7.53-1.47,10.78-4.06,13.65a20.54,20.54,0,0,1-8.51,5l-3.64-3.85a15.75,15.75,0,0,0,8.4-4.41c2.42-2.62,2.87-5.25,2.87-10.71V38.14a24.69,24.69,0,0,0-.21-3.5h5.29C235.61,35.62,235.54,36.74,235.54,38.14Z"/><path class="cls-2" d="M257.12,53.93a33,33,0,0,0,12.74-13.62l2.73,4.94a37.34,37.34,0,0,1-12.95,13,38,38,0,0,1-13,4.93l-2.94-4.62A36.13,36.13,0,0,0,257.12,53.93Zm0-11.31-3.57,3.64a72.71,72.71,0,0,0-8.75-7.56l3.29-3.5A69.86,69.86,0,0,1,257.12,42.62Z"/><path class="cls-2" d="M305.46,37.93,302.87,39l3,1.82a14.48,14.48,0,0,0-1.15,2.53A35.54,35.54,0,0,1,298.56,55c-3.32,4.1-7.52,7.28-14.1,9.91l-4.13-3.71c7.14-2.14,11-5.18,14.1-8.68a24.79,24.79,0,0,0,5-9.52h-9.83a39.57,39.57,0,0,1-8.86,8.47l-3.92-2.94a30.2,30.2,0,0,0,10.92-11.28,15.84,15.84,0,0,0,1.58-3.64l5.14,1.68a35.72,35.72,0,0,0-2.13,3.57l-.11.18h7a11.23,11.23,0,0,0,3.05-.42l.24.14a41.44,41.44,0,0,0-2.55-4.52l2.76-1.12A43.32,43.32,0,0,1,305.46,37.93Zm4.2-1.61-2.77,1.19a36.52,36.52,0,0,0-2.83-4.83l2.76-1.12A48.84,48.84,0,0,1,309.66,36.32Z"/><path class="cls-2" d="M325.65,43.6c2.87-1.68,5.92-3.19,7.56-4.13a21.94,21.94,0,0,0,3.26-2.14l2.41,4.06c-1.05.63-2.17,1.23-3.46,1.9a101.9,101.9,0,0,0-9.77,5.18c-2.9,1.92-4.86,3.92-4.86,6.37s2.41,3.85,7.28,3.85a54,54,0,0,0,11.44-1.3l-.07,5a64.34,64.34,0,0,1-11.23.88c-7,0-12.25-1.93-12.25-8,0-3.85,2.45-6.75,5.81-9.24-1.61-3-3.29-6.72-4.87-10.43l4.38-1.79A83.65,83.65,0,0,0,325.65,43.6Z"/><path class="cls-2" d="M352.75,37.89a92.81,92.81,0,0,0-1.69,13.55,17.44,17.44,0,0,0,.14,2.28c.46-1.23,1.05-2.42,1.58-3.61l2.14,1.75c-1,2.87-2.11,6.44-2.52,8.33a9.32,9.32,0,0,0-.18,1.65c0,.35,0,.94.07,1.43l-4,.32a41.31,41.31,0,0,1-1.4-11.2,109.75,109.75,0,0,1,1.44-14.6c.14-1,.31-2.31.35-3.43l4.83.42A21.92,21.92,0,0,0,352.75,37.89Zm17.67-1.22c0,.77-.07,2.06-.1,3.6a47,47,0,0,0,5.42-.8v4.38c-1.68.24-3.5.45-5.42.59.07,3.4.24,6.2.38,8.58a22.84,22.84,0,0,1,6.79,4.51l-2.41,3.68a36.78,36.78,0,0,0-4.27-3.54c-.21,3.36-2.1,5.74-6.83,5.74s-7.84-2-7.84-5.7,3-6,7.77-6a16.32,16.32,0,0,1,2.28.14c-.07-2.17-.21-4.72-.25-7.21-.84,0-1.68,0-2.48,0-2.07,0-4.06-.07-6.13-.21V40.31a58.5,58.5,0,0,0,6.13.31c.8,0,1.64,0,2.45,0,0-1.72,0-3.15,0-3.89a14.87,14.87,0,0,0-.24-2.31h5C370.53,35.06,370.46,35.9,370.42,36.67Zm-6.93,22.61c2.14,0,2.87-1.12,2.87-3.18v-.63a10.57,10.57,0,0,0-2.8-.39c-2,0-3.32.84-3.32,2.17S361.64,59.28,363.49,59.28Z"/></g></g></svg>