<svg xmlns="http://www.w3.org/2000/svg" viewBox="0 0 103.76 50"><defs><style>.cls-1{fill:#eee021;}.cls-2{fill:#22a773;}</style></defs><g id="レイヤー_2" data-name="レイヤー 2"><g id="design"><circle class="cls-1" cx="78.76" cy="25" r="25"/><path class="cls-2" d="M73.69,11A13.36,13.36,0,0,1,82,8.4q4.36,0,6.7,2a6.44,6.44,0,0,1,2.34,5.16,9.49,9.49,0,0,1-.14,1.59,8.89,8.89,0,0,1-2.29,4.74,9.21,9.21,0,0,1-3.84,2.49v.18a6.38,6.38,0,0,1,3.09,2.18A6.11,6.11,0,0,1,89,30.45a10.1,10.1,0,0,1-.17,1.85,10.72,10.72,0,0,1-4,6.72,12.8,12.8,0,0,1-8.2,2.58,12,12,0,0,1-7.43-2.07q-2.72-2.07-2.71-6.31c0-.38.06-1.07.17-2.07H74a9.34,9.34,0,0,0-.09,1,3.12,3.12,0,0,0,.88,2.38,3.71,3.71,0,0,0,2.65.84,4.09,4.09,0,0,0,3.17-1.28,4.61,4.61,0,0,0,1.19-3.26,2.53,2.53,0,0,0-1.21-2.36,7.62,7.62,0,0,0-3.82-.73H75.32l1.11-6.13h1.41c3.32,0,5.2-1.17,5.64-3.53a5.08,5.08,0,0,0,.09-.79,2.44,2.44,0,0,0-.73-1.9,3,3,0,0,0-2.09-.66,3.61,3.61,0,0,0-2.69,1,5.33,5.33,0,0,0-1.41,2.51H69.32A12,12,0,0,1,73.69,11Z"/><path class="cls-2" d="M3.33,40A5.59,5.59,0,0,1,.9,38.22a4.49,4.49,0,0,1-.9-2.8q0-.21.06-.75H3.45A2.74,2.74,0,0,0,4.25,37a3.65,3.65,0,0,0,2.67.92,4.86,4.86,0,0,0,2.91-.77,2.55,2.55,0,0,0,1.05-2.2,2.2,2.2,0,0,0-.53-1.48,4.45,4.45,0,0,0-1.32-1,22.49,22.49,0,0,0-2.2-1,28.69,28.69,0,0,1-3-1.41A6,6,0,0,1,2,28.26a4.67,4.67,0,0,1-.79-2.79,5.58,5.58,0,0,1,1-3.25,6.14,6.14,0,0,1,2.65-2.14,9.33,9.33,0,0,1,3.82-.75,8.77,8.77,0,0,1,3.67.71,5.14,5.14,0,0,1,2.34,2,5.08,5.08,0,0,1,.7,3h-3.6a2.38,2.38,0,0,0-.74-2,3.52,3.52,0,0,0-2.52-.82,4.42,4.42,0,0,0-2.77.79,2.56,2.56,0,0,0-1,2.14,2.19,2.19,0,0,0,.53,1.46,4.55,4.55,0,0,0,1.33,1c.54.29,1.27.63,2.19,1a32.42,32.42,0,0,1,3,1.5,6.27,6.27,0,0,1,1.93,1.78,4.61,4.61,0,0,1,.81,2.77,5.25,5.25,0,0,1-1,3.1,6.34,6.34,0,0,1-2.69,2.13,9.83,9.83,0,0,1-4,.76A9.09,9.09,0,0,1,3.33,40Z"/><path class="cls-2" d="M32.63,19.6l-.48,2.67H26.61L23.4,40.42H20L23.2,22.27H17.62l.48-2.67Z"/><path class="cls-2" d="M37.9,22.24l-1.11,6.32H44l-.44,2.64h-7.2l-1.16,6.56h8.09l-.48,2.66H31.28L35,19.57h11.5L46,22.24Z"/><path class="cls-2" d="M61.76,28.8A7.29,7.29,0,0,1,59,31.09a9.86,9.86,0,0,1-4.38.88H50.81l-1.5,8.45H45.9L49.58,19.6h7.19A7.18,7.18,0,0,1,61.54,21a4.61,4.61,0,0,1,1.61,3.64A8.45,8.45,0,0,1,63,25.8,7.19,7.19,0,0,1,61.76,28.8Zm-3.63-.42a4.07,4.07,0,0,0,1.4-2.58,4.43,4.43,0,0,0,.09-.87,2.44,2.44,0,0,0-.83-2,3.77,3.77,0,0,0-2.5-.7H52.52l-1.23,7h3.77A4.65,4.65,0,0,0,58.13,28.38Z"/></g></g></svg>