<svg xmlns="http://www.w3.org/2000/svg" viewBox="0 0 505 75"><defs><style>.cls-1{isolation:isolate;}.cls-2{opacity:0.5;mix-blend-mode:multiply;}.cls-3{fill:green;}.cls-4{fill:#fff;}</style></defs><g class="cls-1"><g id="レイヤー_2" data-name="レイヤー 2"><g id="bg"><g class="cls-2"><rect x="5" y="5" width="500" height="70" rx="35"/><path d="M68.26,29.49c0,.3,0,.75,0,1.23a62.88,62.88,0,0,0,7.59-.81l0,3.45c-2,.24-4.71.51-7.62.66V37.1c3-.14,5.58-.38,8-.71l0,3.54c-2.7.29-5,.5-7.92.59.06,1.14.12,2.37.21,3.57a23.49,23.49,0,0,1,8.4,4.53L74.68,52a23,23,0,0,0-6.06-4.17c0,.42,0,.78,0,1.11,0,2.55-2,4.53-5.91,4.53-4.8,0-7.32-1.83-7.32-5s2.79-5.16,7.41-5.16c.63,0,1.26,0,1.86.09-.06-.93-.09-1.89-.12-2.79H63c-1.74,0-5.16-.15-7.14-.39l0-3.53a53,53,0,0,0,7.23.57h1.44c0-1,0-2.07,0-3.09H63.43a69,69,0,0,1-7.35-.54L56,30.18a56,56,0,0,0,7.41.66h1.17V29.43a12.06,12.06,0,0,0-.18-2.07h4A20.26,20.26,0,0,0,68.26,29.49ZM62.2,50.06c1.59,0,2.64-.45,2.64-2.19,0-.33,0-.75,0-1.29a16.66,16.66,0,0,0-2.46-.21c-2.13,0-3.3.84-3.3,1.86S60.13,50.06,62.2,50.06Z"/><path d="M106.36,30.51l-2.07.87c1.92,0,3.66,0,4.56,0l0,3.57c-1.8-.09-4.65-.18-8.7-.18,0,1.53,0,3.11,0,4.44a7.49,7.49,0,0,1,1.14,4.16c0,3.93-2.31,8.88-9.66,10.95l-3.18-3.21c3-.63,5.7-1.62,7.35-3.42a6.48,6.48,0,0,1-1.38.15,5.31,5.31,0,0,1-5.19-5.49c0-3.38,2.76-5.63,6-5.63a7.79,7.79,0,0,1,1.2.09c0-.67,0-1.35,0-2-4.53.06-9.21.27-12.9.48l-.09-3.63c3.42,0,8.88-.15,12.93-.21a8.18,8.18,0,0,0,0-.93c-.09-1.2-.21-2.22-.27-2.61h4.32c-.09.48-.18,2.1-.21,2.58,0,.24,0,.57,0,.93h3.6a38.09,38.09,0,0,0-2-3.39l2.46-1A34.17,34.17,0,0,1,106.36,30.51Zm-11.19,14c1.26,0,2.34-1,2-3.6a2.17,2.17,0,0,0-2-1,2.33,2.33,0,0,0,0,4.65Zm15.24-14.87-2.52,1.05a26.18,26.18,0,0,0-2.1-3.54l2.49-1A33.19,33.19,0,0,1,110.41,29.64Z"/><path d="M121.17,31.14a79.93,79.93,0,0,0-1.44,11.6,14.18,14.18,0,0,0,.12,1.95c.39-1,.9-2.07,1.35-3.09L123,43.1c-.84,2.46-1.8,5.52-2.16,7.14a8.37,8.37,0,0,0-.15,1.41c0,.3,0,.81.06,1.23l-3.39.27a35.24,35.24,0,0,1-1.2-9.6,94.83,94.83,0,0,1,1.23-12.5,28.62,28.62,0,0,0,.3-2.94l4.14.36A19.48,19.48,0,0,0,121.17,31.14Zm15.15-1.05c0,.66-.06,1.77-.09,3.09a41.1,41.1,0,0,0,4.65-.69v3.75c-1.44.21-3,.38-4.65.51.06,2.91.21,5.3.33,7.34A19.77,19.77,0,0,1,142.38,48l-2.07,3.15a32.32,32.32,0,0,0-3.66-3C136.47,51,134.85,53,130.8,53s-6.72-1.74-6.72-4.89S126.66,43,130.74,43a13.35,13.35,0,0,1,1.95.12c-.06-1.86-.18-4.05-.21-6.17-.72,0-1.44,0-2.13,0-1.77,0-3.48-.06-5.25-.18V33.21a50,50,0,0,0,5.25.27c.69,0,1.41,0,2.1,0,0-1.47,0-2.7,0-3.33a12.74,12.74,0,0,0-.21-2h4.29A18.79,18.79,0,0,0,136.32,30.09Zm-5.94,19.37c1.83,0,2.46-1,2.46-2.73v-.54a9.26,9.26,0,0,0-2.4-.33c-1.71,0-2.85.72-2.85,1.86S128.79,49.46,130.38,49.46Z"/><path d="M151.69,34.17a20.61,20.61,0,0,1-1.77,1.56A33,33,0,0,0,147,33.39a18.45,18.45,0,0,0,6.21-7.17l3.48,1a16.15,16.15,0,0,1-1.17,2.1h18v3.15h-2.82v3.84h3.9V39.5h-3.9v3.81h3.48v3.18H148.12V43.31h3.57V39.5h-4V36.33h4Zm-4.32,18.71a14.78,14.78,0,0,0,3.36-5.76l3.45.84a16.42,16.42,0,0,1-3.42,6.3Zm7.47-16.55H157V32.49h-2.16Zm0,7H157V39.5h-2.16Zm4.56,4.47a39.24,39.24,0,0,1,.75,5.61l-3.48.51a38.08,38.08,0,0,0-.57-5.73Zm2.79-11.45V32.49H160v3.84ZM160,39.5v3.81h2.22V39.5Zm5.43,8.16a33.43,33.43,0,0,1,1.74,5.58l-3.57.69a32,32,0,0,0-1.53-5.7Zm2-15.17h-2.28v3.84h2.28Zm0,7h-2.28v3.81h2.28Zm4,7.5a40.69,40.69,0,0,1,3.78,6l-3.66,1.23A38.64,38.64,0,0,0,168,48.08Z"/><path d="M190.55,47.51a40.08,40.08,0,0,0-2.16-3.9V54.14h-3.3V43.55a30.79,30.79,0,0,1-3.45,7.38A21.2,21.2,0,0,0,180,47.24a27.77,27.77,0,0,0,4-7.77h-3.42V36.15h4.53V26.34h3.3v9.81h4.44v3.32h-4.44v.22c.87.86,3.72,4.22,4.35,5.06Zm-8.67-11.9a29.67,29.67,0,0,0-1.35-6.93L183,28a30.08,30.08,0,0,1,1.53,6.87Zm11.49-7.08c-.78,2.4-1.65,5.25-2.4,7l-2.25-.63a55.8,55.8,0,0,0,1.65-7ZM205,46.1v8.1h-3.36V46.7l-8.37,1.5-.54-3.33,8.91-1.59V26.19H205V42.68l3.06-.57.54,3.33ZM194.75,35.22a24.65,24.65,0,0,1,5,3.45L198,41.51a25.36,25.36,0,0,0-4.92-3.74Zm4.35-1.08a24.14,24.14,0,0,0-4.65-3.9l1.71-2.4a22.54,22.54,0,0,1,4.77,3.63Z"/><path d="M226.2,30.24c0,.93-.06,1.83-.12,2.7h5.64a13.94,13.94,0,0,0,2.25-.21L236.58,34a12.27,12.27,0,0,0-.21,1.59c-.12,3.23-.48,11.6-1.77,14.66-.66,1.53-1.8,2.31-3.87,2.31-1.71,0-3.51-.12-4.95-.24l-.48-4a24.83,24.83,0,0,0,4.2.42,1.6,1.6,0,0,0,1.71-1.05c.87-1.89,1.26-7.89,1.26-11.12h-6.75c-1.11,7.91-4,12.62-9.33,16.43l-3.48-2.82a17.88,17.88,0,0,0,3.93-2.94c2.79-2.76,4.29-6.12,4.95-10.67h-4c-1,0-2.67,0-4,.12V32.73c1.26.12,2.82.21,4,.21h4.29c0-.84.06-1.71.06-2.61a22.2,22.2,0,0,0-.21-2.76h4.41C226.29,28.26,226.23,29.52,226.2,30.24Z"/><path d="M258.12,29.88v2.31h5.22a7.3,7.3,0,0,0,2.49-.33l2.61,1.59a20,20,0,0,0-.6,2.4,27.88,27.88,0,0,1-2.79,8.48,19.06,19.06,0,0,1-12.24,9l-3.12-3.6a24.43,24.43,0,0,0,4.23-1.17,14.69,14.69,0,0,0,6.81-5.13,17.77,17.77,0,0,0,2.67-7.7H248.52V40.1c0,.69,0,1.62.1,2.22h-4.14c.08-.75.15-1.71.15-2.52V34.62a19.15,19.15,0,0,0-.15-2.58,24.89,24.89,0,0,0,3.06.15H254V29.88a14.82,14.82,0,0,0-.24-2.76h4.62A21.8,21.8,0,0,0,258.12,29.88Z"/><path d="M286.43,44.87a28.23,28.23,0,0,0,10.92-11.66l2.34,4.23a32,32,0,0,1-11.1,11.09,32.49,32.49,0,0,1-11.13,4.23l-2.52-4A30.92,30.92,0,0,0,286.43,44.87Zm0-9.68-3.06,3.11a62.33,62.33,0,0,0-7.5-6.47l2.82-3A60.59,60.59,0,0,1,286.43,35.19Z"/><path d="M312.75,39.45c-2.67.53-5,1-6.3,1.31l-.72-3.93c1.41-.17,4-.62,7-1.16V31.38a26,26,0,0,0-.24-3.45H317a31.53,31.53,0,0,0-.27,3.45v3.54c4.38-.84,8.58-1.68,9.93-2a8.46,8.46,0,0,0,2.13-.69l2.88,2.22a17.54,17.54,0,0,0-1,1.65,43.61,43.61,0,0,1-6.21,8.72l-3.3-2a25.71,25.71,0,0,0,4.8-6.08c-.93.21-5,1-9.24,1.86v7.94c0,1.86.54,2.52,3.84,2.52a49,49,0,0,0,9.45-1l-.12,4.08a70.52,70.52,0,0,1-9.3.66c-6.84,0-7.83-1.65-7.83-5.19Z"/><path d="M344.41,30.9V41c0,.75,0,1.92.09,2.61h-4.35c0-.57.15-1.74.15-2.64V30.9a21.3,21.3,0,0,0-.12-2.31h4.32C344.44,29.28,344.41,29.94,344.41,30.9Zm13.89.45v5.94c0,6.44-1.26,9.23-3.48,11.69a17.66,17.66,0,0,1-7.29,4.32L344.41,50a13.57,13.57,0,0,0,7.2-3.78c2.07-2.25,2.46-4.5,2.46-9.17v-5.7a21.16,21.16,0,0,0-.18-3h4.53C358.36,29.19,358.3,30.15,358.3,31.35Z"/><path d="M378.38,44.87A28.23,28.23,0,0,0,389.3,33.21l2.34,4.23a32,32,0,0,1-11.1,11.09,32.49,32.49,0,0,1-11.13,4.23l-2.52-4A30.92,30.92,0,0,0,378.38,44.87Zm0-9.68-3.06,3.11a62.33,62.33,0,0,0-7.5-6.47l2.82-3A60.59,60.59,0,0,1,378.38,35.19Z"/><path d="M421.38,31.17l-2.22.93,2.55,1.56a12,12,0,0,0-1,2.16,30.42,30.42,0,0,1-5.25,10,27.94,27.94,0,0,1-12.09,8.49l-3.54-3.18c6.12-1.83,9.45-4.44,12.09-7.44a21.19,21.19,0,0,0,4.26-8.15h-8.43a33.89,33.89,0,0,1-7.59,7.25l-3.36-2.52a25.93,25.93,0,0,0,9.36-9.65,13.57,13.57,0,0,0,1.35-3.12l4.41,1.44A31.12,31.12,0,0,0,410.1,32l-.09.15h6a9.45,9.45,0,0,0,2.61-.36l.21.12A34.79,34.79,0,0,0,416.64,28l2.37-1A39.89,39.89,0,0,1,421.38,31.17Zm3.6-1.38-2.38,1a30.65,30.65,0,0,0-2.42-4.14l2.36-1A41,41,0,0,1,425,29.79Z"/><path d="M429.26,40.34c1.38-1.43,3.69-4.52,5.55-6.68,2.1-2.37,4.05-2.58,6.24-.45,2,2,4.44,5.06,6.21,7,1.92,2.1,4.47,4.8,7.32,7.35l-3.09,3.6c-2.16-2-4.71-5-6.6-7.17s-4.11-5.06-5.52-6.66c-1.05-1.16-1.62-1-2.49.1-1.2,1.5-3.33,4.46-4.62,6.17-.69,1-1.38,2.07-1.89,2.85l-3.66-3.75A20.08,20.08,0,0,0,429.26,40.34Z"/></g><rect class="cls-3" width="500" height="70" rx="35"/><path class="cls-4" d="M63.26,24.49c0,.3,0,.75,0,1.23a62.88,62.88,0,0,0,7.59-.81l0,3.45c-2,.24-4.71.51-7.62.66V32.1c3-.14,5.58-.38,8-.71l0,3.54c-2.7.29-5,.5-7.92.59.06,1.14.12,2.37.21,3.57a23.49,23.49,0,0,1,8.4,4.53L69.68,47a23,23,0,0,0-6.06-4.17c0,.42,0,.78,0,1.11,0,2.55-1.95,4.53-5.91,4.53-4.8,0-7.32-1.83-7.32-5s2.79-5.16,7.41-5.16c.63,0,1.26,0,1.86.09-.06-.93-.09-1.89-.12-2.79H58c-1.74,0-5.16-.15-7.14-.39l0-3.53a53,53,0,0,0,7.23.57h1.44c0-1,0-2.07,0-3.09H58.43a69,69,0,0,1-7.35-.54L51,25.18a56,56,0,0,0,7.41.66h1.17V24.43a12.06,12.06,0,0,0-.18-2.07h4A20.26,20.26,0,0,0,63.26,24.49ZM57.2,45.06c1.59,0,2.64-.45,2.64-2.19,0-.33,0-.75,0-1.29a16.66,16.66,0,0,0-2.46-.21c-2.13,0-3.3.84-3.3,1.86S55.13,45.06,57.2,45.06Z"/><path class="cls-4" d="M101.36,25.51l-2.07.87c1.92,0,3.66,0,4.56,0l0,3.57c-1.8-.09-4.65-.18-8.7-.18,0,1.53,0,3.11,0,4.44a7.49,7.49,0,0,1,1.14,4.16c0,3.93-2.31,8.88-9.66,10.95l-3.18-3.21c3-.63,5.7-1.62,7.35-3.42a6.48,6.48,0,0,1-1.38.15,5.31,5.31,0,0,1-5.19-5.49c0-3.38,2.76-5.63,6-5.63a7.79,7.79,0,0,1,1.2.09c0-.67,0-1.35,0-2-4.53.06-9.21.27-12.9.48l-.09-3.63c3.42,0,8.88-.15,12.93-.21a8.18,8.18,0,0,0,0-.93c-.09-1.2-.21-2.22-.27-2.61h4.32c-.09.48-.18,2.1-.21,2.58,0,.24,0,.57,0,.93h3.6a38.09,38.09,0,0,0-2-3.39l2.46-1A34.17,34.17,0,0,1,101.36,25.51Zm-11.19,14c1.26,0,2.34-1,2-3.6a2.17,2.17,0,0,0-2-1,2.33,2.33,0,0,0,0,4.65Zm15.24-14.87-2.52,1.05a26.18,26.18,0,0,0-2.1-3.54l2.49-1A33.19,33.19,0,0,1,105.41,24.64Z"/><path class="cls-4" d="M116.17,26.14a79.93,79.93,0,0,0-1.44,11.6,14.18,14.18,0,0,0,.12,1.95c.39-1,.9-2.07,1.35-3.09L118,38.1c-.84,2.46-1.8,5.52-2.16,7.14a8.37,8.37,0,0,0-.15,1.41c0,.3,0,.81.06,1.23l-3.39.27a35.24,35.24,0,0,1-1.2-9.6,94.83,94.83,0,0,1,1.23-12.5,28.62,28.62,0,0,0,.3-2.94l4.14.36A19.48,19.48,0,0,0,116.17,26.14Zm15.15-1.05c0,.66-.06,1.77-.09,3.09a41.1,41.1,0,0,0,4.65-.69v3.75c-1.44.21-3,.38-4.65.51.06,2.91.21,5.3.33,7.34A19.77,19.77,0,0,1,137.38,43l-2.07,3.15a32.32,32.32,0,0,0-3.66-3C131.47,46,129.85,48,125.8,48s-6.72-1.74-6.72-4.89S121.66,38,125.74,38a13.35,13.35,0,0,1,2,.12c-.06-1.86-.18-4.05-.21-6.17-.72,0-1.44,0-2.13,0-1.77,0-3.48-.06-5.25-.18V28.21a50,50,0,0,0,5.25.27c.69,0,1.41,0,2.1,0,0-1.47,0-2.7,0-3.33a12.74,12.74,0,0,0-.21-2h4.29A18.79,18.79,0,0,0,131.32,25.09Zm-5.94,19.37c1.83,0,2.46-1,2.46-2.73v-.54a9.26,9.26,0,0,0-2.4-.33c-1.71,0-2.85.72-2.85,1.86S123.79,44.46,125.38,44.46Z"/><path class="cls-4" d="M146.69,29.17a20.61,20.61,0,0,1-1.77,1.56A33,33,0,0,0,142,28.39a18.45,18.45,0,0,0,6.21-7.17l3.48,1a16.15,16.15,0,0,1-1.17,2.1h18v3.15h-2.82v3.84h3.9V34.5h-3.9v3.81h3.48v3.18H143.12V38.31h3.57V34.5h-4V31.33h4Zm-4.32,18.71a14.78,14.78,0,0,0,3.36-5.76l3.45.84a16.42,16.42,0,0,1-3.42,6.3Zm7.47-16.55H152V27.49h-2.16Zm0,7H152V34.5h-2.16Zm4.56,4.47a39.24,39.24,0,0,1,.75,5.61l-3.48.51a38.08,38.08,0,0,0-.57-5.73Zm2.79-11.45V27.49H155v3.84ZM155,34.5v3.81h2.22V34.5Zm5.43,8.16a33.43,33.43,0,0,1,1.74,5.58l-3.57.69a32,32,0,0,0-1.53-5.7Zm2-15.17h-2.28v3.84h2.28Zm0,7h-2.28v3.81h2.28Zm4,7.5a40.69,40.69,0,0,1,3.78,6l-3.66,1.23A38.64,38.64,0,0,0,163,43.08Z"/><path class="cls-4" d="M185.55,42.51a40.08,40.08,0,0,0-2.16-3.9V49.14h-3.3V38.55a30.79,30.79,0,0,1-3.45,7.38A21.2,21.2,0,0,0,175,42.24a27.77,27.77,0,0,0,4-7.77h-3.42V31.15h4.53V21.34h3.3v9.81h4.44v3.32h-4.44v.22c.87.86,3.72,4.22,4.35,5.06Zm-8.67-11.9a29.67,29.67,0,0,0-1.35-6.93L178,23a30.08,30.08,0,0,1,1.53,6.87Zm11.49-7.08c-.78,2.4-1.65,5.25-2.4,7l-2.25-.63a55.8,55.8,0,0,0,1.65-7ZM200,41.1v8.1h-3.36V41.7l-8.37,1.5-.54-3.33,8.91-1.59V21.19H200V37.68l3.06-.57.54,3.33ZM189.75,30.22a24.65,24.65,0,0,1,5,3.45L193,36.51a25.36,25.36,0,0,0-4.92-3.74Zm4.35-1.08a24.14,24.14,0,0,0-4.65-3.9l1.71-2.4a22.54,22.54,0,0,1,4.77,3.63Z"/><path class="cls-4" d="M221.2,25.24c0,.93-.06,1.83-.12,2.7h5.64a13.94,13.94,0,0,0,2.25-.21L231.58,29a12.27,12.27,0,0,0-.21,1.59c-.12,3.23-.48,11.6-1.77,14.66-.66,1.53-1.8,2.31-3.87,2.31-1.71,0-3.51-.12-4.95-.24l-.48-4a24.83,24.83,0,0,0,4.2.42,1.6,1.6,0,0,0,1.71-1.05c.87-1.89,1.26-7.89,1.26-11.12h-6.75c-1.11,7.91-4,12.62-9.33,16.43l-3.48-2.82a17.88,17.88,0,0,0,3.93-2.94c2.79-2.76,4.29-6.12,4.95-10.67h-4c-1,0-2.67,0-4,.12V27.73c1.26.12,2.82.21,4,.21h4.29c0-.84.06-1.71.06-2.61a22.2,22.2,0,0,0-.21-2.76h4.41C221.29,23.26,221.23,24.52,221.2,25.24Z"/><path class="cls-4" d="M253.12,24.88v2.31h5.22a7.3,7.3,0,0,0,2.49-.33l2.61,1.59a20,20,0,0,0-.6,2.4,27.88,27.88,0,0,1-2.79,8.48,19.06,19.06,0,0,1-12.24,9l-3.12-3.6a24.43,24.43,0,0,0,4.23-1.17,14.69,14.69,0,0,0,6.81-5.13,17.77,17.77,0,0,0,2.67-7.7H243.52V35.1c0,.69,0,1.62.1,2.22h-4.14c.08-.75.15-1.71.15-2.52V29.62a19.15,19.15,0,0,0-.15-2.58,24.89,24.89,0,0,0,3.06.15H249V24.88a14.82,14.82,0,0,0-.24-2.76h4.62A21.8,21.8,0,0,0,253.12,24.88Z"/><path class="cls-4" d="M281.43,39.87a28.23,28.23,0,0,0,10.92-11.66l2.34,4.23a32,32,0,0,1-11.1,11.09,32.49,32.49,0,0,1-11.13,4.23l-2.52-4A30.92,30.92,0,0,0,281.43,39.87Zm0-9.68-3.06,3.11a62.33,62.33,0,0,0-7.5-6.47l2.82-3A60.59,60.59,0,0,1,281.43,30.19Z"/><path class="cls-4" d="M307.75,34.45c-2.67.53-5,1-6.3,1.31l-.72-3.93c1.41-.17,4-.62,7-1.16V26.38a26,26,0,0,0-.24-3.45H312a31.53,31.53,0,0,0-.27,3.45v3.54c4.38-.84,8.58-1.68,9.93-2a8.46,8.46,0,0,0,2.13-.69l2.88,2.22a17.54,17.54,0,0,0-1,1.65,43.61,43.61,0,0,1-6.21,8.72l-3.3-2a25.71,25.71,0,0,0,4.8-6.08c-.93.21-5,1-9.24,1.86v7.94c0,1.86.54,2.52,3.84,2.52a49,49,0,0,0,9.45-1l-.12,4.08a70.52,70.52,0,0,1-9.3.66c-6.84,0-7.83-1.65-7.83-5.19Z"/><path class="cls-4" d="M339.41,25.9V36c0,.75,0,1.92.09,2.61h-4.35c0-.57.15-1.74.15-2.64V25.9a21.3,21.3,0,0,0-.12-2.31h4.32C339.44,24.28,339.41,24.94,339.41,25.9Zm13.89.45v5.94c0,6.44-1.26,9.23-3.48,11.69a17.66,17.66,0,0,1-7.29,4.32L339.41,45a13.57,13.57,0,0,0,7.2-3.78c2.07-2.25,2.46-4.5,2.46-9.17v-5.7a21.16,21.16,0,0,0-.18-3h4.53C353.36,24.19,353.3,25.15,353.3,26.35Z"/><path class="cls-4" d="M373.38,39.87A28.23,28.23,0,0,0,384.3,28.21l2.34,4.23a32,32,0,0,1-11.1,11.09,32.49,32.49,0,0,1-11.13,4.23l-2.52-4A30.92,30.92,0,0,0,373.38,39.87Zm0-9.68-3.06,3.11a62.33,62.33,0,0,0-7.5-6.47l2.82-3A60.59,60.59,0,0,1,373.38,30.19Z"/><path class="cls-4" d="M416.38,26.17l-2.22.93,2.55,1.56a12,12,0,0,0-1,2.16,30.42,30.42,0,0,1-5.25,10,27.94,27.94,0,0,1-12.09,8.49l-3.54-3.18c6.12-1.83,9.45-4.44,12.09-7.44a21.19,21.19,0,0,0,4.26-8.15h-8.43a33.89,33.89,0,0,1-7.59,7.25l-3.36-2.52a25.93,25.93,0,0,0,9.36-9.65,13.57,13.57,0,0,0,1.35-3.12l4.41,1.44A31.12,31.12,0,0,0,405.1,27l-.09.15h6a9.45,9.45,0,0,0,2.61-.36l.21.12A34.79,34.79,0,0,0,411.64,23l2.37-1A39.89,39.89,0,0,1,416.38,26.17Zm3.6-1.38-2.38,1a30.65,30.65,0,0,0-2.42-4.14l2.36-1A41,41,0,0,1,420,24.79Z"/><path class="cls-4" d="M424.26,35.34c1.38-1.43,3.69-4.52,5.55-6.68,2.1-2.37,4.05-2.58,6.24-.45,2,2,4.44,5.06,6.21,7,1.92,2.1,4.47,4.8,7.32,7.35l-3.09,3.6c-2.16-2-4.71-5-6.6-7.17s-4.11-5.06-5.52-6.66c-1.05-1.16-1.62-1-2.49.1-1.2,1.5-3.33,4.46-4.62,6.17-.69,1-1.38,2.07-1.89,2.85l-3.66-3.75A20.08,20.08,0,0,0,424.26,35.34Z"/></g></g></g></svg>