<svg xmlns="http://www.w3.org/2000/svg" xmlns:xlink="http://www.w3.org/1999/xlink" width="64.6" height="28.462" viewBox="0 0 64.6 28.462"><defs><linearGradient id="a" y1="1" x2="1" gradientUnits="objectBoundingBox"><stop offset="0" stop-color="#ef561d"/><stop offset="1" stop-color="#ff9300"/></linearGradient></defs><path d="M-23.256.532A14.033,14.033,0,0,1-27.208.019a11.374,11.374,0,0,1-3.1-1.406,12.045,12.045,0,0,1-2.337-2l2.622-3.534a15,15,0,0,0,2.831,2.033,6.96,6.96,0,0,0,3.439.855,6.724,6.724,0,0,0,2.527-.437,3.653,3.653,0,0,0,1.672-1.273,3.407,3.407,0,0,0,.589-2.014,3.963,3.963,0,0,0-.665-2.3,4.211,4.211,0,0,0-2.337-1.482,16.832,16.832,0,0,0-4.712-.513v-4.028a12.431,12.431,0,0,0,4.066-.532A4.164,4.164,0,0,0-20.5-18.05a3.6,3.6,0,0,0,.627-2.09,3.172,3.172,0,0,0-.988-2.508,4.047,4.047,0,0,0-2.774-.874,5.861,5.861,0,0,0-2.755.665,11.52,11.52,0,0,0-2.527,1.843l-2.888-3.42a16.971,16.971,0,0,1,3.914-2.546,10.633,10.633,0,0,1,4.522-.95,12.417,12.417,0,0,1,4.769.855,7.05,7.05,0,0,1,3.211,2.508,6.888,6.888,0,0,1,1.14,4.009,5.851,5.851,0,0,1-1.216,3.743,8.244,8.244,0,0,1-3.458,2.451v.19a8.678,8.678,0,0,1,2.831,1.33,6.75,6.75,0,0,1,2.014,2.261,6.49,6.49,0,0,1,.741,3.173,6.919,6.919,0,0,1-1.349,4.294A8.437,8.437,0,0,1-18.3-.4,12.9,12.9,0,0,1-23.256.532Zm22.572,0A13.708,13.708,0,0,1-4.674,0,12.532,12.532,0,0,1-7.79-1.406a15.545,15.545,0,0,1-2.432-1.9l2.584-3.572A12.591,12.591,0,0,0-5.909-5.434,8.19,8.19,0,0,0-3.857-4.408a7.469,7.469,0,0,0,2.413.38A5.581,5.581,0,0,0,1.121-4.6,4.312,4.312,0,0,0,2.888-6.232a4.89,4.89,0,0,0,.646-2.584,4.6,4.6,0,0,0-1.311-3.515,4.811,4.811,0,0,0-3.439-1.235,5.734,5.734,0,0,0-2.09.342,12.954,12.954,0,0,0-2.128,1.14L-7.98-13.756-7.22-27.4H7.828v4.674H-2.394l-.532,5.966a8.987,8.987,0,0,1,1.634-.57,7.544,7.544,0,0,1,1.748-.19,10.212,10.212,0,0,1,4.332.912,7.2,7.2,0,0,1,3.154,2.812A9.021,9.021,0,0,1,9.12-8.968a9.189,9.189,0,0,1-1.387,5.13A9.182,9.182,0,0,1,4.123-.589,10.525,10.525,0,0,1-.684.532Zm23.1,0a8.017,8.017,0,0,1-5.035-1.653A10.511,10.511,0,0,1,14.06-5.966a22.741,22.741,0,0,1-1.178-7.828A22.378,22.378,0,0,1,14.06-21.6a10.14,10.14,0,0,1,3.325-4.731,8.207,8.207,0,0,1,5.035-1.6,8.207,8.207,0,0,1,5.035,1.6A10.14,10.14,0,0,1,30.78-21.6a22.378,22.378,0,0,1,1.178,7.809A22.741,22.741,0,0,1,30.78-5.966a10.511,10.511,0,0,1-3.325,4.845A8.017,8.017,0,0,1,22.42.532Zm0-4.37a3.12,3.12,0,0,0,2.2-.893,6.22,6.22,0,0,0,1.482-3.078,26.461,26.461,0,0,0,.532-5.985,25.9,25.9,0,0,0-.532-5.966,5.77,5.77,0,0,0-1.482-2.964,3.235,3.235,0,0,0-2.2-.836,3.21,3.21,0,0,0-2.147.836,5.875,5.875,0,0,0-1.539,2.964,24.229,24.229,0,0,0-.57,5.966,24.756,24.756,0,0,0,.57,5.985,6.329,6.329,0,0,0,1.539,3.078A3.1,3.1,0,0,0,22.42-3.838Z" transform="translate(32.642 27.93)" fill="url(#a)"/></svg>