<svg xmlns="http://www.w3.org/2000/svg" xmlns:xlink="http://www.w3.org/1999/xlink" width="417.234" height="73.613" viewBox="0 0 417.234 73.613"><defs><linearGradient id="a" x1="1" y1="1" x2="0.339" y2="1" gradientUnits="objectBoundingBox"><stop offset="0" stop-color="#3a2ce5"/><stop offset="1" stop-color="#47ebdf"/></linearGradient></defs><g transform="translate(-27.891 -1173.157)" opacity="0.6"><g transform="translate(36.891 1182.157)"><g transform="translate(0 0)"><rect width="177.589" height="5.366" transform="translate(0 50.247)" fill="#0bd9ff"/><rect width="243.036" height="10.869" transform="translate(32.739 19.344)" fill="#00c4b5"/><rect width="102.809" height="10.869" transform="translate(5.361)" fill="#00c4b5"/><rect width="102.803" height="10.869" transform="translate(142.856 29.896)" fill="#00c4b5"/></g><g transform="translate(0 0)"><rect width="177.589" height="5.366" transform="translate(0 50.247)" fill="#0bd9ff"/><rect width="243.036" height="10.869" transform="translate(32.739 19.344)" fill="#47ebdf"/><path d="M0,0H102.809V10.869H0Z" transform="translate(5.361)" fill="#47ebdf"/><rect width="102.803" height="10.869" transform="translate(142.856 29.896)" fill="#47ebdf"/></g></g><g transform="translate(312.666 1185.277)"><path d="M125.408,7.325V0h6.55V7.325Zm-11.4,0V0h6.55V7.325Zm-11.4,0V0h6.552V7.325Zm-11.4,0V0h6.55V7.325Zm-11.4,0V0h6.548V7.325Zm-11.4,0V0h6.55V7.325Zm-11.4,0V0h6.55V7.325Zm-11.4,0V0h6.549V7.325Zm-11.4,0V0h6.55V7.325Zm-11.4,0V0h6.551V7.325Zm-11.4,0V0h6.55V7.325ZM0,7.325V0H6.55V7.325Z" fill="url(#a)"/><path d="M132.458,7.825h-7.55V-.5h7.55Zm-6.55-1h5.55V.5h-5.55Zm-4.851,1h-7.55V-.5h7.55Zm-6.55-1h5.55V.5h-5.55Zm-4.851,1H102.1V-.5h7.552Zm-6.552-1h5.552V.5H103.1Zm-4.851,1H90.7V-.5h7.55Zm-6.55-1h5.55V.5H91.7Zm-4.851,1H79.3V-.5h7.548Zm-6.548-1h5.548V.5H80.3Zm-4.851,1H67.9V-.5h7.55Zm-6.55-1h5.55V.5H68.9Zm-4.851,1H56.5V-.5h7.55Zm-6.55-1h5.55V.5H57.5Zm-4.851,1H45.1V-.5h7.549Zm-6.549-1h5.549V.5H46.1Zm-4.851,1H33.7V-.5h7.55Zm-6.55-1h5.55V.5H34.7Zm-4.851,1H22.3V-.5h7.551Zm-6.551-1h5.551V.5H23.3Zm-4.851,1H10.9V-.5h7.55Zm-6.55-1h5.55V.5H11.9Zm-4.851,1H-.5V-.5H7.05Zm-6.55-1H6.05V.5H.5Z" fill="rgba(0,0,0,0)"/><path d="M125.408,7.325V0h6.55V7.325Zm-11.4,0V0h6.55V7.325Zm-11.4,0V0h6.552V7.325Zm-11.4,0V0h6.55V7.325Zm-11.4,0V0h6.548V7.325Zm-11.4,0V0h6.55V7.325Zm-11.4,0V0h6.55V7.325Zm-11.4,0V0h6.549V7.325Zm-11.4,0V0h6.55V7.325Zm-11.4,0V0h6.551V7.325Zm-11.4,0V0h6.55V7.325ZM0,7.325V0H6.55V7.325Z" fill="url(#a)"/><path d="M132.458,7.825h-7.55V-.5h7.55Zm-6.55-1h5.55V.5h-5.55Zm-4.851,1h-7.55V-.5h7.55Zm-6.55-1h5.55V.5h-5.55Zm-4.851,1H102.1V-.5h7.552Zm-6.552-1h5.552V.5H103.1Zm-4.851,1H90.7V-.5h7.55Zm-6.55-1h5.55V.5H91.7Zm-4.851,1H79.3V-.5h7.548Zm-6.548-1h5.548V.5H80.3Zm-4.851,1H67.9V-.5h7.55Zm-6.55-1h5.55V.5H68.9Zm-4.851,1H56.5V-.5h7.55Zm-6.55-1h5.55V.5H57.5Zm-4.851,1H45.1V-.5h7.549Zm-6.549-1h5.549V.5H46.1Zm-4.851,1H33.7V-.5h7.55Zm-6.55-1h5.55V.5H34.7Zm-4.851,1H22.3V-.5h7.551Zm-6.551-1h5.551V.5H23.3Zm-4.851,1H10.9V-.5h7.55Zm-6.55-1h5.55V.5H11.9Zm-4.851,1H-.5V-.5H7.05Zm-6.55-1H6.05V.5H.5Z" fill="rgba(0,0,0,0)"/></g></g></svg>