<svg xmlns="http://www.w3.org/2000/svg" width="266.568" height="86.229" viewBox="0 0 266.568 86.229"><path d="M49.4,10.535,45.791,0h-.6L34.355,31.716H0v.562L27.769,51.684,16.843,83.6l.4.179L44.456,64.8H30.747Z" fill="#eb9500"/><path d="M37.425,10.906h7.3v.133l-5.9,4.094,2.226,6.676h0l-6.007-4.071L28.986,21.9h0l2.346-6.681-5.964-4.189v-.133h7.321L34.917,4.23h.11Z" transform="translate(31.64 5.182)" fill="#df0011"/><path d="M33.474,18.886,30.492,10.23,18.9,43.606H41.773L40.06,38.644,67.834,19.419v-.556Z" transform="translate(23.629 12.876)" fill="#df0011"/><path d="M20.91,28.85l27.228,18.8.381-.177L42.093,28.85Z" transform="translate(26.094 36.13)" fill="#df0011"/><path d="M52.169,1.71V40.981H65.528v6.5H45.25V1.71Z" transform="translate(56.438 2.094)" fill="#040000"/><path d="M65.876,1.71V47.48H59V1.71Z" transform="translate(73.519 2.094)" fill="#040000"/><path d="M98.441,37.934H78.829l-5.1,11.125H66.308L88.94.42l21.851,48.639h-7.559Zm-2.826-6.5L88.94,15.862,81.82,31.437Z" transform="translate(82.866 0.515)" fill="#040000"/><path d="M106.045,27.967,120.219,47.48h-8.544L98.614,28.746H97.368V47.48h-6.9V1.71h8.077q9.079,0,13.106,3.4a12.55,12.55,0,0,1,4.45,10.013,12.972,12.972,0,0,1-2.8,8.366,12.283,12.283,0,0,1-7.254,4.473Zm-8.589-5.251h2.226q9.791,0,9.791-7.5,0-7.009-9.52-7.009h-2.5Z" transform="translate(113.262 2.094)" fill="#040000"/><path d="M123.592,8.207V47.48H116.7V8.207H106.17V1.71h27.9v6.5Z" transform="translate(132.496 2.094)" fill="#040000"/><path d="M49.055,51.543H45.54V28.09h3.515v1.647a6.676,6.676,0,0,1,9.878.246,8.366,8.366,0,0,1,2.047,5.785,8.187,8.187,0,0,1-2.047,5.7,6.676,6.676,0,0,1-9.878.11ZM57.4,35.768A5.274,5.274,0,0,0,56.22,32.23a3.85,3.85,0,0,0-2.982-1.4A4.027,4.027,0,0,0,50.1,32.161a5.785,5.785,0,0,0,0,7.045,3.894,3.894,0,0,0,3.115,1.358,3.761,3.761,0,0,0,3-1.358A5.006,5.006,0,0,0,57.4,35.758Z" transform="translate(56.78 34.686)" fill="#040000"/><path d="M55,28.1h3.515v1.348a6.676,6.676,0,0,1,1.714-1.4,4.139,4.139,0,0,1,1.8-.381,5.428,5.428,0,0,1,2.892.912l-1.6,3.2a3.248,3.248,0,0,0-1.936-.712q-2.869,0-2.869,4.339v7.854H55Z" transform="translate(68.549 34.678)" fill="#040000"/><path d="M60.79,35.522a7.588,7.588,0,0,1,2.359-5.585,7.854,7.854,0,0,1,5.741-2.226,7.967,7.967,0,0,1,5.764,2.226,8.167,8.167,0,0,1,0,11.436,8.033,8.033,0,0,1-5.83,2.226,7.721,7.721,0,0,1-5.712-2.336A7.877,7.877,0,0,1,60.8,35.522Zm3.582,0A5.206,5.206,0,0,0,65.7,39.194a4.76,4.76,0,0,0,6.676,0,5.764,5.764,0,0,0,0-7.1,4.294,4.294,0,0,0-3.294-1.333A4.227,4.227,0,0,0,65.838,32.1a4.873,4.873,0,0,0-1.468,3.494Z" transform="translate(75.797 34.73)" fill="#040000"/><path d="M70.611,28.1H74.1v1.4a8.368,8.368,0,0,1,1.735-1.447,4.45,4.45,0,0,1,1.9-.381,4.629,4.629,0,0,1,4.082,2.23,5.251,5.251,0,0,1,4.45-2.226c3.427,0,5.141,2.07,5.141,6.23v9.368h-3.5V34.838a6.676,6.676,0,0,0-.533-3.092,1.957,1.957,0,0,0-1.8-.912,2.226,2.226,0,0,0-2.226,1.091,7.009,7.009,0,0,0-.668,3.515v7.831h-3.4V34.881c0-2.692-.779-4.05-2.336-4.05a2.359,2.359,0,0,0-2.226,1.112,6.919,6.919,0,0,0-.689,3.494v7.831H70.609Z" transform="translate(88.072 34.682)" fill="#040000"/><path d="M82.5,35.523a7.5,7.5,0,0,1,2.359-5.585A7.788,7.788,0,0,1,90.6,27.712a7.967,7.967,0,0,1,5.764,2.226,7.744,7.744,0,0,1,2.226,5.712,7.654,7.654,0,0,1-2.359,5.712,8.01,8.01,0,0,1-5.807,2.226,7.721,7.721,0,0,1-5.712-2.336A7.877,7.877,0,0,1,82.5,35.523Zm3.582,0a5.1,5.1,0,0,0,1.224,3.6A4.294,4.294,0,0,0,90.6,40.46a4.45,4.45,0,0,0,3.292-1.312,5.764,5.764,0,0,0,0-7.1A4.317,4.317,0,0,0,90.6,30.717a4.273,4.273,0,0,0-3.271,1.333,4.962,4.962,0,0,0-1.245,3.538Z" transform="translate(102.864 34.729)" fill="#040000"/><path d="M96.732,34.195V46.1H93.261v-11.9H91.77V30.922h1.491V25.36h3.471v5.562h2.736v3.273Z" transform="translate(114.36 31.855)" fill="#040000"/><path d="M96.94,26.264a2.285,2.285,0,1,1,3.894,1.6,2.047,2.047,0,0,1-1.6.689,2.226,2.226,0,0,1-2.226-2.232Zm4.05,6.32V47.759H97.473V32.627Z" transform="translate(121.189 30.15)" fill="#040000"/><path d="M101.305,35.522a7.565,7.565,0,0,1,2.226-5.585,7.854,7.854,0,0,1,5.741-2.226,8.01,8.01,0,0,1,5.785,2.226,7.744,7.744,0,0,1,2.226,5.712,7.654,7.654,0,0,1-2.359,5.712,8.01,8.01,0,0,1-5.807,2.226,7.765,7.765,0,0,1-5.741-2.336,7.854,7.854,0,0,1-2.07-5.741Zm3.582,0a5.185,5.185,0,0,0,1.2,3.6,4.76,4.76,0,0,0,6.676,0,5.674,5.674,0,0,0,0-7.1,4.673,4.673,0,0,0-6.542,0,4.962,4.962,0,0,0-1.333,3.561Z" transform="translate(126.523 34.73)" fill="#040000"/><path d="M111.11,28.1h3.515v1.4a5.741,5.741,0,0,1,4.16-1.824,5.206,5.206,0,0,1,4.117,1.668,6.676,6.676,0,0,1,1.312,4.629v9.3H120.7V34.794a5.407,5.407,0,0,0-.645-3.092,2.515,2.515,0,0,0-2.226-.889,2.759,2.759,0,0,0-2.492,1.158,8.1,8.1,0,0,0-.712,3.983v7.321H111.11Z" transform="translate(138.548 34.679)" fill="#040000"/></svg>