<svg xmlns="http://www.w3.org/2000/svg" xmlns:xlink="http://www.w3.org/1999/xlink" width="309.688" height="35.875" viewBox="0 0 309.688 35.875"><defs><linearGradient id="a" y1="1" x2="0.994" gradientUnits="objectBoundingBox"><stop offset="0" stop-color="#00c3e6"/><stop offset="1" stop-color="#47ebdf"/></linearGradient></defs><g transform="translate(-1516.852 -770)" opacity="0.6"><path d="M293.192,23.876V0h4.5V23.876Zm-13.325,0V0h4.5V23.876Zm-13.329,0V0h4.5V23.876Zm-13.327,0V0h4.5V23.876Zm-13.325,0V0h4.5V23.876Zm-13.327,0V0h4.493V23.876Zm-13.329,0V0h4.5V23.876Zm-13.325,0V0h4.5V23.876Zm-13.325,0V0h4.492V23.876Zm-13.329,0V0h4.5V23.876Zm-13.327,0V0h4.5V23.876Zm-13.325,0V0h4.492V23.876Zm-13.327,0V0h4.493V23.876Zm-13.329,0V0h4.493V23.876Zm-13.325,0V0h4.492V23.876Zm-13.327,0V0h4.493V23.876Zm-13.329,0V0h4.5V23.876Zm-13.325,0V0h4.492V23.876Zm-13.329,0V0h4.5V23.876Zm-13.327,0V0h4.5V23.876Zm-13.325,0V0h4.492V23.876Zm-13.329,0V0h4.5V23.876ZM0,23.876V0H4.5V23.876Z" transform="translate(1522.852 776)" fill="url(#a)"/><path d="M293.192,23.876V0h4.5V23.876Zm-13.325,0V0h4.5V23.876Zm-13.329,0V0h4.5V23.876Zm-13.327,0V0h4.5V23.876Zm-13.325,0V0h4.5V23.876Zm-13.327,0V0h4.493V23.876Zm-13.329,0V0h4.5V23.876Zm-13.325,0V0h4.5V23.876Zm-13.325,0V0h4.492V23.876Zm-13.329,0V0h4.5V23.876Zm-13.327,0V0h4.5V23.876Zm-13.325,0V0h4.492V23.876Zm-13.327,0V0h4.493V23.876Zm-13.329,0V0h4.493V23.876Zm-13.325,0V0h4.492V23.876Zm-13.327,0V0h4.493V23.876Zm-13.329,0V0h4.5V23.876Zm-13.325,0V0h4.492V23.876Zm-13.329,0V0h4.5V23.876Zm-13.327,0V0h4.5V23.876Zm-13.325,0V0h4.492V23.876Zm-13.329,0V0h4.5V23.876ZM0,23.876V0H4.5V23.876Z" transform="translate(1522.852 776)" fill="url(#a)"/></g></svg>