<svg xmlns="http://www.w3.org/2000/svg" xmlns:xlink="http://www.w3.org/1999/xlink" width="223.82" height="36.062" viewBox="0 0 223.82 36.062"><defs><linearGradient id="a" y1="1" x2="1" gradientUnits="objectBoundingBox"><stop offset="0" stop-color="#ef561d"/><stop offset="1" stop-color="#ff9300"/></linearGradient></defs><path d="M-102.714.532A13.708,13.708,0,0,1-106.7,0a12.532,12.532,0,0,1-3.116-1.406,15.546,15.546,0,0,1-2.432-1.9l2.584-3.572a12.591,12.591,0,0,0,1.729,1.444,8.19,8.19,0,0,0,2.052,1.026,7.469,7.469,0,0,0,2.413.38,5.581,5.581,0,0,0,2.565-.57,4.312,4.312,0,0,0,1.767-1.634A4.89,4.89,0,0,0-98.5-8.816a4.6,4.6,0,0,0-1.311-3.515,4.811,4.811,0,0,0-3.439-1.235,5.734,5.734,0,0,0-2.09.342,12.954,12.954,0,0,0-2.128,1.14l-2.546-1.672.76-13.642H-94.2v4.674h-10.222l-.532,5.966a8.987,8.987,0,0,1,1.634-.57,7.544,7.544,0,0,1,1.748-.19,10.212,10.212,0,0,1,4.332.912,7.2,7.2,0,0,1,3.154,2.812A9.021,9.021,0,0,1-92.91-8.968,9.189,9.189,0,0,1-94.3-3.838a9.182,9.182,0,0,1-3.61,3.249A10.525,10.525,0,0,1-102.714.532Zm23.1,0a8.017,8.017,0,0,1-5.035-1.653A10.511,10.511,0,0,1-87.97-5.966a22.741,22.741,0,0,1-1.178-7.828A22.378,22.378,0,0,1-87.97-21.6a10.14,10.14,0,0,1,3.325-4.731,8.207,8.207,0,0,1,5.035-1.6,8.207,8.207,0,0,1,5.035,1.6A10.14,10.14,0,0,1-71.25-21.6a22.378,22.378,0,0,1,1.178,7.809A22.741,22.741,0,0,1-71.25-5.966a10.511,10.511,0,0,1-3.325,4.845A8.017,8.017,0,0,1-79.61.532Zm0-4.37a3.12,3.12,0,0,0,2.2-.893,6.22,6.22,0,0,0,1.482-3.078,26.461,26.461,0,0,0,.532-5.985,25.9,25.9,0,0,0-.532-5.966,5.77,5.77,0,0,0-1.482-2.964,3.235,3.235,0,0,0-2.2-.836,3.21,3.21,0,0,0-2.147.836A5.875,5.875,0,0,0-83.3-19.76a24.23,24.23,0,0,0-.57,5.966,24.756,24.756,0,0,0,.57,5.985,6.329,6.329,0,0,0,1.539,3.078A3.1,3.1,0,0,0-79.61-3.838ZM-57.19.532a8.017,8.017,0,0,1-5.035-1.653A10.511,10.511,0,0,1-65.55-5.966a22.741,22.741,0,0,1-1.178-7.828A22.378,22.378,0,0,1-65.55-21.6a10.14,10.14,0,0,1,3.325-4.731,8.207,8.207,0,0,1,5.035-1.6,8.207,8.207,0,0,1,5.035,1.6A10.14,10.14,0,0,1-48.83-21.6a22.378,22.378,0,0,1,1.178,7.809A22.741,22.741,0,0,1-48.83-5.966a10.511,10.511,0,0,1-3.325,4.845A8.017,8.017,0,0,1-57.19.532Zm0-4.37a3.12,3.12,0,0,0,2.2-.893A6.22,6.22,0,0,0-53.5-7.809a26.46,26.46,0,0,0,.532-5.985A25.9,25.9,0,0,0-53.5-19.76a5.77,5.77,0,0,0-1.482-2.964,3.235,3.235,0,0,0-2.2-.836,3.21,3.21,0,0,0-2.147.836,5.875,5.875,0,0,0-1.539,2.964,24.229,24.229,0,0,0-.57,5.966,24.756,24.756,0,0,0,.57,5.985,6.329,6.329,0,0,0,1.539,3.078A3.1,3.1,0,0,0-57.19-3.838Zm14.4,11.97-1.178-3.04a8.451,8.451,0,0,0,3.4-2.28,4.648,4.648,0,0,0,1.2-3.078l-.19-3.99L-37.582-.95a2.862,2.862,0,0,1-1.007.608,3.53,3.53,0,0,1-1.159.19,3.775,3.775,0,0,1-2.432-.855,2.962,2.962,0,0,1-1.064-2.451A3,3,0,0,1-42.18-5.852,3.835,3.835,0,0,1-39.6-6.764,3.409,3.409,0,0,1-36.651-5.3a6.859,6.859,0,0,1,1.045,4.047,9.225,9.225,0,0,1-1.862,5.776A10.906,10.906,0,0,1-42.788,8.132ZM-22.42.532a8.017,8.017,0,0,1-5.035-1.653A10.511,10.511,0,0,1-30.78-5.966a22.741,22.741,0,0,1-1.178-7.828A22.378,22.378,0,0,1-30.78-21.6a10.14,10.14,0,0,1,3.325-4.731,8.207,8.207,0,0,1,5.035-1.6,8.207,8.207,0,0,1,5.035,1.6A10.14,10.14,0,0,1-14.06-21.6a22.378,22.378,0,0,1,1.178,7.809A22.741,22.741,0,0,1-14.06-5.966a10.511,10.511,0,0,1-3.325,4.845A8.017,8.017,0,0,1-22.42.532Zm0-4.37a3.12,3.12,0,0,0,2.2-.893,6.22,6.22,0,0,0,1.482-3.078,26.461,26.461,0,0,0,.532-5.985,25.9,25.9,0,0,0-.532-5.966,5.77,5.77,0,0,0-1.482-2.964,3.235,3.235,0,0,0-2.2-.836,3.21,3.21,0,0,0-2.147.836,5.875,5.875,0,0,0-1.539,2.964,24.229,24.229,0,0,0-.57,5.966,24.756,24.756,0,0,0,.57,5.985,6.329,6.329,0,0,0,1.539,3.078A3.1,3.1,0,0,0-22.42-3.838ZM0,.532A8.017,8.017,0,0,1-5.035-1.121,10.511,10.511,0,0,1-8.36-5.966a22.741,22.741,0,0,1-1.178-7.828A22.378,22.378,0,0,1-8.36-21.6a10.14,10.14,0,0,1,3.325-4.731A8.207,8.207,0,0,1,0-27.93a8.207,8.207,0,0,1,5.035,1.6A10.14,10.14,0,0,1,8.36-21.6a22.378,22.378,0,0,1,1.178,7.809A22.741,22.741,0,0,1,8.36-5.966,10.511,10.511,0,0,1,5.035-1.121,8.017,8.017,0,0,1,0,.532Zm0-4.37a3.12,3.12,0,0,0,2.2-.893A6.22,6.22,0,0,0,3.686-7.809a26.461,26.461,0,0,0,.532-5.985,25.9,25.9,0,0,0-.532-5.966A5.77,5.77,0,0,0,2.2-22.724,3.235,3.235,0,0,0,0-23.56a3.21,3.21,0,0,0-2.147.836A5.875,5.875,0,0,0-3.686-19.76a24.229,24.229,0,0,0-.57,5.966,24.756,24.756,0,0,0,.57,5.985A6.329,6.329,0,0,0-2.147-4.731,3.1,3.1,0,0,0,0-3.838ZM22.42.532a8.017,8.017,0,0,1-5.035-1.653A10.511,10.511,0,0,1,14.06-5.966a22.741,22.741,0,0,1-1.178-7.828A22.378,22.378,0,0,1,14.06-21.6a10.14,10.14,0,0,1,3.325-4.731,8.207,8.207,0,0,1,5.035-1.6,8.207,8.207,0,0,1,5.035,1.6A10.14,10.14,0,0,1,30.78-21.6a22.378,22.378,0,0,1,1.178,7.809A22.741,22.741,0,0,1,30.78-5.966a10.511,10.511,0,0,1-3.325,4.845A8.017,8.017,0,0,1,22.42.532Zm0-4.37a3.12,3.12,0,0,0,2.2-.893,6.22,6.22,0,0,0,1.482-3.078,26.461,26.461,0,0,0,.532-5.985,25.9,25.9,0,0,0-.532-5.966,5.77,5.77,0,0,0-1.482-2.964,3.235,3.235,0,0,0-2.2-.836,3.21,3.21,0,0,0-2.147.836,5.875,5.875,0,0,0-1.539,2.964,24.229,24.229,0,0,0-.57,5.966,24.756,24.756,0,0,0,.57,5.985,6.329,6.329,0,0,0,1.539,3.078A3.1,3.1,0,0,0,22.42-3.838Zm14.4,11.97-1.178-3.04a8.451,8.451,0,0,0,3.4-2.28,4.648,4.648,0,0,0,1.2-3.078l-.19-3.99L42.028-.95a2.862,2.862,0,0,1-1.007.608,3.53,3.53,0,0,1-1.159.19,3.775,3.775,0,0,1-2.432-.855,2.962,2.962,0,0,1-1.064-2.451A3,3,0,0,1,37.43-5.852a3.835,3.835,0,0,1,2.584-.912A3.409,3.409,0,0,1,42.959-5.3,6.859,6.859,0,0,1,44-1.254a9.225,9.225,0,0,1-1.862,5.776A10.906,10.906,0,0,1,36.822,8.132ZM57.19.532a8.017,8.017,0,0,1-5.035-1.653A10.511,10.511,0,0,1,48.83-5.966a22.741,22.741,0,0,1-1.178-7.828A22.378,22.378,0,0,1,48.83-21.6a10.14,10.14,0,0,1,3.325-4.731,8.207,8.207,0,0,1,5.035-1.6,8.207,8.207,0,0,1,5.035,1.6A10.14,10.14,0,0,1,65.55-21.6a22.378,22.378,0,0,1,1.178,7.809A22.741,22.741,0,0,1,65.55-5.966a10.511,10.511,0,0,1-3.325,4.845A8.017,8.017,0,0,1,57.19.532Zm0-4.37a3.12,3.12,0,0,0,2.2-.893,6.22,6.22,0,0,0,1.482-3.078,26.46,26.46,0,0,0,.532-5.985,25.9,25.9,0,0,0-.532-5.966,5.77,5.77,0,0,0-1.482-2.964,3.235,3.235,0,0,0-2.2-.836,3.21,3.21,0,0,0-2.147.836A5.875,5.875,0,0,0,53.5-19.76a24.229,24.229,0,0,0-.57,5.966,24.756,24.756,0,0,0,.57,5.985,6.329,6.329,0,0,0,1.539,3.078A3.1,3.1,0,0,0,57.19-3.838ZM79.61.532a8.017,8.017,0,0,1-5.035-1.653A10.511,10.511,0,0,1,71.25-5.966a22.741,22.741,0,0,1-1.178-7.828A22.378,22.378,0,0,1,71.25-21.6a10.14,10.14,0,0,1,3.325-4.731,8.207,8.207,0,0,1,5.035-1.6,8.207,8.207,0,0,1,5.035,1.6A10.14,10.14,0,0,1,87.97-21.6a22.378,22.378,0,0,1,1.178,7.809A22.741,22.741,0,0,1,87.97-5.966a10.511,10.511,0,0,1-3.325,4.845A8.017,8.017,0,0,1,79.61.532Zm0-4.37a3.12,3.12,0,0,0,2.2-.893A6.22,6.22,0,0,0,83.3-7.809a26.461,26.461,0,0,0,.532-5.985A25.9,25.9,0,0,0,83.3-19.76a5.77,5.77,0,0,0-1.482-2.964,3.235,3.235,0,0,0-2.2-.836,3.21,3.21,0,0,0-2.147.836,5.875,5.875,0,0,0-1.539,2.964,24.23,24.23,0,0,0-.57,5.966,24.756,24.756,0,0,0,.57,5.985,6.329,6.329,0,0,0,1.539,3.078A3.1,3.1,0,0,0,79.61-3.838ZM102.03.532A8.017,8.017,0,0,1,97-1.121,10.511,10.511,0,0,1,93.67-5.966a22.741,22.741,0,0,1-1.178-7.828A22.378,22.378,0,0,1,93.67-21.6,10.14,10.14,0,0,1,97-26.334a8.207,8.207,0,0,1,5.035-1.6,8.207,8.207,0,0,1,5.035,1.6A10.14,10.14,0,0,1,110.39-21.6a22.378,22.378,0,0,1,1.178,7.809,22.741,22.741,0,0,1-1.178,7.828,10.511,10.511,0,0,1-3.325,4.845A8.017,8.017,0,0,1,102.03.532Zm0-4.37a3.12,3.12,0,0,0,2.2-.893,6.22,6.22,0,0,0,1.482-3.078,26.461,26.461,0,0,0,.532-5.985,25.9,25.9,0,0,0-.532-5.966,5.77,5.77,0,0,0-1.482-2.964,3.235,3.235,0,0,0-2.2-.836,3.21,3.21,0,0,0-2.147.836,5.875,5.875,0,0,0-1.539,2.964,24.23,24.23,0,0,0-.57,5.966,24.756,24.756,0,0,0,.57,5.985,6.329,6.329,0,0,0,1.539,3.078A3.1,3.1,0,0,0,102.03-3.838Z" transform="translate(112.252 27.93)" fill="url(#a)"/></svg>