<svg xmlns="http://www.w3.org/2000/svg" xmlns:xlink="http://www.w3.org/1999/xlink" width="178.904" height="36.746" viewBox="0 0 178.904 36.746"><defs><linearGradient id="a" x1="0.988" x2="0.01" y2="1" gradientUnits="objectBoundingBox"><stop offset="0" stop-color="#ff9300"/><stop offset="1" stop-color="#ef561d"/></linearGradient></defs><path d="M-84.455-11.552l4.37-6.992c.8-1.52,1.558-3.078,2.242-4.6h.152c-.076,1.672-.19,4.218-.19,5.852v5.738ZM-77.881,0h5.206V-7.3h3.306v-4.256h-3.306V-28.158H-79.4L-89.889-11.1v3.8h12.008Zm12.768,8.094c4.6-1.52,7.182-4.9,7.182-9.348,0-3.458-1.444-5.51-4.028-5.51a3.361,3.361,0,0,0-3.61,3.306,3.281,3.281,0,0,0,3.5,3.306h.342c.038,2.128-1.6,4.1-4.56,5.206ZM-44.745.532c5.738,0,9.5-5.016,9.5-14.706s-3.762-14.478-9.5-14.478-9.538,4.75-9.538,14.478C-54.283-4.484-50.483.532-44.745.532Zm0-4.37C-47.177-3.838-49-6.27-49-14.174c0-7.866,1.824-10.146,4.256-10.146s4.218,2.28,4.218,10.146C-40.527-6.27-42.313-3.838-44.745-3.838ZM-22.363.532c5.738,0,9.5-5.016,9.5-14.706s-3.762-14.478-9.5-14.478S-31.9-23.9-31.9-14.174C-31.9-4.484-28.1.532-22.363.532Zm0-4.37c-2.432,0-4.256-2.432-4.256-10.336,0-7.866,1.824-10.146,4.256-10.146s4.218,2.28,4.218,10.146C-18.145-6.27-19.931-3.838-22.363-3.838ZM.019.532c5.738,0,9.5-5.016,9.5-14.706S5.757-28.652.019-28.652-9.519-23.9-9.519-14.174C-9.519-4.484-5.719.532.019.532Zm0-4.37c-2.432,0-4.256-2.432-4.256-10.336,0-7.866,1.824-10.146,4.256-10.146s4.218,2.28,4.218,10.146C4.237-6.27,2.451-3.838.019-3.838ZM14.383,8.094c4.6-1.52,7.182-4.9,7.182-9.348,0-3.458-1.444-5.51-4.028-5.51a3.361,3.361,0,0,0-3.61,3.306,3.281,3.281,0,0,0,3.5,3.306h.342c.038,2.128-1.6,4.1-4.56,5.206ZM34.751.532c5.738,0,9.5-5.016,9.5-14.706s-3.762-14.478-9.5-14.478-9.538,4.75-9.538,14.478C25.213-4.484,29.013.532,34.751.532Zm0-4.37c-2.432,0-4.256-2.432-4.256-10.336,0-7.866,1.824-10.146,4.256-10.146s4.218,2.28,4.218,10.146C38.969-6.27,37.183-3.838,34.751-3.838ZM57.133.532c5.738,0,9.5-5.016,9.5-14.706s-3.762-14.478-9.5-14.478-9.538,4.75-9.538,14.478C47.595-4.484,51.395.532,57.133.532Zm0-4.37c-2.432,0-4.256-2.432-4.256-10.336,0-7.866,1.824-10.146,4.256-10.146s4.218,2.28,4.218,10.146C61.351-6.27,59.565-3.838,57.133-3.838ZM79.515.532c5.738,0,9.5-5.016,9.5-14.706s-3.762-14.478-9.5-14.478-9.538,4.75-9.538,14.478C69.977-4.484,73.777.532,79.515.532Zm0-4.37c-2.432,0-4.256-2.432-4.256-10.336,0-7.866,1.824-10.146,4.256-10.146s4.218,2.28,4.218,10.146C83.733-6.27,81.947-3.838,79.515-3.838Z" transform="translate(89.889 28.652)" fill="url(#a)"/></svg>