<svg xmlns="http://www.w3.org/2000/svg" viewBox="0 0 837.26 50"><defs><style>.cls-1{fill:#e85513;}.cls-2{fill:#4d4d4d;}</style></defs><g id="レイヤー_2" data-name="レイヤー 2"><g id="design"><polygon class="cls-1" points="121.17 47.02 125.44 47.02 125.44 14.26 145.37 14.26 145.37 9.99 125.44 9.99 125.44 4.27 121.17 4.27 121.17 9.99 102.63 9.99 102.63 14.26 121.17 14.26 121.17 47.02"/><polygon class="cls-1" points="4.28 17.3 4.28 4.27 0 4.27 0 47.02 4.28 47.02 4.28 22.01 27.35 32.77 37.76 32.77 37.76 28.5 28.3 28.5 4.28 17.3"/><rect class="cls-1" x="156.77" y="8.59" width="21.49" height="4.27"/><polygon class="cls-1" points="112.06 21.89 107.85 21.14 104.29 41.32 99.8 41.32 99.8 45.6 107.88 45.6 112.06 21.89"/><polygon class="cls-1" points="140.17 21.14 135.96 21.89 140.14 45.6 148.22 45.6 148.22 41.32 143.73 41.32 140.17 21.14"/><polygon class="cls-1" points="48.87 43.66 52.37 46.11 62.73 31.31 62.73 15.69 84.11 15.69 84.11 42.75 73.42 42.75 73.42 47.02 88.38 47.02 88.38 11.42 62.73 11.42 62.73 4.27 58.45 4.27 58.45 11.42 48.48 11.42 48.48 15.69 58.45 15.69 58.45 29.96 48.87 43.66"/><polygon class="cls-1" points="196.66 31.12 196.66 4.27 192.39 4.27 192.39 29.77 183.28 42.77 155.39 42.77 155.39 47.05 185.51 47.05 196.66 31.12"/><rect class="cls-1" x="89.81" y="1.44" width="4.27" height="4.27"/><rect class="cls-1" x="82.68" y="1.44" width="4.27" height="4.27"/><rect class="cls-1" x="29.95" y="5.71" width="4.27" height="4.27"/><rect class="cls-1" x="22.82" y="5.71" width="4.27" height="4.27"/><path class="cls-1" d="M139.7,8.55h8.55V0H139.7Zm2.85-5.7h2.85V5.7h-2.85Z"/><rect x="262.96" y="22.82" width="39.9" height="4.27"/><rect x="369.83" y="5.72" width="38.47" height="4.27"/><polygon points="368.41 25.66 392.63 25.66 392.63 33.71 386.3 42.76 369.83 42.76 369.83 47.04 388.52 47.04 396.91 35.06 396.91 25.66 411.16 25.66 411.16 21.38 368.41 21.38 368.41 25.66"/><polygon points="699.01 18.84 699.01 12.83 706.14 12.83 706.14 8.55 699.01 8.55 699.01 0 694.73 0 694.73 8.55 687.6 8.55 687.6 12.83 694.73 12.83 694.73 15.52 686.6 34.99 690.54 36.64 694.73 26.61 694.73 49.89 699.01 49.89 699.01 25.18 704.13 30.78 707.29 27.9 699.01 18.84"/><rect x="478.12" y="8.58" width="21.49" height="4.27"/><polygon points="513.74 29.76 504.63 42.76 476.74 42.76 476.74 47.04 506.86 47.04 518.01 31.11 518.01 4.26 513.74 4.26 513.74 29.76"/><rect x="615.67" y="19.68" width="4.27" height="31.66" transform="translate(78.01 338.1) rotate(-32.56)"/><polygon points="429.37 28.52 425.4 28.52 425.4 32.79 430.52 32.79 443.59 25.25 443.59 48.51 447.86 48.51 447.86 22.78 457.68 17.11 462.46 17.11 462.46 12.84 456.53 12.84 429.37 28.52"/><polygon points="205.96 9.99 245.86 9.99 245.86 22.09 224.76 34.27 217.32 21.38 210.22 21.38 210.22 25.65 214.85 25.65 228.51 49.31 232.22 47.17 226.9 37.97 250.13 24.56 250.13 5.71 205.96 5.71 205.96 9.99"/><polygon points="326.5 4.27 322.42 2.99 316.2 22.82 312.85 22.82 312.85 27.09 319.33 27.09 322.91 15.7 348.45 15.7 348.45 32.16 341.04 42.76 319.96 42.76 319.96 47.03 343.26 47.03 352.73 33.51 352.73 15.7 358.42 15.7 358.42 11.42 324.26 11.42 326.5 4.27"/><polygon points="627.74 12.84 606.37 12.84 606.37 1.44 602.09 1.44 602.09 12.84 580.72 12.84 580.72 17.12 600.33 17.12 581.05 47.3 584.66 49.6 605.4 17.12 627.74 17.12 627.74 12.84"/><polygon points="734.61 4.3 723.2 4.3 723.2 0 718.92 0 718.92 4.3 707.51 4.3 707.51 8.58 734.61 8.58 734.61 4.3"/><polygon points="533.63 17.12 528.01 17.12 528.01 21.39 535.85 21.39 543.84 9.99 566.49 9.99 566.49 28.05 556.19 42.76 535.12 42.76 535.12 47.03 558.41 47.03 570.77 29.39 570.77 5.71 541.61 5.71 533.63 17.12"/><rect x="570.76" y="0.01" width="4.27" height="4.27"/><rect x="563.63" y="0.01" width="4.27" height="4.27"/><polygon points="677.61 1.95 673.48 0.85 671.41 8.56 660.74 8.56 658.67 0.85 654.54 1.95 656.31 8.56 647.09 8.56 645.02 0.85 640.89 1.95 642.66 8.56 634.89 8.56 634.89 18.55 639.16 18.55 639.16 12.83 679.03 12.83 679.03 18.55 683.3 18.55 683.3 8.56 675.84 8.56 677.61 1.95"/><rect x="703.67" y="15.34" width="15.72" height="4.27" transform="translate(419.31 666.47) rotate(-67.17)"/><rect x="727.81" y="9.61" width="4.27" height="15.72" transform="translate(50.4 284.57) rotate(-22.83)"/><polygon points="729.83 24.59 726.46 21.96 720.74 29.28 715.02 21.96 711.65 24.59 718.02 32.75 706.8 47.12 710.17 49.75 720.74 36.22 731.31 49.75 734.68 47.12 723.45 32.75 729.83 24.59"/><polygon points="661.93 29.57 673.37 22.96 673.37 18.54 643.42 18.54 643.42 22.82 665.07 22.82 657.66 27.1 657.66 31.37 634.9 31.37 634.9 35.64 657.66 35.64 657.66 45.6 647.73 45.6 647.73 49.88 661.93 49.88 661.93 35.64 683.3 35.64 683.3 31.37 661.93 31.37 661.93 29.57"/><path class="cls-2" d="M761.05,18c4.1-2.4,8.45-4.55,10.8-5.9a31.24,31.24,0,0,0,4.65-3l3.45,5.8c-1.5.9-3.1,1.75-5,2.7a148,148,0,0,0-14,7.4c-4.16,2.75-7,5.6-7,9.1s3.45,5.5,10.41,5.5a77.19,77.19,0,0,0,16.35-1.85l-.1,7.2a92.9,92.9,0,0,1-16.06,1.25c-10,0-17.5-2.75-17.5-11.35,0-5.5,3.5-9.65,8.3-13.2-2.3-4.25-4.7-9.6-7-14.9l6.25-2.55A118.7,118.7,0,0,0,761.05,18Z"/><path class="cls-2" d="M801.91,9.85c-.75,3.35-2.4,14.35-2.4,19.35a23.63,23.63,0,0,0,.2,3.25c.65-1.75,1.5-3.45,2.25-5.15l3,2.5c-1.4,4.1-3,9.2-3.6,11.9a14,14,0,0,0-.25,2.35c0,.5.05,1.35.1,2.05l-5.65.45a58.73,58.73,0,0,1-2-16c0-7.55,1.5-17,2-20.85a47.7,47.7,0,0,0,.5-4.9l6.9.6A32.46,32.46,0,0,0,801.91,9.85ZM827.16,8.1c0,1.1-.1,3-.15,5.15a68.51,68.51,0,0,0,7.75-1.15v6.25c-2.4.35-5,.65-7.75.85.1,4.85.35,8.85.55,12.25a32.72,32.72,0,0,1,9.7,6.45l-3.45,5.25a52.45,52.45,0,0,0-6.1-5c-.3,4.8-3,8.2-9.75,8.2-6.9,0-11.2-2.9-11.2-8.15,0-5,4.3-8.55,11.1-8.55a22.24,22.24,0,0,1,3.25.2c-.1-3.1-.3-6.75-.35-10.3-1.2.05-2.4.05-3.55.05-3,0-5.8-.1-8.75-.3V13.3a83.31,83.31,0,0,0,8.75.45c1.15,0,2.35,0,3.5-.05,0-2.45-.05-4.5-.05-5.55a21.23,21.23,0,0,0-.35-3.3h7.15A31.31,31.31,0,0,0,827.16,8.1Zm-9.9,32.3c3,0,4.1-1.6,4.1-4.55V35a15.44,15.44,0,0,0-4-.55c-2.85,0-4.75,1.2-4.75,3.1S814.61,40.4,817.26,40.4Z"/></g></g></svg>