<svg xmlns="http://www.w3.org/2000/svg" xmlns:xlink="http://www.w3.org/1999/xlink" width="506.53" height="526.606" viewBox="0 0 506.53 526.606"><defs><filter id="a" x="0" y="135.318" width="315.132" height="391.287" filterUnits="userSpaceOnUse"><feOffset dx="5" dy="20" input="SourceAlpha"/><feGaussianBlur stdDeviation="2.5" result="b"/><feFlood flood-opacity="0.11"/><feComposite operator="in" in2="b"/><feComposite in="SourceGraphic"/></filter><filter id="c" x="188.546" y="0" width="317.984" height="389.368" filterUnits="userSpaceOnUse"><feOffset dx="5" dy="20" input="SourceAlpha"/><feGaussianBlur stdDeviation="2.5" result="d"/><feFlood flood-opacity="0.11"/><feComposite operator="in" in2="d"/><feComposite in="SourceGraphic"/></filter></defs><g transform="translate(-1109.5 -1515.619)"><g transform="matrix(1, 0, 0, 1, 1109.5, 1515.62)" filter="url(#a)"><path d="M260.089,9.42V280.84a51.812,51.812,0,0,1-77.719,44.444L65.911,258.023a51.812,51.812,0,0,1,0-89.721l97.445-56.209V65.629l-117.41,68.33a91.859,91.859,0,0,0,0,159.12l116.459,67.855a91.86,91.86,0,0,0,137.731-79.5V32.593Z" transform="translate(2.5 125.9)" fill="#231815"/></g><g transform="matrix(1, 0, 0, 1, 1109.5, 1515.62)" filter="url(#c)"><path d="M272.317,79.534,155.858,12.273A91.979,91.979,0,0,0,18.009,91.655L15.87,338.833,55.8,361.887,58.176,91.774A51.693,51.693,0,0,1,136.251,47.33L252.71,114.591a51.812,51.812,0,0,1,0,89.721l-98.634,56.922V307.46l118.836-68.212a91.859,91.859,0,0,0,0-159.12Z" transform="translate(175.18 -0.02)" fill="#e15513"/></g></g></svg>