<svg xmlns="http://www.w3.org/2000/svg" width="91.392" height="55.2" viewBox="0 0 91.392 55.2"><path d="M-34.224,0a13.73,13.73,0,0,1-6.112-1.272A8.884,8.884,0,0,1-44.3-5.048a12.662,12.662,0,0,1-1.376-6.168V-43.9a13.185,13.185,0,0,1,1.336-6.233,8.634,8.634,0,0,1,3.936-3.792A14.139,14.139,0,0,1-34.144-55.2h18.031a13.982,13.982,0,0,1,6.145,1.24,8.7,8.7,0,0,1,3.936,3.768A13.029,13.029,0,0,1-4.656-43.9v32.688A12.629,12.629,0,0,1-6.032-5.064,8.954,8.954,0,0,1-9.976-1.28,13.622,13.622,0,0,1-16.112,0Zm16.831-5.536A6.1,6.1,0,0,0-12.784-7.28a7.029,7.029,0,0,0,1.68-5.073V-42.784a7.278,7.278,0,0,0-1.6-5.088q-1.6-1.744-5.024-1.744h-4.736q-3.44,0-5.048,1.808a7.3,7.3,0,0,0-1.608,5.024v30.431a6.748,6.748,0,0,0,1.8,5.064,6.555,6.555,0,0,0,4.776,1.752ZM4.32,0V-10.848a15.919,15.919,0,0,1,.744-5.369,14.2,14.2,0,0,1,3.049-4.5L26.336-39.647A7.13,7.13,0,0,0,27.9-41.872a6.375,6.375,0,0,0,.392-2.321v-.7a4.655,4.655,0,0,0-1.207-3.416,5.146,5.146,0,0,0-3.8-1.224H6.993V-55.2H36.1a10.1,10.1,0,0,1,4.92,1.2,8.842,8.842,0,0,1,3.448,3.312,9.255,9.255,0,0,1,1.248,4.8v1.471a14.968,14.968,0,0,1-.64,4.681,13.2,13.2,0,0,1-2.113,3.848,22.119,22.119,0,0,1-1.712,2.015l-17.36,17.9-.208.208a7.223,7.223,0,0,0-1.528,2.136A5.618,5.618,0,0,0,21.7-11.36v5.7H44.48V0Z" transform="translate(45.68 55.2)" fill="#ef561d"/></svg>