<svg xmlns="http://www.w3.org/2000/svg" xmlns:xlink="http://www.w3.org/1999/xlink" width="630.066" height="135.056" viewBox="0 0 630.066 135.056"><defs><linearGradient id="a" x1="1" x2="0" y2="1" gradientUnits="objectBoundingBox"><stop offset="0" stop-color="#ef561d"/><stop offset="1" stop-color="#ff9300"/></linearGradient><filter id="b" x="66.779" y="42.43" width="513.672" height="47" filterUnits="userSpaceOnUse"><feOffset dy="3" input="SourceAlpha"/><feGaussianBlur stdDeviation="3" result="c"/><feFlood flood-opacity="0.161"/><feComposite operator="in" in2="c"/><feComposite in="SourceGraphic"/></filter><filter id="e" x="400.066" y="62" width="230" height="43" filterUnits="userSpaceOnUse"><feOffset dy="3" input="SourceAlpha"/><feGaussianBlur stdDeviation="3" result="f"/><feFlood flood-opacity="0.161"/><feComposite operator="in" in2="f"/><feComposite in="SourceGraphic"/></filter><filter id="h" x="0" y="0" width="229" height="45" filterUnits="userSpaceOnUse"><feOffset dy="3" input="SourceAlpha"/><feGaussianBlur stdDeviation="3" result="i"/><feFlood flood-opacity="0.161"/><feComposite operator="in" in2="i"/><feComposite in="SourceGraphic"/></filter><filter id="k" x="0" y="102.056" width="379" height="33" filterUnits="userSpaceOnUse"><feOffset dy="3" input="SourceAlpha"/><feGaussianBlur stdDeviation="3" result="l"/><feFlood flood-opacity="0.161"/><feComposite operator="in" in2="l"/><feComposite in="SourceGraphic"/></filter></defs><g transform="translate(9 -1861.444)"><g transform="translate(-1 42.5)"><g transform="translate(1 -57.056)"><g transform="matrix(1, 0, 0, 1, -9, 1876)" filter="url(#b)"><rect width="495.672" height="29" transform="translate(75.78 48.43)" fill="url(#a)"/></g><g transform="matrix(1, 0, 0, 1, -9, 1876)" filter="url(#e)"><rect width="212" height="25" transform="translate(409.07 68)" fill="url(#a)"/></g><g transform="matrix(1, 0, 0, 1, -9, 1876)" filter="url(#h)"><rect width="211" height="27" transform="translate(9 6)" fill="url(#a)"/></g><g transform="matrix(1, 0, 0, 1, -9, 1876)" filter="url(#k)"><rect width="361" height="15" transform="translate(9 108.06)" fill="url(#a)"/></g></g></g></g></svg>