<svg xmlns="http://www.w3.org/2000/svg" xmlns:xlink="http://www.w3.org/1999/xlink" width="303" height="149" viewBox="0 0 303 149"><defs><linearGradient id="a" x1="1" x2="0" y2="1" gradientUnits="objectBoundingBox"><stop offset="0" stop-color="#ef561d"/><stop offset="1" stop-color="#ff9300"/></linearGradient></defs><g transform="translate(-481 -1703)"><path d="M8,0H295a8,8,0,0,1,8,8V141a8,8,0,0,1-8,8H8a8,8,0,0,1-8-8V8A8,8,0,0,1,8,0Z" transform="translate(481 1703)" fill="#fff"/><path d="M8,4A4,4,0,0,0,4,8V141a4,4,0,0,0,4,4H295a4,4,0,0,0,4-4V8a4,4,0,0,0-4-4H8M8,0H295a8,8,0,0,1,8,8V141a8,8,0,0,1-8,8H8a8,8,0,0,1-8-8V8A8,8,0,0,1,8,0Z" transform="translate(481 1703)" fill="url(#a)"/></g></svg>