<svg xmlns="http://www.w3.org/2000/svg" width="70.688" height="55.2" viewBox="0 0 70.688 55.2"><path d="M-24.3,0a13.73,13.73,0,0,1-6.112-1.272,8.884,8.884,0,0,1-3.968-3.776,12.662,12.662,0,0,1-1.376-6.168V-43.9a13.185,13.185,0,0,1,1.336-6.233,8.634,8.634,0,0,1,3.936-3.792A14.139,14.139,0,0,1-24.224-55.2H-6.192A13.982,13.982,0,0,1-.047-53.96a8.7,8.7,0,0,1,3.936,3.768A13.029,13.029,0,0,1,5.264-43.9v32.688A12.629,12.629,0,0,1,3.888-5.064,8.954,8.954,0,0,1-.055-1.28,13.622,13.622,0,0,1-6.192,0ZM-7.472-5.536A6.1,6.1,0,0,0-2.864-7.28a7.029,7.029,0,0,0,1.68-5.073V-42.784a7.278,7.278,0,0,0-1.6-5.088q-1.6-1.744-5.024-1.744h-4.736q-3.44,0-5.048,1.808A7.3,7.3,0,0,0-19.2-42.784v30.431a6.748,6.748,0,0,0,1.8,5.064,6.555,6.555,0,0,0,4.776,1.752Zm26.065-43.84H12L14.3-55.2H34.928V0H18.593Z" transform="translate(35.76 55.2)" fill="#ef561d"/></svg>