<svg xmlns="http://www.w3.org/2000/svg" width="87.167" height="55.2" viewBox="0 0 87.167 55.2"><path d="M-32.144,0a13.73,13.73,0,0,1-6.112-1.272,8.884,8.884,0,0,1-3.968-3.776A12.662,12.662,0,0,1-43.6-11.216V-43.9a13.185,13.185,0,0,1,1.336-6.233,8.634,8.634,0,0,1,3.936-3.792A14.139,14.139,0,0,1-32.064-55.2h18.031a13.982,13.982,0,0,1,6.145,1.24,8.7,8.7,0,0,1,3.936,3.768A13.029,13.029,0,0,1-2.576-43.9v32.688A12.629,12.629,0,0,1-3.952-5.064,8.954,8.954,0,0,1-7.9-1.28,13.622,13.622,0,0,1-14.032,0Zm16.831-5.536A6.1,6.1,0,0,0-10.7-7.28a7.029,7.029,0,0,0,1.68-5.073V-42.784a7.278,7.278,0,0,0-1.6-5.088q-1.6-1.744-5.024-1.744h-4.736q-3.44,0-5.048,1.808a7.3,7.3,0,0,0-1.608,5.024v30.431a6.748,6.748,0,0,0,1.8,5.064,6.555,6.555,0,0,0,4.776,1.752ZM4.16-5.664H21.6a5.593,5.593,0,0,0,3.984-1.408,4.658,4.658,0,0,0,1.5-3.552v-9.089a4.64,4.64,0,0,0-1.856-3.807,6.936,6.936,0,0,0-4.448-1.472H10.928v-5.824h9.856a6.568,6.568,0,0,0,3.088-.736,5.567,5.567,0,0,0,2.192-1.984,5.018,5.018,0,0,0,.784-2.721v-8.7a4.147,4.147,0,0,0-1.432-3.4,6.064,6.064,0,0,0-3.959-1.176H4.16V-55.2H34.048a10.765,10.765,0,0,1,4.961,1.072,7.685,7.685,0,0,1,3.24,3.064,9.333,9.333,0,0,1,1.144,4.728v9.393a11.007,11.007,0,0,1-.953,4.607,8.644,8.644,0,0,1-2.72,3.416,7.714,7.714,0,0,1-4.136,1.5l-.176-1.5a9.684,9.684,0,0,1,4.369,1.544,8.3,8.3,0,0,1,2.807,3.216,10.35,10.35,0,0,1,.984,4.664v10.56a8.616,8.616,0,0,1-1.3,4.736,8.542,8.542,0,0,1-3.512,3.12A11.271,11.271,0,0,1,33.728,0H4.16Z" transform="translate(43.6 55.2)" fill="#ef561d"/></svg>