<svg xmlns="http://www.w3.org/2000/svg" width="98.927" height="55.2" viewBox="0 0 98.927 55.2"><path d="M-36.9,0a13.73,13.73,0,0,1-6.112-1.272,8.884,8.884,0,0,1-3.968-3.776,12.662,12.662,0,0,1-1.376-6.168V-43.9a13.185,13.185,0,0,1,1.336-6.233,8.634,8.634,0,0,1,3.936-3.792A14.139,14.139,0,0,1-36.824-55.2h18.031a13.982,13.982,0,0,1,6.145,1.24,8.7,8.7,0,0,1,3.936,3.768A13.029,13.029,0,0,1-7.336-43.9v32.688A12.629,12.629,0,0,1-8.712-5.064,8.954,8.954,0,0,1-12.656-1.28,13.622,13.622,0,0,1-18.792,0Zm16.831-5.536A6.1,6.1,0,0,0-15.464-7.28a7.029,7.029,0,0,0,1.68-5.073V-42.784a7.278,7.278,0,0,0-1.6-5.088q-1.6-1.744-5.024-1.744h-4.736q-3.44,0-5.048,1.808A7.3,7.3,0,0,0-31.8-42.784v30.431A6.748,6.748,0,0,0-30-7.288a6.555,6.555,0,0,0,4.776,1.752ZM28.04-55.2l-10.1,31.393a3.832,3.832,0,0,0-.176,1.04A2.5,2.5,0,0,0,18.9-20.616a5.313,5.313,0,0,0,3.1.792H36.824V-55.2H43.3v35.376h7.264v5.9H43.3V0h-6.48V-13.92H9.176a8.4,8.4,0,0,1-5.544-1.664A5.186,5.186,0,0,1,1.64-19.727a10.886,10.886,0,0,1,.088-1.4,11.569,11.569,0,0,1,.248-1.32l.144-.32L12.536-55.2Z" transform="translate(48.36 55.2)" fill="#ef561d"/></svg>