<svg xmlns="http://www.w3.org/2000/svg" width="74.662" height="75.813" viewBox="0 0 74.662 75.813"><g transform="translate(-769 -3969)"><path d="M39.51,9.42V50.648A7.87,7.87,0,0,1,27.7,57.4L10.015,47.182a7.87,7.87,0,0,1,0-13.628l14.8-8.538V17.958L6.982,28.337a13.953,13.953,0,0,0,0,24.17l17.69,10.307A13.953,13.953,0,0,0,45.593,50.738V12.94Z" transform="translate(768.996 3980.135)" fill="#231815"/><path d="M54.823,12.1,37.134,1.88A13.971,13.971,0,0,0,16.195,13.938L15.87,51.483l6.065,3.5L22.3,13.956A7.852,7.852,0,0,1,34.155,7.205l17.69,10.217a7.87,7.87,0,0,1,0,13.628L36.863,39.7v7.022L54.914,36.357a13.953,13.953,0,0,0,0-24.17Z" transform="translate(781.77 3968.981)" fill="#e15513"/></g></svg>